<?xml version="1.0" encoding="UTF-8"?>
<svg id="Layer_1" data-name="Layer 1" xmlns="http://www.w3.org/2000/svg" viewBox="0 0 415.49 143.7">
  <defs>
    <style>
      .cls-1 {
        fill: #3eb6ff;
      }

      .cls-2 {
        fill: #231f20;
      }

      .cls-3 {
        fill: #ec2024;
      }
    </style>
  </defs>
  <path class="cls-2" d="M135.58,48.02h7.43v38.42h-7.43v-38.42ZM141.05,48.02h20.99v6.56h-20.99v-6.56ZM141.05,63.65h19.35v6.34h-19.35v-6.34ZM141.05,79.88h21.26v6.56h-21.26v-6.56Z"/>
  <rect class="cls-2" x="167.71" y="46.93" width="7.16" height="39.51"/>
  <path class="cls-2" d="M184.82,55.78c-1.17,0-2.13-.39-2.9-1.17-.77-.78-1.15-1.76-1.15-2.92s.38-2.09,1.15-2.9c.77-.8,1.73-1.2,2.9-1.2s2.18.4,2.92,1.2c.75.8,1.12,1.77,1.12,2.9s-.37,2.14-1.12,2.92c-.75.78-1.72,1.17-2.92,1.17M181.21,60.04h7.21v26.4h-7.21v-26.4ZM188.92,51.68c0,2.26-1.84,4.1-4.1,4.1s-4.1-1.84-4.1-4.1,1.83-4.1,4.1-4.1,4.1,1.83,4.1,4.1"/>
  <path class="cls-2" d="M192.47,60.04h19.51v6.28h-19.51v-6.28ZM198.65,49.06h7.16v37.38h-7.16v-37.38Z"/>
  <path class="cls-2" d="M228,86.99c-2.77,0-5.23-.59-7.38-1.78-2.15-1.18-3.85-2.81-5.11-4.89-1.26-2.08-1.89-4.45-1.89-7.11s.61-4.96,1.83-7.02c1.22-2.06,2.89-3.7,5-4.92,2.11-1.22,4.46-1.83,7.05-1.83s4.8.58,6.75,1.72c1.95,1.15,3.48,2.71,4.59,4.7,1.11,1.99,1.67,4.24,1.67,6.75,0,.48-.03.96-.08,1.45-.06.49-.16,1.05-.3,1.67l-22.19.05v-5.35l18.85-.05-2.9,2.24c-.07-1.57-.36-2.88-.85-3.93-.49-1.06-1.2-1.87-2.13-2.43-.93-.56-2.07-.85-3.42-.85-1.42,0-2.66.32-3.72.96-1.06.64-1.87,1.53-2.43,2.68-.56,1.15-.85,2.5-.85,4.07s.3,3,.9,4.18c.6,1.18,1.47,2.1,2.6,2.73,1.13.64,2.44.96,3.93.96,1.35,0,2.57-.23,3.66-.68s2.04-1.14,2.84-2.05l4.21,4.21c-1.28,1.49-2.83,2.62-4.67,3.39-1.84.77-3.83,1.15-5.98,1.15"/>
  <polygon class="cls-2" points="266.09 86.44 253.63 48.02 260.95 48.02 270.19 77.59 267.73 77.59 276.8 48.02 282.32 48.02 291.39 77.59 288.88 77.59 298.17 48.02 305.49 48.02 292.98 86.44 287.46 86.44 278.33 56.93 280.73 56.93 271.66 86.44 266.09 86.44"/>
  <path class="cls-2" d="M318.61,86.99c-2.66,0-5.05-.61-7.19-1.83-2.13-1.22-3.83-2.88-5.08-4.97-1.26-2.09-1.89-4.44-1.89-7.02s.62-4.91,1.86-6.97c1.24-2.06,2.93-3.7,5.08-4.92,2.15-1.22,4.54-1.83,7.16-1.83s5.11.61,7.24,1.83c2.13,1.22,3.82,2.86,5.05,4.92,1.24,2.06,1.86,4.38,1.86,6.97s-.62,4.93-1.86,7.02c-1.24,2.1-2.92,3.75-5.05,4.97-2.13,1.22-4.53,1.83-7.19,1.83M318.55,80.32c1.35,0,2.54-.3,3.58-.9s1.84-1.44,2.4-2.51c.57-1.07.85-2.3.85-3.69s-.29-2.61-.87-3.66c-.58-1.05-1.39-1.88-2.41-2.49-1.02-.6-2.2-.9-3.55-.9s-2.48.3-3.5.9c-1.02.6-1.82,1.43-2.4,2.49-.58,1.06-.87,2.28-.87,3.66s.29,2.61.87,3.69c.58,1.08,1.38,1.91,2.4,2.51,1.02.6,2.19.9,3.5.9"/>
  <path class="cls-2" d="M337.3,60.04h7.16v26.4h-7.16v-26.4ZM344.46,71.85l-2.79-1.86c.33-3.24,1.28-5.8,2.84-7.68,1.57-1.88,3.83-2.81,6.78-2.81,1.27,0,2.42.21,3.44.63,1.02.42,1.95,1.1,2.79,2.05l-4.48,5.14c-.4-.44-.88-.77-1.45-.98-.57-.22-1.21-.33-1.94-.33-1.53,0-2.78.48-3.74,1.45-.97.97-1.45,2.43-1.45,4.4"/>
  <rect class="cls-2" x="360.03" y="46.93" width="7.16" height="39.51"/>
  <path class="cls-2" d="M384.68,86.99c-2.44,0-4.63-.6-6.56-1.8-1.93-1.2-3.45-2.84-4.56-4.92-1.11-2.08-1.67-4.41-1.67-7s.55-4.97,1.67-7.05c1.11-2.08,2.62-3.72,4.54-4.92,1.91-1.2,4.11-1.8,6.59-1.8,1.89,0,3.6.38,5.11,1.15,1.51.77,2.73,1.83,3.66,3.2.93,1.37,1.43,2.91,1.5,4.62v9.4c-.07,1.71-.56,3.26-1.48,4.65-.91,1.39-2.13,2.48-3.66,3.28-1.53.8-3.24,1.2-5.14,1.2M385.88,80.37c1.35,0,2.52-.3,3.52-.9,1-.6,1.78-1.44,2.35-2.51.56-1.08.85-2.32.85-3.74s-.28-2.61-.85-3.69c-.57-1.08-1.35-1.91-2.35-2.51-1-.6-2.16-.9-3.47-.9s-2.52.31-3.52.93c-1,.62-1.79,1.46-2.35,2.51-.56,1.06-.85,2.28-.85,3.66s.28,2.67.85,3.74c.57,1.08,1.36,1.91,2.38,2.51,1.02.6,2.17.9,3.44.9M399.32,86.44h-7.1v-7.1l1.15-6.45-1.2-6.34v-19.62h7.16v39.51Z"/>
  <path class="cls-1" d="M188.92,51.68c0,2.26-1.84,4.1-4.1,4.1s-4.1-1.84-4.1-4.1,1.83-4.1,4.1-4.1,4.1,1.83,4.1,4.1"/>
  <path class="cls-3" d="M85.1,77.66l-55.54,51.18c-5.14,4.73-13.46,1.05-13.4-5.94l.25-33.43h14.97v16.82l34.59-34.59L30.98,36.7v17.17h-14.3l.26-34.13c.05-7,8.42-10.55,13.5-5.74l54.75,52c3.36,3.18,3.31,8.54-.08,11.67"/>
  <path class="cls-1" d="M117.28,71.85c0,.23-.01.45-.03.68-.05.57-.17,1.15-.36,1.71-.04.1-.07.21-.12.31-.03.08-.06.15-.09.24-.04.09-.08.18-.13.27-.05.11-.11.22-.17.33-.04.08-.09.16-.13.24-.16.26-.33.52-.53.77-.07.09-.15.19-.23.28-.15.18-.32.36-.5.53l-.04.04-55.5,52.83c-1.43,1.36-3.26,2.03-5.09,2.03-1.95,0-3.9-.77-5.35-2.29-2.81-2.95-2.69-7.62.26-10.43l49.65-47.27c.15-.14.15-.37,0-.51L49.28,24.32c-2.95-2.81-3.07-7.48-.26-10.43,2.81-2.95,7.48-3.07,10.44-.26l55.49,52.83c.1.1.2.2.3.3.09.09.17.18.25.27.08.09.16.19.23.28.2.25.37.51.53.77.04.08.09.15.13.23.06.11.12.22.17.33.04.09.09.18.13.27.03.08.07.16.09.24,0,0,0,0,0,0,.22.5.34,1.03.42,1.57.06.39.09.75.09,1.12"/>
</svg>