<?xml version="1.0" encoding="UTF-8"?>
<svg id="Layer_1" xmlns="http://www.w3.org/2000/svg" version="1.1" viewBox="0 0 171.5 30">
  <!-- Generator: Adobe Illustrator 29.6.1, SVG Export Plug-In . SVG Version: 2.1.1 Build 9)  -->
  <defs>
    <style>
      .st0 {
        fill: #3eb6ff;
      }

      .st1 {
        fill: #231f20;
      }

      .st2 {
        fill: #ec2024;
      }
    </style>
  </defs>
  <path class="st1" d="M39.3,4.3h3.6v18.7h-3.6V4.3ZM41.9,4.3h10.2v3.2h-10.2v-3.2ZM41.9,11.9h9.4v3.1h-9.4v-3.1ZM41.9,19.9h10.4v3.2h-10.4v-3.2Z"/>
  <rect class="st1" x="54.9" y="3.8" width="3.5" height="19.3"/>
  <path class="st1" d="M63.3,8.1c-.6,0-1-.2-1.4-.6-.4-.4-.6-.9-.6-1.4s.2-1,.6-1.4c.4-.4.8-.6,1.4-.6s1.1.2,1.4.6c.4.4.5.9.5,1.4s-.2,1-.5,1.4c-.4.4-.8.6-1.4.6M61.5,10.2h3.5v12.9h-3.5v-12.9ZM65.3,6.1c0,1.1-.9,2-2,2s-2-.9-2-2,.9-2,2-2,2,.9,2,2"/>
  <path class="st1" d="M67,10.2h9.5v3.1h-9.5v-3.1ZM70,4.8h3.5v18.2h-3.5V4.8Z"/>
  <path class="st1" d="M84.3,23.3c-1.4,0-2.6-.3-3.6-.9-1-.6-1.9-1.4-2.5-2.4-.6-1-.9-2.2-.9-3.5s.3-2.4.9-3.4c.6-1,1.4-1.8,2.4-2.4,1-.6,2.2-.9,3.4-.9s2.3.3,3.3.8c1,.6,1.7,1.3,2.2,2.3s.8,2.1.8,3.3,0,.5,0,.7c0,.2,0,.5-.1.8h-10.8s0-2.6,0-2.6h9.2s-1.4,1.1-1.4,1.1c0-.8-.2-1.4-.4-1.9-.2-.5-.6-.9-1-1.2-.5-.3-1-.4-1.7-.4s-1.3.2-1.8.5-.9.7-1.2,1.3-.4,1.2-.4,2,.1,1.5.4,2c.3.6.7,1,1.3,1.3.6.3,1.2.5,1.9.5s1.3-.1,1.8-.3,1-.6,1.4-1l2.1,2.1c-.6.7-1.4,1.3-2.3,1.7-.9.4-1.9.6-2.9.6"/>
  <polygon class="st1" points="102.9 23.1 96.8 4.3 100.4 4.3 104.9 18.7 103.7 18.7 108.1 4.3 110.8 4.3 115.3 18.7 114 18.7 118.6 4.3 122.1 4.3 116 23.1 113.3 23.1 108.9 8.7 110.1 8.7 105.6 23.1 102.9 23.1"/>
  <path class="st1" d="M128.5,23.3c-1.3,0-2.5-.3-3.5-.9-1-.6-1.9-1.4-2.5-2.4-.6-1-.9-2.2-.9-3.4s.3-2.4.9-3.4c.6-1,1.4-1.8,2.5-2.4,1-.6,2.2-.9,3.5-.9s2.5.3,3.5.9,1.9,1.4,2.5,2.4c.6,1,.9,2.1.9,3.4s-.3,2.4-.9,3.4c-.6,1-1.4,1.8-2.5,2.4-1,.6-2.2.9-3.5.9M128.5,20.1c.7,0,1.2-.1,1.7-.4s.9-.7,1.2-1.2c.3-.5.4-1.1.4-1.8s-.1-1.3-.4-1.8-.7-.9-1.2-1.2c-.5-.3-1.1-.4-1.7-.4s-1.2.1-1.7.4-.9.7-1.2,1.2c-.3.5-.4,1.1-.4,1.8s.1,1.3.4,1.8.7.9,1.2,1.2c.5.3,1.1.4,1.7.4"/>
  <path class="st1" d="M137.7,10.2h3.5v12.9h-3.5v-12.9ZM141.1,15.9l-1.4-.9c.2-1.6.6-2.8,1.4-3.7.8-.9,1.9-1.4,3.3-1.4s1.2.1,1.7.3c.5.2,1,.5,1.4,1l-2.2,2.5c-.2-.2-.4-.4-.7-.5-.3-.1-.6-.2-.9-.2-.7,0-1.4.2-1.8.7-.5.5-.7,1.2-.7,2.1"/>
  <rect class="st1" x="148.7" y="3.8" width="3.5" height="19.3"/>
  <path class="st1" d="M160.8,23.3c-1.2,0-2.3-.3-3.2-.9-.9-.6-1.7-1.4-2.2-2.4s-.8-2.2-.8-3.4.3-2.4.8-3.4c.5-1,1.3-1.8,2.2-2.4.9-.6,2-.9,3.2-.9s1.8.2,2.5.6c.7.4,1.3.9,1.8,1.6.5.7.7,1.4.7,2.3v4.6c0,.8-.3,1.6-.7,2.3-.4.7-1,1.2-1.8,1.6-.7.4-1.6.6-2.5.6M161.3,20.1c.7,0,1.2-.1,1.7-.4.5-.3.9-.7,1.1-1.2.3-.5.4-1.1.4-1.8s-.1-1.3-.4-1.8-.7-.9-1.1-1.2c-.5-.3-1.1-.4-1.7-.4s-1.2.2-1.7.5c-.5.3-.9.7-1.1,1.2-.3.5-.4,1.1-.4,1.8s.1,1.3.4,1.8c.3.5.7.9,1.2,1.2.5.3,1.1.4,1.7.4M167.9,23.1h-3.5v-3.5l.6-3.1-.6-3.1V3.8h3.5v19.3h0Z"/>
  <path class="st0" d="M65.3,6.1c0,1.1-.9,2-2,2s-2-.9-2-2,.9-2,2-2,2,.9,2,2"/>
  <path class="st2" d="M19.4,16.4l-13.4,12.3c-1.2,1.1-3.2.3-3.2-1.4v-8.1h3.7v4.1l8.3-8.3L6.3,6.5v4.1h-3.4V2.4c0-1.7,2.1-2.5,3.3-1.4l13.2,12.5c.8.8.8,2.1,0,2.8"/>
  <path class="st0" d="M27.2,15c0,0,0,.1,0,.2,0,.1,0,.3,0,.4,0,0,0,0,0,0,0,0,0,0,0,0,0,0,0,0,0,0,0,0,0,0,0,0,0,0,0,0,0,0,0,0,0,.1-.1.2,0,0,0,0,0,0,0,0,0,0-.1.1h0s-13.4,12.7-13.4,12.7c-.3.3-.8.5-1.2.5s-.9-.2-1.3-.6c-.7-.7-.6-1.8,0-2.5l12-11.4s0,0,0-.1L10.8,3.5c-.7-.7-.7-1.8,0-2.5.7-.7,1.8-.7,2.5,0l13.4,12.7h0c0,0,0,.1,0,.1s0,0,0,0c0,0,0,.1.1.2,0,0,0,0,0,0,0,0,0,0,0,0,0,0,0,0,0,0,0,0,0,0,0,0h0c0,.1,0,.2.1.4,0,0,0,.2,0,.3"/>
</svg>