<?xml version="1.0" encoding="UTF-8"?><svg id="Layer_1" xmlns="http://www.w3.org/2000/svg" viewBox="0 0 443.6 143.7"><defs><style>.cls-1{fill:#3eb6ff;}.cls-2{fill:#231f20;}.cls-3{fill:#ec2024;}</style></defs><path class="cls-2" d="M139.7,45.5h8.4v43.6h-8.4v-43.6ZM145.9,45.5h23.8v7.4h-23.8v-7.4ZM145.9,63.2h21.9v7.2h-21.9v-7.2ZM145.9,81.6h24.1v7.4h-24.1v-7.4Z"/><rect class="cls-2" x="176.2" y="44.2" width="8.1" height="44.8"/><path class="cls-2" d="M195.6,54.3c-1.3,0-2.4-.4-3.3-1.3-.9-.9-1.3-2-1.3-3.3s.4-2.4,1.3-3.3c.9-.9,2-1.4,3.3-1.4s2.5.5,3.3,1.4c.9.9,1.3,2,1.3,3.3s-.4,2.4-1.3,3.3-2,1.3-3.3,1.3M191.5,59.1h8.2v29.9h-8.2v-29.9ZM200.2,49.6c0,2.6-2.1,4.6-4.6,4.6s-4.6-2.1-4.6-4.6,2.1-4.6,4.6-4.6,4.6,2.1,4.6,4.6"/><path class="cls-2" d="M204.2,59.1h22.1v7.1h-22.1v-7.1ZM211.3,46.7h8.1v42.4h-8.1v-42.4Z"/><path class="cls-2" d="M244.5,89.7c-3.1,0-5.9-.7-8.4-2-2.4-1.3-4.4-3.2-5.8-5.5s-2.1-5-2.1-8.1.7-5.6,2.1-8,3.3-4.2,5.7-5.6c2.4-1.4,5.1-2.1,8-2.1s5.4.7,7.7,2c2.2,1.3,3.9,3.1,5.2,5.3s1.9,4.8,1.9,7.7,0,1.1,0,1.6c0,.6-.2,1.2-.3,1.9h-25.2c0,0,0-6,0-6h21.4c0,0-3.3,2.5-3.3,2.5,0-1.8-.4-3.3-1-4.5-.6-1.2-1.4-2.1-2.4-2.8-1.1-.6-2.3-1-3.9-1s-3,.4-4.2,1.1-2.1,1.7-2.8,3-1,2.8-1,4.6.3,3.4,1,4.7c.7,1.3,1.7,2.4,2.9,3.1,1.3.7,2.8,1.1,4.5,1.1s2.9-.3,4.1-.8,2.3-1.3,3.2-2.3l4.8,4.8c-1.5,1.7-3.2,3-5.3,3.8s-4.3,1.3-6.8,1.3"/><polygon class="cls-2" points="287.7 89 273.6 45.5 281.9 45.5 292.4 79 289.6 79 299.9 45.5 306.1 45.5 316.4 79 313.6 79 324.1 45.5 332.4 45.5 318.2 89 311.9 89 301.6 55.6 304.3 55.6 294 89 287.7 89"/><path class="cls-2" d="M347.3,89.7c-3,0-5.7-.7-8.2-2.1-2.4-1.4-4.3-3.3-5.8-5.6-1.4-2.4-2.1-5-2.1-8s.7-5.6,2.1-7.9,3.3-4.2,5.8-5.6c2.4-1.4,5.1-2.1,8.1-2.1s5.8.7,8.2,2.1,4.3,3.2,5.7,5.6c1.4,2.3,2.1,5,2.1,7.9s-.7,5.6-2.1,8c-1.4,2.4-3.3,4.3-5.7,5.6-2.4,1.4-5.1,2.1-8.2,2.1M347.2,82.1c1.5,0,2.9-.3,4.1-1s2.1-1.6,2.7-2.8c.6-1.2,1-2.6,1-4.2s-.3-3-1-4.1-1.6-2.1-2.7-2.8c-1.2-.7-2.5-1-4-1s-2.8.3-4,1-2.1,1.6-2.7,2.8-1,2.6-1,4.1.3,3,1,4.2,1.6,2.2,2.7,2.8,2.5,1,4,1"/><path class="cls-2" d="M368.4,59.1h8.1v29.9h-8.1v-29.9ZM376.6,72.5l-3.2-2.1c.4-3.7,1.5-6.6,3.2-8.7,1.8-2.1,4.3-3.2,7.7-3.2s2.7.2,3.9.7c1.2.5,2.2,1.2,3.2,2.3l-5.1,5.8c-.5-.5-1-.9-1.6-1.1-.6-.2-1.4-.4-2.2-.4-1.7,0-3.2.5-4.2,1.6-1.1,1.1-1.6,2.8-1.6,5"/><rect class="cls-2" x="394.2" y="44.2" width="8.1" height="44.8"/><path class="cls-2" d="M422.2,89.7c-2.8,0-5.2-.7-7.4-2-2.2-1.4-3.9-3.2-5.2-5.6s-1.9-5-1.9-7.9.6-5.6,1.9-8c1.3-2.4,3-4.2,5.1-5.6,2.2-1.4,4.7-2,7.5-2s4.1.4,5.8,1.3c1.7.9,3.1,2.1,4.1,3.6,1.1,1.6,1.6,3.3,1.7,5.2v10.7c0,1.9-.6,3.7-1.7,5.3-1,1.6-2.4,2.8-4.1,3.7-1.7.9-3.7,1.4-5.8,1.4M423.5,82.2c1.5,0,2.9-.3,4-1s2-1.6,2.7-2.8c.6-1.2,1-2.6,1-4.2s-.3-3-1-4.2-1.5-2.2-2.7-2.8-2.4-1-3.9-1-2.9.4-4,1.1-2,1.7-2.7,2.8c-.6,1.2-1,2.6-1,4.1s.3,3,1,4.2c.6,1.2,1.5,2.2,2.7,2.8,1.2.7,2.5,1,3.9,1M438.8,89h-8v-8l1.3-7.3-1.4-7.2v-22.2h8.1v44.8h0Z"/><path class="cls-1" d="M200.2,49.6c0,2.6-2.1,4.6-4.6,4.6s-4.6-2.1-4.6-4.6,2.1-4.6,4.6-4.6,4.6,2.1,4.6,4.6"/><path class="cls-3" d="M85.1,77.7l-55.5,51.2c-5.1,4.7-13.5,1.1-13.4-5.9l.2-33.4h15v16.8l34.6-34.6L31,36.7v17.2h-14.3l.3-34.1c0-7,8.4-10.6,13.5-5.7l54.8,52c3.4,3.2,3.3,8.5,0,11.7"/><path class="cls-1" d="M117.3,71.8c0,.2,0,.4,0,.7,0,.6-.2,1.2-.4,1.7,0,0,0,.2-.1.3,0,0,0,.2,0,.2,0,0,0,.2-.1.3,0,.1-.1.2-.2.3,0,0,0,.2-.1.2-.2.3-.3.5-.5.8,0,0-.2.2-.2.3-.2.2-.3.4-.5.5h0s-55.5,52.9-55.5,52.9c-1.4,1.4-3.3,2-5.1,2s-3.9-.8-5.3-2.3c-2.8-2.9-2.7-7.6.3-10.4l49.7-47.3c.2-.1.2-.4,0-.5L49.3,24.3c-3-2.8-3.1-7.5-.3-10.4,2.8-2.9,7.5-3.1,10.4-.3l55.5,52.8.3.3c0,0,.2.2.2.3s.2.2.2.3c.2.2.4.5.5.8,0,0,0,.2.1.2,0,.1.1.2.2.3,0,0,0,.2.1.3,0,0,0,.2,0,.2h0c.2.5.3,1,.4,1.6,0,.4,0,.8,0,1.1"/></svg>