<?xml version="1.0" encoding="UTF-8"?><svg id="Layer_1" xmlns="http://www.w3.org/2000/svg" viewBox="0 0 100.5 30"><defs><style>.cls-1{fill:#3eb6ff;}.cls-2{fill:#231f20;}.cls-3{fill:#ec2024;}</style></defs><path class="cls-2" d="M30.1,8.6h2v10.1h-2v-10.1ZM31.5,8.6h5.5v1.7h-5.5v-1.7ZM31.5,12.7h5.1v1.7h-5.1v-1.7ZM31.5,17h5.6v1.7h-5.6v-1.7Z"/><rect class="cls-2" x="38.5" y="8.3" width="1.9" height="10.4"/><path class="cls-2" d="M43.1,10.7c-.3,0-.6-.1-.8-.3-.2-.2-.3-.5-.3-.8s.1-.6.3-.8c.2-.2.5-.3.8-.3s.6.1.8.3c.2.2.3.5.3.8s0,.6-.3.8-.5.3-.8.3M42.1,11.8h1.9v7h-1.9v-7ZM44.1,9.6c0,.6-.5,1.1-1.1,1.1s-1.1-.5-1.1-1.1.5-1.1,1.1-1.1,1.1.5,1.1,1.1"/><path class="cls-2" d="M45.1,11.8h5.1v1.7h-5.1v-1.7ZM46.7,8.9h1.9v9.9h-1.9v-9.9Z"/><path class="cls-2" d="M54.4,18.9c-.7,0-1.4-.2-1.9-.5-.6-.3-1-.7-1.3-1.3s-.5-1.2-.5-1.9.2-1.3.5-1.9.8-1,1.3-1.3c.6-.3,1.2-.5,1.9-.5s1.3.2,1.8.5c.5.3.9.7,1.2,1.2s.4,1.1.4,1.8,0,.3,0,.4c0,.1,0,.3,0,.4h-5.9s0-1.4,0-1.4h5s-.8.6-.8.6c0-.4,0-.8-.2-1-.1-.3-.3-.5-.6-.6-.2-.1-.5-.2-.9-.2s-.7,0-1,.3-.5.4-.6.7-.2.7-.2,1.1,0,.8.2,1.1c.2.3.4.6.7.7.3.2.6.3,1,.3s.7,0,1-.2.5-.3.7-.5l1.1,1.1c-.3.4-.7.7-1.2.9s-1,.3-1.6.3"/><polygon class="cls-2" points="64.5 18.8 61.2 8.6 63.1 8.6 65.6 16.4 64.9 16.4 67.3 8.6 68.8 8.6 71.2 16.4 70.5 16.4 73 8.6 74.9 8.6 71.6 18.8 70.1 18.8 67.7 11 68.4 11 66 18.8 64.5 18.8"/><path class="cls-2" d="M78.3,18.9c-.7,0-1.3-.2-1.9-.5-.6-.3-1-.8-1.3-1.3-.3-.6-.5-1.2-.5-1.9s.2-1.3.5-1.8.8-1,1.3-1.3c.6-.3,1.2-.5,1.9-.5s1.3.2,1.9.5,1,.8,1.3,1.3c.3.5.5,1.2.5,1.8s-.2,1.3-.5,1.9c-.3.6-.8,1-1.3,1.3-.6.3-1.2.5-1.9.5M78.3,17.1c.4,0,.7,0,.9-.2s.5-.4.6-.7c.2-.3.2-.6.2-1s0-.7-.2-1-.4-.5-.6-.7c-.3-.2-.6-.2-.9-.2s-.7,0-.9.2-.5.4-.6.7-.2.6-.2,1,0,.7.2,1,.4.5.6.7.6.2.9.2"/><path class="cls-2" d="M83.3,11.8h1.9v7h-1.9v-7ZM85.2,14.9l-.7-.5c0-.9.3-1.5.7-2,.4-.5,1-.7,1.8-.7s.6,0,.9.2c.3.1.5.3.7.5l-1.2,1.4c-.1-.1-.2-.2-.4-.3-.2,0-.3,0-.5,0-.4,0-.7.1-1,.4-.3.3-.4.6-.4,1.2"/><rect class="cls-2" x="89.3" y="8.3" width="1.9" height="10.4"/><path class="cls-2" d="M95.8,18.9c-.6,0-1.2-.2-1.7-.5-.5-.3-.9-.7-1.2-1.3s-.4-1.2-.4-1.8.1-1.3.4-1.9c.3-.5.7-1,1.2-1.3.5-.3,1.1-.5,1.7-.5s.9.1,1.3.3c.4.2.7.5,1,.8.2.4.4.8.4,1.2v2.5c0,.5-.1.9-.4,1.2-.2.4-.6.7-1,.9-.4.2-.9.3-1.4.3M96.1,17.2c.4,0,.7,0,.9-.2s.5-.4.6-.7c.1-.3.2-.6.2-1s0-.7-.2-1-.4-.5-.6-.7-.6-.2-.9-.2-.7,0-.9.2-.5.4-.6.7c-.1.3-.2.6-.2,1s0,.7.2,1c.2.3.4.5.6.7.3.2.6.2.9.2M99.6,18.8h-1.9v-1.9l.3-1.7-.3-1.7v-5.2h1.9v10.4h0Z"/><path class="cls-1" d="M44.1,9.6c0,.6-.5,1.1-1.1,1.1s-1.1-.5-1.1-1.1.5-1.1,1.1-1.1,1.1.5,1.1,1.1"/><path class="cls-3" d="M17.4,16.1l-12.9,11.9c-1.2,1.1-3.1.2-3.1-1.4v-7.8h3.5v3.9l8-8L4.8,6.6v4H1.4V2.6c0-1.6,2-2.5,3.2-1.3l12.7,12.1c.8.7.8,2,0,2.7"/><path class="cls-1" d="M24.8,14.8c0,0,0,.1,0,.2,0,.1,0,.3,0,.4,0,0,0,0,0,0,0,0,0,0,0,0,0,0,0,0,0,0,0,0,0,0,0,0,0,0,0,0,0,0,0,0,0,.1-.1.2,0,0,0,0,0,0,0,0,0,0-.1.1h0s-12.9,12.3-12.9,12.3c-.3.3-.8.5-1.2.5s-.9-.2-1.2-.5c-.7-.7-.6-1.8,0-2.4l11.5-11s0,0,0-.1L9,3.7c-.7-.7-.7-1.7,0-2.4.7-.7,1.7-.7,2.4,0l12.9,12.3h0c0,0,0,.1,0,.1s0,0,0,0c0,0,0,.1.1.2,0,0,0,0,0,0,0,0,0,0,0,0,0,0,0,0,0,0,0,0,0,0,0,0h0c0,.1,0,.2,0,.4,0,0,0,.2,0,.3"/></svg>