<?xml version="1.0" encoding="UTF-8"?><svg id="Layer_1" xmlns="http://www.w3.org/2000/svg" viewBox="0 0 65 65"><path d="M7.2,31.3c3.5,0,6.3-2.8,6.3-6.3s-2.8-6.3-6.3-6.3S.9,21.5.9,25s2.8,6.3,6.3,6.3ZM7.2,20.8c2.3,0,4.2,1.9,4.2,4.2s-1.9,4.2-4.2,4.2-4.2-1.9-4.2-4.2,1.9-4.2,4.2-4.2Z"/><path d="M57.8,31.3c3.5,0,6.3-2.8,6.3-6.3s-2.8-6.3-6.3-6.3-6.3,2.8-6.3,6.3,2.8,6.3,6.3,6.3ZM57.8,20.8c2.3,0,4.2,1.9,4.2,4.2s-1.9,4.2-4.2,4.2-4.2-1.9-4.2-4.2,1.9-4.2,4.2-4.2Z"/><path d="M57.8,32.4c-4.1,0-7.4,3.3-7.4,7.4v2.1h-7.4v-1.1c0-5.2-4.3-9.5-9.5-9.5h-2.1c-5.2,0-9.5,4.3-9.5,9.5v1.1h-7.4v-2.1c0-4.1-3.3-7.4-7.4-7.4S-.1,35.7-.1,39.8v9.5c0,3.3,2.2,6.1,5.3,7.1v6.6H.9v2.1h63.1v-2.1h-4.2v-6.6c3-.9,5.3-3.7,5.3-7.1v-9.5c0-4.1-3.3-7.4-7.4-7.4ZM32.3,33.4h.5l.7,2.8-.9.9-.9-.9.7-2.8ZM24.1,40.8c0-3.6,2.6-6.6,6-7.2l-.7,2.8c0,.4,0,.7.3,1l2.1,2.1c.2.2.5.3.7.3s.5-.1.7-.3l2.1-2.1c.3-.3.4-.6.3-1l-.7-2.8c3.4.7,6,3.6,6,7.2v1.9c-.6.6-1.1,1.4-1.1,2.3s0,.7.2,1.1h-15.1c.1-.3.2-.7.2-1.1,0-.9-.4-1.8-1.1-2.3v-1.9h0ZM43,48.2h.6l-.6.6c-1,1-2.3,1.5-3.7,1.5h-13.7c-1.4,0-2.7-.5-3.7-1.5l-.6-.6h21.7ZM7.2,62.9v-6.3h5.3c.6,0,1.1.5,1.1,1.1v4.2c0,.4,0,.7.2,1.1h-6.5ZM17.8,61.9c0,.6-.5,1.1-1.1,1.1s-1.1-.5-1.1-1.1v-4.2c0-1.7-1.4-3.2-3.2-3.2h-5.3c-2.9,0-5.3-2.4-5.3-5.3v-9.5c0-2.9,2.4-5.3,5.3-5.3s5.3,2.4,5.3,5.3v3.2c0,.6.5,1.1,1.1,1.1h8.4c.6,0,1.1.5,1.1,1.1s-.5,1.1-1.1,1.1h-11.6v-7.4h-2.1v8.4c0,.6.5,1.1,1.1,1.1h.8l4.7,2.4c1.8.9,2.9,2.7,2.9,4.7v6.6h0ZM27.3,62.9h-7.7c.1-.3.2-.7.2-1.1v-6.6c0-2.8-1.6-5.3-4.1-6.6l-.9-.5h3.5l2.1,2.1c1.4,1.4,3.2,2.2,5.2,2.2h5.8v6.4c-2.1.4-3.7,2-4.1,4.1h0ZM29.5,62.9c.4-1.2,1.6-2.1,3-2.1s2.5.9,3,2.1h-5.9ZM37.6,62.9c-.4-2.1-2-3.7-4.1-4.1v-6.4h5.8c2,0,3.8-.8,5.2-2.2l2.1-2.1h3.5l-.9.5c-2.5,1.3-4.1,3.8-4.1,6.6v6.6c0,.4,0,.7.2,1.1h-7.7,0ZM57.7,62.9h-6.5c.1-.3.2-.7.2-1.1v-4.2c0-.6.5-1.1,1.1-1.1h5.3v6.3ZM63,49.2c0,2.9-2.4,5.3-5.3,5.3h-5.3c-1.7,0-3.2,1.4-3.2,3.2v4.2c0,.6-.5,1.1-1.1,1.1s-1.1-.5-1.1-1.1v-6.6c0-2,1.1-3.8,2.9-4.7l4.7-2.4h.8c.6,0,1.1-.5,1.1-1.1v-8.4h-2.1v7.4h-11.6c-.6,0-1.1-.5-1.1-1.1s.5-1.1,1.1-1.1h8.4c.6,0,1.1-.5,1.1-1.1v-3.2c0-2.9,2.4-5.3,5.3-5.3s5.3,2.4,5.3,5.3v9.5h0Z"/><path d="M32.5,30.3c3.5,0,6.3-2.8,6.3-6.3s-2.8-6.3-6.3-6.3-6.3,2.8-6.3,6.3,2.8,6.3,6.3,6.3ZM32.5,19.8c2.3,0,4.2,1.9,4.2,4.2s-1.9,4.2-4.2,4.2-4.2-1.9-4.2-4.2,1.9-4.2,4.2-4.2Z"/><path d="M42,5.8l-1.9.9c.5,1.1.8,2.3.8,3.6h0s2.1,0,2.1,0c0-1.6-.3-3.1-1-4.5Z"/><path d="M27.4,3.6c1-.7,2.2-1.3,3.4-1.5L30.4,0c-1.5.3-3,1-4.2,1.9l1.3,1.7Z"/><path d="M42,14.8l-1.9-.9c-.5,1.1-1.3,2.1-2.3,2.9l1.3,1.6c1.2-1,2.2-2.2,2.9-3.6h0Z"/><path d="M39.2,2.1c-1.2-1-2.6-1.7-4.1-2.1l-.5,2c1.2.3,2.3.9,3.3,1.7l1.3-1.6Z"/><path d="M25.6,18.2l1.4-1.6c-.9-.8-1.7-1.9-2.2-3l-1.9.8c.6,1.4,1.6,2.7,2.7,3.7Z"/><path d="M25,6.4l-1.9-1c-.7,1.4-1.1,2.9-1.2,4.5h2.1c0-1.2.4-2.4.9-3.5h0Z"/></svg>