<?xml version="1.0" encoding="UTF-8"?><svg id="Layer_1" xmlns="http://www.w3.org/2000/svg" viewBox="0 0 310.9 274.6"><rect x="237.8" y="85.9" width="26.8" height="7.1" style="fill:#ebebeb;"/><path d="M253.3,100.4s0,0,0-.1c0,0,0-.2,0-.4,0-.3,0-.8,0-1.4,0-1.2,0-3,0-5.2h0c-6.1,0-15.8.1-26.8.1,0,0-.1.1.1-.1h0v.5s0,.5,0,.5c0,.3,0,.6,0,.9,0,.6,0,1.2,0,1.8,0,1.2,0,2.3,0,3.5h-.1c7.6-.1,14.3,0,19.1,0,2.4,0,4.3,0,5.6,0,.7,0,1.2,0,1.5,0,.2,0,.3,0,.4,0,0,0,.1,0,.1,0,0,0,0,0-.1,0,0,0-.2,0-.4,0-.4,0-.9,0-1.5,0-1.3,0-3.2,0-5.6,0-4.8,0-11.5,0-19.2,0h-.1s0-.1,0-.1c0-1.1,0-2.3,0-3.5,0-.6,0-1.2,0-1.8,0-.3,0-.6,0-.9v-.5s0-.2,0-.2h0v-.2h0c.3-.3,0-.1.1-.2,10.9,0,20.7,0,26.8,0h0s0,0,0,0c0,2.2,0,4,0,5.2,0,.6,0,1,0,1.4,0,.1,0,.3,0,.3,0,0,0,.1,0,.1Z" style="fill:#e0e0e0;"/><rect x="90.4" y="16.6" width="26.8" height="7.1" style="fill:#ebebeb;"/><path d="M105.9,31.1s0,0,0-.1c0,0,0-.2,0-.4,0-.3,0-.8,0-1.4,0-1.2,0-3,0-5.2h0c-6.1,0-15.8.1-26.8.1,0,0-.1.1.1-.1h0v.5s0,.5,0,.5c0,.3,0,.6,0,.9,0,.6,0,1.2,0,1.8,0,1.2,0,2.3,0,3.5h-.1c7.6-.1,14.3,0,19.1,0,2.4,0,4.3,0,5.6,0,.7,0,1.2,0,1.5,0,.2,0,.3,0,.4,0,0,0,.1,0,.1,0,0,0,0,0-.1,0,0,0-.2,0-.4,0-.4,0-.9,0-1.5,0-1.3,0-3.2,0-5.6,0-4.8,0-11.5,0-19.2,0h-.1s0-.1,0-.1c0-1.1,0-2.3,0-3.5,0-.6,0-1.2,0-1.8,0-.3,0-.6,0-.9v-.5s0-.2,0-.2h0v-.2h0c.3-.3,0-.1.1-.2,10.9,0,20.7,0,26.8,0h0s0,0,0,0c0,2.2,0,4,0,5.2,0,.6,0,1,0,1.4,0,.1,0,.3,0,.3,0,0,0,.1,0,.1Z" style="fill:#e0e0e0;"/><rect x="59.9" y="215" width="26.8" height="7.1" style="fill:#ebebeb;"/><path d="M75.4,229.6s0,0,0-.1c0,0,0-.2,0-.4,0-.3,0-.8,0-1.4,0-1.2,0-3,0-5.2h0c-6.1,0-15.8.1-26.8.1,0,0-.1.1.1-.1h0v.5s0,.5,0,.5c0,.3,0,.6,0,.9,0,.6,0,1.2,0,1.8,0,1.2,0,2.3,0,3.5h-.1c7.6-.1,14.3,0,19.1,0,2.4,0,4.3,0,5.6,0,.7,0,1.2,0,1.5,0,.2,0,.3,0,.4,0,0,0,.1,0,.1,0,0,0,0,0-.1,0,0,0-.2,0-.4,0-.4,0-.9,0-1.5,0-1.3,0-3.2,0-5.6,0-4.8,0-11.5,0-19.2,0h-.1s0-.1,0-.1c0-1.1,0-2.3,0-3.5,0-.6,0-1.2,0-1.8,0-.3,0-.6,0-.9v-.5s0-.2,0-.2h0v-.2h0c.3-.3,0-.1.1-.2,10.9,0,20.7,0,26.8,0h0s0,0,0,0c0,2.2,0,4,0,5.2,0,.6,0,1,0,1.4,0,.1,0,.3,0,.3,0,0,0,.1,0,.1Z" style="fill:#e0e0e0;"/><path d="M255.5,26s0,0,0-.1c0,0,0-.2,0-.4,0-.3,0-.8,0-1.4,0-1.2,0-3,0-5.2h0c-6.1,0-15.8.1-26.8.1,0,0-.1.1.1-.1h0c0,.1,0,.2,0,.2v.7c0,.3,0,.6,0,.9,0,.6,0,1.2,0,1.8,0,1.2,0,2.3,0,3.5h-.1c7.6-.1,14.3,0,19.1,0,2.4,0,4.3,0,5.6,0,.7,0,1.2,0,1.5,0,.2,0,.3,0,.4,0,0,0,.1,0,.1,0,0,0,0,0-.1,0,0,0-.2,0-.4,0-.4,0-.9,0-1.5,0-1.3,0-3.2,0-5.6,0-4.8,0-11.5,0-19.2,0h-.1s0-.1,0-.1c0-1.1,0-2.3,0-3.5,0-.6,0-1.2,0-1.8,0-.3,0-.6,0-.9v-.5s0-.2,0-.2h0v-.2h0c.3-.3,0-.1.1-.2,10.9,0,20.7,0,26.8,0h0s0,0,0,0c0,2.2,0,4,0,5.2,0,.6,0,1,0,1.4,0,.1,0,.3,0,.3,0,0,0,.1,0,.1Z" style="fill:#e0e0e0;"/><path d="M259.2,18.9s0,0,0-.1c0-.1,0-.2,0-.4,0-.3,0-.8,0-1.4,0-1.2,0-3,0-5.2h0c-4.2.1-9.8.1-16.1.1-.1.1.2-.2.1-.1h0c0,.1,0,.2,0,.2v.7c0,.3,0,.6,0,.9,0,.6,0,1.2,0,1.8,0,1.2,0,2.3,0,3.4h-.1c4.6-.1,8.6,0,11.5,0,1.4,0,2.5,0,3.4,0,.4,0,.7,0,.9,0,.2,0,.3,0,.3,0,0,0,0,0-.3,0-.2,0-.5,0-.9,0-.8,0-1.9,0-3.3,0-2.9,0-6.9,0-11.6,0h-.1s0-.1,0-.1c0-1.1,0-2.3,0-3.4,0-.6,0-1.2,0-1.8,0-.3,0-.6,0-.9v-.5s0-.2,0-.2h0v-.2h0s.3-.3.1-.2c6.3,0,11.9,0,16.1,0h0s0,0,0,0c0,2.2,0,4,0,5.2,0,.6,0,1.1,0,1.4,0,.3,0,.5,0,.5Z" style="fill:#e0e0e0;"/><path d="M64,137.1s0,0,0-.1c0,0,0-.2,0-.4,0-.3,0-.8,0-1.4,0-1.2,0-3,0-5.2h0c-6.1,0-15.8.1-26.8.1,0,0-.1.1.1-.1h0c0,.1,0,.2,0,.2v.7c0,.3,0,.6,0,.9,0,.6,0,1.2,0,1.8,0,1.2,0,2.3,0,3.5h-.1c7.6-.1,14.3,0,19.1,0,2.4,0,4.3,0,5.6,0,.7,0,1.2,0,1.5,0,.2,0,.3,0,.4,0,0,0,.1,0,.1,0,0,0,0,0-.1,0,0,0-.2,0-.4,0-.4,0-.9,0-1.5,0-1.3,0-3.2,0-5.6,0-4.8,0-11.5,0-19.2,0h-.1s0-.1,0-.1c0-1.1,0-2.3,0-3.5,0-.6,0-1.2,0-1.8,0-.3,0-.6,0-.9v-.5s0-.2,0-.2h0v-.2h0c.3-.3,0-.1.1-.2,10.9,0,20.7,0,26.8,0h0s0,0,0,0c0,2.2,0,4,0,5.2,0,.6,0,1,0,1.4,0,.1,0,.3,0,.3,0,0,0,.1,0,.1Z" style="fill:#e0e0e0;"/><path d="M67.6,130s0,0,0-.1c0-.1,0-.2,0-.4,0-.3,0-.8,0-1.4,0-1.2,0-3,0-5.2h0c-4.2.1-9.8.1-16.1.1-.1.1.2-.2.1-.1h0c0,.1,0,.2,0,.2v.7c0,.3,0,.6,0,.9,0,.6,0,1.2,0,1.8,0,1.2,0,2.3,0,3.4h-.1c4.6-.1,8.6,0,11.5,0,1.4,0,2.5,0,3.4,0,.4,0,.7,0,.9,0,.2,0,.3,0,.3,0,0,0,0,0-.3,0-.2,0-.5,0-.9,0-.8,0-1.9,0-3.3,0-2.9,0-6.9,0-11.6,0h-.1s0-.1,0-.1c0-1.1,0-2.3,0-3.4,0-.6,0-1.2,0-1.8,0-.3,0-.6,0-.9v-.5s0-.2,0-.2h0v-.2h0s.3-.3.1-.2c6.3,0,11.9,0,16.1,0h0s0,0,0,0c0,2.2,0,4,0,5.2,0,.6,0,1.1,0,1.4,0,.3,0,.5,0,.5Z" style="fill:#e0e0e0;"/><path d="M251.1,194.5s0,0,0-.1c0,0,0-.2,0-.4,0-.3,0-.8,0-1.4,0-1.2,0-3,0-5.2h0c-6.1,0-15.8.1-26.8.1,0,0-.1.1.1-.1h0c0,.1,0,.2,0,.2v.7c0,.3,0,.6,0,.9,0,.6,0,1.2,0,1.8,0,1.2,0,2.3,0,3.5h-.1c7.6-.1,14.3,0,19.1,0,2.4,0,4.3,0,5.6,0,.7,0,1.2,0,1.5,0,.2,0,.3,0,.4,0,0,0,.1,0,.1,0,0,0,0,0-.1,0,0,0-.2,0-.4,0-.4,0-.9,0-1.5,0-1.3,0-3.2,0-5.6,0-4.8,0-11.5,0-19.2,0h-.1s0-.1,0-.1c0-1.1,0-2.3,0-3.5,0-.6,0-1.2,0-1.8,0-.3,0-.6,0-.9v-.5s0-.2,0-.2h0v-.2h0c.3-.3,0-.1.1-.2,10.9,0,20.7,0,26.8,0h0s0,0,0,0c0,2.2,0,4,0,5.2,0,.6,0,1,0,1.4,0,.1,0,.3,0,.3,0,0,0,.1,0,.1Z" style="fill:#e0e0e0;"/><path d="M254.7,187.4s0,0,0-.1c0-.1,0-.2,0-.4,0-.3,0-.8,0-1.4,0-1.2,0-3,0-5.2h0c-4.2.1-9.8.1-16.1.1-.1.1.2-.2.1-.1h0c0,.1,0,.2,0,.2v.7c0,.3,0,.6,0,.9,0,.6,0,1.2,0,1.8,0,1.2,0,2.3,0,3.4h-.1c4.6-.1,8.6,0,11.5,0,1.4,0,2.5,0,3.4,0,.4,0,.7,0,.9,0,.2,0,.3,0,.3,0,0,0,0,0-.3,0-.2,0-.5,0-.9,0-.8,0-1.9,0-3.3,0-2.9,0-6.9,0-11.6,0h-.1s0-.1,0-.1c0-1.1,0-2.3,0-3.4,0-.6,0-1.2,0-1.8,0-.3,0-.6,0-.9v-.5s0-.2,0-.2h0v-.2h0s.3-.3.1-.2c6.3,0,11.9,0,16.1,0h0s0,0,0,0c0,2.2,0,4,0,5.2,0,.6,0,1.1,0,1.4,0,.3,0,.5,0,.5Z" style="fill:#e0e0e0;"/><path d="M170.8,26s0,0,0-.1c0,0,0-.2,0-.4,0-.3,0-.8,0-1.4,0-1.2,0-3,0-5.2h0c-6.1.1-15.8.1-26.8.1,0,0-.1.1.1-.1h0v.9c0,.3,0,.6,0,.9,0,.6,0,1.2,0,1.8,0,1.2,0,2.3,0,3.5h-.1c7.6-.1,14.3,0,19.1,0,2.4,0,4.3,0,5.6,0,.6,0,1.2,0,1.5,0,.2,0,.3,0,.4,0,0,0,.1,0,.1,0s0,0-.1,0c0,0-.2,0-.4,0-.4,0-.9,0-1.5,0-1.3,0-3.2,0-5.6,0-4.8,0-11.5,0-19.2,0h-.1s0-.1,0-.1c0-1.1,0-2.3,0-3.5,0-.6,0-1.2,0-1.8,0-.3,0-.6,0-.9v-.5s0-.2,0-.2h0v-.2h0c.3-.3,0-.1.1-.2,10.9,0,20.7,0,26.8,0h0s0,0,0,0c0,2.2,0,4,0,5.3,0,.6,0,1,0,1.4,0,.1,0,.3,0,.3,0,0,0,.1,0,.1Z" style="fill:#ebebeb;"/><path d="M264.5,119.8s0,0,0-.1c0,0,0-.2,0-.4,0-.3,0-.8,0-1.4,0-1.2,0-3,0-5.2h0c-6.1.1-15.8.1-26.8.1,0,0-.1.1.1-.1h0v.9c0,.3,0,.6,0,.9,0,.6,0,1.2,0,1.8,0,1.2,0,2.3,0,3.5h-.1c7.6-.1,14.3,0,19.1,0,2.4,0,4.3,0,5.6,0,.6,0,1.2,0,1.5,0,.2,0,.3,0,.4,0,0,0,.1,0,.1,0,0,0,0,0-.1,0,0,0-.2,0-.4,0-.4,0-.9,0-1.5,0-1.3,0-3.2,0-5.6,0-4.8,0-11.5,0-19.2,0h-.1s0-.1,0-.1c0-1.1,0-2.3,0-3.5,0-.6,0-1.2,0-1.8,0-.3,0-.6,0-.9v-.5s0-.2,0-.2h0v-.2h0c.3-.3,0-.1.1-.2,10.9,0,20.7,0,26.8,0h0s0,0,0,0c0,2.2,0,4,0,5.3,0,.6,0,1,0,1.4,0,.1,0,.3,0,.3,0,0,0,.1,0,.1Z" style="fill:#ebebeb;"/><path d="M36.3,251.6c0,0,57.2-.1,127.6-.1s127.7,0,127.7.1-57.1.1-127.7.1-127.6,0-127.6-.1Z" style="fill:#263238;"/><rect x="107.3" y="35.9" width="109" height="215.8" rx="25.3" ry="25.3" style="fill:#455b64;"/><rect x="55.6" y="91" width="212.3" height="105.5" rx="22.2" ry="22.2" transform="translate(305.5 -18) rotate(90)" style="fill:#263238;"/><path d="M153.9,44.4c-.7,0-1.2-.5-1.2-1.2s.5-1.2,1.2-1.2h15.6c.7,0,1.2.5,1.2,1.2s-.5,1.2-1.2,1.2h-15.6Z" style="fill:#455b64;"/><path d="M145.6,44.4c-.7,0-1.2-.5-1.2-1.2s.5-1.2,1.2-1.2,1.2.5,1.2,1.2-.5,1.2-1.2,1.2Z" style="fill:#455b64;"/><path d="M150,44.4c-.7,0-1.2-.5-1.2-1.2s.5-1.2,1.2-1.2,1.2.5,1.2,1.2-.5,1.2-1.2,1.2Z" style="fill:#455b64;"/><path d="M177.9,44.4c-.7,0-1.2-.5-1.2-1.2s.5-1.2,1.2-1.2,1.2.5,1.2,1.2-.5,1.2-1.2,1.2Z" style="fill:#455b64;"/><path d="M173.5,44.4c-.7,0-1.2-.5-1.2-1.2s.5-1.2,1.2-1.2,1.2.5,1.2,1.2-.5,1.2-1.2,1.2Z" style="fill:#455b64;"/><path d="M202.7,39h-15.3c-2.4,0-4.6,1.6-5.2,3.9l-.3.9c-.7,2.5-3,4.2-5.6,4.2h-29.1c-2.6,0-4.9-1.7-5.6-4.2l-.3-.9c-.7-2.3-2.8-3.9-5.2-3.9h-13.9c-6,0-10.8,4.8-10.8,10.8v187.1c0,5.6,4.5,10.1,10.1,10.1h81.3c5.1,0,9.2-4.1,9.2-9.2V48.4c0-5.2-4.2-9.4-9.4-9.4Z" style="fill:#fafbfb;"/><path d="M216.7,82.8h.2v24.8h-.2c-.3,0-.5-.2-.5-.5v-23.8c0-.3.2-.5.5-.5Z" transform="translate(433.2 190.3) rotate(180)" style="fill:#455b64;"/><path d="M107.1,98h.2v15.7h-.2c-.3,0-.5-.2-.5-.5v-14.6c0-.3.2-.5.5-.5Z" style="fill:#455b64;"/><path d="M107.1,77.5h.2v15.7h-.2c-.3,0-.5-.2-.5-.5v-14.6c0-.3.2-.5.5-.5Z" style="fill:#455b64;"/><path d="M107.1,62.1h.2v7.3h-.2c-.3,0-.5-.2-.5-.5v-6.4c0-.3.2-.5.5-.5Z" style="fill:#455b64;"/><rect x="187.6" y="46.1" width=".7" height="1" style="fill:#263238;"/><rect x="188.9" y="45.6" width=".7" height="1.5" style="fill:#263238;"/><rect x="190.1" y="45.2" width=".7" height="1.9" style="fill:#263238;"/><rect x="191.3" y="44.6" width=".7" height="2.5" style="fill:#263238;"/><path d="M203.1,47.2h-3.8c-.1,0-.3-.1-.3-.3v-1.9c0-.1.1-.3.3-.3h3.8s0,0,0,0c0,0,0,0,0,0v.6h.4s0,0,0,0v.9s0,0,0,0h-.4v.6s0,0,0,0ZM203,44.9h-3.7c0,0-.1,0-.1.1v1.9c0,0,0,.1.1.1h3.7v-.6s0,0,0,0h.4v-.8h-.4s0,0,0,0v-.6Z" style="fill:#263238;"/><polygon points="199.5 46.7 199.5 45.2 202.7 45.2 202.7 45.9 202.7 46 202.7 46.7 199.5 46.7" style="fill:#263238;"/><path d="M195.6,47c0-.2-.1-.3-.3-.3s-.3.1-.3.3.1.3.3.3.3-.1.3-.3Z" style="fill:#263238;"/><path d="M194.4,46.4l.4.4c.2-.2.4-.2.6-.2s.4,0,.6.2l.4-.4c-.2-.2-.6-.4-.9-.4s-.7.1-.9.4Z" style="fill:#263238;"/><path d="M195.3,45.2c-.6,0-1.1.2-1.5.6l.4.4c.3-.3.7-.5,1.1-.5s.8.2,1.1.5l.4-.4c-.4-.4-.9-.6-1.5-.6Z" style="fill:#263238;"/><path d="M193.3,45.2l.4.4c.4-.4,1-.7,1.7-.7s1.3.3,1.7.7l.4-.4c-.5-.5-1.3-.9-2.1-.9s-1.5.3-2.1.9Z" style="fill:#263238;"/><path d="M197,76.1h-68.3c-3.8,0-6.8-3-6.8-6.8h0c0-3.8,3-6.8,6.8-6.8h68.3c3.8,0,6.8,3,6.8,6.8h0c0,3.8-3,6.8-6.8,6.8Z" style="fill:#e0e0e0;"/><path d="M195.2,71.9c-1.4,0-2.6-1.2-2.6-2.6s1.2-2.6,2.6-2.6,2.6,1.2,2.6,2.6-1.2,2.6-2.6,2.6ZM195.2,67.2c-1.1,0-2.1.9-2.1,2.1s.9,2.1,2.1,2.1,2.1-.9,2.1-2.1-.9-2.1-2.1-2.1Z" style="fill:#263238;"/><path d="M198.7,72.5c0,0-.1,0-.2,0l-1.7-1.5c-.1,0-.1-.3,0-.4,0-.1.3-.1.4,0l1.7,1.5c.1,0,.1.3,0,.4,0,0-.1,0-.2,0Z" style="fill:#263238;"/><path d="M154.4,205.5c0,1.2-1,2.2-2.2,2.2s-2.2-1-2.2-2.2,1-2.2,2.2-2.2,2.2,1,2.2,2.2Z" style="fill:#ebebeb;"/><path d="M161.7,205.5c0,1.2-1,2.2-2.2,2.2s-2.2-1-2.2-2.2,1-2.2,2.2-2.2,2.2,1,2.2,2.2Z" style="fill:#e0e0e0;"/><circle cx="166.9" cy="205.5" r="2.2" style="fill:#e0e0e0;"/><path d="M176.4,205.5c0,1.2-1,2.2-2.2,2.2s-2.2-1-2.2-2.2,1-2.2,2.2-2.2,2.2,1,2.2,2.2Z" style="fill:#e0e0e0;"/><rect x="121" y="216.4" width="17.7" height="17.7" rx="6.4" ry="6.4" style="fill:#3a5fa0;"/><rect x="143" y="216.3" width="17.7" height="17.7" rx="6.4" ry="6.4" style="fill:#e0e0e0;"/><rect x="165" y="216.1" width="17.7" height="17.7" rx="6.4" ry="6.4" style="fill:#455b64;"/><rect x="187" y="216.4" width="17.7" height="17.7" rx="6.4" ry="6.4" style="fill:#263238;"/><path d="M169.7,229.2l.6-2.4c-.4-.7-.6-1.4-.6-2.1,0-2.4,2-4.4,4.4-4.4s4.4,2,4.4,4.4-2,4.4-4.4,4.4-1.5-.2-2.1-.5l-2.4.6ZM172.3,227.7h.2c.6.4,1.2.6,1.8.6,2,0,3.6-1.6,3.6-3.6s-1.6-3.6-3.6-3.6-3.6,1.6-3.6,3.6.2,1.3.5,1.9v.2c0,0-.3,1.3-.3,1.3l1.3-.4Z" style="fill:#fff;"/><path d="M175.8,225.3c-.2-.1-.4-.2-.6-.1-.2,0-.3.3-.4.5,0,0-.1,0-.2,0-.6-.2-1.1-.7-1.4-1.2,0,0,0-.2,0-.2.1-.1.2-.3.3-.4,0-.2,0-.4-.1-.5,0-.2-.2-.5-.4-.6-.2,0-.4,0-.6,0-.3.2-.4.6-.4.9,0,0,0,.2,0,.3,0,.2.2.4.3.6,0,.1.2.3.3.4.3.4.7.8,1.2,1.1.2.1.5.3.8.4.3,0,.6.2.9.1.3,0,.7-.3.8-.6,0,0,0-.2,0-.3,0-.2-.3-.3-.5-.4Z" style="fill:#fff; fill-rule:evenodd;"/><path d="M132.9,226.3c-.3-.2-.8-.4-1.2-.3-.3.1-.5.6-.7.9-.1.1-.2.1-.4,0-1.2-.5-2.1-1.3-2.7-2.3-.1-.2,0-.3,0-.5.2-.2.4-.5.5-.8,0-.3,0-.7-.2-1-.2-.4-.3-.9-.7-1.1-.3-.2-.8,0-1,.2-.5.4-.7,1-.7,1.7,0,.2,0,.4,0,.5.1.4.3.8.5,1.2.2.3.3.6.5.8.6.9,1.4,1.6,2.3,2.2.5.3.9.5,1.4.7.6.2,1.1.4,1.7.3.6-.1,1.3-.5,1.5-1.1,0-.2.1-.4,0-.6,0-.4-.6-.6-.9-.8Z" style="fill:#fff; fill-rule:evenodd;"/><path d="M198.6,222.4c-.3,0-.5.2-.5.5s.2.5.5.5.5-.2.5-.5-.2-.5-.5-.5Z" style="fill:#fff;"/><path d="M196.3,222.9c-1.2,0-2.2,1-2.2,2.2s1,2.2,2.2,2.2,2.2-1,2.2-2.2-1-2.2-2.2-2.2ZM196.3,226.5c-.8,0-1.4-.6-1.4-1.4s.6-1.4,1.4-1.4,1.4.6,1.4,1.4-.6,1.4-1.4,1.4Z" style="fill:#fff;"/><path d="M198.1,229.7h-3.5c-1.5,0-2.6-1.2-2.6-2.6v-3.5c0-1.5,1.2-2.6,2.6-2.6h3.5c1.5,0,2.6,1.2,2.6,2.6v3.5c0,1.5-1.2,2.6-2.6,2.6ZM194.5,221.7c-1,0-1.8.8-1.8,1.8v3.5c0,1,.8,1.8,1.8,1.8h3.5c1,0,1.8-.8,1.8-1.8v-3.5c0-1-.8-1.8-1.8-1.8h-3.5Z" style="fill:#fff;"/><path d="M147.9,229.4c-.1,0-.2,0-.3-.1-.2-.2-.2-.4,0-.6l2.1-2.1c-1.1-1.4-1-3.5.3-4.8.7-.7,1.6-1.1,2.5-1.1s1.9.4,2.5,1.1c1.4,1.4,1.4,3.7,0,5.1-.7.7-1.6,1.1-2.5,1.1s-1.6-.3-2.2-.8l-2.1,2.1c0,0-.2.1-.3.1ZM152.5,221.6c-.7,0-1.5.3-2,.8-.5.5-.8,1.2-.8,2s.3,1.5.8,2c.5.5,1.2.8,2,.8s1.5-.3,2-.8c.5-.5.8-1.2.8-2s-.3-1.5-.8-2c-.5-.5-1.2-.8-2-.8Z" style="fill:#fff;"/><path d="M169.7,110.9s0,0,.2,0c.1,0,.3,0,.5-.2,0,0,.2-.2.2-.3,0,0,0-.1,0-.2,0,0,0-.1,0-.2,0,0,0-.2,0-.2,0,0,0-.2-.1-.2,0-.2-.2-.3-.4-.4h0s0,0,0,0c0-.2-.1-.5-.4-.6-.2-.1-.6,0-.8.1h0s0,0,0,0c0-.4-.4-.8-.8-.9-.1,0-.2,0-.3,0,0,0,0,0,0,0,0,0,0,0,0,0,0,0-.1,0-.2,0-.2,0-.4.1-.6.3-.2.1-.3.3-.4.5,0,.2-.1.4-.1.6h0s0,0,0,0c-.2,0-.4,0-.6,0,0,0-.2.1-.2.2,0,0-.1.1-.2.2,0,0,0,.2,0,.2,0,0,0,.2,0,.2,0,.2,0,.3.1.4.1.2.3.4.4.4.1,0,.2,0,.2,0,0,0,0,0,0,0,0,0,0,0,0,0,0,0,0,0,0,0,0,0,0,0,0,0-.1,0-.3-.2-.5-.4,0-.1-.1-.3-.1-.4,0,0,0-.2,0-.3,0,0,0-.2,0-.3,0,0,.1-.2.2-.2,0,0,.2-.1.3-.2.2,0,.4-.1.6,0h0c0-.2,0-.4.1-.6,0-.2.2-.4.4-.5.2-.1.4-.2.6-.3,0,0,.1,0,.2,0,0,0,0,0,0,0,0,0,0,0,0,0,.1,0,.2,0,.3,0,.4.2.7.5.8.9h0c.2-.2.6-.3.8-.1.3.1.4.4.4.7h0c.2,0,.3.2.4.4,0,0,0,.2.1.2,0,0,0,.2,0,.2,0,0,0,.2,0,.2,0,0,0,.1,0,.2,0,.1-.2.2-.2.3-.2.1-.4.2-.5.2,0,0-.1,0-.1,0,0,0,0,0,0,0Z" style="fill:#263238;"/><path d="M169.8,111s0,0,0,0c0,0,0,0,0,0,0,0,0,0,0,0,0,0,0,0,0,0,0,0,0,0,0,0,0,0,0,0,.2,0,.1,0,.3,0,.4-.2,0,0,.2-.2.2-.3,0,0,0-.1,0-.2,0,0,0-.1,0-.2,0,0,0-.2,0-.2,0,0,0-.1,0-.2,0-.1-.2-.3-.4-.3,0,0,0,0,0,0,0-.2-.1-.5-.3-.6-.2-.1-.5,0-.7.1h0s0,0,0,0c0,0,0,0,0,0h0c0-.4-.4-.7-.7-.9-.1,0-.2,0-.3,0,0,0,0,0,0,0h0s0,0,0,0h0s0,0-.1,0c-.2,0-.4.1-.5.3-.1.1-.3.3-.3.4,0,.2-.1.3,0,.5h0s0,0,0,0c0,0,0,0,0,0h0c-.2,0-.4,0-.6,0,0,0-.2,0-.2.2,0,0-.1.1-.2.2,0,0,0,.1,0,.2,0,0,0,.2,0,.2,0,.1,0,.3.1.4.1.2.3.3.4.4,0,0,.1,0,.2,0,0,0,0,0,0,0,0,0,0,0,0,0,0,0,0,0-.1,0h0s0,0,0,0h0s0,0,0,0c-.1,0-.3-.2-.5-.4,0-.1-.1-.3-.1-.5,0,0,0-.2,0-.3,0,0,0-.2.1-.3,0,0,.1-.2.2-.2,0,0,.2-.1.3-.2.2,0,.4-.1.6-.1,0-.2,0-.3.1-.5,0-.2.2-.4.4-.5.2-.2.4-.3.6-.3,0,0,0,0,.1,0h0s0,0,0,0h0s0,0,0,0c.1,0,.2,0,.3,0,.4.1.7.5.8.8.2-.1.5-.2.8,0,.3.1.4.4.4.7.2,0,.3.2.4.4,0,0,0,.2.1.3,0,0,0,.2,0,.3,0,0,0,.2,0,.3,0,0,0,.2,0,.2,0,.1-.2.2-.3.3-.2.2-.4.2-.5.2,0,0,0,0-.1,0Z" style="fill:#263238;"/><path d="M167.6,110.2s-.1.2-.2.4c-.1.2-.3.4-.3.4,0,0,.1-.2.2-.4.1-.2.3-.4.3-.4Z" style="fill:#263238;"/><path d="M167,111.2s0,0,0,0c0,0,0,0,.2-.6.3-.5.3-.5.3-.5,0,0,0,0,0,0h0s0,0,0,0c0,0,0,0,0,0h0s0,0,0,0c0,0,0,0,0,0,0,0,0,0-.3.5-.2.4-.3.5-.3.5Z" style="fill:#263238;"/><path d="M168.4,110.2s-.1.2-.2.4c-.1.2-.3.4-.3.4,0,0,.1-.2.2-.4.1-.2.3-.4.3-.4Z" style="fill:#263238;"/><path d="M167.9,111.2s0,0,0,0c0,0,0,0,.2-.6.3-.5.3-.5.3-.5,0,0,0,0,0,0h0c0,0,0,0-.2.6-.3.5-.3.5-.3.5,0,0,0,0,0,0Z" style="fill:#263238;"/><path d="M169.2,110.2s-.1.2-.2.4c-.1.2-.3.4-.3.4,0,0,.1-.2.2-.4.1-.2.3-.4.3-.4Z" style="fill:#263238;"/><path d="M168.7,111.2s0,0,0,0c0,0,0,0,.2-.6.3-.5.3-.5.3-.5,0,0,0,0,0,0h0s0,0,0,0c0,0,0,0,0,0h0s0,0,0,0c0,0,0,0,0,0,0,0,0,0-.3.5-.2.4-.3.5-.3.5Z" style="fill:#263238;"/><path d="M166.6,111.4s-.1.2-.2.4c-.1.2-.3.4-.3.4s.1-.2.2-.4c.1-.2.3-.4.3-.4Z" style="fill:#263238;"/><path d="M166.1,112.4s0,0,0,0c0,0,0,0,0,0,0,0,0,0,.3-.5.3-.5.3-.5.4-.5,0,0,0,0,0,0,0,0,0,0-.2.6-.3.5-.3.5-.3.5,0,0,0,0,0,0Z" style="fill:#263238;"/><path d="M167.4,111.4s-.1.2-.2.4c-.1.2-.3.4-.3.4s.1-.2.2-.4c.1-.2.3-.4.3-.4Z" style="fill:#263238;"/><path d="M166.9,112.4s0,0,0,0c0,0,0,0,0,0,0,0,0,0,.3-.5.3-.5.3-.5.4-.5,0,0,0,0,0,0,0,0,0,0-.2.6-.3.5-.3.5-.3.5,0,0,0,0,0,0Z" style="fill:#263238;"/><path d="M168.2,111.4s-.1.2-.2.4c-.1.2-.3.4-.3.4,0,0,.1-.2.2-.4.1-.2.3-.4.3-.4Z" style="fill:#263238;"/><path d="M167.7,112.4s0,0,0,0c0,0,0,0,0,0,0,0,0,0,.3-.5.3-.5.3-.5.4-.5,0,0,0,0,0,0,0,0,0,0-.2.6-.3.5-.3.5-.3.5,0,0,0,0,0,0Z" style="fill:#263238;"/><path d="M169.1,111.5s-.1.2-.2.4c-.1.2-.3.4-.3.4,0,0,.1-.2.2-.4.1-.2.3-.4.3-.4Z" style="fill:#263238;"/><path d="M168.6,112.4s0,0,0,0c0,0,0,0,.2-.6.3-.5.3-.5.3-.5,0,0,0,0,0,0h0s0,0,0,0c0,0,0,0,0,0h0s0,0,0,0c0,0,0,0,0,0,0,0,0,0-.3.5-.2.4-.3.5-.3.5Z" style="fill:#263238;"/><path d="M153.3,106.9v6.1h-.6v-5.6h-1.4v-.6h2.1Z" style="fill:#263238;"/><path d="M159.4,111.3c0,1.1-.9,1.8-2.4,1.8s-2.4-.7-2.4-1.8.4-1.2,1.2-1.5c-.6-.2-1-.7-1-1.3,0-1,.8-1.6,2.1-1.6s2.2.6,2.2,1.6-.3,1.1-1,1.3c.8.3,1.2.8,1.2,1.5ZM158.8,111.3c0-.8-.6-1.2-1.7-1.2s-1.7.5-1.7,1.2.6,1.2,1.7,1.2,1.7-.5,1.7-1.2ZM157,109.6c1,0,1.5-.4,1.5-1.1s-.6-1.1-1.5-1.1-1.5.4-1.5,1.1.6,1.1,1.5,1.1Z" style="fill:#263238;"/><path d="M160.2,107.9c0-.8.6-1.4,1.5-1.4s1.5.6,1.5,1.4-.6,1.4-1.5,1.4-1.5-.6-1.5-1.4ZM162.8,107.9c0-.6-.4-1-1.1-1s-1.1.4-1.1,1,.4,1,1.1,1,1.1-.4,1.1-1Z" style="fill:#263238;"/><text transform="translate(136.7 99.6) scale(.9 1)" style="font-family:STIXTwoTextRoman-Medium, &apos;STIX Two Text&apos;; font-size:22.3px; font-variation-settings:&apos;wght&apos; 500; font-weight:500;"><tspan x="0" y="0">11 :11</tspan></text><rect x="116.9" y="127.2" width="91.9" height="29.4" rx="4.6" ry="4.6" style="fill:#fafbfb;"/><path d="M204.2,156.6s.2,0,.6,0c.4,0,1-.2,1.7-.6.7-.4,1.4-1.1,1.9-2.1.2-.5.4-1.1.4-1.8,0-.7,0-1.4,0-2.1,0-3,0-6.6,0-10.8,0-2.1,0-4.4,0-6.8,0-.6,0-1.2-.1-1.8-.1-.6-.4-1.1-.8-1.6-.7-1-1.9-1.6-3.2-1.7-21.2,0-50.6,0-83,0-1,0-1.9.3-2.7.9-.8.6-1.3,1.4-1.6,2.4-.1.5-.2.9-.1,1.4v1.5c0,1,0,2,0,3,0,3.9,0,7.8,0,11.7,0,1,0,1.9,0,2.9,0,.5,0,1,0,1.4,0,.5.2.9.3,1.3.4.8,1,1.5,1.7,2,.8.5,1.7.7,2.6.7,3.7,0,7.3,0,10.8,0,14,0,26.7,0,37.3,0,10.6,0,19.2,0,25.2,0,3,0,5.3,0,6.8,0,.8,0,1.4,0,1.8,0,.4,0,.6,0,.6,0,0,0-.2,0-.6,0-.4,0-1,0-1.8,0-1.6,0-3.9,0-6.8,0-5.9,0-14.5,0-25.2,0-10.6,0-23.3,0-37.3,0-3.5,0-7.1,0-10.8,0-.9,0-1.9-.2-2.7-.7-.8-.5-1.5-1.3-1.9-2.2-.2-.4-.3-.9-.4-1.4,0-.5,0-1,0-1.4,0-.9,0-1.9,0-2.9,0-3.8,0-7.7,0-11.7,0-1,0-2,0-3v-1.5c0-.5,0-1,.2-1.5.2-1,.9-1.9,1.7-2.6.8-.7,1.9-1,2.9-1,32.4,0,61.7,0,83,0,1.4,0,2.6.8,3.4,1.8.4.5.7,1.1.8,1.7.2.6.1,1.2.1,1.8,0,2.4,0,4.6,0,6.8,0,4.2,0,7.8,0,10.8,0,.7,0,1.4,0,2.1,0,.7-.2,1.3-.4,1.8-.5,1.1-1.3,1.7-1.9,2.1-.7.4-1.3.5-1.7.6-.4,0-.6,0-.6,0Z" style="fill:#263238;"/><path d="M202.2,133.3s0,0-.1,0c0,0,0-.2,0-.2l2.3-2.2c0,0,.2,0,.2,0,0,0,0,.2,0,.2l-2.3,2.2s0,0-.1,0Z" style="fill:#263238;"/><path d="M204.4,133.3s0,0-.1,0l-2.2-2.2c0,0,0-.2,0-.2,0,0,.2,0,.2,0l2.2,2.2c0,0,0,.2,0,.2,0,0,0,0-.1,0Z" style="fill:#263238;"/><path d="M136.7,147.6l-.9-1.3c-.6-.8-.9-1.7-.9-2.7v-2.9c0-2.4-1.8-4.4-4.1-4.7v-1.4c0-.4-.3-.6-.6-.6h0c-.4,0-.6.3-.6.6v1.4c-2.4.3-4.2,2.3-4.2,4.8v3c0,1-.3,2.1-1,2.9l-.8,1h13.2Z" style="fill:#3a5fa0;"/><path d="M129.5,149.8c.7.3,1.6.1,2.2-.4.2-.2.4-.5.5-.8h-3.8c.2.5.6,1,1.1,1.2Z" style="fill:#3a5fa0;"/><path d="M188.4,137.1c0,0-10.3.2-23,.2s-23,0-23-.2,10.3-.2,23-.2,23,0,23,.2Z" style="fill:#263238;"/><path d="M199.2,142.7c0,0-12.7.2-28.4.2s-28.4,0-28.4-.2,12.7-.2,28.4-.2,28.4,0,28.4.2Z" style="fill:#e0e0e0;"/><path d="M199.2,146c0,0-12.7.2-28.4.2s-28.4,0-28.4-.2,12.7-.2,28.4-.2,28.4,0,28.4.2Z" style="fill:#e0e0e0;"/><path d="M121.9,161.2h82c2.5,0,4.6,2,4.6,4.6v20.1c0,2.5-2,4.6-4.6,4.6h-82c-2.5,0-4.6-2-4.6-4.6v-20.1c0-2.5,2-4.6,4.6-4.6Z" style="fill:#fafbfb;"/><path d="M203.9,190.4s.2,0,.6,0c.4,0,1-.2,1.6-.6.7-.4,1.4-1,1.9-2.1.2-.5.4-1.1.4-1.8,0-.7,0-1.3,0-2.1,0-2.9,0-6.6,0-10.7,0-2.1,0-4.3,0-6.7,0-.6,0-1.2-.1-1.8-.1-.6-.4-1.1-.8-1.6-.7-1-1.9-1.6-3.2-1.7-21.1,0-50.2,0-82.3,0-2,0-3.8,1.4-4.3,3.3-.1.5-.2.9-.2,1.4v1.5c0,1,0,2,0,2.9,0,3.9,0,7.8,0,11.6,0,.9,0,1.9,0,2.8,0,.5,0,.9,0,1.4,0,.4.2.9.3,1.3.4.8,1,1.5,1.7,2,.8.5,1.6.7,2.5.7,3.6,0,7.2,0,10.7,0,13.9,0,26.5,0,37,0,10.5,0,19.1,0,25,0,2.9,0,5.2,0,6.8,0,.8,0,1.4,0,1.8,0,.4,0,.6,0,.6,0,0,0-.2,0-.6,0-.4,0-1,0-1.8,0-1.6,0-3.8,0-6.8,0-5.9,0-14.4,0-25,0-10.5,0-23.1,0-37,0-3.5,0-7.1,0-10.7,0-.9,0-1.9-.2-2.7-.7-.8-.5-1.5-1.3-1.8-2.2-.2-.4-.3-.9-.4-1.4,0-.5,0-.9,0-1.4,0-.9,0-1.9,0-2.8,0-3.8,0-7.6,0-11.6,0-1,0-2,0-2.9v-1.5c0-.5,0-1,.2-1.5.5-2,2.5-3.5,4.6-3.5,32.2,0,61.3,0,82.3,0,1.4,0,2.6.8,3.4,1.8.4.5.7,1.1.8,1.7.2.6.1,1.2.1,1.8,0,2.4,0,4.6,0,6.7,0,4.2,0,7.8,0,10.7,0,.7,0,1.4,0,2.1,0,.7-.2,1.3-.4,1.8-.5,1.1-1.3,1.7-1.9,2.1-.7.4-1.3.5-1.7.5-.4,0-.6,0-.6,0Z" style="fill:#263238;"/><path d="M201.9,167.3s0,0-.1,0c0,0,0-.2,0-.2l2.2-2.2c0,0,.2,0,.2,0,0,0,0,.2,0,.2l-2.2,2.2s0,0-.1,0Z" style="fill:#263238;"/><path d="M204.1,167.3s0,0-.1,0l-2.2-2.2c0,0,0-.2,0-.2,0,0,.2,0,.2,0l2.2,2.2c0,0,0,.2,0,.2,0,0,0,0-.1,0Z" style="fill:#263238;"/><path d="M136.9,181.5l-.9-1.3c-.6-.8-.8-1.7-.8-2.7v-2.9c0-2.4-1.8-4.4-4-4.7v-1.4c0-.4-.3-.6-.6-.6h0c-.4,0-.6.3-.6.6v1.4c-2.4.3-4.2,2.3-4.2,4.7v3c0,1-.3,2-1,2.9l-.8,1h13.1Z" style="fill:#e0e0e0;"/><path d="M129.7,183.6c.7.3,1.6.1,2.1-.4.2-.2.4-.5.5-.8h-3.8c.2.5.6,1,1.1,1.2Z" style="fill:#e0e0e0;"/><path d="M188.2,171.1c0,0-10.2.2-22.8.2s-22.8,0-22.8-.2,10.2-.2,22.8-.2,22.8,0,22.8.2Z" style="fill:#263238;"/><path d="M199,176.6c0,0-12.6.2-28.2.2s-28.2,0-28.2-.2,12.6-.2,28.2-.2,28.2,0,28.2.2Z" style="fill:#e0e0e0;"/><path d="M199,179.9c0,0-12.6.2-28.2.2s-28.2,0-28.2-.2,12.6-.2,28.2-.2,28.2,0,28.2.2Z" style="fill:#e0e0e0;"/><text transform="translate(128.3 72.2)" style="font-family:Outfit-Medium, Outfit; font-size:8.1px; font-weight:500;"><tspan x="0" y="0">Elite World</tspan></text><path d="M248.1,24h-19.6c-2.1,0-3.9,1.7-3.9,3.9v12c0,2.1,1.7,3.9,3.9,3.9h.9l-.3,3.7,4.4-3.7h14.6c2.1,0,3.9-1.7,3.9-3.9v-12c0-2.1-1.7-3.9-3.9-3.9Z" style="fill:#fff;"/><path d="M248.1,24s0,0,.2,0c.1,0,.3,0,.6,0,.5,0,1.2.3,2,1,.4.3.7.8.9,1.3.2.5.3,1.2.3,1.9,0,1.4,0,2.9,0,4.7,0,1.7,0,3.6,0,5.7,0,.5,0,1,0,1.6,0,.5-.2,1.1-.5,1.6-.5,1-1.5,1.8-2.7,2-.6.1-1.2,0-1.8,0-.6,0-1.2,0-1.8,0-1.2,0-2.5,0-3.8,0-2.6,0-5.2,0-8,0h0c-1.4,1.1-2.9,2.4-4.4,3.7l-.3.2v-.3c0-.6.2-1.2.2-1.9,0-.6.1-1.2.2-1.8v.2c-.2,0-.6,0-1,0-.4,0-.8-.1-1.2-.3-.7-.3-1.4-.8-1.8-1.4-.5-.6-.7-1.4-.7-2.2,0-.8,0-1.5,0-2.2,0-2.9,0-5.7,0-8.4,0-.3,0-.7,0-1,0-.3,0-.7,0-1,0-.7.3-1.3.7-1.8.8-1.1,2-1.7,3.2-1.7,2.4,0,4.6,0,6.6,0,4,0,7.3,0,9.5,0,1.1,0,2,0,2.6,0,.3,0,.5,0,.7,0,.2,0,.2,0,.2,0s0,0-.2,0c-.2,0-.4,0-.7,0-.6,0-1.5,0-2.6,0-2.3,0-5.5,0-9.5,0-2,0-4.2,0-6.6,0-1.2,0-2.3.6-3,1.6-.4.5-.6,1.1-.7,1.7,0,.6,0,1.3,0,2,0,2.7,0,5.5,0,8.4,0,.7,0,1.5,0,2.2,0,.7.3,1.4.7,2,.4.6,1,1.1,1.7,1.3.7.3,1.4.2,2.2.2h.2s0,.2,0,.2c0,.6-.1,1.2-.2,1.8,0,.7-.1,1.3-.2,1.9h-.2c1.5-1.4,3-2.6,4.4-3.8h0s0,0,0,0c2.8,0,5.4,0,8,0,1.3,0,2.5,0,3.8,0,.6,0,1.2,0,1.8,0,.6,0,1.2,0,1.7,0,1.1-.2,2.1-1,2.6-1.9.3-.5.4-1,.4-1.5,0-.5,0-1.1,0-1.6,0-2.1,0-4,0-5.7,0-1.7,0-3.3,0-4.7,0-.7,0-1.3-.3-1.8-.2-.5-.5-1-.9-1.3-.7-.7-1.4-.9-1.9-1-.5,0-.8,0-.8-.1Z" style="fill:#263238;"/><path d="M235,33.6c0,.7-.5,1.2-1.2,1.2s-1.2-.5-1.2-1.2.5-1.2,1.2-1.2,1.2.5,1.2,1.2Z" style="fill:#263238;"/><path d="M239.5,33.6c0,.7-.5,1.2-1.2,1.2s-1.2-.5-1.2-1.2.5-1.2,1.2-1.2,1.2.5,1.2,1.2Z" style="fill:#263238;"/><path d="M244,33.6c0,.7-.5,1.2-1.2,1.2s-1.2-.5-1.2-1.2.5-1.2,1.2-1.2,1.2.5,1.2,1.2Z" style="fill:#263238;"/><path d="M70.3,54.6l-2-3.3c.7-2.1.9-4.4.3-6.7-1.5-6.6-8.1-10.8-14.7-9.3-6.6,1.5-10.8,8.1-9.3,14.7,1.5,6.6,8.1,10.8,14.7,9.3,2.8-.6,5.1-2.2,6.8-4.2h0s4.1-.5,4.1-.5Z" style="fill:#fff;"/><path d="M70.3,54.6s0,0-.3,0c-.2,0-.5,0-.8,0-.7,0-1.7.2-3,.4h0c0,0,0,0,0,0,0,0,0,0,0,0,0,0,0,0,0,0-1,1.2-2.6,2.6-4.9,3.6-1.1.5-2.4.8-3.8.8-1.4,0-2.9,0-4.4-.5-1.5-.5-3-1.2-4.2-2.3-1.3-1.1-2.4-2.5-3.2-4.1-1.6-3.3-1.6-7.5.3-11,1-1.8,2.3-3.3,3.9-4.3,1.6-1.1,3.4-1.7,5.2-2,1.8-.2,3.6,0,5.2.5,1.6.5,3.1,1.4,4.3,2.4,2.4,2.1,3.7,4.8,4.1,7.2.4,2.4,0,4.5-.4,6,0,0,0,0,0,0,.6,1.1,1.1,1.9,1.5,2.5.2.3.3.5.4.6,0,.1.1.2.1.2,0,0,0,0-.1-.2,0-.2-.2-.4-.4-.6-.3-.6-.8-1.4-1.4-2.5h0c.5-1.5.9-3.6.5-6-.4-2.4-1.7-5.2-4.1-7.3-1.2-1-2.7-1.9-4.3-2.4-1.7-.5-3.5-.7-5.3-.5-1.8.2-3.7.9-5.3,2-1.6,1.1-3,2.6-4,4.4-2,3.6-1.9,7.9-.3,11.2.8,1.7,1.9,3.1,3.3,4.2,1.3,1.1,2.8,1.9,4.3,2.3,1.5.5,3,.6,4.4.5,1.4,0,2.7-.4,3.9-.9,2.3-.9,3.9-2.4,4.9-3.6h0s0,0,0,0c0,0,0,0,0,0,0,0,0,0,0,0,1.3-.2,2.4-.3,3.1-.4.3,0,.6,0,.8-.1.2,0,.3,0,.3,0Z" style="fill:#263238;"/><path d="M60,47.3c0,.6.5,1.2,1.2,1.2s1.2-.5,1.2-1.2-.5-1.2-1.2-1.2-1.2.5-1.2,1.2Z" style="fill:#263238;"/><path d="M55.3,47.3c0,.6.5,1.2,1.2,1.2s1.2-.5,1.2-1.2-.5-1.2-1.2-1.2-1.2.5-1.2,1.2Z" style="fill:#263238;"/><path d="M50.6,46.7c-.3.6-.1,1.3.4,1.6.6.3,1.3.1,1.6-.4.3-.6.1-1.3-.4-1.6-.6-.3-1.3-.1-1.6.4Z" style="fill:#263238;"/><path d="M85.6,196l12.7,2s2.2,13.5,4.5,14.1l4.7-24.4-19.6-3.9-2.3,12.2Z" style="fill:#455b64;"/><path d="M98.6,190.3c.2-.4.8-.7,1.3-.5.5.2.7.8.5,1.3-.2.5-.9.7-1.3.5-.4-.3-.7-1-.4-1.4" style="fill:#e0e0e0;"/><path d="M107.5,187.7l-2-.3-3.8,23.5s.3,1.2,1.1,1.2l4.7-24.4Z" style="fill:#263238;"/><path d="M98,198.4c.1,0,.3-.6.8-1.1.5-.5,1.1-.7,1-.8,0-.1-.7,0-1.3.6-.6.6-.6,1.4-.5,1.4Z" style="fill:#263238;"/><path d="M98.6,201.1c.1,0,.4-.4,1-.7.6-.3,1.1-.3,1.2-.4,0-.1-.6-.3-1.4,0-.7.4-.9,1.1-.8,1.1Z" style="fill:#263238;"/><path d="M101.4,203.2c0-.1-.5-.4-1.2-.2-.7.2-1.1.7-1,.8,0,0,.5-.2,1.1-.3.6-.2,1.1,0,1.1-.2Z" style="fill:#263238;"/><path d="M95.2,197.6c.1,0,0-.6.2-1.3.2-.7.5-1.1.4-1.2,0,0-.6.3-.8,1.1-.2.8,0,1.4.2,1.4Z" style="fill:#263238;"/><path d="M76.6,231.6l.2,12.8s-12.9,4.5-13.1,6.9l24.8.5.5-20-12.4-.2Z" style="fill:#455b64;"/><path d="M84.5,243.5c.5.1.8.7.7,1.2-.1.5-.7.8-1.2.7-.5-.1-.9-.8-.7-1.2.2-.5.8-.8,1.3-.6" style="fill:#e0e0e0;"/><path d="M88.5,251.8v-2s-23.8.3-23.8.3c0,0-1.1.5-1,1.2l24.8.5Z" style="fill:#263238;"/><path d="M76.4,244.3c0,.1.6.2,1.2.6.6.4.9.9,1,.9.1,0,0-.8-.8-1.2-.7-.5-1.5-.4-1.4-.2Z" style="fill:#263238;"/><path d="M73.8,245.3c0,.1.5.3.9.9.4.5.5,1.1.6,1.1.1,0,.2-.7-.3-1.3-.5-.6-1.2-.7-1.2-.6Z" style="fill:#263238;"/><path d="M72.3,248.4c.1,0,.3-.6,0-1.2-.3-.7-.9-.9-.9-.8,0,0,.3.5.5,1,.2.5.3,1.1.4,1.1Z" style="fill:#263238;"/><path d="M76.7,241.3c0,.1.6,0,1.3,0,.7,0,1.2.3,1.3.2,0,0-.4-.5-1.2-.6-.8,0-1.4.3-1.3.4Z" style="fill:#263238;"/><path d="M64.3,142s-19,24.5-20.6,31.3c-1.2,5.2.3,8.3,6.7,11.5,6.4,3.2,45.1,15.7,45.1,15.7l2.7-15.4-31.7-12.3,12.2-8.8,5.3-25.7-18.3-.6-1.3,4.3Z" style="fill:#263238;"/><path d="M69.6,147.5s2.4,40.1,3.5,43.9,3.7,9,3.7,14.2-1.8,37.5-1.8,37.5l15,.5s4.7-38.6,4-45.9c-.7-7.2,2.6-30.6,3.7-36.7s2.8-8.7,2.4-18.2v-5.2s-32.1,0-32.1,0l1.6,9.9Z" style="fill:#263238;"/><path d="M97.7,161s0,.1,0,.4c0,.3-.1.7-.2,1.2-.2,1.1-.4,2.6-.7,4.7-.6,4.1-1.4,10-2.1,17.4-.2,1.9-.3,3.8-.5,5.8-.1,2-.2,4.2-.1,6.3.2,2.2.1,4.5,0,6.8-.1,2.4-.3,4.8-.5,7.3-.8,10-2,20.9-3.4,32.6h0c0,.1-.1.1-.1.1-4.5-.2-9.3-.3-14.2-.5-.3,0-.6,0-.9,0h-.1s0-.2,0-.2c.4-6.7.7-13.1,1.1-19.4.3-6.3.7-12.3.8-18.1,0-2.9-.7-5.6-1.6-8.2-.4-1.3-.9-2.6-1.3-3.8-.2-.6-.4-1.2-.6-1.9-.1-.3-.2-.6-.2-1,0-.3-.1-.6-.2-1-.3-2.5-.6-5-.8-7.4-.2-2.4-.4-4.6-.5-6.8-.6-8.7-1.1-15.7-1.4-20.6-.1-2.4-.3-4.3-.3-5.6,0-.6,0-1.1,0-1.5,0-.3,0-.5,0-.5,0,0,0,.2,0,.5,0,.3,0,.8.1,1.5,0,1.3.2,3.2.4,5.6.3,4.9.8,11.9,1.5,20.6.2,2.2.4,4.4.6,6.8.2,2.4.4,4.8.8,7.4,0,.3,0,.6.2.9,0,.3.1.6.2.9.2.6.4,1.2.6,1.9.4,1.2.9,2.5,1.3,3.8.9,2.6,1.6,5.4,1.6,8.3-.1,5.8-.5,11.8-.8,18.1-.3,6.3-.7,12.8-1,19.4v-.2c.1,0,.4,0,.7,0,4.9.2,9.6.3,14.2.5h-.1c1.4-11.5,2.6-22.5,3.5-32.5.2-2.5.4-4.9.5-7.3.1-2.4.2-4.6,0-6.8-.1-2.2,0-4.3.1-6.4.1-2,.3-4,.5-5.8.7-7.4,1.6-13.3,2.2-17.4.3-2,.6-3.6.7-4.7,0-.5.2-.9.2-1.2,0-.3,0-.4,0-.4Z" style="fill:#455b64;"/><path d="M66.6,172.6c0,0-.9-.1-2,0-1.1.2-1.8.7-1.9.6,0,0,.7-.7,1.8-.9,1.2-.2,2.1.2,2,.2Z" style="fill:#455b64;"/><path d="M93,153.3s-.2,0-.7,0c-.2,0-.5,0-.8,0-.3,0-.6,0-1,0-.8,0-1.7-.2-2.6-.4-1-.3-2-.6-3.1-1.2-1-.5-2-1.2-2.8-1.8-.8-.6-1.4-1.3-1.9-1.9-.3-.3-.4-.6-.6-.8-.2-.2-.3-.5-.4-.6-.2-.4-.3-.6-.3-.6,0,0,.5.8,1.5,1.9.5.6,1.1,1.2,1.9,1.8.8.6,1.7,1.2,2.7,1.7,1,.5,2.1.9,3,1.2,1,.3,1.8.4,2.6.5,1.5.1,2.4,0,2.4,0Z" style="fill:#455b64;"/><path d="M82.4,74.1l-1.9,1.8-2.7-2.7-.8-2-3.5-3.1c0,.5,0,2,0,2l-2,3.8v7.1l-2,3.8,7.6,2.2,1.4-4.6s2.1-1.3,3.2-2.6,2.2-6,2.2-6c-.6-.2-1.2,0-1.6.4Z" style="fill:#fbbd9d;"/><path d="M76.6,75.7c-.2-.2-.3-.5-.2-.7l1-3.7,3.1-10c.2-.5.8-.7,1.1-.3l4.3,3.8c.2.2.3.5.2.7l-4.3,13.6c-.2.5-.8.7-1.2.3l-4-3.7Z" style="fill:#e0e0e0;"/><path d="M77.2,75.4c-.2-.2-.2-.4-.2-.6l1-3.5,2.9-9.4c.1-.4.7-.6,1-.3l3.9,3.4c.2.2.3.4.2.7l-4.2,12.8c-.1.4-.7.6-1,.3l-3.5-3.4Z" style="fill:#263238;"/><path d="M77,71.3s.4.1,1.4.5c1.2.5,1.5-.2,1.5-.2h0c.2-.4,0-1-.5-1.1l-2.5-1v-.5s1.3.2,2.3.2c2,0,1.2-1.7,1.2-1.7l-2.3-.3,1.2-1.7c.9-1-.2-1.9-.2-1.9l-4.3,3.6s-1.3.5-1.3,1c0,.5,0,2,0,2l3.5,1.1Z" style="fill:#fbbd9d;"/><path d="M79.6,71.9s-.4,0-1,0c-.6,0-1.4-.3-2.3-.7-.1,0-.2,0-.3-.1h.2c-.4.6-.8,1.3-1,1.8-.3.5-.5.7-.5.7,0,0,.1-.3.3-.8.2-.5.5-1.2,1-1.9h0c0-.1.1,0,.1,0,0,0,.2,0,.3.1.8.4,1.6.6,2.2.8.6.1.9.2.9.2Z" style="fill:#ec996f;"/><path d="M77.1,69.6s-.2,0-.5-.2c-.3-.1-.8-.2-1.3,0-.5.1-.9.4-1.1.6-.2.2-.4.4-.4.4,0,0,0-.2.3-.5.2-.3.7-.6,1.2-.7.6-.1,1.1,0,1.4.2.3.2.5.4.5.4Z" style="fill:#ec996f;"/><path d="M80.2,67.4c0,0-1.2-.2-2.7-.2-1.5,0-2.7,0-2.7,0,0,0,1.2-.4,2.7-.3,1.5,0,2.7.5,2.7.5Z" style="fill:#ec996f;"/><path d="M77.1,81.1s0-.4,0-1.1c0-.6,0-1.6-.5-2.5-.4-.9-1.1-1.6-1.6-1.9-.5-.4-.9-.6-.9-.6,0,0,.4,0,1,.5.6.4,1.3,1,1.7,2,.4.9.5,1.9.4,2.6,0,.7-.3,1.1-.3,1Z" style="fill:#ec996f;"/><path d="M81.6,83.7h0c-2,1.1-3.6,2.8-4.5,4.8l-1.7,5.8,2.1-7.3-10.6-3.4s-5.2,11.3-6.5,17.7c-.9,4.9-.8,11.5,3.1,12.5,4.5,1.4,8-.5,11-4.3l7.6-10.9-.6-15Z" style="fill:#455b64;"/><path d="M67.8,84.2s0,0,.2,0c.1,0,.3,0,.5.1.5.1,1.2.3,2,.5,1.8.5,4.2,1.2,7.1,2h.1s0,.2,0,.2c-.5,1.9-1.1,3.9-1.8,6.1-.7,2.2-1.3,4.2-1.8,6.2-.5,1.9-1,3.6-1.6,5-.5,1.4-1.1,2.5-1.6,3.2-.2.4-.4.6-.5.8-.1.2-.2.3-.2.3,0,0,.2-.4.7-1.1.4-.7,1-1.8,1.5-3.2.5-1.4,1-3.1,1.5-5,.5-1.9,1.1-4,1.8-6.2.6-2.1,1.2-4.2,1.8-6v.2c-2.8-.8-5.2-1.6-6.9-2.1-.8-.3-1.5-.5-2-.6-.2,0-.4-.1-.5-.2-.1,0-.2,0-.2,0Z" style="fill:#263238;"/><path d="M94.4,44.9c-.6-1-1.9-1.5-3-1.2-1.4-.9-3.4-.7-4.6.5-1-.5-2.3-.4-3.3.2-1,.6-1.6,1.8-1.5,2.9-1.2,0-2.3.6-2.8,1.7-.4,1.1-.1,2.4.7,3.2-1.2.5-1.9,2-1.5,3.3.4,1.3,1.8,2.1,3.1,1.9l12.6-9.3c.7-.9.8-2.2.2-3.2Z" style="fill:#263238;"/><path d="M81.2,57.8c0-6,4.5-10.9,10.4-11.4h.6c6.4-.2,8.8,5.5,8.8,11.9l1.4,23.7h0l-9.3,9.6-3.5-6.3-1.3-6.3s-6.2-.5-6.7-6.6c-.3-3-.4-9.1-.4-14.6Z" style="fill:#fbbd9d;"/><path d="M88.3,79s3.9,0,7.8-3c0,0-1.3,4.7-7.4,4.7l-.4-1.7Z" style="fill:#ec996f;"/><path d="M83.4,63.3c0,.5.4.8.9.8.5,0,.9-.4.8-.9,0-.5-.4-.8-.9-.8-.5,0-.9.4-.8.9Z" style="fill:#263238;"/><path d="M82.7,61c.1.1.7-.4,1.7-.5.9,0,1.7.3,1.8.2,0,0,0-.3-.4-.4-.3-.2-.8-.4-1.4-.3-.6,0-1.1.3-1.3.6-.3.2-.3.5-.3.5Z" style="fill:#263238;"/><path d="M91.5,63.1c0,.5.4.8.9.8.5,0,.9-.4.8-.9,0-.5-.4-.8-.9-.8-.5,0-.9.4-.8.9Z" style="fill:#263238;"/><path d="M91.6,60.1c.1.1.7-.4,1.7-.5.9,0,1.7.3,1.8.2,0,0,0-.3-.4-.4-.3-.2-.8-.4-1.4-.3-.6,0-1.1.3-1.3.6-.3.2-.3.5-.3.5Z" style="fill:#263238;"/><path d="M89.1,67.4c0,0-.6-.1-1.5-.2-.2,0-.5,0-.5-.2,0-.2,0-.4.1-.7.2-.6.4-1.2.6-1.9.8-2.7,1.3-4.9,1.2-4.9-.1,0-.8,2.1-1.6,4.8-.2.7-.4,1.3-.5,1.9,0,.3-.2.6,0,1,0,.2.3.3.4.3.2,0,.3,0,.4,0,1,0,1.5,0,1.5-.1Z" style="fill:#263238;"/><path d="M91.9,67.8c-.2,0,0,1-.9,1.8-.8.8-1.9.8-1.9.9,0,0,.3.2.7.2.4,0,1.1-.2,1.6-.7.5-.5.7-1.1.7-1.5,0-.4-.1-.7-.2-.7Z" style="fill:#263238;"/><path d="M91.4,57.4c.1.2.9,0,1.9-.1,1,0,1.8,0,1.9-.2,0-.1-.1-.3-.5-.5-.4-.2-.9-.3-1.5-.3-.6,0-1.1.3-1.4.5-.3.2-.5.5-.4.6Z" style="fill:#263238;"/><path d="M82.7,58.4c.2.2.8,0,1.6,0,.8,0,1.4.1,1.6,0,0-.1,0-.3-.3-.5-.3-.2-.8-.4-1.3-.4-.5,0-1,.2-1.3.4-.3.2-.4.4-.3.5Z" style="fill:#263238;"/><path d="M81.5,54.9s1.3-4,3.1-5c2.1-1.3,3.3,1.1,5.4.3,2.1-.8,4.1-2,6.4-.5,2.5,1.6,1.5,3,1.9,5.7,1.5,11,3.8,13.9,3.9,8.7,0-.6,1.5-1.2,1.6-3.6,0-3.1-.1-6.9-1-9.1-.7-1.8-1.9-3-3.9-4.3-3.2-2-7.3-1.7-10-1.2-2.8.5-7.9,4.2-7.2,9Z" style="fill:#263238;"/><path d="M101,64c0-.9.7-1.8,1.7-1.7,1.1,0,2.5.6,2.6,2.9.2,4.2-4,3.5-4,3.4,0,0-.1-2.8-.2-4.6Z" style="fill:#fbbd9d;"/><path d="M102,67s0,0,.2,0c.1,0,.3,0,.5,0,.4-.2.8-.9.8-1.7,0-.4-.1-.7-.3-1-.1-.3-.4-.5-.6-.5-.2,0-.4.1-.4.2,0,.1,0,.2,0,.2,0,0,0,0,0-.2,0,0,0-.2.2-.3,0,0,.2-.1.4-.1.3,0,.6.3.8.6.2.3.3.7.3,1.2,0,.8-.4,1.7-1,1.9-.3,0-.5,0-.7,0-.1,0-.2-.2-.1-.2Z" style="fill:#ec996f;"/><path d="M101,55.9c-.5.4-1,.8-1.7,1-.6.1-1.4-.2-1.6-.8,0-.3,0-.6-.2-.8-.2-.3-.7-.1-1,0-1.2.2-2.5-.5-2.9-1.7-.3.5-1,.5-1.5.3-.5-.3-.8-.7-1.2-1.1-.4-.4-.9-.7-1.5-.6-.3,0-.6.3-.9.3-.6,0-.9-.6-1-1.2-.1-.5-.2-1.2-.7-1.4-.5-.2-1,0-1.5,0-.5.1-1.2,0-1.3-.4,0-.3,0-.5.1-.8.6-1.1,1.9-1.7,3.1-1.3.3-1.4,1.5-2.6,2.9-2.9,1.4-.3,3,.4,3.7,1.6.8-.9,2.1-1.3,3.2-1.1,1.2.2,2.3.9,2.8,2,1-.4,2.2,0,2.9.7.7.8.9,2,.5,3,.8.4,1.5,1.1,1.6,1.9,0,.9-.7,1.8-1.5,1.6.4.6.2,1.6-.4,2-.6.4-1.6.3-2-.3" style="fill:#263238;"/><path d="M103.5,54s.1.3-.2.8c-.1.2-.4.5-.8.6-.4,0-.8,0-1.2-.2h.2c-.2.3-.4.7-.7,1.1-.2.2-.4.4-.7.5-.3.1-.6.2-.8.1-.5,0-1-.3-1.3-.6-.2-.3-.3-.6-.4-.8,0-.2,0-.3,0-.3,0,0,0,.1.1.3,0,.2.2.5.4.8.4.6,1.8.8,2.5-.1.3-.3.5-.7.7-1h0c0-.1.1,0,.1,0,.3.2.7.3,1,.2.3,0,.6-.3.7-.5.3-.4.3-.8.3-.7Z" style="fill:#455b64;"/><path d="M94.9,45.1s-.1,0-.3.1c-.2,0-.4.3-.6.6h0c0,0,0,0,0,0-.4-.5-1.1-1.1-2.1-1.5-.5-.2-1.1-.3-1.7-.2-.6,0-1.2.3-1.7.7-.4.3-.7.7-1,1.1-.2.4-.3.9-.4,1.3h0c0,.1-.1.1-.1.1-.6-.1-1.3,0-1.7.4-.5.3-.7.7-.9,1.1-.3.8-.1,1.3-.2,1.3,0,0,0-.1,0-.3,0-.2,0-.6.1-1,.1-.4.4-.9.9-1.2.5-.3,1.1-.5,1.9-.4h-.1c0-.4.1-.9.4-1.3.2-.4.6-.9,1-1.2.6-.4,1.2-.6,1.8-.7.6,0,1.2,0,1.8.3,1,.4,1.8,1.1,2.2,1.6h-.1c.2-.3.5-.5.7-.6.2,0,.3,0,.3,0Z" style="fill:#455b64;"/><path d="M88.7,81.4c1.2,4.4,8.1,5.2,13.6-1,0,0,7.2,3.2,9.4,4.8,1.7,1.2-8.3,45.2-8.3,45.2l-1.6,17.5s-4.5,1.1-7.2.1c-5.4-2.1-12.3-7.4-15.1-6.8-21.1,5-14.1-4.4-14.1-4.4l6-18.4,6.3-23.8,3.8-11,7.1-2.2Z" style="fill:#455b64;"/><path d="M66.4,133.8s0-.2.1-.4c0-.3.2-.7.4-1.2.3-1.1.8-2.6,1.4-4.4.6-1.9,1.3-4.1,2.1-6.6.4-1.2.8-2.5,1.2-3.9.2-.7.4-1.4.6-2,.2-.7.4-1.4.5-2.1,1.4-5.8,2.7-11,3.7-14.8.5-1.9.9-3.4,1.1-4.5.1-.5.2-.9.3-1.2,0-.3.1-.4.1-.4,0,0,0,.2,0,.4,0,.3-.2.7-.3,1.2-.3,1.1-.6,2.6-1.1,4.5-.9,3.8-2.2,9.1-3.6,14.9-.2.7-.3,1.4-.5,2.1-.2.7-.4,1.4-.7,2-.4,1.3-.8,2.6-1.2,3.9-.8,2.5-1.5,4.7-2.1,6.5-.6,1.8-1.1,3.3-1.4,4.4-.2.5-.3.9-.4,1.2,0,.3-.2.4-.2.4Z" style="fill:#263238;"/><path d="M103.6,97.5c0,2.5-.5,22.5-.5,22.5l-6.3,7.7-12.7,11,6.8,9.9s23.5-20.1,24.5-22.3c.6-1.5.4-23.4.6-34.7,0-4.3-4.5-6.7-6.8-7.9" style="fill:#455b64;"/><path d="M109.3,83.7s.1,0,.3.2c.2.1.5.3.9.5.8.5,2,1.1,3.3,2.3.6.6,1.3,1.4,1.7,2.4.2.5.4,1,.5,1.6,0,.3,0,.6,0,.9,0,.3,0,.6,0,.9,0,2.5,0,5.4,0,8.6,0,3.2,0,6.6,0,10.4,0,3.7,0,7.7-.2,11.9,0,.5,0,1.1,0,1.6v.8c0,.1-.1.3-.2.4,0,.1,0,.3-.2.4-.7.9-1.4,1.6-2.2,2.4-1.6,1.5-3.2,3.1-4.9,4.6-3.4,3.1-6.9,6.2-10.6,9.4-2.3,2-4.5,3.9-6.7,5.8h-.1c0,.1,0,0,0,0-2.4-3.4-4.6-6.7-6.8-9.9h0c0-.1,0-.2,0-.2,4.5-3.9,8.8-7.6,12.7-11h0c2.2-2.8,4.3-5.3,6.3-7.7h0c.2-6.9.3-12.5.4-16.4,0-1.9.1-3.4.1-4.5,0-.5,0-.9,0-1.2,0-.3,0-.4,0-.4,0,0,0,.1,0,.4,0,.3,0,.7,0,1.2,0,1,0,2.5,0,4.5,0,3.9-.2,9.5-.3,16.5h0s0,0,0,0c-1.9,2.4-4,5-6.2,7.8h0s0,0,0,0c-3.9,3.4-8.2,7.1-12.7,11v-.2c2.2,3.2,4.5,6.5,6.9,9.9h-.2c2.2-1.9,4.4-3.8,6.7-5.8,3.6-3.2,7.2-6.3,10.6-9.4,1.7-1.5,3.3-3.1,4.9-4.6.8-.8,1.6-1.5,2.2-2.4.2-.4.2-1,.3-1.5,0-.5,0-1.1,0-1.6.1-4.2.2-8.2.2-11.9,0-3.7,0-7.2,0-10.4,0-3.2,0-6,.1-8.6,0-.3,0-.6,0-.9,0-.3,0-.6,0-.9,0-.6-.2-1.1-.5-1.6-.4-1-1.1-1.7-1.7-2.4-1.3-1.2-2.5-1.9-3.3-2.4-.4-.2-.7-.4-.9-.5-.2-.1-.3-.2-.3-.2Z" style="fill:#263238;"/><path d="M75.7,142c.2,0,1.8.3,3-.4,1.1-.7,3.4-1.4,5-1.6h1.4l4.8,7.3-2.8,5.4s-2.8-.5-5-3.2c-2.2-2.7-2.1-5.7-2.1-5.7,0,0-2.5.8-3.8.5s-2-1.2-1.7-1.8c.3-.5,1.1-.5,1.1-.5Z" style="fill:#fbbd9d;"/></svg>