<?xml version="1.0" encoding="UTF-8"?><svg id="Layer_1" xmlns="http://www.w3.org/2000/svg" viewBox="0 0 310.9 274.6"><rect x="171.8" y="44.1" width="94.4" height="84.4" style="fill:#fafbfb;"/><path d="M171.8,128.5s0-.5,0-1.6c0-1,0-2.6,0-4.5,0-4,0-9.8,0-17.1,0-14.8,0-35.8.1-61.2l-.2.2c27.2,0,59.6,0,94.4,0h0l-.3-.3c0,30.7,0,59.6,0,84.4l.2-.2c-28.2,0-51.7,0-68.3.1-8.3,0-14.8,0-19.3,0-2.2,0-3.9,0-5.1,0-.6,0-1,0-1.3,0-.3,0-.5,0-.5,0,0,0,.1,0,.4,0,.3,0,.7,0,1.3,0,1.2,0,2.9,0,5.1,0,4.4,0,10.9,0,19.2,0,16.6,0,40.2,0,68.4.1h.2s0-.2,0-.2c0-24.8,0-53.7,0-84.4v-.3s-.3,0-.3,0h0c-34.8,0-67.2,0-94.4,0h-.2s0,.2,0,.2c0,25.4,0,46.6.1,61.3,0,7.4,0,13.1,0,17.1,0,2,0,3.5,0,4.5,0,1,0,1.5,0,1.5Z" style="fill:#e0e0e0;"/><path d="M230,59.1c0,.1,5,.3,11.1.3s11.1-.1,11.1-.3-5-.3-11.1-.3-11.1.1-11.1.3Z" style="fill:#e0e0e0;"/><path d="M190,65.4c0,.1,13.6.3,30.5.3s30.5-.1,30.5-.3-13.6-.3-30.5-.3-30.5.1-30.5.3Z" style="fill:#e0e0e0;"/><rect x="248" y="76.2" width="4" height="4" transform="translate(500 156.3) rotate(-180)" style="fill:#e0e0e0;"/><rect x="238.2" y="76.2" width="4" height="4" transform="translate(480.4 156.3) rotate(-180)" style="fill:#e0e0e0;"/><rect x="228.3" y="76" width="4" height="4" transform="translate(460.5 156) rotate(-180)" style="fill:#e0e0e0;"/><rect x="218.6" y="76.2" width="4" height="4" transform="translate(441.3 156.3) rotate(-180)" style="fill:#e0e0e0;"/><rect x="208.9" y="76.2" width="4" height="4" transform="translate(421.7 156.3) rotate(-180)" style="fill:#e0e0e0;"/><rect x="199.1" y="76.2" width="4" height="4" transform="translate(402.1 156.3) rotate(-180)" style="fill:#e0e0e0;"/><rect x="189.3" y="76.2" width="4" height="4" transform="translate(382.5 156.3) rotate(-180)" style="fill:#ebebeb;"/><rect x="248" y="84.6" width="4" height="4" transform="translate(500 173.2) rotate(-180)" style="fill:#ebebeb;"/><rect x="238.2" y="84.6" width="4" height="4" transform="translate(480.4 173.2) rotate(-180)" style="fill:#e0e0e0;"/><rect x="228.4" y="84.6" width="4" height="4" transform="translate(460.8 173.2) rotate(-180)" style="fill:#ebebeb;"/><rect x="218.6" y="84.6" width="4" height="4" transform="translate(441.3 173.2) rotate(-180)" style="fill:#e0e0e0;"/><rect x="208.9" y="84.6" width="4" height="4" transform="translate(421.7 173.2) rotate(-180)" style="fill:#e0e0e0;"/><rect x="198.9" y="84.4" width="4" height="4" transform="translate(401.8 172.9) rotate(-180)" style="fill:#e0e0e0;"/><rect x="189.3" y="84.6" width="4" height="4" transform="translate(382.5 173.2) rotate(-180)" style="fill:#e0e0e0;"/><rect x="248" y="93.1" width="4" height="4" transform="translate(500 190.1) rotate(-180)" style="fill:#e0e0e0;"/><rect x="238" y="92.9" width="4" height="4" transform="translate(480.1 189.8) rotate(-180)" style="fill:#e0e0e0;"/><rect x="228.4" y="93.1" width="4" height="4" transform="translate(460.8 190.1) rotate(-180)" style="fill:#e0e0e0;"/><rect x="218.6" y="93.1" width="4" height="4" transform="translate(441.3 190.1) rotate(-180)" style="fill:#ebebeb;"/><rect x="208.9" y="93.1" width="4" height="4" transform="translate(421.7 190.1) rotate(-180)" style="fill:#e0e0e0;"/><rect x="199.1" y="93.1" width="4" height="4" transform="translate(402.1 190.1) rotate(-180)" style="fill:#e0e0e0;"/><rect x="189.3" y="93.1" width="4" height="4" transform="translate(382.5 190.1) rotate(-180)" style="fill:#e0e0e0;"/><rect x="248" y="101.5" width="4" height="4" transform="translate(500 207) rotate(-180)" style="fill:#e0e0e0;"/><rect x="238.2" y="101.5" width="4" height="4" transform="translate(480.4 207) rotate(-180)" style="fill:#e0e0e0;"/><rect x="228.4" y="101.5" width="4" height="4" transform="translate(460.8 207) rotate(-180)" style="fill:#e0e0e0;"/><rect x="218.5" y="101.4" width="4" height="4" transform="translate(440.9 206.7) rotate(-180)" style="fill:#e0e0e0;"/><rect x="208.9" y="101.5" width="4" height="4" transform="translate(421.7 207) rotate(-180)" style="fill:#e0e0e0;"/><rect x="199.1" y="101.5" width="4" height="4" transform="translate(402.1 207) rotate(-180)" style="fill:#ebebeb;"/><rect x="189.3" y="101.5" width="4" height="4" transform="translate(382.5 207) rotate(-180)" style="fill:#e0e0e0;"/><rect x="248" y="110" width="4" height="4" transform="translate(500 223.9) rotate(-180)" style="fill:#e0e0e0;"/><rect x="238.2" y="110" width="4" height="4" transform="translate(480.4 223.9) rotate(-180)" style="fill:#ebebeb;"/><rect x="228.4" y="110" width="4" height="4" transform="translate(460.8 223.9) rotate(-180)" style="fill:#e0e0e0;"/><rect x="218.6" y="110" width="4" height="4" transform="translate(441.3 223.9) rotate(-180)" style="fill:#e0e0e0;"/><rect x="208.9" y="110" width="4" height="4" transform="translate(421.7 223.9) rotate(-180)" style="fill:#e0e0e0;"/><rect x="198.9" y="109.8" width="4" height="4" transform="translate(401.8 223.6) rotate(-180)" style="fill:#e0e0e0;"/><rect x="189.3" y="110" width="4" height="4" transform="translate(382.5 223.9) rotate(-180)" style="fill:#e0e0e0;"/><rect x="65.1" y="24" width="6.1" height="30.2" transform="translate(136.1 78.6) rotate(-179.7)" style="fill:#e0e0e0;"/><rect x="108" y="24.1" width="15.7" height="16.7" transform="translate(231.6 65.5) rotate(-179.7)" style="fill:#ebebeb;"/><rect x="92.4" y="24" width="15.7" height="16.7" transform="translate(200.4 65.3) rotate(-179.7)" style="fill:#f5f5f5;"/><path d="M123.8,28.8c-10.4,0-20.9,0-31.3-.1-.2,0-.2-.3,0-.3,10.4,0,20.9,0,31.3.2.2,0,.2.3,0,.3h0Z" style="fill:#e0e0e0;"/><rect x="105" y="40.5" width="28.5" height="13.6" transform="translate(238.3 95.3) rotate(-179.7)" style="fill:#ebebeb;"/><rect x="76.6" y="40.4" width="28.5" height="13.6" transform="translate(181.5 94.8) rotate(-179.7)" style="fill:#f5f5f5;"/><path d="M133.6,44.4c-19,.2-38,0-56.9-.3-.2,0-.2-.3,0-.3,19-.1,38,0,56.9.3.2,0,.2.3,0,.3h0Z" style="fill:#e0e0e0;"/><rect x="33.7" y="54.2" width="110.6" height="4.9" transform="translate(177.9 113.2) rotate(-180)" style="fill:#e0e0e0;"/><rect x="121.7" y="56.5" width="4.5" height="16.6" transform="translate(247.8 129.7) rotate(-180)" style="fill:#e0e0e0;"/><rect x="54.7" y="56.5" width="4.5" height="16.6" transform="translate(113.8 129.7) rotate(-180)" style="fill:#e0e0e0;"/><rect x="59.2" y="12.8" width="6.1" height="41.5" transform="translate(124.2 67.4) rotate(-179.7)" style="fill:#ebebeb;"/><rect x="49.7" y="20.5" width="9.4" height="33.6" transform="translate(108.6 74.9) rotate(-179.7)" style="fill:#f5f5f5;"/><path d="M49.9,27c0,0,2.1.2,4.7.2s4.7,0,4.7-.2-2.1-.2-4.7-.2-4.7,0-4.7.2Z" style="fill:#e0e0e0;"/><path d="M49.9,25.5c0,0,2.1.2,4.7.2s4.7,0,4.7-.2-2.1-.2-4.7-.2-4.7,0-4.7.2Z" style="fill:#e0e0e0;"/><path d="M49.9,49c0,0,2.1.2,4.7.2s4.7,0,4.7-.2-2.1-.2-4.7-.2-4.7,0-4.7.2Z" style="fill:#e0e0e0;"/><path d="M49.9,47.6c0,0,2.1.2,4.7.2s4.7,0,4.7-.2-2.1-.2-4.7-.2-4.7,0-4.7.2Z" style="fill:#e0e0e0;"/><path d="M54.4,44.6c0,0,.2-3.4.2-7.6s0-7.6-.2-7.6-.2,3.4-.2,7.6,0,7.6.2,7.6Z" style="fill:#e0e0e0;"/><rect x="39.5" y="28.7" width="10.3" height="25.4" transform="translate(89.3 82.9) rotate(-180)" style="fill:#ebebeb;"/><path d="M60.7,19.8c0,1,.8,1.7,1.7,1.7s1.7-.8,1.7-1.7-.8-1.7-1.7-1.7-1.7.8-1.7,1.7Z" style="fill:#e0e0e0;"/><rect x="61.9" y="24.6" width="1.1" height="24.7" transform="translate(124.8 73.9) rotate(-180)" style="fill:#e0e0e0;"/><path d="M248.1,182.2c-2.8-1.5-6.2-1.7-9.4-1.1-1.7.3-3.5.8-4.6,2.1-1.2,1.3-1.4,3.5,0,4.6.8.7,1.9.8,2.9.7,2.5,0,5.2-.5,7.2,1,1.1.8,1.9,2.3,3.2,2.7,1.3.4,2.8-.4,3.5-1.6.7-1.2.7-2.7.4-4,0,0-.3-2.9-3.2-4.4Z" style="fill:#3a5fa0;"/><path d="M254.7,169.6c-1.7,2.5-5.1,1.7-6.7.1-1.6-1.5-2.2-3.7-2.8-5.8-1.4-4.8-2.8-9.8-1.7-14.7.3-1.5.9-2.9,1.9-4s2.6-1.7,4-1.3c1.7.5,2.8,2.1,3.5,3.7,2.3,4.7,3.4,9.8,3.5,15,0,2.4-.3,5-1.6,7" style="fill:#3a5fa0;"/><path d="M259.4,173.2c-1.9-2.2-2.2-5.5-1.4-8.3.8-2.8,2.7-5.2,4.9-7.1,2.6-2.3,5.6-4.1,8.8-5.2,1.3-.4,2.6-.8,4-.7,1.3.1,2.7.8,3.3,2,.9,1.8,0,3.9-.9,5.7-1.7,3.1-3.6,6-5.8,8.8-1.7,2.2-3.7,4.4-6.4,5.5-2.6,1-5.4.9-6.8-.9" style="fill:#3a5fa0;"/><path d="M254.8,207.1s0-.4-.2-1.1c0-.8-.2-1.9-.3-3.1-.1-1.3-.3-2.8-.7-4.5-.4-1.7-.9-3.5-1.6-5.3-.7-1.8-1.7-3.5-2.7-4.8-1.1-1.3-2.3-2.3-3.4-2.9-1.2-.6-2.2-.8-2.9-.9-.7,0-1.1-.1-1.1-.2,0,0,.4,0,1.1,0,.7,0,1.8.2,3,.8,1.2.5,2.5,1.5,3.6,2.9,1.1,1.4,2.1,3.1,2.8,4.9.7,1.9,1.3,3.7,1.6,5.4.3,1.7.5,3.3.6,4.6,0,1.3.1,2.4.2,3.1,0,.7,0,1.1,0,1.1Z" style="fill:#263238;"/><path d="M254.6,204.7s0-.2,0-.5c0-.4,0-.9,0-1.5,0-1.3,0-3.2,0-5.5-.1-4.6-.5-9.6-1.3-16.7-.7-6.6-1.7-14.3-2.8-19.4-.2-1.1-.4-2.2-.7-3.1-.2-.9-.4-1.7-.5-2.3-.1-.6-.3-1.1-.4-1.5,0-.3-.1-.5,0-.5,0,0,0,.2.2.5.1.4.3.9.4,1.4.2.6.4,1.4.6,2.3.2.9.5,1.9.7,3.1,1,4.5,2.1,10.9,2.9,18,.8,7.1,1.1,13.5,1.2,18.2,0,2.3,0,4.2,0,5.5,0,.6,0,1.1,0,1.5,0,.3,0,.5,0,.5Z" style="fill:#263238;"/><path d="M254.5,192.3s0-.6,0-1.6c0-1,.2-2.5.5-4.2.3-1.8.7-3.9,1.4-6.2.3-1,1-3.6,2.6-7.3,2.1-5.1,5.1-9.2,7.6-11.8.6-.7,1.3-1.2,1.8-1.7.3-.2.5-.5.8-.6.2-.2.5-.3.7-.5.8-.6,1.3-.9,1.3-.8,0,.1-1.9,1.2-4.3,3.9-2.4,2.6-5.3,6.7-7.4,11.8-1.2,2.7-2,5.2-2.6,7.2-.7,2.3-1.1,4.4-1.5,6.1-.3,1.8-.5,3.2-.6,4.2,0,1-.2,1.6-.2,1.6Z" style="fill:#263238;"/><polygon points="266.5 214.2 265.3 231.2 243.4 231.2 242.2 214.2 266.5 214.2" style="fill:#263238;"/><rect x="239.5" y="207.5" width="29.1" height="6.7" style="fill:#263238;"/><polygon points="268.6 230.6 268.6 232.4 267.3 232.4 240 232.4 240 230.6 268.6 230.6" style="fill:#455b64;"/><polygon points="265.9 235.7 267.3 232.4 241.1 232.4 242.6 235.7 265.9 235.7" style="fill:#455b64;"/><path d="M242.6,219.8s0,0,.1.2c0,.1.2.3.3.4.3.4.7.9,1.3,1.6h0c0,0,0,0,0,0,.8-1.1,1.9-2.6,3.1-4.3h-.2c.9,1.3,2,2.8,3.1,4.4h0c0,.1.1,0,.1,0,1.1-1.4,2.4-2.8,3.7-4.4h-.2c0,0,.1.2.2.3,1.1,1.4,2.2,2.8,3.3,4.1h.1c0,.1.1,0,.1,0,1.1-1.6,2.1-3,3.1-4.4h-.2c1.5,1.7,2.8,3.2,3.8,4.3h0c0,0,0,0,0,0,.5-.8.9-1.5,1.2-2,.1-.2.2-.4.3-.5,0-.1,0-.2,0-.2,0,0,0,0-.1.2,0,.1-.2.3-.3.5-.3.5-.7,1.1-1.2,2h.1c-1-1.2-2.2-2.6-3.7-4.4h0c0-.1,0,0,0,0-.9,1.3-2,2.8-3.1,4.3h.2c-1-1.3-2.1-2.7-3.3-4.1,0,0-.1-.2-.2-.3h-.1c0-.1-.1,0-.1,0-1.3,1.5-2.5,3-3.6,4.4h.2c-1.1-1.6-2.2-3-3.1-4.3h0c0-.1,0,0,0,0-1.2,1.8-2.3,3.3-3.1,4.4h.1c-.6-.7-1-1.2-1.3-1.6-.1-.2-.3-.3-.4-.4,0,0-.1-.1-.1-.1Z" style="fill:#e0e0e0;"/><path d="M241.9,214.1c0,0,5.5.1,12.2.1s12.2,0,12.2-.1-5.5-.1-12.2-.1-12.2,0-12.2.1Z" style="fill:#455b64;"/><path d="M240.8,232.6c0,0,6,.1,13.3.1s13.3,0,13.3-.1-6-.1-13.3-.1-13.3,0-13.3.1Z" style="fill:#263238;"/><path d="M32,163.9h67.3v57c0,8.3-6.8,15.1-15.1,15.1h-37c-8.3,0-15.1-6.8-15.1-15.1v-57h0Z" transform="translate(131.4 399.9) rotate(-180)" style="fill:#455b64;"/><path d="M37.7,164.2c0,0-.1,16.1-.1,35.9,0,19.8,0,35.9.1,35.9s.1-16.1.1-35.9c0-19.8,0-35.9-.1-35.9Z" style="fill:#263238;"/><path d="M70.8,85.5c-6.2,8.8-9.8,19.4-10.2,30.1-.3,7.2.7,14.9-2.8,21.3-4.9,9.1-15.6,8.8-18.8,18.7-1.4,4.3,1.2,13.7,1.9,18.2.8,5.1-2.3,9.3-1.5,14.4.7,4.6,4.2,8,8.4,10.1,3.7,1.9,7.2,2,11,.4,7.4-3.1,13.5-6.3,18.8-12.3,7.4-8.4,9.6-20.1,10.9-31.2,2.8-24.5,2.2-49.4-1.7-73.8" style="fill:#263238;"/><path d="M55.1,199.7s0,0-.2,0c-.2,0-.4,0-.7-.2-.6-.2-1.5-.4-2.5-1-1-.6-2.3-1.4-3.4-2.7-.5-.6-1-1.4-1.3-2.3-.3-.9-.4-1.9-.5-3-.1-2.1.2-4.5.7-6.9.5-2.5,1.1-5.1,1.3-8,0-1.4,0-2.9-.3-4.4-.3-1.5-.8-2.9-1.4-4.3-.6-1.4-1.1-2.9-1.6-4.4-.4-1.5-.6-3.1-.4-4.7.2-1.6.9-3.1,1.8-4.4.9-1.3,2-2.4,3.1-3.5,2.2-2.1,4.7-3.8,6.8-5.8,4.2-3.9,7-8.3,8.8-12.1.9-2,1.6-3.8,2-5.4.3-.8.4-1.6.6-2.3.1-.7.3-1.4.4-2,.2-1.2.3-2.1.3-2.7,0-.3,0-.5,0-.7,0-.2,0-.2,0-.2,0,0,0,0,0,.2,0,.2,0,.4,0,.7,0,.6-.2,1.5-.4,2.7-.1.6-.3,1.2-.4,1.9-.2.7-.3,1.5-.6,2.3-.5,1.6-1.2,3.4-2.1,5.4-1.8,3.9-4.6,8.2-8.8,12-2.1,1.9-4.5,3.7-6.8,5.8-1.1,1.1-2.2,2.2-3.1,3.5-.9,1.3-1.6,2.9-1.8,4.5-.3,1.6,0,3.3.4,4.8.4,1.5,1,3,1.6,4.4.6,1.4,1.1,2.9,1.4,4.3.3,1.4.4,2.9.3,4.3-.1,2.8-.8,5.4-1.2,7.9-.5,2.5-.8,4.8-.7,7,0,1.1.2,2.1.5,3,.3.9.8,1.7,1.4,2.4,1.1,1.3,2.4,2.1,3.4,2.7,1.1.6,2,.8,2.6,1,.6.1.9.2.9.2Z" style="fill:#455b64;"/><path d="M156.3,219.1l-26.1-12.4s-10.2-49.3-12.1-53-10-6.9-10-6.9l1.3,66.8,2.4,15.4,36.8,3.5,7.6-13.4Z" style="fill:#3a5fa0;"/><path d="M178.6,230.8c.1,0,.9.4.3,1.6-.6,1.1-5,4.9-6.3,3.6-1.3-1.3.7-2.9.7-2.9l5.4-2.3Z" style="fill:#fbbd9d;"/><path d="M173,233.2s-5.3.7-7.4,1.5c-2.2.8-4.9.3-6.8-1-1.8-1.2-2.9-2.4-2.9-2.4h-6.8c0-.1-3.3-3.5-1.3-8.5.3-.9.7-1.6,1.6-2.7.8-.9,2.1-1.6,4.3-2l8.1,1.7s12.5-.9,14.8.2c0,0,2.8,1.7,3.7,2.4.3.3,1.3,3.5-.7,5.1,0,0,1.8,1.4.8,2.7l-.5.6s1.2,1.5.6,2.2c-.6.7-6,3.8-7.9,3.1-1.9-.7-.3-2.5.5-2.9" style="fill:#fbbd9d;"/><path d="M178.1,224.7s-.2,0-.7.2c-.4.2-1,.4-1.8.6-.4.1-.8.2-1.3.4-.5.1-1,.2-1.5.4-.5.2-1.1.4-1.5.9-.4.5-.6,1.1-.4,1.8.1.3.4.6.7.7.3.1.6.2.9.2.6,0,1.2,0,1.7,0,1.1-.2,2-.4,2.8-.7.8-.3,1.4-.5,1.8-.7.4-.2.6-.3.6-.3,0,0-.2,0-.7.2-.4.2-1,.4-1.8.6-.8.3-1.7.5-2.7.7-.5,0-1.1.1-1.6,0-.3,0-.6,0-.8-.2-.2-.1-.5-.3-.6-.6-.2-.5,0-1.1.4-1.6.4-.4.9-.7,1.4-.8.5-.2,1-.3,1.5-.4.5-.1.9-.3,1.3-.4.8-.3,1.4-.5,1.8-.7.4-.2.6-.3.6-.3Z" style="fill:#ec996f;"/><path d="M177.6,220.9s-.2,0-.7.2c-.4.2-1,.4-1.8.6-.8.3-1.7.5-2.7.8-.5.1-1.1.2-1.6.6-.2.2-.4.5-.5.8,0,.3,0,.7.1,1,.3.6.8,1,1.4,1.2.6.2,1.2.2,1.7.1,1.1-.2,2-.5,2.7-.8.7-.3,1.3-.5,1.8-.6.4-.2.7-.2.7-.3,0,0-.2,0-.7.2-.5.1-1.1.3-1.8.6-.8.2-1.7.6-2.7.7-.5,0-1.1,0-1.6-.1-.5-.2-1-.5-1.3-1.1-.2-.5-.2-1.2.3-1.5.4-.4,1-.5,1.5-.6,1-.3,2-.6,2.7-.8.8-.3,1.4-.5,1.8-.7.4-.2.6-.3.6-.3Z" style="fill:#ec996f;"/><path d="M175.1,222c0,0,.1-.5.2-1.1.1-.6.3-1,.3-1.1,0,0-.3.4-.5,1-.1.6,0,1.1,0,1.1Z" style="fill:#ec996f;"/><path d="M156.2,222.1l4.8-1.8s13.2-6.2,13.4-5.8c.2.3.9.3.8,1.9-.2,1.6-7.9,4.9-8.1,5.4-.2.6.2,3.4-2.7,5.4-2.8,2-4.9,2.1-4.9,2.1" style="fill:#fbbd9d;"/><path d="M159.5,229.3s0,0,.1,0c0,0,.2,0,.3,0,.3,0,.7-.1,1.2-.3.5-.2,1.2-.4,1.8-.8.7-.4,1.5-.8,2.2-1.5.7-.7,1.3-1.6,1.6-2.8.2-.6.2-1.2.3-1.8,0,0,0-.1,0-.2,0,0,0,0,.1-.1.1,0,.3-.2.4-.2.3-.2.6-.3.8-.5,1.1-.6,2.4-1.2,3.6-1.9.6-.4,1.2-.7,1.8-1.2.3-.2.6-.4.9-.7.1-.1.3-.3.4-.5,0,0,0-.2.1-.3,0-.1,0-.2,0-.3,0-.4,0-.8-.2-1.1-.1-.2-.3-.3-.4-.4,0,0-.1-.1-.2-.2,0,0,0,0,0,0,0,0,0,0,0,0,0,0,0,0,0,0,0,0,0,0-.1,0-.7.2-1.4.5-2,.8-1.3.6-2.6,1.1-3.7,1.6-2.4,1.1-4.5,2.1-6.3,2.9-.4.2-.9.4-1.3.6-.4.2-.8.3-1.2.5-.7.3-1.3.5-1.9.7-.5.2-.9.4-1.2.5-.1,0-.2,0-.3.1,0,0-.1,0-.1,0,0,0,0,0,.1,0,0,0,.2,0,.3-.1.3-.1.7-.3,1.2-.4.5-.2,1.1-.4,1.9-.7.4-.1.8-.3,1.2-.4.4-.2.8-.4,1.3-.6,1.8-.8,3.9-1.8,6.3-2.8,1.2-.5,2.4-1.1,3.7-1.6.7-.3,1.3-.6,2-.8,0,0,0,0,.1,0,0,0,0,0,0,0,0,0,0,0,0,0,0,0,0,0,0,0,0,0,0,0,0,0-.1.1,0,0,0,0h0c0,.1.2.2.2.2.1.1.3.2.4.4.2.3.2.7.2,1,0,.2,0,.3-.1.5,0,.1-.2.3-.3.4-.3.3-.5.5-.8.7-.6.4-1.2.8-1.8,1.1-1.2.7-2.4,1.3-3.6,1.9-.3.2-.6.3-.8.5-.1,0-.3.2-.4.3,0,0-.1.1-.2.2,0,0,0,.2,0,.2,0,.6-.1,1.2-.3,1.8-.3,1.1-.8,2-1.6,2.7-.7.7-1.5,1.1-2.1,1.5-.7.4-1.3.6-1.8.8-.5.2-.9.3-1.2.3-.1,0-.3,0-.3,0,0,0-.1,0-.1,0Z" style="fill:#ec996f;"/><path d="M174.1,229.9s-.2,0-.5.1c-.3.1-.8.3-1.2.7-.2.2-.5.4-.7.7-.2.3-.4.7-.4,1.1,0,.5.4.8.9,1,.4.2.9,0,1.4,0,1.8-.5,3.3-1.2,4.4-1.8.5-.3,1-.5,1.2-.7.3-.2.4-.3.4-.3,0,0-.2,0-.5.2-.3.2-.7.4-1.3.7-1.1.5-2.6,1.2-4.4,1.7-.4.1-.9.2-1.3,0-.4-.1-.7-.4-.7-.8,0-.4.1-.7.3-1,.2-.3.4-.5.7-.7.9-.8,1.7-.9,1.7-1Z" style="fill:#ec996f;"/><g style="opacity:.3;"><path d="M112.1,229c4.3-14.4,8-33,12.3-47.4,1.6,13.3-.4,30.9-2.8,44-.3,1.5-.4,3.1-1.6,4.1l-7.9-.7"/></g><path d="M119.1,219.1c0,0,.2-.9.8-2.4.3-.7.7-1.5,1.2-2.4.5-.9,1.2-1.8,2-2.6.8-.9,1.7-1.6,2.5-2.2.8-.6,1.6-1.1,2.3-1.4,1.4-.7,2.3-.9,2.3-1,0,0-.2,0-.7.2-.2,0-.5.1-.8.3-.3.1-.6.2-1,.4-.7.3-1.5.8-2.4,1.4-.8.6-1.7,1.3-2.5,2.2-.8.9-1.5,1.8-2,2.7-.5.9-.9,1.7-1.2,2.5-.2.4-.2.7-.3,1,0,.3-.2.6-.2.8,0,.4-.1.7-.1.7Z" style="fill:#263238;"/><path d="M111,146.1s13.7,30.5,13.7,36.1-10.2,44.5-10.2,44.5c0,1.5.5,9.3.5,9.3l-57.4.2h0l-.9-12.3,4.5-11.8-4.5-33.2s-3-19.3-3.3-24.7c-.3-6.8,22.5-14.6,21.9-15.5l4-5.3,22.6,18.4,4.5-12.9,5.4,5.1-.7,2.1Z" style="fill:#3a5fa0;"/><path d="M73.4,154.2c6.2,10.5,17.6,29.7,17.6,29.7l20.4,23.2s1.3,11.8-1.3,15.4c-2.7,3.6-7.2,6.1-7.2,6.1,0,0-5.4,0-12.2-5.7-6.8-5.7-25.7-29.3-25.7-29.3l-6.5-7.8s-7.7-19-6.3-28.6c.6-3.7,2.1-5.3,4.3-7,5.3-4.3,13.5-1.9,17,4Z" style="fill:#3a5fa0;"/><path d="M56,179.2s0,0,0,.2c0,.2.2.4.3.6.3.5.7,1.3,1.3,2.3,1.1,2,2.9,4.8,5.2,8.3,1.1,1.7,2.4,3.6,3.8,5.5,1.4,2,3,4,4.3,6.4,1.4,2.3,2.5,5,4,7.5,1.4,2.6,3.1,5.2,5.2,7.6,2,2.4,4.3,4.5,6.9,6.1,2.5,1.6,5.3,2.6,7.9,3.1,2.7.5,5.4.3,7.7-.3,1.2-.3,2.3-.8,3.3-1.3,1-.5,1.9-1.1,2.7-1.8.8-.7,1.5-1.4,2-2.1.6-.7,1-1.5,1.3-2.3.7-1.5,1-2.9,1.1-4,.1-1.1.1-2,0-2.6,0-.3,0-.5,0-.7,0-.2,0-.2,0-.2,0,0,0,0,0,.2,0,.2,0,.4,0,.7,0,.6,0,1.5-.1,2.6-.2,1.1-.5,2.5-1.1,4-.4.7-.8,1.5-1.3,2.2-.5.7-1.2,1.4-2,2.1-.8.7-1.7,1.3-2.7,1.8-1,.5-2.1,1-3.2,1.3-2.3.6-4.9.8-7.6.3-2.7-.5-5.4-1.5-7.8-3.1-2.5-1.6-4.8-3.6-6.8-6-2-2.4-3.7-4.9-5.2-7.5-1.4-2.6-2.6-5.2-4-7.5-1.3-2.4-3-4.4-4.4-6.4-1.4-2-2.7-3.8-3.9-5.5-2.3-3.4-4.1-6.2-5.2-8.2-.6-1-1-1.8-1.3-2.3-.1-.3-.2-.5-.3-.6,0-.1-.1-.2-.1-.2Z" style="fill:#263238;"/><path d="M112.3,206.1s.3.2.7.6c.4.4.8,1.1.9,1.9,0,.8-.2,1.6-.5,2.1-.3.5-.6.7-.5.7,0,0,.3-.2.7-.6.4-.5.7-1.3.6-2.2,0-.9-.6-1.7-1-2.1-.4-.4-.8-.5-.8-.5Z" style="fill:#263238;"/><path d="M108.6,212.3s-.1,0-.3,0c-.1,0-.2,0-.4.1-.2,0-.3,0-.5,0-.8.1-2,.1-3.4-.3-1.4-.4-2.9-1.3-4.3-2.5-1.4-1.3-2.7-2.9-4.1-4.7-1.3-1.8-2.7-3.4-4.2-4.7-.7-.6-1.5-1.2-2.1-1.8-.6-.6-1.1-1.2-1.4-1.9-.5-1.3-.2-2.6.3-3.2.5-.6,1-.7,1-.7,0,0-.1,0-.3,0-.2,0-.5.3-.8.6-.5.6-.9,1.9-.4,3.3.3.7.8,1.4,1.4,2,.6.6,1.3,1.2,2.1,1.8,1.5,1.2,2.8,2.9,4.1,4.6,1.3,1.8,2.6,3.5,4.1,4.7,1.5,1.3,3,2.1,4.4,2.5,1.4.4,2.6.4,3.4.2.2,0,.4,0,.5-.1.2,0,.3,0,.4-.1.2,0,.3-.1.3-.1Z" style="fill:#263238;"/><path d="M70.6,151s0,.1.2.3c.2.2.4.5.7.9.6.8,1.5,1.9,2.5,3.4,2.1,2.9,4.7,7,7.3,11.8,2.6,4.8,4.7,9.2,6.3,12.3.8,1.6,1.5,2.9,2,3.7.2.4.4.7.6,1,.1.2.2.3.2.3,0,0,0-.1-.2-.4-.1-.3-.3-.6-.5-1-.5-.9-1.1-2.2-1.9-3.8-1.6-3.2-3.7-7.6-6.2-12.4-2.6-4.8-5.2-8.9-7.3-11.8-1.1-1.4-1.9-2.6-2.6-3.3-.3-.4-.6-.7-.7-.9-.2-.2-.3-.3-.3-.3Z" style="fill:#263238;"/><g style="opacity:.3;"><path d="M113,211.3c-2.7,1.4-5.6,1.3-8.5.7-3-.6-5.7-2.2-7.6-4.6.5,2.6,1.6,5.1,3.5,6.9,1.9,1.8,4.6,2.9,7.2,2.4,2.6-.5,5.2-2.9,5.4-5.5"/></g><g style="opacity:.3;"><path d="M88,195.6c-1.7,2.6-2.3,5.8-1.6,8.8-2.2-3.4-2.8-7.8-2.2-11.9.6-4.1,2.3-7.9,4.1-11.6,0,0,2,3.4,2,3.8,0,2-.6,5.7-1,7.6-1,1-1.5,2.5-1.2,3.8"/></g><g style="opacity:.3;"><path d="M104,225.6c-5.4,4.2-13.4,4.4-19.3.9-5.7-3.3-9.2-9.3-12.5-15.1-5-8.9-11.2-19.9-14.8-29.4,0,0,10.1,13.8,13.1,19.7,2.3,4.5,4.1,7.4,6.9,11.6,5.7,8.4,16,13.4,26,12.7"/></g><path d="M114.9,236.1s0,0,0-.2c0-.1,0-.3,0-.5,0-.5,0-1.1,0-1.9,0-1.7-.2-4-.3-6.8h0c1-3.2,2.1-7.2,3.3-11.5,1.6-5.7,2.9-10.8,3.8-14.6.4-1.9.8-3.4,1-4.4.1-.5.2-.9.2-1.2,0-.3,0-.4,0-.4,0,0,0,.1-.1.4,0,.3-.2.7-.3,1.2-.3,1.1-.6,2.6-1.1,4.4-.9,3.7-2.3,8.9-3.9,14.5-1.2,4.3-2.3,8.2-3.3,11.5h0s0,0,0,0c.2,2.8.3,5.1.4,6.8,0,.8,0,1.4.1,1.9,0,.2,0,.4,0,.5,0,.1,0,.2,0,.2Z" style="fill:#263238;"/><path d="M57.4,149.9s.6-.2,1.5-.4c.9-.2,2.3-.5,3.7-.5,1.5,0,2.8.1,3.8.3,1,.2,1.5.3,1.6.3,0,0-.1,0-.4-.2-.3,0-.6-.2-1.1-.3-1-.2-2.3-.4-3.8-.4-1.5,0-2.9.3-3.8.6-.5.1-.8.3-1.1.4-.3.1-.4.2-.4.2Z" style="fill:#263238;"/><path d="M75.6,139.9s0,.1.1.3c.1.2.3.5.5.8.4.7,1,1.6,1.8,2.8,1.5,2.4,3.7,5.6,6.3,9,2.1,2.8,4.1,5.2,5.8,7.2h.1c0,.1,0,0,0,0,.8-1.7,1.4-3.2,1.9-4.2.2-.5.4-.9.5-1.2.1-.3.2-.4.2-.4,0,0,0,.1-.2.4-.1.3-.3.7-.6,1.1-.5,1-1.2,2.4-2,4.2h.2c-1.6-2-3.6-4.5-5.7-7.2-2.6-3.4-4.8-6.6-6.4-8.9-.8-1.1-1.4-2.1-1.9-2.8-.2-.3-.4-.6-.5-.8-.1-.2-.2-.3-.2-.3Z" style="fill:#263238;"/><path d="M62.4,227.5c0,0-.2-2.8-.6-6.3-.4-3.5-.8-6.3-.8-6.3,0,0,.2,2.8.6,6.3.4,3.5.8,6.3.8,6.3Z" style="fill:#263238;"/><path d="M101.8,226.8c0,0-.4,2.1-.6,4.7-.3,2.6-.4,4.8-.4,4.8,0,0,.4-2.1.6-4.7.3-2.6.4-4.8.4-4.8Z" style="fill:#263238;"/><path d="M72.7,164.7c0-.4.7-.7,1.1-.4h0c.3.3.2,1-.2,1.1s-.9-.3-.9-.7Z" style="fill:#fff;"/><path d="M78.4,150.9c0-.4.7-.7,1.1-.4h0c.3.3.2,1-.2,1.1-.4.2-.9-.3-.9-.7Z" style="fill:#fff;"/><path d="M91.4,162c0-.4.7-.7,1.1-.4h0c.3.3.2,1-.2,1.1-.4.2-.9-.3-.9-.7Z" style="fill:#fff;"/><path d="M105.5,156.4c0-.4.7-.7,1.1-.4h0c.3.3.2,1-.2,1.1-.4.2-.9-.3-.9-.7Z" style="fill:#fff;"/><path d="M108,150.9c0-.4.7-.7,1.1-.4h0c.3.3.2,1-.2,1.1-.4.2-.9-.3-.9-.7Z" style="fill:#fff;"/><path d="M106.9,144.6c0-.4.7-.7,1.1-.4h0c.3.3.2,1-.2,1.1-.4.2-.9-.3-.9-.7Z" style="fill:#fff;"/><path d="M114.7,153.3c0-.4.7-.7,1.1-.4h0c.3.3.2,1-.2,1.1s-.9-.3-.9-.7Z" style="fill:#fff;"/><path d="M96.6,155.8c0-.4.7-.7,1.1-.4h0c.3.3.2,1-.2,1.1-.4.2-.9-.3-.9-.7Z" style="fill:#fff;"/><path d="M111.9,167.2c0-.4.7-.7,1.1-.4h0c.3.3.2,1-.2,1.1s-.9-.3-.9-.7Z" style="fill:#fff;"/><path d="M125.9,199.8c0-.4.7-.7,1.1-.4h0c.3.3.2,1-.2,1.1s-.9-.3-.9-.7Z" style="fill:#fff;"/><path d="M120.9,181c0-.4.7-.7,1.1-.4h0c.3.3.2,1-.2,1.1s-.9-.3-.9-.7Z" style="fill:#fff;"/><path d="M84.1,147.9c0-.4.7-.7,1.1-.4h0c.3.3.2,1-.2,1.1-.4.2-.9-.3-.9-.7Z" style="fill:#fff;"/><path d="M66.6,185.4c0-.4.7-.7,1.1-.4h0c.3.3.2,1-.2,1.1-.4.2-.9-.3-.9-.7Z" style="fill:#fff;"/><path d="M59.7,153.2c0-.4.7-.7,1.1-.4h0c.3.3.2,1-.2,1.1-.4.2-.9-.3-.9-.7Z" style="fill:#fff;"/><path d="M62.4,174.3c0-.4.7-.7,1.1-.4h0c.3.3.2,1-.2,1.1-.4.2-.9-.3-.9-.7Z" style="fill:#fff;"/><path d="M77.7,189.5c0-.4.7-.7,1.1-.4h0c.3.3.2,1-.2,1.1-.4.2-.9-.3-.9-.7Z" style="fill:#fff;"/><path d="M77.1,176.8c0-.4.7-.7,1.1-.4h0c.3.3.2,1-.2,1.1-.4.2-.9-.3-.9-.7Z" style="fill:#fff;"/><path d="M67.8,153.3c0-.4.7-.7,1.1-.4h0c.3.3.2,1-.2,1.1-.4.2-.9-.3-.9-.7Z" style="fill:#fff;"/><path d="M80.3,141c0-.4.7-.7,1.1-.4h0c.3.3.2,1-.2,1.1s-.9-.3-.9-.7Z" style="fill:#fff;"/><path d="M80.8,160.8c0-.4.7-.7,1.1-.4h0c.3.3.2,1-.2,1.1-.4.2-.9-.3-.9-.7Z" style="fill:#fff;"/><path d="M96.7,221.3c0-.4.7-.7,1.1-.4h0c.3.3.2,1-.2,1.1-.4.2-.9-.3-.9-.7Z" style="fill:#fff;"/><path d="M114.9,211.3c0-.4.7-.7,1.1-.4h0c.3.3.2,1-.2,1.1-.4.2-.9-.3-.9-.7Z" style="fill:#fff;"/><path d="M129.6,216.2c0-.4.7-.7,1.1-.4h0c.3.3.2,1-.2,1.1-.4.2-.9-.3-.9-.7Z" style="fill:#fff;"/><path d="M131.2,224.6c0-.4.7-.7,1.1-.4h0c.3.3.2,1-.2,1.1-.4.2-.9-.3-.9-.7Z" style="fill:#fff;"/><path d="M117.4,227.4c0-.4.7-.7,1.1-.4h0c.3.3.2,1-.2,1.1s-.9-.3-.9-.7Z" style="fill:#fff;"/><path d="M122,208.6c0-.4.7-.7,1.1-.4h0c.3.3.2,1-.2,1.1-.4.2-.9-.3-.9-.7Z" style="fill:#fff;"/><path d="M105.1,213.4c0-.4.7-.7,1.1-.4h0c.3.3.2,1-.2,1.1s-.9-.3-.9-.7Z" style="fill:#fff;"/><path d="M64.7,208.6c0-.4.7-.7,1.1-.4h0c.3.3.2,1-.2,1.1-.4.2-.9-.3-.9-.7Z" style="fill:#fff;"/><path d="M89.7,232.5c0-.4.7-.7,1.1-.4h0c.3.3.2,1-.2,1.1-.4.2-.9-.3-.9-.7Z" style="fill:#fff;"/><path d="M79,219.2c0-.4.7-.7,1.1-.4h0c.3.3.2,1-.2,1.1-.4.2-.9-.3-.9-.7Z" style="fill:#fff;"/><path d="M72.7,230c0-.4.7-.7,1.1-.4h0c.3.3.2,1-.2,1.1-.4.2-.9-.3-.9-.7Z" style="fill:#fff;"/><path d="M90.3,173.3c0-.4.7-.7,1.1-.4h0c.3.3.2,1-.2,1.1-.4.2-.9-.3-.9-.7Z" style="fill:#fff;"/><path d="M76,201c0-.4.7-.7,1.1-.4h0c.3.3.2,1-.2,1.1-.4.2-.9-.3-.9-.7Z" style="fill:#fff;"/><path d="M80.6,211.4c0-.4.7-.7,1.1-.4h0c.3.3.2,1-.2,1.1s-.9-.3-.9-.7Z" style="fill:#fff;"/><path d="M65.4,219.8c0-.4.7-.7,1.1-.4h0c.3.3.2,1-.2,1.1-.4.2-.9-.3-.9-.7Z" style="fill:#fff;"/><path d="M107.1,232c0-.4.7-.7,1.1-.4h0c.3.3.2,1-.2,1.1-.4.2-.9-.3-.9-.7Z" style="fill:#fff;"/><path d="M141.9,228.8c0-.4.7-.7,1.1-.4h0c.3.3.2,1-.2,1.1-.4.2-.9-.3-.9-.7Z" style="fill:#fff;"/><path d="M111.3,223.1c0-.4.7-.7,1.1-.4h0c.3.3.2,1-.2,1.1s-.9-.3-.9-.7Z" style="fill:#fff;"/><path d="M140.6,216.9c0-.4.7-.7,1.1-.4h0c.3.3.2,1-.2,1.1-.4.2-.9-.3-.9-.7Z" style="fill:#fff;"/><path d="M91.6,197.1c0-.4.7-.7,1.1-.4h0c.3.3.2,1-.2,1.1s-.9-.3-.9-.7Z" style="fill:#fff;"/><path d="M101.9,167.2c0-.4.7-.7,1.1-.4h0c.3.3.2,1-.2,1.1-.4.2-.9-.3-.9-.7Z" style="fill:#fff;"/><path d="M104.4,193.2c0-.4.7-.7,1.1-.4h0c.3.3.2,1-.2,1.1s-.9-.3-.9-.7Z" style="fill:#fff;"/><path d="M108.6,184.7c0-.4.7-.7,1.1-.4h0c.3.3.2,1-.2,1.1-.4.2-.9-.3-.9-.7Z" style="fill:#fff;"/><path d="M90.1,211.3c0-.4.7-.7,1.1-.4h0c.3.3.2,1-.2,1.1-.4.2-.9-.3-.9-.7Z" style="fill:#fff;"/><path d="M103.2,206.1c0-.4.7-.7,1.1-.4h0c.3.3.2,1-.2,1.1-.4.2-.9-.3-.9-.7Z" style="fill:#fff;"/><path d="M97.6,177.4c0-.4.7-.7,1.1-.4h0c.3.3.2,1-.2,1.1-.4.2-.9-.3-.9-.7Z" style="fill:#fff;"/><path d="M117.4,197.7c0-.4.7-.7,1.1-.4h0c.3.3.2,1-.2,1.1s-.9-.3-.9-.7Z" style="fill:#fff;"/><path d="M86.8,188.4c0-.4.7-.7,1.1-.4h0c.3.3.2,1-.2,1.1-.4.2-.9-.3-.9-.7Z" style="fill:#fff;"/><path d="M58.4,164.1c0-.4.7-.7,1.1-.4h0c.3.3.2,1-.2,1.1-.4.2-.9-.3-.9-.7Z" style="fill:#fff;"/><path d="M70,145.6c0-.4.7-.7,1.1-.4h0c.3.3.2,1-.2,1.1-.4.2-.9-.3-.9-.7Z" style="fill:#fff;"/><path d="M92.3,147.9c0-.4.7-.7,1.1-.4h0c.3.3.2,1-.2,1.1-.4.2-.9-.3-.9-.7Z" style="fill:#fff;"/><path d="M115.1,81.8c4.3,2.7,6,8.4,5.2,11.8-.4,1.7-1.2,3.4-.8,5.1.3,1.5,1.4,2.7,2.2,4,2.7,4.3,2.2,10.3-1.1,14.1-3.3,3.8-9.2,5.1-13.8,3.1" style="fill:#263238;"/><path d="M117.6,104.1c10.4-22.9-14.4-34.4-27.9-30.6-12.7,3.6-18.1,9.9-20.2,18.4-2.1,8.5-2,17.7,1.3,25.8,1.6,4,4.6,8,8.9,8.5" style="fill:#263238;"/><path d="M105.4,160c.2-10.9.3-26,.3-25.9,0,0,9.4-1.6,11.4-13.8,1-6.1.7-16.1.1-24.3-.5-7.4-5.3-16.4-12.7-15.6l-22.9,5.8c-2.2.2-3.9,2.1-3.9,4.4h0l1.5,47.4" style="fill:#fbbd9d;"/><path d="M113.1,103.5c0,.8-.6,1.5-1.5,1.6-.9,0-1.6-.6-1.6-1.4,0-.8.6-1.5,1.5-1.6.9,0,1.6.6,1.6,1.4Z" style="fill:#263238;"/><path d="M96.8,103.5c0,.8-.6,1.5-1.5,1.6-.9,0-1.6-.6-1.6-1.4,0-.8.6-1.5,1.5-1.6.9,0,1.6.6,1.6,1.4Z" style="fill:#263238;"/><path d="M114.8,100.6c-.2.2-1.4-.6-3.1-.6-1.7,0-2.9.9-3.1.7,0,0,0-.5.6-.9.5-.4,1.4-.8,2.5-.9,1.1,0,2,.3,2.5.7.5.4.7.7.6.8Z" style="fill:#263238;"/><path d="M98.7,101c-.2.2-1.4-.7-3.1-.7-1.7,0-2.9.8-3.1.6,0,0,.1-.5.7-.9.5-.4,1.4-.8,2.5-.8,1.1,0,1.9.4,2.5.8.5.4.7.8.6.9Z" style="fill:#263238;"/><path d="M104.5,114.1c0,0,1-.3,2.8-.5.4,0,.8-.1.9-.4.1-.3,0-.8-.3-1.3-.4-1-.8-2.1-1.3-3.3-1.8-4.7-3.1-8.5-2.9-8.6.2,0,1.8,3.7,3.6,8.4.4,1.2.8,2.3,1.2,3.3.2.5.4,1,.2,1.7-.1.3-.4.6-.7.6-.3,0-.5,0-.7.1-1.7,0-2.8.1-2.8,0Z" style="fill:#263238;"/><path d="M105.7,134.1s-8.3.5-16.4-4.4c0,0,4.2,8.5,16.4,7.4v-3Z" style="fill:#ec996f;"/><path d="M99.1,98.6c-.2.5-1.9.2-3.8.5-2,.2-3.6.8-3.9.4-.1-.2.2-.6.8-1.1.6-.4,1.7-.9,2.9-1,1.2-.1,2.3,0,3,.4.7.3,1.1.7,1,.9Z" style="fill:#263238;"/><path d="M114.4,96.4c-.3.4-1.5,0-2.9,0-1.4,0-2.6.3-2.9-.1-.1-.2,0-.6.6-.9.5-.4,1.4-.7,2.3-.6,1,0,1.8.4,2.3.8.5.4.7.8.5,1Z" style="fill:#263238;"/><path d="M79.8,106.7c-.2,0-6.6-2.9-6.6,4.4,0,7.3,7.3,5.9,7.3,5.7,0-.2-.7-10.1-.7-10.1Z" style="fill:#fbbd9d;"/><path d="M78.3,114s-.1,0-.3.2c-.2,0-.6.2-1,0-.8-.3-1.4-1.5-1.4-2.9,0-.7.1-1.3.4-1.8.2-.5.6-.9,1-1,.4,0,.7.2.8.4,0,.2,0,.4,0,.4,0,0,.2-.1.1-.4,0-.1-.1-.3-.3-.5-.2-.1-.4-.2-.7-.2-.6,0-1.1.5-1.3,1.1-.3.6-.5,1.3-.5,2,0,1.5.8,2.9,1.8,3.2.5.1.9,0,1.2-.2.2-.2.3-.3.2-.4Z" style="fill:#ec996f;"/><path d="M107,76.7c4.1,2.1,5.8,10.5,4.1,14.8-1.7,4.3-6.3,6.4-10.7,7.4-4.5,1-8.9,1.1-13.3-.1-.3,3-2.1,6-5,6.8-3.8,1-7.7-2.5-8.5-6.3-.9-3.9.4-7.9,1.7-11.6" style="fill:#263238;"/><path d="M74.5,103.4s.2.2.6.5c.4.3.9.8,1.7,1.3.7.5,1.7,1,2.9,1.4,1.1.3,2.6.5,3.9,0,1.3-.5,2.3-1.5,3-2.6.6-1,.9-2.1,1.1-3,.1-.9.1-1.6.1-2.1,0-.5,0-.8,0-.8,0,0,0,1.1-.3,2.9-.2.9-.5,1.9-1.1,2.8-.6,1-1.5,1.9-2.8,2.4-1.2.5-2.5.4-3.6,0-1.1-.3-2-.8-2.8-1.3-1.5-.9-2.4-1.6-2.4-1.6Z" style="fill:#263238;"/><path d="M104,118.8c-.2.6-.5,1.3-.9,1.8-.4.5-1,.9-1.7,1-.7,0-1.4-.4-1.8-1-.4-.6-.5-1.3-.5-2.1,0-.6.3-1.4,1-1.5.3,0,.5,0,.8.2,1.1.5,2.3.9,3.4,1.4" style="fill:#ec996f;"/><path d="M102.7,121.6c0-.1-.8.2-1.8-.2-.5-.2-1.1-.6-1.4-1.2-.3-.6-.4-1.5,0-2.2,0-.2.2-.4.3-.5.1-.1.1-.1.3-.1.1,0,.4.1.5.2.2,0,.4.2.6.2.7.3,1.4.5,1.9.8,1.1.4,1.8.6,1.8.6,0,0-.6-.4-1.7-.9-.5-.3-1.2-.6-1.9-.9-.2,0-.4-.2-.5-.2-.2,0-.3-.2-.6-.3-.1,0-.3,0-.5,0-.2,0-.3.2-.4.3-.2.2-.3.4-.4.6-.4.9-.3,1.9.1,2.7.4.8,1.1,1.2,1.7,1.4.6.2,1.1.1,1.5,0,.3,0,.5-.2.5-.2Z" style="fill:#263238;"/><path d="M71.6,101.7c.8,0,6.8.7,6.3,12-.4,10.5-7.8,8.2-10.2,4.3-2.2-3.8-3.5-15.8,3.9-16.3Z" style="fill:#455b64;"/><path d="M67.8,103s0-.1,0-.3c0-.2,0-.5,0-.9,0-.8,0-1.9,0-3.2,0-2.8.1-6.6.2-11.1h-.1c1,.1,2.1.1,3.1.1h-.1c0,.7,0,1.6,0,2.5-.1,4.2-.2,8.2-.3,11.5h0c0,0,0,.1,0,.1,1.4.3,2.5,1.1,3.2,2.1.7.9,1.1,1.9,1.3,2.7.2.8.3,1.5.3,1.9,0,.2,0,.4,0,.5,0,.1,0,.2,0,.2,0,0,0,0,0-.2,0-.1,0-.3,0-.5,0-.5,0-1.1-.3-2-.2-.8-.5-1.8-1.3-2.8-.7-1-1.9-1.8-3.3-2.2h0c0-3.2.2-7.1.3-11.4,0-.9,0-1.8,0-2.6h0c0-.1-.1-.1-.1-.1-1.1,0-2.1,0-3.1,0h-.1s0,.1,0,.1c0,4.4,0,8.3-.1,11.1,0,1.4,0,2.4,0,3.2,0,.4,0,.6,0,.9,0,.2,0,.3,0,.3Z" style="fill:#455b64;"/><path d="M71.6,87.6s3.2-7.4,10.7-11.1c3.7-1.8,6.4-2.7,9.1-3.4,0,0-4.4-1-11.6,2.1-3.2,1.4-6.5,3.3-8.7,6.1-1.4,1.8-3.1,5.3-3.1,6.2h3.5Z" style="fill:#455b64;"/><path d="M91.2,177.5s0,0-.1-.1c0,0-.2-.2-.4-.4-.4-.4-.9-.9-1.5-1.7-.6-.8-1.3-1.8-2-3-.7-1.2-1.4-2.7-2.2-4.3-1.6-3.2-3.5-7.2-5.4-11.7-1-2.3-1.9-4.7-2.9-7.2-.2-.6-.5-1.3-.7-1.9-.2-.6-.5-1.3-.9-1.9-.4-.6-.9-1.2-1.6-1.5-.3-.2-.7-.3-1.1-.3-.2,0-.4,0-.6.2-.2.1-.3.3-.4.5h0s0,0,0,0c0,.2.1.5.3.7.2.2.4.4.7.4.5.1,1.1,0,1.5-.3,1-.4,1.6-1.6,1.3-2.6-.1-.5-.4-1-.9-1.3-.4-.3-1-.5-1.5-.4-.5,0-1.1.3-1.4.8-.2.3-.1.6,0,.9.2.2.4.4.7.5.9.4,2,0,2.6-.7.3-.4.4-.9.4-1.4,0-.5-.3-.9-.6-1.3-.3-.4-.7-.6-1.2-.7-.5,0-1,0-1.3.5-.2.2-.3.4-.3.7,0,.3.1.5.3.7.4.3.9.4,1.3.4.5-.1.8-.5,1.1-.9.2-.4.3-.8.4-1.3.1-.8,0-1.7-.3-2.5-.2-.4-.5-.7-.9-.9-.4-.2-.9-.1-1.3,0-.4.2-.8.5-.8,1,0,.5.3.9.7,1.1.4.2.9.2,1.3,0,.4-.2.6-.6.8-1,.1-.4.1-.8,0-1.2,0-.4-.1-.8-.3-1.1-.1-.4-.3-.7-.7-1-.3-.2-.6-.4-1-.5-.2,0-.4,0-.6,0-.2,0-.4.2-.5.3-.1.1-.2.3-.3.5,0,.2-.1.4,0,.6.2.4.6.5,1,.5.4,0,.7-.1,1-.3.6-.4,1-1.1,1.1-1.7.1-.7,0-1.4-.2-1.9-.2-.3-.3-.6-.6-.7-.3-.2-.6-.3-.9-.4-.3,0-.6,0-.9.1-.3.2-.5.5-.5.8,0,.6.5,1.2,1,1.3.6.2,1.1-.2,1.5-.6.3-.4.5-.9.6-1.4,0-1-.3-1.8-.5-2.6-.2-.8-.4-1.5-.6-2.1-.4-1.3-.7-2.3-.8-3,0-.3-.2-.6-.2-.8,0-.2,0-.3,0-.3,0,0,0,0,0,.3,0,.2.1.4.2.8.2.7.5,1.7.8,3,.2.6.4,1.4.6,2.1.2.8.6,1.6.5,2.6,0,.5-.2.9-.5,1.3-.3.4-.8.6-1.3.5-.5-.1-.9-.6-.9-1.1,0-.3.2-.5.4-.6.2-.1.5-.1.8-.1.3,0,.6.2.8.3.2.2.4.4.5.7.3.5.3,1.2.2,1.8-.1.6-.5,1.2-1,1.6-.3.2-.6.3-.9.3-.3,0-.7-.1-.8-.4-.1-.3,0-.6.3-.8.1-.1.3-.2.4-.3.1,0,.3,0,.5,0,.7.2,1.3.6,1.5,1.3.1.3.2.7.2,1.1,0,.4,0,.7,0,1.1-.1.3-.3.6-.7.8-.3.2-.7.2-1,0-.3-.1-.6-.5-.5-.8,0-.3.3-.6.6-.8.3-.1.7-.2,1.1,0,.3.1.6.5.8.8.3.7.4,1.6.3,2.4,0,.4-.2.8-.4,1.2-.2.3-.5.6-.9.7-.4,0-.8,0-1.1-.3-.3-.2-.3-.7,0-1,.3-.3.7-.4,1.1-.4.4,0,.8.3,1,.6.5.6.7,1.6.2,2.3-.5.7-1.5,1-2.3.6-.2,0-.4-.2-.6-.4-.1-.2-.1-.4,0-.6.2-.4.7-.6,1.2-.6,1,0,2,.6,2.1,1.5.2.9-.3,2-1.2,2.3-.4.2-.9.3-1.3.3-.4,0-.7-.5-.8-1h0c.1-.2.4-.4.7-.5.3,0,.7,0,1,.3.6.3,1.1.8,1.5,1.4.4.6.6,1.2.9,1.9.2.6.5,1.3.7,1.9,1,2.5,2,4.9,2.9,7.2,1.9,4.5,3.8,8.4,5.4,11.7.8,1.6,1.6,3.1,2.3,4.3.7,1.2,1.4,2.2,2,3,1.2,1.6,2.1,2.3,2.1,2.3Z" style="fill:#fff;"/><path d="M65,96.4s0-.8.5-2c.5-1.2,1.7-2.9,3.9-3.9,1.1-.5,2.4-.8,3.8-.9,1.4,0,2.9,0,4.5.3,3.1.6,6.4,1.9,10.1,2.5,1.8.2,3.7.2,5.4,0,1.7-.2,3.3-.7,4.8-1.3,3-1.2,5.4-2.9,7-4.7,1.7-1.7,2.8-3.4,3.4-4.6.2-.3.3-.6.4-.8.1-.2.2-.4.3-.6,0-.2.1-.3.2-.4,0,0,0-.1,0-.1,0,0,0,0,0,.1,0,0-.1.2-.2.4,0,.2-.2.4-.3.6-.1.2-.2.5-.4.8-.6,1.2-1.8,2.8-3.5,4.5-1.7,1.7-4.1,3.4-7,4.6-1.5.6-3.1,1-4.8,1.3-1.7.2-3.5.2-5.3,0-3.6-.5-6.9-1.9-10-2.4-1.6-.3-3.1-.4-4.5-.3-1.4.1-2.7.4-3.8,1-2.2,1.1-3.4,2.8-3.9,4-.3.6-.3,1.2-.4,1.5,0,.2,0,.3,0,.4,0,0,0,.1,0,.1Z" style="fill:#455b64;"/><path d="M73.2,84.7s.1,0,.4,0c.3,0,.6,0,1.1.2,1,.2,2.4.5,4.1.9,1.7.4,3.8.9,6.1,1.2,2.3.2,4.9.2,7.6-.2,2.7-.4,5.2-1.1,7.3-2,2.2-.9,4-1.9,5.5-2.9.7-.5,1.4-1,1.9-1.4.5-.4,1-.8,1.4-1.1.3-.3.6-.6.8-.8.2-.2.3-.3.3-.3s-.1,0-.3.2c-.2.2-.5.4-.9.7-.4.3-.9.7-1.4,1.1-.6.4-1.2.9-1.9,1.3-2.9,1.9-7.4,4-12.8,4.7-2.6.4-5.2.4-7.5.2-2.3-.2-4.3-.7-6.1-1.1-1.7-.4-3.1-.7-4.1-.8-.5,0-.9-.1-1.1-.1-.3,0-.4,0-.4,0Z" style="fill:#455b64;"/><path d="M72.4,121.1s0,0,.2,0c.1,0,.3-.1.6-.3.5-.3,1.1-.8,1.6-1.7.5-.9.8-2,1-3.3.1-1.3.1-2.7,0-4.2-.1-1.5-.4-2.9-.7-4.2-.3-1.3-.7-2.4-1.2-3.2-.5-.9-1.1-1.4-1.6-1.7-.2-.1-.4-.2-.6-.3-.1,0-.2,0-.2,0,0,0,.3.1.7.4.4.3,1,.9,1.5,1.7.5.8.8,1.9,1.1,3.2.3,1.2.5,2.6.7,4.1.1,1.5.1,2.9,0,4.2-.1,1.3-.4,2.4-.9,3.2-.5.8-1,1.4-1.5,1.7-.4.3-.7.4-.7.4Z" style="fill:#263238;"/><rect x="94.9" y="119.9" width="8.8" height="3.3" rx="1.7" ry="1.7" transform="translate(173.4 260) rotate(-168.9)" style="fill:#455b64;"/><path d="M95.8,120.2l-25.8-8.1c-.6-.2-1.3.2-1.5.8h0c-.2.7.2,1.4.8,1.5l26.4,7.1v-1.4Z" style="fill:#455b64;"/><path d="M76.7,116.7s-.3-.1-.9-.3c-.6-.2-1.4-.4-2.4-.7-1-.3-2.2-.6-3.5-1-.3-.1-.6-.3-.8-.5-.2-.2-.4-.6-.4-.9,0-.3.2-.6.5-.7.3-.1.7,0,1.1,0,3,1,5.7,1.8,7.7,2.5,1,.3,1.8.5,2.4.7.6.2.9.2.9.2,0,0-.3-.1-.8-.3-.6-.2-1.4-.5-2.3-.8-2-.7-4.7-1.6-7.7-2.6-.4,0-.8-.2-1.2,0-.4.1-.7.6-.7,1,0,.4.2.8.4,1.1.3.3.6.5.9.6,1.3.4,2.5.7,3.5,1,1,.3,1.8.5,2.4.6.6.1.9.2.9.2Z" style="fill:#263238;"/><path d="M118.9,96.9c-.9,3.1,2.3,5.8,3.4,8.8,1.1,2.9.2,6.2-1.2,9s-3.1,5.5-3.7,8.5c-1.7,7.5,5.1,15.6,3.8,23.2-.5,2.8-1.6,5.6-2.5,8.3-1,2.6-.9,5,0,7.7,1.5,4.3,4,6.4,5.7,10.6.9,2.2.8,4.6.8,6.9s0,4.8,1,6.9c1,2.1,3.4,3.7,5.7,3.1-2.4,2.8-6.7,3.6-10,1.9-3-1.6-4.6-4.8-6.1-7.9-6.9-14.8-10.5-16-10.4-32.4,0-1.1.2-17.4.2-17.4,0,0,2.6-.7,4.1-1.7,7.7-5.3,8-14.8,7.9-22.1" style="fill:#263238;"/><path d="M103.5,146.4v6.2s4.7,24.2,6.2,37.6c1.4,13.4,1.7,17,1.7,17,0,0-3.4,5.3-10.5-3.7-7.1-9-8.4-10.4-11.2-10.6,0,0,3.5-37.7,3.3-39.2-.2-1.4-1.3-2.7-1.3-2.7l11.8-4.6Z" style="fill:#fbbd9d;"/><path d="M94.2,132.5s7.7,10.3,8.4,11.7c.6,1.4.9,2.2.9,2.2l-11.8,4.6-11.5-12.6-4.3-11.2,1.3-13.3s2.5-.2,3,2.1.3,4.3.3,4.3l3.5-2.8,5.7-1.7s1.3,2.2-.9,3.3c-2.2,1.1-2.8,1.1-2.8,1.1l-2,3.5.9,3.9,4-3.8c.8-.8,2-.8,2.9-.2l2.6,1.9,2.4-1.1,4.7,4.2,1.9,1.7s-1.3,2.4-3.8,1.3l-2.5-1.1-3,2.2Z" style="fill:#fbbd9d;"/><path d="M103.5,148.5s0-.1,0-.3c0-.2,0-.5,0-1,0-.4-.1-.9-.3-1.5-.2-.6-.4-1.3-.8-2-1.8-2.7-4.6-6.5-8-11.2h0c.9-.5,2-1.3,3-2.1h-.1c.5.2,1,.5,1.6.7.5.2,1.1.5,1.7.6.6.1,1.3,0,1.8-.2.6-.3,1-.8,1.4-1.3h0c0,0,0-.1,0-.1-2-1.9-4.3-3.8-6.6-5.9h0c0,0,0,0,0,0-.7.4-1.4.8-2.1,1.2h.1c-.8-.5-1.6-1.1-2.5-1.6-.4-.3-.8-.6-1.3-.8-.5-.3-1.1-.2-1.6.1-1.6,1.3-3.2,2.7-4.8,4.1h.2c-.3-1.1-.5-2.4-.8-3.6h0c.6-1,1.3-2.2,2-3.4h-.1c.4,0,.7,0,1-.2.3-.1.6-.2.9-.4.3-.1.6-.3.9-.4.2,0,.3-.2.5-.3.1-.1.3-.2.4-.4.4-.4.6-.9.5-1.5,0-.5-.2-1-.4-1.5h0c0,0-.1,0-.1,0-1.9.6-3.8,1.2-5.7,1.7h0s0,0,0,0c-1.2,1-2.4,1.9-3.5,2.8h.2c0-1.3,0-2.7-.3-4.1-.1-.7-.5-1.4-1.2-1.7-.6-.4-1.3-.5-2-.5h-.1s0,.1,0,.1c-.4,4.7-.9,9.2-1.2,13.3h0s0,0,0,0c1.6,4.1,3,7.9,4.3,11.2h0s0,0,0,0c3.8,4.1,6.8,7.4,9,9.7,1.1,1.1,1.9,2,2.4,2.6.3.3.5.5.6.7.1.2.2.2.2.2,0,0,0,0-.2-.2-.1-.2-.3-.4-.6-.7-.6-.6-1.4-1.5-2.4-2.7-2.1-2.3-5.1-5.7-8.9-9.8h0c-1.3-3.3-2.7-7.1-4.2-11.2h0c.4-4.1.8-8.5,1.3-13.2h-.1c.6.1,1.3.2,1.8.6.6.3.9.9,1,1.6.3,1.3.4,2.7.3,4.1v.3s.2-.2.2-.2c1.2-.9,2.3-1.9,3.5-2.8h0c1.9-.5,3.8-1.1,5.7-1.7h-.2c.2.3.4.8.4,1.3,0,.5-.2.9-.5,1.3,0,.1-.2.2-.4.3-.1,0-.3.2-.4.2-.3.1-.6.3-.9.4-.6.3-1.2.5-1.8.6h0s0,0,0,0c-.7,1.2-1.4,2.4-2,3.5h0s0,.1,0,.1c.3,1.3.6,2.5.8,3.7v.2c0,0,.2-.1.2-.1,1.6-1.4,3.2-2.7,4.8-4,.4-.3.9-.3,1.3-.1.4.2.8.5,1.2.8.8.5,1.7,1.1,2.5,1.6h0s0,0,0,0c.7-.4,1.5-.9,2.1-1.2h-.2c2.3,2,4.6,4,6.6,5.9h0c-.3.4-.8.8-1.3,1.1-.5.3-1.1.3-1.7.2-.6-.1-1.1-.4-1.6-.6-.5-.2-1.1-.5-1.6-.7h0s0,0,0,0c-1,.8-2.1,1.5-3,2.2h0c0,0,0,.1,0,.1,3.5,4.7,6.3,8.5,8.1,11.1.5.7.7,1.4.8,2,.2.6.3,1.1.3,1.5,0,.4,0,.7.1,1,0,.2,0,.3,0,.3Z" style="fill:#ec996f;"/><path d="M88.8,134.9c0,0-.2-.8-.2-2.2,0-.7,0-1.5.4-2.3.4-.8,1.1-1.5,1.9-2.1,1.6-1.3,3.2-2.3,4.4-3,.5-.3,1-.6,1.4-.8.3-.2.5-.3.5-.3,0,0-.2,0-.6.2-.3.2-.8.4-1.4.7-1.2.7-2.8,1.7-4.5,2.9-.8.6-1.6,1.4-2,2.2-.4.9-.4,1.7-.3,2.4,0,.7.2,1.2.3,1.6,0,.4.2.6.2.6Z" style="fill:#ec996f;"/><path d="M80.6,130s0-.5-.2-1.4c-.1-.9-.3-2.1-.2-3.4,0-1.3.2-2.6.3-3.4.1-.9.3-1.4.2-1.4,0,0-.2.5-.4,1.4-.2.9-.4,2.1-.4,3.5,0,1.4.1,2.6.3,3.5.2.9.4,1.4.4,1.4Z" style="fill:#ec996f;"/><path d="M133.3,89.7l5.7-10c-2.5-4.1-4-8.9-4-14,0-14.8,12-26.7,26.7-26.7s26.7,12,26.7,26.7-12,26.7-26.7,26.7-11.8-2.1-16.4-5.6h0s-12.1,2.9-12.1,2.9Z" style="fill:#fff;"/><path d="M133.3,89.7c.5-.1,4.4-1,12.1-2.8h.1s0-.1,0-.1h0s0,0,0,0c1.5,1.2,3.3,2.3,5.5,3.3,2.1,1,4.6,1.7,7.3,2.1,1.4.2,2.8.3,4.2.2.7,0,1.5,0,2.2-.1.7-.1,1.5-.2,2.3-.3,3-.6,6.1-1.7,9-3.5,2.9-1.8,5.5-4.2,7.7-7.2,2.1-3,3.8-6.5,4.5-10.3.8-3.8.7-7.9-.3-11.9-1-3.9-2.9-7.8-5.7-11l-1.1-1.2c-.4-.4-.8-.7-1.2-1.1-.4-.3-.8-.7-1.2-1.1-.4-.3-.9-.6-1.3-1-.4-.3-.9-.6-1.3-.9-.5-.3-.9-.5-1.4-.8-.5-.2-.9-.5-1.4-.7-.5-.2-.9-.5-1.4-.6-3.9-1.5-8-2.1-12-1.8-4,.3-7.7,1.4-11,3.2-3.3,1.8-6,4.2-8.1,6.9-2.1,2.7-3.6,5.7-4.6,8.7-.9,3-1.2,5.9-1.2,8.7,0,2.7.6,5.3,1.3,7.5.7,2.2,1.7,4.1,2.7,5.7h0c-3.6,6.4-5.4,9.5-5.6,10,.2-.4,2.1-3.6,5.7-10h0s0,0,0,0c-1-1.6-1.9-3.5-2.6-5.7-.7-2.2-1.2-4.7-1.3-7.5,0-2.7.3-5.7,1.2-8.6.9-2.9,2.4-5.9,4.5-8.6,2.1-2.7,4.8-5.1,8.1-6.9,3.2-1.8,7-2.9,10.9-3.2,3.9-.3,8,.3,11.8,1.8.5.2.9.4,1.4.6.5.2.9.5,1.4.7.4.3.9.5,1.3.8.4.3.9.5,1.3.9.4.3.8.6,1.3.9.4.3.8.7,1.2,1,.4.4.8.7,1.2,1.1l1.1,1.2c2.8,3.1,4.7,7,5.7,10.9,1,3.9,1.1,8,.3,11.8-.7,3.8-2.3,7.3-4.5,10.2-2.1,2.9-4.8,5.4-7.6,7.1-2.9,1.8-5.9,2.9-8.9,3.5-.8.1-1.5.2-2.2.3-.7,0-1.5,0-2.2.1-1.4,0-2.9,0-4.2-.2-2.7-.3-5.1-1.1-7.3-2-2.1-1-4-2.1-5.5-3.3l-.4-.3.3.4h0s0,0,0,0c-7.7,1.9-11.6,2.8-12.1,2.9Z" style="fill:#263238;"/><path d="M167.6,65.7c0,1.2,1,2.2,2.2,2.2s2.2-1,2.2-2.2-1-2.2-2.2-2.2-2.2,1-2.2,2.2Z" style="fill:#263238;"/><path d="M158.9,65.7c0,1.2,1,2.2,2.2,2.2s2.2-1,2.2-2.2-1-2.2-2.2-2.2-2.2,1-2.2,2.2Z" style="fill:#263238;"/><path d="M150.2,64.6c-.6,1-.2,2.4.8,3,1,.6,2.4.2,3-.8.6-1,.2-2.4-.8-3-1-.6-2.4-.2-3,.8Z" style="fill:#263238;"/><path d="M26.4,236.2c0,0,55.3.1,123.4.1,68.2,0,123.4,0,123.4-.1s-55.3-.1-123.4-.1c-68.2,0-123.4,0-123.4.1Z" style="fill:#263238;"/><path d="M96.3,236.3s-3.7-6.3-11.6-6.6-11.9,6.6-11.9,6.6h23.5Z" style="fill:#455b64;"/><path d="M81.1,236.1c0,0,0-.5.2-1.2.2-.7.5-1.7,1.1-2.6.6-.9,1.4-1.6,2-2,.6-.4,1-.6,1-.7,0,0-.5,0-1.1.4-.7.4-1.5,1.1-2.2,2-.7,1-1,2-1.1,2.8-.1.8,0,1.2,0,1.2Z" style="fill:#263238;"/><path d="M101.2,236h0c0-1.7,1.4-3,3-3h67.6c1.7,0,3,1.4,3,3h-73.7Z" style="fill:#455b64;"/><path d="M230.6,117.6c0,1.4-1.1,86.3-1.1,86.3l-63.1,15.2h-5.2s3.3-118.5,3.3-118.5h4.7s61.3,17,61.3,17Z" style="fill:#263238;"/><path d="M217.3,200.4l19.5,35.8h-17.9c3.2-.3-28.3,0-28.3,0l28.3-7.5-8.8-20.1.8-8.2h6.4Z" style="fill:#263238;"/><polygon points="216.9 207 219 140.2 199.8 138.4 197.4 209.7 204.3 210 216.9 207" style="fill:#263238;"/><path d="M194.7,212.3s0-.1,0-.3c0-.2,0-.5,0-.9,0-.8,0-2,0-3.5,0-3.1,0-7.6,0-13.3,0-11.3,0-27.3,0-45.8h-.1c7.1.1,14.8.1,22.7.1h-.1c0,.8,0,1.9,0,2.9,0,18.1,0,34.9,0,48.9h0s0,0,0,0c5.9,10.8,10.8,19.7,14.2,26,1.7,3.1,3.1,5.6,4,7.2.5.8.8,1.5,1.1,1.9.2.4.4.6.4.6,0,0-.1-.2-.3-.7-.2-.4-.6-1.1-1-1.9-.9-1.7-2.2-4.1-3.9-7.3-3.4-6.3-8.2-15.2-14.1-26h0c0-13.9,0-30.8,0-48.8,0-1.1,0-2.1,0-3.1h0c0-.1-.1-.1-.1-.1-7.9,0-15.6,0-22.7,0h-.1s0,.1,0,.1c0,18.5,0,34.5,0,45.8,0,5.7,0,10.2,0,13.3,0,1.5,0,2.7,0,3.5,0,.4,0,.7,0,.9,0,.2,0,.3,0,.3Z" style="fill:#455b64;"/><path d="M210.1,208.6c0,0,2.6,6.3,6.1,14,3.4,7.7,6.3,14,6.3,13.9,0,0-2.6-6.3-6.1-14-3.4-7.7-6.3-14-6.3-13.9Z" style="fill:#455b64;"/><path d="M166.5,219.1s0-.1,0-.3c0-.2,0-.5,0-.9,0-.8,0-2,0-3.4,0-3,0-7.3.2-12.7.2-10.7.7-25.5,1.3-41.8.6-16.3,1-31.1,1.2-41.8,0-5.4.1-9.7.1-12.7,0-1.5,0-2.6,0-3.4,0-.4,0-.7,0-.9,0-.2,0-.3,0-.3,0,0,0,.1,0,.3,0,.2,0,.5,0,.9,0,.8,0,2,0,3.4,0,3,0,7.3-.2,12.7-.2,10.7-.7,25.5-1.3,41.8-.6,16.3-1,31.1-1.2,41.8,0,5.4-.1,9.7-.1,12.7,0,1.5,0,2.6,0,3.4,0,.4,0,.7,0,.9,0,.2,0,.3,0,.3Z" style="fill:#455b64;"/><path d="M198.2,147.9c0,0-.1,14.2-.1,31.7,0,17.5,0,31.7.1,31.7s.1-14.2.1-31.7c0-17.5,0-31.7-.1-31.7Z" style="fill:#455b64;"/><path d="M232.1,230.6s.1-.1.3-.4c0-.1.2-.3.3-.5.1-.2.3-.4.4-.7.6-1,1.3-2.6,1.7-4.6.5-2,.6-4.5.3-7.3-.3-2.7-1-5.7-2.4-8.6-.7-1.5-1.5-2.8-2.5-3.9-.2-.3-.5-.6-.7-.8-.2-.3-.5-.5-.7-.8-.5-.5-1-1-1.6-1.4-1-.9-2.1-1.6-3.2-2.3-.5-.3-1-.6-1.6-.9-.5-.2-1-.5-1.5-.7-1.9-.8-3.6-1.2-4.7-1.3-.6,0-1,0-1.3,0-.3,0-.5,0-.5,0s.2,0,.5,0c.3,0,.8,0,1.3.1,1.1.1,2.8.5,4.7,1.3.5.2,1,.5,1.5.7.5.3,1,.6,1.5.9,1,.7,2.1,1.4,3.1,2.3.5.4,1,.9,1.5,1.4.2.3.5.5.7.8.3.3.5.5.7.8.9,1.1,1.8,2.4,2.4,3.9,1.3,2.9,2,5.8,2.4,8.5.3,2.7.2,5.2-.3,7.2-.4,2-1.1,3.6-1.6,4.6-.1.3-.2.5-.4.7-.1.2-.2.3-.3.5-.2.3-.2.4-.2.4Z" style="fill:#455b64;"/></svg>