<?xml version="1.0" encoding="UTF-8"?><svg id="Layer_1" xmlns="http://www.w3.org/2000/svg" viewBox="0 0 310.9 274.6"><rect x="120.1" y="35.5" width="60.4" height="54.7" style="fill:#fafbfb;"/><path d="M180.5,90.3s0-.4,0-1c0-.7,0-1.7,0-2.9,0-2.6,0-6.3,0-11.1,0-9.6,0-23.2,0-39.7h.1c-17.4.1-38.2.2-60.4.2h0l.2-.2c0,19.9,0,38.7,0,54.7h-.1c18-.1,33.1,0,43.7,0,5.3,0,9.5,0,12.3,0,1.4,0,2.5,0,3.3,0,.4,0,.6,0,.8,0,.2,0,.3,0,.3,0,0,0,0,0-.3,0-.2,0-.5,0-.8,0-.7,0-1.8,0-3.2,0-2.8,0-7,0-12.3,0-10.6,0-25.7,0-43.8,0h-.1s0-.1,0-.1c0-16.1,0-34.8,0-54.7v-.2h.2c22.2,0,43,0,60.4,0h.1,0c0,16.6,0,30.3,0,39.9,0,4.8,0,8.5,0,11.1,0,1.3,0,2.2,0,2.9,0,.7,0,1,0,1Z" style="fill:#e0e0e0;"/><rect x="127.1" y="55" width="2.8" height="2.8" style="fill:#e0e0e0;"/><rect x="134" y="55" width="2.8" height="2.8" style="fill:#e0e0e0;"/><rect x="141.1" y="54.9" width="2.8" height="2.8" style="fill:#e0e0e0;"/><rect x="147.9" y="55" width="2.8" height="2.8" style="fill:#e0e0e0;"/><rect x="154.8" y="55" width="2.8" height="2.8" style="fill:#e0e0e0;"/><rect x="161.7" y="55" width="2.8" height="2.8" style="fill:#e0e0e0;"/><rect x="168.6" y="55" width="2.8" height="2.8" style="fill:#ebebeb;"/><rect x="127.1" y="61" width="2.8" height="2.8" style="fill:#ebebeb;"/><rect x="134" y="61" width="2.8" height="2.8" style="fill:#e0e0e0;"/><rect x="141" y="61" width="2.8" height="2.8" style="fill:#ebebeb;"/><rect x="147.9" y="61" width="2.8" height="2.8" style="fill:#e0e0e0;"/><rect x="154.8" y="61" width="2.8" height="2.8" style="fill:#e0e0e0;"/><rect x="161.8" y="60.8" width="2.8" height="2.8" style="fill:#e0e0e0;"/><rect x="168.6" y="61" width="2.8" height="2.8" style="fill:#e0e0e0;"/><rect x="127.1" y="66.9" width="2.8" height="2.8" style="fill:#e0e0e0;"/><rect x="134.2" y="66.8" width="2.8" height="2.8" style="fill:#e0e0e0;"/><rect x="141" y="66.9" width="2.8" height="2.8" style="fill:#e0e0e0;"/><rect x="147.9" y="66.9" width="2.8" height="2.8" style="fill:#ebebeb;"/><rect x="154.8" y="66.9" width="2.8" height="2.8" style="fill:#e0e0e0;"/><rect x="161.7" y="66.9" width="2.8" height="2.8" style="fill:#e0e0e0;"/><rect x="168.6" y="66.9" width="2.8" height="2.8" style="fill:#e0e0e0;"/><rect x="127.1" y="72.9" width="2.8" height="2.8" style="fill:#e0e0e0;"/><rect x="134" y="72.9" width="2.8" height="2.8" style="fill:#e0e0e0;"/><rect x="141" y="72.9" width="2.8" height="2.8" style="fill:#e0e0e0;"/><rect x="148" y="72.8" width="2.8" height="2.8" style="fill:#e0e0e0;"/><rect x="154.8" y="72.9" width="2.8" height="2.8" style="fill:#e0e0e0;"/><rect x="161.7" y="72.9" width="2.8" height="2.8" style="fill:#ebebeb;"/><rect x="168.6" y="72.9" width="2.8" height="2.8" style="fill:#e0e0e0;"/><rect x="127.1" y="78.9" width="2.8" height="2.8" style="fill:#e0e0e0;"/><rect x="134" y="78.9" width="2.8" height="2.8" style="fill:#ebebeb;"/><rect x="141" y="78.9" width="2.8" height="2.8" style="fill:#e0e0e0;"/><rect x="147.9" y="78.9" width="2.8" height="2.8" style="fill:#e0e0e0;"/><rect x="154.8" y="78.9" width="2.8" height="2.8" style="fill:#e0e0e0;"/><rect x="161.8" y="78.8" width="2.8" height="2.8" style="fill:#e0e0e0;"/><rect x="168.6" y="78.9" width="2.8" height="2.8" style="fill:#e0e0e0;"/><path d="M170.8,50.6h-43.9c-.4,0-.8-.4-.8-.8h0c0-.4.4-.8.8-.8h43.9c.4,0,.8.4.8.8h0c0,.4-.4.8-.8.8Z" style="fill:#e0e0e0;"/><path d="M129.6,44.9h-2.6c-.4,0-.8-.4-.8-.8h0c0-.4.4-.8.8-.8h2.6c.4,0,.8.4.8.8h0c0,.4-.4.8-.8.8Z" style="fill:#e0e0e0;"/><path d="M141.6,44.9h-8.5c-.4,0-.8-.4-.8-.8h0c0-.4.4-.8.8-.8h8.5c.4,0,.8.4.8.8h0c0,.4-.4.8-.8.8Z" style="fill:#e0e0e0;"/><polygon points="262.9 25.1 262.9 71.6 202.8 71.6 200.7 25.5 262.9 25.1" style="fill:#e0e0e0;"/><rect x="207.6" y="18.5" width="46.2" height="60.1" transform="translate(182.2 279.2) rotate(-90)" style="fill:#f5f5f5;"/><path d="M261,71.9h-60.5V25.2h60.5v46.7ZM200.9,71.4h59.6V25.6h-59.6v45.8Z" style="fill:#e0e0e0;"/><path d="M200.7,25.3s.4.2,1,.6c.6.4,1.4,1,2.3,1.7.9.7,1.7,1.3,2.3,1.8.6.5.9.8.9.8,0,0-.4-.2-1-.7-.7-.5-1.4-1.1-2.3-1.7-.9-.6-1.6-1.2-2.3-1.7-.6-.4-.9-.7-.9-.8Z" style="fill:#e0e0e0;"/><path d="M260.7,25.4c0,0-1.4,1.2-3.2,2.5-1.8,1.3-3.3,2.3-3.3,2.3,0,0,1.4-1.2,3.2-2.5,1.8-1.3,3.3-2.3,3.3-2.3Z" style="fill:#e0e0e0;"/><path d="M200.7,71.6s1.4-1.4,3.1-3c1.8-1.6,3.3-2.9,3.3-2.8,0,0-1.4,1.4-3.1,3-1.8,1.6-3.3,2.9-3.3,2.8Z" style="fill:#e0e0e0;"/><path d="M254,65.6s1.6,1.3,3.5,3c1.9,1.7,3.3,3.1,3.3,3.1,0,0-1.6-1.3-3.5-3-1.9-1.7-3.3-3.1-3.3-3.1Z" style="fill:#e0e0e0;"/><rect x="207.2" y="30.1" width="47.1" height="35.4" style="fill:#fff;"/><path d="M254.2,30.1s0,0-.2,0c-.2,0-.4,0-.7,0-.6,0-1.4,0-2.6,0-2.2,0-5.5,0-9.7,0-8.3,0-20,0-34,0h.1c0,10.5,0,22.6,0,35.3h0s-.1-.1-.1-.1c17.5,0,33.8,0,47.1,0h0c0-10.6,0-19.4,0-25.6,0-3.1,0-5.5,0-7.2,0-.8,0-1.5,0-1.9,0-.4,0-.7,0-.7,0,0,0,.2,0,.6,0,.4,0,1.1,0,1.9,0,1.6,0,4.1,0,7.1,0,6.2,0,15,0,25.8h0c0,0,0,0,0,0-13.3,0-29.5,0-47.1,0h-.1c0-12.9,0-24.9,0-35.5h0c0-.1.1-.1.1-.1,14,0,25.7,0,34,0,4.1,0,7.4,0,9.6,0,1.1,0,2,0,2.5,0,.3,0,.5,0,.7,0,.1,0,.2,0,.2,0Z" style="fill:#e0e0e0;"/><line x1="260.7" y1="71.6" x2="254" y2="65.6" style="fill:#fff;"/><path d="M241.6,36.7c0,0-4.7.1-10.4.1s-10.4,0-10.4-.1,4.7-.1,10.4-.1,10.4,0,10.4.1Z" style="fill:#e0e0e0;"/><path d="M246.3,48.4c0,0-7,.1-15.6.1s-15.6,0-15.6-.1,7-.1,15.6-.1,15.6,0,15.6.1Z" style="fill:#e0e0e0;"/><path d="M246.3,51.3c0,0-7,.1-15.6.1s-15.6,0-15.6-.1,7-.1,15.6-.1,15.6,0,15.6.1Z" style="fill:#e0e0e0;"/><path d="M213.6,42.5c0-1.1.8-1.9,2-1.9s1.2.2,1.5.7l-.6.6c-.2-.3-.5-.4-.8-.4-.6,0-1,.4-1,1s.4,1,1,1,.6-.1.8-.4l.6.6c-.3.4-.9.7-1.5.7-1.1,0-2-.8-2-1.9Z" style="fill:#e0e0e0;"/><path d="M220.5,43.5v.8h-2.9v-3.6h2.8v.8h-1.8v.6h1.6v.8h-1.6v.7h1.9Z" style="fill:#e0e0e0;"/><path d="M222.6,43.3h-.6v1h-1v-3.6h1.6c1,0,1.6.5,1.6,1.3s-.3.9-.7,1.1l.8,1.1h-1.1l-.7-1ZM222.6,41.5h-.6v1.1h.6c.4,0,.6-.2.6-.5s-.2-.5-.6-.5Z" style="fill:#e0e0e0;"/><path d="M225.5,41.5h-1.1v-.8h3.2v.8h-1.1v2.8h-1v-2.8Z" style="fill:#e0e0e0;"/><path d="M228,40.7h1v3.6h-1v-3.6Z" style="fill:#e0e0e0;"/><path d="M230.8,41.5v.8h1.6v.8h-1.6v1.2h-1v-3.6h2.8v.8h-1.8Z" style="fill:#e0e0e0;"/><path d="M233.1,40.7h1v3.6h-1v-3.6Z" style="fill:#e0e0e0;"/><path d="M234.6,42.5c0-1.1.8-1.9,2-1.9s1.2.2,1.5.7l-.6.6c-.2-.3-.5-.4-.8-.4-.6,0-1,.4-1,1s.4,1,1,1,.6-.1.8-.4l.6.6c-.3.4-.9.7-1.5.7-1.1,0-2-.8-2-1.9Z" style="fill:#e0e0e0;"/><path d="M241,43.6h-1.5l-.3.7h-1l1.6-3.6h1l1.6,3.6h-1.1l-.3-.7ZM240.7,42.9l-.5-1.2-.5,1.2h.9Z" style="fill:#e0e0e0;"/><path d="M243.2,41.5h-1.1v-.8h3.2v.8h-1.1v2.8h-1v-2.8Z" style="fill:#e0e0e0;"/><path d="M248.6,43.5v.8h-2.9v-3.6h2.8v.8h-1.8v.6h1.6v.8h-1.6v.7h1.9Z" style="fill:#e0e0e0;"/><path d="M234.8,58.5c0,2-1.6,3.6-3.6,3.6s-3.6-1.6-3.6-3.6,1.6-3.6,3.6-3.6,3.6,1.6,3.6,3.6Z" style="fill:#e0e0e0;"/><path d="M231.2,62.1c-2,0-3.6-1.6-3.6-3.6s1.6-3.6,3.6-3.6,3.6,1.6,3.6,3.6-1.6,3.6-3.6,3.6ZM231.2,54.9c-2,0-3.6,1.6-3.6,3.6s1.6,3.6,3.6,3.6,3.6-1.6,3.6-3.6-1.6-3.6-3.6-3.6Z" style="fill:#e0e0e0;"/><path d="M223.8,58.5c0,0-2,.1-4.4.1s-4.4,0-4.4-.1,2-.1,4.4-.1,4.4,0,4.4.1Z" style="fill:#e0e0e0;"/><path d="M247.7,58.5c0,0-2.2.1-4.9.1s-4.9,0-4.9-.1,2.2-.1,4.9-.1,4.9,0,4.9.1Z" style="fill:#e0e0e0;"/><path d="M221.5,57.8s0-.1,0-.3c0-.2,0-.5,0-.9,0-.4.2-.8.6-1.3,0-.1.2-.2.4-.3.2,0,.3,0,.5.1.3.2.4.6.3.9,0,.4-.3.6-.5.9-.2.3-.5.6-.8.8-.3.3-.7.5-1.2.5-.4,0-.9,0-1.3-.3-.4-.3-.6-.8-.6-1.3,0-.5.2-1,.4-1.4.1-.2.3-.5.5-.6.2-.2.5-.3.8-.2.3,0,.5.3.6.6,0,.3,0,.6,0,.8-.2.5-.4,1-.7,1.4-.3.4-.7.8-1.2,1-.5.2-1,.3-1.5.2-.5,0-.9-.4-1.2-.8-.2-.4-.3-.9-.3-1.3,0-.4.2-.8.3-1.2.2-.3.4-.8.8-.9.2,0,.5,0,.6.3.1.2.1.4.1.5,0,.7-.2,1.3-.4,1.8-.3.5-.6.8-.9,1.1-.3.2-.6.4-.7.5-.2,0-.3.1-.3.1,0,0,.4-.2,1-.7.3-.3.6-.6.8-1.1.2-.5.4-1.1.4-1.7,0-.2,0-.3-.1-.4,0-.1-.2-.2-.4-.2-.1,0-.3.1-.4.3-.1.1-.2.3-.3.5-.3.7-.5,1.6,0,2.3.2.4.6.6,1,.7.4,0,.9,0,1.3-.2.8-.4,1.4-1.3,1.7-2.2,0-.2,0-.5,0-.7,0-.2-.2-.4-.4-.4-.2,0-.4,0-.6.2-.2.1-.3.3-.4.5-.2.4-.3.9-.4,1.3,0,.4.1.9.5,1.1.3.2.8.3,1.2.3.4,0,.8-.2,1.1-.5.3-.2.6-.5.8-.8.2-.3.4-.6.5-.9,0-.3,0-.6-.2-.8-.2-.2-.5,0-.7.1-.3.4-.5.8-.6,1.2-.2.7,0,1.2,0,1.2Z" style="fill:#ebebeb;"/><path d="M246.6,57.2s0,0,0,0c0,0-.2,0-.3.1-.3.1-.6.3-1.2.4-.5.1-1.2.3-1.9.4-.4,0-.8,0-1.2,0-.4,0-.9,0-1.3,0-.2,0-.4.1-.6.3-.2.2-.2.4,0,.6,0,.2.3.4.4.6.2.2.3.4.5.6.2.2.4.4.6.6.2.2.4.4.7.5.2,0,.5,0,.7-.2.2-.2.2-.5.2-.8-.3-2.5,0-5.4.9-8.3v-.3c.1,0,.2.3.2.3.3.7.4,1.4.5,2.2,0,1-.1,2.1-.5,3-.2.5-.4.9-.7,1.3-.3.4-.6.8-1.1,1-.3,0-.6,0-.7-.3-.2-.2-.2-.5-.2-.7,0-.5,0-.9,0-1.4.1-.9.4-1.7.8-2.5v-.2c0,0,.2.1.2.1.6.8.3,2-.5,2.4-.8.4-1.8.2-2.2-.5-.4-.7-.3-1.5.1-2,.1-.1.3-.2.4-.3.2,0,.4,0,.5.1.1.1.1.3.1.5,0,.1,0,.3,0,.4-.4,1-.9,1.7-1.3,2.1-.2.2-.4.3-.5.4-.1,0-.2.1-.2.1,0,0,0,0,.2-.1.1,0,.3-.2.5-.4.4-.4.9-1.1,1.3-2.1,0-.2.1-.5,0-.7-.2-.2-.5,0-.7.2-.4.5-.5,1.3-.1,1.8.4.6,1.3.8,2,.4.7-.4.9-1.5.4-2.1h.2c-.4.7-.6,1.5-.7,2.4,0,.4,0,.9,0,1.3,0,.2,0,.4.2.6.1.2.3.2.5.2.2,0,.4-.2.6-.3.2-.1.3-.3.4-.5.3-.4.5-.8.7-1.3.4-.9.5-1.9.5-2.9,0-.7-.2-1.5-.5-2.1h.2c-1,2.8-1.2,5.7-.9,8.2,0,.3,0,.7-.3,1-.1.1-.2.3-.4.3-.2,0-.4,0-.5,0-.3-.1-.5-.4-.7-.6-.2-.2-.4-.4-.6-.6-.2-.2-.4-.4-.5-.6-.2-.2-.3-.4-.5-.7-.1-.3,0-.6.1-.8.2-.2.4-.3.7-.4.3,0,.5,0,.7,0,.2,0,.4,0,.7,0,.4,0,.8,0,1.2,0,.8,0,1.4-.2,1.9-.3.5-.1.9-.3,1.2-.4.3,0,.4-.1.4-.1Z" style="fill:#ebebeb;"/><rect x="41.8" y="18.4" width="54.6" height="90.4" style="fill:#e0e0e0;"/><rect x="40" y="18.4" width="54.6" height="90.4" style="fill:#ebebeb;"/><rect x="42.3" y="20.3" width="50" height="86.7" style="fill:#fff;"/><rect x="51.8" y="31.5" width="30.7" height="64.2" style="fill:#ebebeb;"/><path d="M51.8,73c0-6,5.3-11.9,11.3-12.7,2.8-.4,5.8.2,8.5-.9,4.7-1.9,6.2-8.2,11-10.1l.2,46.4h-30.9v-22.7Z" style="fill:#e0e0e0;"/><path d="M169.1,216.7s-2.2-15.3-2-24.2c.2-8.9,0-18.9,0-18.9h1s-.7,17.6,0,28.3c.8,10.6,2.7,14.8,2.7,14.8h-1.8" style="fill:#e0e0e0;"/><path d="M175.7,156.5c-.2-.5-.5-1.1-.9-1.4-.6-.4-1.5-.2-2.2,0-3.1,1.1-5.8,6.9-7.1,9.9l4.1,13.8c7.4-6.9,8.7-15.9,6.1-22.4Z" style="fill:#e0e0e0;"/><path d="M174.6,155.7s0,0,0,.2c0,.1-.1.3-.2.5-.2.4-.4,1.1-.7,1.9-.6,1.6-1.4,3.8-2.1,6.2-.7,2.5-1.2,4.8-1.5,6.4-.1.8-.3,1.5-.3,2,0,.2,0,.4,0,.5,0,.1,0,.2,0,.2,0,0,0,0,0-.2,0-.1,0-.3,0-.5,0-.5.1-1.1.3-2,.3-1.7.7-4,1.4-6.4.7-2.5,1.5-4.7,2.1-6.2.3-.8.6-1.4.8-1.8,0-.2.2-.4.2-.5,0-.1,0-.2,0-.2Z" style="fill:#ebebeb;"/><path d="M167.8,182.2c-3.9-2.1-6.1-6.1-6.3-10.5-.1-3.1.8-6.1,1.9-9,0-.3.2-.5.4-.7.3-.2.7,0,1,.2,2.8,1.6,4.5,4.6,5.4,7.7.6,2.1.9,4.2.6,6.4-.3,2.1-1.5,4.4-3,5.9" style="fill:#ebebeb;"/><path d="M167.8,182.2s0,0,0-.2c0-.1,0-.3,0-.5,0-.5,0-1.1,0-2,0-1.6-.3-3.9-.7-6.4-.4-2.5-.9-4.7-1.3-6.3-.2-.8-.3-1.4-.5-1.9,0-.2,0-.4-.1-.5,0-.1,0-.2,0-.2,0,0,0,0,0,.2,0,.1,0,.3.1.5.1.4.3,1.1.5,1.9.4,1.6.9,3.8,1.4,6.3.4,2.5.6,4.8.7,6.4,0,.8,0,1.5,0,2,0,.2,0,.4,0,.5,0,.1,0,.2,0,.2Z" style="fill:#e0e0e0;"/><path d="M172.1,205.6c3.8.8,6.9,3.5,10.6,4.8,2.4.9,5.2,1.2,7.1,2.9-.5-1.2-1.6-1.9-2.6-2.6-3-1.9-6.2-3.4-9.6-4.6-1.7-.6-3.6-1.1-5.3-.6" style="fill:#ebebeb;"/><path d="M166.6,209c-4.7,0-9.7-4.1-14.5-4.4,4.9-1.6,12-.3,14.5,4.4" style="fill:#ebebeb;"/><path d="M168.5,197.6c2.4-.9,5.1-.9,7.6-.5,2.5.4,5,1.2,7.4,2-.2-1.6-1.6-2.9-2.8-4-.9-.8-1.9-1.7-3-2.3s-2.3-1.1-3.6-1c-1.5,0-2.9.8-3.9,2s-1.5,2.3-1.7,3.8" style="fill:#ebebeb;"/><path d="M158.7,192.3c-3-2.6-7.5-2.3-11.4-2.2,6,2.9,12.5,6.8,17.7,11.1.2-2.8-2.5-5.6-6.3-8.8Z" style="fill:#455b64;"/><path d="M158.7,192.3c-3-2.6-7.5-2.3-11.4-2.2,6,2.9,12.5,6.8,17.7,11.1.2-2.8-2.5-5.6-6.3-8.8Z" style="fill:#ebebeb;"/><path d="M169.8,188.8c1.5-1,3-2,4.6-2.7,1.6-.7,3-1.9,4.6-2.7,2-1.1,3.7-2.5,5.5-3.9,1.8-1.3,3.8-2.5,6-2.9-1.8-.4-3.7-.2-5.5.3-1.8.5-3.5,1.2-5.1,2-2.3,1.1-4.7,2.1-6.6,3.8-1.9,1.7-3.6,3.4-3.4,5.9" style="fill:#ebebeb;"/><path d="M182.6,209s0,0-.2,0c-.1,0-.2-.1-.4-.2-.4-.2-.9-.5-1.5-.8-.3-.2-.7-.3-1.1-.5-.4-.2-.8-.4-1.2-.6-.9-.4-1.9-.8-2.9-1-1.1-.3-2.1-.3-3,0-.5.1-.9.2-1.3.4-.4.2-.7.3-1,.5-.6.4-1,.8-1.3,1.1-.3.3-.4.5-.4.5,0,0,0,0,0-.1,0,0,.2-.2.3-.4.3-.3.7-.7,1.3-1.1.3-.2.7-.4,1.1-.6.4-.2.8-.3,1.3-.4.9-.3,2-.2,3.1,0,1.1.3,2.1.7,2.9,1,.4.2.9.4,1.2.6.4.2.7.4,1.1.5.6.3,1.1.6,1.5.8.2,0,.3.2.4.2,0,0,.1,0,.1,0Z" style="fill:#e0e0e0;"/><path d="M163.1,206.6s.1,0,.3,0c.2,0,.5.2.8.3.6.3,1.5.9,2.3,1.6.8.8,1.4,1.6,1.7,2.2.2.3.3.6.4.8,0,.2.1.3,0,.3,0,0-.2-.4-.6-1-.4-.6-.9-1.4-1.7-2.1-.8-.7-1.6-1.3-2.2-1.6-.6-.3-1-.5-1-.5Z" style="fill:#e0e0e0;"/><path d="M152.6,192.1s0,0,.2,0c.1,0,.3.1.6.2.3,0,.6.2.9.3.4.1.7.3,1.2.5,1.7.8,4,2.1,6.2,3.9,1.1.9,2.1,1.9,2.9,2.8.8.9,1.5,1.8,2,2.6.5.8,1,1.4,1.2,1.8.1.2.2.4.3.5,0,.1.1.2.1.2,0,0,0,0-.1-.2,0-.1-.2-.3-.4-.5-.3-.4-.7-1.1-1.3-1.8-.5-.8-1.2-1.6-2.1-2.6-.8-.9-1.8-1.9-2.9-2.8-2.2-1.8-4.4-3.2-6.1-4-.4-.2-.8-.4-1.1-.5-.3-.1-.6-.3-.9-.4-.2,0-.4-.2-.6-.2-.1,0-.2,0-.2,0Z" style="fill:#e0e0e0;"/><path d="M175.6,194.9s-.1,0-.4,0c-.1,0-.3,0-.4,0-.2,0-.4,0-.6,0-.9,0-2.1,0-3.3.6-.6.3-1.1.7-1.5,1.1-.4.4-.7.8-1,1.2-.5.7-.6,1.3-.7,1.2,0,0,0-.1,0-.4,0-.2.2-.6.5-.9.2-.4.5-.8.9-1.2.4-.4.9-.8,1.5-1.1,1.2-.7,2.5-.7,3.4-.6.2,0,.4,0,.6,0,.2,0,.3,0,.4.1.2,0,.4.1.4.1Z" style="fill:#e0e0e0;"/><path d="M180.4,180.1s0,0-.2.1c-.1,0-.3.2-.5.3-.5.2-1.1.6-1.9,1.1-.8.5-1.7,1.1-2.7,1.8-1,.7-2.1,1.6-3.1,2.6-.5.5-.9,1-1.3,1.6-.3.6-.6,1.2-.9,1.7-.5,1.1-1,2.1-1.3,3-.3.9-.5,1.6-.6,2.1-.1.5-.2.8-.2.8,0,0,0,0,0-.2,0-.1,0-.3,0-.6,0-.5.3-1.3.6-2.1.3-.9.7-1.9,1.3-3,.3-.6.6-1.1.9-1.7.3-.6.8-1.1,1.3-1.7,1-1,2.1-1.9,3.1-2.6,1-.7,2-1.3,2.8-1.8.8-.5,1.5-.8,2-1,.2-.1.4-.2.5-.3.1,0,.2,0,.2,0Z" style="fill:#e0e0e0;"/><path d="M167.1,194.5s0-.1,0-.4c0-.3-.1-.7-.2-1.1-.2-.9-.5-2.2-.9-3.6-.4-1.4-1-2.6-1.4-3.4-.2-.4-.3-.7-.5-1-.1-.2-.2-.4-.2-.4,0,0,0,.1.2.4.1.2.3.6.5,1,.4.8,1,2,1.4,3.4.4,1.4.7,2.7.9,3.6,0,.5.1.8.2,1.1,0,.3,0,.4,0,.4Z" style="fill:#e0e0e0;"/><path d="M166.7,183.7c-.1-1.8-.7-3.5-1.5-5.1-2.3-4.4-6.6-7.6-11.5-8.6,3.5,5.3,7.1,10.5,10.6,15.8l1.4,2.8c.9-1.5,1.1-3.2,1-5Z" style="fill:#e0e0e0;"/><rect x="157.3" y="214.8" width="24.7" height="4.4" style="fill:#ebebeb;"/><polygon points="159.1 218.4 161.2 231.9 177.6 231.9 180.1 218.4 159.1 218.4" style="fill:#ebebeb;"/><path d="M181.9,219.2s-5.6,0-12.4,0-12.4,0-12.4,0,5.6,0,12.4,0,12.4,0,12.4,0Z" style="fill:#e0e0e0;"/><path d="M289.7,232.1c0,0-62,.2-138.5.2s-138.5,0-138.5-.2,62-.2,138.5-.2,138.5,0,138.5.2Z" style="fill:#263238;"/><path d="M140.7,152.7s1.8-29,2.3-31.7c.4-2,42.8-1.3,42.9,0,0,1.3-1.9,31.5-1.9,31.5-2.1.8-43.3.2-43.3.2Z" style="fill:#455b64;"/><path d="M167.8,151c-9.5,0-20.6-.1-25.1-.2.7-10.4,1.6-24.4,2-28.5,1.7-.3,6.5-.7,16.5-.7s19.4.4,22.6.8c-.2,4.4-1.1,18.1-1.7,28.3-1.7,0-5.6.2-14.4.2Z" style="fill:#e0e0e0;"/><rect x="126.5" y="152.5" width="57.5" height="2.2" style="fill:#455b64;"/><rect x="150.5" y="126.5" width="16.3" height="14.1" rx="1.9" ry="1.9" style="fill:#fff;"/><rect x="158.6" y="133.5" width="16.3" height="14.1" rx="1.9" ry="1.9" style="fill:#fff;"/><path d="M138.7,144.4s-.2-1.4-1.4-1.7c-1.2-.3-2.8,0-2.8,0h-12.2s.2,8.9.6,9.2c.4.4,11.3.5,11.5,0,.2-.5,0-2.4,0-2.4,0,0,4.8-1.5,4.3-5.2ZM134.7,148.2c-.2,0-.2-4.5-.2-4.5,0,0,3-.7,3.1.9.2,2.5-2.8,3.6-3,3.7Z" style="fill:#e0e0e0;"/><ellipse cx="128.2" cy="142.7" rx="5.9" ry=".5" style="fill:#e0e0e0;"/><ellipse cx="128.8" cy="152.9" rx="10.4" ry="1.1" style="fill:#e0e0e0;"/><path d="M121.2,153.4s.7.8,1.4.9,12.5.2,12.8,0c.3-.2,1.2-.7,1.2-.7l-15.5-.3Z" style="fill:#e0e0e0;"/><path d="M134.1,152.5s-.6.2-1.6.4c-1,.2-2.4.3-3.9.4-1.5,0-2.9-.1-3.9-.3-1-.2-1.6-.3-1.6-.4,0,0,.6,0,1.6.2,1,.1,2.4.2,3.9.2,1.5,0,2.9-.1,3.9-.3,1-.1,1.6-.2,1.6-.2Z" style="fill:#263238;"/><path d="M257,76.8c.6-.9.6-2.2,0-3.2-.6-.9-1.8-1.5-2.9-1.4-1.3-2-4.2-2.8-6.4-1.8l-22.9,10.3c.6,3.5,2,10.5,3.4,13.8,1.4,3.2,3.8,6.2,7,7.6,3.6,1.6,7.7,1.1,11.6.6,1.9-.3,4-.6,5.5-1.8,1.3-1.1,2-2.9,2.6-4.5,1.1-3,2.2-6,3.2-9,.7-1.8,1.3-3.7,1.3-5.7,0-2-.9-4-2.6-5Z" style="fill:#263238;"/><path d="M250.9,78.6l-9.4-4.2-2.5.2c-5.6-.2-9.7,5.8-10,10.3-.3,5-.4,11.2.3,15,1.3,7.5,7.6,8.4,7.6,8.4v6.3c0,0,13.6-6.5,13.6-6.5l2.8-26.8c0-1.4-1-2.5-2.4-2.7Z" style="fill:#c27460;"/><path d="M231.2,90.8c0,.5.4.9.9,1,.5,0,1-.4,1-.9,0-.5-.4-.9-.9-1-.5,0-1,.4-1,.9Z" style="fill:#263238;"/><path d="M230.7,87.5c.1.1.8-.4,1.9-.4,1,0,1.8.5,1.9.4,0,0,0-.3-.4-.5-.3-.2-.9-.5-1.5-.5-.6,0-1.2.3-1.5.5-.3.2-.4.5-.4.5Z" style="fill:#263238;"/><path d="M237,95.9c0,0-.6-.2-1.7-.3-.3,0-.5,0-.6-.3,0-.2,0-.5.2-.8.2-.6.5-1.3.8-2,1.1-2.9,1.8-5.3,1.7-5.3-.1,0-1.1,2.3-2.1,5.2-.3.7-.5,1.4-.7,2,0,.3-.3.6-.1,1,0,.2.3.3.4.4.2,0,.3,0,.5,0,1.1,0,1.7,0,1.7,0Z" style="fill:#263238;"/><path d="M236.9,108.3s5.1.3,10.1-2.8c0,0-2.5,6-10.1,5.4v-2.6Z" style="fill:#7c4235;"/><path d="M231.2,83.8c.2.3,1,0,1.9.1.9,0,1.7.3,1.9,0,0-.1,0-.4-.3-.6-.3-.3-.9-.5-1.5-.5-.6,0-1.2.1-1.6.3-.4.2-.5.4-.4.6Z" style="fill:#263238;"/><path d="M241.5,91.3c0,.5-.4.9-1,1-.5,0-1-.4-1-.9,0-.5.4-.9,1-1,.5,0,1,.4,1,.9Z" style="fill:#263238;"/><path d="M244,87.7c-.1.1-.8-.4-1.9-.5-1,0-1.8.5-1.9.3,0,0,0-.3.4-.5.3-.2.9-.5,1.5-.4.6,0,1.2.3,1.5.5.3.3.4.5.4.5Z" style="fill:#263238;"/><path d="M244.3,84.3c-.2.2-1,0-2,0-1,0-1.8.1-2-.1,0-.1,0-.4.4-.6.4-.2,1-.4,1.6-.3.7,0,1.2.3,1.6.5.3.3.4.5.3.6Z" style="fill:#263238;"/><path d="M251.5,93.8c0-.6.6-1.9,1.2-2,1.5-.2,4.2-.2,4.2,3.6,0,5.2-6.6,4.2-5.9,4,.1,0,.5-3.7.5-5.6Z" style="fill:#c27460;"/><path d="M253.1,97.6s0,0,.2.1c.1,0,.4.1.7,0,.5-.2,1-1.1,1-2,0-.5-.1-.9-.3-1.3-.2-.4-.4-.6-.7-.7-.3,0-.5.1-.5.3,0,.1,0,.2,0,.3,0,0-.1,0,0-.3,0-.1,0-.2.2-.3.1-.1.3-.2.5-.1.4,0,.8.4,1,.8.2.4.3.9.3,1.4,0,1-.5,2-1.3,2.2-.4.1-.7,0-.8-.1-.2-.1-.2-.2-.2-.2Z" style="fill:#7c4235;"/><path d="M251.5,69.6c-.7-1.4-2.3-2.2-3.9-2.2-1.6,0-3.1.5-4.6,1.1-1.5-1.5-3.9-2.2-6-1.6-2.1.5-3.9,2.2-4.5,4.2-2.4-1.4-5.7-.9-7.6,1.1-1.9,2-2.1,5.4-.5,7.6-1.9.8-2.9,3.3-2,5.2.9,1.9,3.6,2.6,5.3,1.6,1.8-1.1,2.4-3.7,1.2-5.4,2.2,1.1,5.3-.4,5.9-2.8,2.3,1.2,5.1,1.3,7.5.5,2.4-.9,4.4-2.8,5.4-5.2l2-.3c1.5-.3,2.3-2.3,1.6-3.7Z" style="fill:#263238;"/><path d="M254.5,85.3c0-1.4.4-2.7.2-4.1-.3-2-1.7-3.8-3.3-5-1.7-1.2-3.7-1.9-5.6-2.6l-4.7,3.6c.8,1.4,1.6,2.8,2.8,3.9,1.2,1.1,2.8,1.8,4.4,1.6-.7,1.6,0,3.7,1.6,4.4-.7.9-1.2,2-1.1,3.1,0,1.1.9,2.2,2,2.5,1,.2,2.2-.3,2.8-1.2.6-.9.9-2,.9-3s0-2.1,0-3.2Z" style="fill:#263238;"/><path d="M251.5,71.6s0,.2,0,.5c0,.3-.2.7-.5,1.2-.3.5-.8,1-1.6,1.2-.7.3-1.7.3-2.6,0l.3-.2c-.2,1.4-1.1,2.8-2.4,3.8-1.2.9-2.6,1.3-3.9,1.4-1.3,0-2.4,0-3.4-.2-.9-.2-1.7-.4-2.2-.6-.5-.2-.8-.3-.8-.3,0,0,1.2.3,3,.6.9.1,2.1.3,3.3.1,1.2-.1,2.5-.5,3.7-1.3,1.3-.9,2.1-2.2,2.2-3.4v-.3s.3.1.3.1c.8.4,1.6.3,2.3.1.7-.2,1.2-.6,1.5-1.1.6-.8.6-1.5.7-1.5Z" style="fill:#455b64;"/><path d="M240.8,96.7c0,0-.1-.1-.2-.2-.1,0-.2,0-.3,0-1,.6-1.9,1.2-2.9,1.9l.9,1.1c.6.7,1.6,1,2.4.4,0,0,0,0,0,0,.5-.4.9-1.1.8-1.8,0-.6-.4-1.1-.7-1.6Z" style="fill:#7c4235;"/><path d="M239.3,100.3c0,0,.6,0,1.2-.4.2-.1.3-.3.5-.4.1-.2.2-.4.2-.6,0-.5,0-1.1-.3-1.7-.1-.3-.3-.6-.4-.5-.2,0-.5.2-.7.4-.4.3-.9.6-1.2.8-.7.5-1.1.7-1.2.7,0,0,.4-.3,1-.8.4-.3.8-.5,1.2-.8.2-.1.5-.3.8-.4,0,0,.2,0,.3,0,0,0,.2.1.2.2.1.1.2.3.2.4.3.6.4,1.2.3,1.8,0,.3-.1.6-.3.8-.2.2-.4.3-.5.5-.4.2-.7.3-1,.3-.2,0-.4,0-.4,0Z" style="fill:#263238;"/><path d="M204.3,111.6s1,2.8,1.9,4c.9,1.2,1.8,1.5,2.3,3.6.5,2.1,1.1,4.3,1.1,4.3,0,0,4.2,3.6,4,3.6-.2,0-4.2,6.5-4.2,6.5l-7-6.9-9.1-6-3.6-6.9.3-.5-.3-1.4s.8-1.5,2-.3c0,0,0-1.8,1.8-.5,1.8,1.3,5.1,4.8,5.4,4.8.3,0,3.7,1.6,3.7,1.6h1.7c0,0-1.2-1-1.5-2.4-.3-1.4-1.1-2.2-.3-3.2.8-1,2-.4,2-.4Z" style="fill:#c27460;"/><path d="M204.4,122.2s-.2,0-.5-.3c-.3-.2-.9-.4-1.5-.5-1.3-.3-3.3-.6-5.4-.6h0s0,0,0,0c-.3-.2-.6-.5-1-.8-.2-.1-.3-.3-.5-.4h0s0,0,0,0c-.2-.8-.4-1.6-.6-2.3,0-.3-.2-.7-.5-.9-.2-.2-.6-.2-.8,0h0c-.1,2.2-.4,3.7-.5,3.7,0,0,0-.4,0-1,0-.7,0-1.6.1-2.8h0c0,0,0-.1,0-.1.3-.1.8-.1,1.1.1.3.2.5.6.6,1,.2.7.4,1.5.6,2.3h0c.2,0,.3.2.5.3.3.3.7.5,1,.8h0c2.2,0,4.1.2,5.5.6.7.2,1.2.4,1.5.6.3.2.5.4.5.4Z" style="fill:#7c4235;"/><path d="M197.1,117.4c0,0-1.3-1.2-2.8-2.8-1.5-1.6-2.6-2.9-2.5-3,0,0,1.3,1.2,2.8,2.8,1.5,1.6,2.6,2.9,2.5,3Z" style="fill:#7c4235;"/><path d="M192.8,116.2s-.2-.2-.3-.5c-.2-.3-.4-.8-.8-1.3-.4-.4-.8-.7-1.1-.9-.3-.1-.6-.2-.6-.2,0,0,.3,0,.7,0,.4,0,.9.4,1.3.9.4.5.6,1,.7,1.4.1.4.2.6.2.6Z" style="fill:#7c4235;"/><path d="M199.4,116.9c0,0-1,.2-1.8,1-.9.7-1.2,1.7-1.3,1.6,0,0,0-.3.2-.6.2-.4.5-.8,1-1.2.5-.4,1-.6,1.4-.7.4,0,.6,0,.6,0Z" style="fill:#7c4235;"/><path d="M245.4,110.1s-4.4-.4-7.6,3.8c-2.5,3.3-13.8,21.2-13.8,21.2l-13.1-11.4-6.6,6.8s16.2,17.3,19.6,19.5c3.6,2.2,6.5.7,8.8-2,2.3-2.7,6.6-10.9,6.6-10.9l6-26.9Z" style="fill:#3a5fa0;"/><path d="M219.2,220.4c-.2.1,6.4,12.4,7,12.8.6.3,3.7.3,4.1,1.3.4,1-2.8,20.2-3.9,21.6-1.1,1.5-2.7,2.3-2.7,2.3,0,0-3.8-13.6-4.8-17.4-1.1-3.8-8.7-12.1-8.7-12.1l9.1-8.5Z" style="fill:#c27460;"/><path d="M226.8,233.3c.3,0,4.1.2,6.6,2.3,2.5,2.1,9.7,13.9,9.7,13.9l-1,.9s-6-8.3-6.8-8.7c-.8-.4-2.6-.3-3.6,5.1-1,5.4,1.7,8.1-.5,11.2-2.2,3.2-12.6,9.4-13,8.7-.5-.7,5.3-9.2,5.3-9.2,0,0,2.4-.9,3.1-3.9.7-3.1.3-20.2.3-20.2Z" style="fill:#263238;"/><path d="M213.8,210.7c-.1.2,11.1,8.6,11.7,8.7.7,0,3.5-1.3,4.2-.6.7.8,6,19.4,5.6,21.2-.4,1.8-1.5,3.3-1.5,3.3,0,0-9.1-10.7-11.7-13.8-2.6-3-13-7.3-13-7.3l4.7-11.5Z" style="fill:#c27460;"/><path d="M226.1,219.2c.3,0,3.8-1.5,6.9-.7,3.2.8,14.7,8.5,14.7,8.5l-.6,1.3s-9-5-9.8-5c-.9,0-2.5.8-1.1,6.1,1.4,5.3,4.9,6.6,4.3,10.4-.7,3.8-7.4,13.9-8.2,13.4-.7-.5.9-10.6.9-10.6,0,0,1.8-1.8,1.1-4.9-.7-3.1-8.3-18.5-8.3-18.5Z" style="fill:#263238;"/><path d="M260.9,166.6l-29-1.9-1.5,8.2c-1.7-.1-33.5,5.2-39.6,7.2-5.6,1.8-7.2,7.4-5.1,13.9,2.1,6.4,20.7,43.4,24.5,44.4,3.8,1,14.9-10,14.9-10l-15.4-30s38.1-.2,43.6-.7c6.7-.7,12.2-11.5,10.6-19.3-1.5-7.3-2.9-11.8-2.9-11.8Z" style="fill:#263238;"/><path d="M187.6,137c-5.1-5.3-13.6-14.4-13.6-14.4l3.9-5.4,21,24.2s3.8,5.9,3.5,6.3-5.2,3.9-5.2,3.9l-3.3-5.9c-1.7-3.2-3.9-6.1-6.4-8.7Z" style="fill:#fff;"/><path d="M187.6,137s0,0,.2.2c.1.1.4.4.6.7.6.6,1.3,1.5,2.3,2.7.9,1.2,2,2.7,3.1,4.6,1,1.9,2.2,4,3.5,6.4h-.2c.8-.6,1.7-1.3,2.5-1.9.9-.6,1.8-1.3,2.6-2,0,0,0,0,0,0,0,0,0-.1,0-.2,0-.1-.1-.3-.2-.4-.1-.3-.3-.5-.4-.8-.3-.5-.6-1-.9-1.6-.6-1-1.3-2.1-1.9-3.2h0c-2.8-3.2-5.8-6.6-8.9-10.2-4.3-5-8.4-9.7-12.1-13.9h.2c-1.4,1.9-2.7,3.7-3.9,5.4v-.2c4.1,4.3,7.4,7.9,9.8,10.5,1.2,1.3,2.1,2.2,2.7,2.9.3.3.5.6.7.8.2.2.2.3.2.3,0,0,0,0-.3-.2-.2-.2-.4-.4-.7-.8-.7-.7-1.6-1.6-2.8-2.9-2.4-2.5-5.8-6.1-9.9-10.4h0c0,0,0-.2,0-.2,1.2-1.7,2.5-3.5,3.9-5.4h.1c0-.1.1,0,.1,0,3.7,4.2,7.8,9,12.1,13.9,3.1,3.6,6.2,7.1,8.9,10.3h0s0,0,0,0c.7,1.1,1.3,2.1,1.9,3.2.3.5.6,1,.9,1.6.1.3.3.5.4.8,0,.1.1.3.2.4,0,0,0,.1,0,.2,0,0,0,0,0,.1,0,0,0,.2,0,.2-.5.4-.9.7-1.4,1.1-.4.3-.9.7-1.3,1-.9.6-1.7,1.2-2.5,1.8h-.1c0,0,0,0,0,0-1.3-2.3-2.5-4.5-3.5-6.4-1-1.9-2.1-3.4-3-4.6-.9-1.2-1.7-2.1-2.2-2.7-.3-.3-.5-.5-.6-.7-.1-.2-.2-.2-.2-.2Z" style="fill:#263238;"/><path d="M198.3,138.7s-10.8-6.7-12-6.5c-1.2.2-1.4,1.4-1.4,1.4,0,0-2.8-.4-2,1.8l1,1.2s-.6,2.1,1,3c0,0-.5,1.2.5,2.2,0,0-.5,1.5,1.3,2.6,1.8,1.1,7.2,2.5,8.7,1.6,1.5-.9,3.2-7.5,3.2-7.5Z" style="fill:#c27460;"/><path d="M190.1,136.7c0,0-1.2-.6-2.6-1.4-1.4-.9-2.5-1.6-2.5-1.7,0,0,1.2.6,2.6,1.4,1.4.9,2.5,1.6,2.5,1.7Z" style="fill:#7c4235;"/><path d="M185.1,138c0,0-.4-.2-.8-.6-.4-.4-.7-.8-.6-.8,0,0,.4.2.8.6.4.4.7.8.6.8Z" style="fill:#7c4235;"/><path d="M185.7,140.7c0,0-.3-.1-.6-.4-.3-.3-.5-.6-.4-.6,0,0,.3.1.6.4.3.3.5.6.4.6Z" style="fill:#7c4235;"/><path d="M186.2,143c0,0-.3-.1-.5-.3-.2-.2-.4-.4-.4-.5,0,0,.3,0,.6.3.3.2.4.5.3.6Z" style="fill:#7c4235;"/><path d="M203.1,192.8c0,0,1.7,1.1,3.6,2.7,1.9,1.5,3.5,2.8,3.4,2.9,0,0-1.7-1.1-3.6-2.7-1.9-1.5-3.5-2.8-3.4-2.9Z" style="fill:#455b64;"/><path d="M207.6,191c0,0,.8,1.5,1.5,3.6.7,2,1,3.7,1,3.7,0,0-.6-1.6-1.3-3.6-.7-2-1.2-3.6-1.2-3.7Z" style="fill:#455b64;"/><path d="M236.7,113.2c-.4.3-.8.7-1,1.1-2,3.5-11,19.8-10.1,25.1.7,4.9,2.9,20,3.8,25.6.2,1.4,1.3,2.6,2.7,2.8,7.9,1.2,29.5-.2,30.6-2,2.7-4.4,1-22.7-1.2-36.7-2.2-14-4.5-19.7-12.3-21.7-2.6-.7-10.1,4.3-12.4,5.8Z" style="fill:#3a5fa0;"/><path d="M229,162.2s4.2-.3,10.9-7.9,10.8-22.1,10.8-22.1l-22.2,27.3.6,2.7Z" style="opacity:.3;"/><path d="M198.6,138.3c.5.2,22.8,6.4,22.8,6.4,0-.5.6-2.1,1.8-2.1,1.1,0,1.3,1.5,1.3,1.5,0,0,6.2-12.3,7-14.9.8-2.6,4.3-20,14.7-19.1,10.3.9,6.5,17,5.3,20.1-1.1,3-13.2,27.1-22.5,30-4.3,1.4-31.3-7.7-34.5-10.6-3.2-2.9,4.1-11.4,4.1-11.4Z" style="fill:#3a5fa0;"/><path d="M198.6,138.3s0,.1-.3.4c-.2.2-.5.6-.8,1.1-.7,1-1.8,2.4-2.8,4.5-.5,1-1,2.3-.9,3.7,0,.7.3,1.4,1,1.8.6.5,1.3.8,2,1.2,3,1.4,6.5,2.8,10.4,4.1,3.9,1.3,8.2,2.7,12.9,3.9,1.2.3,2.4.6,3.6.8,1.2.2,2.5.5,3.8.5.6,0,1.3,0,1.9-.3l.5-.2.4-.2.4-.2.4-.3c1.1-.7,2.2-1.6,3.2-2.5,2-1.9,3.8-4,5.5-6.3,1.7-2.3,3.3-4.7,4.8-7.3,1.5-2.5,3-5.2,4.5-7.9.7-1.4,1.4-2.7,2-4.2.3-.7.6-1.4.8-2.2.2-.8.4-1.5.5-2.3.6-3,.9-6,.5-8.9-.2-1.4-.6-2.9-1.3-4.1-.7-1.2-1.8-2.2-3.2-2.7-1.3-.5-2.8-.6-4.1-.4-1.4.2-2.7.8-3.8,1.6-2.2,1.6-3.7,4-4.9,6.3-1.2,2.3-2.1,4.8-2.8,7.2-.4,1.2-.7,2.4-1,3.6-.4,1.2-.9,2.3-1.4,3.4-2,4.3-3.9,8.2-5.8,11.8l-.2.3v-.3c-.1-.4-.3-.9-.6-1.2-.3-.3-.7-.4-1.1-.2-.4.2-.7.5-.9.8-.2.3-.4.7-.4,1.1h0c0,.1-.1,0-.1,0-7.1-2-12.8-3.6-16.7-4.7-1.9-.6-3.4-1-4.5-1.3-.5-.2-.9-.3-1.2-.4-.3,0-.4-.1-.4-.1.4.1,2.2.6,6,1.7,3.9,1.1,9.6,2.7,16.7,4.6h-.1c0-.3.2-.7.4-1.1.2-.4.5-.7,1-.9.2,0,.5-.1.7,0,.2,0,.5.2.6.3.3.4.5.8.6,1.3h-.2c1.8-3.6,3.8-7.6,5.7-11.9.5-1.1,1-2.2,1.3-3.3.3-1.2.6-2.4,1-3.6.7-2.4,1.6-4.9,2.8-7.2,1.2-2.3,2.7-4.7,5-6.4,1.1-.8,2.5-1.4,3.9-1.6,1.4-.2,2.9,0,4.3.5,1.4.5,2.6,1.5,3.3,2.8.8,1.3,1.2,2.7,1.4,4.2.4,3,0,6-.5,9-.2.8-.3,1.5-.5,2.3-.2.8-.4,1.5-.8,2.2-.6,1.4-1.3,2.8-2,4.2-1.4,2.7-2.9,5.4-4.5,7.9-1.6,2.5-3.2,5-4.9,7.3-1.7,2.3-3.5,4.5-5.5,6.4-1,.9-2.1,1.8-3.2,2.5l-.4.3-.4.2-.4.2-.5.2c-.2,0-.3.1-.5.2-.2,0-.3,0-.5,0-.3,0-.7,0-1,0-1.3,0-2.6-.3-3.8-.5-1.2-.2-2.4-.5-3.6-.8-4.7-1.2-9-2.6-13-4-3.9-1.4-7.4-2.7-10.4-4.2-.7-.4-1.4-.7-2.1-1.2-.6-.5-1-1.2-1-1.9,0-.7.1-1.4.3-2,.2-.6.4-1.2.7-1.7,1-2.1,2.1-3.5,2.8-4.5.4-.5.7-.8.9-1.1.2-.2.3-.4.3-.4Z" style="fill:#263238;"/><path d="M221,148.7c0,0-.1-.9,0-2,.2-1.1.4-1.9.5-1.9,0,0,0,.9-.2,2-.2,1.1-.3,1.9-.4,1.9Z" style="fill:#263238;"/><path d="M224.4,149.5c0,0,0-1.2,0-2.7,0-1.5,0-2.7,0-2.7,0,0,.2,1.2.2,2.7,0,1.5-.2,2.7-.3,2.7Z" style="fill:#263238;"/><path d="M230.9,167.4s0,3.1,0,3.5c0,.4,31.3.5,31-1.2-.3-1.8-.8-4-.8-4l-30.1,1.7Z" style="fill:#3a5fa0;"/><path d="M262.3,166.3s0,0-.3.1c-.2,0-.5.2-.9.3-.4.2-.8.3-1.4.4-.3,0-.6.2-.9.3-.3,0-.7.1-1,.2-2.8.6-6.8,1-11.2,1-4.4,0-8.3-.4-11.2-.6-1.4-.1-2.5-.2-3.4-.3-.4,0-.7,0-.9-.1-.2,0-.3,0-.3,0,0,0,.1,0,.3,0,.2,0,.6,0,.9,0,.8,0,2,.1,3.4.2,2.9.2,6.8.5,11.2.5,4.4,0,8.3-.3,11.1-.9.3,0,.7-.1,1-.2.3,0,.6-.2.9-.2.6-.1,1-.3,1.4-.4.4-.1.6-.2.9-.3.2,0,.3,0,.3,0Z" style="fill:#263238;"/><path d="M264.8,199.3h3.3c1.7,0,3.2-1.3,3.4-3,.6-5.3,1.9-20.1,1.9-20.3l-2.3-.2c0,.1-1.3,14.9-1.9,20.2,0,.5-.5.9-1.1.9h-3.3v2.3Z" style="fill:#e0e0e0;"/><path d="M264.8,199.3s0,0,0-.2c0-.1,0-.3,0-.5,0-.4,0-1,0-1.7h0c.5,0,1.1,0,1.8,0,.3,0,.7,0,1.1,0,.2,0,.4,0,.6,0,.2,0,.4-.1.6-.3.2-.2.3-.4.3-.6,0-.2,0-.4,0-.7,0-.4,0-.9.1-1.4,0-1,.2-2,.3-3.1.4-4.3.9-9.5,1.5-15.2h-.1c.5.2,1.1.2,1.7.3.2,0,.4,0,.6,0h-.1c-.7,7.7-1.4,14.8-1.9,20,0,1.3-.9,2.3-1.8,2.7-.9.5-1.8.4-2.5.4-.7,0-1.3,0-1.7,0-.2,0-.3,0-.4,0-.1,0-.2,0-.2,0,0,0,0,0,.1,0,.1,0,.3,0,.4,0,.4,0,1,0,1.7,0,.4,0,.8,0,1.2,0,.4,0,.9-.1,1.4-.4.9-.5,1.8-1.5,1.9-2.8.5-5.2,1.2-12.3,2-20.1h0c0-.1-.1-.1-.1-.1-.2,0-.4,0-.6,0-.6,0-1.2-.1-1.7-.1h-.1s0,.1,0,.1c-.5,5.6-1,10.8-1.4,15.2,0,1.1-.2,2.1-.3,3.1,0,.5,0,.9-.1,1.4,0,.2,0,.5,0,.7,0,.2-.1.4-.3.5-.1.1-.3.2-.5.3-.2,0-.4,0-.6,0-.4,0-.7,0-1.1,0-.7,0-1.3,0-1.8,0h0s0,0,0,0c0,.7,0,1.3,0,1.8,0,.2,0,.3,0,.4,0,0,0,.1,0,.1Z" style="fill:#263238;"/><path d="M212.8,202.2h52.1c1.9,0,3.5-1.3,3.5-2.9h0c0-1.6-1.6-2.9-3.5-2.9h-52.1c-1.9,0-3.5,1.3-3.5,2.9h0c0,1.6,1.6,2.9,3.5,2.9Z" style="fill:#455b64;"/><path d="M276.1,177.8l7.1-55.8c.2-1.9-1.1-3.7-3-3.9h0c-1.9-.2-3.7,1.1-3.9,3l-7.1,55.8c-.2,1.9,1.1,3.7,3,3.9h0c1.9.2,3.7-1.1,3.9-3Z" style="fill:#455b64;"/><polygon points="213.2 200 205.4 257 208.5 257 220.1 202.2 213.2 200" style="fill:#455b64;"/><polygon points="264.3 200 271.9 257 268.8 257 257.4 202.2 264.3 200" style="fill:#455b64;"/><path d="M212.8,202.2c0,0,11.8.1,26.4.1s26.4,0,26.4-.1-11.8-.1-26.4-.1-26.4,0-26.4.1Z" style="fill:#263238;"/><path d="M88.5,152.9s3.4,17.1,2.7,19.2c-.7,2.1-7.2,1.1-7.1.6,0-.5-.9-20.8-.9-20.8l5.2,1Z" style="fill:#3a5fa0;"/><path d="M142.7,228l4.6,16.1s17.8.5,18.9,3.4l-30.8,10.3-8.1-24.9,15.5-4.9Z" style="fill:#263238;"/><path d="M135.2,257.9l-.6-2,30.1-9.4s1.2.3,1.6,1.2l-31,10.2Z" style="fill:#455b64;"/><path d="M147.4,244.2c0,.2-.7.5-1.3,1.2-.6.7-.8,1.5-.9,1.5-.2,0-.2-1,.5-1.8.7-.9,1.7-1,1.7-.8Z" style="fill:#455b64;"/><path d="M151.1,244.5c0,.1-.5.6-.8,1.4-.3.8-.2,1.5-.4,1.6-.1,0-.5-.8-.1-1.8.4-1,1.3-1.4,1.3-1.2Z" style="fill:#455b64;"/><path d="M154.3,247.9c-.1,0-.6-.6-.5-1.6.1-1,.7-1.5.8-1.4.1,0-.2.7-.3,1.5-.1.8,0,1.4,0,1.5Z" style="fill:#455b64;"/><path d="M146,240.7c0,.2-.8.2-1.6.5-.8.3-1.4.8-1.5.7-.1,0,.3-.9,1.3-1.2,1-.4,1.9-.1,1.8,0Z" style="fill:#455b64;"/><path d="M129.6,185.1c.5.2,19.2,49.3,17.1,51.9-2.1,2.5-18.3,5.9-19.7,5-1.3-.9-16.3-49.8-16.3-49.8l18.9-7.1Z" style="fill:#263238;"/><polygon points="107.5 122.9 98.5 128.1 104 133.3 111 127.6 107.5 122.9" style="fill:#fbbd9d;"/><path d="M107.3,121.3c0-.1,2.4-5.2,3.8-7.2,1.4-2,1.2-3.9,2.4-4.2,1.2-.3,1.7,1.3,1.4,3-.3,1.8-1.8,2.9-1.2,3.4.6.5,10.1-2.5,10.1-2.5,0,0,1.1-1.4,2.2-.5,0,0,1.5-.6,1.6.6,0,1.3-2.8,1.7-2.8,1.7l-1,2.6-3.1,1.7s0,1.4-.8,2.4c-.8,1.1-1.5,1.7-1.6,1.7-.1,0-2.8,2.2-4.2,2.8-1.4.6-3.6,1.1-3.6,1.1l-3.4-4.7s-.2-.8.3-2Z" style="fill:#fbbd9d;"/><path d="M120.6,120.2s.3-1.2,0-2.2c-.3-1-2-5.2-2.4-5.2-.5,0-1.3-.2-1.3,1.1s1.2,3.9,1.2,4c0,0-.3.9-.2,2" style="fill:#fbbd9d;"/><path d="M117.8,119.8s0-.2,0-.6c0-.2,0-.4.1-.7,0-.1,0-.3.1-.4h0c0-.2,0-.3,0-.3,0,0,0-.2,0-.3-.3-.7-.6-1.5-.8-2.4-.1-.5-.2-1-.2-1.4,0-.2.1-.5.3-.6.2-.1.5-.1.8,0,0,0,.1,0,.2.2,0,.1.1.2.2.3.1.2.3.5.4.7.2.5.4.9.6,1.4.4.9.7,1.7.9,2.4.2.7.2,1.3.2,1.7,0,.4,0,.6,0,.6,0,0,0-.2.2-.6,0-.4.1-1,0-1.7-.2-.7-.5-1.5-.9-2.4-.2-.5-.4-.9-.6-1.4-.1-.2-.2-.5-.4-.7,0-.1-.1-.2-.2-.4,0,0,0-.1-.1-.2,0,0,0,0-.1,0,0,0,0,0-.1,0h0c-.3,0-.6,0-.9.1-.3.2-.4.5-.4.8,0,.6,0,1.1.2,1.5.3.9.6,1.8.9,2.4,0,0,0,.2.1.2,0,0,0,0,0,0h0c0,.3,0,.4,0,.6,0,.3,0,.5,0,.7,0,.4,0,.6,0,.6Z" style="fill:#ec996f;"/><path d="M110.2,122.8s.5-.3,1.4-.6c.5-.1,1.1-.2,1.7-.1.7,0,1.4.4,2,.8l.3.2v-.3c-.2-.8-.4-1.7-.5-2.7h0s0,0,0,0c0,0,0-.2,0-.3-.1-.6-.2-1.1-.1-1.6,0-.5.6-.8,1-.8.1,0,.2,0,.3.1,0,0,.1.2.2.3,0,.2.2.4.2.7.1.4.3.8.4,1.2.2.7.4,1.3.6,1.7.1.4.2.6.2.6,0,0,0-.2-.1-.7-.1-.4-.3-1-.5-1.8-.1-.4-.2-.8-.4-1.2,0-.2-.1-.4-.2-.7,0,0,0-.1,0-.2,0,0,0-.1-.1-.2-.1-.1-.3-.2-.4-.2-.3,0-.6,0-.9.2-.2.2-.4.5-.5.8-.1.6,0,1.2.1,1.7,0,.1,0,.2,0,.3h0c.2.9.3,1.8.5,2.7h.2c-.7-.6-1.5-.9-2.2-1-.7,0-1.3,0-1.8.2-.2,0-.5.2-.6.3-.2,0-.3.2-.4.2-.2.1-.3.2-.3.2Z" style="fill:#ec996f;"/><path d="M120.5,117.1s.7-.3,1.8-.9h0s0,0,0,0c.2-.3.4-.7.7-1.1.3-.4.6-.8.9-1.2.3-.3.6-.5.9-.6.3,0,.7,0,.9.2h0c-.3.6-.6,1.2-.8,1.6-.2.4-.3.7-.3.7,0,0,.2-.2.4-.6.2-.4.5-1,.9-1.7h0c0,0,0-.1,0-.1-.3-.3-.7-.4-1.2-.3-.4,0-.8.4-1.1.7-.4.4-.7.8-1,1.3-.3.4-.5.8-.7,1.2h0c-1.1.6-1.8,1-1.7,1.1Z" style="fill:#ec996f;"/><path d="M104.4,124.4s1.2-1,1.8-.6c.6.5,5.9,6.4,5.6,7.2-.3.8-1.3,1.8-1.3,1.8l-6.1-8.5Z" style="fill:#fff;"/><path d="M103.7,123.4l-13.3,7.7s-11.9-24.5-16.8-27.9c-4.9-3.4-9.3-3.4-9.3-3.4,1,.3,15.3,47.4,18.6,49.5,3.3,2.1,7.3,3.2,8.4,2.5,1.2-.7,20.2-18.4,20.2-18.4l-7.8-9.9Z" style="fill:#3a5fa0;"/><path d="M42.1,199.4h-3.3c-1.7,0-3.2-1.3-3.4-3-.6-5.3-1.9-20.1-1.9-20.3l2.3-.2c0,.1,1.3,14.9,1.9,20.2,0,.5.5.9,1.1.9h3.3v2.3Z" style="fill:#e0e0e0;"/><path d="M42.1,199.4s0,0,0-.2c0-.1,0-.3,0-.5,0-.4,0-1,0-1.7h0c-.5,0-1.1,0-1.8,0-.3,0-.7,0-1.1,0-.2,0-.4,0-.6,0-.2,0-.4-.1-.6-.3-.2-.2-.3-.4-.3-.6,0-.2,0-.4,0-.7,0-.4,0-.9-.1-1.4,0-1-.2-2-.3-3.1-.4-4.3-.9-9.5-1.5-15.2h.1c-.5.2-1.1.2-1.7.3-.2,0-.4,0-.6,0h.1c.7,7.7,1.4,14.8,1.9,20,0,1.3.9,2.3,1.8,2.7.9.5,1.8.4,2.5.4.7,0,1.3,0,1.7,0,.2,0,.3,0,.4,0,.1,0,.2,0,.2,0,0,0,0,0-.1,0-.1,0-.3,0-.4,0-.4,0-1,0-1.7,0-.4,0-.8,0-1.2,0-.4,0-.9-.1-1.4-.4-.9-.5-1.8-1.5-1.9-2.8-.5-5.2-1.2-12.3-2-20.1h0c0-.1.1-.1.1-.1.2,0,.4,0,.6,0,.6,0,1.2-.1,1.7-.1h.1s0,.1,0,.1c.5,5.6,1,10.8,1.4,15.2,0,1.1.2,2.1.3,3.1,0,.5,0,.9.1,1.4,0,.2,0,.5,0,.7,0,.2.1.4.3.5.1.1.3.2.5.3.2,0,.4,0,.6,0,.4,0,.7,0,1.1,0,.7,0,1.3,0,1.8,0h0s0,0,0,0c0,.7,0,1.3,0,1.8,0,.2,0,.3,0,.4,0,0,0,.1,0,.1Z" style="fill:#263238;"/><path d="M94.1,202.3h-52.1c-1.9,0-3.5-1.3-3.5-2.9h0c0-1.6,1.6-2.9,3.5-2.9h52.1c1.9,0,3.5,1.3,3.5,2.9h0c0,1.6-1.6,2.9-3.5,2.9Z" style="fill:#455b64;"/><path d="M30.9,177.9l-7.1-55.8c-.2-1.9,1.1-3.7,3-3.9h0c1.9-.2,3.7,1.1,3.9,3l7.1,55.8c.2,1.9-1.1,3.7-3,3.9h0c-1.9.2-3.7-1.1-3.9-3Z" style="fill:#455b64;"/><polygon points="93.8 200.1 101.5 257.1 98.4 257.1 86.9 202.3 93.8 200.1" style="fill:#455b64;"/><polygon points="42.6 200.1 35.1 257.1 38.2 257.1 49.5 202.3 42.6 200.1" style="fill:#455b64;"/><path d="M94.1,202.3c0,0-11.8.1-26.4.1s-26.4,0-26.4-.1,11.8-.1,26.4-.1,26.4,0,26.4.1Z" style="fill:#263238;"/><path d="M53.7,96.5s.6-2.3,1.3-2.3c.7,0,16.4,6,16.9,7s4.7,11.4,4.9,12.4c1.8,7.4,6.6,27.6,5.3,36.3-1.2,8.7,2.4,19.3.5,19.7-2,.4-9.2.2-11.1-2.7-2-3-13.3-65.2-14.5-66.5-1.2-1.3-3.3-3.8-3.3-3.8Z" style="fill:#fff;"/><path d="M74.7,168.6s48,5.1,53.5,9.4c5.5,4.3,5.9,10.1,4.8,14.8-1,4.7-16.5,48.8-17.7,49.4-1.2.6-21.2-6.9-21.2-6.9l13.2-37.2s-30,.2-39-1.8c-6.7-1.5-19.3-10-21.6-25.4l27.9-2.2Z" style="fill:#263238;"/><path d="M51.2,100.2c-.6,0-8.8,6.1-10,13.7-1.2,7.6,5.9,35.5,4.7,41.1-1.2,5.5-6.2,33.8-2.3,37.2,3.9,3.4,30.4,3.5,30.4,3.5,0,0,4.6-38.9,2.6-53.7-2.6-19-2.6-15.2-6.1-25.2-3.5-9.9-15.8-22.4-16.3-22.4-.6,0-2.8,5.9-2.8,5.9Z" style="fill:#3a5fa0;"/><path d="M74,128.1s0-.1-.2-.3c-.2-.2-.3-.5-.6-.9-.5-.8-1.3-2-2.2-3.4-1.9-2.8-4.6-6.7-7.6-11-.3-.4-.5-.7-.8-1.1h0c0,0,0-.1,0-.1.3-.7.5-1.4.8-2.1v.2c-.9-.6-1.8-1.1-2.6-1.6-.9-.5-1.7-1.1-2.4-1.7-1.5-1.1-2.7-2.2-3.8-3-1-.9-1.9-1.6-2.4-2.1-.3-.2-.5-.4-.6-.6-.1-.1-.2-.2-.2-.2,0,0,0,0,.2.2.2.1.4.3.7.5.6.5,1.5,1.2,2.5,2,1.1.9,2.3,1.9,3.8,3,.7.6,1.5,1.1,2.4,1.6.9.5,1.8,1,2.7,1.6h.1c0,0,0,.2,0,.2-.3.7-.5,1.4-.8,2.1h0c.3.2.5.6.8,1,3,4.3,5.7,8.2,7.5,11,.9,1.4,1.7,2.6,2.1,3.4.2.4.4.7.5,1,.1.2.2.3.2.3Z" style="fill:#263238;"/><path d="M50.8,136.4s8.5,18,13.5,21.2c5,3.1,12.7,4.6,12.7,4.6v-7.8s-26.2-18-26.2-18Z" style="opacity:.3;"/><path d="M117.2,137.4h0c.3.4.9.5,1.3.1l14.5-11.4c.4-.3.5-.9.1-1.3h0c-.3-.4-.9-.5-1.3-.1l-14.5,11.4c-.4.3-.5.9-.1,1.3Z" style="fill:#263238;"/><path d="M106.4,140.3c.1-.3,2-3.1,3.3-4,1.2-.9,6.5-3.5,7.2-3.8.7-.3,4.6.5,4.6.5l-2.2,1.7c-.8.3-1.9.2-1.9.2l-1.5,1.2,2.9-.5s4.8-2.9,5.6-2.5c.8.4.3,2-.3,2.6l-.5.7s.7,2-.2,2.7c-.9.7-2.5,1.9-2.5,1.9,0,0,0,2.6-1.3,3.3,0,0,.3,1.5-.7,2-1,.4-9.3,1.4-9.3,1.4l-4.3,2.3-2.7-8.3,3.9-1.4Z" style="fill:#fbbd9d;"/><path d="M123.4,136.4c0,0-.5.7-1.3,1.2-.8.6-1.6.8-1.7.7,0,0,.7-.5,1.5-1,.8-.5,1.5-1,1.5-.9Z" style="fill:#ec996f;"/><path d="M106.6,138.8s-2.8-.2-3.1,0c-.3.2.7,12,1.3,12.4s2.9-.4,3.4-.7c.5-.3.7-8.3-1.6-11.7Z" style="fill:#fff;"/><path d="M47,107.5c-.3.3-7.2,2.3-4.6,13.6,2.6,11.3,11.2,17.5,17,25.4,5.8,7.9,9.7,8.3,14.5,8.4,4.9,0,27.4-1.3,30.2-3.1,2.4-1.5,2.2-9.4.6-12.1-.3-.5-.6-.8-.9-.9-2.4-.7-24.3.9-25.2.3-.9-.6-14-22.2-17-26.6-3-4.3-12.9-6.4-14.6-5Z" style="fill:#3a5fa0;"/><path d="M47,107.5s.1-.1.4-.2c.3-.1.8-.2,1.4-.2,1.2,0,3,.2,5.2.8,1.1.3,2.3.8,3.6,1.4,1.2.6,2.6,1.4,3.7,2.7.5.6,1,1.4,1.5,2.1.5.7,1,1.5,1.5,2.3,1,1.6,2,3.2,3.1,5,2.2,3.5,4.6,7.3,7.1,11.4.7,1,1.3,2.1,2,3.1.7,1,1.4,2.1,2.1,3.1,0,0,0,.1.1.1,0,0,.1,0,.2,0,.1,0,.3,0,.5,0,.3,0,.6,0,1,0,.7,0,1.3,0,2,0,1.3,0,2.7,0,4-.1,2.7-.1,5.5-.2,8.3-.3,1.4,0,2.9,0,4.3-.1,1.5,0,2.9,0,4.4,0,.2,0,.4,0,.6.1.2,0,.4.2.5.4.3.3.5.6.6,1,.3.7.5,1.4.7,2.2.3,1.5.4,3,.3,4.6,0,.8-.1,1.5-.3,2.3-.2.8-.4,1.5-.9,2.2-.2.3-.5.6-.9.8-.4.2-.7.3-1.1.4-.8.2-1.5.3-2.3.5-3.1.5-6.2.8-9.2,1.1-3,.3-6,.5-9,.7-3,.2-5.9.3-8.7.3-1.4,0-2.8-.1-4.2-.4-1.4-.3-2.7-.9-3.8-1.6-2.3-1.5-4.1-3.5-5.7-5.6-.8-1-1.5-2-2.3-3-.8-1-1.6-1.9-2.4-2.8-3.2-3.6-6.3-6.9-8.5-10.4-1.1-1.7-2.1-3.5-2.8-5.2-.4-.8-.6-1.7-.9-2.5-.2-.8-.5-1.7-.7-2.5-.7-3.2-.7-6.1,0-8.3.7-2.2,2.1-3.6,3-4.2.5-.4.9-.6,1.2-.7.3-.1.4-.2.4-.2,0,0-.6.2-1.6.9-1,.7-2.3,2-3,4.2-.7,2.2-.7,5.1,0,8.2.2.8.4,1.6.7,2.4.3.8.6,1.7.9,2.5.7,1.7,1.7,3.4,2.8,5.1,2.2,3.5,5.3,6.8,8.5,10.4.8.9,1.6,1.8,2.4,2.8.8,1,1.6,2,2.3,3,1.6,2,3.3,4,5.6,5.5,1.1.7,2.4,1.3,3.7,1.6,1.3.3,2.7.4,4.2.4,2.8,0,5.7-.1,8.7-.3,3-.2,6-.4,9-.7,3-.3,6.1-.6,9.2-1.1.8-.1,1.5-.3,2.3-.5.7-.2,1.5-.4,1.9-1.1.4-.6.7-1.3.8-2.1.2-.7.2-1.5.3-2.3,0-1.5,0-3-.3-4.5-.1-.7-.3-1.4-.6-2.1-.3-.7-.7-1.3-1.5-1.3-1.4-.1-2.9-.1-4.4,0-1.4,0-2.9,0-4.3.1-2.8.1-5.6.2-8.3.3-1.4,0-2.7,0-4,.1-.7,0-1.3,0-2,0-.3,0-.7,0-1,0-.2,0-.3,0-.5,0,0,0-.2,0-.3,0,0,0-.2-.1-.2-.2-.8-1-1.5-2.1-2.2-3.2-.7-1.1-1.3-2.1-2-3.1-2.6-4.1-4.9-7.9-7.1-11.4-1.1-1.7-2.1-3.4-3.1-5-.5-.8-1-1.5-1.4-2.3-.5-.7-.9-1.5-1.4-2.1-1.1-1.2-2.4-2-3.6-2.7-1.2-.6-2.4-1.1-3.5-1.4-2.2-.7-4-.9-5.2-.9-.6,0-1.1,0-1.4.2-.3.1-.4.2-.4.2Z" style="fill:#263238;"/><path d="M122.8,187.5s-.2.1-.6.3c-.4.2-1,.5-1.7.8-1.5.7-3.4,1.8-5.5,3.1-2.1,1.3-3.9,2.7-5.2,3.7-.6.5-1.1.9-1.5,1.2-.4.3-.6.4-.6.4,0,0,.2-.2.5-.5.3-.3.8-.8,1.4-1.3,1.2-1.1,3-2.5,5.1-3.8,2.1-1.3,4.1-2.4,5.6-3.1.7-.3,1.4-.6,1.8-.8.4-.2.7-.2.7-.2Z" style="fill:#455b64;"/><path d="M119,193.4s-.6.2-1.7.6c-1.1.3-2.5.8-4.1,1.4-1.6.6-3,1.3-3.9,1.7-1,.5-1.6.8-1.6.7,0,0,.6-.4,1.5-.9,1-.5,2.4-1.2,3.9-1.8,1.6-.6,3-1.1,4.1-1.4,1.1-.3,1.7-.4,1.8-.4Z" style="fill:#455b64;"/><path d="M118.8,230.6l-8.3,15.7s13.3,13.3,12,16.4l-31.1-14.6,11.9-25,15.5,7.5Z" style="fill:#263238;"/><path d="M91.3,248l.9-2,29.9,14.8s.7,1.1.3,2.1l-31.2-14.8Z" style="fill:#455b64;"/><path d="M110.6,246.4c0,.2-.9-.1-1.9,0-1,.1-1.7.6-1.8.4-.1,0,.5-.9,1.7-1,1.2-.1,2,.5,1.9.6Z" style="fill:#455b64;"/><path d="M113.3,249.4c0,.2-.8.1-1.7.5-.8.4-1.3,1-1.5.9-.2,0,.2-1,1.2-1.5,1-.5,2-.1,1.9,0Z" style="fill:#455b64;"/><path d="M113.2,254.2c-.2,0,0-.9.8-1.5.8-.7,1.7-.6,1.7-.5,0,.2-.7.4-1.3.9-.7.5-1,1.1-1.2,1.1Z" style="fill:#455b64;"/><path d="M112.1,242.6c-.1.1-.7-.4-1.6-.8-.9-.4-1.7-.4-1.7-.6,0-.2.9-.4,1.9,0,1,.4,1.5,1.3,1.4,1.3Z" style="fill:#455b64;"/><path d="M90.6,137.2c0,0-.2-1.3,0-2.9.1-1.6.5-2.8.6-2.8,0,0-.1,1.3-.3,2.9-.1,1.6-.2,2.9-.2,2.9Z" style="fill:#263238;"/><path d="M91.7,138.2c0,0-.3-1.5-.4-3.3,0-1.8,0-3.3.1-3.3,0,0,0,1.5.2,3.3,0,1.8.2,3.3.1,3.3Z" style="fill:#263238;"/><path d="M77.5,107.8s0,0,.1.3c0,.2.2.5.4.8.3.7.7,1.8,1.2,3.2.9,2.7,2.1,6.5,3,10.7.9,4.3,1.4,8.2,1.7,11,.1,1.4.2,2.6.2,3.4,0,.4,0,.7,0,.9,0,.2,0,.3,0,.3,0,0,0-.1,0-.3,0-.2,0-.5,0-.9,0-.8-.2-1.9-.3-3.4-.3-2.8-.8-6.7-1.8-11-.9-4.2-2-8-2.9-10.7-.4-1.4-.8-2.4-1.1-3.2-.1-.3-.2-.6-.3-.9,0-.2,0-.3,0-.3Z" style="fill:#263238;"/><path d="M133.2,193.2s0,.1-.1.4c0,.3-.2.6-.3,1-.3.9-.8,2.2-1.3,3.8-1.1,3.2-2.6,7.6-4.3,12.5-1.7,4.9-3.2,9.3-4.4,12.5-.6,1.6-1.1,2.9-1.4,3.8-.2.4-.3.8-.4,1,0,.2-.1.3-.2.3,0,0,0-.1.1-.4,0-.3.2-.6.3-1,.3-.9.8-2.2,1.3-3.8,1.1-3.2,2.6-7.6,4.3-12.5,1.7-4.9,3.2-9.3,4.4-12.5.6-1.6,1.1-2.9,1.4-3.8.2-.4.3-.8.4-1,0-.2.1-.3.2-.3Z" style="fill:#455b64;"/><path d="M146.7,237.5s-.2.1-.7.3c-.4.2-1.1.5-1.9.8-1.6.6-3.9,1.4-6.5,2-2.6.6-5,.9-6.8,1-.9,0-1.6.1-2.1.1-.5,0-.8,0-.8,0s.3,0,.8,0c.5,0,1.2-.1,2.1-.2,1.7-.2,4.1-.5,6.7-1.1,2.6-.6,4.9-1.3,6.5-1.9.8-.3,1.5-.5,1.9-.7.5-.2.7-.3.7-.2Z" style="fill:#455b64;"/><path d="M53,76.1c-.6,0-1.2,0-1.7-.3-.5-.3-1-.7-1.2-1.3-.2-.6,0-1.2.4-1.6-.9-.2-1.5-1.1-1.4-2,.2-.9,1.1-1.5,2-1.3,0-1,.3-2.1.9-2.9l4.6,2.5-3.5,6.9Z" style="fill:#263238;"/><path d="M77.2,70c1.6.2,3.3-.8,3.8-2.3.2-.5.2-1,0-1.4-.2-.5-.6-.8-1-.9.6-.4,1.1-1.1,1.2-1.9.1-.8-.2-1.6-.8-2.1-.6-.5-1.5-.6-2.2-.1,0-.8-.5-1.7-1.3-2l-3.4.8,3.5,9.9Z" style="fill:#263238;"/><path d="M71.5,100.8v-4.9c0,0,7.6-1.4,7.7-8.5,0-3.5-.5-10.6-1.1-17.1-.6-6.9-6.5-12.2-13.4-12.2h-.7c-7.5.5-11.2,7.1-10.5,14.6l2.3,21.7,15.5,9.2.3-2.8Z" style="fill:#fbbd9d;"/><path d="M71.5,95.9s-4.5.4-9.4-1.9c0,0,2.2,4.4,9.4,3.7v-1.8Z" style="fill:#ec996f;"/><path d="M75.9,77.7c0,.5-.4,1-1,1-.6,0-1-.4-1.1-.9,0-.5.4-1,1-1,.6,0,1,.4,1.1.9Z" style="fill:#263238;"/><path d="M76.6,73.9c-.1.1-.9-.4-2-.4-1.1,0-1.9.6-2,.4,0,0,0-.3.4-.6.3-.3.9-.5,1.6-.5.7,0,1.3.2,1.6.5.3.3.5.5.4.6Z" style="fill:#263238;"/><path d="M66.4,77.7c0,.5-.4,1-1,1-.6,0-1-.4-1.1-.9,0-.5.4-1,1-1,.6,0,1,.4,1.1.9Z" style="fill:#263238;"/><path d="M65.7,74.2c-.1.1-.9-.4-2-.4-1.1,0-1.9.6-2,.4,0,0,0-.3.4-.6.3-.3.9-.5,1.6-.5.7,0,1.3.2,1.6.5.3.3.5.5.4.6Z" style="fill:#263238;"/><path d="M69.8,82.3c0,0,.7-.2,1.8-.3.3,0,.5,0,.6-.3,0-.2,0-.5-.2-.8-.3-.7-.6-1.4-.8-2.1-1.2-3-2-5.5-1.9-5.6.1,0,1.2,2.4,2.4,5.4.3.8.6,1.5.8,2.2.1.3.3.7.2,1.1,0,.2-.3.4-.5.4-.2,0-.3,0-.5,0-1.1,0-1.8,0-1.8,0Z" style="fill:#263238;"/><path d="M66,69.8c-.1.3-1.2.2-2.5.3-1.3.1-2.3.5-2.5.3,0-.1.1-.4.5-.7.4-.3,1.1-.6,1.9-.7.8,0,1.5,0,2,.2.5.2.7.4.7.6Z" style="fill:#263238;"/><path d="M76.1,70.7c-.2.3-1,0-1.9,0-.9,0-1.7.2-1.9,0,0-.1,0-.4.4-.6.3-.2.9-.4,1.5-.4.6,0,1.2.2,1.5.5.3.3.4.5.3.6Z" style="fill:#263238;"/><path d="M77.4,67.1s-1.9-4.5-4.1-5.5c-2.6-1.2-3.7,1.6-6.2,1-2.5-.7-5-1.9-7.6,0-2.8,2.1-1.5,3.6-1.6,6.8-.6,12.9-2.9,16.6-3.6,10.5,0-.7-1.9-1.2-2.2-4-.4-3.6-.6-8.1.2-10.7.7-2.2,1.9-3.7,4.1-5.4,3.5-2.7,8.3-2.7,11.6-2.4,3.3.3,9.7,4,9.4,9.7Z" style="fill:#263238;"/><path d="M54.7,79.7c0-1.1-1-2-2.1-1.9-1.3.1-2.8.9-2.7,3.7.2,4.9,5.1,3.7,5.1,3.6,0,0-.2-3.3-.3-5.4Z" style="fill:#fbbd9d;"/><path d="M53.8,83.3s0,0-.2.1c-.1,0-.4.1-.6,0-.5-.2-1-1-1.1-1.9,0-.4,0-.9.2-1.2.1-.4.4-.6.6-.7.3,0,.4,0,.5.2,0,.1,0,.2,0,.2,0,0,.1,0,0-.3,0,0,0-.2-.2-.3-.1,0-.3-.1-.5-.1-.4,0-.7.4-.9.8-.2.4-.3.9-.2,1.4,0,1,.6,1.9,1.3,2.1.3,0,.6,0,.8-.2.1-.1.2-.2.2-.2Z" style="fill:#ec996f;"/><path d="M70.7,66.2s0,0,0,0c0,0,0,0,0,0h-.1Z" style="fill:#3a5fa0;"/><path d="M79.6,57.6c-.5-1.2-1.6-2.1-2.9-2.4-1.3-.3-2.6-.1-3.9.2,0-1.8-1.9-3.1-3.7-3-1.8.1-3.3,1.2-4.8,2.3-2.2-1.3-5.4-.2-6.4,2.2-1.3-.7-3-.6-4.2.2-1.2.8-2,2.3-1.9,3.8-1.2.3-2.1,1.2-2.4,2.3-.3,1.1,0,2.4.9,3.2-.8.6-1.2,1.6-.9,2.6.3.9,1.2,1.6,2.2,1.6l3.4-3.3c2,.3,4-1.4,4-3.4,1.5.5,3.3,0,4.4-1.2.4.9,1.2,1.6,2.1,1.8.9.2,2,0,2.7-.8.2,1.3,1.2,2.5,2.4,2.9,1.3.4,2.7,0,3.6-1,1.3,1,3.3.8,4.3-.4,1.1-1.2,1-3.2-.1-4.4,1.2-.6,1.6-2.2,1.2-3.4Z" style="fill:#263238;"/><path d="M58.7,64.8s0,.2,0,.4c0,.3-.3.6-.7,1-.4.3-.9.6-1.6.6-.7,0-1.5-.3-2-.9h.3c-.2.3-.5.7-.9.9-.8.5-1.8.6-2.6.4-.8-.3-1.4-.8-1.7-1.4-.3-.5-.4-1.1-.4-1.4,0-.3,0-.5,0-.5,0,0,0,.8.5,1.8.3.5.8,1,1.5,1.2.7.2,1.6.1,2.3-.3.3-.2.6-.5.8-.8v-.2c.1,0,.3.2.3.2.5.5,1.1.8,1.7.8.6,0,1.1-.2,1.5-.5.7-.6.8-1.2.9-1.2Z" style="fill:#455b64;"/><path d="M70.2,85.2c-.9-.5-1.8-1-2.7-1.4,0,0-.2,0-.3,0-.2,0-.4.2-.5.4-.4.8-.2,1.9.5,2.6.7.6,1.8.8,2.6.4.4-.2.8-.8.9-1.2.1-.4,0-.5-.5-.7" style="fill:#ec996f;"/><path d="M69.5,87.1s-.5.4-1.4.2c-.4,0-.9-.3-1.3-.8-.3-.5-.5-1.2-.3-1.9,0-.2.1-.3.2-.5,0-.1.2-.3.3-.4.2-.1.4-.1.6,0,.2,0,.3.1.4.2.5.3.9.5,1.3.7.7.4,1.2.7,1.1.7s-.5-.2-1.3-.6c-.4-.2-.8-.4-1.3-.7-.2-.1-.5-.3-.7-.2-.2.1-.3.5-.4.7-.1.6,0,1.2.3,1.6.3.4.7.7,1.1.8.8.2,1.3,0,1.3,0Z" style="fill:#263238;"/><polygon points="222.2 160.1 60 160.7 61.9 154.4 217.6 154.4 222.2 160.1" style="fill:#c27460;"/><path d="M79.8,156.6s-6.6,107.2-4.6,107.8c1.9.6,5.8,1.3,6.6,0,.8-1.3,11.6-106.5,11.6-106.5l-13.5-1.4Z" style="fill:#c27460;"/><path d="M207.4,156.6s6.6,107.2,4.6,107.8c-1.9.6-5.8,1.3-6.6,0-.8-1.3-11.6-106.5-11.6-106.5l13.5-1.4Z" style="fill:#c27460;"/><path d="M215.4,160.2c0,0-34.7.3-77.6.4-42.8.1-77.6.2-77.6.1,0,0,34.7-.3,77.6-.4,42.8-.1,77.6-.2,77.6-.1Z" style="fill:#263238;"/></svg>