<?xml version="1.0" encoding="UTF-8"?><svg id="Layer_1" xmlns="http://www.w3.org/2000/svg" viewBox="0 0 310.9 274.6"><defs><style>.cls-1{fill:#ebebeb;}.cls-2{fill:#455b64;}.cls-3{fill:#263238;}.cls-4{fill:#3a5fa0;}.cls-5{fill:#fff;}.cls-6{opacity:.2;}.cls-7{opacity:.3;}.cls-8{fill:#ec996f;}.cls-9{fill:#f5f5f5;}.cls-10{fill:#fafbfb;}.cls-11{fill:#e0e0e0;}.cls-12{fill:#fbbd9d;}</style></defs><rect class="cls-9" x="81.3" y="28.6" width="28.4" height="89.9"/><rect class="cls-1" x="95.5" y="28.6" width="14.2" height="89.7"/><rect class="cls-9" x="84.5" y="19.8" width="10" height="8.8"/><rect class="cls-1" x="92.2" y="19.8" width="2.4" height="8.8"/><polyline class="cls-11" points="78.9 28.6 78.9 28.1 110.5 28.1 110.5 28.6"/><rect class="cls-10" x="86.9" y="32.5" width="2.4" height="5.1"/><path class="cls-11" d="M95.5,39.5c0,0-3.2,0-7.1,0s-7.1,0-7.1,0,3.2,0,7.1,0,7.1,0,7.1,0Z"/><rect class="cls-11" x="101.2" y="32.5" width="2.4" height="5.1"/><path class="cls-11" d="M109.8,39.5c0,0-3.2,0-7.1,0s-7.1,0-7.1,0,3.2,0,7.1,0,7.1,0,7.1,0Z"/><rect class="cls-11" x="101.2" y="42.5" width="2.4" height="5.1"/><path class="cls-11" d="M109.8,49.6c0,0-3.2,0-7.1,0s-7.1,0-7.1,0,3.2,0,7.1,0,7.1,0,7.1,0Z"/><rect class="cls-11" x="101.2" y="52.9" width="2.4" height="5.1"/><path class="cls-11" d="M109.8,59.9c0,0-3.2,0-7.1,0s-7.1,0-7.1,0,3.2,0,7.1,0,7.1,0,7.1,0Z"/><rect class="cls-11" x="101.2" y="63.2" width="2.4" height="5.1"/><path class="cls-11" d="M109.8,70.3c0,0-3.2,0-7.1,0s-7.1,0-7.1,0,3.2,0,7.1,0,7.1,0,7.1,0Z"/><rect class="cls-11" x="101.2" y="73.3" width="2.4" height="5.1"/><path class="cls-11" d="M109.8,80.4c0,0-3.2,0-7.1,0s-7.1,0-7.1,0,3.2,0,7.1,0,7.1,0,7.1,0Z"/><rect class="cls-11" x="101.2" y="83.4" width="2.4" height="5.1"/><rect class="cls-11" x="101.2" y="93.6" width="2.4" height="5.1"/><path class="cls-11" d="M109.8,90.5c0,0-3.2,0-7.1,0s-7.1,0-7.1,0,3.2,0,7.1,0,7.1,0,7.1,0Z"/><rect class="cls-10" x="86.9" y="42.7" width="2.4" height="5.1"/><path class="cls-11" d="M95.5,49.7c0,0-3.2,0-7.1,0s-7.1,0-7.1,0,3.2,0,7.1,0,7.1,0,7.1,0Z"/><rect class="cls-10" x="86.9" y="52.9" width="2.4" height="5.1"/><path class="cls-11" d="M95.5,59.9c0,0-3.2,0-7.1,0s-7.1,0-7.1,0,3.2,0,7.1,0,7.1,0,7.1,0Z"/><rect class="cls-10" x="86.9" y="63.1" width="2.4" height="5.1"/><path class="cls-11" d="M95.5,70.1c0,0-3.2,0-7.1,0s-7.1,0-7.1,0,3.2,0,7.1,0,7.1,0,7.1,0Z"/><rect class="cls-10" x="86.9" y="73.3" width="2.4" height="5.1"/><path class="cls-11" d="M95.5,80.4c0,0-3.2,0-7.1,0s-7.1,0-7.1,0,3.2,0,7.1,0,7.1,0,7.1,0Z"/><rect class="cls-10" x="86.9" y="83.5" width="2.4" height="5.1"/><path class="cls-11" d="M95.5,90.6c0,0-3.2,0-7.1,0s-7.1,0-7.1,0,3.2,0,7.1,0,7.1,0,7.1,0Z"/><rect class="cls-10" x="86.9" y="93.7" width="2.4" height="5.1"/><rect class="cls-9" x="185.2" y="47.7" width="28.4" height="89.9"/><rect class="cls-1" x="199.4" y="47.7" width="14.2" height="89.7"/><rect class="cls-9" x="188.4" y="38.9" width="10" height="8.8"/><rect class="cls-1" x="196.1" y="38.9" width="2.4" height="8.8"/><polyline class="cls-11" points="182.8 47.7 182.8 47.2 214.4 47.2 214.4 47.7"/><rect class="cls-10" x="190.8" y="51.5" width="2.4" height="5.1"/><path class="cls-11" d="M199.4,58.6c0,0-3.2,0-7.1,0s-7.1,0-7.1,0,3.2,0,7.1,0,7.1,0,7.1,0Z"/><rect class="cls-11" x="205.1" y="51.5" width="2.4" height="5.1"/><path class="cls-11" d="M213.7,58.6c0,0-3.2,0-7.1,0s-7.1,0-7.1,0,3.2,0,7.1,0,7.1,0,7.1,0Z"/><rect class="cls-11" x="205.1" y="61.6" width="2.4" height="5.1"/><path class="cls-11" d="M213.7,68.6c0,0-3.2,0-7.1,0s-7.1,0-7.1,0,3.2,0,7.1,0,7.1,0,7.1,0Z"/><rect class="cls-11" x="205.1" y="72" width="2.4" height="5.1"/><path class="cls-11" d="M213.7,79c0,0-3.2,0-7.1,0s-7.1,0-7.1,0,3.2,0,7.1,0,7.1,0,7.1,0Z"/><rect class="cls-11" x="205.1" y="82.3" width="2.4" height="5.1"/><path class="cls-11" d="M213.7,89.4c0,0-3.2,0-7.1,0s-7.1,0-7.1,0,3.2,0,7.1,0,7.1,0,7.1,0Z"/><rect class="cls-11" x="205.1" y="92.4" width="2.4" height="5.1"/><path class="cls-11" d="M213.7,99.4c0,0-3.2,0-7.1,0s-7.1,0-7.1,0,3.2,0,7.1,0,7.1,0,7.1,0Z"/><rect class="cls-11" x="205.1" y="102.5" width="2.4" height="5.1"/><rect class="cls-11" x="205.1" y="112.7" width="2.4" height="5.1"/><path class="cls-11" d="M213.7,109.5c0,0-3.2,0-7.1,0s-7.1,0-7.1,0,3.2,0,7.1,0,7.1,0,7.1,0Z"/><rect class="cls-10" x="190.8" y="61.7" width="2.4" height="5.1"/><path class="cls-11" d="M199.4,68.8c0,0-3.2,0-7.1,0s-7.1,0-7.1,0,3.2,0,7.1,0,7.1,0,7.1,0Z"/><rect class="cls-10" x="190.8" y="72" width="2.4" height="5.1"/><path class="cls-11" d="M199.4,79c0,0-3.2,0-7.1,0s-7.1,0-7.1,0,3.2,0,7.1,0,7.1,0,7.1,0Z"/><rect class="cls-10" x="190.8" y="82.2" width="2.4" height="5.1"/><path class="cls-11" d="M199.4,89.2c0,0-3.2,0-7.1,0s-7.1,0-7.1,0,3.2,0,7.1,0,7.1,0,7.1,0Z"/><rect class="cls-10" x="190.8" y="92.4" width="2.4" height="5.1"/><path class="cls-11" d="M199.4,99.4c0,0-3.2,0-7.1,0s-7.1,0-7.1,0,3.2,0,7.1,0,7.1,0,7.1,0Z"/><rect class="cls-10" x="190.8" y="102.6" width="2.4" height="5.1"/><path class="cls-11" d="M199.4,109.6c0,0-3.2,0-7.1,0s-7.1,0-7.1,0,3.2,0,7.1,0,7.1,0,7.1,0Z"/><rect class="cls-10" x="190.8" y="112.8" width="2.4" height="5.1"/><rect class="cls-1" x="203.1" y="82.6" width="45.9" height="60.6"/><rect class="cls-11" x="227.5" y="82.6" width="21.5" height="60.6"/><rect class="cls-9" x="212.7" y="90.8" width="4.1" height="10"/><rect class="cls-9" x="212.7" y="130.1" width="4.1" height="10"/><path class="cls-9" d="M227.5,104.8c0,.1-5.5.2-12.2.2s-12.2,0-12.2-.2,5.5-.2,12.2-.2,12.2,0,12.2.2Z"/><rect class="cls-9" x="212.7" y="110.6" width="4.1" height="10"/><path class="cls-9" d="M227.5,124.5c0,.1-5.5.2-12.2.2s-12.2,0-12.2-.2,5.5-.2,12.2-.2,12.2,0,12.2.2Z"/><rect class="cls-9" x="232" y="90.8" width="4.1" height="10"/><rect class="cls-9" x="241" y="90.8" width="4.1" height="10"/><rect class="cls-9" x="232" y="109.8" width="4.1" height="10"/><rect class="cls-9" x="241" y="109.8" width="4.1" height="10"/><rect class="cls-9" x="232" y="128.9" width="4.1" height="10"/><rect class="cls-9" x="241" y="128.9" width="4.1" height="10"/><rect class="cls-11" x="199.6" y="80.5" width="52.9" height="2.2"/><path class="cls-1" d="M249.3,82.9c0,.1-10.3.2-22.9.2s-22.9,0-22.9-.2,10.3-.2,22.9-.2,22.9,0,22.9.2Z"/><polygon class="cls-1" points="99.1 144.4 57.4 144.4 57.2 78.4 99 78.4 99.1 144.4"/><rect class="cls-11" x="78.1" y="78.4" width="20.9" height="66"/><rect class="cls-1" x="62" y="65.4" width="14.7" height="13"/><rect class="cls-11" x="73.2" y="65.4" width="3.5" height="13"/><rect class="cls-11" x="53.7" y="77.6" width="46.5" height=".8"/><rect class="cls-5" x="65.4" y="84.1" width="3.5" height="7.5"/><path class="cls-11" d="M78.1,94.4c0,0-4.7.1-10.4.1s-10.4,0-10.4-.1,4.7-.1,10.4-.1,10.4,0,10.4.1Z"/><rect class="cls-9" x="86.5" y="84.1" width="3.5" height="7.5"/><path class="cls-1" d="M99.1,94.4c0,0-4.7.1-10.4.1s-10.4,0-10.4-.1,4.7-.1,10.4-.1,10.4,0,10.4.1Z"/><rect class="cls-9" x="86.5" y="98.9" width="3.5" height="7.5"/><path class="cls-1" d="M99.1,109.2c0,0-4.7.1-10.4.1s-10.4,0-10.4-.1,4.7-.1,10.4-.1,10.4,0,10.4.1Z"/><rect class="cls-9" x="86.5" y="114.1" width="3.5" height="7.5"/><path class="cls-1" d="M99.1,124.5c0,0-4.7.1-10.4.1s-10.4,0-10.4-.1,4.7-.1,10.4-.1,10.4,0,10.4.1Z"/><rect class="cls-9" x="86.5" y="129.3" width="3.5" height="7.5"/><path class="cls-1" d="M99.1,139.7c0,0-4.7.1-10.4.1s-10.4,0-10.4-.1,4.7-.1,10.4-.1,10.4,0,10.4.1Z"/><rect class="cls-5" x="65.4" y="99.1" width="3.5" height="7.5"/><path class="cls-11" d="M78.1,109.5c0,0-4.7.1-10.4.1s-10.4,0-10.4-.1,4.7-.1,10.4-.1,10.4,0,10.4.1Z"/><rect class="cls-5" x="65.4" y="114.1" width="3.5" height="7.5"/><path class="cls-11" d="M78.1,124.5c0,0-4.7.1-10.4.1s-10.4,0-10.4-.1,4.7-.1,10.4-.1,10.4,0,10.4.1Z"/><rect class="cls-5" x="65.4" y="129.1" width="3.5" height="7.5"/><path class="cls-11" d="M78.1,139.5c0,0-4.7.1-10.4.1s-10.4,0-10.4-.1,4.7-.1,10.4-.1,10.4,0,10.4.1Z"/><path class="cls-9" d="M264.5,65.1c.2-1.6-2-2.9-3.7-3.1-.8,0-1.7,0-2.4-.2-1.7-.6-2.3-2.7-4-3.4-1.2-.5-2.6,0-3.8.5s-2.3,1.3-3.7,1.4c-1.1,0-2.4-.4-3.4.2-.7.4-1.1,1.3-1.8,1.8-.7.5-1.6.6-2.4.6-.8,0-1.7,0-2.5.4-.8.3-1.4,1.2-1.2,2l28.9-.3Z"/><path class="cls-1" d="M193.9,19.3c.3-2.5-3.2-4.6-5.9-4.8-1.3-.1-2.6,0-3.8-.3-2.6-.9-3.6-4.3-6.2-5.3-1.9-.8-4.1,0-5.9.8-1.8.9-3.7,2.1-5.7,2.2-1.8.1-3.7-.5-5.3.3-1.2.7-1.8,2-2.9,2.8-1.1.8-2.4.9-3.7,1-1.3,0-2.7,0-3.8.6-1.2.5-2.2,1.8-1.9,3.1l45.2-.4Z"/><path class="cls-9" d="M73.2,54.1c.3-2-2.5-3.6-4.7-3.8-1,0-2.1,0-3-.3-2.1-.7-2.9-3.4-4.9-4.3-1.5-.6-3.3,0-4.7.7-1.5.7-2.9,1.7-4.6,1.8-1.4,0-3-.4-4.2.3-.9.5-1.4,1.6-2.3,2.2-.8.6-1.9.8-3,.8-1,0-2.1,0-3.1.5-.9.4-1.7,1.4-1.5,2.5l36-.4Z"/><path class="cls-4" d="M52.4,98.2c-6.7.2-12.1,5.6-12.2,12.2,0,2.8.8,5.5,2.4,7.6h0s.1.2.1.2c0,0,0,0,0,0l8.9,12.1c.8,1.1,2.4,1,3.1,0l8-11.9c1.5-2.3,2.6-4.7,2.6-7.6,0-7-5.8-12.7-12.8-12.5ZM52.7,119.9c-5.2,0-9.4-4.2-9.4-9.4s4.2-9.4,9.4-9.4,9.4,4.2,9.4,9.4-4.2,9.4-9.4,9.4Z"/><g class="cls-7"><path d="M52.4,98.2c-6.7.2-12.1,5.6-12.2,12.2,0,2.8.8,5.5,2.4,7.6h0s.1.2.1.2c0,0,0,0,0,0l8.9,12.1c.8,1.1,2.4,1,3.1,0l8-11.9c1.5-2.3,2.6-4.7,2.6-7.6,0-7-5.8-12.7-12.8-12.5ZM52.7,119.9c-5.2,0-9.4-4.2-9.4-9.4s4.2-9.4,9.4-9.4,9.4,4.2,9.4,9.4-4.2,9.4-9.4,9.4Z"/></g><path class="cls-4" d="M51.7,98.2c-6.7.2-12.1,5.6-12.2,12.2,0,2.8.8,5.5,2.4,7.6h0s.1.2.1.2c0,0,0,0,0,0l8.9,12.1c.8,1.1,2.4,1,3.1,0l8-11.9c1.5-2.3,2.6-4.7,2.6-7.6,0-7-5.8-12.7-12.8-12.5ZM52,118.2c-3.9,0-7.1-3.2-7.1-7.1s3.2-7.1,7.1-7.1,7.1,3.2,7.1,7.1-3.2,7.1-7.1,7.1Z"/><path class="cls-4" d="M249.1,86.3c-5.1.1-9.2,4.2-9.3,9.3,0,2.2.6,4.2,1.8,5.8h0s0,.1,0,.1c0,0,0,0,0,0l6.8,9.2c.6.8,1.8.8,2.4,0l6.1-9.1c1.2-1.8,2-3.6,2-5.8,0-5.4-4.4-9.7-9.8-9.6ZM249.3,102.8c-4,0-7.2-3.2-7.2-7.2s3.2-7.2,7.2-7.2,7.2,3.2,7.2,7.2-3.2,7.2-7.2,7.2Z"/><g class="cls-7"><path d="M249.1,86.3c-5.1.1-9.2,4.2-9.3,9.3,0,2.2.6,4.2,1.8,5.8h0s0,.1,0,.1c0,0,0,0,0,0l6.8,9.2c.6.8,1.8.8,2.4,0l6.1-9.1c1.2-1.8,2-3.6,2-5.8,0-5.4-4.4-9.7-9.8-9.6ZM249.3,102.8c-4,0-7.2-3.2-7.2-7.2s3.2-7.2,7.2-7.2,7.2,3.2,7.2,7.2-3.2,7.2-7.2,7.2Z"/></g><path class="cls-4" d="M248.5,86.3c-5.1.1-9.2,4.2-9.3,9.3,0,2.2.6,4.2,1.8,5.8h0s0,.1,0,.1c0,0,0,0,0,0l6.8,9.2c.6.8,1.8.8,2.4,0l6.1-9.1c1.2-1.8,2-3.6,2-5.8,0-5.4-4.4-9.7-9.8-9.6ZM248.7,101.5c-3,0-5.4-2.4-5.4-5.4s2.4-5.4,5.4-5.4,5.4,2.4,5.4,5.4-2.4,5.4-5.4,5.4Z"/><polygon class="cls-5" points="59.3 143.3 17.4 247.4 96 234.4 153.6 247.4 212.6 234.4 291.6 249.5 249.3 143.3 202.2 131.4 154.5 140.5 105.7 131.4 59.3 143.3"/><path class="cls-3" d="M59.3,143.3s.3,0,.8-.2c.5-.1,1.3-.3,2.3-.6,2-.5,5-1.3,9-2.3,7.9-2,19.5-5,34.4-8.8h0s0,0,0,0c13.4,2.5,29.9,5.6,48.7,9.1h0c14.3-2.7,30.4-5.8,47.7-9.1h0s0,0,0,0c14.6,3.7,30.5,7.7,47.2,11.9h0s0,0,0,0c12.9,32.5,27.2,68.3,42.3,106.2v.3c.1,0-.2,0-.2,0-13-2.5-26.7-5.1-40.6-7.7-13-2.5-25.8-4.9-38.3-7.3h0c-20.3,4.4-40,8.8-59,12.9h0s0,0,0,0c-20.1-4.5-39.4-8.8-57.6-12.9h0c-28.9,4.7-55.3,9.1-78.6,12.9h-.2s0-.2,0-.2c13-32.1,23.5-58.2,30.7-76.2,3.6-9,6.5-16,8.4-20.7,1-2.4,1.7-4.2,2.2-5.4.5-1.2.8-1.8.8-1.8,0,0-.2.6-.7,1.8-.5,1.2-1.2,3-2.2,5.4-1.9,4.7-4.7,11.7-8.3,20.7-7.2,18-17.7,44-30.6,76.2v-.2c23.2-3.8,49.6-8.2,78.5-12.9h0s0,0,0,0c18.3,4.1,37.6,8.4,57.6,12.9h0c19-4.2,38.7-8.5,59-12.9h0s0,0,0,0c12.6,2.4,25.4,4.8,38.3,7.3,13.9,2.7,27.6,5.3,40.6,7.7l-.2.2c-15.1-37.9-29.3-73.8-42.3-106.2h0c-16.6-4.1-32.5-8.1-47.2-11.8h0c-17.3,3.3-33.4,6.4-47.7,9.1h0s0,0,0,0c-18.8-3.5-35.3-6.6-48.7-9.1h0c-14.9,3.8-26.5,6.7-34.4,8.7-4,1-7,1.8-9,2.3-1,.3-1.8.4-2.3.6-.5.1-.8.2-.8.2Z"/><polygon class="cls-5" points="61.7 146.1 24.7 242.1 95.6 230.6 154.5 244.2 212.6 230.3 284.9 244.2 246.9 146.1 202.9 135.2 154.5 144.3 105 135.2 61.7 146.1"/><polygon class="cls-2" points="28.8 231.5 85.2 218.4 83.1 206.3 87.8 203.3 80.5 175 58 155.9 28.8 231.5"/><polygon class="cls-1" points="24.7 242.1 27.4 235 122 213 127.1 227.2 125.4 230 107.7 233.4 95.6 230.6 24.7 242.1"/><polygon class="cls-1" points="127.1 211.7 130.8 225.7 141.7 230.4 157.2 223.5 189.7 214 179.6 198.8 127.1 211.7"/><polygon class="cls-11" points="89.3 216.9 106.9 213 103.4 201.6 90.6 204.7 87.2 207.1 89.3 216.9"/><polygon class="cls-2" points="85.7 179 92.1 200 102.1 197.8 100.3 189.7 122.2 184.8 85.7 179"/><polygon class="cls-1" points="59.6 151.6 87.2 173.7 123.8 180.6 162.9 170.9 145 142.6 105 135.2 61.7 146.1 59.6 151.6"/><polygon class="cls-1" points="150.4 143.6 207.6 231.5 212.6 230.3 157.2 143.8 154.5 144.3 150.4 143.6"/><polygon class="cls-11" points="104 191.9 111.2 213 175.6 196.6 163.7 176.3 104 191.9"/><polyline class="cls-11" points="139.8 240.8 140.4 239.9 144.7 233.6 154.8 230.4 161.8 225.1 192.1 216.9 201.5 232.9 154.5 244.2"/><polygon class="cls-11" points="193.4 137 208.6 153.9 246.9 146.1 202.9 135.2 193.4 137"/><polygon class="cls-11" points="254.9 166.8 226.8 174.6 212.6 155.9 247.8 148.5 254.9 166.8"/><polygon class="cls-1" points="160.2 143.2 189.7 185.6 223.7 175.8 189.7 137.7 160.2 143.2"/><polygon class="cls-11" points="242.6 236 276.6 222.7 284.9 244.2 242.6 236"/><polygon class="cls-2" points="207 183 225.5 178.2 245 201.6 226 207.9 207 183"/><polygon class="cls-11" points="229.7 176.3 250.2 199.9 265.7 194.7 255.5 168.4 229.7 176.3"/><polygon class="cls-2" points="245 230.5 229.7 209.2 266.8 197.4 274.3 216.9 269.5 221.7 245 230.5"/><polygon class="cls-11" points="191.5 188.7 219.7 231.5 237.1 235 240.3 233.5 204.6 184.7 191.5 188.7"/><polygon class="cls-11" points="75.9 220.6 68.9 187.5 44.1 191.8 28.8 231.5 75.9 220.6"/><polygon class="cls-2" points="98.7 136.8 98.7 152 104 152.6 118.8 169.9 131.5 168.4 137.6 177.2 123.8 180.6 87.2 173.7 59.6 151.6 61.7 146.1 98.7 136.8"/><polygon class="cls-11" points="176.1 140.4 196.9 170.7 214.9 165.9 189.7 137.7 176.1 140.4"/><polygon class="cls-1" points="237.2 171.8 229.7 160 250 154.2 254.9 166.8 237.2 171.8"/><polygon class="cls-1" points="207 212.3 216.9 208.9 236 234.8 219.7 231.5 207 212.3"/><polygon class="cls-2" points="116.2 235.4 125.3 234.2 128.4 229.8 139.8 233.4 136.8 240.1 116.2 235.4"/><path class="cls-3" d="M61.7,146.1s1-.3,2.9-.7c1.9-.5,4.7-1.2,8.4-2.1,7.4-1.9,18.2-4.6,32.1-8.1h0s0,0,0,0c13.5,2.5,30.2,5.5,49.4,9.1h0c14.5-2.7,30.8-5.8,48.4-9.1h0s0,0,0,0c13.8,3.4,28.5,7,44,10.8h0s0,0,0,0c11.7,30,24.5,63.2,38.1,98.2v.3c0,0-.2,0-.2,0-11.6-2.2-23.9-4.6-36.3-7-12.2-2.4-24.2-4.7-36-7h0c-20,4.8-39.5,9.5-58.2,14h0s0,0,0,0c-20.6-4.8-40.3-9.3-58.9-13.6h0c-26.1,4.2-49.9,8.1-70.9,11.5h-.2s0-.1,0-.1c11.5-29.7,20.7-53.7,27.1-70.3,3.2-8.3,5.7-14.7,7.4-19.1.8-2.2,1.5-3.8,1.9-5,.4-1.1.7-1.7.7-1.7,0,0-.2.6-.6,1.7-.4,1.1-1.1,2.8-1.9,5-1.7,4.4-4.2,10.8-7.3,19.1-6.4,16.6-15.6,40.6-27,70.3h-.1c21-3.6,44.9-7.5,70.9-11.7h0s0,0,0,0c18.6,4.3,38.2,8.8,58.9,13.6h0c18.7-4.5,38.1-9.2,58.2-14h0s0,0,0,0c11.8,2.3,23.9,4.6,36,7,12.4,2.4,24.7,4.8,36.3,7l-.2.2c-13.6-34.9-26.4-68.1-38.1-98.2h0c-15.5-3.7-30.3-7.4-44-10.8h0c-17.6,3.3-33.9,6.4-48.4,9.1h0s0,0,0,0c-19.2-3.5-35.9-6.6-49.4-9.1h0c-13.9,3.4-24.7,6.1-32.1,8-3.7.9-6.5,1.6-8.4,2.1-1.9.5-2.9.7-2.9.7Z"/><g class="cls-6"><polygon points="153.6 247.4 154.5 140.5 105.7 131.4 96 234.4 153.6 247.4"/></g><g class="cls-6"><polygon points="202.2 131.4 212.6 234.4 291.6 249.5 249.3 143.3 202.2 131.4"/></g><path class="cls-4" d="M154.8,39.3c-34,.8-61.8,28.5-62.6,62.6-.3,14.6,4.2,28.1,12.1,39h0s.6.9.6.9c0,0,0,0,0,.1l45.4,61.8c4,5.4,12.2,5.3,16-.3l41.1-61c7.8-11.9,13.1-24.2,13.1-38.8,0-35.9-29.6-65-65.7-64.1ZM156.4,150.1c-26.6,0-48.2-21.6-48.2-48.2s21.6-48.2,48.2-48.2,48.2,21.6,48.2,48.2-21.6,48.2-48.2,48.2Z"/><g class="cls-7"><path d="M154.8,39.3c-34,.8-61.8,28.5-62.6,62.6-.3,14.6,4.2,28.1,12.1,39h0s.6.9.6.9c0,0,0,0,0,.1l45.4,61.8c4,5.4,12.2,5.3,16-.3l41.1-61c7.8-11.9,13.1-24.2,13.1-38.8,0-35.9-29.6-65-65.7-64.1ZM156.4,150.1c-26.6,0-48.2-21.6-48.2-48.2s21.6-48.2,48.2-48.2,48.2,21.6,48.2,48.2-21.6,48.2-48.2,48.2Z"/></g><path class="cls-4" d="M151,39.3c-34,.8-61.8,28.5-62.6,62.6-.3,14.6,4.2,28.1,12.1,39h0s.6.9.6.9c0,0,0,0,0,.1l45.4,61.8c4,5.4,12.2,5.3,16-.3l41.1-61c7.8-11.9,13.1-24.2,13.1-38.8,0-35.9-29.6-65-65.7-64.1ZM152.6,150.1c-26.6,0-48.2-21.6-48.2-48.2s21.6-48.2,48.2-48.2,48.2,21.6,48.2,48.2-21.6,48.2-48.2,48.2Z"/><g class="cls-7"><path d="M180.3,138.3c-.8.9-51.8,14.3-52.6,15.2,9.8,3,21.7,5.6,31.9,5,5.8-.3,11.8-1.4,16.3-4.9,4.6-3.5,7.1-10.2,4.3-15.3Z"/></g><path class="cls-3" d="M131.6,40.9c-3,3.1-4.3,7.7-3.3,11.9.4,2,1.3,4.3.2,6.1-1.1,1.7-3.7,2.1-4.8,3.8-1.2,2.1.4,4.7.2,7.1-.2,2.3-2.3,4.2-4.6,4.2,2.9,1.8,6.3,2.7,9.8,2.7.7-1.2,1.4-2.4,2.1-3.7-.8,1.3-.3,3.1.8,4.1,1.1,1,2.7,1.5,4.2,1.7,7.2,1.2,14.9-1.2,20.2-6.2"/><path class="cls-3" d="M172.8,53.7c-.7-1.5-1.8-2.8-2.4-4.4-1.2-3.4,0-7.5-2.2-10.4-1.5-2.1-4.2-2.8-6.8-3.2-2.5-.4-5.2-.7-7.3-2.2-1.5-1.1-2.5-2.8-4-3.9-2.1-1.6-5-1.8-7.7-1.6-2.7.2-5.5.9-7.8,2.4-2.3,1.5-4,4.1-4,6.8,0,1.3.3,2.7,0,4-.3,1.4-1.2,2.7-1.7,4.1-1,2.9.3,6.5,2.9,8.1l22,21.5c4.1.9,13.4-2.2,16-5.5,2.6-3.3,4.7-11.8,2.8-15.6Z"/><path class="cls-12" d="M132,50.1c0-5.6,3.3-12.6,8.8-12.4l17.5,3.3c1.7,0,3,1.4,3.1,3.1l.8,41.8s0,0,.1,0c0,0-3.2,12-14.8,9.2-2.3-.6-3.5-3-4.1-5.5h-.1c0-.3,0-.6,0-.8-.6-2.9-.4-5.7-.4-5.7h0c-.3-3.4-.3-4.7-.3-4.7,0,0-7.2-.7-9.2-9.9-1-4.6-1.3-12.1-1.3-18.3Z"/><path class="cls-3" d="M148.1,55.9c0,.6.6,1.1,1.2,1.1.7,0,1.2-.5,1.2-1.1,0-.6-.6-1.1-1.2-1.1-.7,0-1.2.5-1.2,1.1Z"/><path class="cls-3" d="M136,56.8c0,.6.6,1.1,1.2,1.1.7,0,1.2-.5,1.2-1.1,0-.6-.6-1.1-1.2-1.1-.7,0-1.2.5-1.2,1.1Z"/><path class="cls-3" d="M133.4,54.2c.2.2,1.2-.6,2.5-.6,1.4,0,2.4.8,2.6.6,0,0,0-.4-.5-.8-.4-.4-1.2-.7-2-.7-.9,0-1.6.4-2,.8-.4.4-.6.7-.5.8Z"/><path class="cls-3" d="M146.3,53.8c.2.2,1.2-.8,2.6-.9,1.5-.2,2.6.5,2.8.3,0,0-.1-.4-.6-.7-.5-.3-1.3-.6-2.2-.5-.9,0-1.7.5-2.1,1-.4.4-.5.8-.5.9Z"/><path class="cls-3" d="M142.4,63.2c0,0-.8-.2-2.1-.2-.3,0-.6,0-.7-.3,0-.2,0-.6.2-1,.3-.8.5-1.7.8-2.5,1.1-3.6,1.9-6.6,1.8-6.6-.1,0-1.2,2.9-2.3,6.5-.3.9-.5,1.7-.8,2.6-.1.4-.3.8,0,1.3.1.2.4.4.6.4.2,0,.4,0,.6,0,1.3,0,2.1,0,2.1-.1Z"/><path class="cls-8" d="M142.5,78.4s6.3,0,12.2-4.1c0,0-2.6,6.5-11.9,6.3l-.3-2.2Z"/><path class="cls-4" d="M143.2,66.2c.4-.6,1.2-1,2-1,.6,0,1.1.3,1.5.7.4.4.5,1.1.2,1.5-.3.5-1,.7-1.6.5-.6-.1-1.2-.5-1.7-.9-.1-.1-.3-.2-.4-.4,0-.1-.1-.3,0-.5"/><path class="cls-3" d="M146.2,63.8c-.2,0-.1,1.4-1.2,2.4-1.1,1.1-2.6,1-2.6,1.2,0,0,.3.2,1,.2.6,0,1.5-.3,2.2-.9.7-.6.9-1.5,1-2,0-.6-.2-.9-.3-.9Z"/><path class="cls-3" d="M145.8,49.5c.1.3,1.4,0,2.9.2,1.5,0,2.7.4,2.9,0,0-.2-.2-.5-.7-.8-.5-.3-1.3-.6-2.2-.6-.9,0-1.7.2-2.3.4-.5.3-.8.5-.7.7Z"/><path class="cls-3" d="M134.1,50.2c.3.3,1.3,0,2.5-.2,1.2-.1,2.2,0,2.5-.3,0-.2,0-.4-.5-.7-.5-.2-1.2-.4-2-.3-.8,0-1.5.4-1.9.7-.4.3-.5.6-.4.8Z"/><path class="cls-3" d="M162.3,41.9c-1-1.2-2.6-1.6-4.2-2-6.6-1.5-13.3-2.3-20.1-2.2-.6,1.5.4,3.2,1.8,4,1.4.8,3,1,4.6,1.3,1.6.3,3.2,1,4,2.4.9,1.5.6,3.4,1.4,4.9,1.4,2.6,5.3,3,6.7,5.6,1,2,.1,4.4.1,6.6,0,2.5,1.3,5,3.3,6.5,1.6,1.2,3.7,1.6,5.7,1.4-.6-7.9-1.3-15.9-1.9-23.8-.1-1.7-.3-3.4-1.4-4.7Z"/><path class="cls-3" d="M180.9,59.5c-1.4-.9-3.1-1.7-3.8-3.2-1-2.2.4-5.2-1.1-7.2-1.4-1.8-4.6-1.2-5.9-3.1-1-1.4-.3-2.9-.8-4.2-.5-1.3-2.6-2.2-3.9-1.9l-8.6,17.1c-.3,5.4-.9,8.3.7,11.2.9,1.6,1.9,3.1,2.4,4.8s.3,3.8-1,5.1c6.5-.4,12-4.6,17.2-8.6,1.8-1.4,3.6-2.8,5.4-4.3.6-.4,1.1-.9,1.4-1.6.7-1.5-.6-3.2-2-4.2Z"/><path class="cls-2" d="M176.1,67.9s-.2.1-.7.2c-.4.1-1.1.2-2,.1-.9,0-2-.4-3-1.1-1-.7-2-1.9-2.4-3.5-.2-.8-.3-1.6-.1-2.5.1-.9.5-1.7.9-2.6.4-.8.8-1.7.9-2.7.1-.9,0-2-.7-2.7-.7-.7-1.8-.7-2.9-1-.5-.1-1.1-.4-1.5-.8-.4-.4-.6-1-.7-1.6-.2-1.2.2-2.3.3-3.4,0-.6,0-1.1-.2-1.6-.2-.5-.6-.9-1.1-1.2-1-.5-2.2-.5-3.4-.4-1.2,0-2.4,0-3.4-.5-1.1-.5-2-1.2-2.6-2.1-.6-.9-1-2-1.3-3-.3-1-.6-2-1-2.8-.5-.8-1.1-1.5-1.8-2.1-1.5-1.1-3.2-1.5-4.7-1.4-1.5,0-2.9.7-3.9,1.4-1,.7-1.7,1.5-2.2,2.2-1,1.4-1.2,2.4-1.2,2.4,0,0,0,0,0-.2,0-.1,0-.3.2-.5.2-.4.4-1.1.9-1.8.5-.7,1.2-1.6,2.2-2.3,1-.7,2.4-1.4,4-1.5,1.6-.1,3.4.3,4.9,1.4.8.6,1.4,1.3,1.9,2.2.5.9.8,1.9,1.1,2.9.3,1,.6,2,1.2,2.9.6.9,1.5,1.6,2.5,2,1,.5,2.1.5,3.3.5,1.1,0,2.4-.1,3.6.5.6.3,1,.8,1.3,1.4.2.6.3,1.2.2,1.8,0,1.2-.4,2.3-.3,3.4,0,.5.2,1,.6,1.4.3.4.8.6,1.3.7.5.1,1,.2,1.6.3.5.1,1.1.4,1.5.8.8.8.9,2,.8,3-.1,1-.6,1.9-.9,2.7-.4.8-.7,1.6-.9,2.5-.1.8,0,1.6.1,2.4.4,1.5,1.2,2.7,2.2,3.4,1,.7,2,1,2.9,1.1,1.7.2,2.7-.3,2.7-.2Z"/><path class="cls-3" d="M183.1,55.7s.2.1.3.5c.1.3.2.9,0,1.6-.1.3-.4.7-.7,1-.3.3-.8.5-1.3.6-1,.2-2.3-.3-3.1-1.4-.4-.5-.6-1.2-.7-1.9,0-.7,0-1.5.2-2.2.3-1.5,1.1-2.9.8-4.6,0-.8-.4-1.6-1.1-2.1-.7-.5-1.6-.5-2.4-.4-.9,0-1.8.3-2.8.1-.5-.1-1-.4-1.3-.8-.3-.4-.5-.9-.7-1.4-.3-1-.2-2-.2-2.9,0-.9-.2-1.8-.5-2.6-.7-1.6-2-2.9-3.5-3.5-1.5-.6-3.1-.5-4.6-.4-1.5.1-2.9.2-4.2,0-1.3-.3-2.3-.8-3.1-1.4-.8-.6-1.4-1.2-1.9-1.8-.9-1.1-1.1-1.9-1.1-1.9,0,0,.3.7,1.2,1.8.4.5,1,1.2,1.9,1.7.8.6,1.8,1.1,3.1,1.3,1.2.3,2.6.2,4.1,0,1.5-.1,3.1-.3,4.8.4,1.6.6,3,2,3.7,3.7.4.9.6,1.8.6,2.8,0,.9,0,1.9.2,2.8.2.9.8,1.7,1.7,1.9.9.2,1.8,0,2.7-.1.9-.1,1.9-.1,2.7.5.8.6,1.1,1.5,1.2,2.4.1.9,0,1.7-.3,2.5-.2.8-.5,1.5-.6,2.2-.2.7-.3,1.4-.2,2.1,0,.7.3,1.3.7,1.8.7,1,1.9,1.5,2.8,1.3.5,0,.9-.2,1.2-.5.3-.3.5-.6.7-.9.3-.6.2-1.2.1-1.6-.1-.4-.2-.5-.2-.5Z"/><path class="cls-3" d="M115.9,69c0,0-.3.7.3,1.7.3.5.8,1,1.5,1.2.7.1,1.7-.2,2.3-1,.3-.4.4-.9.4-1.4,0-.5-.2-1.1-.5-1.6-.5-1-1.4-2.1-1.4-3.6-.1-1.4.4-2.9,1.4-4,.5-.5,1.2-1,1.9-1.3.7-.3,1.5-.5,2.2-.6.8-.1,1.5-.3,2.2-.5.7-.3,1.3-.7,1.6-1.3.3-.6.4-1.3.4-2,0-.7-.2-1.3-.4-2-.4-1.2-1-2.4-1.1-3.7-.1-1.2.2-2.4.7-3.3.5-.9,1.2-1.5,1.8-2.1.6-.5,1.1-1,1.5-1.4.8-.8.8-1.5.9-1.5,0,0,0,0,0,.1,0,0,0,.2,0,.3,0,.3-.3.7-.7,1.1-.4.5-.9.9-1.5,1.5-.6.5-1.3,1.1-1.8,2-.5.9-.7,2-.6,3.1.1,1.2.7,2.3,1.1,3.6.2.6.4,1.3.5,2,0,.7,0,1.5-.4,2.2-.4.7-1,1.2-1.8,1.5-.7.3-1.5.4-2.3.6-.8.1-1.5.3-2.2.6-.7.3-1.3.7-1.7,1.2-1,1-1.5,2.4-1.4,3.7,0,1.3.9,2.4,1.4,3.5.3.6.4,1.1.5,1.7,0,.6-.1,1.2-.4,1.6-.6.9-1.7,1.2-2.5,1-.8-.2-1.4-.8-1.6-1.3-.3-.5-.3-1-.2-1.3,0-.3.1-.4.1-.4Z"/><path class="cls-2" d="M118.1,104.8s1-7.9,4.8-11.8c3.8-3.9,19.7-8.9,19.7-8.9,0,0,.7,5.6,4.5,7,4,1.4,8.6.9,11.6-2.5,2.9-3.3,3.7-7.6,3.7-7.6,0,0,19,1.7,22.1,7,3.1,5.2,7.1,25.4,7.1,25.4l-17.8,3.8,2.4,34.8h-47.2l.9-32.6-12.9,1.8,1-16.3Z"/><path class="cls-3" d="M170.2,118.2s0-.3,0-.8c0-.5,0-1.2,0-2.1,0-1.8,0-4.3,0-7,0-2.8.1-5.2.2-7,0-.9,0-1.6.1-2.1,0-.5,0-.8,0-.8s0,.3,0,.8c0,.5,0,1.2,0,2.1,0,1.8,0,4.3,0,7,0,2.8-.1,5.2-.2,7,0,.9,0,1.6-.1,2.1,0,.5,0,.8,0,.8Z"/><path class="cls-3" d="M125.5,103.9c.1,0,1.2,3.5,2.5,7.9,1.3,4.4,2.2,8,2.1,8-.1,0-1.2-3.5-2.5-7.9-1.3-4.4-2.2-8-2.1-8Z"/><path class="cls-3" d="M182.4,86.6c0,0-.8.2-2.1.7-1.3.5-3,1.4-4.6,2.8-1.6,1.4-2.7,3-3.4,4.2-.7,1.2-.9,2-1,2,0,0,0-.2.1-.6.1-.4.3-.9.6-1.6.6-1.3,1.7-2.9,3.4-4.4,1.6-1.4,3.4-2.3,4.8-2.7.7-.2,1.2-.4,1.6-.4.4,0,.6,0,.6,0Z"/><path class="cls-3" d="M122.6,94.5c.1,0,.5,1.1.8,2.4.4,1.4.5,2.5.4,2.6-.1,0-.5-1.1-.8-2.5-.4-1.4-.5-2.5-.4-2.6Z"/><path class="cls-12" d="M188.4,114s-5.3,27-5.9,29.3c-.6,2.3-1.6,8.5-8,9.8-8.7,1.7-42.9.5-42.9.5l6.4-8.2,29.9-8.4,4.1-19.7,16.4-3.5Z"/><path class="cls-8" d="M137.4,140.9s.1.2.3.6c.1.4.3,1,.3,1.8.2,1.5,0,3.8-1.2,5.9-.6,1-1.2,2-2,2.7-.7.7-1.5,1.2-2.3,1.5-.7.3-1.4.4-1.8.4-.4,0-.7,0-.7,0,0,0,1,0,2.4-.7.7-.3,1.4-.8,2.1-1.5.7-.7,1.3-1.6,1.9-2.6,1.1-2,1.4-4.2,1.3-5.7,0-1.5-.4-2.4-.3-2.4Z"/><path class="cls-12" d="M108.8,108.9s4.8,16.2,6.8,23.2c2.1,7.4,6.8,24.4,16.7,21.3,7.5-2.3,5.3-12,5.3-12l-7.7-22.3-6,1-5.8-15-9.3,3.8Z"/><path class="cls-8" d="M134.9,142.2c0,0,.5-1.4,0-3.7-.3-1.1-.8-2.4-1.6-3.6-.8-1.3-1.9-2.5-3.1-3.8-1.2-1.3-2.3-2.6-3.1-3.9-.9-1.3-1.5-2.5-2-3.6-.5-1.1-.8-2-1-2.6-.2-.6-.3-1-.2-1,0,0,.2.3.4.9.2.6.6,1.5,1.1,2.5.5,1,1.2,2.2,2,3.5.8,1.3,1.9,2.5,3.1,3.8,1.2,1.3,2.3,2.6,3.1,3.9.8,1.3,1.3,2.6,1.6,3.8.2,1.2.2,2.1,0,2.8,0,.3-.1.6-.2.7,0,.2,0,.2-.1.2Z"/><path class="cls-12" d="M118.1,105.2s0-6.5-.5-8.3l-4.6-10.2s-1.2-.7-1.7,1.3c-.6,2,1.2,4.1,1.2,4.1v2.7c.1,0-1.7-1.5-1.7-1.5l-3.6-6.7s-2.5-4.9-3.1-4.1c-.6.8-.4,2.3.6,4.4,1.1,2.1,2.4,4.8,2.4,4.8,0,0,.4.8-.9-.4-1.3-1.2-4-7.2-4.6-7.9-.6-.7-1.3-2.9-2.6-2.4-1.2.5.3,3.1.3,3.1l3.9,8.8s-2.3-3.3-2.7-3.9c-.4-.6-1.4-2.5-2.1-3.4-.7-1-1.6-1.4-2.1-1.1-1,.4-.7,1.3-.7,1.3l4.2,7.3s2.1,3.3,2.1,3.5c0,.2-1.8-1.1-1.8-1.1l-1.8-2.2s-1.9-3.4-2.9-3.2c-1,.2-.8.9-.8.9l3.5,6.1,5.1,6.6,5.5,5.4,3.2-1,6-3Z"/><path class="cls-8" d="M108,104.1c0,0,.1-.8.3-2,.2-1.2.6-3,2.1-4.2.6-.5,1.4-.8,2.1-.8h.3s0-.3,0-.3c0-1.3,0-2.5,0-3.2,0-.8-.1-1.3-.2-1.3,0,0,0,.5-.1,1.3,0,.8-.2,1.9-.1,3.3l.2-.3c-.8,0-1.7.3-2.5.9-.8.6-1.4,1.5-1.7,2.3-.3.8-.4,1.6-.5,2.2-.1,1.3,0,2.1,0,2.1Z"/><rect class="cls-5" x="113.5" y="161.7" width="81.5" height="26.4" rx="2.8" ry="2.8"/><path class="cls-3" d="M192.2,188.1s.2,0,.5,0c.3,0,.9-.2,1.4-.7.5-.5,1-1.3.9-2.3,0-1,0-2.2,0-3.5,0-2.7,0-5.9,0-9.7,0-1.9,0-3.9,0-6.1,0-.5,0-1.1,0-1.6-.1-.5-.4-1-.8-1.4-.4-.4-.9-.7-1.5-.8-.5,0-1.2,0-1.7,0-19.1,0-45.5,0-74.6,0-.9,0-1.7.4-2.2,1.1-.3.3-.4.8-.5,1.2,0,.4,0,.9,0,1.3,0,1.8,0,3.6,0,5.4,0,3.5,0,7,0,10.5,0,.9,0,1.7,0,2.6,0,.4,0,.8,0,1.3,0,.4,0,.8.2,1.2.3.7,1,1.3,1.8,1.5.4.1.8,0,1.2,0,.4,0,.8,0,1.2,0,3.3,0,6.5,0,9.7,0,12.6,0,24,0,33.5,0,9.5,0,17.3,0,22.6,0,2.7,0,4.7,0,6.1,0,.7,0,1.2,0,1.6,0,.4,0,.5,0,.5,0,0,0-.2,0-.5,0-.4,0-.9,0-1.6,0-1.4,0-3.5,0-6.1,0-5.3,0-13.1,0-22.6,0-9.5,0-20.9,0-33.5,0-3.2,0-6.4,0-9.7,0-.4,0-.8,0-1.2,0-.4,0-.9,0-1.3-.1-.9-.2-1.6-.9-1.9-1.7-.2-.4-.3-.9-.3-1.3,0-.4,0-.8,0-1.3,0-.9,0-1.7,0-2.6,0-3.4,0-6.9,0-10.5,0-1.8,0-3.6,0-5.4,0-.5,0-.9,0-1.4,0-.5.2-.9.5-1.3.5-.8,1.5-1.3,2.5-1.3,29.1,0,55.5,0,74.6,0,.6,0,1.2,0,1.8,0,.6.1,1.1.4,1.6.8.4.4.7,1,.8,1.5,0,.6,0,1.1,0,1.7,0,2.1,0,4.2,0,6.1,0,3.8,0,7.1,0,9.7,0,1.3,0,2.5,0,3.5,0,.5,0,1-.2,1.4-.2.4-.4.7-.7,1-.5.5-1.1.6-1.4.7-.2,0-.3,0-.4,0,0,0-.1,0-.1,0Z"/><path class="cls-3" d="M121.6,172.8c0-1.3,1-2.2,2.3-2.2s1.4.3,1.8.8l-.8.7c-.3-.3-.6-.5-1-.5-.7,0-1.2.5-1.2,1.2s.5,1.2,1.2,1.2.7-.2,1-.5l.8.7c-.4.5-1,.8-1.8.8-1.3,0-2.3-.9-2.3-2.2Z"/><path class="cls-3" d="M126.2,173v-2.3h1.2v2.3c0,.7.3,1,.8,1s.8-.3.8-1v-2.3h1.2v2.3c0,1.3-.7,2-2,2s-2-.7-2-2Z"/><path class="cls-3" d="M132.8,173.8h-.6v1.1h-1.2v-4.2h1.9c1.1,0,1.9.6,1.9,1.6s-.3,1.1-.8,1.3l.9,1.3h-1.3l-.8-1.1ZM132.8,171.7h-.7v1.2h.7c.5,0,.7-.2.7-.6s-.2-.6-.7-.6Z"/><path class="cls-3" d="M137.2,173.8h-.6v1.1h-1.2v-4.2h1.9c1.1,0,1.9.6,1.9,1.6s-.3,1.1-.8,1.3l.9,1.3h-1.3l-.8-1.1ZM137.2,171.7h-.7v1.2h.7c.5,0,.7-.2.7-.6s-.2-.6-.7-.6Z"/><path class="cls-3" d="M143.2,174v.9h-3.4v-4.2h3.3v.9h-2.1v.7h1.9v.9h-1.9v.8h2.2Z"/><path class="cls-3" d="M147.8,170.7v4.2h-1l-1.9-2.2v2.2h-1.2v-4.2h1l1.9,2.2v-2.2h1.2Z"/><path class="cls-3" d="M149.6,171.7h-1.3v-.9h3.8v.9h-1.3v3.3h-1.2v-3.3Z"/><path class="cls-3" d="M154.2,170.7h1.2v3.3h2v.9h-3.2v-4.2Z"/><path class="cls-3" d="M157.6,172.8c0-1.3,1-2.2,2.3-2.2s2.3.9,2.3,2.2-1,2.2-2.3,2.2-2.3-.9-2.3-2.2ZM161.1,172.8c0-.7-.5-1.2-1.1-1.2s-1.1.5-1.1,1.2.5,1.2,1.1,1.2,1.1-.5,1.1-1.2Z"/><path class="cls-3" d="M162.7,172.8c0-1.3,1-2.2,2.3-2.2s1.4.3,1.8.8l-.8.7c-.3-.3-.6-.5-1-.5-.7,0-1.2.5-1.2,1.2s.5,1.2,1.2,1.2.7-.2,1-.5l.8.7c-.4.5-1,.8-1.8.8-1.3,0-2.3-.9-2.3-2.2Z"/><path class="cls-3" d="M170.1,174.1h-1.8l-.3.8h-1.2l1.9-4.2h1.2l1.9,4.2h-1.2l-.3-.8ZM169.7,173.2l-.5-1.3-.5,1.3h1.1Z"/><path class="cls-3" d="M172.7,171.7h-1.3v-.9h3.8v.9h-1.3v3.3h-1.2v-3.3Z"/><path class="cls-3" d="M175.6,170.7h1.2v4.2h-1.2v-4.2Z"/><path class="cls-3" d="M177.4,172.8c0-1.3,1-2.2,2.3-2.2s2.3.9,2.3,2.2-1,2.2-2.3,2.2-2.3-.9-2.3-2.2ZM180.9,172.8c0-.7-.5-1.2-1.1-1.2s-1.1.5-1.1,1.2.5,1.2,1.1,1.2,1.1-.5,1.1-1.2Z"/><path class="cls-3" d="M186.7,170.7v4.2h-1l-1.9-2.2v2.2h-1.2v-4.2h1l1.9,2.2v-2.2h1.2Z"/><path class="cls-11" d="M130.8,179.8c0-1.2.9-2.1,2.2-2.1s1.3.3,1.6.7l-.6.5c-.3-.3-.6-.5-1-.5-.7,0-1.3.5-1.3,1.3s.5,1.3,1.3,1.3.7-.2,1-.5l.6.5c-.4.5-1,.7-1.6.7-1.2,0-2.2-.9-2.2-2.1Z"/><path class="cls-11" d="M135.2,177.8h.9v4h-.9v-4Z"/><path class="cls-11" d="M137.9,178.6h-1.3v-.8h3.5v.8h-1.3v3.2h-.9v-3.2Z"/><path class="cls-11" d="M142.5,180.4v1.4h-.9v-1.4l-1.5-2.6h1l1.1,1.8,1.1-1.8h.9l-1.6,2.6Z"/><path class="cls-11" d="M145,181.3c0,.1,0,.3-.2.6l-.3.8h-.6l.3-.9c-.2,0-.3-.3-.3-.5,0-.3.2-.5.6-.5s.5.2.5.5Z"/><path class="cls-11" d="M147,179.8c0-1.2.9-2.1,2.2-2.1s1.3.3,1.6.7l-.6.5c-.3-.3-.6-.5-1-.5-.7,0-1.3.5-1.3,1.3s.5,1.3,1.3,1.3.7-.2,1-.5l.6.5c-.4.5-1,.7-1.6.7-1.2,0-2.2-.9-2.2-2.1Z"/><path class="cls-11" d="M151.1,179.8c0-1.2.9-2.1,2.2-2.1s2.2.9,2.2,2.1-.9,2.1-2.2,2.1-2.2-.9-2.2-2.1ZM154.6,179.8c0-.8-.5-1.3-1.2-1.3s-1.2.5-1.2,1.3.5,1.3,1.2,1.3,1.2-.5,1.2-1.3Z"/><path class="cls-11" d="M156.2,180.1v-2.2h.9v2.2c0,.8.3,1.1.9,1.1s.9-.3.9-1.1v-2.2h.9v2.2c0,1.2-.7,1.8-1.8,1.8s-1.8-.6-1.8-1.8Z"/><path class="cls-11" d="M164.4,177.8v4h-.8l-2-2.4v2.4h-.9v-4h.8l2,2.4v-2.4h.9Z"/><path class="cls-11" d="M166.1,178.6h-1.3v-.8h3.5v.8h-1.3v3.2h-.9v-3.2Z"/><path class="cls-11" d="M171.4,181.8l-.8-1.1h-.8v1.1h-.9v-4h1.7c1.1,0,1.7.6,1.7,1.4s-.3,1-.8,1.3l.9,1.3h-1ZM170.5,178.6h-.8v1.4h.8c.6,0,.9-.3.9-.7s-.3-.7-.9-.7Z"/><path class="cls-11" d="M174.9,180.4v1.4h-.9v-1.4l-1.5-2.6h1l1.1,1.8,1.1-1.8h.9l-1.6,2.6Z"/></svg>