<?xml version="1.0" encoding="UTF-8"?><svg id="Layer_1" xmlns="http://www.w3.org/2000/svg" viewBox="0 0 310.9 274.6"><defs><style>.cls-1{fill:#ebebeb;}.cls-2{fill:#455b64;}.cls-3{fill:#263238;}.cls-4{fill:#3a5fa0;}.cls-5{opacity:.4;}.cls-6{opacity:.5;}.cls-7{opacity:.2;}.cls-8{opacity:.3;}.cls-9{fill:#ec996f;}.cls-10{fill:#fafbfb;}.cls-11{fill:#e0e0e0;}.cls-12{fill:#fbbd9d;}</style></defs><rect class="cls-1" x="54.3" y="135.4" width="53.1" height="78.7" transform="translate(-110.8 193.8) rotate(-70.9)"/><path class="cls-11" d="M126.8,162.6s-.3.2-.9.4c-.7.3-1.6.6-2.7,1.1-2.4,1-5.8,2.3-10,3.9-8.5,3.3-20.2,7.7-33.1,12.7h-.3c0,.1-.2-.1-.2-.1-.1-.2-.2-.4-.4-.6-7.4-11.9-14.2-22.6-19.1-30.5-2.4-3.9-4.3-7-5.7-9.3-.6-1.1-1.1-1.9-1.5-2.5-.3-.6-.5-.9-.5-.9,0,0,.2.3.6.8.4.6,1,1.4,1.6,2.5,1.4,2.2,3.4,5.3,5.9,9.2,5,7.8,11.8,18.5,19.3,30.4.1.2.3.4.4.6h-.4c13-5,24.7-9.4,33.2-12.6,4.2-1.5,7.6-2.8,10.1-3.7,1.1-.4,2.1-.7,2.7-1,.6-.2,1-.3,1-.3Z"/><path class="cls-11" d="M35,186.9c-.1-.2,7.9-5.1,17.8-11,9.9-5.9,18.1-10.6,18.2-10.4.1.2-7.9,5.1-17.8,11-9.9,5.9-18.1,10.6-18.2,10.4Z"/><path class="cls-11" d="M95.9,173.5c.2,0,3.3,8.7,7.1,19.5,3.7,10.8,6.6,19.7,6.4,19.8-.2,0-3.3-8.7-7.1-19.5-3.7-10.8-6.6-19.7-6.4-19.8Z"/><rect class="cls-11" x="201.9" y="129.6" width="74.7" height="50.3" transform="translate(-22.5 42.1) rotate(-9.6)"/><path class="cls-1" d="M271.9,123.8s-.2.3-.6.8c-.4.5-1,1.3-1.7,2.1-1.6,1.9-3.8,4.6-6.5,7.8-5.6,6.6-13.3,15.6-21.8,25.7l-.2.2h-.2c-.2-.2-.4-.3-.6-.5-11.6-6.5-22.1-12.3-29.8-16.6-3.7-2.1-6.8-3.9-9-5.1-1-.6-1.8-1.1-2.4-1.4-.6-.3-.8-.5-.8-.5,0,0,.3.1.9.4.6.3,1.5.8,2.5,1.3,2.2,1.2,5.3,2.9,9.1,4.9,7.7,4.2,18.2,10,29.9,16.4.2.1.4.2.6.3h-.4c8.5-9.9,16.3-18.9,21.9-25.4,2.8-3.2,5.1-5.8,6.7-7.7.8-.9,1.4-1.5,1.8-2.1.4-.5.7-.7.7-.7Z"/><path class="cls-1" d="M206.7,185.8c-.2,0,4.2-7.8,9.8-17.3,5.6-9.5,10.2-17,10.4-16.9.2,0-4.2,7.8-9.8,17.3-5.6,9.4-10.2,17-10.4,16.9Z"/><path class="cls-1" d="M251.2,146.9c.1-.1,6.7,5.7,14.8,13,8,7.3,14.4,13.4,14.3,13.5-.1.1-6.7-5.7-14.8-13-8-7.3-14.4-13.4-14.3-13.5Z"/><rect class="cls-1" x="198.6" y="44.7" width="36.2" height="53.8" transform="translate(70.8 247) rotate(-68.5)"/><path class="cls-11" d="M248.3,65s-.2.1-.6.3c-.5.2-1.1.4-1.9.7-1.7.6-4,1.4-6.9,2.4-5.9,2-14,4.7-22.9,7.7h-.2c0,0,0-.1,0-.1,0-.1-.2-.3-.2-.4-4.7-8.3-9-15.8-12.2-21.3-1.5-2.7-2.8-4.9-3.6-6.5-.4-.7-.7-1.3-1-1.8-.2-.4-.3-.6-.3-.6,0,0,.1.2.4.6.3.4.6,1,1,1.7.9,1.6,2.2,3.7,3.8,6.4,3.2,5.5,7.5,13,12.3,21.2,0,.1.2.3.2.4h-.3c9-3.1,17.1-5.7,23-7.7,2.9-.9,5.3-1.7,7-2.2.8-.2,1.4-.4,1.9-.6.4-.1.7-.2.7-.2Z"/><path class="cls-11" d="M185,79.1c0-.1,5.5-3.3,12.5-7,6.9-3.8,12.6-6.7,12.7-6.6,0,.1-5.5,3.3-12.5,7-6.9,3.8-12.6,6.7-12.7,6.6Z"/><path class="cls-11" d="M227,71.6c.1,0,2,6,4.3,13.5,2.2,7.5,3.9,13.6,3.8,13.7-.1,0-2-6-4.3-13.5-2.2-7.5-3.9-13.6-3.8-13.6Z"/><path class="cls-3" d="M288,243c0,0-62,.1-138.4.1s-138.5,0-138.5-.1,62-.1,138.5-.1,138.4,0,138.4.1Z"/><path class="cls-12" d="M24.8,111.3l6.9-2.4-3-4c0-.3-.2-1.2-.2-2.7,0-.5,0-.9.2-1.3.2-.5.5-1.2.7-1.5.3-.4,0-1-.5-.9-.5.1-1.4,1.2-1.8,2.9-.4,1.6-1.5-.8-2-1.6-.4-.9-1.9-3.5-2.2-3.6-.5-.1-.8.4-.3,1.3.4.9,1.6,3.5,1.1,3.7-.5.2-2.6-4.2-2.6-4.2,0,0-.3-1-.8-.8-1,.4,1.6,5,1.8,5.4.2.3-.3.5-.5.2-.2-.3-2-4.5-3-4.1-.8.3,2.1,3.8,2,4.8-.1,1.1-1.9-2.9-2.6-2.5-.3.1-.5.2.9,2.3.5.7,1.3,1.8,2.2,2.8h0s3.6,6.2,3.6,6.2"/><path class="cls-4" d="M87,119.8s-3.4-8-5.8-11.8c-2.2-3.6-5.2-4.2-6.7-4.3-1.2-.3-2-.4-2-.4h-12.8c0-.1-4-.3-7.6,2.7-.6.5-5,5.6-10.9,12.9l-10.3-11.1-6.1,3.6s6.6,23,15,21.4c4.9-.9,8.8-4.4,8.8-4.4l6.5-5.2.2.9c.1,1.1.5,2.8.7,3.8.8,3.3,1.2,7.6-.5,10.5,0,0-2.3,1.8-.5,3.7h24.1s3.4-2.3.3-4.9l-2-4.9,1.3-6,.5-2.4,2.1,3.6s4.2,5.3,8.6,4.6c5.2-.8,8.3-10.3,3.5-23l-5.7,1.7-.7,8.9Z"/><g class="cls-5"><polygon points="24.8 111.3 25.4 113.2 32.2 109.1 30.9 107.7 24.8 111.3"/></g><g class="cls-7"><path d="M55.5,138.2c2.1-.3,3.8-1.4,5.1-3.1,1.2-1.7,1.8-3.9,1.4-5.9-.1-.7-.4-1.5-1-1.9-.8-.5-1.8-.2-2.6-.7-.6-.3-1-1-1.4-1.6-.4-.6-1.1-1.5-1.7-1.2,0,0,.8,4.3,1.2,6.1.4,1.9.5,4.6-.2,6.6-.2.6-.4,1.1-.7,1.6Z"/></g><path class="cls-3" d="M40.2,122.7c0,0,0-.9.4-2,.3-1.1.5-1.9.6-1.9,0,0,0,.9-.4,2-.3,1.1-.5,1.9-.6,1.9Z"/><path class="cls-3" d="M41.8,121.7c0,0-.3-.6-.4-1.4-.2-.8-.2-1.4-.2-1.5,0,0,.3.6.4,1.4.2.8.2,1.4.2,1.5Z"/><polygon class="cls-2" points="87.7 93.5 78.9 107.7 85.8 109.6 93.5 97.8 87.7 93.5"/><path class="cls-12" d="M87.1,105.6l.3,2.1,1.2,1.6v1.3c.1,0,4.5-1.3,4.5-1.3l-1.8-6.3s.3-1.8.2-2.6l-1.2,1.6-.3-2.6-2.5-2c-.3-.2-.6-.1-.8.1h0c-.2.2-.1.6,0,.8l2,1.7v2.2c.1,0-1.3-1.3-1.3-1.3-.1-.1-.3-.2-.5-.3l-2-.4c-.3,0-.6.2-.6.5h0c0,.2.1.5.4.5l1.8.6,1.8,1.9-1.8-.7-2.4.3c-.2,0-.4.2-.4.5h0c0,.3.2.5.5.5h1.6c0,0,.9.2.9.2l-2.1.6c-.2,0-.3.2-.3.4h0c0,.2.2.4.5.4l2.4-.2Z"/><g class="cls-5"><polygon points="87.7 110.8 87.5 113.2 94.2 111.3 93.4 109.1 87.7 110.8"/></g><path class="cls-3" d="M78.9,107.7s-.6-.8-.5-.9c0-.1,8.3-13.8,8.3-13.8l1,.5-8.7,14.2Z"/><path class="cls-3" d="M89.9,97.1c.1-.1.4,0,.5.1,0,.2-.1.4-.4.4-.2,0-.3-.3-.2-.5"/><path class="cls-10" d="M84.4,114.6s0,.1-.3.3c-.2.2-.6.4-1.1.6-.5.1-1.2.1-1.9,0-.7-.1-1.6-.3-2.5-.1-.9.2-1.8.8-2.6,1.5-.9.7-1.8,1.5-3,1.9-.6.2-1.3.2-1.9.2-.7,0-1.3-.3-1.9-.5-1.3-.5-2.5-1.2-3.8-1.7-.7-.2-1.3-.4-2-.4-.7,0-1.4,0-2,.2-1.3.3-2.5.7-3.8,1-2.5.6-4.8,0-6.5-.9-1.7-.9-2.8-2-3.4-2.9-.6-.9-.8-1.4-.8-1.4,0,0,.3.5.9,1.4.6.8,1.7,1.9,3.4,2.8,1.6.8,3.9,1.4,6.3.8,1.2-.3,2.4-.7,3.8-1,.7-.1,1.4-.2,2.1-.2.7,0,1.4.2,2.1.5,1.4.5,2.6,1.2,3.8,1.7.6.2,1.2.4,1.9.5.6,0,1.3,0,1.8-.1,1.2-.4,2.1-1.1,2.9-1.8.9-.7,1.8-1.3,2.7-1.5,1-.2,1.8,0,2.5.1.7.1,1.4.2,1.9,0,.5-.1.9-.3,1.1-.5.2-.2.3-.3.3-.3Z"/><path class="cls-3" d="M87.1,123.8c0,0-.2-1-.2-2.1,0-1.2,0-2.1,0-2.2,0,0,.2,1,.2,2.1,0,1.2,0,2.1,0,2.2Z"/><path class="cls-12" d="M72.1,212.6c.2.8,5.1,28.5,5.1,28.5l7.5-.6-1.4-28.2-11.3.3Z"/><path class="cls-4" d="M85,240.9v-.8s-8.1.2-8.1.2v2.6s.5,0,.5,0c2.2,0,11.3.2,12.7-.2,1.6-.5-5.2-1.8-5.2-1.8Z"/><g class="cls-8"><path d="M79.9,242.8c-.1-.6-.5-1.2-1.1-1.6-.5-.4-1.2-.6-1.9-.5v2.1s2.9,0,2.9,0Z"/></g><g class="cls-8"><path d="M88.3,241.7s2.4.6,2.1,1c-.3.4-9.4.5-13.5.3v-.2s10.7-.1,10.7-.1c0,0,.2-.9.7-1Z"/></g><path class="cls-3" d="M76.8,242.8s0,0,.1,0c.1,0,.2,0,.4,0,.4,0,.9,0,1.5,0,1.2,0,2.9,0,4.8,0,1.9,0,3.6,0,4.8-.2.6,0,1.1,0,1.5,0,.1,0,.3,0,.4,0,0,0,.1,0,.1,0,0,0,0,0-.1,0-.1,0-.2,0-.4,0-.4,0-.9,0-1.5,0-1.2,0-2.9,0-4.8.1-1.9,0-3.6,0-4.8,0-.6,0-1.1,0-1.5,0-.1,0-.3,0-.4,0,0,0-.1,0-.1,0Z"/><path class="cls-3" d="M87.6,242.8s0-.3.3-.7c.2-.3.5-.5.5-.5,0,0-.3.1-.6.5-.2.4-.2.7-.2.7Z"/><path class="cls-3" d="M85.2,241.7s.1-.1.2-.3c.1-.2.2-.3.2-.3,0,0-.1.1-.2.3-.1.2-.2.3-.2.3Z"/><path class="cls-3" d="M84.6,241.4s.1,0,.3-.2c.1-.1.2-.2.2-.2,0,0-.1,0-.3.2-.1.1-.2.2-.2.2Z"/><path class="cls-3" d="M84.2,240.7s.2,0,.4,0c.2,0,.4,0,.4,0s-.2,0-.4,0c-.2,0-.4,0-.4,0Z"/><path class="cls-3" d="M84,240.2s.2.1.5.1c.3,0,.5,0,.5,0,0,0-.2,0-.5,0-.3,0-.5,0-.5,0Z"/><path class="cls-3" d="M85.5,241s.2,0,.5,0c.2,0,.3,0,.5-.1,0,0,.2,0,.3-.1,0,0,.1,0,.1-.2,0,0,0-.2,0-.2-.5-.2-1,0-1.2.3,0,.1-.1.2-.2.3,0,0,0,.1,0,.1,0,0,0-.2.2-.4,0-.1.2-.2.4-.3.2,0,.4,0,.6,0,0,0,0,.1,0,.2,0,0-.2,0-.3.1-.2,0-.4.1-.5.1-.3,0-.5,0-.5,0Z"/><path class="cls-3" d="M85.6,241.1s0-.1,0-.3c0-.1,0-.2-.1-.3,0-.1-.2-.2-.4-.2-.1,0-.2.1-.2.2,0,0,0,.2,0,.2,0,.1.2.2.2.3.2.1.3.2.3.2,0,0-.1,0-.2-.2,0,0-.2-.2-.2-.3,0,0-.1-.3,0-.3.1,0,.3.1.3.2,0,.1.1.2.2.3,0,.2,0,.3,0,.3Z"/><path class="cls-3" d="M77,240.7s.2,0,.6,0c.4,0,.9.2,1.3.5.4.3.7.7.8,1,.1.3.1.5.2.5,0,0,0,0,0-.2,0,0,0-.2,0-.4-.1-.3-.4-.8-.8-1.1-.5-.3-1-.4-1.4-.5-.2,0-.3,0-.4,0-.1,0-.2,0-.2,0Z"/><path class="cls-3" d="M80.9,242.1s.5,0,1.2,0c.7,0,1.2,0,1.2-.1,0,0-.5,0-1.2,0-.6,0-1.2,0-1.2,0Z"/><path class="cls-3" d="M79.3,242.1s0,.1.1.2c0,.1,0,.2.1.2,0,0,0-.1,0-.2,0-.1-.2-.2-.2-.2Z"/><path class="cls-3" d="M78.7,241.4s0,0,.1.2c0,0,.2.1.2.1,0,0,0,0-.1-.2,0,0-.2-.1-.2-.1Z"/><path class="cls-3" d="M77.8,241.1s.1,0,.2,0c.1,0,.2,0,.2,0,0,0,0-.1-.2-.2-.1,0-.3,0-.3,0Z"/><path class="cls-3" d="M77.2,241s0,0,.1,0c0,0,.1,0,.1,0,0,0,0,0-.1,0,0,0-.1,0-.1,0Z"/><path class="cls-12" d="M52.9,210.3c0,.9-3.2,27.8-3.2,27.8l7.4,1.6,6.8-27.4-11-2Z"/><path class="cls-4" d="M57.4,240.4l.2-.8-7.9-1.8-.6,2.6h.5c2.1.7,10.9,3,12.4,3,1.7,0-4.6-3-4.6-3Z"/><g class="cls-8"><path d="M52,241c0-.6-.2-1.3-.7-1.8-.4-.5-1-.8-1.7-.9l-.5,2,2.8.7Z"/></g><g class="cls-8"><path d="M60.5,241.9s2.2,1.1,1.8,1.4c-.4.3-9.3-1.7-13.2-2.9v-.2s10.4,2.4,10.4,2.4c0,0,.4-.9.9-.8Z"/></g><path class="cls-3" d="M49.1,240.3s0,0,.1,0c.1,0,.2,0,.4.1.4.1.9.2,1.4.4,1.2.3,2.8.7,4.7,1.1,1.8.4,3.5.8,4.7,1,.6.1,1,.2,1.4.3.1,0,.3,0,.4,0,0,0,.1,0,.1,0,0,0,0,0-.1,0-.1,0-.2,0-.4,0-.4,0-.9-.2-1.4-.3-1.2-.2-2.9-.6-4.7-1-1.8-.4-3.5-.8-4.7-1.1-.6-.1-1-.3-1.4-.3-.1,0-.3,0-.4,0,0,0-.1,0-.1,0Z"/><path class="cls-3" d="M59.6,242.8s.1-.3.4-.6c.3-.3.6-.4.6-.4,0,0-.4,0-.7.3-.3.3-.4.6-.3.6Z"/><path class="cls-3" d="M57.5,241.2s.2,0,.3-.2c.2-.1.3-.3.2-.3,0,0-.2,0-.3.2-.2.1-.3.3-.2.3Z"/><path class="cls-3" d="M56.9,240.8s.2,0,.3-.1c.2,0,.3-.2.3-.2,0,0-.2,0-.3.1-.2,0-.3.2-.3.2Z"/><path class="cls-3" d="M56.7,240s.2,0,.4.1c.2,0,.4,0,.4,0,0,0-.2,0-.4-.1-.2,0-.4,0-.4,0Z"/><path class="cls-3" d="M56.6,239.5s.2.1.4.2c.3,0,.5,0,.5,0,0,0-.2,0-.5-.1-.2,0-.4-.2-.5-.1Z"/><path class="cls-3" d="M57.9,240.6s.2,0,.5.1c.2,0,.3,0,.6,0,.1,0,.2,0,.3,0,0,0,.1,0,.2-.1,0,0,0-.2,0-.2-.4-.3-1-.2-1.2,0-.1,0-.2.2-.2.3,0,0,0,.1,0,.1,0,0,0-.2.3-.3.1,0,.3-.2.5-.2.2,0,.4,0,.6.2,0,0,0,.2,0,.2,0,0-.2,0-.3,0-.2,0-.4,0-.5,0-.3,0-.5,0-.5,0Z"/><path class="cls-3" d="M58,240.7s.1,0,.1-.3c0-.1,0-.2,0-.4,0-.1-.1-.3-.4-.3-.1,0-.2,0-.2.2,0,0,0,.2,0,.2,0,.1.1.2.2.3.1.2.2.3.2.3,0,0,0-.1-.2-.3,0,0-.1-.2-.1-.3,0-.1,0-.3,0-.3.1,0,.2.2.3.3,0,.1,0,.2,0,.3,0,.2,0,.3,0,.3Z"/><path class="cls-3" d="M49.7,238.3s.2,0,.6.1c.3.1.8.4,1.2.8.4.4.5.9.6,1.2,0,.3,0,.6,0,.6,0,0,0,0,0-.1,0,0,0-.2,0-.4,0-.3-.2-.8-.6-1.3-.4-.4-.9-.7-1.2-.8-.2,0-.3,0-.4,0-.1,0-.2,0-.2,0Z"/><path class="cls-3" d="M53.1,240.5s.5.2,1.1.4c.6.1,1.2.2,1.2.2,0,0-.5-.1-1.1-.3-.6-.1-1.1-.3-1.1-.3Z"/><path class="cls-3" d="M51.6,240.2s0,.1,0,.2c0,.1,0,.2,0,.2,0,0,0-.1,0-.2,0-.1-.1-.2-.1-.2Z"/><path class="cls-3" d="M51.2,239.4s0,0,0,.2c0,0,.1.2.2.1,0,0,0,0,0-.2,0,0-.1-.2-.2-.1Z"/><path class="cls-3" d="M50.4,238.9s.1,0,.2.1c.1,0,.2.1.2.1,0,0,0-.1-.2-.2-.1,0-.3,0-.3,0Z"/><path class="cls-3" d="M49.9,238.6s0,0,0,.1c0,0,.1,0,.1,0,0,0,0,0,0-.1,0,0-.1,0-.1,0Z"/><path class="cls-3" d="M80.6,90.5c-.2-.6-.7-1-.9-1.6-.4-.8,0-1.8,0-2.7,0-.9,0-2-.9-2.4-.3-.2-.7-.2-1.1-.4-.6-.4-.6-1.3-.7-2.1,0-.5-.2-1-.4-1.4,0,0,0,0,.1,0,1-.3,2.2.4,2.5,1.2.2.4.2.9,0,1.2-.2.3-.7.4-.9.3-.3-.1-.4-.5-.3-.7,0-.3.3-.3.5-.3.2,0,.3.1.4.2,0,0,0,.1,0,.1,0,0,0,0,0-.2,0-.1-.2-.2-.4-.3-.1,0-.2,0-.4,0-.1,0-.3.2-.3.3-.1.3,0,.8.4,1,.4.2.9,0,1.2-.3.3-.4.3-1,.1-1.5-.3-.9-1.4-1.6-2.5-1.4.2-.4.3-.9.1-1.3-.2-.6-.6-.9-1.1-1.1-.5-.2-1-.2-1.4,0-.4.1-.8.3-1.1.5-.3.2-.6.4-.8.6-.2.2-.5.2-.7.3-.4,0-.6-.1-.6-.1,0,0,.2.2.6.2.2,0,.5,0,.7-.2.3-.1.5-.4.8-.5.6-.4,1.5-.7,2.3-.3.4.2.8.5.9,1,.1.4,0,1-.3,1.3-.3-.4-.6-.8-1-1.1-1-.5-2.4-.3-2.9.7l-7.9-2.7c-1-.9-2.4-1.1-3.6-.7,0,0-.1,0-.2,0-.4,0-.8,0-1.3.2-.5.2-.9.7-1.3,1.2-.2.2-.5.5-.8.6,0,0-.1,0-.2,0-.3,0-.7,0-1.1,0-.7-.2-1.4-.5-2.2-.6-.4,0-.9,0-1.4,0-.5.1-.9.4-1.2.8-.3.4-.5.9-.5,1.4,0,.4,0,.7.2,1.1-.2.5-.3,1-.2,1.5,0,.7.2,1.4.2,2-.2.1-.4.3-.6.3-.4.1-.9.2-1.3.4-.9.3-1.5,1.1-1.7,1.8-.2.7-.2,1.5.2,2-.2.9,0,1.9.6,2.6.4.5.9.8,1.2,1.3.5.8.4,1.8.6,2.8.1,1,.7,2,1.6,2.1.8,0,1.5-.6,2.2-.5,1.1,0,1.5,1.4,2.2,2.3.8,1.1,2.2,1.8,3.6,1.6,1-.1,2-.7,2.9-.4,1.2.3,1.9,1.7,3.2,1.9.9.1,1.8-.5,2.5-1.1.7-.6,1.4-1.4,2.3-1.5,1.1-.2,2.2.5,3.3.6,1.4.2,3-.6,3.7-1.8.6-1.1.6-2.5,1.2-3.6.4-.8,1-1.4,1.5-2.1.5-.7.8-1.6.5-2.4ZM48.8,86.9c-.2,0-.3,0-.3,0,0,0,0,0,.2,0,0,0-.1,0-.1.1-.5.4-.8.9-.9,1.4-.3-.4-.3-1.1,0-1.6.2-.7.8-1.3,1.6-1.6.4-.1.8-.2,1.3-.3.2,0,.4-.1.6-.2,0,.3,0,.5-.2.7-.4.7-1.3,1-2,1.5ZM54.2,78c-1.3.2-2.4,1.1-3,2.3,0-.2,0-.4,0-.7,0-.5.2-.9.5-1.2.6-.7,1.5-.9,2.4-.8.5,0,.9.2,1.3.3-.4,0-.7,0-1.1,0ZM58.2,77.7c0,0-.2,0-.3.1.1-.1.3-.3.4-.4.4-.5.8-1,1.3-1.2.4-.2.8-.3,1.2-.3-.2,0-.4.2-.6.3-.7.4-1.2,1.1-1.9,1.4Z"/><path class="cls-12" d="M75.4,94.3c.4-2.4.3-6.3,0-9.5-.2-2.9-2.7-5-5.6-4.7l-8.3.9c-.9,0-1.5.8-1.5,1.7l.9,20.4c-1.1,0-1.9,0-1.9,0v3.7c0,4.2,3.4,7.7,7.7,7.7s7.7-3.4,7.7-7.7v-3.2s-2-.6-3.2-.6c0,0-.2,0-.3,0,0-1.9.2-3.3.2-3.3,0,0,3.7-.6,4.4-5.4Z"/><path class="cls-3" d="M74.2,87.9c0,.3-.3.6-.6.6-.3,0-.6-.2-.6-.6,0-.3.3-.6.6-.6.3,0,.6.2.6.6Z"/><path class="cls-3" d="M74.6,86.8c0,0-.5-.3-1.2-.3-.7,0-1.1.3-1.2.3,0,0,0-.2.3-.3.2-.2.6-.3,1-.3.4,0,.8.2,1,.3.2.2.3.3.2.3Z"/><path class="cls-3" d="M67.7,87.9c0,.3-.3.6-.6.6-.3,0-.6-.2-.6-.6,0-.3.3-.6.6-.6.3,0,.6.2.6.6Z"/><path class="cls-3" d="M68.1,87c0,0-.5-.3-1.2-.3-.7,0-1.1.3-1.2.3,0,0,0-.2.3-.3.2-.2.6-.3,1-.3.4,0,.8.2,1,.3.2.2.3.3.2.3Z"/><path class="cls-3" d="M70.5,91.9s.4-.1,1.1-.2c.2,0,.3,0,.4-.2,0-.1,0-.3-.1-.5-.2-.4-.3-.8-.5-1.3-.7-1.8-1.2-3.3-1.1-3.4,0,0,.7,1.4,1.4,3.3.2.5.3.9.5,1.3,0,.2.2.4,0,.7,0,.1-.2.2-.3.2-.1,0-.2,0-.3,0-.7,0-1.1,0-1.1,0Z"/><path class="cls-9" d="M70.9,99.7s-3.2.2-6.4-1.7c0,0,1.6,3.3,6.3,2.8v-1.1Z"/><path class="cls-9" d="M70.2,93.5c-.2-.3-.7-.5-1.1-.4-.3,0-.6.2-.8.4-.2.2-.2.6,0,.8.2.3.6.3.9.2.3,0,.6-.3.8-.5,0,0,.1-.1.2-.2,0,0,0-.2,0-.2"/><path class="cls-3" d="M68.5,92.3c.1,0,.1.7.7,1.2.6.5,1.4.4,1.4.5,0,0-.2.1-.5.1-.3,0-.8,0-1.2-.4-.4-.3-.5-.7-.6-1,0-.3,0-.5.1-.5Z"/><path class="cls-3" d="M68.4,85.8c0,.2-.7,0-1.5.2-.8,0-1.4.3-1.5.1,0,0,0-.2.3-.4.3-.2.7-.3,1.1-.4.5,0,.9,0,1.2.1.3.1.4.3.4.3Z"/><path class="cls-3" d="M74.3,85.5c-.1.2-.6,0-1.1,0-.5,0-1,.1-1.1,0,0,0,0-.2.2-.4.2-.1.5-.3.9-.2.4,0,.7.1.9.3.2.2.3.3.2.4Z"/><path class="cls-3" d="M77.2,80.5c-.3-1.3-1.3-2.5-2.6-2.7-.8-.2-1.7,0-2.6,0-.7,0-1-.6-1.6-.8-1.1-.4-2-1.6-4.4-1.4-.6,0-1.5.8-2.1,1.7-.9-.4-2.1,0-2.8.3-1.4.6-2.3,2.2-2.5,3.7-.3,1.6,0,3.2.2,4.8.1.7.2,1.5.3,2.2,0,.5.1,1,.4,1.4l-1.1,10.2c2.2.8,4.9-.7,5.4-3,.4-2-.7-4.1-.5-6.1.1-1.2.8-2.4.8-3.6,0-.4,0-.8-.2-1.2,0,0,0,0,0,0,1.9-1.6,2.4-2.9,2.4-4.3.6.4,1.3.7,2,.7,1,0,2.1-.4,3.1,0,.7.3,1.2.9,1.7,1.4.5.5,1.2,1,1.9.9.4,0,.7-.2,1-.4.3-.1.7-.2,1,0,.3-1.3.5-2.6.2-3.9Z"/><path class="cls-2" d="M48.6,91s.5.5,1.6.9c.5.2,1.2.4,2.1.4.8,0,1.8-.2,2.6-.8.8-.6,1.6-1.6,1.7-2.8,0-.6,0-1.2-.4-1.8-.3-.5-.9-1-1.6-1-.3,0-.7,0-.9.3-.3.2-.4.5-.6.8-.2.7-.1,1.4.4,2,.5.6,1.2.9,1.9,1.1.7.2,1.5.2,2.3,0,.8-.2,1.5-.5,2.1-1,.6-.5,1.1-1.1,1.3-1.8.3-.7.3-1.4.2-2.1,0-.3-.2-.7-.4-1-.2-.3-.4-.6-.6-.8-.3-.2-.6-.3-.9-.3-.3,0-.6.2-.7.4-.1.3-.2.6,0,.9,0,.3.3.5.5.7.9.8,2.1,1.1,3.1,1,1-.1,1.9-.6,2.5-1.2.6-.6.9-1.3,1.1-1.8.3-1.1.1-1.8.2-1.8,0,0,0,.2,0,.5,0,.3,0,.8-.1,1.4-.2.6-.5,1.3-1.1,1.9-.6.6-1.5,1.1-2.6,1.3-1.1.1-2.3-.1-3.3-1-.2-.2-.4-.5-.5-.8,0-.3,0-.7.1-1,.2-.3.6-.5.9-.5.4,0,.7.2,1,.4.3.2.5.5.7.8.2.3.3.7.4,1.1.1.7,0,1.5-.2,2.3-.3.7-.8,1.4-1.4,1.9-.6.5-1.4.8-2.2,1-.8.2-1.6.2-2.4,0-.8-.2-1.5-.6-2-1.2-.3-.3-.4-.7-.5-1.1,0-.4,0-.8,0-1.2.1-.4.3-.7.6-.9.3-.2.7-.4,1.1-.3.8,0,1.4.5,1.8,1.1.4.6.4,1.3.4,1.9-.1,1.3-.9,2.3-1.8,2.9-.9.6-1.9.8-2.8.8-.9,0-1.6-.3-2.1-.5-.5-.2-.9-.5-1.2-.7-.1,0-.2-.2-.3-.2,0,0,0,0,0,0Z"/><path class="cls-2" d="M77.5,82.7s0,0-.2.2c-.2,0-.4.2-.8.3-.3,0-.8,0-1.3,0-.5-.1-1-.4-1.5-.8-.5-.4-.9-1-1.2-1.7-.1-.3-.2-.8,0-1.2,0-.2.2-.4.4-.5.2-.1.5-.1.7,0,.4.2.6.8.5,1.2-.1.5-.5.8-.9,1-.9.4-1.9.4-2.8,0-.5-.2-.9-.4-1.3-.6-.4-.3-.8-.5-1.1-.9-.3-.4-.4-1-.1-1.4.2-.2.5-.3.7-.2.2,0,.4.2.6.4.1.2.2.4.2.7,0,.2-.1.4-.3.6-.3.3-.7.5-1.1.5-.4,0-.8,0-1.1-.1-.3-.1-.6-.2-.9-.4-.6-.3-1.1-.6-1.4-1-.3-.4-.4-.9-.3-1.2,0-.4.2-.6.3-.8.1-.1.2-.2.2-.2,0,0-.4.3-.4,1,0,.3,0,.8.4,1.1.3.4.7.7,1.3,1,.6.2,1.2.5,1.9.5.3,0,.7-.2.9-.5.2-.3.3-.7,0-1-.2-.3-.7-.4-.9-.1-.1.1-.2.3-.1.5,0,.2.1.4.2.5.3.3.7.6,1,.8.4.2.8.4,1.2.6.9.3,1.8.4,2.6,0,.4-.2.7-.5.8-.8.1-.4,0-.8-.4-.9-.3-.2-.7,0-.8.4-.2.3,0,.7,0,1,.3.7.7,1.2,1.1,1.6.5.4,1,.7,1.4.8.5.1.9.1,1.2,0,.7-.1,1-.4,1-.3Z"/><path class="cls-2" d="M63.5,93.9s0,0-.2.2c-.1,0-.4.2-.7.3-.3,0-.7,0-1.2,0-.4-.2-1-.5-1.2-1-.1-.3-.1-.7.2-.9.3-.2.7-.2,1,0,.6.4.9,1.3.7,2.1-.1.8-.6,1.6-1.4,2-.8.4-1.8.3-2.6-.2-.4-.2-.7-.5-1-.9-.2-.4-.4-.9-.2-1.3,0-.2.2-.4.3-.6.2-.2.4-.3.6-.2.5,0,.8.3,1,.7.2.4.3.8.3,1.1,0,.4,0,.7-.1,1.1-.2.7-.5,1.3-1,1.7-.4.4-1,.6-1.4.7-.5,0-.9,0-1.2-.2-.3-.1-.5-.3-.6-.4-.1-.1-.2-.2-.2-.2,0,0,.2.3.8.5.3.1.7.2,1.1.1.4,0,.9-.2,1.3-.6.4-.4.7-.9.9-1.6,0-.3.1-.7,0-1,0-.3,0-.7-.3-1-.2-.3-.5-.6-.8-.6-.3,0-.6.3-.7.7-.1.4,0,.8.2,1.1.2.3.5.6.9.8.7.4,1.6.5,2.4.2.7-.3,1.2-1.1,1.3-1.8.1-.7-.1-1.5-.6-1.8-.2-.2-.6-.2-.8,0-.2.2-.2.5-.1.7.2.5.7.8,1.1,1,.4.2.8.2,1.1.1.6-.1.9-.4.9-.3Z"/><path class="cls-3" d="M43.6,211.4s3.2,6.3,11.7,3.2c0,0,8.2,4.5,16.1-.5,0,0,10.2,1.4,15.8-1.3l-7.2-61.7-.9-9.5h-22.5s-6.7,3-7.8,17.9c-1.1,14.9-3.4,35.3-3.4,35.3l-1.8,16.5Z"/><path class="cls-2" d="M70.9,214.3s0,0,0-.2c0-.1,0-.3,0-.5,0-.5,0-1.2-.2-2.1-.1-1.8-.3-4.5-.5-7.7-.4-6.5-.8-15.6-1-25.6-.2-10-.2-19.1,0-25.6,0-3.3.1-5.9.2-7.8,0-.9,0-1.6,0-2.1,0-.2,0-.4,0-.5,0-.1,0-.2,0-.2s0,0,0,.2c0,.1,0,.3,0,.5,0,.5,0,1.2,0,2.1,0,1.8,0,4.5,0,7.8,0,6.6,0,15.6.2,25.6.2,10,.6,19,1,25.6.2,3.3.3,5.9.4,7.8,0,.9,0,1.6.1,2.1,0,.2,0,.4,0,.5,0,.1,0,.2,0,.2Z"/><path class="cls-2" d="M72.9,196.6s0,0,.2,0c.1,0,.3,0,.5,0,.2.1.5.3.5.7,0,.3-.1.7-.5.9-.3.2-.8.2-1,0-.3-.2-.3-.5-.3-.8,0-.2.1-.4.2-.5,0,0,.2-.1.2-.1,0,0-.2.2-.2.6,0,.2,0,.4.3.6.2.2.5.2.7,0,.3-.1.4-.4.4-.7,0-.2-.2-.4-.4-.5-.4-.2-.6,0-.6-.1Z"/><path class="cls-2" d="M72.4,178.3s0,0,.2,0c.1,0,.3,0,.5,0,.2.1.5.3.5.7,0,.3-.1.7-.5.9-.3.2-.8.2-1,0-.3-.2-.3-.5-.3-.8,0-.2.1-.4.2-.5,0,0,.2-.1.2-.1,0,0-.2.2-.2.6,0,.2,0,.4.3.6.2.2.5.2.7,0,.3-.1.4-.4.4-.7,0-.2-.2-.4-.4-.5-.4-.2-.6,0-.6-.1Z"/><path class="cls-2" d="M72.1,162.1s0,0,.2,0c.1,0,.3,0,.5,0,.2.1.5.3.5.7,0,.3-.1.7-.5.9-.3.2-.8.2-1,0-.3-.2-.3-.5-.3-.8,0-.2.1-.4.2-.5,0,0,.2-.1.2-.1,0,0-.2.2-.2.6,0,.2,0,.4.3.6.2.2.5.2.7,0,.3-.1.4-.4.4-.7,0-.2-.2-.4-.4-.5-.4-.2-.6,0-.6-.1Z"/><path class="cls-2" d="M71.5,144.8s0,0,.2,0c.1,0,.3,0,.5,0,.2.1.5.3.5.7,0,.3-.1.7-.5.9-.3.2-.8.2-1,0-.3-.2-.3-.5-.3-.8,0-.2.1-.4.2-.5,0,0,.2-.1.2-.1,0,0-.2.2-.2.6,0,.2,0,.4.3.6.2.2.5.2.7,0,.3-.1.4-.4.4-.7,0-.2-.2-.4-.4-.5-.4-.2-.6,0-.6-.1Z"/><polygon class="cls-4" points="100.9 126 214.9 125.2 218 202.7 100.1 201.6 100.9 126"/><path class="cls-4" d="M100.9,126l53.9-43.6c2.3-1.8,5.6-1.8,7.8,0l52.2,42.8"/><g class="cls-8"><path d="M100.9,126l53.9-43.6c2.3-1.8,5.6-1.8,7.8,0l52.2,42.8"/></g><path class="cls-3" d="M100.1,201.6c-.1-.1,9-10.1,20.4-22.2,11.4-12.2,20.7-21.9,20.9-21.8.1.1-9,10.1-20.4,22.2-11.4,12.2-20.7,21.9-20.9,21.8Z"/><path class="cls-3" d="M218,202.7c-.1.1-9-9.6-19.8-21.8-10.8-12.2-19.5-22.1-19.3-22.3.1-.1,9,9.6,19.8,21.8,10.8,12.2,19.5,22.1,19.3,22.3Z"/><g class="cls-6"><polyline points="214.9 125.2 157.7 170.9 100.9 126"/></g><polygon class="cls-10" points="106.7 130.3 106.5 94.7 206.3 93.5 207.4 130.9 157.6 170.3 106.7 130.3"/><path class="cls-3" d="M106.7,130.3s.3.2.9.7c.6.5,1.5,1.2,2.7,2.1,2.4,1.9,5.8,4.6,10.3,8.1,8.9,7,21.6,17,37.1,29.1h-.1c14.3-11.4,31.3-24.8,49.7-39.4h0c-.2-7-.4-14.5-.7-22.2-.2-5.1-.3-10.2-.5-15.2h.1c-40.2.6-75.7,1-99.8,1.3h0c0,11.1,0,20,0,26.1,0,3,0,5.4,0,7,0,.8,0,1.4,0,1.8,0,.4,0,.6,0,.6,0,0,0-.2,0-.6,0-.4,0-1,0-1.8,0-1.6,0-3.9,0-7,0-6.1,0-15-.2-26.2h0c0,0,0,0,0,0,24.1-.3,59.6-.7,99.8-1.2h.1s0,.1,0,.1c.1,5,.3,10,.5,15.2.2,7.6.5,15.1.7,22.3h0c0,0,0,.1,0,.1-18.4,14.6-35.4,28-49.8,39.4h0c0,0,0,0,0,0-15.5-12.2-28.2-22.2-37.1-29.2-4.4-3.5-7.9-6.2-10.3-8.1-1.2-.9-2.1-1.6-2.7-2.1-.6-.5-.9-.7-.9-.7Z"/><path class="cls-3" d="M190.5,111.4c0,0-15.3.2-34.1.3-18.8.1-34.1.2-34.1,0,0,0,15.3-.2,34.1-.3,18.8-.1,34.1-.2,34.1,0Z"/><path class="cls-3" d="M190.5,121.5c0,0-15.3.2-34.1.3-18.8.1-34.1.2-34.1,0,0,0,15.3-.2,34.1-.3,18.8-.1,34.1-.2,34.1,0Z"/><path class="cls-3" d="M190.5,133c0,0-15.3.2-34.1.3-18.8.1-34.1.2-34.1,0,0,0,15.3-.2,34.1-.3,18.8-.1,34.1-.2,34.1,0Z"/><path class="cls-3" d="M190.5,144.6c0,0-14.6.2-32.5.3-18,.1-32.5.1-32.5,0,0,0,14.6-.2,32.5-.3,18-.1,32.5-.1,32.5,0Z"/><path class="cls-3" d="M177.7,154.8s-.1,0-.4,0c-.3,0-.7,0-1.1,0-1,0-2.5,0-4.2,0-3.6,0-8.5.1-13.9.2-5.4,0-10.4.1-13.9.1-1.8,0-3.2,0-4.2,0-.5,0-.9,0-1.1,0-.3,0-.4,0-.4,0,0,0,.1,0,.4,0,.3,0,.7,0,1.1,0,1,0,2.5,0,4.2,0,3.6,0,8.5-.1,13.9-.2,5.4,0,10.3-.1,13.9-.1,1.8,0,3.2,0,4.2,0,.5,0,.9,0,1.1,0,.3,0,.4,0,.4,0Z"/><path class="cls-3" d="M164.9,164.6c0,0-3.3.1-7.3.1s-7.3,0-7.3-.1,3.3-.1,7.3-.1,7.3,0,7.3.1Z"/><circle class="cls-3" cx="198.5" cy="144.6" r="12.1"/><circle class="cls-2" cx="195.3" cy="144.6" r="12.1"/><path class="cls-1" d="M196.9,139v10h-1.9v-8.5h-2.1v-1.6h4Z"/><path class="cls-4" d="M107.4,78.4h11s-1.5-1.7-1.5-1.7v-4.1c0-2.2-1.8-4-4-4h0c-2.2,0-4,1.8-4,4v3.9s-1.5,1.9-1.5,1.9Z"/><path class="cls-4" d="M111.4,77.9c0,.6.4,1.3,1,1.5.6.2,1.3.1,1.8-.3.5-.4.7-1.1.5-1.8"/><rect class="cls-4" x="112.5" y="66.9" width="1.1" height="2.3"/><path class="cls-3" d="M129,70.9s0,0,0-.3c0-.2-.1-.5-.2-.9,0-.4-.2-.8-.4-1.4,0-.3-.2-.6-.3-.9-.1-.3-.3-.6-.4-.9-.6-1.3-1.5-2.8-2.9-4.3-1.4-1.5-3.3-2.9-5.6-3.8-1.1-.5-2.4-.8-3.7-1.1-1.3-.2-2.7-.3-4.2,0-.7,0-1.4.2-2.2.4-.4,0-.7.2-1.1.3-.4.1-.7.2-1.1.4-1.4.6-2.8,1.4-4.1,2.4-2.6,2.1-4.6,5.2-5.5,8.7-.4,1.8-.5,3.7-.3,5.6.2,1.9.8,3.8,1.7,5.5l.3.5h0c0,0,0,.1,0,.1-.9,2.9-1.8,5.8-2.6,8.6l-.2-.2c2.4-1.2,4.7-2.4,6.9-3.6h0s0,0,0,0c2.2,1.7,4.8,2.7,7.3,3.2,2.5.4,5,.2,7.1-.5,2.2-.6,4.1-1.7,5.6-3,1.6-1.3,2.7-2.8,3.6-4.2.9-1.5,1.4-3,1.8-4.3.3-1.3.5-2.5.5-3.5,0-.5,0-.9,0-1.3,0-.4,0-.7,0-.9,0-.2,0-.4,0-.6,0-.1,0-.2,0-.2,0,0,0,0,0,.2,0,.1,0,.3,0,.6,0,.3,0,.6.1.9,0,.4,0,.8,0,1.3,0,1-.1,2.1-.4,3.5-.4,1.3-.9,2.8-1.7,4.3-.9,1.5-2.1,3-3.7,4.3-1.6,1.3-3.5,2.4-5.7,3.1-2.2.7-4.7.9-7.3.5-2.5-.4-5.1-1.5-7.4-3.2h.2c-2.2,1.2-4.5,2.4-6.9,3.6l-.3.2v-.4c1-2.8,1.8-5.6,2.7-8.6h0c0,.1-.3-.4-.3-.4-.9-1.8-1.5-3.7-1.7-5.7-.2-1.9-.1-3.9.3-5.7.9-3.7,3-6.8,5.6-8.9,1.3-1,2.7-1.9,4.2-2.5.4-.2.7-.3,1.1-.4.4-.1.7-.2,1.1-.3.7-.1,1.5-.3,2.2-.4,1.5-.2,2.9,0,4.2,0,1.3.3,2.6.6,3.8,1.1,2.3,1,4.2,2.4,5.6,3.9,1.4,1.5,2.3,3.1,2.9,4.4.1.3.3.7.4,1,.1.3.2.6.3.9.2.5.3,1,.4,1.4,0,.4.1.7.2.9,0,.2,0,.3,0,.3Z"/><path class="cls-4" d="M262.3,185.6c1.6,5.3.4,12.2-1.5,17.4-1.9,5.2-5.5,9.8-10.2,12.9-.5.3-1.2.7-1.7.4-.5-.2-.6-.8-.7-1.3-1.1-5.7-.3-11.8,2.2-17.1,2.5-5.3,6.8-9.6,12-12.3"/><g class="cls-7"><path d="M262.3,185.6c1.6,5.3.4,12.2-1.5,17.4-1.9,5.2-5.5,9.8-10.2,12.9-.5.3-1.2.7-1.7.4-.5-.2-.6-.8-.7-1.3-1.1-5.7-.3-11.8,2.2-17.1,2.5-5.3,6.8-9.6,12-12.3"/></g><path class="cls-4" d="M238.6,160.3c3.3,0,5.5,3.6,5.9,6.9.3,3.3-.4,6.7.6,9.9,1.2,4,5,6.9,6.2,11,1.4,4.8-1.3,9.8-1.4,14.8,0,2.4.5,4.9,0,7.3-.8,4-4.6,7.2-8.7,7.3-4.1,0-8-3.1-8.8-7.1-.8-3.7.9-7.7-.1-11.4-.7-2.7-2.8-5-3-7.8-.2-3.3,2.4-6.2,2.9-9.6.5-3.3-1.2-6.6-1.4-9.9-.4-6,2-10.7,8-11.4"/><path class="cls-3" d="M245.9,228.6s0-.1,0-.3c0-.3.1-.6.2-1,.2-.8.5-2.1.8-3.5.7-3,1.9-7.1,3.4-11.5,1.6-4.4,3.3-8.3,4.6-11.1.7-1.4,1.2-2.5,1.6-3.3.2-.4.3-.7.4-.9,0-.2.1-.3.1-.3,0,0,0,0-.2.3-.1.2-.3.5-.5.9-.4.7-1,1.8-1.7,3.2-1.4,2.7-3.1,6.6-4.7,11.1-1.6,4.4-2.7,8.5-3.3,11.5-.3,1.5-.6,2.7-.7,3.6,0,.4-.1.7-.2,1,0,.2,0,.3,0,.3Z"/><path class="cls-3" d="M238.7,176.6s0,.2,0,.5c0,.4.1.9.2,1.5.2,1.3.4,3.2.7,5.6.6,4.7,1.5,11.2,2.4,18.4.9,7.2,1.7,13.7,2.2,18.4.3,2.3.5,4.2.7,5.6,0,.6.1,1.1.2,1.5,0,.3,0,.5,0,.5,0,0,0-.2,0-.5,0-.4,0-.9-.1-1.5-.1-1.4-.3-3.3-.6-5.6-.5-4.7-1.2-11.2-2.1-18.4-.9-7.2-1.8-13.7-2.5-18.4-.3-2.3-.6-4.2-.8-5.6-.1-.6-.2-1.1-.2-1.5,0-.3,0-.5-.1-.5Z"/><rect class="cls-3" x="232.2" y="222.1" width="25.2" height="2.9"/><polygon class="cls-3" points="234.6 225 237.5 242.9 253.2 242.9 255.2 225 234.6 225"/><path class="cls-2" d="M255.3,224.9c0,0-4.7.2-10.4.3-5.8,0-10.4,0-10.4,0,0,0,4.7-.2,10.4-.3,5.8,0,10.4,0,10.4,0Z"/><path class="cls-2" d="M254.5,233.8s0,0-.1,0c-.1,0-.2,0-.4,0-.4,0-.9,0-1.6,0-.7,0-1.6-.3-2.4-.9-.4-.3-.8-.7-1-1.2-.2-.5-.4-1.2-.1-1.8.2-.6.8-1.2,1.6-1.1.4,0,.7.2,1,.5.2.3.4.6.5,1,.3,1.5-.8,3.2-2.4,3.8-1.7.6-3.7-.4-4.5-2.1-.2-.4-.3-.9-.4-1.4,0-.5,0-1,.4-1.4.3-.4.7-.7,1.3-.8.5,0,1,.2,1.3.7.3.4.4.9.4,1.4,0,.5-.1,1-.4,1.4-.4.9-1.2,1.5-2,1.9-.8.4-1.7.6-2.6.7-.9.1-1.8,0-2.6-.2-.8-.3-1.5-.8-1.9-1.5-.4-.7-.5-1.6-.2-2.3.2-.7.9-1.3,1.6-1.4.7,0,1.4.2,1.8.7.4.5.4,1.3.2,1.8-.2.5-.6.9-1.1,1.2-.4.3-.9.5-1.3.6-.4.1-.8.3-1.1.4-.7.2-1.2.3-1.6.4-.2,0-.3,0-.4,0,0,0-.1,0-.1,0,0,0,0,0,.1,0,.1,0,.2,0,.4,0,.4,0,.9-.2,1.6-.4.3-.1.7-.2,1.1-.4.4-.2.8-.3,1.2-.6.4-.3.8-.6,1-1.2.2-.5.2-1.1-.2-1.6-.4-.5-1-.7-1.7-.6-.6,0-1.2.6-1.4,1.3-.2.7-.2,1.5.2,2.1.4.6,1.1,1.1,1.8,1.4.8.3,1.6.3,2.5.2.8-.1,1.7-.3,2.5-.7.8-.4,1.5-1,1.9-1.8.4-.8.5-1.8,0-2.6-.3-.4-.7-.6-1.1-.6-.4,0-.8.3-1.1.6-.2.4-.3.8-.3,1.2,0,.4.1.9.3,1.3.8,1.6,2.7,2.5,4.2,1.9,1.5-.5,2.5-2.1,2.3-3.5,0-.3-.2-.7-.4-.9-.2-.3-.5-.4-.8-.4-.6,0-1.2.4-1.4,1-.2.6-.1,1.2.1,1.7.2.5.6.9,1,1.2.8.6,1.6.8,2.3.9.7.1,1.2.1,1.6.1.2,0,.3,0,.4,0,0,0,.1,0,.1,0Z"/></svg>