<?xml version="1.0" encoding="UTF-8"?><svg id="Layer_1" xmlns="http://www.w3.org/2000/svg" viewBox="0 0 850 470"><defs><style>.cls-1{fill:none;}.cls-2{fill:#ebebeb;}.cls-3{fill:#455b64;}.cls-4{fill:#263238;}.cls-5{fill:#3a5fa0;}.cls-6{fill:#fff;}.cls-7{opacity:.2;}.cls-8{opacity:.3;}.cls-9{fill:#ec996f;}.cls-10{fill:#f5f5f5;}.cls-11{fill:#fafbfb;}.cls-12{fill:#f3725f;}.cls-13{fill:#e0e0e0;}.cls-14{fill:#fbbd9d;}</style></defs><path class="cls-6" d="M720.7,140.2c4.2,10,15.7,14.7,25.6,10.4,9.9-4.3,14.5-15.9,10.2-25.9-4.2-10-15.7-14.7-25.6-10.4-9.9,4.3-14.5,15.9-10.2,25.9Z"/><path class="cls-13" d="M725.3,153.8s.2,0,.6,0c.4,0,.9,0,1.5.5.3.2.5.5.7.8.2.3.3.8.3,1.2,0,.9-.6,1.8-1.5,2.2-1,.3-2,0-2.6-.7-.3-.3-.5-.7-.5-1.1,0-.4,0-.8,0-1.1.2-.7.6-1.1.8-1.3.3-.2.5-.3.5-.3,0,0,0,0-.1,0,0,0-.1,0-.2,0,0,0-.1,0-.2.1-.3.2-.7.7-.9,1.3-.1.3-.2.7,0,1.1,0,.4.2.8.6,1.2.3.4.7.6,1.2.8.5.2,1,.2,1.5,0,.5-.2.9-.6,1.2-1,.3-.4.4-.9.4-1.4,0-.5-.1-.9-.3-1.3-.2-.4-.5-.6-.8-.8-.6-.4-1.2-.5-1.6-.4,0,0-.2,0-.3,0,0,0-.1,0-.2,0,0,0-.1,0-.1,0Z"/><path class="cls-13" d="M721.2,141.6s0-.1-.1-.3c0-.2-.2-.5-.4-.9,0-.2-.2-.4-.3-.6,0-.2-.2-.5-.3-.8,0-.3-.2-.6-.3-.9,0-.2-.1-.3-.1-.5,0-.2,0-.4-.1-.6-.4-1.5-.6-3.5-.5-5.7.1-2.2.6-4.8,1.8-7.3.2-.3.3-.6.5-1,.2-.3.4-.6.6-.9,0-.2.2-.3.3-.5,0-.2.2-.3.3-.5.2-.3.4-.6.7-.9.1-.2.2-.3.3-.5.1-.1.3-.3.4-.4.3-.3.5-.6.8-.9.3-.3.6-.5.9-.8.1-.1.3-.3.4-.4,0,0,.1-.1.2-.2l.2-.2c.7-.5,1.3-1,2.1-1.4.4-.2.7-.4,1.1-.6.4-.2.8-.4,1.2-.5.2,0,.4-.2.6-.3.2,0,.4-.1.6-.2.4-.1.8-.3,1.3-.4.9-.2,1.7-.5,2.7-.5.2,0,.5,0,.7,0,.1,0,.2,0,.3,0h.3c.5,0,.9,0,1.4,0,.5,0,.9,0,1.4,0,.2,0,.5,0,.7,0h.7c1,.2,1.9.5,2.8.8.5.2.9.3,1.4.5h.3c.1.2.2.2.3.3l.7.3.7.3.6.4.6.4.3.2c.1,0,.2.2.3.2.4.3.8.6,1.2.9.4.3.8.7,1.1,1,1.5,1.5,2.7,3.2,3.8,5.1,1,1.9,1.6,3.9,2,6,0,.5.1,1,.2,1.5,0,.5,0,1,0,1.5v.4s0,.4,0,.4v.8s0,.8,0,.8v.8c-.1,0-.2.7-.2.7v.4c0,0-.2.4-.2.4-.1.5-.2,1-.4,1.4-.3.9-.6,1.9-1.1,2.7l-.3.7c-.1.2-.2.4-.4.6-.2.4-.5.8-.7,1.2-.3.4-.6.8-.8,1.1l-.2.3c0,0-.2.2-.2.3-.2.2-.3.3-.5.5-.6.7-1.3,1.3-2,1.9-.3.3-.7.5-1.1.8-.2.1-.4.3-.5.4-.2.1-.4.2-.6.3-.4.2-.7.4-1.1.7-.4.2-.8.4-1.2.6-.8.4-1.6.6-2.3.9h-.3c0,.1-.2.2-.3.2-.2,0-.4,0-.6.1-.4,0-.8.2-1.2.3-.4,0-.8.1-1.2.2-.2,0-.4,0-.6,0-.2,0-.4,0-.6,0-.4,0-.8,0-1.1,0-.2,0-.4,0-.6,0-.2,0-.4,0-.5,0-.4,0-.7,0-1.1,0-.4,0-.7-.1-1-.2-2.7-.5-5.1-1.5-7-2.6-.2-.1-.5-.3-.7-.4-.2-.2-.4-.3-.6-.5-.2-.2-.4-.3-.6-.5,0,0-.2-.1-.3-.2,0,0-.2-.2-.3-.2-.4-.3-.7-.6-1-.9-.3-.3-.6-.6-.8-.9-.1-.1-.3-.3-.4-.4-.1-.1-.2-.3-.3-.4-.2-.3-.4-.5-.6-.8-.2-.2-.4-.5-.5-.7-.1-.2-.2-.4-.4-.6-.2-.4-.4-.6-.5-.8-.1-.2-.2-.3-.2-.3,0,0,0,0,.2.3.1.2.3.5.5.8.1.2.2.4.3.6.1.2.3.4.5.7.2.2.4.5.6.8,0,.1.2.3.3.4.1.1.3.3.4.4.3.3.5.6.8.9.3.3.7.6,1,.9,0,0,.2.2.3.2,0,0,.2.1.3.2.2.2.4.3.6.5.2.2.4.3.6.5.2.1.5.3.7.4,1.9,1.2,4.3,2.2,7,2.7.3,0,.7.1,1,.2.4,0,.7,0,1.1,0,.2,0,.4,0,.6,0,.2,0,.4,0,.6,0,.4,0,.8,0,1.1,0,.2,0,.4,0,.6,0,.2,0,.4,0,.6,0,.4,0,.8-.1,1.2-.2.4,0,.8-.2,1.2-.3.2,0,.4,0,.6-.1,0,0,.2,0,.3,0h.3c.8-.4,1.6-.6,2.3-1,.4-.2.8-.3,1.2-.6.4-.2.7-.4,1.1-.7.2-.1.4-.2.6-.3.2-.1.4-.3.5-.4.4-.3.7-.5,1.1-.8.7-.6,1.4-1.2,2-1.9.2-.2.3-.3.5-.5,0,0,.2-.2.2-.3l.2-.3c.3-.4.6-.8.8-1.2.3-.4.5-.8.7-1.2.1-.2.3-.4.4-.6l.3-.7c.5-.9.8-1.8,1.1-2.8.1-.5.3-1,.4-1.5v-.4c0,0,.2-.4.2-.4v-.8c.1,0,.2-.8.2-.8v-.8c0,0,0-.8,0-.8v-.4s0-.4,0-.4c0-.5,0-1,0-1.6,0-.5-.1-1-.2-1.6-.3-2.1-1-4.1-2-6.1-1-1.9-2.3-3.6-3.8-5.1-.4-.4-.8-.7-1.2-1.1-.4-.3-.8-.6-1.2-.9-.1,0-.2-.2-.3-.2l-.3-.2-.7-.4-.7-.4-.7-.3-.7-.3c-.1,0-.2-.1-.3-.2h-.4c-.5-.3-.9-.5-1.4-.6-1-.2-1.9-.5-2.9-.7h-.7c-.2-.2-.5-.2-.7-.2-.5,0-1,0-1.4,0-.5,0-.9,0-1.4,0h-.4c-.1,0-.2,0-.3,0-.2,0-.5,0-.7,0-.9,0-1.8.4-2.7.5-.4.1-.9.3-1.3.4-.2,0-.4.1-.6.2-.2,0-.4.2-.6.3-.4.2-.8.4-1.2.6-.4.2-.7.4-1.1.7-.8.4-1.4.9-2.1,1.4l-.2.2c0,0-.2.1-.2.2-.2.1-.3.3-.5.4-.3.3-.6.5-.9.8-.3.3-.5.6-.8.9-.1.1-.3.3-.4.4-.1.2-.2.3-.3.5-.2.3-.5.6-.7.9-.1.1-.2.3-.3.5,0,.2-.2.3-.3.5-.2.3-.4.6-.6.9-.2.3-.3.7-.5,1-1.2,2.6-1.7,5.1-1.8,7.4,0,2.2.1,4.2.5,5.7,0,.2,0,.4.1.6,0,.2,0,.4.1.5.1.3.2.6.3.9.1.3.2.6.3.8.1.2.2.4.3.6.2.4.3.7.4.9,0,.2.1.3.1.3Z"/><path class="cls-13" d="M744,135.6h-2.6c0-.1,0,2.1-2.4,2-1.2,0-1.8-.8-2-1.4-.3-.7-.1-1.5.3-2.1.5-.7,1.5-1.3,3.2-.9l.3-5.9h-2.6c0-.1-.1,3.3-.1,3.3,0,0-3.6.8-3.8,4.8-.2,3.8,3.2,4.8,4.7,4.9,1.1,0,4.9,0,5.1-4.6Z"/><rect class="cls-13" x="738.3" y="123.5" width="2.6" height="2.4" transform="translate(1473 281.5) rotate(-177.5)"/><path class="cls-10" d="M616.3,103c1.3-.8,2.8-1.4,4.2-1.8l.9-4.2h7.1c0-.1,1,4,1,4,1.5.4,2.9.9,4.3,1.7l3.6-2.3,5.1,4.9-2.2,3.7c.8,1.3,1.4,2.8,1.8,4.2l4.2.9v7.1c.1,0-4,1-4,1-.4,1.5-.9,2.9-1.7,4.3l2.3,3.6-4.9,5.1-3.7-2.2c-1.3.8-2.8,1.4-4.2,1.8l-.9,4.2h-7.1c0,.1-1-4-1-4-1.5-.4-2.9-.9-4.3-1.7l-3.6,2.3-5.1-4.9,2.2-3.7c-.8-1.3-1.4-2.8-1.8-4.2l-4.2-.9v-7.1c-.1,0,4-1,4-1,.4-1.5.9-2.9,1.7-4.3l-2.3-3.6,4.9-5.1,3.7,2.2h0ZM620.1,112.4c-2.9,3-2.8,7.8.2,10.7,3,2.9,7.8,2.8,10.7-.2,2.9-3,2.8-7.8-.2-10.7-3-2.9-7.8-2.8-10.7.2Z"/><path class="cls-10" d="M101.9,181.3c1.3-.8,2.8-1.4,4.2-1.8l.9-4.2h7.1c0-.1,1,4,1,4,1.5.4,2.9.9,4.3,1.7l3.6-2.3,5.1,4.9-2.2,3.7c.8,1.3,1.4,2.8,1.8,4.2l4.2.9v7.1c.1,0-4,1-4,1-.4,1.5-.9,2.9-1.7,4.3l2.3,3.6-4.9,5.1-3.7-2.2c-1.3.8-2.8,1.4-4.2,1.8l-.9,4.2h-7.1c0,.1-1-4-1-4-1.5-.4-2.9-.9-4.3-1.7l-3.6,2.3-5.1-4.9,2.2-3.7c-.8-1.3-1.4-2.8-1.8-4.2l-4.2-.9v-7.1c-.1,0,4-1,4-1,.4-1.5.9-2.9,1.7-4.3l-2.3-3.6,4.9-5.1,3.7,2.2h0ZM105.7,190.7c-2.9,3-2.8,7.8.2,10.7,3,2.9,7.8,2.8,10.7-.2,2.9-3,2.8-7.8-.2-10.7-3-2.9-7.8-2.8-10.7.2Z"/><path class="cls-10" d="M691.5,276.1c1.3-.8,2.8-1.4,4.2-1.8l.9-4.2h7.1c0-.1,1,4,1,4,1.5.4,2.9.9,4.3,1.7l3.6-2.3,5.1,4.9-2.2,3.7c.8,1.3,1.4,2.8,1.8,4.2l4.2.9v7.1c.1,0-4,1-4,1-.4,1.5-.9,2.9-1.7,4.3l2.3,3.6-4.9,5.1-3.7-2.2c-1.3.8-2.8,1.4-4.2,1.8l-.9,4.2h-7.1c0,.1-1-4-1-4-1.5-.4-2.9-.9-4.3-1.7l-3.6,2.3-5.1-4.9,2.2-3.7c-.8-1.3-1.4-2.8-1.8-4.2l-4.2-.9v-7.1c-.1,0,4-1,4-1,.4-1.5.9-2.9,1.7-4.3l-2.3-3.6,4.9-5.1,3.7,2.2h0ZM695.3,285.5c-2.9,3-2.8,7.8.2,10.7,3,2.9,7.8,2.8,10.7-.2,2.9-3,2.8-7.8-.2-10.7-3-2.9-7.8-2.8-10.7.2Z"/><path class="cls-10" d="M254.6,386c1.3-.8,2.8-1.4,4.2-1.8l.9-4.2h7.1c0-.1,1,4,1,4,1.5.4,2.9.9,4.3,1.7l3.6-2.3,5.1,4.9-2.2,3.7c.8,1.3,1.4,2.8,1.8,4.2l4.2.9v7.1c.1,0-4,1-4,1-.4,1.5-.9,2.9-1.7,4.3l2.3,3.6-4.9,5.1-3.7-2.2c-1.3.8-2.8,1.4-4.2,1.8l-.9,4.2h-7.1c0,.1-1-4-1-4-1.5-.4-2.9-.9-4.3-1.7l-3.6,2.3-5.1-4.9,2.2-3.7c-.8-1.3-1.4-2.8-1.8-4.2l-4.2-.9v-7.1c-.1,0,4-1,4-1,.4-1.5.9-2.9,1.7-4.3l-2.3-3.6,4.9-5.1,3.7,2.2h0ZM258.4,395.5c-2.9,3-2.8,7.8.2,10.7,3,2.9,7.8,2.8,10.7-.2,2.9-3,2.8-7.8-.2-10.7-3-2.9-7.8-2.8-10.7.2Z"/><path class="cls-10" d="M207.1,407.5c.9-.6,1.9-1,2.9-1.3l.6-2.9h4.8c0,0,.7,2.8.7,2.8,1,.3,2,.6,2.9,1.2l2.5-1.6,3.5,3.4-1.5,2.5c.6.9,1,1.9,1.3,2.9l2.9.6v4.8c0,0-2.8.7-2.8.7-.3,1-.6,2-1.2,2.9l1.6,2.5-3.4,3.5-2.5-1.5c-.9.6-1.9,1-2.9,1.3l-.6,2.9h-4.8c0,0-.7-2.8-.7-2.8-1-.3-2-.6-2.9-1.2l-2.5,1.6-3.5-3.4,1.5-2.5c-.6-.9-1-1.9-1.3-2.9l-2.9-.6v-4.8c0,0,2.8-.7,2.8-.7.3-1,.6-2,1.2-2.9l-1.6-2.5,3.4-3.5,2.5,1.5h0ZM209.7,414c-2,2.1-1.9,5.4.1,7.4,2.1,2,5.4,1.9,7.4-.1,2-2.1,1.9-5.4-.1-7.4-2.1-2-5.4-1.9-7.4.1Z"/><path class="cls-10" d="M370.8,41.4c2.1-1.3,4.3-2.2,6.6-2.9l1.4-6.5,11-.2,1.6,6.5c2.3.6,4.6,1.4,6.7,2.6l5.6-3.6,7.9,7.6-3.4,5.7c1.3,2.1,2.2,4.3,2.9,6.6l6.5,1.4.2,11-6.5,1.6c-.6,2.3-1.4,4.6-2.6,6.7l3.6,5.6-7.6,7.9-5.7-3.4c-2.1,1.3-4.3,2.2-6.6,2.9l-1.4,6.5-11,.2-1.6-6.5c-2.3-.6-4.6-1.4-6.7-2.6l-5.6,3.6-7.9-7.6,3.4-5.7c-1.3-2.1-2.2-4.3-2.9-6.6l-6.5-1.4-.2-11,6.5-1.6c.6-2.3,1.4-4.6,2.6-6.7l-3.6-5.6,7.6-7.9,5.7,3.4h0ZM376.6,56.1c-4.5,4.7-4.4,12.2.3,16.7,4.7,4.5,12.2,4.4,16.7-.3,4.5-4.7,4.4-12.2-.3-16.7-4.7-4.5-12.2-4.4-16.7.3Z"/><path class="cls-6" d="M675,341.7h58.2c3,0,5.4,2.4,5.4,5.4v51.7c0,2.5-2,4.6-4.6,4.6h-59.9c-2.5,0-4.6-2-4.6-4.6v-51.7c0-3,2.4-5.4,5.4-5.4Z"/><path class="cls-2" d="M675,341.7h58.2c3,0,5.4,2.4,5.4,5.4v8.7h-69v-8.7c0-3,2.4-5.4,5.4-5.4Z"/><path class="cls-6" d="M681,349.5c0,1.4-1.1,2.6-2.5,2.6s-2.5-1.1-2.5-2.6,1.1-2.6,2.5-2.6,2.5,1.1,2.5,2.6Z"/><path class="cls-6" d="M688.7,349.5c0,1.4-1.1,2.6-2.5,2.6s-2.5-1.1-2.5-2.6,1.1-2.6,2.5-2.6,2.5,1.1,2.5,2.6Z"/><path class="cls-6" d="M696.4,349.5c0,1.4-1.1,2.6-2.5,2.6s-2.5-1.1-2.5-2.6,1.1-2.6,2.5-2.6,2.5,1.1,2.5,2.6Z"/><rect class="cls-2" x="682.4" y="362.6" width="43.5" height="33.6" rx="5.5" ry="5.5"/><path class="cls-6" d="M699.3,379v-5.2c0-1.3,1.4-2.1,2.5-1.4l4.5,2.6,4.5,2.6c1.1.6,1.1,2.2,0,2.9l-4.5,2.6-4.5,2.6c-1.1.6-2.5-.2-2.5-1.4v-5.2Z"/><path class="cls-13" d="M735.1,403.3s.2,0,.6,0c.4,0,1.1-.3,1.7-.8.6-.5,1.2-1.5,1.2-2.8,0-1.2,0-2.7,0-4.3,0-6.4,0-15.8,0-27.3,0-5.8,0-12.1,0-18.8,0-.8,0-1.7,0-2.6,0-.4,0-.9,0-1.3,0-.4-.2-.8-.3-1.2-.3-.8-1-1.4-1.7-1.8-.4-.2-.8-.3-1.2-.4-.4,0-.9,0-1.3,0-3.6,0-7.3,0-11.1,0-7.6,0-15.6,0-23.9,0-4.1,0-8.4,0-12.6,0-2.1,0-4.3,0-6.5,0-1.1,0-2.2,0-3.3,0h-1.6c-.5,0-1.1,0-1.6,0-1,.2-2,.7-2.6,1.6-.3.4-.5.9-.7,1.4-.1.5-.1,1-.1,1.6,0,2.2,0,4.3,0,6.5,0,4.3,0,8.5,0,12.6,0,8.3,0,16.3,0,23.9,0,1.9,0,3.8,0,5.6,0,.9,0,1.8,0,2.8,0,.5,0,.9,0,1.4,0,.5,0,.9.1,1.3.2.8.7,1.6,1.4,2,.4.2.7.4,1.2.5.4,0,.8,0,1.3,0,1.7,0,3.5,0,5.2,0,6.8,0,13.1,0,18.8,0,11.5,0,20.8,0,27.3,0,3.2,0,5.7,0,7.4,0,.8,0,1.5,0,1.9,0,.4,0,.7,0,.7,0,0,0-.2,0-.7,0-.4,0-1.1,0-1.9,0-1.7,0-4.2,0-7.4,0-6.4,0-15.8,0-27.3,0-5.8,0-12.1,0-18.8,0-1.7,0-3.4,0-5.2,0-.4,0-.9,0-1.3,0-.5,0-.9-.3-1.3-.5-.8-.5-1.4-1.3-1.6-2.2-.1-.5-.1-.9-.1-1.4,0-.5,0-.9,0-1.4,0-.9,0-1.8,0-2.8,0-1.9,0-3.7,0-5.6,0-7.6,0-15.6,0-23.9,0-4.1,0-8.4,0-12.6,0-2.1,0-4.3,0-6.5,0-.5,0-1.1.1-1.7.1-.6.4-1.1.7-1.5.7-.9,1.7-1.6,2.9-1.7.6,0,1.1,0,1.7,0h1.6c1.1,0,2.2,0,3.3,0,2.2,0,4.3,0,6.5,0,4.3,0,8.5,0,12.6,0,8.3,0,16.3,0,23.9,0,3.8,0,7.5,0,11.1,0,.4,0,.9,0,1.4,0,.5,0,.9.3,1.3.5.8.5,1.5,1.2,1.8,2,.2.4.3.9.4,1.3,0,.5,0,.9,0,1.3,0,.9,0,1.7,0,2.6,0,6.8,0,13.1,0,18.8,0,11.5,0,20.8,0,27.3,0,1.6,0,3,0,4.3,0,1.3-.6,2.3-1.2,2.8-.7.6-1.3.8-1.7.8-.2,0-.4,0-.5,0-.1,0-.2,0-.2,0Z"/><path class="cls-6" d="M664.3,34.4h54.2c3,0,5.4,2.4,5.4,5.4v48.1c0,2.5-2,4.6-4.6,4.6h-55.9c-2.5,0-4.6-2-4.6-4.6v-48.1c0-3,2.4-5.4,5.4-5.4Z"/><path class="cls-2" d="M664.3,34.4h54.2c3,0,5.4,2.4,5.4,5.4v7.9h-65v-7.9c0-3,2.4-5.4,5.4-5.4Z"/><path class="cls-6" d="M669.5,41.7c0,1.3-1.1,2.4-2.4,2.4s-2.4-1.1-2.4-2.4,1.1-2.4,2.4-2.4,2.4,1.1,2.4,2.4Z"/><path class="cls-6" d="M676.8,41.7c0,1.3-1.1,2.4-2.4,2.4s-2.4-1.1-2.4-2.4,1.1-2.4,2.4-2.4,2.4,1.1,2.4,2.4Z"/><path class="cls-6" d="M684.1,41.7c0,1.3-1.1,2.4-2.4,2.4s-2.4-1.1-2.4-2.4,1.1-2.4,2.4-2.4,2.4,1.1,2.4,2.4Z"/><path class="cls-13" d="M720.5,92.4s.2,0,.6,0c.4,0,1-.3,1.6-.8.6-.5,1.1-1.4,1.1-2.6,0-1.2,0-2.5,0-4,0-6.1,0-14.8,0-25.7,0-5.4,0-11.4,0-17.7,0-.8,0-1.6,0-2.4,0-.4,0-.8,0-1.2,0-.4-.2-.8-.3-1.1-.3-.7-.9-1.3-1.6-1.7-.4-.2-.7-.3-1.1-.4-.4,0-.8,0-1.2,0-3.4,0-6.9,0-10.5,0-7.2,0-14.7,0-22.5,0-3.9,0-7.9,0-11.9,0-2,0-4,0-6.1,0-1,0-2,0-3.1,0h-1.5c-.5,0-1,0-1.5,0-1,.1-1.9.7-2.5,1.5-.3.4-.5.8-.6,1.3-.1.5-.1,1-.1,1.5,0,2,0,4.1,0,6.1,0,4,0,8,0,11.9,0,7.8,0,15.3,0,22.5,0,1.8,0,3.6,0,5.3,0,.9,0,1.7,0,2.6,0,.4,0,.9,0,1.3,0,.4,0,.8,0,1.2.2.8.7,1.5,1.4,1.9.3.2.7.4,1.1.5.4,0,.8,0,1.2,0,1.6,0,3.3,0,4.9,0,6.4,0,12.3,0,17.7,0,10.8,0,19.6,0,25.7,0,3,0,5.4,0,7,0,.8,0,1.4,0,1.8,0,.4,0,.6,0,.6,0,0,0-.2,0-.6,0-.4,0-1,0-1.8,0-1.6,0-4,0-7,0-6.1,0-14.8,0-25.7,0-5.4,0-11.4,0-17.7,0-1.6,0-3.2,0-4.9,0-.4,0-.8,0-1.3,0-.4,0-.8-.3-1.2-.5-.7-.5-1.3-1.2-1.5-2.1-.1-.4-.1-.9-.1-1.3,0-.4,0-.9,0-1.3,0-.9,0-1.7,0-2.6,0-1.7,0-3.5,0-5.3,0-7.2,0-14.7,0-22.5,0-3.9,0-7.9,0-11.9,0-2,0-4,0-6.1,0-.5,0-1.1.1-1.6.1-.5.4-1,.7-1.4.6-.9,1.6-1.5,2.7-1.6.5,0,1.1,0,1.6,0h1.5c1,0,2.1,0,3.1,0,2,0,4.1,0,6.1,0,4,0,8,0,11.9,0,7.8,0,15.3,0,22.5,0,3.6,0,7.1,0,10.5,0,.4,0,.9,0,1.3,0,.4,0,.8.2,1.2.4.8.4,1.4,1.1,1.7,1.9.2.4.3.8.4,1.2,0,.4,0,.8,0,1.2,0,.8,0,1.6,0,2.4,0,6.4,0,12.3,0,17.7,0,10.8,0,19.6,0,25.7,0,1.5,0,2.9,0,4,0,1.2-.6,2.1-1.2,2.7-.6.5-1.2.7-1.6.8-.2,0-.4,0-.5,0-.1,0-.2,0-.2,0Z"/><rect class="cls-10" x="677.3" y="56.2" width="28.9" height="28.9" rx="4" ry="4"/><path class="cls-2" d="M677.3,76.8v5.4c0,1.5,1.3,2.8,2.8,2.8h23.2c1.6,0,2.8-1.3,2.8-2.8v-8.7l-6.7-6.3c-.8-.7-2-.6-2.7.1l-5.3,6-5.2-2.5c-.9-.4-2.1-.3-2.9.4l-6.2,5.5Z"/><path class="cls-2" d="M692.9,63.8c0,1.4-1.2,2.6-2.6,2.6s-2.6-1.2-2.6-2.6,1.2-2.6,2.6-2.6,2.6,1.2,2.6,2.6Z"/><path class="cls-4" d="M752.5,445.4c0,.1-144.4.3-322.5.3s-322.5-.1-322.5-.3,144.4-.3,322.5-.3,322.5.1,322.5.3Z"/><rect class="cls-6" x="119.3" y="32.9" width="161" height="94.1" rx="6.1" ry="6.1"/><path class="cls-4" d="M274.2,126.9s.4,0,1.3-.2c.8-.2,2.1-.6,3.2-1.9.6-.6,1.1-1.4,1.3-2.4.3-1,.2-2.1.2-3.3,0-2.4,0-5.2,0-8.4,0-12.7,0-30.9,0-53.5,0-5.7,0-11.6,0-17.7,0-1.5-.3-3-1.3-4.2-1-1.2-2.4-2-3.9-2.2-3.2,0-6.5,0-9.8,0-13.3,0-27.5,0-42.4,0-29.9,0-62.7,0-97.2,0-2.1,0-4.1,1.1-5.1,3-.5.9-.8,1.9-.8,2.9,0,1.1,0,2.1,0,3.2,0,4.3,0,8.5,0,12.7,0,8.4,0,16.7,0,24.8,0,8.1,0,16.1,0,23.9,0,3.9,0,7.8,0,11.6,0,1.9,0,3.8,0,5.7,0,1.8,1,3.6,2.5,4.6.7.5,1.6.9,2.5,1,.9.1,1.8,0,2.7,0,1.8,0,3.7,0,5.5,0,3.6,0,7.2,0,10.8,0,7.1,0,14,0,20.6,0,13.3,0,25.7,0,37,0,22.6,0,40.9,0,53.5,0,6.3,0,11.2,0,14.6,0,1.7,0,2.9,0,3.8,0,.9,0,1.3,0,1.3,0,0,0-.4,0-1.3,0-.9,0-2.1,0-3.8,0-3.3,0-8.2,0-14.6,0-12.7,0-30.9,0-53.5,0-11.3,0-23.7,0-37,0-6.6,0-13.5,0-20.6,0-3.5,0-7.1,0-10.8,0-1.8,0-3.7,0-5.5,0-.9,0-1.8,0-2.8,0-1-.2-1.9-.5-2.7-1.1-1.6-1.1-2.6-3-2.7-5,0-1.9,0-3.8,0-5.7,0-3.8,0-7.7,0-11.6,0-7.8,0-15.8,0-23.9,0-8.1,0-16.4,0-24.8,0-4.2,0-8.4,0-12.7,0-1.1,0-2.1,0-3.2,0-1.1.3-2.2.9-3.2,1.1-2,3.3-3.2,5.5-3.2,34.5,0,67.3,0,97.2,0,14.9,0,29.1,0,42.4,0,3.3,0,6.6,0,9.8,0,1.7.2,3.2,1.1,4.2,2.3,1,1.3,1.5,2.9,1.4,4.5,0,6.2,0,12.1,0,17.7,0,22.6,0,40.9,0,53.5,0,3.2,0,6,0,8.4,0,1.2,0,2.4-.3,3.4-.3,1-.8,1.8-1.4,2.4-1.2,1.2-2.4,1.7-3.3,1.8-.4,0-.7.1-1,.1-.2,0-.3,0-.3,0Z"/><rect class="cls-13" x="130.1" y="41.7" width="41.7" height="7" rx="1.5" ry="1.5"/><path class="cls-13" d="M270.8,111.1c-1.6-2.8,0-.5-1.9.7,0,.2.2.2.2.4,0,.2-.4.2-.4.6.7,0,1.8-.9,2.7-1.7-.1-.1-.3,0-.5,0Z"/><path class="cls-13" d="M267.6,112.5c-.9.9-2.7,1.4-4.3,2.3-.4,1.6,3.6-.8,4.9-2.1-.2,0-.5-.3-.6-.2Z"/><path class="cls-13" d="M263.1,95.7c.5,0,.7-.2.7-.6,0,0,0,0-.1,0-.3.1-2.1.2-.6.6Z"/><path class="cls-13" d="M262.4,96.8c-.8-2.2-3.6-4-6.5-3-.2-.4-.6-1.9-1.4-.9-.2,2,2.6,1.1,3.1,3-1.1,1,.7.8,2.1,1.2,1.1-1.4,1.2-.5,2.5.5,1,.3,1.4,0,.2-.8Z"/><path class="cls-13" d="M256,112.7c-1.8,0-.4,2.7.8,0-.2-.2-.5,0-.8,0Z"/><path class="cls-13" d="M255,75.2c-.5-.7,0-2.4-1.5-2.8,1.6,3.2-3.6,2-2.5,4.4.3.5.7.6.8-.4,1-.2,1.8-.8,3.2-1.2Z"/><path class="cls-13" d="M252.8,71.7c0,.2.4.5.6.5.1-.9.7.1,1.5-.8,0-.5-1.5-.5-2.1-.9,0,0,0,0,0,0,0,.3.5.5,0,1.2Z"/><path class="cls-13" d="M253.5,98.2c0,.1.4.2.4,0,0-.2-.4-.1-.4,0Z"/><path class="cls-13" d="M252.5,69.9c.4-.3-.2-.6-.4-.7-.1.3.2.6.4.7Z"/><path class="cls-13" d="M250.4,97.6c.4-.1.8-.4,1.6-.9-.6,0-1.2.2-1.7.8,0,0,0,0,.1.1Z"/><path class="cls-13" d="M250.9,92.1c-.4,0-1.7-.5-2.1.3.5-.2,1.8.3,2.1-.3Z"/><path class="cls-13" d="M250.2,95.2c.1,0,0-.4,0-.6-.3-.3-.3-.8-.6-1.1.1-.3.6-.3.6-.7-1.7.3-2.3-.5-1.7,2.4.4.1.3-.8.6-1.2.2.3.5,1.3,1,1.2Z"/><path class="cls-13" d="M249.4,96.8c0-.2-.6-.3-.7,0,0,.2.6.3.7,0Z"/><path class="cls-13" d="M248.3,97.2c0,.2.3.3.5.3,0,0,0,0,.1-.1,0-.2-.4-.4-.6-.2Z"/><path class="cls-13" d="M247.3,96.7c-.2,0-.4-.1-.5,0,0,.2.3.2.6.2.2-.2.6,0,.8-.2,0-.4-.5-.2-.8-.1Z"/><path class="cls-13" d="M262.5,104.5c-.2-.4-.8-.9-1-2-1.4-.4-.5-2.3-1.8-3.1,0-.5,0-1.2-.4-1.5-1.3.7-.1,5.5-3.6,1.8,0-.1,0-.2.4-.4.6-1.3-.6-.7-1.8-1.3-.1.1,0,.2,0,.4-1.6,0-.8,1.7-3.2,1-1.4.6-1.8,2.4-3.7,2.9-3.3.8-3.3,1.6-3.2,6.1,0,.5-1.1.8-.1,1.3,1.2,0,1.8-.8,3.4-.6,1-.8,5.1-2.3,5.4.4.5,0,.2-.3,1.1-.6,0,0-.1.2-.1.4.2.1.2.3.1.5.3,4.5,9.9-1.3,8.4-5.4Z"/><path class="cls-13" d="M245.5,96.7c.3,0,.6.2.9,0-.2-.3-.7-.3-1-.4,0-.1,0-.2,0-.3-2.8-.6-6,0,.1.8Z"/><path class="cls-13" d="M247.8,89.6c-.7-1.6-1.5,1.8-4.2,2.2-.4,2,1.4,2.8,3.3,2.6.3-.2,0-1,.7-1.5.7-.9-.4-1.7.6-2.9-.1-.2-.4-.2-.5-.4Z"/><path class="cls-13" d="M243,93.5c-.7,0-.7,1,0,1s.7-1,0-1Z"/><path class="cls-13" d="M242,94.3c.4-.2.4-1.3-.4-.8-.9-1.3-2.6-3.3-4.7-3.7,1.4,1.6,2.4,3.7,4.4,5.5.2,0,.4,0,.5,0,.2-.2,0-.6.2-1Z"/><path class="cls-13" d="M229.6,87.8s0,0,0,0c-.6,3,2,1.4,0,0Z"/><path class="cls-13" d="M214.5,98.7c-.3,1.1-1.9,1.3-2.5,2.5-1.2,5.1,1.5,5.4,2.8-.8.5-.3.4-1.5-.3-1.7Z"/><path class="cls-13" d="M237.8,85.2c.8,1.7.5,5.4,3.4,6.7.4-2-2.3-2.6-2.4-4.8,0-2.1,2.1-.2,2.7,1.1.6-.3,1.1-.9,1.9-1.5.4-2.2-2.3-2.3-2-4,.6-.6,1.2-1.3,1.7-.1,0,.1-.9.9,0,1,.2-2.6,3.6-1.3,4.3-4.6.4-.2.2-.6.2-1.1,0-.2-.4-.2-.4-.3,0-.1,0-.2,0-.3-.2-.9-2.9-1.9-.9-3-.2-.3-2.5,0-2.2-.9.6-.3,1.3-1.5,1.5,0,1.8-1.3,2.3,1.8,3.7,2.2.6-.3.9-.4.3-1.2-.5-.9-1.7-.4-1-2.4.5-1.3,2.5.9,2-3.6-1.4-2.1.1-.8,1.2.6.5-1-1.1-1.8-2-2.7-.7.3-2.2-.1-3.4-.6.5-2,2.1-2.4,4.5-1.7,0,0,1.2,0,.7-.4-.9-2.1,2.1.5,2-1.2.7.2.7,1.4,0,2.2.4,1.4,1.8,1.9,3,3,.2-.1.3-.8,0-1.4.6-.5-.2-.3,0-1.1-.1-.4-1.4-.4-1.5-1.5.4-.6,1.7,0,2.4-.5.4-.5.5-.8,1.6-.8-3-1.7.1-1.1,1.7-.8-1.7-2.1-5.9-1.6-9.2-2.3-.2.1.1.3,0,.4-3.9-.3-7.6-1.3-12.2-1.4-.3.6-1.1.3-2.1.4-.9.9-1.1-.8-2.7-.8-1.8,0-3.4.5-5.4-.4-1.9-1.6-5.8-.7-8.6,0-.1.1.1.2,0,.3-.4.1-1.1,0-1.3.2,0,.2.1.3,0,.4-.7-.2-1.7.5-2.2.3-.6-1.5-2.9.3-.8,1.2-.9,0-1.4-.5-3-.5.3.8-1.3.2-3.1.6-.3,0-1.2,1.1-1.7.4,0-.2.1-.1.1-.3,0-.1-.6-.2-.7,0-.2.3.2.4.1.7,0,0,0,0-.1.1-.5-.2-.9,0-1.2.3,0,.1,0,.4-.2.4-.4,0-.7-.3-1,0,0,.3.3.1.3.4-.6,0-1.2-.4-1.2-1,6.3.3-3.3-3.3-7.3-1-.1,1.3-1.9,2-3.6,3-.1,2,.9,1.4,2.4,1.3,0,.5,1.2,1.2-.2,1.3,0-.2,0-.6-.2-.8-1,.2-.6.8-.8,1.7-2.1.4-3.2,2.4-5.5,2.6,3.4,2.4,0,2.1-2.2,2.6.4.7-.9,2.2.2,2.8.6-.2,1.3.4.6,1.3-.5.5-1.7.7-1.6,2.1-2.1,1.9-3.7,2.4-3.5,6.9-1.2.7,2.2,5.8,4.6,5.5,1-.6,1.6.3,3.1-.4.5-.3,2.6-.9,3,.6,2.2-.3,1.8.7,1.5,2.9.7,1,1.3,1.4,1.9,2.9,1.2,2-1.6,3.6-.2,5.7,1,1.7,1.5,5.8,3.2,7.6,2.6-.2,5.8-1.3,6.4-4.6,2.1-.7.5-1.3,1.1-2.9,1.6-1.5,3.1-1.2,2.6-4.4-.3-.2-.4-.6-.5-1-1-4,5.7-5.4,5.5-10-.9-.1-2.7,1.4-3.7,0-1.4-2.1-3.5-4.6-4.8-7.8.1-.1.3-.2.6-.2,1.5,1.4,2.1,3.5,3.7,5.3,0,.1-.2,0-.2.3.4.4.7.9.9,1.9,2.3-.4,6-1.7,7.4-4.6-.5-1.1-1.2-.2-1.9-1.8-.5.4-.8,1-1.9.8-.2-.1-.1-.6-.2-.8-.1-.1-.3,0-.4,0-1.5-1.5-1.9-3.4,1-.7,1.6.3,3.1,1.3,5.6,1,1.1-.2,1.3.5,2.5,1.3,0,.6.8,1.3,1.5.6.4,1.7,3.8,11.5,4,3,.8-.6,1.7-1.6,2.9-2.6,0-.6,1.6-.8,2.3-.7.6.9,1.4,2,2,3,.6-.3,1.1-.9,1.3.4ZM196.6,65.8c1.1-.3,2.5-1.2,2.5-2.5-1.5-.3,1.3-2.7,2.2-2.2-2.4,2-.8,2.5,1.8,2.3-.3.5-1.8,0-2.5.8.2-.2,1.5.5.4.4-.6-.3-.7.1-.7,1,.2.6-5.7.5-3.6.2ZM205.6,96.1c-.4,0-.6-.8-.4-1.2h0c.2.2,0,.7.4,1.2ZM207.6,98c.3.1.1.7,0,.9-.3-.1-.2-.7,0-.9h0ZM207.5,92.7c0,.4-.1.4-.5,1-.3,0-.6,0-.7-.2-.1-.4.4-1.5,1.2-.8ZM207.3,76.3c-.3,1.7-3.2.9-5.2.4-4.2-1.2,1.7,2.9-6-.7-.8-.7,1.6-1.8-1.9-1.7-1.4,0-2.8.7-4.6.9-.5.1-1.2-.8.2-.7,1.8,0,1.2-2,3.1-2.6,0-.2,0-.3,0-.4.7-.1,1.6-.3,2.8-.6.3,1.3,3,1.2,2.7,2.9.2,0,.8-.2.4-.9.1-.3.5,0,.6-.1-.5-.7-2.3-.9-2.6-2.4,0,0,.2-.2.3-.2,1.2.9,2.6,1.6,3.7,3.7,0,.5.2.7.7.7,0-.2.9-.6.6-.9-.2-.2-1-.8-.2-.7.2-.3.7-.6,1-.2.1.8.4,1.5,1,1.9,1.1,0,2.1.2,3.6,0,0,.5.3.8-.2,1.6ZM209.3,72.4c-1.7-.1-3.8-.6-5.7.2,0-.2.3-.1.3-.3-.6-.5.3-3,1.7-2.2.2.3.5,1,1.4.4-.6-.4-.1-.9.8-.8-1.2,1.5,2.8,1.3,1.5,2.8ZM215.5,74.3c-1.2.6-2.3,0-2.2-1.8-1.3-.9-2.4-2.8.9-2.8.2,0,.3.5.1.7-.9,0-1,.9.2,1.4,0,.2,0,.3.2.4.4-.2.8,0,.8.4,0,.2-.4,0-.5,0,0,0,0,0,0,0,.1.7.8.7.7,1.6ZM217.5,70.9c-.3,0-.7-.6-.3-.7.3,0,.7.6.3.7ZM218,60.6c.3-.6-.1-1-.6-1.7,0,0,0,0,0,0,.4.2,2.1,1.6.6,1.8ZM223.4,70.1c-.1-.2.2-.4.3-.2,0,.1,0,.2-.3.2ZM228.4,57.8c0-.1.3-.3.8-.4,0,.3-.6.4-.8.4ZM236.1,66.6c-.2.3-.2.3-1,.7,0-.2.2-.3.3-.4,0-.3.3-.7.4-1.3.2.2.4.6.3.9Z"/><path class="cls-13" d="M209.7,59.7c0-.3-.4-.3-.4,0,0,0,.3.1.4,0Z"/><path class="cls-13" d="M206.1,75.4c.1.3.6.1.6-.1,0-.2-.6-.1-.6.1Z"/><path class="cls-13" d="M197,74c.2.3.6.4,1,.5.2-.1.2-.4.2-.6-.4,0-1-.1-1.3,0Z"/><path class="cls-13" d="M195.1,72.6c0,.3,0,.5,0,.7.2.3.5,0,.6-.2.1-.7-.2-.9-.6-.6Z"/><path class="cls-13" d="M195.5,72.2c.1,0,.2-.2.2-.4-.3-.3-.5.3-.2.4Z"/><path class="cls-13" d="M189.5,65.4c0,.3,1.8.8.6,1.3,0,.3-.2.3-.3.6,0,.1.2.1.3.3,0,.2-.3.2-.3.4.5.1,1.5-.1,2.4-.3.9-1-1.8-1.6-1-2.9,0-.2-.5,0-.5-.3,0-.1.2-.2.2-.3,0,0,0,0-.1,0-.4.3-1.5.2-1.2,1.4Z"/><path class="cls-13" d="M188.8,67.2c.2.2,1.4-1.5.2-1.5-.4.1-1.4.3-1.1,1.1,0,.2-.3.2-.3.5.3.4.9,0,1.2,0Z"/><path class="cls-13" d="M170.5,60c-.2-.3-.8,0-.8.2,0,.3.8,0,.8-.2Z"/><path class="cls-13" d="M165.6,62.3c.3,0,.2,0,0,0-.5.4.9.4,0,0Z"/><path class="cls-13" d="M178.7,95c-2.2-1.1-4.4-1.3-6.9-2.8,0-3.1-4.4-1.9-5.3-4.8-.2-.1-.2.2-.4.2-.6-.6-1.2,0-2.6-.3-.5-.4-1-.8-1.8-.3.5-1.3-1.9.3-2.7,1.3-.8-1-2.1.5-3-1-.7-1.4,1.8-2.9-2.1-2.7-.2-.6,1.2-1.5.7-2.7-1.4-.3-1.1,1.4-2.7,1.5-2.2.4-2.1-2.1-1.2-4.2.8-1.7,2.9-.6,4.4-1.6.7.2,3.1-.3,2.5,1.4.2.3.7.3,1.1.4-.3-2.5.5-3,3.3-4.5.1-.3,0-.8,0-1.1.1,0,.3,0,.4,0,.6-.7,1.5-1.6,2.9-1.8,0-1,1.4-1.4,2.7-1.7-1.4,1.2,2.3.2,2.5-.8-.3,0-.4.3-.7.4-.6,0-1.6-.5-.5-1.4-.1-.4-.7,0-1-.2.5-.8,1-.4,2,0,0-.3-.4-.2-.3-.4.8,0,1.7-.3,2.8-.6-.2.5-.9.8-1.5,1.6.3-.2,2.9,1.2,2.4,0,.6-.7-1.3-.8-.4-1.4.6-1,0-1.5-1-2.3.5-4-2.9.8-2.2-2.1-.5-.5-2.4-1.5-3.1-.1-.4,1.1-.4,3-2.5,2.9,0,.7-1.7,2.7-1.4.4,1.4-1.2-2.6-.6-2.8-2.1-1-1.3,2.7-2,5-3,0,.3-.4.4-.5.7.5.4,1.4-.2,2.1-.1,0-.4-.7-.4-1-1.1.9.3,2,0,2.7-1.4,2.6-.4,3.6,1.4-.3,2.2,1.6-.2,1.5.9,3.6,1.1.1-.3-.3-.3-.1-.5.3,0,.5.1.7.2,1.1-.1-.5-1.8.7-1.4.2.7,2,.2,1.4-.6-.3-.4-1.1-.1-1.2-.9.5-.8-1.4-.6-1.8-1.6-.4,0-.7-.1-1,0-.6-.4-5.7.3-3.1,1.5-.1.4-.7.8-1.5.9.5-1-.7-.2-.4-1.7.3-.5,1.4-.2,1.7-.8-.6-.6-1.6.1-2.4.7,0-.3.3-.4.3-.7-.1-.2-1-.1-1.6.3-.2,0-.4-.1-.5,0,.3.2,0,.6,1.2.6-.4.4.2,1.4-1,1.3,1.1-1.9-1.8,1.4-3.3-.4.5,0,1,.4,2.1-.3-.4-.5-.6-.8.4-1.4-.2-.2-1,0-1.6.4-.2,0-.2-.2-.4-.3-1,0-4.8-1.6-5.3.7.6,0,1.1-.3,1.6-.3-.2,1.9-1.4.7-3.4,1-4.4.3-9.9-1.6-15,.6,0,.2.2.4.2.7-.6,0-4.5.6-1.2,1-6.7,1.5-.5,2.7,3.5,1.7.5.5,2.8,0,2.2,1.5.2.2-.4,1.2.3.9,1-.2-.4,1.7,0,2.7,1,1-1.2,2.3-2.3,4.4-.4,1.5.3,2.6,1.3,3.9.3,1.7.3,3.2,2,4.5-.4-1.3-2.6-7.1.5-1.6,0,.2,0,.2,0,.4,1.1.8,1.1,1.9,1.6,3.3,2.3,1.8,6,1.3,8.3,3.8,0,.2,0,.4,0,.5.4,0,2.2,2.2,2.6,1,.8-1.4,2.1,2.3.6,2.9-2.5,2.6,0,5.2,1.8,8.3.9,1,2.5.7,2.9,2.3.6,3.8-.1,7.5,1.3,11.6.3-.1,0-.5.1-.6.4.1.3.7.4,1.1-1.2.9,1.2,4.8,4.3,5.3h.8c.2,0,.4-.1.5-.3-1.8-1.1-2.5-1-1.8-3.6-1.8-.9-.2-.4-.4-1.7,0-.3.3-.3.4-.6-.2-.4-.6.3-.7-.7.3-.1.8.3,1-.1-.6-1.8,3.6-.2,1.2-3.1,2.5.6,1.9-1,3.6-3.1-.8-2.6,2.6-1.7,3.4-3.8.8-.8,0-2.9.9-4,.4-.9,2.2-2.2.9-3.6ZM162.4,71.1c.2,0,.6,0,.7,0,0,.3-.8.3-1.1.1,0-.1.2-.2.4-.2ZM171.8,60.6c0,.1,0,.2-.2.2-.1-.1,0-.2.2-.2ZM159.3,70.5c-1.8,3.1-2,0,.5-.4,0,.3-.3.3-.5.4ZM160.4,72.2c-1,0-.5-.5.9-.4-.2.2-.5.3-.9.4ZM160.8,70c0,.2,1.2-.1.9.7-.5-.3-1.6,1.5-1.3-.1,0-.2-.1-.2-.1-.3,0,0,.3-.2.5-.2ZM159.8,68.7c1.5,1.7-1.1.8-2.1.8.3-.4,1.3-.6,2.1-.8ZM157.5,59.9c.4,0,.9,0,1.2,0,0,.1,0,.2-.2.3-.5-.4-1.3.2-1.7-.2,0-.6.4-.5.7-.2ZM156.5,66.4c.5-.1.3.8,0,.8-.4,0-.3-.7,0-.8ZM153.9,62.9c-.3,0-.6.3-1,.2.2,0,.5-.9,1.4-.4,0,.2-.2.1-.4.2ZM152.8,60.7c.5,0,1.3-.4,1.4.2-.4.2-.8.2-1.7.3,0-.2.2-.4.3-.5ZM161.6,88c-.2,0-.3-.3-.1-.4.3-.1.3.4.1.4Z"/><path class="cls-13" d="M143.1,66.3c-.1-.3-.5,0-.5.2,0,0,0,0,.1.1.2,0,.3-.1.4-.3Z"/><path class="cls-3" d="M156.6,66.7c0,1.1-.9,2-2,2s-2-.9-2-2,.9-2,2-2,2,.9,2,2Z"/><path class="cls-12" d="M209.3,104.1c0,1.1-.9,2-2,2s-2-.9-2-2,.9-2,2-2,2,.9,2,2Z"/><path class="cls-3" d="M240.5,64.9c0,1.1-.9,2-2,2s-2-.9-2-2,.9-2,2-2,2,.9,2,2Z"/><path class="cls-12" d="M158,86.1c0,1.1-.9,2-2,2s-2-.9-2-2,.9-2,2-2,2,.9,2,2Z"/><path class="cls-12" d="M206.8,62.8c0,1.1-.9,2-2,2s-2-.9-2-2,.9-2,2-2,2,.9,2,2Z"/><path class="cls-3" d="M208,87.1c0,1.1-.9,2-2,2s-2-.9-2-2,.9-2,2-2,2,.9,2,2Z"/><path class="cls-6" d="M251.8,93.6c0,1.1-.9,2-2,2s-2-.9-2-2,.9-2,2-2,2,.9,2,2Z"/><path class="cls-3" d="M253.2,104.4c0,1.1-.9,2-2,2s-2-.9-2-2,.9-2,2-2,2,.9,2,2Z"/><path class="cls-12" d="M240.5,84.8c0,1.1-.9,2-2,2s-2-.9-2-2,.9-2,2-2,2,.9,2,2Z"/><path class="cls-3" d="M171.9,103.1c0,1.1-.9,2-2,2s-2-.9-2-2,.9-2,2-2,2,.9,2,2Z"/><path class="cls-3" d="M598,103.7H224.9c-6.4,0-11.6,5.2-11.6,11.6v263.5c0,6.4,5.2,11.6,11.6,11.6h143.2l-7,54.9h103.9l-5.8-54.9h138.8c6.4,0,11.6-5.2,11.6-11.6V115.4c0-6.4-5.2-11.6-11.6-11.6Z"/><path class="cls-4" d="M416.4,362.8c5.1,7.3-2.9,15.2-10.1,10.1-.2-.2-.5-.4-.6-.6-5.1-7.3,2.9-15.2,10.1-10.1.2.2.5.4.6.6Z"/><path class="cls-13" d="M233.4,113.8h356.1c5.4,0,9.7,4.3,9.7,9.7v218.8H223.7V123.5c0-5.4,4.3-9.7,9.7-9.7Z"/><path class="cls-8" d="M213.3,335.8v4.5h368.3s3.3-13.6,5.9-28.5c4.5-25.8,6-61.1,6.3-70.8.3-9.7,0-5.5,0-5.5l-380.6,100.4Z"/><path class="cls-11" d="M223.9,121.9s.7,189.7-33.3,213.9h385.5s8.9-21.1,20.4-131.9c2.8-26.8,2.8-47.4,2.8-47.4v-34.7c0-4.4-3.6-8-8.1-8H232c-4.5,0-8.2,3.6-8.1,8.1Z"/><path class="cls-4" d="M223.9,121.9s0-.3,0-.8c0-.5.1-1.3.5-2.3.4-1,1-2.1,2.2-3.1,1.1-1,2.8-1.9,4.8-2,8,0,19.8,0,35,0,30.4,0,74.3,0,128.6,0,54.3,0,119,0,190.8,0,1.1,0,2.2,0,3.4,0,1.1,0,2.3,0,3.4.1,2.3.4,4.4,1.8,5.6,3.8.6,1,1,2.1,1.2,3.3.1,1.2,0,2.3,0,3.4,0,2.3,0,4.6,0,6.9,0,9.2,0,18.5,0,27.9-.2,9.4-.6,18.9-1.3,28.5-.7,9.6-1.7,19.2-2.8,28.9-2.1,19.4-4.4,39.2-7.3,59.2-1.4,10-3,20.1-4.8,30.1-.9,5-1.9,10.1-3,15.1-1.1,5-2.2,10.1-4,15v.2h-2.6c-146.4,0-280.5,0-383.1,0h-.6s.5-.4.5-.4c1.7-1.2,3.1-2.7,4.5-4.3,1.3-1.6,2.4-3.3,3.4-5.1,2-3.6,3.6-7.3,5-11.1,2.8-7.5,4.8-15.1,6.5-22.5,3.3-14.9,5.4-29.1,7-42.5,3.2-26.7,4.5-50,5.5-69,.9-19,1.2-33.8,1.4-43.9.1-10,.2-15,.2-15.4,0,0,0,1.3,0,3.9,0,2.6,0,6.4,0,11.4-.1,10.1-.4,24.9-1.3,43.9-.9,19-2.2,42.2-5.4,69-1.6,13.4-3.6,27.6-6.9,42.5-1.7,7.4-3.7,15-6.5,22.6-1.4,3.8-3,7.5-5.1,11.1-1,1.8-2.2,3.5-3.5,5.2-1.3,1.6-2.8,3.1-4.5,4.4v-.4c102.5,0,236.7,0,383,0h2.4l-.2.2c1.7-4.8,2.8-9.9,3.9-14.9,1.1-5,2.1-10.1,3-15.1,1.8-10.1,3.4-20.1,4.8-30.1,2.9-20,5.2-39.7,7.3-59.2,1-9.7,2.1-19.3,2.8-28.9.7-9.6,1.2-19.1,1.3-28.5,0-9.4,0-18.7,0-27.9,0-2.3,0-4.6,0-6.9,0-1.1,0-2.3,0-3.4-.1-1.1-.5-2.2-1.1-3.1-1.2-1.9-3.1-3.2-5.3-3.6-1.1-.2-2.2-.1-3.3-.1-1.1,0-2.3,0-3.4,0-71.8,0-136.5,0-190.8,0-54.3,0-98.3,0-128.6,0-15.2,0-27,0-35,0-2,.1-3.6,1-4.8,2-1.1,1-1.8,2.1-2.2,3.1-.7,1.9-.5,3-.6,3Z"/><path class="cls-4" d="M497.7,390.5c0,.1-31.3.2-69.8.2s-69.8-.1-69.8-.2,31.3-.2,69.8-.2,69.8.1,69.8.2Z"/><path class="cls-13" d="M310.4,142.4h-61.6c-2.4,0-4.3-1.9-4.3-4.3h0c0-2.4,1.9-4.3,4.3-4.3h61.6c2.4,0,4.3,1.9,4.3,4.3h0c0,2.4-1.9,4.3-4.3,4.3Z"/><path class="cls-5" d="M329.2,173.4h-77.4c-5.4,0-9.8-4.4-9.8-9.8h0c0-5.4,4.4-9.8,9.8-9.8h77.4c5.4,0,9.8,4.4,9.8,9.8h0c0,5.4-4.4,9.8-9.8,9.8Z"/><path class="cls-13" d="M363.5,189.6h-115.9c-1.7,0-3.1-1.4-3.1-3.1h0c0-1.7,1.4-3.1,3.1-3.1h115.9c1.7,0,3.1,1.4,3.1,3.1h0c0,1.7-1.4,3.1-3.1,3.1Z"/><path class="cls-13" d="M363.5,199.3h-115.9c-1.7,0-3.1-1.4-3.1-3.1h0c0-1.7,1.4-3.1,3.1-3.1h115.9c1.7,0,3.1,1.4,3.1,3.1h0c0,1.7-1.4,3.1-3.1,3.1Z"/><path class="cls-13" d="M298,209h-50.4c-1.7,0-3.1-1.4-3.1-3.1h0c0-1.7,1.4-3.1,3.1-3.1h50.4c1.7,0,3.1,1.4,3.1,3.1h0c0,1.7-1.4,3.1-3.1,3.1Z"/><path class="cls-13" d="M568.8,295.4h-140.9c-1.7,0-3.1-1.4-3.1-3.1h0c0-1.7,1.4-3.1,3.1-3.1h140.9c1.7,0,3.1,1.4,3.1,3.1h0c0,1.7-1.4,3.1-3.1,3.1Z"/><path class="cls-13" d="M564.8,161h-133.2c-1.7,0-3.1-1.4-3.1-3.1h0c0-1.7,1.4-3.1,3.1-3.1h133.2c1.7,0,3.1,1.4,3.1,3.1h0c0,1.7-1.4,3.1-3.1,3.1Z"/><path class="cls-13" d="M480.5,172.7h-49c-1.7,0-3.1-1.4-3.1-3.1h0c0-1.7,1.4-3.1,3.1-3.1h49c1.7,0,3.1,1.4,3.1,3.1h0c0,1.7-1.4,3.1-3.1,3.1Z"/><path class="cls-13" d="M568.6,306.7h-140.9c-1.7,0-3.1-1.4-3.1-3.1h0c0-1.7,1.4-3.1,3.1-3.1h140.9c1.7,0,3.1,1.4,3.1,3.1h0c0,1.7-1.4,3.1-3.1,3.1Z"/><path class="cls-13" d="M498.2,317.9h-73.9c-1.7,0-3.1-1.4-3.1-3.1h0c0-1.7,1.4-3.1,3.1-3.1h73.9c1.7,0,3.1,1.4,3.1,3.1h0c0,1.7-1.4,3.1-3.1,3.1Z"/><path class="cls-13" d="M491.1,144.5h-58.2c-2.5,0-4.5-2-4.5-4.5h0c0-2.5,2-4.5,4.5-4.5h58.2c2.5,0,4.5,2,4.5,4.5h0c0,2.5-2,4.5-4.5,4.5Z"/><path class="cls-4" d="M425.9,190.4s0,.1,0,.3c0,.2,0,.6,0,1,0,.9,0,2.2,0,3.9,0,3.4,0,8.4,0,14.7,0,12.6,0,30.4,0,51.2l-.2-.2c11.3,0,23.7,0,36.6,0,29.8,0,56.7,0,76.2,0,9.7,0,17.6,0,23.1,0,2.7,0,4.8,0,6.3,0,.7,0,1.2,0,1.6,0,.4,0,.6,0,.6,0,0,0-.2,0-.6,0-.4,0-.9,0-1.6,0-1.5,0-3.6,0-6.3,0-5.5,0-13.4,0-23.1,0-19.5,0-46.5,0-76.2,0-12.9,0-25.3,0-36.6,0h-.2s0-.2,0-.2c0-20.8,0-38.5,0-51.2,0-6.3,0-11.3,0-14.7,0-1.7,0-3,0-3.9,0-.4,0-.8,0-1,0-.2,0-.3,0-.3Z"/><rect class="cls-5" x="509.8" y="242.7" width="7.6" height="12.2" transform="translate(1027.2 497.7) rotate(180)"/><rect class="cls-5" x="540.3" y="242.7" width="7.6" height="12.2" transform="translate(1088.1 497.7) rotate(180)"/><rect class="cls-5" x="555.5" y="247.4" width="7.6" height="7.6" transform="translate(1118.5 502.4) rotate(180)"/><rect class="cls-5" x="525" y="236.9" width="7.6" height="18.1" transform="translate(1057.6 491.8) rotate(180)"/><rect class="cls-5" x="494.6" y="232.4" width="7.6" height="22.5" transform="translate(996.7 487.4) rotate(180)"/><rect class="cls-5" x="479.4" y="226" width="7.5" height="29" transform="translate(966.3 481) rotate(180)"/><rect class="cls-5" x="464.1" y="218.8" width="7.6" height="36.1" transform="translate(935.8 473.8) rotate(180)"/><rect class="cls-5" x="448.9" y="209.1" width="7.6" height="45.9" transform="translate(905.4 464) rotate(180)"/><rect class="cls-5" x="433.7" y="195.4" width="7.6" height="59.6" transform="translate(874.9 450.3) rotate(180)"/><rect class="cls-13" x="555.5" y="239.1" width="7.6" height="3.7" rx=".8" ry=".8" transform="translate(1118.5 481.9) rotate(180)"/><rect class="cls-13" x="540.7" y="235.4" width="7.6" height="3.7" rx=".8" ry=".8" transform="translate(1088.9 474.5) rotate(-180)"/><rect class="cls-13" x="525.4" y="229.4" width="7.6" height="3.7" rx=".8" ry=".8" transform="translate(1058.3 462.5) rotate(180)"/><rect class="cls-13" x="509.9" y="234.9" width="7.6" height="3.7" rx=".8" ry=".8" transform="translate(1027.4 473.5) rotate(-180)"/><rect class="cls-13" x="494.6" y="224.6" width="7.6" height="3.7" rx=".8" ry=".8" transform="translate(996.7 452.8) rotate(180)"/><rect class="cls-13" x="479.4" y="218.5" width="7.5" height="3.7" rx=".8" ry=".8" transform="translate(966.3 440.7) rotate(180)"/><rect class="cls-13" x="464.1" y="211.6" width="7.6" height="3.7" rx=".8" ry=".8" transform="translate(935.8 426.9) rotate(-180)"/><rect class="cls-13" x="448.9" y="201.4" width="7.6" height="3.7" rx=".8" ry=".8" transform="translate(905.3 406.5) rotate(180)"/><rect class="cls-13" x="433.8" y="188" width="7.6" height="3.7" rx=".8" ry=".8" transform="translate(875.1 379.6) rotate(180)"/><path class="cls-13" d="M474.5,283.9h-46.3c-1.6,0-2.9-1.3-2.9-2.9h0c0-1.6,1.3-2.9,2.9-2.9h46.3c1.6,0,2.9,1.3,2.9,2.9h0c0,1.6-1.3,2.9-2.9,2.9Z"/><path class="cls-13" d="M292.5,289.3h-46.3c-1.6,0-2.9-1.3-2.9-2.9h0c0-1.6,1.3-2.9,2.9-2.9h46.3c1.6,0,2.9,1.3,2.9,2.9h0c0,1.6-1.3,2.9-2.9,2.9Z"/><path class="cls-13" d="M373.3,257.4c0,.1-28.5.2-63.5.2s-63.5,0-63.5-.2,28.4-.2,63.5-.2,63.5,0,63.5.2Z"/><path class="cls-13" d="M373.3,246.4c0,.1-28.5.2-63.5.2s-63.5,0-63.5-.2,28.4-.2,63.5-.2,63.5,0,63.5.2Z"/><path class="cls-13" d="M373.3,235.4c0,.1-28.5.2-63.5.2s-63.5,0-63.5-.2,28.4-.2,63.5-.2,63.5,0,63.5.2Z"/><path class="cls-13" d="M373.3,224.4c0,.1-28.5.2-63.5.2s-63.5,0-63.5-.2,28.4-.2,63.5-.2,63.5,0,63.5.2Z"/><path class="cls-5" d="M364.4,256.9c-2.5-6-4.2-12.5-6.1-18.7-1.7-5.4-1.8-7.9-3.2-12.5-2.2-7.2-8.2-8-12.5-6-3.8,1.7-5.5,6.2-6.8,10.3-1.5,4.8-3,9.7-4.6,14.5-.7,2.3-1.5,4.6-2.8,6.6-1.3,2-3.3,3.7-5.7,4-3.9.5-7.4-2.7-9-6.3-1.7-3.6-2.1-7.7-3.6-11.3-1.5-3.7-4.5-7.2-8.5-7.3-4.8,0-8.1,4.8-10.1,9.3-2.5,5.6-4.6,11.4-6.1,17.4-.5,2-1,4.1-2,5.9-1,1.8-2.7,3.4-4.8,3.6-2.6.3-5.1-1.6-6.6-3.8-1.5-2.2-2.5-4.8-4.1-7-1.6-2.2-4.1-4-6.7-3.5-2.4.4-4.1,2.5-5.4,4.5-3.8,5.3-7,11-9.8,17h131.5c-6.1-2.1-10.6-10.7-13.1-16.7Z"/><path class="cls-4" d="M371.8,273.6s-.2,0-.5,0c-.3,0-.8,0-1.4,0-1.2,0-3,0-5.3,0-4.6,0-11.4,0-19.6,0-16.6,0-39.5,0-64.8,0-12.1,0-23.6,0-34.2,0h-.2v-.2c0-16.8,0-31.2,0-41.4,0-5.1,0-9.1,0-11.8,0-1.4,0-2.4,0-3.1,0-.3,0-.6,0-.8,0-.2,0-.3,0-.3,0,0,0,0,0,.3,0,.2,0,.5,0,.8,0,.7,0,1.8,0,3.1,0,2.8,0,6.8,0,11.8,0,10.2,0,24.5,0,41.4l-.2-.2c10.5,0,22.1,0,34.2,0,25.3,0,48.2,0,64.8,0,8.3,0,15,0,19.6,0,2.3,0,4.1,0,5.3,0,.6,0,1.1,0,1.4,0,.3,0,.5,0,.5,0Z"/><g class="cls-8"><polygon class="cls-6" points="356.4 230.6 309.7 273.6 333 273.6 361.1 247.6 356.4 230.6"/></g><g class="cls-8"><polyline class="cls-6" points="315.3 251.3 289.6 273.6 283 273.6 313.3 247.6 315.9 252.1"/></g><path class="cls-4" d="M246,273.6s1.3-3.2,4.3-8.6c1.5-2.7,3.5-5.9,6.1-9.5.7-.9,1.4-1.7,2.4-2.4,1-.7,2.2-1.2,3.5-1.1,1.3,0,2.5.6,3.6,1.4,1.1.8,2,1.8,2.7,3,1.5,2.3,2.5,5.1,4.5,7.4,1,1.1,2.3,2,3.8,2.4.7.2,1.5.2,2.3,0,.8-.2,1.5-.5,2.1-1,1.3-1,2.2-2.4,2.8-3.9.6-1.5,1-3.2,1.4-4.9.9-3.4,1.9-6.8,3.2-10.2.6-1.7,1.3-3.4,2.1-5.2.7-1.7,1.5-3.5,2.5-5.1,1-1.6,2.2-3.2,3.9-4.4.8-.6,1.7-1.1,2.7-1.3,1-.2,2-.3,3,0,2,.4,3.8,1.7,5.1,3.2,1.3,1.6,2.3,3.5,2.9,5.4.7,2,1.1,4,1.7,6,.6,2,1.2,4,2.4,5.7,1.2,1.7,2.7,3.2,4.6,4,1.9.8,4.1.6,5.8-.5,1.7-1,3-2.7,3.9-4.5.9-1.8,1.5-3.7,2.1-5.6,1.2-3.8,2.4-7.5,3.5-11.2.6-1.8,1.1-3.6,1.8-5.4.6-1.8,1.4-3.5,2.6-5,.6-.7,1.2-1.4,1.9-2,.7-.6,1.6-.9,2.4-1.2.9-.3,1.7-.5,2.6-.5.9,0,1.8,0,2.6.2,1.7.4,3.3,1.4,4.3,2.8,1.1,1.3,1.8,2.9,2.2,4.5,1,3.1,1.5,6.2,2.3,9.1.4,1.5.8,2.9,1.2,4.3.4,1.4.8,2.7,1.2,4.1,1.5,5.3,3,10.1,4.8,14.1,1.7,4,3.6,7.3,5.4,9.8,1.8,2.5,3.7,4.1,5,5,.7.4,1.2.7,1.6.9.4.2.6.3.6.3,0,0-.2,0-.6-.2-.4-.1-.9-.4-1.7-.8-1.4-.9-3.2-2.5-5.1-4.9-1.9-2.5-3.8-5.8-5.5-9.8-1.8-4-3.3-8.8-4.8-14.1-.4-1.3-.8-2.7-1.2-4.1-.4-1.4-.9-2.8-1.2-4.3-.8-2.9-1.3-6-2.3-9.1-.5-1.5-1.1-3.1-2.2-4.3-1-1.3-2.5-2.2-4.2-2.6-.8-.2-1.7-.3-2.5-.2-.9,0-1.7.2-2.5.5-1.7.5-3.1,1.6-4.2,3.1-1.1,1.4-1.9,3.1-2.5,4.9-.6,1.7-1.2,3.6-1.7,5.4-1.1,3.7-2.3,7.4-3.5,11.2-.6,1.9-1.2,3.8-2.1,5.7-.9,1.8-2.2,3.5-4,4.6-.9.5-1.9.9-3,1-1.1,0-2.1,0-3.1-.5-2-.8-3.6-2.4-4.8-4.1-1.2-1.8-1.9-3.8-2.5-5.8-.6-2-1-4-1.7-6-.6-1.9-1.5-3.8-2.8-5.3-1.3-1.5-2.9-2.8-4.9-3.1-.9-.2-1.9-.1-2.9,0-.9.2-1.8.7-2.6,1.2-1.6,1.1-2.8,2.7-3.8,4.3-1,1.6-1.8,3.3-2.5,5-.7,1.7-1.4,3.4-2.1,5.1-1.3,3.4-2.3,6.8-3.2,10.2-.4,1.7-.8,3.4-1.4,4.9-.6,1.6-1.6,3-2.9,4-.7.5-1.4.9-2.2,1.1-.8.2-1.6.2-2.4,0-1.6-.4-2.9-1.4-3.9-2.5-2.1-2.3-3-5.1-4.5-7.4-.7-1.2-1.6-2.2-2.7-3-1-.8-2.2-1.3-3.5-1.4-1.2,0-2.4.4-3.3,1.1-.9.7-1.7,1.5-2.4,2.4-2.6,3.5-4.6,6.8-6.1,9.4-1.5,2.7-2.6,4.8-3.4,6.3-.4.7-.6,1.3-.8,1.7-.2.4-.3.6-.3.6Z"/><path class="cls-10" d="M247.4,312c-.1-7.4,5.7-13.4,13.1-13.6,7.3-.1,13.4,5.8,13.5,13.1.1,7.4-5.7,13.4-13.1,13.6-7.3.1-13.4-5.8-13.5-13.1ZM267.1,311.7c0-3.5-3-6.3-6.5-6.3-3.5,0-6.3,3-6.3,6.5,0,3.5,3,6.3,6.5,6.3,3.5,0,6.3-3,6.3-6.5Z"/><path class="cls-3" d="M247.4,312c-.1-7.4,5.7-13.4,13.1-13.6v7c-3.4,0-6.2,3-6.1,6.5,0,3.5,3,6.3,6.5,6.3v7c-7.2.1-13.3-5.8-13.4-13.1Z"/><path class="cls-1" d="M247.4,312c-.1-7.4,5.7-13.4,13.1-13.6,7.3-.1,13.4,5.8,13.5,13.1.1,7.4-5.7,13.4-13.1,13.6-7.3.1-13.4-5.8-13.5-13.1ZM267.1,311.7c0-3.5-3-6.3-6.5-6.3-3.5,0-6.3,3-6.3,6.5,0,3.5,3,6.3,6.5,6.3,3.5,0,6.3-3,6.3-6.5Z"/><path class="cls-4" d="M267.1,311.7s0,0,0,.1c0,0,0,.2,0,.3,0,.1,0,.3,0,.5,0,.2,0,.4-.1.7,0,.5-.3,1.1-.7,1.7-.4.6-.9,1.3-1.6,1.9-.7.6-1.6,1.1-2.7,1.3-1.1.2-2.2.2-3.4-.2-.3,0-.6-.2-.8-.4-.3-.2-.5-.3-.8-.5-.3-.2-.5-.4-.7-.6-.2-.2-.5-.5-.6-.7-.4-.5-.7-1.1-.9-1.8-.2-.6-.3-1.3-.4-2,0-.7,0-1.4.3-2,.2-.7.5-1.3.9-1.8.2-.3.4-.5.6-.8.2-.2.5-.5.7-.6.2-.2.5-.4.8-.5.3-.1.5-.3.8-.4,1.1-.4,2.3-.5,3.4-.3,1.1.2,2,.6,2.7,1.2.7.5,1.3,1.2,1.6,1.8.4.6.6,1.2.7,1.7,0,.2.1.5.1.7,0,.2,0,.4,0,.5,0,.1,0,.2,0,.3,0,0,0,.1,0,.1,0,0,0,0,0-.1,0,0,0-.2,0-.3,0-.1,0-.3,0-.5,0-.2,0-.4-.1-.7-.1-.5-.4-1.1-.7-1.7-.4-.6-.9-1.2-1.6-1.8-.7-.5-1.6-1-2.7-1.1-1-.2-2.2-.1-3.3.3-.3,0-.5.2-.8.4-.3.2-.5.3-.8.5-.3.2-.5.4-.7.6-.2.2-.4.5-.6.7-.4.5-.7,1.1-.9,1.7-.2.6-.3,1.3-.3,2,0,1.4.5,2.7,1.3,3.7.2.3.4.5.6.7.2.2.5.4.7.6.2.2.5.3.8.5.3.1.5.3.8.4,1.1.4,2.3.4,3.3.2,1-.2,1.9-.7,2.6-1.2.7-.6,1.2-1.2,1.6-1.8.4-.6.6-1.2.7-1.7,0-.2,0-.5.1-.7,0-.2,0-.4,0-.5,0-.1,0-.2,0-.3,0,0,0-.1,0-.1Z"/><path class="cls-4" d="M247.4,312s0,0,0,.2c0,.1,0,.4,0,.6,0,.1,0,.3,0,.5,0,.2,0,.4,0,.6,0,.2,0,.4.1.6,0,.2.1.5.2.7.2,1,.7,2.2,1.5,3.5.8,1.3,1.9,2.6,3.4,3.7.2.1.4.3.6.4.2.1.4.2.6.4.2.1.4.3.7.4.2.1.5.2.7.3.1,0,.2.1.4.2.1,0,.2,0,.4.1.2,0,.5.2.7.3.3,0,.5.1.8.2.3,0,.5.1.8.2.5,0,1.1.2,1.7.2.3,0,.6,0,.9,0,.3,0,.6,0,.9,0,.1,0,.3,0,.4,0h.4c.3-.1.6-.2.9-.2.6-.2,1.2-.3,1.8-.6.6-.2,1.1-.5,1.7-.8.3-.2.5-.3.8-.5.3-.2.5-.4.8-.6.5-.4,1-.9,1.5-1.3.2-.2.4-.5.7-.8l.2-.2v-.2c.1,0,.4-.4.4-.4l.3-.4.3-.4.3-.4v-.2c.1,0,.2-.2.2-.2.1-.3.3-.6.4-.9.1-.3.2-.7.3-1,.4-1.3.6-2.7.6-4.2,0-1.4-.3-2.8-.7-4.2-.1-.3-.2-.7-.4-1-.2-.3-.3-.6-.5-.9v-.2c-.1,0-.3-.2-.3-.2l-.3-.4-.3-.4-.3-.4-.3-.4-.2-.2-.2-.2c-.2-.2-.5-.5-.7-.7-.5-.4-1-.9-1.5-1.3-.3-.2-.5-.4-.8-.5-.3-.2-.6-.3-.8-.5-.6-.3-1.1-.6-1.7-.7-.6-.2-1.2-.3-1.8-.5-.3,0-.6,0-.9-.1h-.4c-.1,0-.3,0-.4,0-.3,0-.6,0-.9,0-.3,0-.6,0-.9,0-.6,0-1.1.1-1.7.2-.3,0-.5.1-.8.2-.3,0-.5.1-.8.2-.2,0-.5.2-.7.3-.1,0-.2,0-.4.1-.1,0-.2.1-.3.2-.2.1-.5.2-.7.3-.2.1-.4.3-.6.4-.2.1-.4.3-.6.4-.2.1-.4.3-.6.4-1.5,1.2-2.6,2.5-3.3,3.8-.7,1.3-1.2,2.5-1.4,3.6,0,.3-.1.5-.2.7,0,.2,0,.4,0,.6,0,.2,0,.4,0,.6,0,.2,0,.3,0,.5,0,.3,0,.5,0,.6,0,.1,0,.2,0,.2,0,0,0,0,0-.2,0-.1,0-.4,0-.6,0-.1,0-.3,0-.5,0-.2,0-.4,0-.6,0-.2,0-.4,0-.7,0-.2.1-.5.2-.7.2-1,.7-2.3,1.4-3.6.7-1.3,1.8-2.7,3.3-3.9.2-.1.4-.3.6-.4.2-.1.4-.3.6-.4.2-.1.4-.3.6-.4.2-.1.5-.2.7-.3.1,0,.2-.1.3-.2.1,0,.2,0,.4-.1.2,0,.5-.2.7-.3.3,0,.5-.2.8-.2.3,0,.5-.2.8-.2.6,0,1.1-.2,1.7-.2.3,0,.6,0,.9,0,.3,0,.6,0,.9,0,.1,0,.3,0,.4,0h.4c.3.1.6.1.9.2.6.1,1.2.3,1.8.5.6.2,1.2.5,1.8.7.3.2.6.3.8.5.3.2.6.4.8.5.5.4,1,.8,1.5,1.3.2.2.5.5.7.7l.2.2.2.2.3.4.3.4.3.4.3.4v.2c.1,0,.3.2.3.2.2.3.3.6.5.9.1.3.3.7.4,1,.5,1.3.7,2.8.8,4.2,0,1.5-.2,2.9-.6,4.2-.1.3-.2.7-.3,1-.1.3-.3.6-.4,1v.2c-.1,0-.2.2-.2.2l-.3.4-.3.4-.3.4-.3.4v.2c-.1,0-.3.2-.3.2-.2.3-.4.5-.7.8-.5.5-1,.9-1.5,1.3-.3.2-.5.4-.8.6-.3.2-.5.4-.8.5-.6.3-1.1.6-1.7.8-.6.3-1.2.4-1.8.6-.3,0-.6.1-.9.2h-.4c-.1,0-.3,0-.4.1-.3,0-.6,0-.9,0-.3,0-.6,0-.9,0-.6,0-1.1-.1-1.7-.2-.3,0-.5-.1-.8-.2-.3,0-.5-.1-.8-.2-.3,0-.5-.2-.8-.3-.1,0-.2,0-.4-.1-.1,0-.2-.1-.4-.2-.2-.1-.5-.2-.7-.3-.2-.1-.4-.3-.7-.4-.2-.1-.4-.2-.6-.4-.2-.1-.4-.3-.6-.4-1.5-1.1-2.7-2.5-3.4-3.8-.8-1.3-1.3-2.5-1.5-3.5,0-.3-.1-.5-.2-.7,0-.2,0-.4-.1-.7,0-.2,0-.4,0-.6,0-.2,0-.3,0-.5,0-.3,0-.5,0-.6,0-.1,0-.2,0-.2Z"/><path class="cls-10" d="M309.5,299.6c7.4-.1,13.4,5.7,13.6,13.1.1,7.3-5.8,13.4-13.1,13.5-7.4.1-13.4-5.7-13.6-13.1-.1-7.3,5.8-13.4,13.1-13.5ZM309.8,319.3c3.5,0,6.3-3,6.3-6.5,0-3.5-3-6.3-6.5-6.3-3.5,0-6.3,3-6.3,6.5,0,3.5,3,6.3,6.5,6.3Z"/><path class="cls-5" d="M309.5,299.6c7.4-.1,13.4,5.7,13.6,13.1h-7c0-3.4-3-6.2-6.5-6.1-3.5,0-6.3,3-6.3,6.5h-7c-.1-7.2,5.8-13.3,13.1-13.4Z"/><path class="cls-5" d="M296.4,313c0-7.4,6-13.4,13.3-13.4v7c-3.5,0-6.4,2.9-6.4,6.4,0,3.5,2.9,6.4,6.4,6.4v7c-7.3,0-13.3-6-13.3-13.4Z"/><path class="cls-1" d="M309.5,299.6c7.4-.1,13.4,5.7,13.6,13.1.1,7.3-5.8,13.4-13.1,13.5-7.4.1-13.4-5.7-13.6-13.1-.1-7.3,5.8-13.4,13.1-13.5ZM309.8,319.3c3.5,0,6.3-3,6.3-6.5,0-3.5-3-6.3-6.5-6.3-3.5,0-6.3,3-6.3,6.5,0,3.5,3,6.3,6.5,6.3Z"/><path class="cls-4" d="M309.8,319.3s0,0-.1,0c0,0-.2,0-.3,0-.1,0-.3,0-.5,0-.2,0-.4,0-.7-.1-.5,0-1.1-.3-1.7-.7-.6-.4-1.3-.9-1.9-1.6-.6-.7-1.1-1.6-1.3-2.7-.2-1.1-.2-2.2.2-3.4,0-.3.2-.6.4-.8.2-.3.3-.5.5-.8.2-.3.4-.5.6-.7.2-.2.5-.5.7-.6.5-.4,1.1-.7,1.8-.9.6-.2,1.3-.3,2-.4.7,0,1.4,0,2,.3.7.2,1.3.5,1.8.9.3.2.5.4.8.6.2.2.5.5.6.7.2.2.4.5.5.8.1.3.3.5.4.8.4,1.1.5,2.3.3,3.4-.2,1.1-.6,2-1.2,2.7-.5.7-1.2,1.3-1.8,1.6-.6.4-1.2.6-1.7.7-.2,0-.5.1-.7.1-.2,0-.4,0-.5,0-.1,0-.2,0-.3,0,0,0-.1,0-.1,0,0,0,0,0,.1,0,0,0,.2,0,.3,0,.1,0,.3,0,.5,0,.2,0,.4,0,.7-.1.5-.1,1.1-.4,1.7-.7.6-.4,1.2-.9,1.8-1.6.5-.7,1-1.6,1.1-2.7.2-1,.1-2.2-.3-3.3,0-.3-.2-.5-.4-.8-.2-.3-.3-.5-.5-.8-.2-.3-.4-.5-.6-.7-.2-.2-.5-.4-.7-.6-.5-.4-1.1-.7-1.7-.9-.6-.2-1.3-.3-2-.3-1.4,0-2.7.5-3.7,1.3-.3.2-.5.4-.7.6-.2.2-.4.5-.6.7-.2.2-.3.5-.5.8-.1.3-.3.5-.4.8-.4,1.1-.4,2.3-.2,3.3.2,1,.7,1.9,1.2,2.6.6.7,1.2,1.2,1.8,1.6.6.4,1.2.6,1.7.7.2,0,.5,0,.7.1.2,0,.4,0,.5,0,.1,0,.2,0,.3,0,0,0,.1,0,.1,0Z"/><path class="cls-4" d="M309.5,299.6s0,0-.2,0c-.1,0-.4,0-.6,0-.1,0-.3,0-.5,0-.2,0-.4,0-.6,0-.2,0-.4,0-.6.1-.2,0-.5.1-.7.2-1,.2-2.2.7-3.5,1.5-1.3.8-2.6,1.9-3.7,3.4-.1.2-.3.4-.4.6-.1.2-.2.4-.4.6-.1.2-.3.4-.4.7-.1.2-.2.5-.3.7,0,.1-.1.2-.2.4,0,.1,0,.2-.1.4,0,.2-.2.5-.3.7,0,.3-.1.5-.2.8,0,.3-.1.5-.2.8,0,.5-.2,1.1-.2,1.7,0,.3,0,.6,0,.9,0,.3,0,.6,0,.9,0,.1,0,.3,0,.4v.4c.1.3.2.6.2.9.2.6.3,1.2.6,1.8.2.6.5,1.1.8,1.7.2.3.3.5.5.8.2.3.4.5.6.8.4.5.9,1,1.3,1.5.2.2.5.4.8.7l.2.2h.2c0,.1.4.4.4.4l.4.3.4.3.4.3h.2c0,.1.2.2.2.2.3.1.6.3.9.4.3.1.7.2,1,.3,1.3.4,2.7.6,4.2.6,1.4,0,2.8-.3,4.2-.7.3-.1.7-.2,1-.4.3-.2.6-.3.9-.5h.2c0-.1.2-.3.2-.3l.4-.3.4-.3.4-.3.4-.3.2-.2.2-.2c.2-.2.5-.5.7-.7.4-.5.9-1,1.3-1.5.2-.3.4-.5.5-.8.2-.3.3-.6.5-.8.3-.6.6-1.1.7-1.7.2-.6.3-1.2.5-1.8,0-.3,0-.6.1-.9v-.4c0-.1,0-.3,0-.4,0-.3,0-.6,0-.9,0-.3,0-.6,0-.9,0-.6-.1-1.1-.2-1.7,0-.3-.1-.5-.2-.8,0-.3-.1-.5-.2-.8,0-.2-.2-.5-.3-.7,0-.1,0-.2-.1-.4,0-.1-.1-.2-.2-.3-.1-.2-.2-.5-.3-.7-.1-.2-.3-.4-.4-.6-.1-.2-.3-.4-.4-.6-.1-.2-.3-.4-.4-.6-1.2-1.5-2.5-2.6-3.8-3.3-1.3-.7-2.5-1.2-3.6-1.4-.3,0-.5-.1-.7-.2-.2,0-.4,0-.6,0-.2,0-.4,0-.6,0-.2,0-.3,0-.5,0-.3,0-.5,0-.6,0-.1,0-.2,0-.2,0,0,0,0,0,.2,0,.1,0,.4,0,.6,0,.1,0,.3,0,.5,0,.2,0,.4,0,.6,0,.2,0,.4,0,.7,0,.2,0,.5.1.7.2,1,.2,2.3.7,3.6,1.4,1.3.7,2.7,1.8,3.9,3.3.1.2.3.4.4.6.1.2.3.4.4.6.1.2.3.4.4.6.1.2.2.5.3.7,0,.1.1.2.2.3,0,.1,0,.2.1.4,0,.2.2.5.3.7,0,.3.2.5.2.8,0,.3.2.5.2.8,0,.6.2,1.1.2,1.7,0,.3,0,.6,0,.9,0,.3,0,.6,0,.9,0,.1,0,.3,0,.4v.4c-.1.3-.1.6-.2.9-.1.6-.3,1.2-.5,1.8-.2.6-.5,1.2-.7,1.8-.2.3-.3.6-.5.8-.2.3-.4.6-.5.8-.4.5-.8,1-1.3,1.5-.2.2-.5.5-.7.7l-.2.2-.2.2-.4.3-.4.3-.4.3-.4.3h-.2c0,.1-.2.3-.2.3-.3.2-.6.3-.9.5-.3.1-.7.3-1,.4-1.3.5-2.8.7-4.2.8-1.5,0-2.9-.2-4.2-.6-.3-.1-.7-.2-1-.3-.3-.1-.6-.3-1-.4h-.2c0-.1-.2-.2-.2-.2l-.4-.3-.4-.3-.4-.3-.4-.3h-.2c0-.1-.2-.3-.2-.3-.3-.2-.5-.4-.8-.7-.5-.5-.9-1-1.3-1.5-.2-.3-.4-.5-.6-.8-.2-.3-.4-.5-.5-.8-.3-.6-.6-1.1-.8-1.7-.3-.6-.4-1.2-.6-1.8,0-.3-.1-.6-.2-.9v-.4c0-.1,0-.3-.1-.4,0-.3,0-.6,0-.9,0-.3,0-.6,0-.9,0-.6.1-1.1.2-1.7,0-.3.1-.5.2-.8,0-.3.1-.5.2-.8,0-.3.2-.5.3-.8,0-.1,0-.2.1-.4,0-.1.1-.2.2-.4.1-.2.2-.5.3-.7.1-.2.3-.4.4-.7.1-.2.2-.4.4-.6.1-.2.3-.4.4-.6,1.1-1.5,2.5-2.7,3.8-3.4,1.3-.8,2.5-1.3,3.5-1.5.3,0,.5-.1.7-.2.2,0,.4,0,.7-.1.2,0,.4,0,.6,0,.2,0,.3,0,.5,0,.3,0,.5,0,.6,0,.1,0,.2,0,.2,0Z"/><path class="cls-10" d="M347.8,311c-.1-7.4,5.7-13.4,13.1-13.6,7.3-.1,13.4,5.8,13.5,13.1.1,7.4-5.7,13.4-13.1,13.6-7.3.1-13.4-5.8-13.5-13.1ZM367.5,310.7c0-3.5-3-6.3-6.5-6.3-3.5,0-6.3,3-6.3,6.5,0,3.5,3,6.3,6.5,6.3,3.5,0,6.3-3,6.3-6.5Z"/><path class="cls-3" d="M347.8,311c-.1-7.4,5.7-13.4,13.1-13.6v7c-3.4,0-6.2,3-6.1,6.5,0,3.5,3,6.3,6.5,6.3v7c-7.2.1-13.3-5.8-13.4-13.1Z"/><path class="cls-10" d="M361.1,297.6c7.4,0,13.4,6,13.4,13.3h-7c0-3.5-2.9-6.4-6.4-6.4-3.5,0-6.4,2.9-6.4,6.4h-7c0-7.3,6-13.3,13.4-13.3Z"/><path class="cls-1" d="M347.8,311c-.1-7.4,5.7-13.4,13.1-13.6,7.3-.1,13.4,5.8,13.5,13.1.1,7.4-5.7,13.4-13.1,13.6-7.3.1-13.4-5.8-13.5-13.1ZM367.5,310.7c0-3.5-3-6.3-6.5-6.3-3.5,0-6.3,3-6.3,6.5,0,3.5,3,6.3,6.5,6.3,3.5,0,6.3-3,6.3-6.5Z"/><path class="cls-4" d="M367.5,310.7s0,0,0,.1c0,0,0,.2,0,.3,0,.1,0,.3,0,.5,0,.2,0,.4-.1.7,0,.5-.3,1.1-.7,1.7-.4.6-.9,1.3-1.6,1.9-.7.6-1.6,1.1-2.7,1.3-1.1.2-2.2.2-3.4-.2-.3,0-.6-.2-.8-.4-.3-.2-.5-.3-.8-.5-.3-.2-.5-.4-.7-.6-.2-.2-.5-.5-.6-.7-.4-.5-.7-1.1-.9-1.8-.2-.6-.3-1.3-.4-2,0-.7,0-1.4.3-2,.2-.7.5-1.3.9-1.8.2-.3.4-.5.6-.8.2-.2.5-.5.7-.6.2-.2.5-.4.8-.5.3-.1.5-.3.8-.4,1.1-.4,2.3-.5,3.4-.3,1.1.2,2,.6,2.7,1.2.7.5,1.3,1.2,1.6,1.8.4.6.6,1.2.7,1.7,0,.2.1.5.1.7,0,.2,0,.4,0,.5,0,.1,0,.2,0,.3,0,0,0,.1,0,.1,0,0,0,0,0-.1,0,0,0-.2,0-.3,0-.1,0-.3,0-.5,0-.2,0-.4-.1-.7-.1-.5-.4-1.1-.7-1.7-.4-.6-.9-1.2-1.6-1.8-.7-.5-1.6-1-2.7-1.1-1-.2-2.2-.1-3.3.3-.3,0-.5.2-.8.4-.3.2-.5.3-.8.5-.3.2-.5.4-.7.6-.2.2-.4.5-.6.7-.4.5-.7,1.1-.9,1.7-.2.6-.3,1.3-.3,2,0,1.4.5,2.7,1.3,3.7.2.3.4.5.6.7.2.2.5.4.7.6.2.2.5.3.8.5.3.1.5.3.8.4,1.1.4,2.3.4,3.3.2,1-.2,1.9-.7,2.6-1.2.7-.6,1.2-1.2,1.6-1.8.4-.6.6-1.2.7-1.7,0-.2,0-.5.1-.7,0-.2,0-.4,0-.5,0-.1,0-.2,0-.3,0,0,0-.1,0-.1Z"/><path class="cls-4" d="M347.8,311s0,0,0,.2c0,.1,0,.4,0,.6,0,.1,0,.3,0,.5,0,.2,0,.4,0,.6,0,.2,0,.4.1.6,0,.2.1.5.2.7.2,1,.7,2.2,1.5,3.5.8,1.3,1.9,2.6,3.4,3.7.2.1.4.3.6.4.2.1.4.2.6.4.2.1.4.3.7.4.2.1.5.2.7.3.1,0,.2.1.4.2.1,0,.2,0,.4.1.2,0,.5.2.7.3.3,0,.5.1.8.2.3,0,.5.1.8.2.5,0,1.1.2,1.7.2.3,0,.6,0,.9,0,.3,0,.6,0,.9,0,.1,0,.3,0,.4,0h.4c.3-.1.6-.2.9-.2.6-.2,1.2-.3,1.8-.6.6-.2,1.1-.5,1.7-.8.3-.2.5-.3.8-.5.3-.2.5-.4.8-.6.5-.4,1-.9,1.5-1.3.2-.2.4-.5.7-.8l.2-.2v-.2c.1,0,.4-.4.4-.4l.3-.4.3-.4.3-.4v-.2c.1,0,.2-.2.2-.2.1-.3.3-.6.4-.9.1-.3.2-.7.3-1,.4-1.3.6-2.7.6-4.2,0-1.4-.3-2.8-.7-4.2-.1-.3-.2-.7-.4-1-.2-.3-.3-.6-.5-.9v-.2c-.1,0-.3-.2-.3-.2l-.3-.4-.3-.4-.3-.4-.3-.4-.2-.2-.2-.2c-.2-.2-.5-.5-.7-.7-.5-.4-1-.9-1.5-1.3-.3-.2-.5-.4-.8-.5-.3-.2-.6-.3-.8-.5-.6-.3-1.1-.6-1.7-.7-.6-.2-1.2-.3-1.8-.5-.3,0-.6,0-.9-.1h-.4c-.1,0-.3,0-.4,0-.3,0-.6,0-.9,0-.3,0-.6,0-.9,0-.6,0-1.1.1-1.7.2-.3,0-.5.1-.8.2-.3,0-.5.1-.8.2-.2,0-.5.2-.7.3-.1,0-.2,0-.4.1-.1,0-.2.1-.3.2-.2.1-.5.2-.7.3-.2.1-.4.3-.6.4-.2.1-.4.3-.6.4-.2.1-.4.3-.6.4-1.5,1.2-2.6,2.5-3.3,3.8-.7,1.3-1.2,2.5-1.4,3.6,0,.3-.1.5-.2.7,0,.2,0,.4,0,.6,0,.2,0,.4,0,.6,0,.2,0,.3,0,.5,0,.3,0,.5,0,.6,0,.1,0,.2,0,.2,0,0,0,0,0-.2,0-.1,0-.4,0-.6,0-.1,0-.3,0-.5,0-.2,0-.4,0-.6,0-.2,0-.4,0-.7,0-.2.1-.5.2-.7.2-1,.7-2.3,1.4-3.6.7-1.3,1.8-2.7,3.3-3.9.2-.1.4-.3.6-.4.2-.1.4-.3.6-.4.2-.1.4-.3.6-.4.2-.1.5-.2.7-.3.1,0,.2-.1.3-.2.1,0,.2,0,.4-.1.2,0,.5-.2.7-.3.3,0,.5-.2.8-.2.3,0,.5-.2.8-.2.6,0,1.1-.2,1.7-.2.3,0,.6,0,.9,0,.3,0,.6,0,.9,0,.1,0,.3,0,.4,0h.4c.3.1.6.1.9.2.6.1,1.2.3,1.8.5.6.2,1.2.5,1.8.7.3.2.6.3.8.5.3.2.6.4.8.5.5.4,1,.8,1.5,1.3.2.2.5.5.7.7l.2.2.2.2.3.4.3.4.3.4.3.4v.2c.1,0,.3.2.3.2.2.3.3.6.5.9.1.3.3.7.4,1,.5,1.3.7,2.8.8,4.2,0,1.5-.2,2.9-.6,4.2-.1.3-.2.7-.3,1-.1.3-.3.6-.4,1v.2c-.1,0-.2.2-.2.2l-.3.4-.3.4-.3.4-.3.4v.2c-.1,0-.3.2-.3.2-.2.3-.4.5-.7.8-.5.5-1,.9-1.5,1.3-.3.2-.5.4-.8.6-.3.2-.5.4-.8.5-.6.3-1.1.6-1.7.8-.6.3-1.2.4-1.8.6-.3,0-.6.1-.9.2h-.4c-.1,0-.3,0-.4.1-.3,0-.6,0-.9,0-.3,0-.6,0-.9,0-.6,0-1.1-.1-1.7-.2-.3,0-.5-.1-.8-.2-.3,0-.5-.1-.8-.2-.3,0-.5-.2-.8-.3-.1,0-.2,0-.4-.1-.1,0-.2-.1-.4-.2-.2-.1-.5-.2-.7-.3-.2-.1-.4-.3-.7-.4-.2-.1-.4-.2-.6-.4-.2-.1-.4-.3-.6-.4-1.5-1.1-2.7-2.5-3.4-3.8-.8-1.3-1.3-2.5-1.5-3.5,0-.3-.1-.5-.2-.7,0-.2,0-.4-.1-.7,0-.2,0-.4,0-.6,0-.2,0-.3,0-.5,0-.3,0-.5,0-.6,0-.1,0-.2,0-.2Z"/><circle class="cls-13" cx="604.2" cy="229" r="18" transform="translate(-41.7 245.7) rotate(-22.2)"/><path class="cls-4" d="M622.2,229c0,0,0-1.6-.7-4.4-.3-1.4-1-3-2-4.8-1-1.7-2.5-3.5-4.6-5.1-2-1.5-4.6-2.8-7.5-3.3-2.9-.5-6.2-.4-9.3.8-1.6.5-3.1,1.4-4.5,2.4-.7.5-1.4,1.1-2,1.7-.6.7-1.2,1.3-1.7,2.1-2.2,2.9-3.4,6.6-3.5,10.5,0,3.9,1.3,7.6,3.5,10.5.5.8,1.1,1.4,1.7,2.1.7.6,1.3,1.2,2,1.7,1.4,1,2.9,1.9,4.5,2.4,3.1,1.2,6.4,1.3,9.3.8,2.9-.5,5.5-1.8,7.5-3.3,2-1.5,3.5-3.3,4.6-5.1,1-1.7,1.7-3.4,2-4.8.7-2.8.6-4.4.7-4.4,0,0,0,0,0,.3,0,.2,0,.5,0,.9,0,.4,0,.8-.1,1.4,0,.5-.1,1.2-.3,1.9-.3,1.4-.9,3.1-2,4.8-1,1.8-2.5,3.6-4.6,5.2-2,1.6-4.6,2.9-7.6,3.4-3,.5-6.4.4-9.6-.8-1.6-.6-3.2-1.4-4.6-2.5-.7-.5-1.4-1.1-2.1-1.8-.6-.7-1.3-1.3-1.8-2.1-2.3-3-3.5-6.8-3.6-10.8,0-4,1.3-7.8,3.6-10.8.5-.8,1.2-1.4,1.8-2.1.7-.6,1.3-1.2,2.1-1.8,1.4-1.1,3-1.9,4.6-2.5,3.2-1.2,6.6-1.3,9.6-.8,3,.5,5.6,1.9,7.6,3.4,2.1,1.6,3.6,3.4,4.6,5.2,1,1.8,1.7,3.4,2,4.8.2.7.3,1.3.3,1.9,0,.5.1,1,.1,1.4,0,.4,0,.6,0,.9,0,.2,0,.3,0,.3Z"/><path class="cls-4" d="M602,226.1c1.7,1.5,3.3,2.9,5,4.4v-1.7c-1.5,1.6-3.1,3.2-4.6,4.8-1.1,1.1.6,2.9,1.7,1.7,1.5-1.6,3.1-3.2,4.6-4.8.4-.5.5-1.3,0-1.7-1.7-1.5-3.3-2.9-5-4.4-.5-.4-1.2-.5-1.7,0-.4.4-.5,1.3,0,1.7h0Z"/><circle class="cls-4" cx="380.5" cy="133.8" r="4.3"/><circle class="cls-4" cx="280.1" cy="80.1" r="4.3"/><path class="cls-4" d="M280.1,80.1s.1,0,.4,0c.3,0,.7,0,1.2,0,1.1,0,2.6,0,4.5,0,3.9,0,9.6,0,16.5,0,14,0,33.2,0,54.4,0,8.2,0,16.1,0,23.4,0h.2s0,.2,0,.2c0,15.6,0,28.9,0,38.5,0,4.7,0,8.5,0,11.1,0,1.3,0,2.3,0,3,0,.3,0,.6,0,.8,0,.2,0,.3,0,.3s0,0,0-.3c0-.2,0-.4,0-.8,0-.7,0-1.7,0-3,0-2.6,0-6.4,0-11.1,0-9.5,0-22.9,0-38.5l.2.2c-7.3,0-15.2,0-23.4,0-21.2,0-40.5,0-54.4,0-6.9,0-12.6,0-16.5,0-1.9,0-3.4,0-4.5,0-.5,0-.9,0-1.2,0-.3,0-.4,0-.4,0Z"/><path class="cls-6" d="M760.5,295.1h-123.7c-4.3,0-7.8-4-7.8-8.9v-100.4c0-4.9,3.5-8.9,7.8-8.9h123.7c4.3,0,7.8,4,7.8,8.9v100.4c0,4.9-3.5,8.9-7.8,8.9Z"/><path class="cls-13" d="M636.9,176.9h123c4.7,0,8.5,3.8,8.5,8.5v12.1h-138.8v-13.4c0-4,3.3-7.3,7.3-7.3Z"/><path class="cls-6" d="M640.2,186.6c0,1.3-1,2.3-2.3,2.3s-2.3-1-2.3-2.3,1-2.3,2.3-2.3,2.3,1,2.3,2.3Z"/><path class="cls-6" d="M647.3,186.6c0,1.3-1,2.3-2.3,2.3s-2.3-1-2.3-2.3,1-2.3,2.3-2.3,2.3,1,2.3,2.3Z"/><path class="cls-6" d="M654.4,186.6c0,1.3-1,2.3-2.3,2.3s-2.3-1-2.3-2.3,1-2.3,2.3-2.3,2.3,1,2.3,2.3Z"/><path class="cls-4" d="M760.7,295.1s.1,0,.3,0c.2,0,.5,0,1-.1.8-.2,2.1-.5,3.3-1.7,1.3-1.1,2.5-2.9,2.9-5.3.2-1.2.1-2.5.2-3.9,0-1.4,0-2.9,0-4.5,0-12.7,0-31,0-53.7,0-11.3,0-23.7,0-37.1,0-.8,0-1.7,0-2.5,0-.8,0-1.7-.2-2.5-.3-1.6-1.1-3.2-2.2-4.4-1.1-1.3-2.7-2.1-4.4-2.3-.8,0-1.7,0-2.6,0-.9,0-1.8,0-2.7,0-7.1,0-14.4,0-21.9,0-30,0-62.9,0-97.5,0-.5,0-1.1,0-1.6,0-.3,0-.5,0-.8.2-.1,0-.3,0-.4.1l-.4.2c-1,.4-1.8,1.1-2.5,1.9-.7.8-1.2,1.8-1.5,2.8-.3,1-.4,2.1-.4,3.1,0,4.3,0,8.5,0,12.7,0,8.4,0,16.7,0,24.9,0,16.3,0,32,0,47,0,3.7,0,7.4,0,11.1,0,1.8,0,3.6,0,5.4,0,.9.2,1.8.4,2.6.3.8.6,1.6,1.1,2.4.5.7,1.1,1.4,1.8,1.9.7.5,1.5.9,2.3,1.2.4.1.8.2,1.3.3.4,0,.8,0,1.3,0,.9,0,1.7,0,2.6,0,3.4,0,6.8,0,10.2,0,13.3,0,25.7,0,37.1,0,22.7,0,41,0,53.7,0,6.3,0,11.3,0,14.6,0,1.7,0,2.9,0,3.8,0,.9,0,1.3,0,1.3,0,0,0-.4,0-1.3,0-.9,0-2.1,0-3.8,0-3.3,0-8.3,0-14.6,0-12.7,0-31,0-53.7,0-11.3,0-23.7,0-37.1,0-3.3,0-6.7,0-10.2,0-.9,0-1.7,0-2.6,0-.4,0-.9,0-1.3,0-.4,0-.9-.1-1.3-.3-.8-.3-1.6-.7-2.4-1.2-.7-.6-1.3-1.2-1.8-2-.5-.7-.9-1.6-1.2-2.4-.3-.9-.4-1.8-.4-2.7,0-1.8,0-3.6,0-5.4,0-3.7,0-7.4,0-11.1,0-15,0-30.7,0-47,0-8.2,0-16.5,0-24.9,0-4.2,0-8.5,0-12.7,0-1.1,0-2.2.4-3.2.3-1,.8-2,1.5-2.9.7-.9,1.6-1.6,2.6-2l.4-.2c.1,0,.3,0,.4-.1.3,0,.5-.1.8-.2.6,0,1.1,0,1.6,0,34.6,0,67.5,0,97.5,0,7.5,0,14.8,0,21.9,0,.9,0,1.8,0,2.7,0,.9,0,1.7,0,2.6,0,1.8.2,3.4,1.1,4.6,2.4,1.2,1.3,2,2.9,2.3,4.6.2.8.2,1.7.2,2.5,0,.8,0,1.7,0,2.5,0,13.3,0,25.7,0,37.1,0,22.7,0,41,0,53.7,0,1.6,0,3.1,0,4.5,0,1.4,0,2.7-.2,3.9-.4,2.4-1.7,4.2-3,5.3-1.3,1.1-2.6,1.5-3.4,1.6-.4,0-.7.1-1,.1-.2,0-.3,0-.3,0Z"/><path class="cls-14" d="M719,193.4v37.4c0,6.5,1,16.6-9.2,16.3h0c-8.9-1-11.2-9.3-11.3-15.4,0-2.9,0-5.2,0-5.5,0,0-9.7-.8-10.5-10.4-.4-4.6-.4-14.2-.4-22.9,0-9.3,7.3-17,16.6-17.7h.9c10-.2,14,8.2,13.9,18.2Z"/><path class="cls-9" d="M698.5,226.1s6.1,0,12.2-4.6c0,0-2.5,7.2-12.2,7.1v-2.5Z"/><path class="cls-4" d="M704,196.8c.2.2,1.3-.7,2.9-.7,1.6,0,2.8.7,3,.5,0,0-.1-.4-.6-.8-.5-.4-1.4-.7-2.4-.7-1,0-1.8.4-2.3.8-.5.4-.6.8-.5.9Z"/><path class="cls-4" d="M705.3,209c-.3,0-.8,1.3-2.1,2.1-1.3.9-2.8.8-2.8,1.1,0,.1.3.3,1,.4.6,0,1.6-.1,2.4-.6.8-.5,1.3-1.3,1.5-1.9.2-.6.2-1,0-1Z"/><path class="cls-4" d="M702.9,201.9c0,.7.6,1.2,1.3,1.2.7,0,1.3-.6,1.2-1.3,0-.7-.6-1.2-1.3-1.2-.7,0-1.3.6-1.2,1.3Z"/><path class="cls-4" d="M699.9,207.9c0,0-.9-.2-2.4-.3-.4,0-.7,0-.8-.3-.1-.3,0-.7.2-1.1.3-.9.6-1.9.9-2.9,1.2-4.2,2.1-7.6,2-7.7-.2,0-1.3,3.3-2.6,7.5-.3,1-.6,2-.9,3-.1.4-.3.9,0,1.5.1.3.4.5.7.5.2,0,.5,0,.6,0,1.5,0,2.4,0,2.4-.2Z"/><path class="cls-4" d="M704.6,190c.2.4,1.4,0,3,.2,1.5,0,2.8.4,3,0,0-.2-.2-.5-.7-.8-.5-.3-1.3-.6-2.3-.6-.9,0-1.7.2-2.3.4-.5.3-.8.6-.7.8Z"/><path class="cls-4" d="M689.4,192.4c.2.3,1.4,0,2.9,0,1.5,0,2.8.1,2.9-.2,0-.1-.2-.4-.7-.6-.5-.2-1.3-.4-2.2-.4-.9,0-1.7.3-2.2.5-.5.3-.8.6-.7.7Z"/><path class="cls-4" d="M674.9,184.3c.1-.4.4-.7.7-.9.7-.4,1.6-.4,2.4-.4,2.5,0,5.1-.8,7.2-2.2,1-1.4,2.1-2.8,3.4-4.1,2.9-3,5.3-5,7.8-6,3.2-1.3,8.5-1.8,11.9-.9,3.3.9,6.3,3.6,6.8,7,1.9-1.6,4.7-1.6,6.9-.7h0c2.5.9,4,3.6,4.7,6.1.7,2.6,1.1,5.3,2.4,7.7.3.5.6,1.1.4,1.6-.2.4-.7.6-1.1.5-.4,0-.8-.3-1.2-.5.3.7.6,1.4.8,2-.9.2-1.9,0-2.8-.2-.5,2.4-1.2,5.2-1.8,6.8-1.1,0-2,0-2.7.7-.9.8-1.3,2.3-2.8,1.7-.8-.3-1.4-1.9-1.7-2.6-1.7-5.1-2.2-10.5-1.6-15.8-1-1.1-2.3-2-3.7-2.7h.1c-2.7-.8-5.7-1.7-8.2-.5-2,1-3.1,3-4.6,4.6-2.8,3.1-6.6,4.8-10.7,4.9-.1,2.7,0,6.5,0,9.2l-2.3-4.3h0c-.2-.3-.3-.6-.5-.9h0c-.2-.6-.5-1.1-.8-1.6,0,0,0,0,0,0-1.5,1.3-3.6-.7-2.5-2.3.2-.3.5-.6.8-.8-.7.6-1.7.9-2.5.7-.9-.3-1.6-1.2-1.5-2.1,0-.6.5-1.2,1.1-1.4-1.2,0-2.4-.2-3.4-.8-.7-.4-1.3-1-1.1-1.9Z"/><path class="cls-3" d="M712,177.8s.4.3,1,.9c.6.6,1.2,1.7,1.5,3.2.2.7.2,1.6.2,2.4,0,.9,0,1.8-.1,2.8,0,1-.1,2,0,3.1,0,.5,0,1.1.2,1.7.1.5.3,1.1.7,1.6.3.4.9.6,1.4.5.5,0,.9-.3,1.2-.7.6-.7.8-1.6.9-2.4h-.2c.3.7.7,1.5,1.2,2,.5.6,1.2,1,1.9,1,.3,0,.7,0,1-.2.3-.1.5-.4.7-.7.1-.3.2-.6.2-.8,0-.3-.1-.6-.3-.7h-.1c.7.9,1.5,1.4,2.1,1.6.3.1.5.2.6.2.1,0,.2,0,.2,0,0,0,0,0-.2,0-.1,0-.4-.1-.6-.3-.5-.3-1.3-.7-2-1.6h-.1c.3.4.3,1,0,1.5-.1.2-.3.5-.6.6-.3.1-.6.2-.9.1-.6,0-1.3-.4-1.7-1-.5-.5-.8-1.2-1.1-2v-.3c-.1,0-.2.3-.2.3-.2.8-.3,1.7-.9,2.3-.3.3-.7.5-1.1.6-.4,0-.9,0-1.1-.4-.4-.4-.5-1-.6-1.5-.1-.5-.2-1.1-.2-1.6,0-1.1,0-2.1,0-3.1,0-1,.1-1.9.1-2.8,0-.9-.1-1.7-.3-2.5-.3-1.5-1-2.6-1.6-3.2-.6-.6-1-.8-1-.8Z"/><path class="cls-3" d="M682.4,187.2s0,0,0,0c0,0,.1.1.2.2.1,0,.2.2.4.3.2,0,.4.2.6.3.9.4,2.3.8,4.1.7,1.8,0,3.9-.7,5.8-2.1,1.9-1.4,3.6-3.4,5-5.7.7-1.2,1.3-2.3,1.9-3.4.6-1.1,1.3-2.1,2.1-2.9.8-.8,1.8-1.4,2.8-1.7.5-.1,1-.2,1.5-.2.5,0,.9.1,1.3.3.8.3,1.5.7,2,1.2.5.5.8,1,1.1,1.4.4.9.5,1.4.5,1.4,0,0,0,0,0-.1,0,0,0-.2,0-.3,0-.3-.2-.6-.4-1.1-.2-.4-.6-1-1.1-1.5-.5-.5-1.2-1-2-1.3-.4-.1-.9-.2-1.4-.3-.5,0-1,0-1.5.2-1,.3-2,.9-2.9,1.7-.9.8-1.6,1.8-2.2,3-.6,1.1-1.2,2.3-1.9,3.4-1.4,2.3-3,4.3-4.9,5.7-1.9,1.4-3.9,2-5.7,2.1-1.8.1-3.2-.3-4.1-.7-.9-.4-1.3-.8-1.3-.7Z"/><path class="cls-3" d="M681.5,183s.1,0,.3.2c.2.1.6.3,1,.5.4.2,1,.4,1.6.5.6.1,1.3.2,2.1.3.7,0,1.4,0,2.1-.1.6-.1,1.2-.3,1.6-.4.5-.2.8-.3,1-.5.2-.1.4-.2.4-.2,0,0-.5.2-1.5.5-.5.1-1,.3-1.6.4-.6,0-1.3.1-2,.1-.7,0-1.4-.1-2-.3-.6-.1-1.2-.3-1.6-.5-.9-.3-1.4-.6-1.4-.6Z"/><path class="cls-4" d="M689.3,196.8c.2.2,1.3-.7,2.9-.7,1.6,0,2.8.7,3,.5,0,0-.1-.4-.6-.8-.5-.4-1.4-.7-2.4-.7-1,0-1.8.4-2.3.8-.5.4-.6.8-.5.9Z"/><path class="cls-4" d="M690.5,201.9c0,.7.6,1.2,1.3,1.2.7,0,1.3-.6,1.2-1.3,0-.7-.6-1.2-1.3-1.2-.7,0-1.3.6-1.2,1.3Z"/><path class="cls-14" d="M718.8,200.5c.2,0,6.4-2.4,6.7,4.1.3,6.6-6.4,5.5-6.4,5.3,0-.2-.3-9.4-.3-9.4Z"/><path class="cls-9" d="M721,207.4s.1,0,.3.2c.2,0,.5.1.9,0,.7-.3,1.2-1.4,1.2-2.6,0-.6-.2-1.2-.4-1.6-.2-.5-.5-.8-.9-.8-.4,0-.6.2-.7.3,0,.2,0,.3,0,.3,0,0-.1-.1-.1-.4,0-.1,0-.3.2-.4.2-.1.4-.2.6-.2.5,0,1,.5,1.2,1,.3.5.5,1.1.5,1.8,0,1.3-.6,2.6-1.6,2.9-.5.1-.8,0-1.1-.1-.2-.2-.3-.3-.2-.3Z"/><path class="cls-14" d="M661.8,275.2l2.9,2.2v-5.6c0,0,10.2-1.5,10.2-1.5,0,0,2.4,13.9,2.6,17.3,0,1.2.5,3.7.1,5.8-.7,4.4-8.1,5.1-11.7,2.4-1.2-.9-1.6-1-2.8-2.1-5.4-5.2-13.4-16.3-13.4-16.3l7.2-5.9,4.8,3.6Z"/><path class="cls-9" d="M661,274.6c0,0,.6.6,1.6,1.6,1,.9,2.4,2.3,4,3.7,1.6,1.4,3.1,2.6,4.2,3.4,1.1.8,1.9,1.2,1.9,1.2,0,0-.7-.6-1.7-1.4-1.1-.9-2.5-2.1-4.1-3.5-3.2-2.8-5.8-5-5.9-4.9Z"/><polygon class="cls-14" points="687 233.4 697.9 229.2 717.9 228 727.4 231.6 714.4 238.8 703.3 238.4 687 233.4"/><path class="cls-3" d="M691.8,295.2c1,.2,46.2,0,46.2,0l.6-15.4-.2-11.6-3.7-35.2s-9.8-3.4-14.8-5c0,0-5.3,5.5-15.3,5.4-9.8-.1-11.9-2.4-11.9-2.4l-13.7,5.3s-9.8,3.5-11.4,7.8c-1.6,4.2-4.6,28.2-4.6,28.2h14.2v23.3c-.1,0,14.7-.3,14.7-.3Z"/><g class="cls-7"><polyline points="715.5 257.1 717.5 272 727.4 276.4 734.6 270.2 734.6 256.3 715.5 257.1"/></g><path class="cls-4" d="M734.4,261.3c0,.1-4.1.2-9.2.2s-9.2-.1-9.2-.2,4.1-.2,9.2-.2,9.2.1,9.2.2Z"/><path class="cls-4" d="M739.4,243.3s0,.5,0,1.3c0,.9,0,2-.1,3.4-.1,3-.3,6.9-.4,11.3-.2,4.4-.4,8.4-.5,11.3,0,1.4-.1,2.5-.2,3.4,0,.8-.1,1.3-.1,1.3,0,0,0-.5,0-1.3,0-.9,0-2,0-3.4,0-2.9.2-6.9.4-11.3.2-4.4.4-8.4.6-11.3,0-1.4.2-2.6.3-3.4,0-.8.2-1.3.2-1.3Z"/><g class="cls-8"><path d="M669.7,252.4c-.3,6.5,2.1,12.8,6.5,17.6-1.3-6.1-4.7-11.8-6.5-17.6Z"/></g><path class="cls-13" d="M689,259.5l14.1,23.3c.6,1.1-.1,2.4-1.4,2.4l-42.2.4c-.5,0-1-.2-1.3-.6l-19-24.4c-.8-1,0-2.6,1.2-2.6l44.3-.8c1.7,0,3.3.9,4.2,2.3Z"/><path class="cls-14" d="M659.7,271s1.2-2.7-1.8-3.1c-2.9-.4-10.6,0-10.6,0,0,0-4.2.4-3.3,3.5,0,0-2.5,2.2-1.2,4.6,1.3,2.4,1.9,1.7,1.9,1.7,0,0-.4,2.9,1.9,3.4,0,0,2.4,2.8,4.6,2.7,2.2-.2,11.6-4.7,12.2-5.6s1.5-1.4,1-2.4c0,0,1.2-2.6-1.3-3,0,0-.2-2.2-3.4-1.7Z"/><path class="cls-9" d="M646.4,272c0,0,.8.1,2,.1,1.2,0,2.9,0,4.8,0,1.9,0,3.5,0,4.8-.3,1.3-.3,1.8-1,1.7-1,0,0-.6.5-1.8.7-1.2.2-2.9,0-4.7.1-1.9,0-3.5,0-4.8.1-1.2,0-2,.1-2,.2Z"/><path class="cls-9" d="M648.5,276.4s.2.1.6.2c.4,0,1.1.2,1.8.1.8,0,1.7-.2,2.7-.5,1-.3,2-.6,3.1-1,1.1-.3,2.2-.6,3.1-.6,1,0,2,0,2.7-.5.3-.2.6-.6.6-.9,0-.3,0-.6-.1-.8-.2-.4-.5-.4-.5-.4,0,0,.2.1.4.5.2.4,0,1-.5,1.4-.6.4-1.5.4-2.5.4-1,0-2.1.3-3.3.6-1.1.4-2.1.7-3.1,1-1,.3-1.8.5-2.6.6-1.5.2-2.4,0-2.4,0Z"/><path class="cls-9" d="M651.6,280.1c0,0,.8,0,2-.4,1.2-.3,2.8-.8,4.6-1.4,1.8-.6,3.4-1.2,4.5-1.6,1.1-.5,1.8-.8,1.8-.9,0-.1-2.9.9-6.5,2-3.6,1.2-6.5,2.1-6.5,2.2Z"/><path class="cls-9" d="M650.8,283.6c0,0,.6,0,1.6-.2,1-.2,2.3-.7,3.7-1.3,1.4-.6,2.6-1.3,3.5-1.8.9-.5,1.4-.8,1.4-.8,0-.1-2.4.9-5.1,2.2-2.8,1.3-5.2,1.8-5.2,1.9Z"/><path class="cls-14" d="M744.1,257.2s-6,23.9-13.4,32.7c-7.2,8.5-18.5,4.6-22.4-6.4-3.9-11-10.9-36.3-10.9-36.3l8.6-6.5,14.8,28.7,6.7-19.6,16.7,7.4Z"/><path class="cls-14" d="M697.7,247.9l-6.3-9.1s-2.1-.5-2.7-.8c-.7-.4-1.4-4-1.4-4.7,0-.7-1.2-2.4-.7-2.8.5-.5,2.2-.5,2.1-1.2,0-.1-1.2-1.7-.3-2.8.4-.4,1.8-.8,1.8-.8v-3.5c-.1,0,1.8-4.1,3.7-2.6,0,0,7.2,5.6,8,6.4.7.9,3.5,12.5,4,14.6"/><path class="cls-9" d="M705.9,240.7s0-.2,0-.6c0-.4-.2-1-.4-1.7-.3-1.5-.8-3.7-1.5-6.4-.3-1.3-.7-2.8-1.2-4.4-.1-.4-.3-.8-.4-1.2-.2-.5-.5-.8-.9-1-.7-.6-1.4-1.1-2.1-1.7-1.4-1.2-2.9-2.4-4.5-3.6-.4-.3-.7-.7-1.3-.9-.6-.2-1.2,0-1.6.4-.9.7-1.4,1.6-1.9,2.6h0s0,0,0,0c0,.3,0,.7,0,1.1,0,.8,0,1.6,0,2.4l.2-.2c-.4.1-.9.2-1.3.4-.2,0-.4.2-.6.4-.1.2-.3.4-.3.6-.1.5,0,1,.1,1.4,0,.2.2.4.3.6l.2.3h0s0,0,0,0c0,0,0,0,0,0,0,0-.2.2-.4.3-.2,0-.4.1-.6.2-.2,0-.4.1-.6.2-.2,0-.4.1-.6.4-.1.3,0,.5,0,.7,0,.2.1.4.2.6.2.4.3.7.5,1.1,0,.2.1.3.1.5,0,.2,0,.4,0,.6,0,.4.1.7.2,1.1.2.7.3,1.4.6,2.1.1.3.2.7.6,1,.3.3.7.3,1,.4.6.2,1.3.4,1.9.5h-.1c1.9,2.7,3.5,4.9,4.7,6.5.5.7,1,1.3,1.3,1.8.3.4.5.6.5.6,0,0-.1-.2-.4-.7-.3-.5-.7-1.1-1.2-1.8-1.1-1.6-2.6-3.9-4.5-6.7h0c0,0,0,0,0,0-.6-.1-1.2-.3-1.8-.5-.3-.1-.7-.2-.8-.4-.2-.2-.3-.5-.4-.8-.2-.6-.4-1.3-.6-2,0-.4-.1-.7-.2-1.1,0-.2,0-.4,0-.5,0-.2,0-.4-.1-.6-.1-.4-.3-.7-.5-1.1,0-.2-.1-.4-.2-.5,0-.2,0-.4,0-.4,0,0,.2-.2.4-.2.2,0,.4-.1.6-.2.2,0,.4-.1.6-.2.2,0,.4-.2.6-.5,0,0,0-.2,0-.2,0,0,0-.1,0-.2h0c0,0-.2-.3-.2-.3,0-.2-.2-.4-.3-.5-.1-.4-.2-.8,0-1.1,0-.2.1-.3.3-.5,0-.1.3-.2.5-.3.4-.2.8-.3,1.2-.4h.2s0-.2,0-.2c0-.8,0-1.6,0-2.4,0-.4,0-.7,0-1.1h0c.5-.8,1-1.7,1.8-2.3.4-.3.8-.5,1.2-.3.4.1.8.5,1.2.8,1.6,1.2,3.1,2.4,4.5,3.6.7.6,1.4,1.1,2.1,1.7.3.3.6.5.8.9.2.4.3.8.4,1.2.5,1.5.9,3,1.3,4.3.7,2.6,1.3,4.8,1.7,6.3.2.7.3,1.3.5,1.7.1.4.2.6.2.6Z"/><path class="cls-9" d="M690.2,225.7c0,0,.7,0,1.9.1.6,0,1.2.3,2,.5.8.2,1.7,0,2.6,0,1.8-.2,3.2.5,4,1.3.8.8.9,1.6,1,1.5,0,0,0-.8-.7-1.8-.4-.5-1-.9-1.7-1.2-.7-.3-1.7-.4-2.6-.3-.9,0-1.7.2-2.4,0-.7-.2-1.4-.4-2-.4-1.2,0-1.9.1-1.9.2Z"/><path class="cls-9" d="M692.8,225.5c.1,0,.4-.4.4-1,0-.6-.4-1-.5-.9-.1,0,0,.5,0,.9,0,.5,0,.9,0,.9Z"/><path class="cls-9" d="M688.5,229.3c0,.1,2.5.2,5.4-.4.7-.2,1.4-.4,2-.3.6.1,1,.5,1.3.9.5.8.6,1.4.7,1.4,0,0,0-.7-.5-1.6-.3-.4-.8-.9-1.5-1.1-.7-.2-1.5,0-2.2.2-2.9.6-5.4.7-5.4.9Z"/><path class="cls-9" d="M687.6,232.6c0,0,.5.1,1.3,0,.8,0,1.9-.4,3.1-.6.6-.1,1.2-.2,1.7-.2.5,0,.9.2,1.2.4.6.5.5,1.1.6,1.1,0,0,0-.1,0-.4,0-.2-.1-.6-.5-.9-.3-.3-.8-.6-1.4-.6-.6,0-1.2,0-1.8.1-1.2.2-2.3.6-3.1.7-.8.2-1.3.2-1.3.3Z"/><path class="cls-9" d="M689.7,235.2c0,0,.5.7,1.7.7l-.2-.2c0,.2,0,.4,0,.6.2,1.3.4,2.3.5,2.3.1,0,0-1.1,0-2.3,0-.2,0-.4,0-.6v-.2s-.2,0-.2,0c-.9,0-1.6-.4-1.6-.3Z"/><path class="cls-3" d="M734.6,233s12.2,3,12.2,19.1c0,16.1-3.7,24.2-3.7,24.2l-22.5-12.2,5-12.6,9-18.5Z"/><path class="cls-4" d="M743.1,276.4s-.2,0-.5-.2c-.3-.2-.8-.4-1.3-.7-1.2-.6-2.8-1.5-4.8-2.5-4.1-2.2-9.7-5.2-16-8.6h-.2c0,0,0-.3,0-.3.4-1,.8-2.1,1.2-3.2,1.4-3.7,2.8-7.3,4.1-10.5.6-1.6,1.2-3.2,1.8-4.6.5-1.4,1.1-2.8,1.8-3.9,1.3-2.3,2.8-4,4.1-4.7.6-.4,1.2-.6,1.6-.6.2,0,.3,0,.4,0,0,0,.2,0,.2,0,0,0-.9,0-2.1.8-1.2.8-2.7,2.4-3.9,4.7-.6,1.1-1.2,2.5-1.7,3.9-.5,1.4-1.1,3-1.7,4.6-1.2,3.2-2.6,6.8-4,10.5-.4,1.1-.8,2.1-1.2,3.2v-.3c6.2,3.5,11.8,6.5,15.9,8.8,2,1.1,3.6,2,4.7,2.7.5.3.9.5,1.3.7.3.2.4.3.4.3Z"/><path class="cls-6" d="M633.6,431.6h-131.6c-4.6,0-8.3-4.2-8.3-9.4v-106.9c0-5.2,3.7-9.4,8.3-9.4h131.6c4.6,0,8.3,4.2,8.3,9.4v106.9c0,5.2-3.7,9.4-8.3,9.4Z"/><path class="cls-13" d="M501.9,305.9h131.2c4.9,0,8.8,4,8.8,8.8v13.2h-147.7v-14.4c0-4.2,3.4-7.6,7.6-7.6Z"/><circle class="cls-6" cx="503.1" cy="316.2" r="2.5"/><circle class="cls-6" cx="510.6" cy="316.2" r="2.5"/><path class="cls-6" d="M520.6,316.2c0,1.4-1.1,2.5-2.5,2.5s-2.5-1.1-2.5-2.5,1.1-2.5,2.5-2.5,2.5,1.1,2.5,2.5Z"/><path class="cls-4" d="M633.7,431.6s.1,0,.3,0c.2,0,.6,0,1-.1.9-.2,2.2-.6,3.6-1.8,1.3-1.1,2.7-3,3.1-5.6.2-1.3.1-2.7.2-4.2,0-1.5,0-3.1,0-4.8,0-13.5,0-33,0-57.1,0-12.1,0-25.3,0-39.4,0-.9,0-1.8,0-2.7,0-.9,0-1.8-.2-2.7-.3-1.7-1.1-3.4-2.4-4.7-1.2-1.3-2.9-2.2-4.7-2.5-.9,0-1.9,0-2.8,0-.9,0-1.9,0-2.8,0-7.6,0-15.3,0-23.3,0-31.9,0-66.9,0-103.7,0-.6,0-1.1,0-1.7,0-.3,0-.6,0-.8.2-.1,0-.3,0-.4.1l-.4.2c-1,.4-1.9,1.2-2.6,2-.7.9-1.2,1.9-1.6,3-.3,1.1-.4,2.2-.4,3.3,0,4.5,0,9.1,0,13.5,0,9,0,17.8,0,26.5,0,17.4,0,34.1,0,50,0,4,0,7.9,0,11.8,0,1.9,0,3.9,0,5.8,0,.9.2,1.9.5,2.8.3.9.7,1.8,1.2,2.5.5.8,1.1,1.5,1.9,2,.7.6,1.5,1,2.4,1.3.4.1.9.2,1.3.3.5,0,.9,0,1.4,0,.9,0,1.8,0,2.8,0,3.7,0,7.3,0,10.8,0,14.2,0,27.4,0,39.4,0,24.1,0,43.6,0,57.1,0,6.7,0,12,0,15.5,0,1.8,0,3.1,0,4,0,.9,0,1.4,0,1.4,0,0,0-.5,0-1.4,0-.9,0-2.3,0-4,0-3.6,0-8.8,0-15.5,0-13.5,0-33,0-57.1,0-12.1,0-25.3,0-39.4,0-3.5,0-7.2,0-10.8,0-.9,0-1.8,0-2.8,0-.5,0-.9,0-1.4,0-.5,0-.9-.2-1.4-.3-.9-.3-1.8-.7-2.5-1.3-.8-.6-1.4-1.3-1.9-2.1-.5-.8-1-1.7-1.2-2.6-.3-.9-.5-1.9-.5-2.9,0-1.9,0-3.8,0-5.8,0-3.9,0-7.8,0-11.8,0-15.9,0-32.7,0-50,0-8.7,0-17.5,0-26.5,0-4.5,0-9,0-13.5,0-1.1,0-2.3.4-3.4.3-1.1.9-2.2,1.6-3.1.7-.9,1.7-1.7,2.8-2.1l.4-.2c.1,0,.3,0,.4-.1.3,0,.6-.1.9-.2.6,0,1.2,0,1.7,0,36.8,0,71.8,0,103.7,0,8,0,15.7,0,23.3,0,.9,0,1.9,0,2.8,0,.9,0,1.9,0,2.8,0,1.9.2,3.7,1.2,4.9,2.5,1.3,1.4,2.1,3.1,2.5,4.9.2.9.2,1.8.2,2.7,0,.9,0,1.8,0,2.7,0,14.2,0,27.4,0,39.4,0,24.1,0,43.6,0,57.1,0,1.7,0,3.3,0,4.8,0,1.5,0,2.9-.2,4.2-.5,2.6-1.8,4.5-3.2,5.6-1.4,1.2-2.7,1.6-3.6,1.7-.4,0-.8.1-1,.1-.2,0-.3,0-.3,0Z"/><path class="cls-4" d="M586.4,353.1c-.5-5.5-1.1-11-1.6-16.5l-24.7-30.5c-1.6,7.6-3.5,22.1-1,29.4.9,2.8,2.1,5.5,1.8,8.4-.3,2.7-1.9,5.2-1.7,7.9.2,2,1.3,3.8,2.4,5.5.6.8,1.2,1.7,2.1,2,.7.2,1.5,0,2.2,0,6.2-1.2,12.4-2.5,18.6-3.7.6-.1,1.2-.3,1.6-.7.3-.5.3-1.1.2-1.6Z"/><path class="cls-14" d="M527.3,407.5l15.9-6.4,12.1-31.6,16.1,8.3s-1.6,3.1-4.9,10.9c-1.3,3-5.6,11.3-7.3,15.4-3.3,7.6-10.7,12.7-19,12.9l-14.9.4,2-9.8Z"/><path class="cls-14" d="M519.4,401.4l-2.4-2.5c-.5-.3-1-.4-1.5-.4l-7.6.2c-1.4.1-2.7.9-3.5,2.1l-2.8,4.7s-1.9,3.2-1.6,4c.4,1.2,1.6.9,1.6.9,0,0,.3,1.5.8,1.8.8.5,1.8.1,1.8.1.3.6.9.9,1.5.9.1,0,.3,0,.4,0,.9-.3,1.3-2,1.3-2l3.8-.7s5.5,3.7,7.5,6.1c1.9,2.4,7,.6,7,.6l1.9-9.1-8.3-6.6Z"/><path class="cls-9" d="M513.8,402.5c0,0-.6.2-1.7.3-1,.1-2.5.2-4.2.4h.2c-.3.5-.6,1.1-1,1.7-1.2,1.9-2.6,3.4-3.6,4.3-1.1,1-1.9,1.4-1.9,1.4,0,0,.7-.6,1.7-1.6,1-1,2.3-2.5,3.5-4.3.4-.6.7-1.2,1-1.8h0c0-.1.1-.1.1-.1,1.7-.2,3.2-.2,4.2-.2,1,0,1.7,0,1.7,0Z"/><path class="cls-9" d="M514,406.1s-.5.2-1.4.4c-.9.1-2.2.2-3.7-.1l.3-.2c-.2.4-.3.9-.6,1.4-.8,1.7-1.9,3-2.9,3.7-.9.8-1.6,1.1-1.6,1.1,0,0,.6-.5,1.4-1.3.8-.8,1.9-2.1,2.7-3.7.2-.4.4-.9.5-1.3v-.2c0,0,.3,0,.3,0,2.8.6,5,0,5,.2Z"/><path class="cls-14" d="M523.6,408c-2.3-1-4.5-2.1-6.8-3.1-.9-.4-1.9-.9-2.9-.9-1.1,0-2.1.5-3.1,1-1.2.6-2.4,1.3-3.6,1.9-.2.1-.4.2-.5.4,0,.3.1.6.3.8,1.8,1.8,5.1,2,7.1.3.6,1.6,1.2,3.2,2.3,4.5,1.1,1.3,2.8,2.2,4.5,1.9"/><path class="cls-9" d="M520.8,414.8s0,0-.2,0c-.1,0-.3,0-.6,0-.5,0-1.2,0-2-.5-.8-.4-1.7-1.1-2.4-2.2-.7-1-1.2-2.4-1.8-3.8h.3c-1,1-2.5,1.4-3.9,1.3-.7,0-1.5-.3-2.2-.6-.3-.2-.7-.4-1-.7-.1-.1-.3-.3-.4-.4-.1-.2-.3-.4-.2-.7,0-.3.3-.4.4-.5.2,0,.3-.2.4-.2.3-.1.6-.3.8-.4.6-.3,1.1-.6,1.7-.9,1.1-.5,2.1-1.2,3.3-1.4,1.2-.3,2.3,0,3.2.5.9.4,1.7.8,2.5,1.2,1.5.7,2.7,1.3,3.6,1.8.8.4,1.3.7,1.3.7,0,0-.5-.2-1.4-.5-.9-.4-2.2-1-3.7-1.6-.8-.3-1.6-.7-2.5-1.1-.9-.4-1.9-.7-3-.4-1,.2-2.1.9-3.1,1.4-.5.3-1.1.6-1.6.9-.3.1-.6.3-.8.4-.3.1-.6.3-.6.4,0,.2.2.5.5.7.3.2.6.4.9.6.6.3,1.3.5,2,.6,1.4.1,2.7-.3,3.6-1.1l.2-.2v.3c.6,1.4,1.1,2.7,1.8,3.7.6,1,1.5,1.7,2.2,2.2,1.6.9,2.7.5,2.7.6Z"/><path class="cls-4" d="M613.9,337.5c-3.3-5.5-6.1-21.1-6.3-26.2-.2-5.1-3.1-11.1-6.6-14.7-3.5-3.6-9.7-5-13.8-2.1l-.9,4.3c1.6,19.6,1.4,39.5,3,59.1.2,2.6,2.3,4.9,3.5,7.2,1.2,2.3,3.5,4.2,6.1,4,3.4-.2,8.5-1.7,9.5-5,3.8-11.6,19.8-3.1,5.5-26.7Z"/><path class="cls-4" d="M602.3,298.8c-5.1-6.2-11.9-9.7-19.9-9.9-4.5,0-6.4.9-9.6,1.7-3.2.9-6.2,2.6-8.1,5.4-2.3,3.3-4.2,6.9-4.7,10.9-.4,4.1-.9,8.2-.6,12.3.3,4.1,1.4,8.2,3.8,11.5l10.4,1.8c5.8.2,11.6.4,17.2-.9,5.6-1.3,11-4.3,14-9.2,4.2-6.8,2.4-17.4-2.6-23.6Z"/><path class="cls-14" d="M593.1,298.8l-13.9-5.5-3.6.4c-8.2,0-13.8,9-13.8,15.6,0,7.3.2,16.3,1.3,21.7,2.3,10.9,11.6,11.8,11.6,11.8,0,0-.2,5.8-.3,9.5l21.3-1.5,1.1-48.2c0-2-1.7-3.6-3.7-3.7Z"/><path class="cls-9" d="M579.4,328.5c0-.6-.4-1.1-.8-1.4-.8-.7-2-.8-2.9-.2-.9.6-1.4,1.8-1.2,3h0c.5.7,1.2,1.1,2.1,1.2.1,0,.3,0,.4,0,.6,0,1.3-.2,1.7-.7.5-.5.8-1.2.7-1.9Z"/><path class="cls-4" d="M564.8,318.6c0,.7.7,1.3,1.4,1.3.8,0,1.4-.6,1.4-1.3,0-.7-.7-1.3-1.4-1.3-.8,0-1.4.6-1.4,1.3Z"/><path class="cls-4" d="M564.2,313c.2.2,1.2-.7,2.7-.8,1.5-.1,2.7.6,2.8.4,0,0-.1-.4-.6-.7-.5-.3-1.3-.6-2.3-.6-.9,0-1.7.4-2.2.8-.4.4-.6.7-.5.8Z"/><path class="cls-4" d="M573.9,324.9c0,0-.9-.2-2.5-.3-.4,0-.8,0-.8-.3-.1-.3,0-.7.2-1.2.3-1,.6-2,1-3,1.4-4.3,2.3-7.8,2.1-7.8-.2,0-1.4,3.4-2.8,7.7-.3,1.1-.6,2.1-.9,3-.1.4-.3,1-.1,1.5.1.3.4.5.7.5.3,0,.5,0,.7,0,1.5,0,2.5,0,2.5-.1Z"/><path class="cls-9" d="M574.7,342.8s7.4,0,14.5-4.7c0,0-3.5,7.8-14.5,7.4v-2.7Z"/><path class="cls-4" d="M578.5,325.7c-.2,0-.2,1.6-1.5,2.9-1.3,1.2-3.1,1.2-3.1,1.4,0,.1.4.3,1.1.3.7,0,1.8-.3,2.6-1.1.8-.8,1.1-1.7,1.2-2.4,0-.7-.2-1.1-.3-1.1Z"/><path class="cls-4" d="M564.7,307.7c.3.4,1.4,0,2.8,0,1.4,0,2.5.3,2.8,0,.1-.2,0-.5-.5-.9-.5-.3-1.3-.6-2.2-.7-.9,0-1.8.3-2.2.6-.5.3-.7.7-.5.9Z"/><path class="cls-4" d="M580.6,318.2c0,.7-.6,1.4-1.3,1.4-.8,0-1.4-.5-1.5-1.2,0-.7.6-1.4,1.3-1.4.8,0,1.4.5,1.5,1.2Z"/><path class="cls-4" d="M584.7,312.4c-.2.2-1.3-.6-2.8-.6-1.5,0-2.6.8-2.8.6,0,0,0-.4.6-.8.5-.4,1.3-.7,2.2-.7.9,0,1.7.3,2.2.7.5.4.6.7.6.8Z"/><path class="cls-4" d="M583.8,307.5c-.3.3-1.5,0-2.9,0-1.4,0-2.6.3-2.9,0-.1-.2,0-.5.6-.9.5-.3,1.4-.6,2.3-.6,1,0,1.8.3,2.3.7.5.3.7.7.5.9Z"/><path class="cls-14" d="M594.9,321c0-.8.8-2.8,1.6-3,2.1-.5,6-.5,6.4,5,.5,7.5-7.1,6.4-7.2,6.2,0-.2-.6-5.4-.8-8.2Z"/><path class="cls-9" d="M597.5,326.3s.1,0,.4.2c.2,0,.6.1,1,0,.8-.3,1.4-1.6,1.3-3,0-.7-.2-1.3-.5-1.8-.3-.5-.6-.9-1-.9-.4,0-.7.2-.7.4,0,.2,0,.4,0,.4,0,0-.2-.1-.1-.4,0-.2,0-.3.3-.5.2-.2.4-.2.7-.2.6,0,1.1.5,1.4,1.1.3.6.6,1.3.6,2.1,0,1.5-.6,3-1.7,3.3-.5.2-1,0-1.2-.1-.2-.2-.3-.3-.3-.4Z"/><path class="cls-4" d="M596.8,318l-1.9,2c-8.2-7.9-24.3-27.5-23.4-26.4,0,0,5.6-2.3,11.7-1.3,6.1,1,17.7,4.1,17.5,11.3-.2,7.2-4,14.4-4,14.4Z"/><path class="cls-3" d="M607.6,316.4s0-.2-.1-.4c0-.3-.2-.7-.5-1.2-.5-1-1.5-2.3-3.1-3.5-1.6-1.2-3.8-2.2-6.3-3-2.5-.8-5.3-1.4-8.1-2.6-2.8-1.1-5.3-2.6-7.4-4.1-2.1-1.5-3.9-3.1-5.2-4.6-1.4-1.4-2.4-2.7-3-3.6-.3-.4-.6-.8-.8-1-.2-.2-.3-.4-.3-.3,0,0,0,.1.2.4.2.2.4.6.7,1.1.6.9,1.6,2.2,2.9,3.7,1.3,1.5,3.1,3.1,5.2,4.7,2.1,1.6,4.6,3.1,7.5,4.2,2.8,1.2,5.6,1.8,8.1,2.6,2.5.8,4.7,1.7,6.2,2.9,1.6,1.2,2.6,2.4,3.2,3.4.5,1,.7,1.6.8,1.5Z"/><path class="cls-3" d="M605.5,317.5s0-.6-.3-1.6c-.3-1-1.2-2.4-2.8-3.5-1.6-1.2-3.8-1.9-6.2-2.4-2.5-.5-5.1-1.2-7.8-2.5-2.6-1.2-5-2.7-6.9-4.3-2-1.6-3.5-3.2-4.7-4.7-1.2-1.4-2.1-2.8-2.6-3.6-.3-.4-.5-.8-.6-1-.1-.2-.2-.4-.2-.4,0,0,0,.1.2.4.2.3.3.6.6,1.1.6.9,1.3,2.2,2.6,3.7,1.2,1.5,2.8,3.2,4.7,4.8,2,1.6,4.3,3.1,7,4.3,2.7,1.2,5.4,1.9,7.8,2.5,2.4.5,4.6,1.2,6.2,2.3,1.6,1.1,2.4,2.4,2.8,3.4.4,1,.4,1.6.4,1.6Z"/><path class="cls-12" d="M590.3,320.8c0,5.5,4.2,10,9.7,10.1,5.5,0,10-4.2,10.1-9.7,0-5.5-4.2-10-9.7-10.1-5.5,0-10,4.2-10.1,9.7Z"/><path class="cls-12" d="M600.4,311.1s-.5-20.4-18.4-23c0,0-7.1-.9-10.5,3.1,0,0,4.8-2,9.5-.8,3.1.8,14.2,5.8,14.8,22.3l4.6,2v-3.6Z"/><path class="cls-4" d="M593.2,320.9s0,0,0-.1c0,0,0-.2,0-.3,0-.2,0-.3,0-.6,0-.2,0-.5.2-.7.1-.6.4-1.2.8-1.9.4-.7,1-1.4,1.8-2,.8-.6,1.8-1.1,3-1.3,1.2-.2,2.5-.2,3.8.3.6.2,1.2.6,1.8,1,.3.2.5.4.8.7.2.3.5.5.7.8.9,1.2,1.4,2.7,1.4,4.2,0,.8-.1,1.5-.4,2.3-.2.7-.6,1.4-1,2-.2.3-.5.6-.7.8-.3.2-.5.5-.8.7-.6.4-1.2.8-1.8,1-1.3.5-2.6.5-3.8.3-1.2-.2-2.2-.7-3-1.3-.8-.6-1.4-1.3-1.8-2-.4-.7-.7-1.4-.8-1.9,0-.3-.1-.5-.2-.7,0-.2,0-.4,0-.6,0-.1,0-.3,0-.3,0,0,0-.1,0-.1s0,0,0,.1c0,0,0,.2,0,.3,0,.2,0,.3,0,.6,0,.2,0,.5.1.8.1.6.4,1.2.8,1.9.4.7,1,1.5,1.8,2.1.8.6,1.9,1.2,3.1,1.4,1.2.2,2.6.2,3.8-.3.7-.2,1.3-.6,1.9-1,.3-.2.6-.5.8-.7.2-.3.5-.5.7-.8.4-.6.8-1.3,1.1-2,.2-.7.4-1.5.4-2.3,0-.8-.1-1.6-.4-2.3-.2-.7-.6-1.4-1.1-2-.2-.3-.5-.6-.7-.8-.3-.2-.5-.5-.8-.7-.6-.4-1.2-.8-1.9-1-1.3-.5-2.6-.5-3.8-.3-1.2.2-2.2.8-3.1,1.4-.8.6-1.4,1.4-1.8,2.1-.4.7-.7,1.4-.8,1.9,0,.3-.1.5-.1.8,0,.2,0,.4,0,.6,0,.1,0,.3,0,.3,0,0,0,.1,0,.1Z"/><path class="cls-4" d="M598.1,317.9s1.3,1.4,2.9,3c1.6,1.6,3,2.9,3,2.9,0,0-1.3-1.4-2.9-3-1.6-1.6-3-2.9-3-2.9Z"/><path class="cls-4" d="M599.3,320.5s.4.6,1.1,1.2c.6.6,1.2,1.1,1.2,1.1,0,0-.4-.6-1.1-1.2-.6-.6-1.2-1.1-1.2-1.1Z"/><polygon class="cls-14" points="574.5 349.6 596 347.3 599.9 350.9 584.6 359.9 577.8 363.4 571.1 361.4 569 357.4 574.5 349.6"/><path class="cls-3" d="M545.5,375.8s6.7-12.9,8.4-15.8c2.8-4.8,8.2-7.5,8.2-7.5l12.4-2.9s-1.3,6.2,6.4,6.7c9.8.5,15.9-8.9,15.9-8.9,0,0,11.2,1.2,14.3,2.5,3.1,1.3,11.9,5,13.1,16.6l3,19-23.7,1.8.3,25.3,11.8,19.1-56.3-.3c-.9.3,2.9-12,.9-22.5l-3.9-9.5c-1.6-3.8-2.5-7.8-2.8-11.9-.2-2.7,0-4.7,0-4.7,0,0-6.1-2.1-8.1-7Z"/><path class="cls-14" d="M564.2,421.5l39.7-11.9-.3-22.3,20.2-1.5s-1.6,11.6-1.9,17.5c-.3,8.5-4.4,20.4-7.2,23-2.7,2.5-51.7,5.3-51.7,5.3l1.1-9.9Z"/><path class="cls-14" d="M541.6,428.5c.3.5.9.9,1.6.8.1,0,.3,0,.4-.1.9-.4.6-2.2.6-2.2l4.2-1s4.1,1.5,6.2,3.8c2.2,2.2,8.9,1.5,8.9,1.5l1-9.3-8.4-6.5s.5.4-.1-.9c-.6-1.3-3.1-.6-3.1-.6-.4-.6-2.1-.7-2.1-.7l-6.9,1.3c-1.4.3-2.6,1.2-3.3,2.4l-2.6,4.9s-1.3,3.5-1,4.2c.5,1.1,1.7.8,1.7.8,0,0,.5,2.2,1.1,2.2.6,0,1.7-.5,1.7-.5h0Z"/><path class="cls-9" d="M555.9,420.8c0,0-.9,0-2.4.2-1.5.2-3.5.6-5.6,1.5-1,.4-2,.9-2.8,1.5-.8.5-1.6,1-1.9,1.6-.1.3,0,.6.1.8.2.2.4.3.6.4.4.1.6,0,.6,0,0,0-.2.2-.7.1-.2,0-.5-.2-.7-.4-.2-.2-.4-.7-.2-1.1.1-.4.4-.8.8-1,.4-.3.7-.6,1.2-.8.8-.6,1.8-1.1,2.9-1.5,2.1-.9,4.2-1.3,5.7-1.4,1.5-.1,2.4,0,2.4,0Z"/><path class="cls-9" d="M556.7,425.2c0,.1-2.8.2-6.3.7-3.4.5-6.2,1.1-6.2,1,0,0,.7-.3,1.8-.6,1.1-.3,2.7-.6,4.4-.8,1.7-.2,3.3-.3,4.5-.4,1.1,0,1.9,0,1.9,0Z"/><path class="cls-9" d="M541.7,428.3s0-.3-.1-.7c0-.5-.1-1.2-.2-2,0-.4,0-.9,0-1.4,0-.5.3-1.1.6-1.6.6-1,1.3-2,2.4-2.9,1-.8,2.1-1.5,3.2-1.9,1.1-.4,2.1-.6,3-.7.9,0,1.5-.1,2-.1.5,0,.7,0,.7,0,0,0-1,.2-2.7.4-.8.1-1.8.3-2.8.8-1,.4-2,1.1-3.1,1.9-1,.8-1.7,1.8-2.3,2.7-.6.9-.6,1.9-.7,2.8,0,1.7,0,2.7,0,2.8Z"/><path class="cls-9" d="M550.7,415c0,0-1,.2-2.7.5-1.6.4-4.1.7-5.4,3-1.4,2.1-2.6,4.1-3.1,5.7-.5,1.6-.4,2.6-.5,2.6,0,0,0-.3,0-.7,0-.5,0-1.2.3-2,.4-1.7,1.6-3.7,3-5.9.4-.5.8-1,1.2-1.5.5-.4,1-.7,1.6-.9,1.1-.4,2.1-.6,2.9-.7,1.7-.2,2.7-.2,2.7-.2Z"/><path class="cls-9" d="M554.9,430s-.2,0-.4-.3c-.3-.2-.7-.5-1.2-.8-1.1-.7-2.7-1.7-4.8-2.8h0c-1.3.3-2.7.7-4.2,1.1v-.2c.2.3.2.7.1,1.1,0,.4-.1.7-.4,1.1-.1.2-.4.3-.5.3-.2,0-.4,0-.6,0-.4,0-.8-.2-1.1-.5,0,0-.1-.2-.2-.2h0c0,0,0,0,0,0h0s0,0,0,0c0,0,.5.1.3,0h0s0,0,0,0h-.1c-.2.2-.4.2-.5.3-.2,0-.4.1-.6.2-.1,0-.2,0-.3,0-.1,0-.2,0-.4,0-.3-.2-.4-.3-.5-.5-.1-.2-.2-.4-.3-.6-.1-.4-.3-.8-.4-1.2l.3.2c-.5.1-1.2,0-1.6-.4-.2-.2-.4-.5-.4-.8,0-.3,0-.6,0-.8.2-1.1.6-2.1.9-3.2h0s0,0,0,0c.4-.8.9-1.7,1.4-2.6.3-.6.6-1.1.9-1.6.3-.5.5-1.1,1-1.6.4-.5.9-.9,1.5-1.2.6-.3,1.2-.4,1.7-.5,2.3-.4,4.4-.8,6.5-1.2h0s0,0,0,0c.4,0,.8.1,1.2.2.4.1.8.3,1,.6h-.2c.7-.4,1.6-.5,2.2-.1.7.4,1,1,1.2,1.7h0c2.4,1.8,4.4,3.3,5.8,4.4.7.5,1.2.9,1.6,1.2.4.3.5.4.5.5,0,0-.2-.1-.6-.4-.4-.3-.9-.7-1.6-1.2-1.4-1.1-3.4-2.5-5.9-4.3h0s0,0,0,0c-.2-.6-.5-1.2-1.1-1.4-.5-.3-1.3-.2-1.9,0h-.1c0,0,0,0,0,0-.2-.2-.5-.4-.8-.5-.3,0-.7-.2-1.1-.2h0c-2,.4-4.2.8-6.5,1.3-.6.1-1.1.2-1.6.5-.5.3-1,.6-1.3,1-.4.4-.6,1-.9,1.5-.3.5-.6,1.1-.9,1.6-.5.9-.9,1.8-1.4,2.6h0c-.4,1-.7,2.1-.9,3.1,0,.3,0,.5,0,.7,0,.2.1.4.2.6.3.3.8.4,1.2.3h.2c0,0,0,.2,0,.2,0,.4.2.8.3,1.1.1.3.3.8.5.9,0,0,0,0,.2,0,0,0,.2,0,.3,0,.2,0,.4-.1.5-.2.2,0,.3-.1.5-.2h.1c0,0,0,0,0,0h0c-.2,0,.3,0,.3,0h0s0,0,0,0h0s0,0,0,0c0,0,.1.1.2.2.2.2.5.4.9.4.2,0,.3,0,.5,0,.2,0,.3,0,.4-.2.4-.5.4-1.2.3-1.8v-.2s.1,0,.1,0c1.5-.4,3-.7,4.2-1h0s0,0,0,0c2.1,1.1,3.7,2.2,4.7,2.9.5.4.9.7,1.2.9.3.2.4.3.4.3Z"/><path class="cls-13" d="M484.1,394.9l15.3,33.9c.6,1.4,2,2.3,3.6,2.3l79.7.6c1,0,1.7-.9,1.5-1.8h0c-.1-.7-.7-1.2-1.5-1.3l-38.2-.6-13.7-33c-.4-1.1-1.5-1.7-2.6-1.7l-42.8-.3c-1,0-1.6,1-1.2,1.9Z"/><path class="cls-4" d="M543.2,431.7s0-.1-.2-.4c-.1-.3-.3-.7-.5-1.1-.5-1-1.1-2.4-1.8-4.1-1.5-3.4-3.5-8.2-5.7-13.5-2.2-5.3-4.1-10.1-5.4-13.6-.7-1.8-1.2-3.2-1.5-4.2-.2-.5-.3-.8-.4-1.1,0-.3-.1-.4-.1-.4,0,0,0,.1.2.4.1.3.3.7.5,1.1.4,1,1,2.4,1.7,4.1,1.4,3.5,3.4,8.3,5.6,13.5,2.2,5.3,4.1,10,5.6,13.5.7,1.7,1.2,3.1,1.7,4.1.2.4.3.8.4,1.1,0,.3.1.4.1.4Z"/><path class="cls-6" d="M515.4,411.4c0,1.2-1,2.2-2.2,2.2s-2.2-1-2.2-2.2,1-2.2,2.2-2.2,2.2,1,2.2,2.2Z"/><path class="cls-4" d="M559.8,361.5c0,0-.6,1.2-1.5,3.3-.9,2-2,4.8-2.9,8.1-.9,3.2-1.4,6.2-1.7,8.4-.3,2.2-.3,3.6-.4,3.5,0,0,0-.3,0-1,0-.6,0-1.5.1-2.6.2-2.2.6-5.3,1.5-8.5.9-3.3,2.1-6.1,3.1-8.1.5-1,.9-1.8,1.2-2.3.3-.5.5-.8.5-.8Z"/><path class="cls-4" d="M627.3,385.5s-.2,0-.5,0c-.4,0-.8,0-1.4.1-1.3.1-3.1.3-5.3.4-4.6.3-10.9.8-18.2,1.4h-.2s0-.2,0-.2c-.2-2.4-.3-5-.5-7.6-.3-4.6-.5-8.9-.5-12.9-.2-4,.8-7.6,2.3-10.2,1.5-2.6,3.6-4.1,5.1-4.9.8-.4,1.4-.6,1.8-.7.4-.1.7-.2.7-.2,0,0-.9.3-2.4,1-1.4.8-3.4,2.3-4.9,4.9-1.5,2.6-2.4,6.1-2.2,10,0,3.9.3,8.3.6,12.8.2,2.6.3,5.2.5,7.6l-.2-.2c7.3-.5,13.6-.9,18.2-1.2,2.2-.1,4-.2,5.3-.3.6,0,1.1,0,1.4,0,.3,0,.5,0,.5,0Z"/><path class="cls-4" d="M582.8,401s-.3,0-.8-.3c-.3-.1-.6-.2-.9-.4-.3-.2-.7-.4-1.1-.7-.8-.5-1.7-1.3-2.6-2.2-.9-.9-1.8-2.1-2.5-3.4-.7-1.3-1.3-2.6-1.6-3.9-.3-1.3-.5-2.4-.6-3.4,0-.5,0-.9,0-1.3,0-.4,0-.7,0-1,0-.5.1-.8.2-.8,0,0,0,1.2.1,3.1,0,1,.3,2.1.7,3.3.4,1.2.9,2.5,1.6,3.8.7,1.3,1.6,2.4,2.4,3.3.9.9,1.7,1.7,2.5,2.2,1.5,1.1,2.6,1.6,2.6,1.7Z"/><path class="cls-4" d="M609.8,336.3l-13.7-3.2c0,9.7-2.7,13.6-5,18.7-2.3,5.1-4.2,10.8-2.6,16.2.6,1.9,1.8,3.9,3.8,4.4,1.3.4,2.8,0,4-.6,2.8-1.5,4.5-4.3,5.8-7.2,1.2-2.9,2-6,3.4-8.8,1.2-2.4,2.8-4.5,3.7-7,.9-2.5,2.3-9.3.6-12.4Z"/><path class="cls-6" d="M492.5,168.1h121.9c4.2,0,7.6-3.9,7.6-8.7V60.4c0-4.8-3.4-8.7-7.6-8.7h-121.9c-4.2,0-7.6,3.9-7.6,8.7v99c0,4.8,3.4,8.7,7.6,8.7Z"/><path class="cls-13" d="M484.6,51.6h136.8v12.1c0,4.6-3.7,8.3-8.3,8.3h-121.4c-3.9,0-7.1-3.2-7.1-7.1v-13.3h0Z" transform="translate(1106.1 123.6) rotate(180)"/><path class="cls-6" d="M611,61.2c0,1.3,1,2.3,2.3,2.3s2.3-1,2.3-2.3-1-2.3-2.3-2.3-2.3,1-2.3,2.3Z"/><circle class="cls-6" cx="606.3" cy="61.2" r="2.3"/><path class="cls-6" d="M597.1,61.2c0,1.3,1,2.3,2.3,2.3s2.3-1,2.3-2.3-1-2.3-2.3-2.3-2.3,1-2.3,2.3Z"/><path class="cls-4" d="M492.3,168.1s-.1,0-.3,0c-.2,0-.5,0-.9-.1-.8-.2-2.1-.5-3.3-1.6-1.2-1.1-2.5-2.8-2.9-5.2-.2-1.2-.1-2.5-.2-3.9,0-1.4,0-2.9,0-4.4,0-12.5,0-30.6,0-52.9,0-11.2,0-23.4,0-36.5,0-.8,0-1.6,0-2.5,0-.8,0-1.6.2-2.5.3-1.6,1.1-3.2,2.2-4.4,1.1-1.2,2.7-2.1,4.4-2.3.8,0,1.7,0,2.6,0,.9,0,1.7,0,2.6,0,7,0,14.2,0,21.6,0,29.5,0,62,0,96.1,0,.5,0,1.1,0,1.6,0,.3,0,.5,0,.8.2.1,0,.2,0,.4.1l.4.2c1,.4,1.8,1.1,2.4,1.9.7.8,1.1,1.7,1.4,2.7.3,1,.4,2,.4,3.1,0,4.2,0,8.4,0,12.5,0,8.3,0,16.5,0,24.5,0,16.1,0,31.6,0,46.3,0,3.7,0,7.3,0,10.9,0,1.8,0,3.6,0,5.4,0,.9-.2,1.7-.4,2.6-.2.8-.6,1.6-1.1,2.3-.5.7-1.1,1.4-1.7,1.9-.7.5-1.4.9-2.2,1.2-.4.1-.8.2-1.2.3-.4,0-.8,0-1.3,0-.9,0-1.7,0-2.6,0-3.4,0-6.7,0-10,0-13.1,0-25.4,0-36.5,0-22.3,0-40.4,0-52.9,0-6.2,0-11.1,0-14.4,0-1.6,0-2.9,0-3.7,0-.8,0-1.3,0-1.3,0,0,0,.4,0,1.3,0,.8,0,2.1,0,3.7,0,3.3,0,8.1,0,14.4,0,12.5,0,30.6,0,52.9,0,11.2,0,23.4,0,36.5,0,3.3,0,6.6,0,10,0,.8,0,1.7,0,2.6,0,.4,0,.9,0,1.3,0,.4,0,.9-.1,1.3-.3.8-.3,1.6-.7,2.3-1.2.7-.5,1.3-1.2,1.8-1.9.5-.7.9-1.5,1.1-2.4.3-.9.4-1.7.4-2.6,0-1.8,0-3.6,0-5.4,0-3.6,0-7.2,0-10.9,0-14.8,0-30.3,0-46.3,0-8,0-16.2,0-24.5,0-4.1,0-8.3,0-12.5,0-1,0-2.1-.4-3.2-.3-1-.8-2-1.5-2.8-.7-.8-1.6-1.5-2.6-2l-.4-.2c-.1,0-.3,0-.4-.1-.3,0-.5-.1-.8-.2-.5,0-1.1,0-1.6,0-34.1,0-66.5,0-96.1,0-7.4,0-14.6,0-21.6,0-.9,0-1.7,0-2.6,0-.9,0-1.7,0-2.6,0-1.7.2-3.4,1.1-4.5,2.4-1.2,1.3-1.9,2.9-2.3,4.5-.2.8-.2,1.7-.2,2.5,0,.8,0,1.7,0,2.5,0,13.1,0,25.4,0,36.5,0,22.3,0,40.4,0,52.9,0,1.6,0,3,0,4.4,0,1.4,0,2.7.2,3.9.4,2.4,1.7,4.2,2.9,5.2,1.3,1.1,2.5,1.5,3.3,1.6.4,0,.7,0,.9.1.2,0,.3,0,.3,0Z"/><path class="cls-12" d="M519.2,168.2c.2-.7.3-14.2.3-14.2l-2.6-50.2,22.2-7.3,3.5-2.5,21,.2,2.7,3.1,22.3,9.5-5.9,41.2-1,20.1"/><path class="cls-12" d="M516.9,103.7s-5.2.7-8.2,9.3c-3,8.6-10.2,39.7-10.6,41.9-.5,2.1,1.5,9,9.4,12,7.6,2.9,13.6,2,13.6,2v-15.8l-3.3-3.4,1.3-5.6-2.2-40.4Z"/><path class="cls-4" d="M502.8,150.6s.3-.1.8-.3c.5-.2,1.2-.5,2.2-.8.9-.3,2-.7,3.3-.9.6-.1,1.3-.2,2-.2.7,0,1.4,0,2.2.1,2.9.6,5.3,2.1,6.5,3.6.6.7.9,1.4,1.1,1.9.2.5.2.8.3.8,0,0,0,0,0-.2,0-.1,0-.3-.1-.6-.2-.5-.5-1.2-1.1-2-1.2-1.5-3.6-3.1-6.6-3.7-.7-.1-1.5-.2-2.2-.1-.7,0-1.4.1-2,.3-1.3.2-2.4.6-3.3.9-.9.3-1.6.7-2.1.9-.2.1-.4.2-.6.3-.1,0-.2.1-.2.1Z"/><path class="cls-4" d="M507.5,147.6s.6-.2,1.7-.4c1-.2,2.5-.3,4.1,0,1.6.4,2.9,1.1,3.7,1.8.8.6,1.2,1.1,1.3,1.1,0,0,0-.1-.3-.4-.2-.2-.5-.5-.9-.9-.8-.7-2.1-1.5-3.7-1.9-1.6-.4-3.2-.3-4.2,0-.5.1-.9.3-1.2.4-.3.1-.4.2-.4.2Z"/><path class="cls-4" d="M518.6,116.6c0,0,0,7.7.1,17.1.1,9.5.3,17.1.3,17.1,0,0,0-7.7-.1-17.1-.1-9.5-.3-17.1-.3-17.1Z"/><path class="cls-4" d="M518.2,151.5l12.5-.2c.9,0,1.6.4,2.1,1.1l8.5,17.4-.3,1.2h-14.5l-8.5-17.9.2-1.6Z"/><path class="cls-14" d="M518.3,153.8l.5,1,2.5,4.8s6.5-.6,7.6-.7c1-.1,1.6.9,1.6,1.5,0,.6-.5,1.3-.5,1.3,0,0,4-1.2,5.4-2.1,1.4-.9,2.1-.3,2.1-.3,1.2-1.2,2.8,0,2.9.3,0,.3-1.4,3.7-2,4.5-.5.8-3.6,3.5-3.8,3.9-.2.3-2.5.9-5.2,2.3-2.5,1.3-4.4-.2-4.6-.4,0,0-.1,0-.4,0-.6,0-2.3-1.5-2.7-1.5-.4,0-.8,0-1.6-.9-.8-.9-3-4.5-3.6-6.4-.5-1.5-.2-1.9,0-2-.2.1-1,.5-2.4.7-1.7.3-2.6-.9-2.7-3.1-.1-2.2,5.1-2.1,7.1-2.7Z"/><path class="cls-9" d="M519.2,163.8s.2,0,.4,0c.3,0,.7.1,1.2.1,1,0,2.5,0,4-.3,1.5-.3,2.9-.8,3.8-1.3.4-.2.8-.4,1-.6.2-.2.4-.2.4-.3,0,0-.5.3-1.5.7-.9.4-2.2.9-3.7,1.2-1.5.3-2.9.4-3.9.3-1,0-1.6-.1-1.6,0Z"/><path class="cls-9" d="M519.1,159.4s.7.3,1.5.3c.9,0,1.6-.1,1.6-.2,0,0-.7,0-1.5,0-.8,0-1.5-.2-1.5-.1Z"/><path class="cls-9" d="M516,159.2c0,0,1-.3,2.1-.6,1.2-.3,2.2-.4,2.2-.5,0,0-1,0-2.2.3-1.2.3-2.1.8-2.1.8Z"/><path class="cls-9" d="M516.6,155.1c0,0,.2.7.2,1.5,0,.4,0,.8-.1,1.1,0,.3-.3.3-.3.3,0,0,0,0,.1,0,0,0,.2-.1.3-.3.2-.3.2-.7.2-1.1,0-.9-.3-1.6-.4-1.5Z"/><path class="cls-9" d="M522.9,167.6s0,0,.2,0c.2,0,.3,0,.6,0,.5,0,1.2,0,2.1-.2.9-.1,2-.3,3.1-.6.6-.2,1.2-.4,1.7-.7.6-.3,1.1-.6,1.7-1,2.6-1.6,4.9-3,6.4-3.9h0s0,0,0,0c0-.7-.5-1.2-.8-1.4-.2-.1-.3-.2-.4-.2,0,0-.1,0-.1,0,0,0,.2,0,.5.3.3.2.7.7.7,1.4h0c-1.5.8-3.9,2.2-6.5,3.8-.6.3-1.1.7-1.7,1-.6.3-1.1.5-1.7.7-1.1.4-2.2.5-3.1.6-.9.1-1.6.2-2.1.2-.2,0-.4,0-.6,0-.1,0-.2,0-.2,0Z"/><path class="cls-9" d="M525.1,169.7s.2,0,.6,0c.4,0,1-.1,1.7-.3,1.4-.3,3.3-.7,5.3-1.5,1-.4,1.9-.9,2.6-1.5.7-.6,1.3-1.1,1.8-1.6.5-.5.8-.9,1.1-1.2.2-.3.4-.5.4-.5,0,0-.2.1-.4.4-.3.3-.6.7-1.1,1.2-.5.5-1.1,1.1-1.8,1.6-.7.5-1.6,1-2.6,1.4-2,.8-3.9,1.3-5.2,1.6-.7.2-1.2.3-1.6.4-.4,0-.6.1-.6.1Z"/><path class="cls-4" d="M517.1,106.1s0,.4.1,1.1c.1.7.2,1.6.4,2.5.1,1,.2,1.8.3,2.5,0,.7.1,1.1.2,1.1,0,0,0-.4,0-1.1,0-.7-.1-1.6-.2-2.6-.1-1-.3-1.9-.4-2.5-.1-.6-.3-1-.3-1Z"/><path class="cls-12" d="M586,168.2l-3.8-23.3,6.4-38.1s4.8,1.1,9.5,18c4.3,15.2,9.4,40.3,9.2,43.2"/><path class="cls-4" d="M584.2,124.9c-.1,0-.9,9.6-1.8,21.5-.9,11.9-1.5,21.5-1.3,21.5.1,0,.9-9.6,1.8-21.5.9-11.9,1.5-21.5,1.3-21.5Z"/><path class="cls-4" d="M552.9,40.4c-.9-1.6-2.8-2.5-4.6-2.1-2.1-1.6-5.4-1.5-7.3.3-1.6-.9-3.6-.9-5.2,0-1.6.9-2.7,2.7-2.7,4.5-1.8-.3-3.8.8-4.6,2.4-.8,1.7-.5,3.8.9,5.1-2,.7-3.2,3-2.8,5,.5,2,2.6,3.5,4.7,3.3l20.9-13.4c1.3-1.3,1.6-3.4.7-5Z"/><path class="cls-14" d="M530.6,59.4c.6-9.4,8.3-16.8,17.7-16.9h.9c10.1.4,15.4,9.2,14.7,19.3l-1,35.5c-2.3,5.4-6,9.8-12.9,10.9-2.8.5-5.7-.2-7.7-2.1-1.5-1.4-2.5-3.2-2.6-5.5v-7c0,0-9.8-1.3-10.1-11-.1-4.7.4-14.4.9-23.1Z"/><path class="cls-9" d="M539.6,93.6s6.2.3,12.7-3.9c0,0-2.9,7-12.6,6.3v-2.4Z"/><path class="cls-4" d="M533.5,69.1c0,.7.6,1.3,1.4,1.4.8,0,1.4-.5,1.4-1.3,0-.7-.6-1.3-1.4-1.4-.8,0-1.4.5-1.4,1.3Z"/><path class="cls-4" d="M532.8,64.1c.2.2,1.2-.6,2.7-.6,1.5,0,2.6.7,2.8.5,0,0-.1-.4-.6-.7-.5-.3-1.3-.7-2.2-.6-.9,0-1.7.4-2.1.7-.5.4-.6.7-.5.8Z"/><path class="cls-4" d="M546,69.5c0,.7.6,1.3,1.4,1.4.8,0,1.4-.5,1.4-1.3,0-.7-.6-1.3-1.4-1.4-.8,0-1.4.5-1.4,1.3Z"/><path class="cls-4" d="M547.4,64.2c.2.2,1.2-.6,2.7-.6,1.5,0,2.6.7,2.8.5,0,0-.1-.4-.6-.7-.5-.3-1.3-.7-2.2-.6-.9,0-1.7.4-2.1.7-.5.4-.6.7-.5.8Z"/><path class="cls-4" d="M542.2,75.3c0,0-.9-.2-2.4-.4-.4,0-.7-.1-.8-.4,0-.3,0-.7.2-1.1.3-.9.7-1.9,1.1-2.9,1.5-4.2,2.6-7.6,2.4-7.6-.2,0-1.5,3.3-3,7.4-.4,1-.7,2-1,2.9-.1.4-.4.9-.2,1.5.1.3.4.5.6.5.2,0,.5,0,.6,0,1.5,0,2.5,0,2.5,0Z"/><path class="cls-4" d="M547.7,59.2c0,.4,1.4.4,3,.7,1.5.3,2.8,1,3,.6.1-.2,0-.6-.5-1-.5-.4-1.2-.9-2.2-1.1-.9-.2-1.8-.1-2.4,0-.6.2-.9.5-.9.7Z"/><path class="cls-4" d="M532.8,60c.3.3,1.4-.1,2.8-.3,1.3-.2,2.5,0,2.7-.3.1-.2-.1-.5-.6-.8-.5-.3-1.4-.5-2.3-.4-.9.1-1.7.5-2.1.9-.4.4-.6.7-.4.9Z"/><path class="cls-4" d="M531.4,55s2.5-6.1,5.4-7.6c3.5-1.8,5.1,2.1,8.5,1.1,3.4-1,6.7-2.7,10.2-.2,3.8,2.8,2.1,4.8,2.4,9.1,1.3,17.4,4.5,22.3,5.3,14.1,0-.9,2.6-1.7,2.9-5.5.4-4.9.5-10.9-.7-14.4-1-2.9-2.7-4.9-5.8-7.1-4.8-3.5-11.4-3.4-15.8-2.9-4.4.5-12.9,5.8-12.4,13.4Z"/><path class="cls-14" d="M562.6,71.3c0-1.5,1.3-2.7,2.8-2.6,1.8.1,3.8,1.1,3.8,4.9,0,6.6-6.7,5.2-6.8,5,0-.1,0-4.5.2-7.3Z"/><path class="cls-9" d="M563.9,76s.1,0,.3.2c.2,0,.5.2.9,0,.7-.2,1.3-1.4,1.4-2.5,0-.6,0-1.2-.3-1.7-.2-.5-.5-.8-.9-.9-.4,0-.6.1-.7.3,0,.2,0,.3,0,.3,0,0-.1-.1,0-.4,0-.1.1-.3.3-.4.2-.1.4-.2.6-.2.5,0,1,.5,1.2,1,.3.5.4,1.2.4,1.9,0,1.3-.8,2.6-1.7,2.8-.5.1-.9,0-1.1-.2-.2-.2-.2-.3-.2-.3Z"/><path class="cls-4" d="M566.3,50.1c.8-1.5.6-3.4-.4-4.7-1-1.3-2.9-1.9-4.5-1.4-.7-1.7-2.4-3.1-4.2-3.5-1.9-.4-3.9.2-5.3,1.5-1.1-2-3.5-3.2-5.8-2.9-2.3.3-4.3,2-4.9,4.2-1.8-.7-4,0-5,1.7-.2.4-.4.8-.3,1.2.2.8,1.3,1,2.1.8.8-.1,1.7-.4,2.4,0,.7.5.9,1.5,1,2.3.1.9.6,1.9,1.5,1.9.5,0,.9-.3,1.4-.3.9-.1,1.7.4,2.3,1.1.6.7,1.1,1.4,1.8,1.9.8.5,1.9.5,2.4-.3.5,1.9,2.5,3.2,4.5,3,.6,0,1.2-.2,1.6.2.3.4.2.9.3,1.4.2,1,1.4,1.6,2.4,1.5,1-.1,1.9-.7,2.7-1.3.7.8,2,1,3,.4,1-.6,1.4-2.1.9-3.1,1.3.3,2.6-1.1,2.6-2.4,0-1.4-1.1-2.5-2.3-3.2Z"/><path class="cls-3" d="M540.7,45.3s0,0,0,.1c0,0,0,.2,0,.4,0,.3.2.8.5,1.3.3.5.8,1.1,1.5,1.5.7.5,1.7.8,2.7.7h-.1c-.2.4-.1,1.1.2,1.7.3.6.7,1.1,1.2,1.6.2.2.4.5.8.7.3.2.7.3,1.1.4.8,0,1.6-.2,2.1-.8h-.2c.2,1.2,1,2.6,2.2,3.3.6.4,1.4.7,2.2.7.8,0,1.5-.3,2.1-.5h-.2c.4.7.9,1.4,1.6,1.9.7.5,1.5.8,2.3.6,1.6-.4,2.6-1.7,2.8-2.9h-.1c.8.5,1.6.5,2.3.4.7-.1,1.2-.4,1.6-.7.4-.3.6-.6.7-.8.1-.2.2-.3.2-.3,0,0-.2.5-1,1.1-.4.3-.9.6-1.5.7-.6.1-1.4,0-2.2-.3h-.1c0,0,0,0,0,0-.2,1.1-1.2,2.4-2.6,2.7-.7.2-1.5,0-2.1-.6-.6-.5-1.2-1.1-1.5-1.9h0c0-.1-.1,0-.1,0-.7.2-1.3.5-2,.5-.7,0-1.4-.2-2-.6-1.1-.7-1.9-2-2.1-3.2v-.3s-.2.2-.2.2c-.4.5-1.2.8-1.9.7-.3,0-.7-.1-.9-.3-.3-.2-.5-.5-.7-.7-.5-.5-.9-1-1.1-1.5-.3-.5-.3-1.1-.2-1.7v-.2c0,0-.1,0-.1,0-1,0-1.9-.2-2.6-.7-.7-.4-1.2-1-1.5-1.5-.6-1-.6-1.7-.7-1.7Z"/><path class="cls-9" d="M546.6,77.2c-1.8.4-3.6,1-5.2,1.7h0c.2,1.3.6,2.6,1.7,3.3.8.5,1.9.4,2.7,0,.8-.5,1.3-1.2,1.4-2.2.1-.9-.2-2-.5-2.8Z"/><path class="cls-4" d="M544.2,82.5c0,0,.8.2,1.7-.5.4-.3.9-.8,1-1.5.2-.7.1-1.5-.1-2.3,0-.2-.1-.4-.2-.5,0,0,0,0,0,0h-.3c-.4.2-.8.3-1.1.4-.7.2-1.3.4-1.9.6-1.1.3-1.8.5-1.8.4,0,0,.6-.3,1.7-.7.6-.2,1.2-.4,1.9-.7.4-.1.7-.3,1.1-.4.1,0,.2,0,.3-.1.1,0,.5,0,.5.2.2.3.2.4.3.7.3.9.3,1.8.1,2.6-.2.8-.7,1.4-1.3,1.7-.5.3-1,.4-1.4.4-.3,0-.5-.1-.5-.2Z"/><path class="cls-4" d="M151.2,141.7c-2.1-1.3-2.6-4.4-1.5-6.6,1.1-2.2,3.5-3.5,6-3.9,3.5-.6,7.3.7,9.8,3.2,1.3,1.4,2.4,3.2,4.3,3.8,1.6.6,3.4,0,5.1.3,2.3.3,4.2,1.9,5.3,3.9,1.2,2,1.6,4.2,1.9,6.5.2,2.1.4,4.4,1.8,5.9,1.4,1.5,3.6,1.8,5.4,2.8,3.3,2,4.3,6.9,2.2,10-.7,1-1.7,1.9-1.8,3.2,0,1.1.6,2.1,1,3.2.9,2.7-1.4,6-4.2,6.2-1.4,0-3-.5-4.3.2-1.3.6-1.8,2.2-2.6,3.4-1.6,2.3-5,3.2-7.6,2-1.1-.5-2.1-1.4-3.3-1.3-1.2,0-2.1,1.1-3.3,1.3-1.5.3-3-.8-3.9-2.1-.9-1.3-1.5-2.7-2.7-3.8-1.5-1.3-3.6-1.7-5.6-2.3-4.2-1.5-7.8-4.8-9.4-9-1.7-4.2-1.5-9,.6-13"/><path class="cls-3" d="M173.3,170.1c.4-.5,1.1-.9,1.7-1.1h-.1c.1,0,.2,0,.4,0,.5-.1.9,0,1.3.2h0c.7.3,1.4.8,1.7,1.5.6,1.2.4,2.7-.4,3.8-.7.9-1.9,1.5-3.1,1.3-1-.3-1.8-1.2-2.1-2.2-.3-1.1-.1-2.4.7-3.3Z"/><path class="cls-14" d="M145.7,188.7l-2.1-38.3c0-1.8,1.2-3.3,3-3.6l18.2-5.1c5.8-.8,10,6.3,10.5,12.2.6,6.5,1.1,14.5.4,19.4-1.3,9.9-9.4,11.3-9.4,11.3,0,0,0,2.5,0,6l-3.7,12.1-16.9-14.1Z"/><path class="cls-4" d="M172.7,162.8c0,.7-.5,1.2-1.2,1.3-.7,0-1.3-.4-1.3-1.1,0-.7.5-1.2,1.2-1.3.7,0,1.3.4,1.3,1.1Z"/><path class="cls-4" d="M173.6,158.1c-.2.2-1.1-.5-2.5-.5-1.4,0-2.3.7-2.5.6,0,0,0-.4.5-.7.4-.3,1.1-.7,2-.7.8,0,1.6.3,2,.6.4.3.6.6.5.7Z"/><path class="cls-4" d="M160.3,162.9c0,.7-.5,1.2-1.2,1.3-.7,0-1.3-.4-1.3-1.1,0-.7.5-1.2,1.2-1.3.7,0,1.3.4,1.3,1.1Z"/><path class="cls-4" d="M160.3,158.8c-.2.2-1.1-.5-2.5-.5-1.4,0-2.3.7-2.5.6,0,0,0-.4.5-.7.4-.3,1.1-.7,2-.7.8,0,1.6.3,2,.6.4.3.6.6.5.7Z"/><path class="cls-4" d="M165.5,168.7c0,0,.8-.2,2.2-.5.3,0,.7-.1.7-.4,0-.3,0-.6-.3-1-.3-.8-.7-1.7-1.1-2.6-1.5-3.7-2.6-6.8-2.5-6.8.1,0,1.5,2.9,3,6.6.4.9.7,1.8,1.1,2.6.1.4.4.8.2,1.4,0,.3-.3.5-.6.5-.2,0-.4,0-.6,0-1.4.1-2.2.1-2.2,0Z"/><path class="cls-9" d="M166.3,184.7s-6,.6-12.6-3.2c0,0,2.8,7.3,12.6,6.1v-2.9Z"/><path class="cls-4" d="M160.8,153.2c-.1.4-1.5.2-3.1.5-1.6.2-2.9.7-3.1.4,0-.2.1-.5.6-.9.5-.4,1.3-.7,2.3-.9,1-.1,1.8,0,2.4.2.6.2.9.5.8.7Z"/><path class="cls-4" d="M173,153.5c-.2.3-1.2,0-2.3,0-1.1,0-2.1.3-2.3,0-.1-.2,0-.5.4-.8.4-.3,1.1-.6,1.8-.6.8,0,1.4.3,1.8.6.4.3.5.6.4.8Z"/><path class="cls-4" d="M181.8,151.9c-.5-1.5-1.3-2.9-2.6-3.7-.7-.5-1.5-.7-2.2-1.3-1.4-1.1-1.7-3.1-2.6-4.7-1.1-2.1-3.3-3.5-5.6-3.7-1.9-.2-3.9.4-5.8,0-1.4-.4-2.6-1.3-4-1.5-2.8-.5-5.3,1.5-7.3,3.4,0,2,1.6,3.3,3.1,4.6,1.5,1.3,3.6,1.8,5.6,1.5,1.5-.3,3.2-1,4.5-.2,1.4.8,1.4,2.9,2.7,4,1.7,1.5,4.5,0,6.7.7,1.7.5,2.8,2.1,3.9,3.5,1.1,1.4,2.8,2.7,4.5,2.2-.1-1.5-.2-3.1-.7-4.6Z"/><path class="cls-4" d="M161.1,143.5c-1.2-.4-3.8-1.2-4.4-2.2-1.4-2.3-4-3.9-6.6-3.8-2.6.1-5.1,2.2-5.6,4.9-3.1,0-6.2,2-7.7,5-.2.4-.4.8-.5,1.2-1,1.7-1.2,3.9-.5,5.7.4,1.1,1.2,2.4.6,3.4-.6,1.1-2.1,1.1-3.2,1.5-2,.7-3.3,3-2.9,5.1.2.7.5,1.5.4,2.2-.2.8-.8,1.3-1.3,1.9-1.3,1.5-1.7,3.7-1,5.6.7,1.9,2.4,3.3,4.3,3.6.9.2,1.8.1,2.6.6.9.5,1.3,1.6,1.9,2.4,1.2,1.6,3.4,2.3,5.3,1.7.4-.1.7-.3,1.1-.5.6.8,1.5,1.4,3.1,1.4l-.4-20.7c.2.4.6.8,1.3,1,3.3.8,3.8-6.1,3.1-7.9,1.2-1.1,2.4-2.1,3.3-3.5.9-1.4,1.7-5,1.5-6.7,1.2,0,6.3-1.6,5.8-1.8Z"/><path class="cls-14" d="M147.1,164.1c-.1-2.1-2.7-2.6-4.5-1.5-1,.6-1.8,1.7-1.7,4,.2,6,6.2,4.5,6.2,4.3,0-.1.1-4.3,0-6.8Z"/><path class="cls-9" d="M145.2,168.7s-.1,0-.3.2c-.2,0-.5.2-.8,0-.6-.2-1.2-1.2-1.3-2.3,0-.5,0-1.1.2-1.5.2-.4.4-.8.7-.8.3,0,.5,0,.6.3,0,.2,0,.3,0,.3,0,0,.1-.1,0-.3,0-.1-.1-.3-.2-.4-.1-.1-.4-.2-.6-.1-.5,0-.9.5-1,1-.2.5-.3,1.1-.3,1.7,0,1.2.7,2.3,1.6,2.5.4,0,.8,0,.9-.2.2-.2.2-.3.2-.3Z"/><path class="cls-6" d="M152.9,141.9c0,0-.6.2-1.2,1-.6.8-.8,2.4-.4,4.1v.2s-.1,0-.1,0c-1.5.4-3.1,1.5-3.8,3.4-.2.5-.3,1-.3,1.5,0,.5,0,1,.2,1.6,0,.5.2,1.1.2,1.7,0,.6-.1,1.3-.5,1.8-.7,1.1-1.9,1.7-3,2.2-1.1.5-2,1.1-2.8,1.8-1.5,1.5-2.2,3.4-2.2,5,0,1.6.4,2.9.8,3.7.4.8.7,1.2.7,1.2,0,0,0,0-.3-.3-.1-.2-.4-.5-.6-.9-.4-.8-1-2.1-.9-3.8,0-1.7.7-3.7,2.2-5.3.8-.8,1.8-1.4,2.8-1.9,1-.5,2.1-1.1,2.8-2.1.7-.9.4-2.1.2-3.1,0-.5-.2-1.1-.2-1.7,0-.6.2-1.1.3-1.6.8-2,2.6-3.2,4.1-3.5v.2c-.5-1.8-.2-3.4.5-4.3.3-.4.7-.6.9-.8.3-.1.4-.1.4-.1Z"/><path class="cls-3" d="M142.9,171c.4-.5,1.1-.9,1.7-1.1h-.1c.1,0,.2,0,.4,0,.5-.1.9,0,1.3.2h0c.7.3,1.4.8,1.7,1.5.6,1.2.4,2.7-.4,3.8-.7.9-1.9,1.5-3.1,1.3-1-.3-1.8-1.2-2.1-2.2-.3-1.1-.1-2.4.7-3.3Z"/><path class="cls-9" d="M159.9,170.1c1.4.3,3.3.9,4.6,1.7.1.7-1,2.2-1.7,2.5-.7.3-1.6.2-2.2-.3-.6-.4-.9-1.2-1.1-1.9-.1-.7.2-1.4.4-2.1Z"/><path class="cls-4" d="M162.6,174.4c0,0-.6,0-1.5-.3-.4-.2-.9-.5-1.2-1.1-.3-.5-.4-1.2-.2-1.9,0-.3.2-.6.4-.9h-.2c2.4.9,4.3,1.4,4.3,1.3,0,0-1.8-.8-4.2-1.7h-.1s0,0,0,0c-.2.3-.4.6-.5,1-.2.8,0,1.6.3,2.2.4.6.9,1,1.4,1.2,1,.4,1.7,0,1.6,0Z"/><path class="cls-4" d="M158.1,435.4v1s16.3,6.7,16.4,9.8l-32.5-.5.6-10.8c4.8,2.3,9.8,2.6,15.4.5Z"/><path class="cls-3" d="M142,445.7v-2.6c.1,0,31.2,1.4,31.2,1.4,0,0,1.4.7,1.3,1.7l-32.5-.5Z"/><path class="cls-6" d="M158.2,436.5c0,.2-.8.2-1.6.7-.8.5-1.2,1.2-1.4,1.1-.1,0,.1-1,1.1-1.6,1-.6,1.9-.4,1.9-.2Z"/><path class="cls-6" d="M161.6,437.9c0,.2-.7.4-1.2,1.1-.6.6-.7,1.4-.9,1.4-.1,0-.2-.9.5-1.7.7-.8,1.6-.9,1.6-.7Z"/><path class="cls-6" d="M163.4,442c-.1,0-.4-.8,0-1.6.4-.9,1.2-1.2,1.2-1.1,0,.1-.4.6-.7,1.3-.4.7-.4,1.4-.6,1.4Z"/><path class="cls-4" d="M134.8,425.6l13.8,3.9-3.5,7.8,3.6,19.8c.2,1.1-.4,2.3-1.6,2.6-.9.2-1.8,0-2.3-.7-3.1-3.4-14.2-16.1-14-17.6l.4-4.1c0-.9.9-2.9.9-3.1l2.5-8.6Z"/><path class="cls-3" d="M146.8,459.8l-15.7-19.8v.9c-.3,1,.1,1.4.6,2.1,1.2,2,4.8,6.5,13.2,16.1.5.6,1.2.8,2,.7h0Z"/><path class="cls-6" d="M142.7,450.1c.1,0,.7-1,2.1-1.5,1.3-.5,2.5-.1,2.6-.2,0,0-.2-.2-.7-.4-.5-.1-1.2-.1-2,.2-.7.3-1.3.8-1.6,1.2-.3.4-.4.7-.3.7Z"/><path class="cls-6" d="M144,453c0,.1.9-.5,2-.7,1.2-.2,2.1,0,2.2,0,0-.1-.9-.7-2.3-.4-1.3.2-2,1.1-1.9,1.2Z"/><path class="cls-6" d="M140.1,446.1c0,.1,1.3-.9,3-1.3,1.8-.5,3.3-.3,3.3-.4,0-.1-1.6-.6-3.4,0-1.9.5-3,1.7-2.9,1.8Z"/><path class="cls-3" d="M145.9,441.5c.3,1.9.7,3.6.9,4.8.3,1.2.4,2,.5,2,0,0,0-.8-.2-2-.2-1.2-.5-3-.8-4.8-.3-1.6-.6-3.1-.8-4.2h0c0-1.6,0-2.6-.2-2.6s-.1,1-.2,2.7h0s0,0,0,0"/><path class="cls-4" d="M129.8,307c-1.1-5.3-1.3-10.2-.6-14.7,1.8-11.9,3-16.3,9-29.2l1.5.4,45.5-.4,1.8,2.7c3.9,10.5,6.6,16.8,7.7,24.5,1.3,8.9-1,21.7-5.9,34.7-10.7,28-16.6,50.5-17,56.5-.4,6-1.1,12.3-6.7,31.4-4.1,14-7.1,22.3-7.1,22.3-4.2,2.4-8.8,3-12.9.7l-12.5-4.8s3.8-32.9,8.3-41.7c3.2-6.3,8.5-9.3,6-17.5-2.5-8.2-13.9-49-17.2-65.1Z"/><path class="cls-3" d="M176.1,280.3s0,0-.2.2c-.1.2-.3.4-.5.7-.4.6-1,1.5-1.8,2.6-1.6,2.3-3.9,5.6-6.8,9.8h0s0,0,0,0c.3,3.7.5,8,.7,12.7.2,4.8.5,10,.7,15.6.3,5.6.6,11.6.9,17.9.4,6.3.7,12.9,1.3,19.7.7,5.6,1.2,11.2.8,16.5-.1,1.3-.3,2.6-.5,3.9-.3,1.3-.5,2.6-.9,3.8-.9,2.4-1.9,4.7-2.9,7-4,9-7.7,17-10.8,23.8-3.1,6.7-5.6,12.2-7.4,16-.9,1.9-1.5,3.3-2,4.4-.2.5-.4.9-.5,1.1-.1.3-.2.4-.2.4,0,0,0-.1.2-.4.1-.3.3-.6.5-1.1.5-1,1.2-2.5,2.1-4.3,1.8-3.8,4.3-9.2,7.5-16,3.1-6.8,6.9-14.8,10.9-23.8,1-2.3,2-4.5,2.9-7,.5-1.2.7-2.5,1-3.8.3-1.3.4-2.6.5-4,.5-5.4,0-10.9-.7-16.6-.6-6.7-1-13.3-1.3-19.6-.3-6.3-.7-12.3-1-17.9-.3-5.6-.6-10.9-.8-15.6-.2-4.8-.4-9-.8-12.7h0c2.9-4.2,5.2-7.5,6.7-9.8.8-1.1,1.4-2,1.8-2.6.2-.3.3-.5.4-.7,0-.2.1-.2.1-.2Z"/><path class="cls-14" d="M236.9,224s6.8-3,8.8-4.3c2-1.3,3-1.6,5.3-2,2.2-.4,8.1-1,9.6,0,1.4,1,7.9,3.7,7.9,3.7l-8.5,4.6s-1.4,5.8-3.1,6.3c-1.7.5-1.4.3-3.2,0s-7.8-3.2-7.9-3.1c-.2.1-6.3,3.4-6.3,3.4l-2.5-8.7Z"/><path class="cls-4" d="M262.8,223.2h20.3l1-.7c.2-.1.2-.3,0-.4l-1-.6h-20.3v1.7Z"/><path class="cls-14" d="M273,222s-1-1.2-2.9,0c-1.9,1.1-3.2,2.1-3.2,2.1-.2,0-1.3-.4-1.3-.4l-2.7,1.3-.3,1.6s3.4,1.2,4.5.6,5.1-3.6,5.5-4.2c.4-.6.3-.9.3-.9Z"/><path class="cls-14" d="M255.8,228.6l1.2-.8-.4-1.7s-2.6-.4-2.9-1.8c-.3-1.4,0-1.4,0-1.4l3.4.6-1.6-1.3s-2.9-.4-2.6-2l.5-.8s2.6.5,3.7,1c1.1.5,4.2,2.6,4.2,2.6h0l-2.6-2.4s-1.2-.4-1.9-1.1c-.4-.4-.3-1.2.2-1.5h0c.2-.1.4-.2.6-.2.6,0,1.9.2,2.7.6,1.1.5,4.4,2.9,4.8,4.2.5,1.2.4,1.7-.4,2.5-.8.8-2.7,1.8-2.7,1.8,0,0-.7,1.3-1.6,1.8,0,0-.5,2.4-3.8,3.8"/><path class="cls-9" d="M256.8,232.4s.1,0,.4-.1c.2,0,.6-.3,1-.5.4-.2.9-.6,1.4-1.1.5-.5,1-1.2,1.2-2h0c.7-.3,1.2-.9,1.7-1.7h0c.6-.3,1.1-.6,1.7-1,.6-.4,1.2-.8,1.6-1.5.2-.4.2-.8,0-1.2-.1-.4-.2-.8-.5-1.1-.5-.7-1.1-1.2-1.7-1.8-.6-.5-1.3-1.1-2.1-1.6-.4-.2-.8-.5-1.2-.6-.4-.2-.9-.3-1.4-.3-.2,0-.5,0-.7,0-.2,0-.5,0-.8,0-.6.1-1,.7-.9,1.2,0,.3.1.6.3.8.2.2.4.3.6.5.4.3.9.5,1.3.7h0c.3.3.7.6,1,.9.5.5,1,1,1.5,1.4l.3-.3c-1.3-.9-2.5-1.7-3.8-2.4-.7-.4-1.4-.5-2.1-.7-.7-.2-1.4-.3-2-.5h-.1s0,0,0,0c-.2.3-.4.5-.5.8h0s0,0,0,0c0,.4,0,.7.3,1,.2.3.5.5.8.6.6.3,1.2.5,1.8.5h0c.5.4,1.1.8,1.6,1.3v-.3c-.8-.1-1.6-.3-2.4-.4-.2,0-.4,0-.6,0h-.1s0,0,0,0h0s0,0,0,0c0,0,0,0,0,0-.2.2-.2.3-.2.4,0,.4,0,.8.1,1.1,0,.4.3.7.6.9.3.2.6.4.8.5.6.2,1.1.4,1.6.5h0c.2.6.3,1.2.5,1.7h0c-.4.2-.7.4-.9.6-.2.1-.3.2-.3.2,0,0,.1,0,.3-.2.2-.1.6-.3,1-.6h0s0,0,0,0c-.1-.5-.3-1-.4-1.7h0c0,0,0,0,0,0-.5,0-1-.2-1.6-.5-.5-.3-1.1-.6-1.2-1.3,0-.3-.1-.7-.1-1.1,0,0,0,0,0-.1,0,0,0,0,0-.1h0s0,0,0,0c0,0,0,.1,0,.1h0s0,0,0,0h0s0,0,0,0h.1c.2,0,.4,0,.6.1.8.1,1.6.3,2.5.4h.6c0,.1-.5-.3-.5-.3-.5-.4-1-.9-1.6-1.3h0s0,0,0,0c-.5,0-1.1-.2-1.6-.5-.5-.3-.9-.7-.8-1.3h0c.2-.2.4-.4.6-.7h-.2c.7.2,1.3.4,2,.5.7.2,1.4.4,2,.7,1.3.7,2.5,1.5,3.8,2.4l.3-.3c-.5-.5-1-1-1.5-1.4-.4-.3-.7-.7-1-1h0s0,0,0,0c-.4-.2-.9-.4-1.2-.6-.2-.1-.4-.3-.5-.4-.1-.1-.2-.3-.2-.5,0-.4.3-.8.6-.8.2,0,.4,0,.6,0,.2,0,.5,0,.7,0,.4,0,.9.2,1.3.3.4.1.8.4,1.1.6.7.5,1.4,1,2.1,1.5.6.5,1.2,1.1,1.7,1.7.2.3.3.7.4,1,0,.4.1.7,0,1-.3.6-.9,1-1.5,1.4-.6.4-1.1.7-1.6,1h0s0,0,0,0c-.4.7-.9,1.4-1.5,1.7h0s0,0,0,0c-.2.8-.7,1.5-1.1,2-.5.5-.9.9-1.3,1.1-.8.5-1.3.7-1.3.7Z"/><path class="cls-9" d="M254.7,228.7s-.2-.6-.7-1.3c-.5-.8-1.3-1.8-2.4-2.7-1.1-.9-2.2-1.6-3-1.9-.8-.4-1.4-.5-1.4-.4,0,.1,2.1.9,4.2,2.7,2.1,1.8,3.2,3.8,3.3,3.7Z"/><path class="cls-9" d="M256.9,223.4c0,0,.4.1,1,.4.6.3,1.2.8,1.7,1.6.4.8.7,1.7.8,2.3.2.6.3,1,.4,1,0,0,0-.4,0-1-.1-.6-.3-1.5-.8-2.4-.5-.9-1.3-1.5-1.9-1.7-.6-.2-1.1-.1-1.1-.1Z"/><path class="cls-9" d="M261.2,222.9c0,0,.6.7.9,1.8.3,1.1.2,2,.3,2,0,0,.4-.9,0-2.1-.2-.6-.5-1.1-.7-1.3-.3-.3-.5-.4-.5-.3Z"/><path class="cls-5" d="M166.5,186.5l3.8,5,12,2.6s8.9,18.8,8.4,27.5c-.4,8.7-1.3,13-1.3,13v9.9c0,0,3.8,8.2,2.2,11.8-1.7,3.6-6.3,6.9-6.3,6.9l-43.7.5s-3.1,1.8-4.7-2.9c-.7-2,2-8,.9-15.8-1.4-10.4-6.6-23-6.6-23l-1.9-22.8,13.8-6.7,2.5-6.6,16.5,4.2,4.5-3.7Z"/><path class="cls-5" d="M239.9,221.5c-.5,0-7.3,2.4-7.3,2.4,0,0-2.8-.9-5.3-.2-2.5.7-15.4,3.6-15.4,3.6l-16.6-21.4s-6.7-11.2-13-11.9l5,31.6s13.5,17.8,20,20c6.5,2.2,29.3-6.2,29.9-9.4l7.6-4.8-4.9-10Z"/><path class="cls-4" d="M184.1,200.7s0,.1.1.3c.1.3.3.6.4,1,.2.4.4.9.7,1.5.3.6.6,1.3.9,2,.6,1.5,1.2,3.3,1.8,5.4.6,2.1,1.1,4.4,1.4,6.9.3,2.5.5,4.8.5,7,0,2.2,0,4.1-.3,5.7,0,.8-.2,1.5-.3,2.2,0,.6-.2,1.2-.3,1.6,0,.4-.1.8-.2,1,0,.2,0,.4,0,.4,0,0,0-.1.1-.4,0-.3.1-.6.2-1,.1-.4.2-1,.3-1.6.1-.6.2-1.4.3-2.2.2-1.6.3-3.6.4-5.8,0-2.2-.1-4.6-.5-7-.4-2.5-.9-4.8-1.5-6.9-.6-2.1-1.3-3.9-1.9-5.4-.3-.8-.6-1.4-.9-2-.3-.6-.5-1.1-.8-1.5-.2-.4-.4-.7-.5-.9-.1-.2-.2-.3-.2-.3Z"/><path class="cls-4" d="M143.1,192.6s.1,0,.3.2c.2,0,.5.2.9.4.8.4,2,.8,3.6,1.4,3,1.1,7.3,2.4,12.3,3.6h.2s0-.2,0-.2c0-.4.2-.8.3-1.2.6-2.1,1.3-4.2,1.7-6.1h-.3c1.7,2.2,3.3,4,4.7,5.5h.1c0,.1.1,0,.1,0,.6-.7,1-1.4,1.4-1.9.4-.6.7-1.1,1-1.5.5-.8.9-1.2.9-1.2,0,0-.1,0-.3.3-.2.2-.4.5-.7.9-.3.4-.6.9-1.1,1.5-.4.6-.9,1.2-1.5,1.9h.2c-1.3-1.5-2.9-3.3-4.6-5.5l-.2-.3v.4c-.5,1.9-1.3,3.9-1.8,6.1-.1.4-.2.8-.3,1.2l.2-.2c-4.9-1.1-9.2-2.4-12.3-3.4-1.5-.5-2.8-1-3.6-1.3-.8-.3-1.3-.5-1.3-.5Z"/><path class="cls-4" d="M167.2,265.4s0,0,.2,0c.1,0,.3-.2.5-.3.4-.3,1-.8,1.5-1.6.5-.8,1-1.9,1.3-3.3.3-1.4.4-2.9.4-4.7,0-6.9.1-16.5-.6-27-.4-5.3-1-10.3-1.8-14.8-.8-4.5-1.8-8.5-2.7-11.8-2-6.6-3.9-10.5-3.9-10.5,0,0,0,0,0,.2,0,.1.1.3.2.5.2.5.5,1.2.8,2.1.4.9.7,2,1.2,3.3.5,1.3.9,2.8,1.4,4.4.9,3.3,1.9,7.3,2.7,11.8.8,4.5,1.3,9.5,1.7,14.8.7,10.5.7,20.1.8,27,0,1.7,0,3.3-.4,4.6-.2,1.3-.7,2.4-1.2,3.3-1,1.6-2.1,2-2.1,2.1Z"/><path class="cls-4" d="M154.9,250.6s.4,0,1.1-.1c.7,0,1.8-.3,3.1-.5,2.6-.5,6.1-1.4,9.9-2.7,3.8-1.3,7.1-2.8,9.4-4.1,1.2-.6,2.1-1.1,2.7-1.5.6-.4,1-.6,1-.6,0,0-.4.1-1,.5-.6.3-1.6.8-2.8,1.4-2.3,1.1-5.6,2.6-9.4,3.9-3.8,1.3-7.2,2.2-9.8,2.8-1.3.3-2.3.5-3,.6-.7.1-1.1.2-1.1.3Z"/><g class="cls-8"><path d="M188,209.9c2.4,2.6,4.1,5.9,4.4,9.4.3,3.5-.5,7.1-2.3,10.2h0c.8-6.9.2-13.2-2-19.6Z"/></g><path class="cls-14" d="M152.5,244.4s-6.6,0-7.2.6c-.5.5-4.5,4.2-4.5,4.2,0,0-.9,2.1-1.5,3,0,0-1.2,1.9-2.2,2.3-1.1.4-1.8.3-1.8.3l-1.6,8.5s2.6,1.9,3.9,1.5c1.3-.4,7.9-5.6,7.9-5.6l1.7-.9s7-.9,7-3.1v-.6c0,0-7.1.5-7.1.5l-2.5.8,4.2-2.4s6.4-1.4,7-1.7c.6-.3,1.1-1.3.8-1.8h-1.4c0,0,1.3-1.2,1.1-2.1h-6.3s3.4-2.4,2.5-3.6Z"/><path class="cls-9" d="M155.9,250s-.2,0-.6,0c-.4,0-.9,0-1.6,0-1.3,0-3.1,0-5.1.2-.3,0-.5,0-.7,0-.2,0-.4.1-.6.2-.4.2-.8.5-1.1.7-.7.5-1.3,1-1.9,1.4-.5.4-.9.8-1.2,1-.3.3-.4.4-.4.4,0,0,0-.2.3-.5.2-.3.6-.7,1.1-1.1.5-.4,1.1-.9,1.8-1.4.4-.3.7-.5,1.1-.8.2-.1.5-.2.7-.3.3,0,.5,0,.8,0,2-.1,3.8-.1,5.2,0,.7,0,1.2,0,1.6,0,.4,0,.6,0,.6,0Z"/><path class="cls-9" d="M150.2,248.3s-.5,0-1.4-.1c-.8,0-2,0-3.2.6-1.2.5-2.1,1.3-2.6,1.9-.6.6-.8,1.1-.8,1.1,0,0,.2-.5.7-1.2.5-.7,1.4-1.5,2.6-2.1,1.2-.5,2.5-.6,3.3-.6.9,0,1.4.3,1.4.3Z"/><path class="cls-5" d="M107.1,250.2s-3.3-4.1-1.8-10.3c1.2-5,14.6-28.7,20.8-37.6,2.2-3.2,6.5-4.6,6.5-4.6,0,0,8.6,6.7,9.4,16.3l-7.2,9.6-11,19.1-16.7,7.6Z"/><path class="cls-5" d="M133.2,253.2l-10.5-13.2s-15.3,9.9-15.6,10.2c0,0,12.7,10.8,26.6,14.1l1.9-9.7-2.4-1.4Z"/><path class="cls-4" d="M136.5,219.1c0,0,0-1.1,0-2.9,0-1.8.2-4.2-.4-6.9-.6-2.6-2-4.7-3.3-5.9-1.3-1.2-2.4-1.5-2.3-1.6,0,0,.3,0,.8.2.5.2,1.1.5,1.8,1.1,1.4,1.1,2.9,3.3,3.5,6,.6,2.7.5,5.2.3,7-.2,1.8-.4,2.9-.4,2.9Z"/><path class="cls-4" d="M109.5,242.2s.6-.7,1.9-1.5c1.3-.7,3.3-1.4,5.5-1.4,1.1,0,2.2,0,3.2,0,1,.1,1.8.4,2.5.8.7.4,1.1.8,1.4,1.1.3.3.4.5.4.5,0,0-.6-.7-1.9-1.3-.6-.3-1.5-.5-2.4-.6-.9,0-2,0-3.1,0-2.2,0-4.1.6-5.4,1.2-1.3.6-2,1.2-2,1.1Z"/></svg>