<?xml version="1.0" encoding="UTF-8"?><svg id="Layer_1" xmlns="http://www.w3.org/2000/svg" viewBox="0 0 850 470"><defs><style>.cls-1{fill:#ebebeb;}.cls-2,.cls-3,.cls-4,.cls-5,.cls-6,.cls-7,.cls-8,.cls-9,.cls-10,.cls-11,.cls-12,.cls-13{font-family:MyriadPro-Regular, 'Myriad Pro';}.cls-2,.cls-6,.cls-10{font-size:58.9px;}.cls-3,.cls-9,.cls-11{font-size:53.8px;}.cls-14{fill:#455b64;}.cls-15{fill:#263238;}.cls-4,.cls-7,.cls-13{font-size:40.4px;}.cls-5,.cls-8,.cls-12{font-size:46.8px;}.cls-6,.cls-7,.cls-8,.cls-9,.cls-16{fill:#fff;}.cls-17{fill:#3a5fa0;}.cls-18{opacity:.2;}.cls-19{opacity:.3;}.cls-20{opacity:0;}.cls-21{fill:#ec996f;}.cls-22{fill:#f5f5f5;}.cls-10,.cls-11,.cls-12,.cls-13{fill:#5b5b5b;}.cls-23{fill:#e0e0e0;}.cls-24{fill:#fbbd9d;}</style></defs><path class="cls-1" d="M569.5,47.7c5.4-13.2-2.3-28.4-17-31.4-9.2-1.9-18.9,2.3-23.9,10.3-3.1,5-4.1,10.5-3.3,15.6h0s0,.1,0,.1c.3,1.7.9,3.1,1.3,5l5.7,21.5c.7,2.7,3.8,3.9,6.2,2.5l18.8-11.2s3.4-1.8,4.8-2.8h0s0,0,0,0c3.2-2.4,5.7-5.6,7.3-9.6ZM544.4,48.3c-5.2-2.1-7.7-8-5.6-13.2,2.1-5.2,8-7.7,13.2-5.6,5.2,2.1,7.7,8,5.6,13.2-2.1,5.2-8,7.7-13.2,5.6Z"/><path class="cls-1" d="M236.8,192c-6.9-10-21.3-11.7-30.3-2.6-5.7,5.7-7.2,14.6-3.9,21.9,2.1,4.6,5.6,7.8,9.6,9.7h0s0,0,0,0c1.3.6,2.6.8,4.2,1.4l18,6c2.2.7,4.6-.9,4.7-3.2l.8-18.7s.3-3.3.2-4.7h0c0,0,0,0,0,0-.2-3.4-1.3-6.7-3.4-9.7ZM225.4,210.2c-3.9,2.7-9.3,1.7-12.1-2.2-2.7-3.9-1.7-9.3,2.2-12.1,3.9-2.7,9.3-1.7,12.1,2.2,2.7,3.9,1.7,9.3-2.2,12.1Z"/><path class="cls-1" d="M775.9,243.3c0-12.1-11-21.7-23.5-19.3-7.9,1.5-14.2,7.9-15.6,15.9-.9,4.9.2,9.6,2.4,13.4h0,0c.8,1.3,1.7,2.3,2.7,3.6l11.4,15.2c1.4,1.9,4.3,1.9,5.7,0l11.3-14.9s2.1-2.5,2.9-3.8h0c0,0,0,0,0,0,1.7-2.9,2.7-6.3,2.7-10ZM756.2,251.9c-4.8,0-8.7-3.9-8.7-8.7s3.9-8.7,8.7-8.7,8.7,3.9,8.7,8.7-3.9,8.7-8.7,8.7Z"/><path class="cls-1" d="M130.2,91.3c0-9.5-8.6-16.9-18.4-15.1-6.2,1.2-11.1,6.2-12.2,12.4-.7,3.9.1,7.5,1.9,10.5h0,0c.6,1.1,1.3,1.8,2.1,2.8l8.9,11.8c1.1,1.5,3.3,1.5,4.4,0l8.8-11.6s1.6-2,2.2-3h0s0,0,0,0c1.3-2.3,2.1-4.9,2.1-7.8ZM114.8,98c-3.7,0-6.8-3-6.8-6.8s3-6.8,6.8-6.8,6.8,3,6.8,6.8-3,6.8-6.8,6.8Z"/><path class="cls-1" d="M224.9,45.9c2.5,8.7-2.5,17.8-11.2,20.3-8.7,2.5-17.8-2.5-20.3-11.2-2.5-8.7,2.5-17.8,11.2-20.3,8.7-2.5,17.8,2.5,20.3,11.2Z"/><g class="cls-20"><path class="cls-16" d="M204.6,34.7c-8.7,2.5-13.7,11.6-11.2,20.3,0,0,11.2-2.7,12.6-8,1.4-5.2-1.4-12.4-1.4-12.4Z"/></g><path class="cls-23" d="M220.8,46.8c1.9,6.6-1.9,13.5-8.5,15.5-6.6,1.9-13.5-1.9-15.5-8.5-1.9-6.6,1.9-13.5,8.5-15.5,6.6-1.9,13.5,1.9,15.5,8.5Z"/><path class="cls-22" d="M221.4,47.2c1.9,6.5-1.8,13.4-8.4,15.3-6.5,1.9-13.4-1.8-15.3-8.4-1.9-6.5,1.8-13.4,8.4-15.3,6.5-1.9,13.4,1.8,15.3,8.4Z"/><path class="cls-23" d="M209.7,49.5l-.9-3s0,0,0,0c.5,0,1.1-.1,1.7,0,.5.1.9.3.9.3h0c0-.1.1-1.3.1-1.3v-.3s-.7-.4-.7-.4l-.2.2c-.8-.1-1.6-.2-2.4,0l-.5-1.7-.6-.3v.4c.1,0-.6.2-.6.2l.5,1.7c-2.3.9-3,2.6-2.5,4.1.6,2.1,2.5,2.1,4.3,2l.9,3c-1.2.2-2.4.1-3.3-.3l-.2,1.7c1,.4,2.5.5,4,.2l.4,1.3-.6.2.7.2,1.2-.4-.5-1.7c2.3-.9,3-2.6,2.6-4.1-.6-2.1-2.6-2.1-4.4-2ZM208.4,49.5c-.9,0-1.7-.1-1.9-.9-.2-.7.1-1.3,1.1-1.8l.8,2.7ZM208.8,46.5h0,0ZM211,54l-.8-2.7c1,0,1.7.1,1.9.9.2.6-.1,1.3-1.2,1.8Z"/><path class="cls-1" d="M210.8,55.3l.5,1.7-1.2.4-.5-1.7c-1.5.3-3.1.3-4-.2l.2-1.7c.9.4,2.2.5,3.3.3l-.9-3c-1.8,0-3.7,0-4.3-2-.4-1.5.3-3.2,2.5-4.1l-.5-1.7,1.2-.4.5,1.7c1.1-.3,2.3-.3,3.3,0l-.2,1.7c-.9-.2-1.8-.2-2.7-.1l.9,3c1.8,0,3.7,0,4.4,2,.4,1.5-.3,3.2-2.6,4.1ZM207.7,49.3l-.8-2.7c-1,.5-1.3,1.1-1.1,1.8.2.7.9.9,1.9.9ZM211.5,51.9c-.2-.7-1-.9-1.9-.9l.8,2.7c1-.5,1.4-1.1,1.2-1.8Z"/><path class="cls-16" d="M197.9,61.8s0,0-.1-.1c0,0-.2-.2-.3-.3-.1-.1-.3-.3-.4-.5-.2-.2-.4-.4-.6-.7,0-.1-.2-.3-.3-.4-.1-.1-.2-.3-.3-.5-.2-.3-.4-.7-.6-1.1-.4-.8-.8-1.6-1.1-2.6-.3-1-.5-1.9-.7-2.8,0-.4-.1-.8-.1-1.2,0-.2,0-.4,0-.6,0-.2,0-.4,0-.5,0-.3,0-.6,0-.9,0-.3,0-.5,0-.7,0-.2,0-.3,0-.4,0,0,0-.1,0-.1,0,0,0,0,0,.1,0,.1,0,.2,0,.4,0,.2,0,.4,0,.7,0,.3,0,.6,0,.9,0,.2,0,.3,0,.5,0,.2,0,.4,0,.6,0,.4,0,.8.1,1.2.1.9.4,1.8.7,2.7.3.9.7,1.8,1.1,2.6.2.4.4.7.6,1.1.1.2.2.3.3.5.1.1.2.3.3.4.2.3.4.5.5.7.2.2.3.4.4.5.1.1.2.2.3.3,0,0,0,.1,0,.1Z"/><path class="cls-16" d="M205.3,50s-.2,0-.4-.2c-.2-.2-.5-.6-.7-1-.1-.5,0-.9,0-1.2.1-.3.3-.4.3-.4,0,0,0,.2-.2.5-.1.3-.2.7,0,1.2.1.4.4.8.6,1,.2.2.4.3.4.3Z"/><path class="cls-16" d="M206.7,44.7s-.1-.2-.2-.5c0-.3-.1-.5,0-.5s.1.2.2.5.1.5,0,.5Z"/><path class="cls-16" d="M206.4,37.7s-.1,0-.4,0c-.1,0-.3,0-.5.1-.2,0-.4,0-.6.2-.2,0-.5.1-.7.2-.3,0-.5.2-.8.3-.6.3-1.1.6-1.7.9-.6.4-1.1.8-1.6,1.2-.2.2-.4.4-.6.6-.2.2-.4.4-.5.5-.2.2-.3.3-.4.5-.1.1-.2.3-.3.4-.2.2-.2.3-.2.3s0-.1.2-.3c0-.1.2-.2.3-.4.1-.1.2-.3.4-.5.1-.2.3-.4.5-.6.2-.2.4-.4.6-.6.5-.4,1-.8,1.6-1.2.6-.4,1.2-.7,1.8-.9.3-.1.6-.2.8-.3.3,0,.5-.2.7-.2.2,0,.4-.1.6-.1.2,0,.3,0,.5,0,.3,0,.4,0,.4,0Z"/><path class="cls-16" d="M215.5,64.9s0,0-.3.2c-.2,0-.4.2-.7.4-.6.3-1.6.6-2.6.8-1.1.2-2,.2-2.7.2-.3,0-.6,0-.8,0-.2,0-.3,0-.3,0,0,0,.1,0,.3,0,.2,0,.5,0,.8,0,.7,0,1.7,0,2.7-.2,1-.2,2-.5,2.6-.8.3-.1.6-.2.8-.3.2,0,.3-.1.3-.1Z"/><path class="cls-1" d="M504.5,293.1c2.5,8.7-2.5,17.8-11.2,20.3-8.7,2.5-17.8-2.5-20.3-11.2-2.5-8.7,2.5-17.8,11.2-20.3,8.7-2.5,17.8,2.5,20.3,11.2Z"/><g class="cls-20"><path class="cls-16" d="M484.1,282c-8.7,2.5-13.7,11.6-11.2,20.3,0,0,11.2-2.7,12.6-8,1.4-5.2-1.4-12.4-1.4-12.4Z"/></g><path class="cls-23" d="M500.4,294c1.9,6.6-1.9,13.5-8.5,15.5-6.6,1.9-13.5-1.9-15.5-8.5-1.9-6.6,1.9-13.5,8.5-15.5,6.6-1.9,13.5,1.9,15.5,8.5Z"/><path class="cls-22" d="M500.9,294.4c1.9,6.5-1.8,13.4-8.4,15.3-6.5,1.9-13.4-1.8-15.3-8.4-1.9-6.5,1.8-13.4,8.4-15.3,6.5-1.9,13.4,1.8,15.3,8.4Z"/><path class="cls-23" d="M489.2,296.7l-.9-3s0,0,0,0c.5,0,1.1-.1,1.7,0,.5.1.9.3.9.3h0c0-.1.1-1.3.1-1.3v-.3s-.7-.4-.7-.4l-.2.2c-.8-.1-1.6-.2-2.4,0l-.5-1.7-.6-.3v.4c.1,0-.6.2-.6.2l.5,1.7c-2.3.9-3,2.6-2.5,4.1.6,2.1,2.5,2.1,4.3,2l.9,3c-1.2.2-2.4.1-3.3-.3l-.2,1.7c1,.4,2.5.5,4,.2l.4,1.3-.6.2.7.2,1.2-.4-.5-1.7c2.3-.9,3-2.6,2.6-4.1-.6-2.1-2.6-2.1-4.4-2ZM487.9,296.8c-.9,0-1.7-.1-1.9-.9-.2-.7.1-1.3,1.1-1.8l.8,2.7ZM488.3,293.7h0,0ZM490.5,301.2l-.8-2.7c1,0,1.7.1,1.9.9.2.6-.1,1.3-1.2,1.8Z"/><path class="cls-1" d="M490.4,302.6l.5,1.7-1.2.4-.5-1.7c-1.5.3-3.1.3-4-.2l.2-1.7c.9.4,2.2.5,3.3.3l-.9-3c-1.8,0-3.7,0-4.3-2-.4-1.5.3-3.2,2.5-4.1l-.5-1.7,1.2-.4.5,1.7c1.1-.3,2.3-.3,3.3,0l-.2,1.7c-.9-.2-1.8-.2-2.7-.1l.9,3c1.8,0,3.7,0,4.4,2,.4,1.5-.3,3.2-2.6,4.1ZM487.3,296.5l-.8-2.7c-1,.5-1.3,1.1-1.1,1.8.2.7.9.9,1.9.9ZM491.1,299.1c-.2-.7-1-.9-1.9-.9l.8,2.7c1-.5,1.4-1.1,1.2-1.8Z"/><path class="cls-16" d="M477.5,309s0,0-.1-.1c0,0-.2-.2-.3-.3-.1-.1-.3-.3-.4-.5-.2-.2-.4-.4-.6-.7,0-.1-.2-.3-.3-.4-.1-.1-.2-.3-.3-.5-.2-.3-.4-.7-.6-1.1-.4-.8-.8-1.6-1.1-2.6-.3-1-.5-1.9-.7-2.8,0-.4-.1-.8-.1-1.2,0-.2,0-.4,0-.6,0-.2,0-.4,0-.5,0-.3,0-.6,0-.9,0-.3,0-.5,0-.7,0-.2,0-.3,0-.4,0,0,0-.1,0-.1,0,0,0,0,0,.1,0,.1,0,.2,0,.4,0,.2,0,.4,0,.7,0,.3,0,.6,0,.9,0,.2,0,.3,0,.5,0,.2,0,.4,0,.6,0,.4,0,.8.1,1.2.1.9.4,1.8.7,2.7.3.9.7,1.8,1.1,2.6.2.4.4.7.6,1.1.1.2.2.3.3.5.1.1.2.3.3.4.2.3.4.5.5.7.2.2.3.4.4.5.1.1.2.2.3.3,0,0,0,.1,0,.1Z"/><path class="cls-16" d="M484.9,297.2s-.2,0-.4-.2c-.2-.2-.5-.6-.7-1-.1-.5,0-.9,0-1.2.1-.3.3-.4.3-.4,0,0,0,.2-.2.5-.1.3-.2.7,0,1.2.1.4.4.8.6,1,.2.2.4.3.4.3Z"/><path class="cls-16" d="M486.2,291.9s-.1-.2-.2-.5c0-.3-.1-.5,0-.5,0,0,.1.2.2.5s.1.5,0,.5Z"/><path class="cls-16" d="M485.9,284.9s-.1,0-.4,0c-.1,0-.3,0-.5.1-.2,0-.4,0-.6.2-.2,0-.5.1-.7.2-.3,0-.5.2-.8.3-.6.3-1.1.6-1.7.9-.6.4-1.1.8-1.6,1.2-.2.2-.4.4-.6.6-.2.2-.4.4-.5.5-.2.2-.3.3-.4.5-.1.1-.2.3-.3.4-.2.2-.2.3-.2.3,0,0,0-.1.2-.3,0-.1.2-.2.3-.4.1-.1.2-.3.4-.5.1-.2.3-.4.5-.6.2-.2.4-.4.6-.6.5-.4,1-.8,1.6-1.2.6-.4,1.2-.7,1.8-.9.3-.1.6-.2.8-.3.3,0,.5-.2.7-.2.2,0,.4-.1.6-.1.2,0,.3,0,.5,0,.3,0,.4,0,.4,0Z"/><path class="cls-16" d="M495,312.1s0,0-.3.2c-.2,0-.4.2-.7.4-.6.3-1.6.6-2.6.8-1.1.2-2,.2-2.7.2-.3,0-.6,0-.8,0-.2,0-.3,0-.3,0,0,0,.1,0,.3,0,.2,0,.5,0,.8,0,.7,0,1.7,0,2.7-.2,1-.2,2-.5,2.6-.8.3-.1.6-.2.8-.3.2,0,.3-.1.3-.1Z"/><path class="cls-1" d="M732.3,112.1c-8,11.1-23.4,13.6-34.5,5.7-11.1-8-13.6-23.4-5.7-34.5,8-11.1,23.4-13.6,34.5-5.7,11.1,8,13.6,23.4,5.7,34.5Z"/><g class="cls-20"><path class="cls-16" d="M726.6,77.6c-11.1-8-26.5-5.4-34.5,5.7,0,0,13.6,10.8,21.1,7.5,7.5-3.2,13.4-13.2,13.4-13.2Z"/></g><path class="cls-23" d="M727.4,108.1c-6,8.4-17.8,10.3-26.2,4.3-8.4-6-10.3-17.8-4.3-26.2,6-8.4,17.8-10.3,26.2-4.3,8.4,6,10.3,17.8,4.3,26.2Z"/><path class="cls-22" d="M727.4,109.1c-6,8.3-17.5,10.2-25.8,4.2-8.3-6-10.2-17.5-4.2-25.8,6-8.3,17.5-10.2,25.8-4.2,8.3,6,10.2,17.5,4.2,25.8Z"/><path class="cls-23" d="M713.8,97.3l2.8-3.8s0,0,0,0c.6.6,1.2,1.2,1.7,2,.4.7.5,1.3.5,1.3h.1c0,0,1.6-1,1.6-1l.4-.2-.2-1.2h-.4c-.5-1.1-1.3-2.1-2.2-2.9l1.5-2.1-.3-1-.4.5-.9-.6-1.5,2.2c-3.2-1.9-5.8-1.2-7.2.8-1.9,2.7-.1,5,1.6,7l-2.7,3.8c-1.4-1.2-2.4-2.8-2.8-4.2l-2.2,1.3c.4,1.6,1.7,3.5,3.5,4.9l-1.1,1.6-.8-.5.4,1,1.6,1.1,1.5-2.1c3.2,1.8,5.8,1.2,7.2-.8,1.9-2.7,0-5-1.7-7ZM712.6,95.8c-.9-1.1-1.4-2.1-.7-3,.6-.8,1.7-1.1,3.2-.4l-2.4,3.4ZM716.6,93.5h0,0ZM709.7,103l2.4-3.4c.9,1.1,1.4,2.2.8,3.1-.6.8-1.6,1-3.2.3Z"/><path class="cls-1" d="M708,104.1l-1.5,2.1-1.6-1.1,1.5-2.1c-1.8-1.5-3.2-3.4-3.5-4.9l2.2-1.3c.4,1.4,1.4,3,2.8,4.2l2.7-3.8c-1.7-2-3.5-4.4-1.6-7,1.4-1.9,4-2.6,7.2-.8l1.5-2.2,1.6,1.1-1.5,2.1c1.4,1.1,2.5,2.5,3,3.9l-2.2,1.4c-.6-1.3-1.4-2.4-2.3-3.2l-2.8,3.9c1.7,2,3.6,4.4,1.7,7-1.4,1.9-4,2.6-7.2.8ZM712.3,94.8l2.4-3.4c-1.5-.8-2.6-.5-3.2.4-.7.9-.1,1.9.7,3ZM712.7,101.8c.7-.9.1-2-.8-3.1l-2.4,3.4c1.5.8,2.6.6,3.2-.3Z"/><path class="cls-16" d="M688.4,94.8s0,0,0-.2c0-.2,0-.4,0-.6,0-.3,0-.6.2-1,0-.4.2-.8.3-1.3,0-.2.1-.5.2-.8,0-.3.2-.5.3-.8.2-.6.4-1.1.7-1.7.5-1.2,1.2-2.5,2-3.8.8-1.3,1.8-2.4,2.7-3.3.5-.5.9-.9,1.3-1.3.2-.2.4-.4.6-.6.2-.2.4-.3.6-.5.4-.3.8-.6,1.1-.8.3-.2.6-.4.8-.6.2-.1.4-.2.5-.3.1,0,.2-.1.2-.1,0,0,0,0-.2.1-.1,0-.3.2-.5.4-.2.2-.5.3-.8.6-.3.2-.7.5-1.1.8-.2.2-.4.3-.6.5-.2.2-.4.4-.6.6-.4.4-.9.8-1.3,1.3-.9,1-1.8,2.1-2.6,3.3-.8,1.3-1.5,2.5-2,3.7-.3.6-.5,1.2-.7,1.7,0,.3-.2.5-.3.8,0,.3-.1.5-.2.7-.2.5-.2.9-.3,1.3,0,.4-.2.7-.2,1,0,.3,0,.5-.1.6,0,.1,0,.2,0,.2Z"/><path class="cls-16" d="M709.2,92.6s-.1-.3-.1-.8c0-.5.2-1.2.6-1.8.5-.6,1.1-.9,1.5-1,.5-.1.8,0,.8,0,0,0-.3,0-.7.2-.4.1-1,.5-1.4,1-.4.6-.6,1.2-.6,1.6,0,.5,0,.7,0,.8Z"/><path class="cls-16" d="M716.8,89.3s.1-.3.4-.7c.2-.3.5-.6.5-.6,0,0-.1.3-.4.7-.2.3-.5.6-.5.6Z"/><path class="cls-16" d="M724.7,82.5s-.2-.1-.5-.4c-.1-.1-.3-.3-.6-.4-.2-.2-.5-.4-.8-.6-.3-.2-.6-.4-.9-.6-.3-.2-.7-.4-1.1-.6-.8-.4-1.7-.8-2.7-1.2-1-.3-2-.6-2.9-.8-.5,0-.9-.2-1.3-.2-.4,0-.8,0-1.1,0-.3,0-.7,0-.9,0-.3,0-.5,0-.7,0-.4,0-.6,0-.6,0,0,0,.2,0,.6,0,.2,0,.4,0,.7,0,.3,0,.6,0,.9,0,.3,0,.7,0,1.1,0,.4,0,.8.1,1.3.2.9.2,1.9.4,2.9.7,1,.4,1.9.8,2.7,1.2.4.2.8.4,1.1.7.3.2.7.4.9.6.3.2.5.4.7.6.2.2.4.3.5.5.3.3.4.4.4.4Z"/><path class="cls-16" d="M701,118.4s-.2,0-.4-.2c-.3-.1-.7-.3-1.1-.5-.9-.5-2.2-1.3-3.4-2.3-1.2-1.1-2.1-2.2-2.7-3.1-.3-.4-.5-.8-.7-1-.1-.3-.2-.4-.2-.4,0,0,.1.1.3.4.2.2.4.6.7,1,.6.8,1.6,1.9,2.8,3,1.2,1.1,2.4,1.9,3.3,2.4.5.3.8.5,1.1.6.3.1.4.2.4.2Z"/><path class="cls-1" d="M134.5,222c-6.4,9-18.9,11-27.9,4.6-9-6.4-11-18.9-4.6-27.9,6.4-9,18.9-11,27.9-4.6,9,6.4,11,18.9,4.6,27.9Z"/><g class="cls-20"><path class="cls-16" d="M129.9,194.1c-9-6.4-21.4-4.4-27.9,4.6,0,0,11,8.7,17.1,6.1,6-2.6,10.8-10.6,10.8-10.6Z"/></g><path class="cls-23" d="M130.5,218.7c-4.9,6.8-14.4,8.4-21.2,3.5-6.8-4.9-8.4-14.4-3.5-21.2,4.9-6.8,14.4-8.4,21.2-3.5,6.8,4.9,8.4,14.4,3.5,21.2Z"/><path class="cls-22" d="M130.5,219.5c-4.8,6.7-14.2,8.3-20.9,3.4-6.7-4.8-8.3-14.2-3.4-20.9,4.8-6.7,14.2-8.3,20.9-3.4,6.7,4.8,8.3,14.2,3.4,20.9Z"/><path class="cls-23" d="M119.6,210l2.2-3.1s0,0,0,0c.5.5,1,1,1.3,1.6.3.6.4,1,.4,1h.1c0,0,1.3-.8,1.3-.8l.3-.2v-1c-.1,0-.5,0-.5,0-.4-.8-1-1.7-1.8-2.3l1.2-1.7-.2-.8-.3.4-.7-.5-1.3,1.7c-2.6-1.5-4.7-.9-5.8.6-1.5,2.1-.1,4,1.3,5.7l-2.2,3.1c-1.1-.9-1.9-2.2-2.2-3.4l-1.8,1.1c.3,1.3,1.4,2.8,2.9,4l-.9,1.3-.6-.4.3.8,1.3.9,1.2-1.7c2.6,1.5,4.7,1,5.9-.6,1.5-2.1,0-4-1.4-5.7ZM118.5,208.8c-.7-.9-1.1-1.7-.6-2.5.5-.7,1.3-.9,2.6-.3l-2,2.7ZM121.8,206.9h0,0ZM116.3,214.6l2-2.7c.7.9,1.2,1.8.6,2.5-.5.7-1.3.8-2.6.2Z"/><path class="cls-1" d="M114.8,215.5l-1.2,1.7-1.3-.9,1.2-1.7c-1.4-1.2-2.6-2.7-2.9-4l1.8-1.1c.3,1.2,1.1,2.4,2.2,3.4l2.2-3.1c-1.4-1.6-2.8-3.5-1.3-5.7,1.1-1.6,3.3-2.1,5.8-.6l1.3-1.7,1.3.9-1.2,1.7c1.1.9,2,2.1,2.5,3.2l-1.8,1.1c-.5-1.1-1.1-1.9-1.9-2.6l-2.2,3.1c1.4,1.6,2.9,3.5,1.4,5.7-1.1,1.6-3.3,2.1-5.9.6ZM118.3,208l2-2.7c-1.2-.6-2.1-.4-2.6.3-.5.7-.1,1.6.6,2.5ZM118.6,213.6c.5-.8.1-1.6-.6-2.5l-2,2.7c1.2.6,2.1.5,2.6-.2Z"/><path class="cls-16" d="M99,208s0,0,0-.2c0-.1,0-.3,0-.5,0-.2,0-.5.1-.8,0-.3.1-.7.2-1.1,0-.2.1-.4.2-.6,0-.2.1-.4.2-.6.1-.5.3-.9.5-1.4.4-1,1-2,1.6-3,.7-1,1.4-1.9,2.1-2.7.4-.4.7-.7,1.1-1.1.2-.2.3-.3.5-.5.2-.1.3-.3.5-.4.3-.3.6-.5.9-.6.3-.2.5-.3.7-.4.2-.1.3-.2.4-.3.1,0,.2,0,.2,0,0,0,0,0-.1.1-.1,0-.3.2-.4.3-.2.1-.4.3-.7.5-.3.2-.6.4-.9.7-.2.1-.3.3-.5.4-.2.1-.3.3-.5.5-.4.3-.7.7-1.1,1.1-.7.8-1.4,1.7-2.1,2.7-.7,1-1.2,2-1.6,3-.2.5-.4.9-.6,1.4,0,.2-.2.4-.2.6,0,.2-.1.4-.2.6-.1.4-.2.7-.3,1,0,.3-.1.6-.2.8,0,.2,0,.4,0,.5,0,.1,0,.2,0,.2Z"/><path class="cls-16" d="M115.8,206.3s-.1-.2-.1-.6c0-.4.1-.9.5-1.4.4-.5.9-.7,1.2-.8.4,0,.6,0,.6,0,0,0-.2,0-.6.2-.3.1-.8.4-1.2.8-.3.4-.5,1-.5,1.3,0,.4,0,.6,0,.6Z"/><path class="cls-16" d="M121.9,203.5s.1-.3.3-.6c.2-.3.4-.5.4-.5,0,0-.1.3-.3.6-.2.3-.4.5-.4.5Z"/><path class="cls-16" d="M128.4,198s-.1,0-.4-.3c-.1-.1-.3-.2-.4-.4-.2-.1-.4-.3-.6-.4-.2-.2-.5-.3-.8-.5-.3-.2-.6-.3-.9-.5-.7-.3-1.4-.7-2.2-1-.8-.3-1.6-.5-2.3-.6-.4,0-.7-.1-1-.2-.3,0-.6,0-.9,0-.3,0-.5,0-.8,0-.2,0-.4,0-.6,0-.3,0-.5,0-.5,0,0,0,.2,0,.5,0,.2,0,.3,0,.6,0,.2,0,.5,0,.8,0,.3,0,.6,0,.9,0,.3,0,.7,0,1,.1.7.1,1.5.3,2.3.6.8.3,1.6.6,2.2,1,.3.2.6.4.9.5.3.2.5.4.8.5.2.2.4.3.6.5.2.1.3.3.4.4.2.2.4.3.3.3Z"/><path class="cls-16" d="M109.2,227.1s-.1,0-.3-.1c-.2,0-.5-.2-.9-.4-.7-.4-1.7-1-2.7-1.9-1-.9-1.7-1.8-2.2-2.5-.2-.3-.4-.6-.5-.8-.1-.2-.2-.3-.2-.3,0,0,0,.1.2.3.1.2.3.5.6.8.5.7,1.3,1.6,2.2,2.4,1,.9,1.9,1.5,2.7,1.9.4.2.7.4.9.5.2.1.3.2.3.2Z"/><rect class="cls-22" x="394.9" y="420.3" width="75.7" height="16.2" transform="translate(865.5 856.8) rotate(180)"/><path class="cls-23" d="M463.2,436.6c.2,0,.3-3.6.3-8s-.1-8-.3-8-.3,3.6-.3,8,.1,8,.3,8Z"/><path class="cls-23" d="M467.3,436.6c.2,0,.3-3.6.3-8s-.1-8-.3-8-.3,3.6-.3,8,.1,8,.3,8Z"/><path class="cls-23" d="M454.1,436.6c.2,0,.3-3.6.3-8s-.1-8-.3-8-.3,3.6-.3,8,.1,8,.3,8Z"/><path class="cls-23" d="M458.2,436.6c.2,0,.3-3.6.3-8s-.1-8-.3-8-.3,3.6-.3,8,.1,8,.3,8Z"/><path class="cls-23" d="M445,436.6c.2,0,.3-3.6.3-8s-.1-8-.3-8-.3,3.6-.3,8,.1,8,.3,8Z"/><path class="cls-23" d="M449.1,436.6c.2,0,.3-3.6.3-8s-.1-8-.3-8-.3,3.6-.3,8,.1,8,.3,8Z"/><path class="cls-23" d="M435.9,436.6c.2,0,.3-3.6.3-8s-.1-8-.3-8-.3,3.6-.3,8,.1,8,.3,8Z"/><path class="cls-23" d="M440,436.6c.2,0,.3-3.6.3-8s-.1-8-.3-8-.3,3.6-.3,8,.1,8,.3,8Z"/><path class="cls-23" d="M426.8,436.6c.2,0,.3-3.6.3-8s-.1-8-.3-8-.3,3.6-.3,8,.1,8,.3,8Z"/><path class="cls-23" d="M431,436.6c.2,0,.3-3.6.3-8s-.1-8-.3-8-.3,3.6-.3,8,.1,8,.3,8Z"/><path class="cls-23" d="M417.7,436.6c.2,0,.3-3.6.3-8s-.1-8-.3-8-.3,3.6-.3,8,.1,8,.3,8Z"/><path class="cls-23" d="M421.9,436.6c.2,0,.3-3.6.3-8s-.1-8-.3-8-.3,3.6-.3,8,.1,8,.3,8Z"/><path class="cls-23" d="M408.6,436.6c.2,0,.3-3.6.3-8s-.1-8-.3-8-.3,3.6-.3,8,.1,8,.3,8Z"/><path class="cls-23" d="M412.8,436.6c.2,0,.3-3.6.3-8s-.1-8-.3-8-.3,3.6-.3,8,.1,8,.3,8Z"/><path class="cls-23" d="M399.5,436.6c.2,0,.3-3.6.3-8s-.1-8-.3-8-.3,3.6-.3,8,.1,8,.3,8Z"/><path class="cls-23" d="M403.7,436.6c.2,0,.3-3.6.3-8s-.1-8-.3-8-.3,3.6-.3,8,.1,8,.3,8Z"/><rect class="cls-22" x="398.2" y="404" width="75.7" height="16.2" transform="translate(872 824.2) rotate(180)"/><path class="cls-23" d="M466.4,420.3c.2,0,.3-3.6.3-8s-.1-8-.3-8-.3,3.6-.3,8,.1,8,.3,8Z"/><path class="cls-23" d="M470.6,420.3c.2,0,.3-3.6.3-8s-.1-8-.3-8-.3,3.6-.3,8,.1,8,.3,8Z"/><path class="cls-23" d="M457.3,420.3c.2,0,.3-3.6.3-8s-.1-8-.3-8-.3,3.6-.3,8,.1,8,.3,8Z"/><path class="cls-23" d="M461.5,420.3c.2,0,.3-3.6.3-8s-.1-8-.3-8-.3,3.6-.3,8,.1,8,.3,8Z"/><path class="cls-23" d="M448.3,420.3c.2,0,.3-3.6.3-8s-.1-8-.3-8-.3,3.6-.3,8,.1,8,.3,8Z"/><path class="cls-23" d="M452.4,420.3c.2,0,.3-3.6.3-8s-.1-8-.3-8-.3,3.6-.3,8,.1,8,.3,8Z"/><path class="cls-23" d="M439.2,420.3c.2,0,.3-3.6.3-8s-.1-8-.3-8-.3,3.6-.3,8,.1,8,.3,8Z"/><path class="cls-23" d="M443.3,420.3c.2,0,.3-3.6.3-8s-.1-8-.3-8-.3,3.6-.3,8,.1,8,.3,8Z"/><path class="cls-23" d="M430.1,420.3c.2,0,.3-3.6.3-8s-.1-8-.3-8-.3,3.6-.3,8,.1,8,.3,8Z"/><path class="cls-23" d="M434.2,420.3c.2,0,.3-3.6.3-8s-.1-8-.3-8-.3,3.6-.3,8,.1,8,.3,8Z"/><path class="cls-23" d="M421,420.3c.2,0,.3-3.6.3-8s-.1-8-.3-8-.3,3.6-.3,8,.1,8,.3,8Z"/><path class="cls-23" d="M425.1,420.3c.2,0,.3-3.6.3-8s-.1-8-.3-8-.3,3.6-.3,8,.1,8,.3,8Z"/><path class="cls-23" d="M411.9,420.3c.2,0,.3-3.6.3-8s-.1-8-.3-8-.3,3.6-.3,8,.1,8,.3,8Z"/><path class="cls-23" d="M416,420.3c.2,0,.3-3.6.3-8s-.1-8-.3-8-.3,3.6-.3,8,.1,8,.3,8Z"/><path class="cls-23" d="M402.8,420.3c.2,0,.3-3.6.3-8s-.1-8-.3-8-.3,3.6-.3,8,.1,8,.3,8Z"/><path class="cls-23" d="M406.9,420.3c.2,0,.3-3.6.3-8s-.1-8-.3-8-.3,3.6-.3,8,.1,8,.3,8Z"/><rect class="cls-22" x="399.7" y="436.7" width="75.7" height="16.2" transform="translate(875 889.6) rotate(180)"/><path class="cls-23" d="M467.9,453c.2,0,.3-3.6.3-8s-.1-8-.3-8-.3,3.6-.3,8,.1,8,.3,8Z"/><path class="cls-23" d="M472.1,453c.2,0,.3-3.6.3-8s-.1-8-.3-8-.3,3.6-.3,8,.1,8,.3,8Z"/><path class="cls-23" d="M458.8,453c.2,0,.3-3.6.3-8s-.1-8-.3-8-.3,3.6-.3,8,.1,8,.3,8Z"/><path class="cls-23" d="M463,453c.2,0,.3-3.6.3-8s-.1-8-.3-8-.3,3.6-.3,8,.1,8,.3,8Z"/><path class="cls-23" d="M449.7,453c.2,0,.3-3.6.3-8s-.1-8-.3-8-.3,3.6-.3,8,.1,8,.3,8Z"/><path class="cls-23" d="M453.9,453c.2,0,.3-3.6.3-8s-.1-8-.3-8-.3,3.6-.3,8,.1,8,.3,8Z"/><path class="cls-23" d="M440.7,453c.2,0,.3-3.6.3-8s-.1-8-.3-8-.3,3.6-.3,8,.1,8,.3,8Z"/><path class="cls-23" d="M444.8,453c.2,0,.3-3.6.3-8s-.1-8-.3-8-.3,3.6-.3,8,.1,8,.3,8Z"/><path class="cls-23" d="M431.6,453c.2,0,.3-3.6.3-8s-.1-8-.3-8-.3,3.6-.3,8,.1,8,.3,8Z"/><path class="cls-23" d="M435.7,453c.2,0,.3-3.6.3-8s-.1-8-.3-8-.3,3.6-.3,8,.1,8,.3,8Z"/><path class="cls-23" d="M422.5,453c.2,0,.3-3.6.3-8s-.1-8-.3-8-.3,3.6-.3,8,.1,8,.3,8Z"/><path class="cls-23" d="M426.6,453c.2,0,.3-3.6.3-8s-.1-8-.3-8-.3,3.6-.3,8,.1,8,.3,8Z"/><path class="cls-23" d="M413.4,453c.2,0,.3-3.6.3-8s-.1-8-.3-8-.3,3.6-.3,8,.1,8,.3,8Z"/><path class="cls-23" d="M417.5,453c.2,0,.3-3.6.3-8s-.1-8-.3-8-.3,3.6-.3,8,.1,8,.3,8Z"/><path class="cls-23" d="M404.3,453c.2,0,.3-3.6.3-8s-.1-8-.3-8-.3,3.6-.3,8,.1,8,.3,8Z"/><path class="cls-23" d="M408.4,453c.2,0,.3-3.6.3-8s-.1-8-.3-8-.3,3.6-.3,8,.1,8,.3,8Z"/><path class="cls-23" d="M399.7,436.7c0,.2,17.1.4,38.1.4s38.1-.2,38.1-.4-17.1-.4-38.1-.4-38.1.2-38.1.4Z"/><rect class="cls-22" x="405.6" y="452.8" width="75.7" height="16.2" transform="translate(886.9 921.7) rotate(180)"/><path class="cls-23" d="M473.9,469.1c.2,0,.3-3.6.3-8s-.1-8-.3-8-.3,3.6-.3,8,.1,8,.3,8Z"/><path class="cls-23" d="M478,469.1c.2,0,.3-3.6.3-8s-.1-8-.3-8-.3,3.6-.3,8,.1,8,.3,8Z"/><path class="cls-23" d="M464.8,469.1c.2,0,.3-3.6.3-8s-.1-8-.3-8-.3,3.6-.3,8,.1,8,.3,8Z"/><path class="cls-23" d="M468.9,469.1c.2,0,.3-3.6.3-8s-.1-8-.3-8-.3,3.6-.3,8,.1,8,.3,8Z"/><path class="cls-23" d="M455.7,469.1c.2,0,.3-3.6.3-8s-.1-8-.3-8-.3,3.6-.3,8,.1,8,.3,8Z"/><path class="cls-23" d="M459.8,469.1c.2,0,.3-3.6.3-8s-.1-8-.3-8-.3,3.6-.3,8,.1,8,.3,8Z"/><path class="cls-23" d="M446.6,469.1c.2,0,.3-3.6.3-8s-.1-8-.3-8-.3,3.6-.3,8,.1,8,.3,8Z"/><path class="cls-23" d="M450.7,469.1c.2,0,.3-3.6.3-8s-.1-8-.3-8-.3,3.6-.3,8,.1,8,.3,8Z"/><path class="cls-23" d="M437.5,469.1c.2,0,.3-3.6.3-8s-.1-8-.3-8-.3,3.6-.3,8,.1,8,.3,8Z"/><path class="cls-23" d="M441.6,469.1c.2,0,.3-3.6.3-8s-.1-8-.3-8-.3,3.6-.3,8,.1,8,.3,8Z"/><path class="cls-23" d="M428.4,469.1c.2,0,.3-3.6.3-8s-.1-8-.3-8-.3,3.6-.3,8,.1,8,.3,8Z"/><path class="cls-23" d="M432.5,469.1c.2,0,.3-3.6.3-8s-.1-8-.3-8-.3,3.6-.3,8,.1,8,.3,8Z"/><path class="cls-23" d="M419.3,469.1c.2,0,.3-3.6.3-8s-.1-8-.3-8-.3,3.6-.3,8,.1,8,.3,8Z"/><path class="cls-23" d="M423.4,469.1c.2,0,.3-3.6.3-8s-.1-8-.3-8-.3,3.6-.3,8,.1,8,.3,8Z"/><path class="cls-23" d="M410.2,469.1c.2,0,.3-3.6.3-8s-.1-8-.3-8-.3,3.6-.3,8,.1,8,.3,8Z"/><path class="cls-23" d="M414.3,469.1c.2,0,.3-3.6.3-8s-.1-8-.3-8-.3,3.6-.3,8,.1,8,.3,8Z"/><path class="cls-23" d="M405.6,452.8c0,.2,17,.4,38,.4s38-.2,38-.4-17-.4-38-.4-38,.2-38,.4Z"/><path class="cls-23" d="M473.9,420.2c0,.1-17.7.3-39.5.3s-39.5-.1-39.5-.3,17.7-.3,39.5-.3,39.5.1,39.5.3Z"/><path class="cls-16" d="M424.3,451.1c0,.2,10.9.3,24.3.3s24.3-.1,24.3-.3-10.9-.3-24.3-.3-24.3.1-24.3.3Z"/><path class="cls-16" d="M480.2,465.9c.1,0,.2-1.6.2-3.5s-.1-3.5-.2-3.5-.2,1.6-.2,3.5.1,3.5.2,3.5Z"/><path class="cls-16" d="M426.7,467.3c0,.2,11.3.3,25.2.3s25.2-.1,25.2-.3-11.3-.3-25.2-.3-25.2.1-25.2.3Z"/><rect class="cls-22" x="643.8" y="292.7" width="75.7" height="16.2" transform="translate(1363.3 601.7) rotate(180)"/><path class="cls-23" d="M712.1,309.1c.2,0,.3-3.6.3-8s-.1-8-.3-8-.3,3.6-.3,8,.1,8,.3,8Z"/><path class="cls-23" d="M716.2,309.1c.2,0,.3-3.6.3-8s-.1-8-.3-8-.3,3.6-.3,8,.1,8,.3,8Z"/><path class="cls-23" d="M703,309.1c.2,0,.3-3.6.3-8s-.1-8-.3-8-.3,3.6-.3,8,.1,8,.3,8Z"/><path class="cls-23" d="M707.1,309.1c.2,0,.3-3.6.3-8s-.1-8-.3-8-.3,3.6-.3,8,.1,8,.3,8Z"/><path class="cls-23" d="M693.9,309.1c.2,0,.3-3.6.3-8s-.1-8-.3-8-.3,3.6-.3,8,.1,8,.3,8Z"/><path class="cls-23" d="M698,309.1c.2,0,.3-3.6.3-8s-.1-8-.3-8-.3,3.6-.3,8,.1,8,.3,8Z"/><path class="cls-23" d="M684.8,309.1c.2,0,.3-3.6.3-8s-.1-8-.3-8-.3,3.6-.3,8,.1,8,.3,8Z"/><path class="cls-23" d="M689,309.1c.2,0,.3-3.6.3-8s-.1-8-.3-8-.3,3.6-.3,8,.1,8,.3,8Z"/><path class="cls-23" d="M675.7,309.1c.2,0,.3-3.6.3-8s-.1-8-.3-8-.3,3.6-.3,8,.1,8,.3,8Z"/><path class="cls-23" d="M679.9,309.1c.2,0,.3-3.6.3-8s-.1-8-.3-8-.3,3.6-.3,8,.1,8,.3,8Z"/><path class="cls-23" d="M666.6,309.1c.2,0,.3-3.6.3-8s-.1-8-.3-8-.3,3.6-.3,8,.1,8,.3,8Z"/><path class="cls-23" d="M670.8,309.1c.2,0,.3-3.6.3-8s-.1-8-.3-8-.3,3.6-.3,8,.1,8,.3,8Z"/><path class="cls-23" d="M657.5,309.1c.2,0,.3-3.6.3-8s-.1-8-.3-8-.3,3.6-.3,8,.1,8,.3,8Z"/><path class="cls-23" d="M661.7,309.1c.2,0,.3-3.6.3-8s-.1-8-.3-8-.3,3.6-.3,8,.1,8,.3,8Z"/><path class="cls-23" d="M648.4,309.1c.2,0,.3-3.6.3-8s-.1-8-.3-8-.3,3.6-.3,8,.1,8,.3,8Z"/><path class="cls-23" d="M652.6,309.1c.2,0,.3-3.6.3-8s-.1-8-.3-8-.3,3.6-.3,8,.1,8,.3,8Z"/><rect class="cls-22" x="648.6" y="309.2" width="75.7" height="16.2" transform="translate(1372.8 634.5) rotate(180)"/><path class="cls-23" d="M716.8,325.5c.2,0,.3-3.6.3-8s-.1-8-.3-8-.3,3.6-.3,8,.1,8,.3,8Z"/><path class="cls-23" d="M721,325.5c.2,0,.3-3.6.3-8s-.1-8-.3-8-.3,3.6-.3,8,.1,8,.3,8Z"/><path class="cls-23" d="M707.7,325.5c.2,0,.3-3.6.3-8s-.1-8-.3-8-.3,3.6-.3,8,.1,8,.3,8Z"/><path class="cls-23" d="M711.9,325.5c.2,0,.3-3.6.3-8s-.1-8-.3-8-.3,3.6-.3,8,.1,8,.3,8Z"/><path class="cls-23" d="M698.7,325.5c.2,0,.3-3.6.3-8s-.1-8-.3-8-.3,3.6-.3,8,.1,8,.3,8Z"/><path class="cls-23" d="M702.8,325.5c.2,0,.3-3.6.3-8s-.1-8-.3-8-.3,3.6-.3,8,.1,8,.3,8Z"/><path class="cls-23" d="M689.6,325.5c.2,0,.3-3.6.3-8s-.1-8-.3-8-.3,3.6-.3,8,.1,8,.3,8Z"/><path class="cls-23" d="M693.7,325.5c.2,0,.3-3.6.3-8s-.1-8-.3-8-.3,3.6-.3,8,.1,8,.3,8Z"/><path class="cls-23" d="M680.5,325.5c.2,0,.3-3.6.3-8s-.1-8-.3-8-.3,3.6-.3,8,.1,8,.3,8Z"/><path class="cls-23" d="M684.6,325.5c.2,0,.3-3.6.3-8s-.1-8-.3-8-.3,3.6-.3,8,.1,8,.3,8Z"/><path class="cls-23" d="M671.4,325.5c.2,0,.3-3.6.3-8s-.1-8-.3-8-.3,3.6-.3,8,.1,8,.3,8Z"/><path class="cls-23" d="M675.5,325.5c.2,0,.3-3.6.3-8s-.1-8-.3-8-.3,3.6-.3,8,.1,8,.3,8Z"/><path class="cls-23" d="M662.3,325.5c.2,0,.3-3.6.3-8s-.1-8-.3-8-.3,3.6-.3,8,.1,8,.3,8Z"/><path class="cls-23" d="M666.4,325.5c.2,0,.3-3.6.3-8s-.1-8-.3-8-.3,3.6-.3,8,.1,8,.3,8Z"/><path class="cls-23" d="M653.2,325.5c.2,0,.3-3.6.3-8s-.1-8-.3-8-.3,3.6-.3,8,.1,8,.3,8Z"/><path class="cls-23" d="M657.3,325.5c.2,0,.3-3.6.3-8s-.1-8-.3-8-.3,3.6-.3,8,.1,8,.3,8Z"/><path class="cls-23" d="M648.6,309.2c0,.2,17.1.4,38.1.4s38.1-.2,38.1-.4-17.1-.4-38.1-.4-38.1.2-38.1.4Z"/><rect class="cls-22" x="654.5" y="325.2" width="75.7" height="16.2" transform="translate(1384.7 666.7) rotate(180)"/><path class="cls-23" d="M722.8,341.6c.2,0,.3-3.6.3-8s-.1-8-.3-8-.3,3.6-.3,8,.1,8,.3,8Z"/><path class="cls-23" d="M726.9,341.6c.2,0,.3-3.6.3-8s-.1-8-.3-8-.3,3.6-.3,8,.1,8,.3,8Z"/><path class="cls-23" d="M713.7,341.6c.2,0,.3-3.6.3-8s-.1-8-.3-8-.3,3.6-.3,8,.1,8,.3,8Z"/><path class="cls-23" d="M717.8,341.6c.2,0,.3-3.6.3-8s-.1-8-.3-8-.3,3.6-.3,8,.1,8,.3,8Z"/><path class="cls-23" d="M704.6,341.6c.2,0,.3-3.6.3-8s-.1-8-.3-8-.3,3.6-.3,8,.1,8,.3,8Z"/><path class="cls-23" d="M708.7,341.6c.2,0,.3-3.6.3-8s-.1-8-.3-8-.3,3.6-.3,8,.1,8,.3,8Z"/><path class="cls-23" d="M695.5,341.6c.2,0,.3-3.6.3-8s-.1-8-.3-8-.3,3.6-.3,8,.1,8,.3,8Z"/><path class="cls-23" d="M699.6,341.6c.2,0,.3-3.6.3-8s-.1-8-.3-8-.3,3.6-.3,8,.1,8,.3,8Z"/><path class="cls-23" d="M686.4,341.6c.2,0,.3-3.6.3-8s-.1-8-.3-8-.3,3.6-.3,8,.1,8,.3,8Z"/><path class="cls-23" d="M690.5,341.6c.2,0,.3-3.6.3-8s-.1-8-.3-8-.3,3.6-.3,8,.1,8,.3,8Z"/><path class="cls-23" d="M677.3,341.6c.2,0,.3-3.6.3-8s-.1-8-.3-8-.3,3.6-.3,8,.1,8,.3,8Z"/><path class="cls-23" d="M681.4,341.6c.2,0,.3-3.6.3-8s-.1-8-.3-8-.3,3.6-.3,8,.1,8,.3,8Z"/><path class="cls-23" d="M668.2,341.6c.2,0,.3-3.6.3-8s-.1-8-.3-8-.3,3.6-.3,8,.1,8,.3,8Z"/><path class="cls-23" d="M672.3,341.6c.2,0,.3-3.6.3-8s-.1-8-.3-8-.3,3.6-.3,8,.1,8,.3,8Z"/><path class="cls-23" d="M659.1,341.6c.2,0,.3-3.6.3-8s-.1-8-.3-8-.3,3.6-.3,8,.1,8,.3,8Z"/><path class="cls-23" d="M663.3,341.6c.2,0,.3-3.6.3-8s-.1-8-.3-8-.3,3.6-.3,8,.1,8,.3,8Z"/><path class="cls-23" d="M654.5,325.2c0,.2,17,.4,38,.4s38-.2,38-.4-17-.4-38-.4-38,.2-38,.4Z"/><path class="cls-16" d="M673.2,323.6c0,.2,10.9.3,24.3.3s24.3-.1,24.3-.3-10.9-.3-24.3-.3-24.3.1-24.3.3Z"/><path class="cls-16" d="M729.1,338.3c.1,0,.2-1.6.2-3.5s-.1-3.5-.2-3.5-.2,1.6-.2,3.5.1,3.5.2,3.5Z"/><path class="cls-16" d="M675.6,339.7c0,.2,11.3.3,25.2.3s25.2-.1,25.2-.3-11.3-.3-25.2-.3-25.2.1-25.2.3Z"/><path class="cls-15" d="M786.3,470c0,.1-161.1.3-359.7.3s-359.8-.1-359.8-.3,161-.3,359.8-.3,359.7.1,359.7.3Z"/><rect class="cls-17" x="104.9" y="382.9" width="280.8" height="86.9"/><g class="cls-19"><rect x="285.2" y="382.9" width="100.5" height="86.9"/></g><path class="cls-15" d="M279.9,465.4s0-.5,0-1.4c0-.9,0-2.3,0-4,0-3.5,0-8.8,0-15.5,0-13.4,0-32.8-.1-56.7l.2.2c-44.1,0-104.1,0-170.1,0h0l.3-.3c0,27.3,0,53.5,0,77.6l-.3-.3c49.5,0,92,0,122.1.1,15.1,0,27.1,0,35.3,0,4.1,0,7.3,0,9.4,0,1.1,0,1.9,0,2.4,0,.5,0,.8,0,.8,0,0,0-.3,0-.8,0-.6,0-1.4,0-2.4,0-2.1,0-5.3,0-9.4,0-8.2,0-20.2,0-35.2,0-30.2,0-72.7,0-122.3.1h-.3s0-.3,0-.3c0-24.1,0-50.3,0-77.6v-.3s.3,0,.3,0h0c66,0,126.1,0,170.1,0h.2s0,.2,0,.2c0,24,0,43.4-.1,56.8,0,6.7,0,11.9,0,15.4,0,1.8,0,3.1,0,4,0,.9,0,1.3,0,1.3Z"/><path class="cls-15" d="M379.7,465.4s0-.5,0-1.4c0-1,0-2.3,0-4.2,0-3.6,0-9,0-15.8,0-13.6,0-32.9-.1-56.2l.2.2c-25.3,0-55.5,0-87.9,0h0l.3-.3c0,28.2,0,54.8,0,77.6l-.2-.2c26.2,0,48.2,0,63.6.1,7.7,0,13.8,0,17.9,0,2.1,0,3.7,0,4.8,0,.5,0,.9,0,1.2,0,.3,0,.4,0,.4,0,0,0-.1,0-.4,0-.3,0-.7,0-1.2,0-1.1,0-2.7,0-4.7,0-4.2,0-10.2,0-17.9,0-15.5,0-37.5,0-63.7.1h-.2s0-.2,0-.2c0-22.8,0-49.4,0-77.6v-.3s.3,0,.3,0h0c32.4,0,62.6,0,87.9,0h.2s0,.2,0,.2c0,23.4,0,42.8-.1,56.4,0,6.8,0,12.1,0,15.7,0,1.8,0,3.2,0,4.1,0,.9,0,1.4,0,1.4Z"/><path class="cls-15" d="M119.6,465.4c-.1,0-.3-17.3-.3-38.6s.1-38.6.3-38.6.3,17.3.3,38.6-.1,38.6-.3,38.6Z"/><path class="cls-15" d="M132.3,465.4c-.1,0-.3-17.3-.3-38.6s.1-38.6.3-38.6.3,17.3.3,38.6-.1,38.6-.3,38.6Z"/><path class="cls-15" d="M144.9,465.4c-.1,0-.3-17.3-.3-38.6s.1-38.6.3-38.6.3,17.3.3,38.6-.1,38.6-.3,38.6Z"/><path class="cls-15" d="M157.5,465.4c-.1,0-.3-17.3-.3-38.6s.1-38.6.3-38.6.3,17.3.3,38.6-.1,38.6-.3,38.6Z"/><path class="cls-15" d="M170.1,465.4c-.1,0-.3-17.3-.3-38.6s.1-38.6.3-38.6.3,17.3.3,38.6-.1,38.6-.3,38.6Z"/><path class="cls-15" d="M182.7,465.4c-.1,0-.3-17.3-.3-38.6s.1-38.6.3-38.6.3,17.3.3,38.6-.1,38.6-.3,38.6Z"/><path class="cls-15" d="M195.3,465.4c-.1,0-.3-17.3-.3-38.6s.1-38.6.3-38.6.3,17.3.3,38.6-.1,38.6-.3,38.6Z"/><path class="cls-15" d="M207.9,465.4c-.1,0-.3-17.3-.3-38.6s.1-38.6.3-38.6.3,17.3.3,38.6-.1,38.6-.3,38.6Z"/><path class="cls-15" d="M220.5,465.4c-.1,0-.3-17.3-.3-38.6s.1-38.6.3-38.6.3,17.3.3,38.6-.1,38.6-.3,38.6Z"/><path class="cls-15" d="M233.1,465.4c-.1,0-.3-17.3-.3-38.6s.1-38.6.3-38.6.3,17.3.3,38.6-.1,38.6-.3,38.6Z"/><path class="cls-15" d="M245.7,465.4c-.1,0-.3-17.3-.3-38.6s.1-38.6.3-38.6.3,17.3.3,38.6-.1,38.6-.3,38.6Z"/><path class="cls-15" d="M258.4,465.4c-.1,0-.3-17.3-.3-38.6s.1-38.6.3-38.6.3,17.3.3,38.6-.1,38.6-.3,38.6Z"/><path class="cls-15" d="M271,465.4c-.1,0-.3-17.3-.3-38.6s.1-38.6.3-38.6.3,17.3.3,38.6-.1,38.6-.3,38.6Z"/><path class="cls-15" d="M303.7,465.4c-.1,0-.3-17.3-.3-38.6s.1-38.6.3-38.6.3,17.3.3,38.6-.1,38.6-.3,38.6Z"/><path class="cls-15" d="M329.7,465.4c-.1,0-.3-17.3-.3-38.6s.1-38.6.3-38.6.3,17.3.3,38.6-.1,38.6-.3,38.6Z"/><path class="cls-15" d="M343.5,465.4c-.1,0-.3-17.3-.3-38.6s.1-38.6.3-38.6.3,17.3.3,38.6-.1,38.6-.3,38.6Z"/><path class="cls-15" d="M357.3,465.4c-.1,0-.3-17.3-.3-38.6s.1-38.6.3-38.6.3,17.3.3,38.6-.1,38.6-.3,38.6Z"/><path class="cls-15" d="M371.1,465.4c-.1,0-.3-17.3-.3-38.6s.1-38.6.3-38.6.3,17.3.3,38.6-.1,38.6-.3,38.6Z"/><path class="cls-15" d="M316.6,465.4c-.1,0-.3-17.3-.3-38.6s.1-38.6.3-38.6.3,17.3.3,38.6-.1,38.6-.3,38.6Z"/><rect class="cls-14" x="98.2" y="330.1" width="170.7" height="52.8"/><g class="cls-19"><rect x="207.8" y="330.1" width="61.1" height="52.8"/></g><path class="cls-15" d="M204.6,380.3s0-.3,0-.9c0-.6,0-1.4,0-2.5,0-2.2,0-5.3,0-9.4,0-8.2,0-19.9-.1-34.5l.2.2c-26.8,0-63.3,0-103.4,0h0l.3-.3c0,16.6,0,32.5,0,47.2l-.3-.3c30.1,0,55.9,0,74.2.1,9.2,0,16.5,0,21.5,0,2.5,0,4.4,0,5.7,0,.6,0,1.1,0,1.5,0,.3,0,.5,0,.5,0,0,0-.2,0-.5,0-.3,0-.8,0-1.5,0-1.3,0-3.2,0-5.7,0-5,0-12.3,0-21.4,0-18.4,0-44.3,0-74.4.1h-.3s0-.3,0-.3c0-14.6,0-30.6,0-47.2v-.3s.3,0,.3,0h0c40.2,0,76.6,0,103.4,0h.2s0,.2,0,.2c0,14.6,0,26.4-.1,34.6,0,4.1,0,7.2,0,9.4,0,1.1,0,1.9,0,2.4,0,.5,0,.8,0,.8Z"/><path class="cls-15" d="M265.3,380.3s0-.3,0-.9c0-.6,0-1.4,0-2.5,0-2.2,0-5.5,0-9.6,0-8.3,0-20-.1-34.2l.2.2c-15.4,0-33.8,0-53.5,0,0,0,.5-.5.3-.3h0v3.2c0,1.1,0,2.1,0,3.2,0,2.1,0,4.2,0,6.3,0,4.1,0,8.2,0,12.2,0,7.9,0,15.4,0,22.4l-.2-.2c15.9,0,29.2,0,38.6.1,4.7,0,8.4,0,10.9,0,1.3,0,2.2,0,2.9,0,.3,0,.6,0,.8,0,.2,0,.3,0,.3,0,0,0,0,0-.2,0-.2,0-.4,0-.7,0-.7,0-1.6,0-2.9,0-2.5,0-6.2,0-10.9,0-9.4,0-22.8,0-38.8.1h-.2s0-.2,0-.2c0-6.9,0-14.5,0-22.4,0-4,0-8,0-12.2,0-2.1,0-4.2,0-6.3,0-1.1,0-2.1,0-3.2v-1.6s0-.8,0-.8v-.6h0v-.2h0c-.2.2.3-.4.3-.3,19.7,0,38.1,0,53.5,0h.2s0,.2,0,.2c0,14.2,0,26-.1,34.3,0,4.1,0,7.3,0,9.5,0,1.1,0,1.9,0,2.5,0,.6,0,.8,0,.8Z"/><path class="cls-15" d="M107.2,380.2c-.1,0-.3-10.5-.3-23.5s.1-23.5.3-23.5.3,10.5.3,23.5-.1,23.5-.3,23.5Z"/><path class="cls-15" d="M114.8,380.2c-.1,0-.3-10.5-.3-23.5s.1-23.5.3-23.5.3,10.5.3,23.5-.1,23.5-.3,23.5Z"/><path class="cls-15" d="M122.5,380.2c-.1,0-.3-10.5-.3-23.5s.1-23.5.3-23.5.3,10.5.3,23.5-.1,23.5-.3,23.5Z"/><path class="cls-15" d="M130.2,380.2c-.1,0-.3-10.5-.3-23.5s.1-23.5.3-23.5.3,10.5.3,23.5-.1,23.5-.3,23.5Z"/><path class="cls-15" d="M137.8,380.2c-.1,0-.3-10.5-.3-23.5s.1-23.5.3-23.5.3,10.5.3,23.5-.1,23.5-.3,23.5Z"/><path class="cls-15" d="M145.5,380.2c-.1,0-.3-10.5-.3-23.5s.1-23.5.3-23.5.3,10.5.3,23.5-.1,23.5-.3,23.5Z"/><path class="cls-15" d="M153.2,380.2c-.1,0-.3-10.5-.3-23.5s.1-23.5.3-23.5.3,10.5.3,23.5-.1,23.5-.3,23.5Z"/><path class="cls-15" d="M160.8,380.2c-.1,0-.3-10.5-.3-23.5s.1-23.5.3-23.5.3,10.5.3,23.5-.1,23.5-.3,23.5Z"/><path class="cls-15" d="M168.5,380.2c-.1,0-.3-10.5-.3-23.5s.1-23.5.3-23.5.3,10.5.3,23.5-.1,23.5-.3,23.5Z"/><path class="cls-15" d="M176.2,380.2c-.1,0-.3-10.5-.3-23.5s.1-23.5.3-23.5.3,10.5.3,23.5-.1,23.5-.3,23.5Z"/><path class="cls-15" d="M183.8,380.2c-.1,0-.3-10.5-.3-23.5s.1-23.5.3-23.5.3,10.5.3,23.5-.1,23.5-.3,23.5Z"/><path class="cls-15" d="M191.5,380.2c-.1,0-.3-10.5-.3-23.5s.1-23.5.3-23.5.3,10.5.3,23.5-.1,23.5-.3,23.5Z"/><path class="cls-15" d="M199.2,380.2c-.1,0-.3-10.5-.3-23.5s.1-23.5.3-23.5.3,10.5.3,23.5-.1,23.5-.3,23.5Z"/><path class="cls-15" d="M219,380.2c-.1,0-.3-10.5-.3-23.5s.1-23.5.3-23.5.3,10.5.3,23.5-.1,23.5-.3,23.5Z"/><path class="cls-15" d="M234.9,380.2c-.1,0-.3-10.5-.3-23.5s.1-23.5.3-23.5.3,10.5.3,23.5-.1,23.5-.3,23.5Z"/><path class="cls-15" d="M243.3,380.2c-.1,0-.3-10.5-.3-23.5s.1-23.5.3-23.5.3,10.5.3,23.5-.1,23.5-.3,23.5Z"/><path class="cls-15" d="M251.7,380.2c-.1,0-.3-10.5-.3-23.5s.1-23.5.3-23.5.3,10.5.3,23.5-.1,23.5-.3,23.5Z"/><path class="cls-15" d="M260.1,380.2c-.1,0-.3-10.5-.3-23.5s.1-23.5.3-23.5.3,10.5.3,23.5-.1,23.5-.3,23.5Z"/><path class="cls-15" d="M226.9,380.2c-.1,0-.3-10.5-.3-23.5s.1-23.5.3-23.5.3,10.5.3,23.5-.1,23.5-.3,23.5Z"/><rect class="cls-14" x="493.7" y="391.8" width="252.9" height="78.2"/><g class="cls-19"><rect x="656.1" y="391.8" width="90.5" height="78.2"/></g><path class="cls-15" d="M651.3,466.1s0-.4,0-1.3c0-.8,0-2,0-3.6,0-3.2,0-7.9,0-13.9,0-12.1,0-29.5-.1-51.1l.2.2c-39.7,0-93.7,0-153.2,0h0l.3-.3c0,24.6,0,48.2,0,69.9l-.3-.3c44.6,0,82.8,0,110,.1,13.6,0,24.4,0,31.8,0,3.7,0,6.6,0,8.5,0,1,0,1.7,0,2.2,0,.5,0,.8,0,.8,0,0,0-.2,0-.7,0-.5,0-1.2,0-2.2,0-1.9,0-4.8,0-8.4,0-7.4,0-18.2,0-31.7,0-27.2,0-65.5,0-110.2.1h-.3s0-.3,0-.3c0-21.7,0-45.3,0-69.9v-.3s.3,0,.3,0h0c59.5,0,113.5,0,153.2,0h.2s0,.2,0,.2c0,21.6,0,39.1-.1,51.2,0,6,0,10.7,0,13.9,0,1.6,0,2.8,0,3.6,0,.8,0,1.2,0,1.2Z"/><path class="cls-15" d="M741.3,466.1s0-.5,0-1.3c0-.9,0-2.1,0-3.7,0-3.3,0-8.1,0-14.2,0-12.2,0-29.7-.1-50.7l.2.2c-22.8,0-50,0-79.2,0h0l.3-.3c0,25.4,0,49.3,0,69.9l-.2-.2c23.6,0,43.4,0,57.3.1,6.9,0,12.4,0,16.2,0,1.9,0,3.3,0,4.3,0,.5,0,.8,0,1.1,0,.2,0,.4,0,.4,0,0,0-.1,0-.4,0-.3,0-.6,0-1.1,0-1,0-2.4,0-4.2,0-3.7,0-9.2,0-16.1,0-13.9,0-33.7,0-57.4.1h-.2s0-.2,0-.2c0-20.6,0-44.5,0-69.9v-.3s.3,0,.3,0h0c29.2,0,56.4,0,79.2,0h.2s0,.2,0,.2c0,21.1,0,38.5-.1,50.8,0,6.1,0,10.9,0,14.1,0,1.6,0,2.9,0,3.7,0,.8,0,1.3,0,1.3Z"/><path class="cls-15" d="M507,466.1c-.1,0-.3-15.6-.3-34.8s.1-34.8.3-34.8.3,15.6.3,34.8-.1,34.8-.3,34.8Z"/><path class="cls-15" d="M518.4,466.1c-.1,0-.3-15.6-.3-34.8s.1-34.8.3-34.8.3,15.6.3,34.8-.1,34.8-.3,34.8Z"/><path class="cls-15" d="M529.8,466.1c-.1,0-.3-15.6-.3-34.8s.1-34.8.3-34.8.3,15.6.3,34.8-.1,34.8-.3,34.8Z"/><path class="cls-15" d="M541.1,466.1c-.1,0-.3-15.6-.3-34.8s.1-34.8.3-34.8.3,15.6.3,34.8-.1,34.8-.3,34.8Z"/><path class="cls-15" d="M552.5,466.1c-.1,0-.3-15.6-.3-34.8s.1-34.8.3-34.8.3,15.6.3,34.8-.1,34.8-.3,34.8Z"/><path class="cls-15" d="M563.8,466.1c-.1,0-.3-15.6-.3-34.8s.1-34.8.3-34.8.3,15.6.3,34.8-.1,34.8-.3,34.8Z"/><path class="cls-15" d="M575.2,466.1c-.1,0-.3-15.6-.3-34.8s.1-34.8.3-34.8.3,15.6.3,34.8-.1,34.8-.3,34.8Z"/><path class="cls-15" d="M586.5,466.1c-.1,0-.3-15.6-.3-34.8s.1-34.8.3-34.8.3,15.6.3,34.8-.1,34.8-.3,34.8Z"/><path class="cls-15" d="M597.9,466.1c-.1,0-.3-15.6-.3-34.8s.1-34.8.3-34.8.3,15.6.3,34.8-.1,34.8-.3,34.8Z"/><path class="cls-15" d="M609.3,466.1c-.1,0-.3-15.6-.3-34.8s.1-34.8.3-34.8.3,15.6.3,34.8-.1,34.8-.3,34.8Z"/><path class="cls-15" d="M620.6,466.1c-.1,0-.3-15.6-.3-34.8s.1-34.8.3-34.8.3,15.6.3,34.8-.1,34.8-.3,34.8Z"/><path class="cls-15" d="M632,466.1c-.1,0-.3-15.6-.3-34.8s.1-34.8.3-34.8.3,15.6.3,34.8-.1,34.8-.3,34.8Z"/><path class="cls-15" d="M643.3,466.1c-.1,0-.3-15.6-.3-34.8s.1-34.8.3-34.8.3,15.6.3,34.8-.1,34.8-.3,34.8Z"/><path class="cls-15" d="M672.8,466.1c-.1,0-.3-15.6-.3-34.8s.1-34.8.3-34.8.3,15.6.3,34.8-.1,34.8-.3,34.8Z"/><path class="cls-15" d="M696.2,466.1c-.1,0-.3-15.6-.3-34.8s.1-34.8.3-34.8.3,15.6.3,34.8-.1,34.8-.3,34.8Z"/><path class="cls-15" d="M708.7,466.1c-.1,0-.3-15.6-.3-34.8s.1-34.8.3-34.8.3,15.6.3,34.8-.1,34.8-.3,34.8Z"/><path class="cls-15" d="M721.1,466.1c-.1,0-.3-15.6-.3-34.8s.1-34.8.3-34.8.3,15.6.3,34.8-.1,34.8-.3,34.8Z"/><path class="cls-15" d="M733.5,466.1c-.1,0-.3-15.6-.3-34.8s.1-34.8.3-34.8.3,15.6.3,34.8-.1,34.8-.3,34.8Z"/><path class="cls-15" d="M684.4,466.1c-.1,0-.3-15.6-.3-34.8s.1-34.8.3-34.8.3,15.6.3,34.8-.1,34.8-.3,34.8Z"/><rect class="cls-23" x="122.4" y="277.3" width="170.7" height="52.8"/><g class="cls-19"><rect x="232.1" y="277.3" width="61.1" height="52.8"/></g><path class="cls-15" d="M228.8,327.4s0-.3,0-.9c0-.6,0-1.4,0-2.5,0-2.2,0-5.3,0-9.4,0-8.2,0-19.9-.1-34.5l.2.2c-26.8,0-63.3,0-103.4,0h0l.3-.3c0,16.6,0,32.5,0,47.2l-.3-.3c30.1,0,55.9,0,74.2.1,9.2,0,16.5,0,21.5,0,2.5,0,4.4,0,5.7,0,.6,0,1.1,0,1.5,0,.3,0,.5,0,.5,0,0,0-.2,0-.5,0-.3,0-.8,0-1.5,0-1.3,0-3.2,0-5.7,0-5,0-12.3,0-21.4,0-18.4,0-44.3,0-74.4.1h-.3s0-.3,0-.3c0-14.6,0-30.6,0-47.2v-.3s.3,0,.3,0h0c40.2,0,76.6,0,103.4,0h.2s0,.2,0,.2c0,14.6,0,26.4-.1,34.6,0,4.1,0,7.2,0,9.4,0,1.1,0,1.9,0,2.4,0,.5,0,.8,0,.8Z"/><path class="cls-15" d="M289.6,327.4s0-.3,0-.9c0-.6,0-1.4,0-2.5,0-2.2,0-5.5,0-9.6,0-8.3,0-20-.1-34.2l.2.2c-15.4,0-33.8,0-53.5,0,0,0,.5-.5.3-.3h0v3.2c0,1.1,0,2.1,0,3.2,0,2.1,0,4.2,0,6.3,0,4.1,0,8.2,0,12.2,0,7.9,0,15.4,0,22.4l-.2-.2c15.9,0,29.2,0,38.6.1,4.7,0,8.4,0,10.9,0,1.3,0,2.2,0,2.9,0,.3,0,.6,0,.8,0,.2,0,.3,0,.3,0s0,0-.2,0c-.2,0-.4,0-.7,0-.7,0-1.6,0-2.9,0-2.5,0-6.2,0-10.9,0-9.4,0-22.8,0-38.8.1h-.2s0-.2,0-.2c0-6.9,0-14.5,0-22.4,0-4,0-8,0-12.2,0-2.1,0-4.2,0-6.3,0-1.1,0-2.1,0-3.2v-1.6s0-.8,0-.8v-.6h0v-.2h0c-.2.2.3-.4.3-.3,19.7,0,38.1,0,53.5,0h.2s0,.2,0,.2c0,14.2,0,26-.1,34.3,0,4.1,0,7.3,0,9.5,0,1.1,0,1.9,0,2.5,0,.6,0,.8,0,.8Z"/><path class="cls-15" d="M131.4,327.4c-.1,0-.3-10.5-.3-23.5s.1-23.5.3-23.5.3,10.5.3,23.5-.1,23.5-.3,23.5Z"/><path class="cls-15" d="M139.1,327.4c-.1,0-.3-10.5-.3-23.5s.1-23.5.3-23.5.3,10.5.3,23.5-.1,23.5-.3,23.5Z"/><path class="cls-15" d="M146.8,327.4c-.1,0-.3-10.5-.3-23.5s.1-23.5.3-23.5.3,10.5.3,23.5-.1,23.5-.3,23.5Z"/><path class="cls-15" d="M154.4,327.4c-.1,0-.3-10.5-.3-23.5s.1-23.5.3-23.5.3,10.5.3,23.5-.1,23.5-.3,23.5Z"/><path class="cls-15" d="M162.1,327.4c-.1,0-.3-10.5-.3-23.5s.1-23.5.3-23.5.3,10.5.3,23.5-.1,23.5-.3,23.5Z"/><path class="cls-15" d="M169.8,327.4c-.1,0-.3-10.5-.3-23.5s.1-23.5.3-23.5.3,10.5.3,23.5-.1,23.5-.3,23.5Z"/><path class="cls-15" d="M177.4,327.4c-.1,0-.3-10.5-.3-23.5s.1-23.5.3-23.5.3,10.5.3,23.5-.1,23.5-.3,23.5Z"/><path class="cls-15" d="M185.1,327.4c-.1,0-.3-10.5-.3-23.5s.1-23.5.3-23.5.3,10.5.3,23.5-.1,23.5-.3,23.5Z"/><path class="cls-15" d="M192.8,327.4c-.1,0-.3-10.5-.3-23.5s.1-23.5.3-23.5.3,10.5.3,23.5-.1,23.5-.3,23.5Z"/><path class="cls-15" d="M200.4,327.4c-.1,0-.3-10.5-.3-23.5s.1-23.5.3-23.5.3,10.5.3,23.5-.1,23.5-.3,23.5Z"/><path class="cls-15" d="M208.1,327.4c-.1,0-.3-10.5-.3-23.5s.1-23.5.3-23.5.3,10.5.3,23.5-.1,23.5-.3,23.5Z"/><path class="cls-15" d="M215.8,327.4c-.1,0-.3-10.5-.3-23.5s.1-23.5.3-23.5.3,10.5.3,23.5-.1,23.5-.3,23.5Z"/><path class="cls-15" d="M223.4,327.4c-.1,0-.3-10.5-.3-23.5s.1-23.5.3-23.5.3,10.5.3,23.5-.1,23.5-.3,23.5Z"/><path class="cls-15" d="M243.3,327.4c-.1,0-.3-10.5-.3-23.5s.1-23.5.3-23.5.3,10.5.3,23.5-.1,23.5-.3,23.5Z"/><path class="cls-15" d="M259.1,327.4c-.1,0-.3-10.5-.3-23.5s.1-23.5.3-23.5.3,10.5.3,23.5-.1,23.5-.3,23.5Z"/><path class="cls-15" d="M267.5,327.4c-.1,0-.3-10.5-.3-23.5s.1-23.5.3-23.5.3,10.5.3,23.5-.1,23.5-.3,23.5Z"/><path class="cls-15" d="M275.9,327.4c-.1,0-.3-10.5-.3-23.5s.1-23.5.3-23.5.3,10.5.3,23.5-.1,23.5-.3,23.5Z"/><path class="cls-15" d="M284.3,327.4c-.1,0-.3-10.5-.3-23.5s.1-23.5.3-23.5.3,10.5.3,23.5-.1,23.5-.3,23.5Z"/><path class="cls-15" d="M251.1,327.4c-.1,0-.3-10.5-.3-23.5s.1-23.5.3-23.5.3,10.5.3,23.5-.1,23.5-.3,23.5Z"/><rect class="cls-23" x="557.9" y="338.4" width="170.7" height="52.8"/><g class="cls-19"><rect x="667.6" y="338.4" width="61.1" height="52.8"/></g><path class="cls-15" d="M664.4,388.5s0-.3,0-.9c0-.6,0-1.4,0-2.5,0-2.2,0-5.3,0-9.4,0-8.2,0-19.9-.1-34.5l.2.2c-26.8,0-63.3,0-103.4,0h0l.3-.3c0,16.6,0,32.5,0,47.2l-.3-.3c30.1,0,55.9,0,74.2.1,9.2,0,16.5,0,21.5,0,2.5,0,4.4,0,5.7,0,.6,0,1.1,0,1.5,0,.3,0,.5,0,.5,0,0,0-.2,0-.5,0-.3,0-.8,0-1.5,0-1.3,0-3.2,0-5.7,0-5,0-12.3,0-21.4,0-18.4,0-44.3,0-74.4.1h-.3s0-.3,0-.3c0-14.6,0-30.6,0-47.2v-.3s.3,0,.3,0h0c40.2,0,76.6,0,103.4,0h.2s0,.2,0,.2c0,14.6,0,26.4-.1,34.6,0,4.1,0,7.2,0,9.4,0,1.1,0,1.9,0,2.4,0,.5,0,.8,0,.8Z"/><path class="cls-15" d="M725.1,388.5s0-.3,0-.9c0-.6,0-1.4,0-2.5,0-2.2,0-5.5,0-9.6,0-8.3,0-20-.1-34.2l.2.2c-15.4,0-33.8,0-53.5,0,0,0,.5-.5.3-.3h0v3.2c0,1.1,0,2.1,0,3.2,0,2.1,0,4.2,0,6.3,0,4.1,0,8.2,0,12.2,0,7.9,0,15.4,0,22.4l-.2-.2c15.9,0,29.2,0,38.6.1,4.7,0,8.4,0,10.9,0,1.3,0,2.2,0,2.9,0,.3,0,.6,0,.8,0,.2,0,.3,0,.3,0s0,0-.2,0c-.2,0-.4,0-.7,0-.7,0-1.6,0-2.9,0-2.5,0-6.2,0-10.9,0-9.4,0-22.8,0-38.8.1h-.2s0-.2,0-.2c0-6.9,0-14.5,0-22.4,0-4,0-8,0-12.2,0-2.1,0-4.2,0-6.3,0-1.1,0-2.1,0-3.2v-1.6s0-.8,0-.8v-.6h0v-.2h0c-.2.2.3-.4.3-.3,19.7,0,38.1,0,53.5,0h.2s0,.2,0,.2c0,14.2,0,26-.1,34.3,0,4.1,0,7.3,0,9.5,0,1.1,0,1.9,0,2.5,0,.6,0,.8,0,.8Z"/><path class="cls-15" d="M566.9,388.5c-.1,0-.3-10.5-.3-23.5s.1-23.5.3-23.5.3,10.5.3,23.5-.1,23.5-.3,23.5Z"/><path class="cls-15" d="M574.6,388.5c-.1,0-.3-10.5-.3-23.5s.1-23.5.3-23.5.3,10.5.3,23.5-.1,23.5-.3,23.5Z"/><path class="cls-15" d="M582.3,388.5c-.1,0-.3-10.5-.3-23.5s.1-23.5.3-23.5.3,10.5.3,23.5-.1,23.5-.3,23.5Z"/><path class="cls-15" d="M589.9,388.5c-.1,0-.3-10.5-.3-23.5s.1-23.5.3-23.5.3,10.5.3,23.5-.1,23.5-.3,23.5Z"/><path class="cls-15" d="M597.6,388.5c-.1,0-.3-10.5-.3-23.5s.1-23.5.3-23.5.3,10.5.3,23.5-.1,23.5-.3,23.5Z"/><path class="cls-15" d="M605.3,388.5c-.1,0-.3-10.5-.3-23.5s.1-23.5.3-23.5.3,10.5.3,23.5-.1,23.5-.3,23.5Z"/><path class="cls-15" d="M612.9,388.5c-.1,0-.3-10.5-.3-23.5s.1-23.5.3-23.5.3,10.5.3,23.5-.1,23.5-.3,23.5Z"/><path class="cls-15" d="M620.6,388.5c-.1,0-.3-10.5-.3-23.5s.1-23.5.3-23.5.3,10.5.3,23.5-.1,23.5-.3,23.5Z"/><path class="cls-15" d="M628.3,388.5c-.1,0-.3-10.5-.3-23.5s.1-23.5.3-23.5.3,10.5.3,23.5-.1,23.5-.3,23.5Z"/><path class="cls-15" d="M635.9,388.5c-.1,0-.3-10.5-.3-23.5s.1-23.5.3-23.5.3,10.5.3,23.5-.1,23.5-.3,23.5Z"/><path class="cls-15" d="M643.6,388.5c-.1,0-.3-10.5-.3-23.5s.1-23.5.3-23.5.3,10.5.3,23.5-.1,23.5-.3,23.5Z"/><path class="cls-15" d="M651.3,388.5c-.1,0-.3-10.5-.3-23.5s.1-23.5.3-23.5.3,10.5.3,23.5-.1,23.5-.3,23.5Z"/><path class="cls-15" d="M658.9,388.5c-.1,0-.3-10.5-.3-23.5s.1-23.5.3-23.5.3,10.5.3,23.5-.1,23.5-.3,23.5Z"/><path class="cls-15" d="M678.8,388.5c-.1,0-.3-10.5-.3-23.5s.1-23.5.3-23.5.3,10.5.3,23.5-.1,23.5-.3,23.5Z"/><path class="cls-15" d="M694.7,388.5c-.1,0-.3-10.5-.3-23.5s.1-23.5.3-23.5.3,10.5.3,23.5-.1,23.5-.3,23.5Z"/><path class="cls-15" d="M703.1,388.5c-.1,0-.3-10.5-.3-23.5s.1-23.5.3-23.5.3,10.5.3,23.5-.1,23.5-.3,23.5Z"/><path class="cls-15" d="M711.5,388.5c-.1,0-.3-10.5-.3-23.5s.1-23.5.3-23.5.3,10.5.3,23.5-.1,23.5-.3,23.5Z"/><path class="cls-15" d="M719.8,388.5c-.1,0-.3-10.5-.3-23.5s.1-23.5.3-23.5.3,10.5.3,23.5-.1,23.5-.3,23.5Z"/><path class="cls-15" d="M686.7,388.5c-.1,0-.3-10.5-.3-23.5s.1-23.5.3-23.5.3,10.5.3,23.5-.1,23.5-.3,23.5Z"/><circle class="cls-14" cx="422.6" cy="165.8" r="134" transform="translate(6.6 347.4) rotate(-45)"/><g class="cls-19"><path d="M407.4,34.1s0,0-.2,0c-.3,0-.8,0-.9,0,0,0-1,.4-1,.4,0,0-.1,0,0,0,0,0,.3.3,1.6,0,.7-.2.7-.4.6-.4Z"/><path d="M405.3,33c0,0,.6-.1.6-.2,0,0,0,0,0,0-.2,0-.7,0-.7,0,0,0-.2,0-.2.1,0,0,.2,0,.4,0Z"/><path d="M409.5,32.5q.3,0,.7,0s.4,0,.9,0c0,0,.6,0,.7-.1t-.1,0s-2.1,0-4.2.3h1.1c.3,0,.6-.1.9,0Z"/><path d="M407.1,32.9s0,0,0,0c0,0,0,0,.9,0,.3,0,.7,0,.9,0,0,0,0,0,.1,0,0,0-.1,0-.2,0-2.3,0-4.2.4-4.6.6.2,0,2.7-.2,2.9-.3,0,0,0,0,0,0Z"/><path d="M409.3,33.5c0,0,.1,0,.2,0,0,0,.2,0,.3-.1.2,0,.3-.1.5-.2,0,0,.1,0,.1,0,0,0,0,0,0,0-.5,0-1.4.3-1.4.3,0,0,0,0,0,0q0,0-.2.3c0,0,.7-.1.7-.1Z"/><path d="M402.8,35.4s0,0-.1,0c-.2,0-.4,0-.4,0-.6,0-1.3.3-1.3.3,0,0,0,0,0,0,0,0,1.1,0,1.6-.2.2,0,.4-.1.3-.2Z"/><path d="M403,37.9c0,0,0-.1-.4-.2,0,0-.1,0-.2,0-.5,0-1-.1-1.4-.2-.6,0-2.7.1-3,.4,0,0,0,0,0,0,.1,0,.3,0,.4.2.2.2,0,.3,0,.4-.1,0-1.6.6-2,.6-.2,0-.2,0-.2,0,0-.4.5-.3.6-.6-.2,0-1.5.2-1.8.4,0,0,0,0,0,.1,0,.3,0,.6,0,.8,0,.1,0,.2,0,.3,0,.2-.3.3-.3.5,0,0,0,0,0,.1.2.5,3.8-.2,4.9-.8.2-.1,1.1-1,.8-1.1-.4-.1-.8,0-1.2,0,.9-.2,1.8-.3,2.6-.5,0,0,1.1-.4,1.2-.5Z"/><path d="M394.5,34.7c1.5-.1,2.9-.7,4.4-.8q-1.6.4-1.7.4l5.2-.9c.1,0,.3,0,.4-.2,0,0-.1,0-.2,0-1.1,0-8.4,1.2-10.1,1.8.7.1,1.3-.2,1.9-.3,0,0,0,0,0,0Z"/><path d="M391.3,43.9s0,0,0,0c0,0-.2,0-.4,0-.7.2-1.3.7-2.1.8-1.2.3-1.6.3-1.7.5,0,0,0,0,0,0,0,0,.2,0,.4,0,.4,0,.5,0,.5.2.1.1,0,.3.2.5,0,0,.3.1.6.2,1.9.3,2.9-.2,2.9-.2.3-.2.1-1.2.1-1.3,0-.4-.4-.8-.5-.8Z"/><path d="M396.4,37.3s-.1,0-.3,0c-1,0-1.9.3-2,.3,0,0,0,0,0,0,0,0,.2,0,.3,0,0,0,0,0-.2.2,0,0-.3.4-.1.4.4,0,1.6-.5,1.7-.5.6-.2.8-.4.6-.5Z"/><path d="M488.4,65.4c-.5-1.4-1.5-2.5-1.9-3.9-.3-.9,0-1.8,0-2.7,0-1,.2-1.2.9-1.6,1-.5.6-.9-.6-2.3-3.7-4.4-3.8-4.5-3.9-5.3,0,0,.1-.1.2-.2,0,0,.2,0,.3,0-.9-1.8-4.1-1.8-3.9-4.5-.1-.1-.3-.3-.4-.4,0-.1.2-.3.2-.4,0,0,.1,0,.2,0-.6-.3-2.3-1-2.4-1.1-1.2-.5-2.8-.8-3.1-.8-1.1-.2-1.7-1.2-2.7-1.5-1.4-.5-4.4-1.6-5.7-2q-2.3-.7-2.6-.6s0,0,0,0q-2.5-.7-3.8-.9h0s0,0,0,0c0,0,0,0,0,0,0,0,0,0,0,0q1.4.6,1.8.9t-1.7-.6c-.7-.2-.9-.3-1.7-.5-6-1.4-10.8-1-10.8-1q.2.2,1,.5c-.9.6-2.7.4-3.7.3,0,0-5-.3-5.3,0-1.8,1.2,1.1,2.9,1.1,2.9,7.9,2.1,8,2.3,8.4,2.9,0,0,2.2,5.3.3,7-.8.7-.8.7-.8.9,0,.5.5.7.5,1.2,0,.7-.5,1.3-.3,2,1.1.1,2.3-.7,3.3.3,1.7,1.6.2,3,.2,3-1.2.7-2.7.1-3.9,1-.6.5-1.7,2-1.7,3.2,0,.5,2.4,12.8,5,14.8,6.7,3.9,6.9,3.8,7.6,3.4,1.1-.6,4.7-6.7,4.7-6.8.5-.9.4-2.1,1.3-2.9.5-.4.5-.4,2.5-.3q6.3.3,6.8-.8c.5-1.1.8-1.6,2.1-1.8,2.9-.4,5.8.4,8.8,0,1.2-.2,2.4-.1,3.6-.4,0,0,.6-.2.3-1.1Z"/><path d="M414.1,51.7c.6-.7.6-1.1,0-1.2,0,0-1.8-.1-2.4.5-.3.4,0,1.7.2,2,.5.7,2.2-1.2,2.2-1.3Z"/><path d="M433.9,32.6c-.4,0-.8,0-1.3,0,1.3.1,5.5.4,6.1.5-2.8,0-5.1,0-7.4-.4-.5,0-.7,0-1,0,0,.1-.5.8-1,1-1-.7-4.6,0-4.7,0,.2.2.5.3.7.5,0,0,0,0,0,.1.4,0,.5.1,2,0-2.6.4-2.7,0-2.8-.2-1.7-.5-2,0-2.1.3-1.2.3-2.4,0-3.5.5,0,0,0,0,0,.1.3.1.4.2,2.3.4,1.4.2,2.8-.3,4.1.5q-.2.2-.6.3c.9.5,4.3.1,4.3-.7,0,0-.2-.1-.3-.2.3-.2,2.7-.8,3.2-.7,2.9.3,4.2-.4,4.3-.6,0,0,0,0-.1,0,2.7.2,3.9.3,4.8,0q-.2,0-.6-.2s6.2.2,6.5.2c-1.5-.3-1.6-.3-2.1-.5,1.5.1,3,.4,4.5.5-1.3-.5-3.6-1-3.7-1,0,0-5.7-1-7-.9,0,0,0,.2.2.3-.2,0-.5,0-1-.3-.4-.2-5.3-.7-6-.3.2.2.2.2,2.4.4Z"/><path d="M409.2,34.3c-.2.1-.3.3-.4.4-.2.1-.3.1-1,.4.1-.1.2-.3.4-.4,0,0,.1-.1.1-.2,0,0-.5-.2-1.2.2,0,0,.1,0,.2,0,0,0,0,0,0,0-.7.3-1.5,0-2.2.2,0,0,.2,0,.3.1q-.1.1-.1.2t2.1.1c-.7.1-2.4.4-2.7.7,0,0,0,0,0,0,0,0,2.3,0,2.6,0q.2,0,1.7-.6s0,0,0,.2c0,0,0,0,0,0q.7-.3,2.5-1c.4-.1.4-.1.5-.2q0,0-.2,0s-2,0-2.2,0c0,0,0,0,0,0Z"/><path d="M423.6,55.2c.8.2,1.9,3.1,1.9,3.2.2.7.5,1.5.9,1.5,1.2.2,4.4-3.6,4.5-3.6,0-.1.2-.3.2-.4l-7.6-4.8c.3-.1.6-.2,2.9-.4,1,0,1.5-.1,1.6-.4.1-.6-1.8-4.4-3.1-5.1-.6-.3-1.3-.4-1.8-.9-.5-.5,0-1.6-.9-1.9-.8-.4-2.8-.3-4.2-.3-1.5,0-1.5,0-1.7,0,0-.2,0-.5.6-2.4-.5-.4-2.2-.7-2.7-.8-2.7-.3-12.3,3.3-11.3,4.8,1.1,1.4,6.2,2.1,6.9,2.1,0-.4,0-.7,2.2-.2,1.8.4,2.2,0,2.5-.1.3.4,1.1,1.8,1.1,1.8.4.9.3,1.8.7,2.7.4,1.1,2.1,1.6,1.6,3.2,0,0-1.6,3.4-7,3.2-1.6,0-3.2-.7-4.8-.5-.7.1-1.1,1.1-1,1.4.2.3,1,.7,3.9.8q2.2,0,5.2,2.8-.4.2-2,.2c.5,1,6.1,4.3,7.6,4.1q0-.2-.2-.5t-1.9-3.6c2,1,2.6,1.5,3.5,2.7.2.2.3.4.4.4.7,0,2.7-2.1,2.4-2.8-.7-1.6-3-2.2-3-4.3,0-1.7,2.9-1.7,3-1.6Z"/><path d="M400.6,33.8c0,0,.6,0,1.1,0,0,0,.3,0,.3,0,0,0,0,0,0,0,0,0,0,0,0,0-.2,0-1.2.1-1.3.2Z"/><path d="M443.9,56.6l1.4.2s.4,0,.6-.2c.1-.1,0-.3,0-.4,0-.2-.3-.4-.3-.6,0-.1,0-.2,0-.3,0,0,0,0,0,0,0,0-.1-.2-.6-.3-.6,0-2.6.3-1.9,1.1.2.2.5.4.8.5Z"/><path d="M421.6,41.5s0,0,0,0c0-.2-1.6-1.4-3-1.6-1.2-.2-1.1.7-.9,1,.6,1,3.9.7,3.9.7Z"/><path d="M414.8,32.5c-.4,0-1.1,0-1.3.1,0,0,.1,0,.2,0,.6,0,1.2.3,1.2.3-.1.2-.4,0-.5.3,0,.1,1.1,0,1.2,0,.4,0,1.9-.6,1.9-.8-.1-.1-.3,0-.4,0,.2-.2.5,0,.7-.2t-.1,0c-1.1,0-2.7.1-2.9.2.2.1.5,0,.7.1,0,0-.1.1-.7.1Z"/><path d="M408.1,36.1c-.3,0-.4.1-.1.5.2.3,1.1.4,2,0,.5-.2,1.6-.7,1.2-.9,0,0-.1,0-.2,0-.7,0-2.8.4-3,.4Z"/><path d="M421.1,33.9s0,0,0,0c0,0,0,0,0,0,0,0,0,0,0,0-.6,0-1.1,0-1.7,0-.7,0-1.3-.1-2-.1-.5,0-.8,0-.9,0,.1,0,2,.4,3,.5.5,0,.8,0,1.5-.2,0,0,.1,0,.2,0Z"/><path d="M416.5,33.3s0,0,0,0c.2,0,2.2,0,2.8-.1.3,0,.3,0,.4-.1,0-.1-.1-.1-.1-.2,0,0,0,0,0-.2,0,0,0,0,0,0,0,0,0,0,0,0,0,0-.1,0-.2,0,0,0-.2,0-.3,0-.5.1-.9.5-1.4.5-.7,0-.9,0-1.1.2Z"/><path d="M421.5,32.1c1.5-.2,1.5-.2,1.5-.2,0,0,0,0-.1,0,0,0-1.4,0-1.8,0-.5,0-.4.3-.4.3,0,0,.4,0,.9,0Z"/><path d="M424.4,32.5c.6,0,.8,0,.9.2,0,0,0,0,0,0-.2,0-.4,0-1,0-1.6,0-2,0-2.1,0-.4,0-.6.5-.4.6t1,0c.4,0,.8.2,1.2.2,1,0,2-.3,3-.4.6,0,1.2,0,1.9,0,0,0,.1,0,.1,0t-.4-.3s0,0,0,0c.1,0,.2,0,.3,0,.9,0,.9-.1.9-.2,0,0-.2,0-.2-.1.2-.1.5,0,.5-.4.2-.1.5-.1.7-.3,0,0-.1,0-.2,0-1,0-4.6,0-5,0,.2,0,.3,0,.5,0-.3.1-1,0-1.3,0-1.1-.1-1.8.3-1.8.3,0,0,1.3.2,1.4.2Z"/><path d="M411.2,37.2c0,0,9.4,2.3,12.7.7.9-.4-.7-1.1-.7-1.1-.8-.3-5.4-.3-6.3-.3-.9,0-1.2-.9-1-1,0,0,.2,0,.5,0,1.6.1,1-.6.9-.7-.4-.2-.8,0-1.2-.1-.4-.1-.8-.4-1.2-.5-.1,0-.6-.1-.9-.1-.3,0-1.2.5-1.3.7.2,0,.2,0,.6,0,.5,0,1.1,0,1.2.1.2.2-.9.9-.9.9-.6.3-1.3.2-1.8.5-1.1.6-.8.7-.5.8Z"/><path d="M396.1,34.6s0,0,0,0h0c-.3,0-3.1.6-3.3.7.1,0,.2,0,3.3-.7Z"/><path d="M379.7,39.7s0,0,0,0c0,0,.1,0,.2,0,.9-.2,1.8-.7,2.7-.9,1.7-.5,3.4-.7,5-1.2q.4-.1,1-.7s0,0,0,0c-.5,0-1,.1-1.4.2q.4-.2.6-.4s0,0,0,0c0,0-.1,0-.2,0q-1.9.1-11.2,3.5c-.8.3-1.5.5-2.3,1.4,0,0,0,0,0,0,2-.2,3.7-1.3,5.6-1.9Z"/><path d="M392.2,36.4c.2,0,.9,0,1.5-.2,2.7-.5,4-.6,4-.6.8,0,1.6,0,2.4,0,.6,0,3.2-.8,3.2-.8.5-.1.5-.2.6-.2-.3-.1-.7,0-.7,0-.8.1-1.5.4-2.2.6,1-.5,2.2-.8,3.2-1.3,0,0,0,0,0,0,0,0-3.1.4-3.3.8-.1.2-.7.8-2.9.5,0,0,0,0,0,0,0,0,.1,0,.2-.1,0,0,0,0,0,0,.4-.2,1.3,0,1.1-.6,0,0-6.2.7-6.5,1.4t3-.5c-.4.3-.9.3-1.4.5,0,0,0,0,.8,0,.2,0,.6,0,1.3,0-.7.2-2.9.5-4.2.6-.4,0-.5.3-.3.3Z"/><path d="M372.9,44.4c.4.2.8,0,1.1.1,0,0,0,0,0,0-.3.4-.9.5-1.2.8.4.2,4.5-.2,7.1-1.1.8-.3,1.2-.4,1.6-.4,0,0,0,0,0,0q-.3.3-.3.3c.1.2,1.4,1,1.4,1q1.4,0,3.1-.9c0,0,0,0,0,0q-.1,0-1.5.1c.3-.4,1.8-.9,2.7-.5.3.1.4.1.5,0,0,0,.9-.4.9-.9-.5-.6-.5-1.4,0-1.8.4-.3,4.4-2.7,4.4-3-.1-.1-.2-.2-.4-.3,0,0,0-.1,0-.2,0,0,0,0,0,0-1.6.6-3,1.8-4.8,2.1,0-.7.8-.6,1.1-1,0,0,0,0,0-.1-.7,0-1.3.3-2,.2.3-.2.6-.3.9-.5,0,0,0,0,0,0-.9,0-1.8.4-2.7.4.7-.5,1.6-.5,2.4-.9-.5-.1-8.5,1.8-8.6,2.6,0,0,.1.1.2.2-.2.2-.2.2-1.1.4-1.6.3-1.7.5-1.7.6,0,0,.1.1.2.1.8.1,1.5-.2,2.3,0,.5,0,1,.5,1.5.5-1.2.4-2.5.3-3.1.3-3.7-.2-4.6,1.2-4.1,1.6Z"/><path d="M399.4,62.9c.2-.3,0-.3-.3-.4,0,0-1.1-.2-1.4,0-.5.3-.6,1-.5,1.1.3.4,2-.5,2.3-.8Z"/><path d="M399.6,58s.2,0,.3-.1c.2-.2.2-.6,0-.8-.1-.3-.4-.5-.5-.8-.2-.5-.2-1.1-.5-1.5,0,0-.1-.2-.2-.2-.3-.4-.8-.5-1.2-.9-.2-.3,0-.6-.3-.9,0,0,0,0-.1,0-.4,0-2.3,1.4-2.4,1.4-.2.2-.6.4-.8.6l-2.2,1.7q.8.4.7.8t0,.6c.1,0,.4,0,1-.3.8-.3,2.2-.8,3.6-.5.9.2,1.6,1,2.5,1Z"/><path d="M395.8,60.7s-2-.2-2.7,0c-.4.2-.8.9-.6,1.1.3.4,3-.1,3.7-.6.2-.2.3-.4-.3-.5Z"/><path d="M347.9,161.7c-.8,0-.8,1.3-.4,1.6.2.2,1.9,1.2,2.2.4.1-.5-.8-1.9-1.8-2Z"/><path d="M498.2,81.6s0-.1,0-.2c0-.3-.3-1-.7-1.3,0,0-.2-.1-.2-.2-.7-.5-1.6-.6-2.2-1.1-.5-.4-.7-1.1-1.3-1.3-.8,0-1.6,0-2.4-.1-.8,0-1.5-.4-2.3-.4-.5,0-.4.7-.8.7-.5,0-.7-.5-1.2-.4,0,0-.2,0-.2,0-.4.6,0,1.5-.9,1.8-.2-.2-1.3-2-1.4-2.6-.2-1.4-2.5-3-3.4-2.6,0,.6.7.8.9,1.3-.5.8-1.4.3-2,.7.2.2,1,.4,1.5.5.8.1,3,1.9,1.2,2.5.3.9,1.4.6,2,1,.6.4.5.7.3,1.3.1.2.2.3,1.7.7,1,.2,1.3.3,1.6.4.7.3,1.2.8,1.8,1.1,0,0,.2,0,.3.1.2,0,.6.2,2.6.4,1.8.2,5-.8,5.1-1.4,0-.4-.2-.7-.2-1.1q.1,0,.3,0Z"/><path d="M351.2,159.5c.4,1.2,4.9,3.2,5.1,2.7.1-.3-3.4-9.1-3.4-9.2-.5-.6-1.8-2.5-5.5-3.1-2.1,0-3.9.8-3.9.8.2.3,1.7.6,3.1.3,2-.4,3,.6,3,.9-.2.1-.5.3-.9-.2,0,0,0,0,0,0-.2.8,1,1.7,1.9,2.2,1.5,1,1.5,1.4,1.5,2.6,0,.6,0,.9.2,1.5.1.4.2.7.2.9-.2.6-.8.3-1.2.5Z"/><path d="M356.6,167.8c.4.4-.3,1.2.3,1.5,1.1.5,1.6-1.1,2.6-.8.1,0,.2,0,.5.3,1.7.9,4.8,2.1,4.8,2.1.2,0,.3,0,.3-.1.2-.5,0-1.1.3-1.6,1-1.5-7.3-5.3-7.9-5.4-.2,0-.2,0-.3,0q0,.1,0,.3c.8,1.6,0,2.8-.1,2.9-.2,0-.9-.3-1.7-.8-1.6-.9-1.8-.9-1.9-.9,0,0,0,0,0,.1.8,1,2.1,1.4,3,2.4Z"/><path d="M409.1,93.7c-.8,0,.6,1.4.8,1.7,1.8,1.8,3,1,3,1,.5-.5-3-2.5-3.9-2.7Z"/><path d="M333.7,65.1s0,0,0,0c0,0,0,0,0,0h0Z"/><path d="M354.3,50.5,316.4,84.1c-10.9,13.3-18.4,32.5-18.4,32.5v3.7q.3.2,1.9,13.4c-.4-.1-.9-.3-1.3-.4.2,1.6,2.8,9.6,2.9,9.7.7-.5,1.4-1,.2-5-.5-1.8-1.1-3.8-.3-12.4,1.8,2.6,1.7,3.9,1.5,5.5-.1,1.1-.3,2.4,0,3.3.4,1.9,1.2,3.8,1.7,5.7.7,2.5,2.6,4.4,3,7,.3,2.1-1,4.3.5,6.3.2.3.6.6.8.8.5.4,1,1,1.5,1.4,1.8,1.2,3.7,2.2,5.5,3.4,1.8,1.2,4.4.8,6,2.6q3.6,4.2,5.2,4.9c.2.1.5.3.8.4,6.8,3.5,6.6,13.3,14.5,15.8,5.5-4.6,5.2,3.1,4.8,6.6q-.1,1.1-3.6,4.7c0,0-4.6,7.1-4.3,8.8,0,.3.1.7.2.9,1.2,4.7,8.1,18.8,8.1,18.9,1.8,3.1,5.1,4.8,7.1,7.7,1.5,2.2,2.1,5.6,1.5,9.7,0,.2-2.3,19.6,1.2,32,4.5,15.6,13.6,17.3,13.7,17.3q-6.8-7.2-4.8-10.4-.7-1.6-.8-8.4.4,0,1.9.6t-.9-3.4q1.9-.8,2.2-1.8c.2,0,.2,0,.4-.1,2.3,1.8,3.9,0,3.6-1.3l-.4-1.3c5.9,1.9,13.3-11.4,13.4-11.5,1.5-1.5,4.1-1.8,5.1-1.9,2.4-.1,3.3-2.6,5.2-3.4.9-.4,1.5-.2,1.9,0,.8.4.9.4,1.3-.3.9-1.7,1.3-3.5,2-5.3.4-1,.2-2.2,1.2-2.9,1.2-.8,1.6-1.2,1.3-2.1,0-.2,0-.4,0-.6,5.5,0,9.1-4.7,9.1-4.8,0,0,0-.1,0-.2.1-.6-.2-1.2-.1-1.8.1-.9,1.7-1.7.8-2.7-.6-.7-1.6-.4-2.4-.8-2.4-1.5-3.2-4.3-5.4-5.9-3.2-2.4-6.8-4.4-10.1-6.6-1.9-1.5-1.2-4.1-2-6-1.7-2.3-2.6-5.2-4.5-7.4-2.5-2.8-6.5-3.6-8.9-6.5-1.9-2.3-2.6-5.4-4.8-7.5-.3-.3-.8-.7-1.2-.9-11.8-6.3-21.2-11.2-25.8-1.7-2.8-3.9-13.8-3.1-10.7-9,1.8-3.5,1.2-6.8,1.2-6.9-2.4-2.5-5.9-2-8.7-3.2q2.1-2.9,1.9-4.6,2.3-2.5,3.7-5c-.4-.7-3.9-6.3-8.8,4.3-1.6-.7-3.5,1.3-5.1-.5-3.6-4.2-4-8-3.9-9.9.1-2.4,2.5-3.4,3.2-5.4.4-1.3-1.1-2.5-.1-3.8,1.3-1.7,6-4.1,7.1-4.4,1.9-.6,7.1,2.7,7.2,2.7.2,0,.5-.2.7-.2-.3-.6-.9-1-1.2-1.6.1-.2.2-.4.4-.6,1.4-.3,10.7,2.1,10.8,2.2,3.2,3.4-1.1,8.1,1.8,11.6,6-3.1.4-9.7,2.8-14.1,2.5-4.6,7.8-4,11.5-6.1,0,0,0,0,0,0,0-.2-.2-.4-.2-.6,0-.2.2-.4.3-.6.2,0,.4,0,.6,0,0-.2.2-.5.3-.7-.1-.1-.3-.3-.5-.4l4-8.6c-.4,1.3-1.8,5.3-1.8,5.3q.5-.1,2.9-5.8c.1.7.5,1.4.4,2.2,1.3-1.1,1.6-3,3.3-3.7,0,0,6.3-1,6.6-.9q2.1-4.4,5.5-5.9.4.2,9.4-1.5c-.1.1-.3.3-.4.4.3.3.8.6,1.2.7,0,.2-.2.5-.2.6q-5.4,1.6-5.8,2.4c2.9,1.1,13.8-1,13.6-5.6-1.5.4-2.1,1.9-3.3,2.8-.9-.6-1.6-1.1-2.2-1.5.7,0,1.4-.4,1.4-.4,0,0,0,0,0,0,0,0,0,0,0,0,0,0,0,0-.3,0-1.2-.2-1.8-.7-2-.9-.5-.5-.4-.9-.2-1.3,0-.2,0-.2,0-.2,0,0,0,0,0,0,0,0-.8.9-.7,1.7-.9-.9-.9-1.6-.9-3.1-.9-.8-1-.9-1.2-1.6,1.7.1,3,.2,3.9-1.2q-.5-1.1-14.3,2,10.6-5.3,19.4-5c1.4,1.9,10.9.7,13-1.1q0-1.1,1-2.4c0-.3,0-.4,0-.7-.6-.4-1.2-.8-1.9-1.1-.6-.2-.6-.2-.6-.2-.4,0-1.7-.4-4.3.2,0-.2,0-.4,0-.6,1-.7,1.3-.7,4.1-.8h0c.1,0,.4,0,.5-.1.2-.2-1.1-2.5-3.7-2.7q-.6,0-.8-.2c0-.5.5-.9.4-1.4-.2-.8-1.2-.9-1.4-1.7,0-.3.1-.5.6-.9q.8-.5.3-3-1.1-6.1-3.4-3.9c-.4.3,0,1-.5,1.3-.6.3-1.2-.4-1.8,0q-1.3.9-1.6.9c-1.7,0-2.4-1.7-3.6-2.5,0-.5,1.4-3.1,2.5-3.5-.7-.5-1.7-.5-2.4-1-.2-.1-.2-.3-.3-.8,0-.2-.1-.6-1.8-1.9-.4-.3-.5-.3-.8-.4-2-.1-3.7-1.2-5.7-1.1-.3,1.8-2.8,2.5-2.1,4.8-.6.7-1.7.6-2.1,1.6-.5,1.1.4,2.1.1,3.2,0,0-1.4,4.4-4.1,4.1-.6,0-1.9-.1-2,.9-.2.1-.3.1-.9.4-1.5,2.3-1,5.9-4.5,6.9-.4-1.7-1.8-2.6-2.8-3.9,1.4-1.7,1.3-2.5,1.3-3.6.2,0,.7-.2.9-.3,0-.1.1-.3.1-.4-.2-.1-.5-.2-.7-.3-.8-1.5-2.5-1-3.7-1.8-1.2-.8-1.4-2.3-2.4-3.2-.2-.1-.4-.3-.7-.4-1-.6-2.1,0-3.2-.1q-.2-.4.2-3.1.2-.9-1.9-1.8c.5-2.9,8.8-5.5,12.4-6.6,0-1-1.1-.9-1.5-1.5q5.8,1,10.1-1.3c-2.3-.4-2.7-.5-4.1-2,2.3,0,4.5,2.2,6.9.3-.1-.2-.3-.3-.5-.4,0,0,1.5-.9,2.3.2q4,0,5.2-.5c.3-.1.6-.3.8-.5.6-.5.2-1.4.8-2,.5-.5,1.3-.2,1.8-.5.3-.2.5-.6.8-.8,0,0-1.9-4.2-4.5-.2-2.2.4-5.1,4.3-6.6,1.5.7-1.3,3.7-1.2,2.9-2.9-1.6,0-2.7,1.3-4.1,1.8,0-.8,2.1-2.2,2.1-2.2q0,0-1.3-.6,3.5-2.8,3.6-3.2c0-.1-.2-.3-.2-.4q1.9-1.5,9.1-2.9-.4-.2-1.1-.3c-5.1-.6-14.6,6.1-14.7,6.1,0,.1,0,.3,0,.4.5.2,1,.2,1.5.4,0,0,0,.2,0,.3-1.2.2-1.4.2-2.1.5v.2c0,0,0,0,0,0,0,0,.2.1.3.2-1.6,1.4-4,1.2-5.5,2.8q-.5-1.1,1.5-2.1-.8-.5-4.2.7c-.2,0-1.3.3-4.5-1-.1-.4,0-.8,0-1.2-2.9-.3-4.3,1-7,3.6,0-.9.9-1.3,1.1-2.1-1.5-.3-3.1.5-4.6-.3.9-.4,2-.3,2.6-1.2,0-.1-.1-.2-.2-.3-.4,0-.5,0-1.5-.4,0-.2-.2-.5-.3-.7-.8-.1-1.4.4-2.1.6.2-.2.4-.4.6-.5q-.5.1-1.4.5.6-.6,2-1.5l-2.4.9s-12.7,8-17.8,12.6c-5.8,5.2-11.2,10.2-20.1,21Z"/><path d="M367.7,172.4c-.9.2-.3,1.4.5,1.9.6.3,2.6.7,2.7.5,0,0,0-.4-1.2-1.3-1.4-1-1.7-1.1-2-1.1Z"/><path d="M511.4,117.6c.4-.1.9-.3,1.3-.3.5,0,1,.3,1.6,0,.3-.2.4-.9.4-1.9,0-.5-.1-.9-.2-1.3-.2-.7-.1-.9.3-1.3.2-.2.5-.5.5-1.1,0-.5-.2-1-.4-1.3-.1-.2-.3-.3-.4-.5-.4-.4-.8-.6-1.2-1-.3-.3-.3-.4-.4-.5,0,0,0,0,0,0-.1,0-3.3-.3-1.8,1.3,0,.1.1.2.4.3,0,0-.2,0-.3,0-1.4.2-1.8.4-2.2.5-.3.1-.6.4-.7,1,0,.2,0,.5.4.9.3.3.7.4,1.1.6,0,0,0,0,0,0-.8.8-1.8,2.5-1.8,2.5-.4.7-.5,1-.3,1.4.2.6,2.2,1.1,3.9.7Z"/><path d="M527.5,161.1c.1,0,.2,0,.4,0,0,0,.8-.4.8-.4.1-.2-.2-.5-.8-.8-.7-.3-1.9-.6-1.6.1.2.4,1,1.1,1.4,1.2Z"/><path d="M518.2,115.4c-.1,0-.1,0-.1.2l.8.4c-.4-.4-.6-.5-.7-.6Z"/><path d="M550.8,135.6c1.5,1.9,3.4,7.3,4,9.5-.7-3.4-2.4-11.3-3.2-14.7-4-13.3-4.1-13.6-7.1-20.4l-3.3-7h0c-.1-.3-.3-.5-.4-.7.1.4.2.5,1.5,3.5-.3-.4-.5-.8-.8-1.2.2,1.3,1.1,2.3,1.6,3.4,0,0-.2,0-.2,0-2.6-4.2-4.4-8.8-7-12.9,1.4,1.8,2.3,3.9,3.9,5.5-.2-1-4-7.7-6.9-11.2-2.1-2.5-2.2-2.8-2.4-3.2.1,0,.3.2.4.4-.2-.3-.3-.5-.9-1.2,0,0-.2,0-.2,0-.2-.2-.6-.5-1.9-2.3.1.1.3.3.5.4,0-.8-2.7-3.4-2.9-3.5q0,.4.3,1.2c-1-.8-1.1-2.1-2.1-2.9,0,.6.5,1,.5,1.6q-.7.7-.8,1.3c-.2.8.8,6.2.8,6.3.9,3.6.4,4.6.4,4.7q-1.3,2.6-3.2,3.1c-.7.2-.7.4-.7,1.2,0,.1.7,10.9,5,10.5,1.4-.1,1.5-2.3,1.5-3.4.2.3,4.5,9.2,5,11.7.2,1.2.5,2.3,1.5,2.7.3-.3,1.4-2.9,1.1-4.3-.5-3.3,0-3.4.9-3.9.3-.6.3-.9-1.2-2.9q-1-1.3-1.8-4.9c-.3-1.4,1.3-2.3.7-3.8q-1.7-3.7-1.7-3.9c0-.1,0-.3,0-.4,0,0,.1-.1.2-.2.9.7,3.4,4,3.4,4.8,0,0-.2,0-.3,0q.6,6.6,2.2,9.7c1.4,2.7,4.7,3.5,6.2,6.2-.3-.2-.6-.5-.9-.7,0,0-.2,0-.3,0,0,.3.1.6.2.9-1.1-.8-2.1-1.7-3.3-2.4.7,2.4,2.2,4.6,2.5,7.1-1.4-.5-.7-2.6-2.3-3,0,0-.2.1-.2.2,0,0,.6,3.7.7,3.9.1.4.7,2.2.4,2.8q-.8-.4-1-.4c-.2.2-.3.5-.6.7,0,0,0,.2,0,.2h0q-3.8-1.7-4-1.3c-.2,0-.5,0-.7.1-.6-.8-1.6-1.4-2.6-2l1.8,1c-.2-.4-.9-1.3-2.4-1.7-.5-.2-.6-.2-1.5-2.4-.6-1.6-1.3-3.8-.7-5.3.2-.6.2-3.6-.4-3.9,0,0-2.1-.8-2.1.4,0,.5,1,5.9,2.1,8.7.4,1.1.4,1.2.4,1.3-.1,0-.2,0-.7,0-.4,0-1-.2-1.4-.2-1.1-1.5-2.5-2.7-3.4-4.3-.4-.9-.6-1.8-1.2-2.6-1.1-1.3-2.2-2-2.8-2.2,0,0,0,0,0,0,1-.4,3.3-3.6,1.2-4.4-.4-.2-.8-.2-1.1-.3-1.4-.3-1.7-.4-1.6-.7.2-.7,1.9-1.6.9-2,0,0-2.7-.9-3.4,0,0,0,0,.2,0,.3-.2.9.2,1.7,0,2.6-.1.7-.9,1.2-.9,2,.2.2.6.3,1.8-.1.4-.1.8-.3,1,0,.8.9-.7,1.5-.6,2.4.1,1.8.8,2.2,1.7,2.8,1.4,1,1.6,1.1,1.8,1.4,0,.3-.3.5-.2.8.2.9.7,1.6.8,2.6,0,.9-.9,0-1.5-.5q-.3-.2-1.1-.6c0,1.1,1,2,.8,3.2,0,.6-.7.8-1.7.9-.2,0-.6,0-.6.3,0,.1.2.7,2.1,1.3.8.3,2.4.8,2.3,1.3-.5-.1-.8-.1-1.4-.1,0,0,0,0,0,.2-.3,0-.5,0-.7.1-.5.2-.8.8-1.3,1-.6.3-1.3.4-1.9.8,0,0,0,.1,0,.2.2.1.2.1,2.1.6-.2.3-.4.6-.6.8-2-.8-2.2-1.1-2.8-2.1,0,.5.2,1.1.4,1.5-.1.2-.3.4-.4.6-.5,0-1.1,0-1.5,0q-.7-1-2.3-1.5c-.1.2-.3.4-.5.5.3.5.6,1.1.9,1.6-.2,0-.5.1-.7.2,8.4,5.9,3.7,14.7,3.6,14.8-4.2-1.8-8-4.6-12.1-6.6,0,.4.3,1,.4,1.4,0,.1-3.6,11.8-2.3,12.8q-1.7,3.4-1.8,3.7c3.1.8,3.7,1,4.9,1.7q-.2,2.2-.2,2.3h7.9c2,.6,3.4-1.7,2.9-3.8,2.8-4.3,2.8-4.3,6.1-4.4q1.4-3.7,1.8-3.9c1.7-.6,2.2,1.5,3.4,2,1.9-1.6,3.3-2.6,4.5-.4,0,0,4,9.9,5.3,15.5-.2.6-.4,1.3-.3,1.6.1.3.7.4.6.8,0,.4-.4.8-.4,1.2,0,.4.2.5.3.6,0,0,0,0,.1,0-.3,1.3-1.2,1.1-4.7.4.3,1.7,2.1,4.7,2.1,4.8.8-1,.4-2.3,1-3.4.2,0,.4.2.6.3.8-.6,1.3-1.4,2.1-2.1,0,0,0,0,0-.1.4-.1.7-.4.9-.8,0-.1,0-.3.1-.4,0-.5,0-1,.2-1.4,0,0,0,0,0-.1.1.4.3.9.4,1.2,0-.6.1-.9-.2-1.9,0-.2.1-.5.2-.7.2-.8,0-1-.3-1.1-.1,0-.3,0-.5,0-.2-.7-.5-1.5-.9-2.5.1-.2.2-.4.3-.5,0,0,0,.2,0,.3,0,0,.6,1.6.7,1.7.3,0,.7-2,.8-3,0,0,.1-1,0-1.5l1.6,4.2q0,0,0,9.2l.6,7.9c.2-.4.4-.9.6-1.3.6-1.6.5-3.4.7-5.1q.8-5.5,1.4-5.7c.8.5,2.4,2.3,2.2,4,.3-.3.7-.7,1-1,.2,0,.5.1.7.2,2.3-4.4.3-9.6,2.6-14.1.4,0,.9.2,1.2.5-.1.1-.3.3-.5.5.3.9.5,1.2,1.1,1.8q0,.9-.8,2.1c.4.9.3,1.9.6,2.8,2.7-.5.2-4,1.5-5.6,1.1.1,1.1.5,1.1,1.4-.2.1-.4.3-.5.5q.2.7,0,2.9c-.2.1-.4.3-.6.4.2,4.6,2.8,8.9,1,13.6-.2,0-.5,0-.7.1-1.5-2,.1-6.2-3.3-6.5-.2.4-.5.8-.9,1-.3-.3-.8-.6-1.1-.8,0,.4,0,.9.2,1.3-.9.4-1.8-.4-2.7-.2-.2.4-.5,1-.6,1.4.2.1.4.3.5.4-.5,2.5-1.5,7.1.6,10.6.2,0,.4-.2.6-.3,0-.2.1-.5.2-.6.7,1.1.5,2.6,1.4,3.6.3-.3.6-.8.7-1.2.2.4.5.8.8,1.1-2.7,9.2-3.1,10.6-4.9,12.7-1.3-.6-1.4-.9-1.3-2.3-.4-.1-.9,0-1.3,0-4.2-1.8-1.6-7.9-6.1-9.6-1.4,1.2-1.3,3.2-2.4,4.5-.2,0-.5,0-.7,0-.7-1-7.4-13.5-7.7-14.9,0-.4.4-1,.8-1.3q.8-.7,2.3-6.1c-.8-1.1-1-1.3-1.5-1.9q-1.1.4-4.4-1.7c-.4.2-.9.5-1.3.8-4-3.5-9.6.3-13.7-2.9-.5-.2-.6-.3-.7-.3-1.4-.2-1.9-.3-2.7-2.5-.2-.3-.2-.3-.2-.3-.2,0-.6.2-.8.3-1.3.8-1.1,2.5-2.4,3.3-1.5,1-3.5.2-5,1.4-.4.3-.6,1.1-.8,1.7q-2.3,5.6-4.1,5.8c-1.6.2-4.6,1.2-5.1,1.5-1.3,1.1-11.4,9.7-11.4,9.7-1.3,2.8-.2,5.9-1.2,8.8-.8,2.4-4.6,2.3-4.5,5.5.2,4.7,1,9.3,1.5,14,.2,2,4.2,9.8,5.4,10.1,5.8,1.5,12.1,1.2,17.6,3.9.2,0,.3.3.4.5.7,1.2-.6,2.6.1,3.8.7,1.2,2.1,1.2,3.2,2q0,2.5-1.7,4.4-4.7,5.1-4.9,7c-.3,2.9-.8,7-7.1,13.9-2.9,3.2-7,4.9-10.3,7.6-3.1,2.5-4.7,6.3-7.6,8.9-11.5,10.1-11.8,10.2-13.3,11-1,.5-1.6.8-3.1,2.3,3.2,2.4,8.5,1,10.2.5l7-2,9.1-3.2c2.2-1.1,3.9-3,6.2-3.9,2.6-1.1,5.5-1.1,8.1-2.3,6.2-2.8,13.6-10.1,14.4-11,3.3-3.7,11.8-8.3,14.3-9.6,4-2.2,10.7-9.1,12.8-12.1q-.6-.5-2-.7t2.3-5.5c.9-1.8,1.1-3.9,1.8-5.8,1.6-5,4.4-9.6,5.7-14.8l4.2-16.2q.1.6-.3,3c.4-.2.9-.6,1.2-1-.9,13-8.5,23.7-12.3,35.7q1.5-.2,2.1.2,6-6.2,6.5-7.1c-.1.2-.2.5-.4.7.2-.4.5-.9.7-1.2l.2-.4,1.3-2.6c.6-1.2,1.3-2.7,3.1-6.9,0,.2-.2.4-.2.6,1.5-3.6,3.3-8.2,4.5-11.7,1.1-3.7,2.6-8.5,3.5-12.3.2-1.1.4-2.2.6-3.1.1-3.2.2-3.6,2.1-14.3,0,0,0,.1,0,.2q.7-15.2.8-15.8s0,0,0,0c0-4.8.5-6.5,0-11.4l-2-10.3c-.7-2-1.6-4-3.2-6ZM525.3,118.8c0,0,0,0,.6.3-.2,0-.5-.2-.7-.2,0,0,0,0,0,0,0,0,0,0,0,0ZM537.8,155.1s0,0,0,0c-.2.4-.2.9-.4,1.4-.2.5-.5.6-.7.7-.1,0-.3.1-.3.4,0,0,0,0,0,0-1.3-1.2-2.3-2.3-3.5-12.2.3-.2.8-.4,1.2-.5l3.8,9.9s0,0,0,.1Z"/></g><circle class="cls-17" cx="481.3" cy="202.1" r="6.7"/><circle class="cls-17" cx="528.4" cy="100.1" r="5"/><path class="cls-17" d="M324.7,116.8c0,.1-1.1.5-2.4.7-1.4.3-2.5.4-2.5.2,0-.1,1.1-.5,2.4-.7,1.4-.3,2.5-.4,2.5-.2Z"/><path class="cls-17" d="M344.5,114.2c0,.1-2.2.5-4.9.8-2.7.3-5,.4-5,.3,0-.1,2.2-.5,4.9-.8,2.7-.3,5-.4,5-.3Z"/><path class="cls-17" d="M364.5,113.2c0,.1-2.2.3-5,.4-2.8,0-5,0-5-.2,0-.1,2.2-.3,5-.4,2.8,0,5,0,5,.2Z"/><path class="cls-17" d="M384.4,114.8c0,.1-2.2-.1-5-.4-2.7-.3-5-.6-4.9-.7,0-.1,2.3-.1,5,.2,2.8.3,4.9.8,4.9.9Z"/><path class="cls-17" d="M403.6,120.1c0,.1-2.2-.6-4.8-1.5-2.6-.9-4.7-1.6-4.7-1.7,0-.1,2.2.3,4.9,1.2,2.6.9,4.7,1.8,4.6,2Z"/><path class="cls-17" d="M421.4,129.1c0,.1-2-1-4.4-2.3-2.4-1.4-4.3-2.4-4.3-2.6,0-.1,2.1.8,4.5,2.1,2.4,1.4,4.2,2.7,4.2,2.8Z"/><path class="cls-17" d="M437.5,141c0,.1-1.8-1.3-4-3-2.1-1.7-3.9-3.2-3.8-3.3,0-.1,2,1.1,4.1,2.9,2.1,1.7,3.7,3.3,3.7,3.4Z"/><path class="cls-17" d="M451.5,155.3c-.1,0-1.7-1.5-3.6-3.5-1.9-2-3.3-3.8-3.2-3.9.1-.1,1.7,1.5,3.6,3.5,1.9,2,3.3,3.8,3.2,3.9Z"/><path class="cls-17" d="M463.6,171.2c-.1,0-1.5-1.7-3.1-3.9-1.6-2.2-2.8-4.1-2.7-4.2.1,0,1.5,1.7,3.1,3.9,1.6,2.3,2.8,4.1,2.7,4.2Z"/><path class="cls-17" d="M473.7,188.4c-.1,0-1.3-1.8-2.7-4.2-1.3-2.4-2.3-4.4-2.2-4.5.1,0,1.3,1.8,2.7,4.2,1.3,2.4,2.3,4.4,2.2,4.5Z"/><path class="cls-17" d="M479.3,197.1c0,0,.2.5.4,1.4,0,.5.2,1.1.3,1.6,0,.3,0,.6.1.9v.5c0,0,.1.3.1.3h0c0,.1,0,.2,0,.2h0s0,0,0,0h0s0,0,0,0h0c.5-.1-.6.2-.5.1-1.1-2.6-1.8-4.7-1.7-4.8s1.1,2,2.2,4.6c.1,0-1,.3-.5.1h0s0,0,0,0h0s0,0,0,0h0s0,0,0,0h0c0-.1,0-.4,0-.4v-.5c0-.3-.1-.6-.2-.9,0-.5-.1-1.1-.2-1.6,0-.9,0-1.5,0-1.5Z"/><path class="cls-17" d="M478,178.4c.1,0,.4,2.1.5,4.7.1,2.6.1,4.7,0,4.7-.1,0-.4-2.1-.5-4.7-.1-2.6-.1-4.7,0-4.7Z"/><path class="cls-17" d="M478.3,159.7c.1,0,.2,2.1,0,4.7-.1,2.6-.3,4.7-.5,4.7-.1,0-.2-2.1,0-4.7.1-2.6.3-4.7.5-4.7Z"/><path class="cls-17" d="M480.7,141.2c.1,0,0,2.1-.5,4.7-.4,2.5-.9,4.6-1,4.6-.1,0,0-2.1.5-4.7.4-2.6.9-4.6,1-4.6Z"/><path class="cls-17" d="M486.4,123.4c.1,0-.7,2-1.6,4.4-.9,2.4-1.6,4.4-1.8,4.3-.1,0,.4-2.1,1.3-4.5.9-2.4,1.9-4.3,2.1-4.2Z"/><path class="cls-17" d="M497.3,108.4c0,.1-1.4,1.5-3.1,3.5-1.7,1.9-3,3.6-3.1,3.5-.1,0,1-1.9,2.7-3.8,1.7-1.9,3.4-3.2,3.5-3.1Z"/><path class="cls-17" d="M514,100.4c0,.2-2,.6-4.5,1.4-2.4.8-4.4,1.6-4.4,1.5,0-.1,1.8-1.2,4.3-2,2.5-.8,4.6-1,4.6-.9Z"/><path class="cls-17" d="M528.4,100.1c0,.1-1.2.2-2.6,0-1.4-.1-2.5-.3-2.5-.4,0-.1,1.1-.2,2.6,0,1.4.1,2.5.3,2.5.4Z"/><path class="cls-17" d="M327.9,117.8c0,3.7-3,6.7-6.7,6.7s-6.7-3-6.7-6.7,3-6.7,6.7-6.7,6.7,3,6.7,6.7Z"/><path class="cls-24" d="M412.8,332.2s3.4-1.8,6.4-1.1c3,.7,14,7.8,14,7.8l15.4-2.9,5,27.6-40.7,12.8v-44.3Z"/><path class="cls-24" d="M385.9,340.3s9.3-.4,12.2-1.9c2.9-1.4,9.7-7.5,11.1-7.4,1.4.1,6.6,1.1,6.6,1.1l-2.1,6.3s10.3,6.3,13.4,8.6,12.7,12.6,13.2,15.2-.3,5.5-1.5,6.5c-1.2,1-5.6-1-5.6-1,0,0,.7,2.3-1,4.5-1.6,2.2-5.5,1.4-5.5,1.4,0,0-.3,3.6-2.1,4.3-1.8.7-5.7-1.3-5.7-1.3,0,0-1.2,3.1-2.6,3.4-1.4.3-5.5-2.1-5.5-2.1,0,0-21.1-14.1-25.1-16l-1.9,2.5,2.1-24Z"/><path class="cls-21" d="M418.9,376.6c0,0-.1-.3-.3-.8-.2-.5-.5-1.1-.9-1.8-.8-1.3-1.5-2.4-1.4-2.5.1,0,1,.9,1.8,2.2.4.7.7,1.4.8,1.9.1.5,0,.9,0,.9Z"/><path class="cls-21" d="M426.2,374.4c-.1,0-1-1.5-2.2-3.3-1.2-1.8-2.5-3-2.4-3.2,0-.1,1.6,1,2.8,2.9,1.2,1.9,1.9,3.6,1.8,3.6Z"/><path class="cls-21" d="M433.2,368.1c-.2,0-.6-1.9-1.9-3.9-1.2-2.1-2.6-3.4-2.5-3.5,0-.1,1.7,1.1,3,3.3,1.3,2.1,1.5,4.2,1.4,4.2Z"/><path class="cls-21" d="M428.1,354.4c.1,0,.5,1.3.6,2.9,0,1.7-.2,3-.3,3-.2,0-.1-1.3-.2-3,0-1.6-.2-2.9,0-3Z"/><path class="cls-24" d="M402.5,344.5s2.7-8.8,3.7-9.9c1-1.1,10.2-3.5,10.2-3.5l2.8,7.4-2,2.2-4.4-.3s-2.7,7.2-10.3,4.2Z"/><path class="cls-24" d="M385.7,361.9s-1.3,1,0,3.3c1.3,2.3,4.7.7,5.8,0,0,0-1.6,3.8.4,5.1,2.1,1.2,4.6.9,4.6.9,0,0-.1,2.3,2.9,3.8,3,1.5,3.7,0,3.7,0,0,0,.3,3.8,3.7,4.2,3.4.3,4.6-.8,4.6-.8l-1.5-2.3s2-4,.4-5.8c-1.5-1.8-4.1-1.5-4.1-1.5,0,0,.7-3.6-1.3-4.6-3.6-1.8-5.2,1.6-5.2,1.6,0,0-.2-3.9-3.1-3.8-2.9,0-4.4,1.8-4.4,1.8l-6.6-1.8Z"/><path class="cls-21" d="M399.8,365.7c.1,0-.4,1.4-1.3,2.9-.9,1.5-1.8,2.6-1.9,2.6-.1,0,.6-1.3,1.5-2.8.9-1.5,1.6-2.7,1.8-2.7Z"/><path class="cls-21" d="M406.3,369.2c.1,0-.4,1.5-1.5,3-1.1,1.6-2.2,2.6-2.3,2.5-.1-.1.8-1.3,1.9-2.8,1-1.5,1.8-2.8,1.9-2.7Z"/><path class="cls-15" d="M526,153.5c-4,.5-8.2-2.3-9.1-6.3-.9-3.9,1.5-8.4,5.3-9.7-2.5-2.5-3.2-6.7-1.7-9.9,1.6-3.2,5.3-5.2,8.9-4.7,0-3.5,2.1-6.9,5.2-8.7,3.1-1.7,7-1.7,10.1,0,3.8-3.4,10.1-3.7,14.2-.6,3.4-.7,7.2,1.1,8.8,4.1,1.7,3.1,1.1,7.2-1.3,9.7"/><path class="cls-24" d="M524.8,154.6c1.1-18.2,16-32.4,34.1-32.8h1.8c19.5.7,29.8,17.7,28.5,37.2l1.2,69.5h0l-47.4,17-.4-25s-18.8-2.5-19.4-21.3c-.3-9,.6-27.7,1.6-44.6Z"/><path class="cls-21" d="M542.4,220.5s12,.5,24.4-7.7c0,0-5.5,13.6-24.2,12.3l-.2-4.6Z"/><path class="cls-15" d="M530.1,171.6c0,1.4,1.2,2.6,2.6,2.6,1.5,0,2.7-1.1,2.7-2.5,0-1.4-1.2-2.6-2.6-2.6-1.5,0-2.7,1.1-2.7,2.5Z"/><path class="cls-15" d="M529,163.7c.3.3,2.3-1.2,5.2-1.3,2.9,0,5,1.3,5.3,1,.2-.2-.2-.8-1.1-1.4-.9-.6-2.5-1.3-4.3-1.2-1.8,0-3.3.7-4.1,1.4-.9.7-1.2,1.3-1,1.5Z"/><path class="cls-15" d="M556.3,171.6c0,1.4,1.2,2.6,2.6,2.6,1.5,0,2.7-1.1,2.7-2.5,0-1.4-1.2-2.6-2.6-2.6-1.5,0-2.7,1.1-2.7,2.5Z"/><path class="cls-15" d="M557.3,163.7c.3.3,2.3-1.2,5.2-1.2,2.9,0,5,1.3,5.3,1,.2-.2-.2-.8-1.1-1.4-.9-.6-2.5-1.3-4.3-1.2-1.8,0-3.3.7-4.1,1.4-.9.7-1.2,1.3-1,1.5Z"/><path class="cls-15" d="M547.3,185.3c0-.2-1.8-.4-4.7-.7-.7,0-1.4-.2-1.6-.7-.2-.5.1-1.3.4-2.2.7-1.8,1.3-3.7,2.1-5.6,2.9-8,4.9-14.6,4.6-14.7-.3-.1-2.9,6.3-5.8,14.3-.7,2-1.3,3.9-2,5.7-.3.8-.7,1.8-.3,2.9.2.5.8.9,1.2,1.1.5.1.9.1,1.3.1,2.9,0,4.7,0,4.7,0Z"/><path class="cls-15" d="M556.3,153.9c.4.7,2.8-.1,5.9-.3,3-.2,5.6.3,5.9-.5.1-.4-.4-1-1.5-1.6-1.1-.6-2.8-1-4.6-.9-1.8.1-3.4.7-4.4,1.4-1,.7-1.4,1.4-1.3,1.7Z"/><path class="cls-15" d="M528.5,153.5c.6.6,3,0,5.8-.2,2.9-.2,5.3.3,5.8-.4.2-.3-.2-1-1.2-1.6-1.1-.6-2.8-1.1-4.8-1-2,0-3.7.7-4.6,1.4-1,.7-1.3,1.4-1,1.7Z"/><path class="cls-15" d="M526.4,146s4.7-11.8,10.3-14.7c6.8-3.5,9.9,4,16.4,2,6.5-2,13-5.3,19.7-.4,7.4,5.4,4.1,9.3,4.7,17.6,2.5,33.7,8.9,43.1,10.3,27.2.2-1.7,5-3.2,5.5-10.6.7-9.5.9-21.1-1.4-27.8-1.9-5.7-5.2-9.5-11.2-13.8-9.3-6.7-22-6.6-30.5-5.5-8.6,1-24.9,11.3-23.8,25.9Z"/><path class="cls-24" d="M586.6,177.3c0-2.9,2.5-5.2,5.4-5,3.5.3,7.4,2.2,7.3,9.4-.1,12.8-13,10-13,9.7,0-.2.2-8.7.3-14Z"/><path class="cls-21" d="M589.2,186.6c0,0,.2.2.6.3.4.2,1,.3,1.7,0,1.4-.5,2.5-2.6,2.6-4.9,0-1.2-.2-2.3-.6-3.2-.4-.9-1-1.6-1.7-1.7-.7-.2-1.2.2-1.3.6-.2.4,0,.6-.2.6,0,0-.3-.2-.2-.7,0-.3.2-.6.5-.8.3-.2.8-.4,1.2-.3,1,0,1.9,1,2.3,2,.5,1,.8,2.3.7,3.6-.1,2.6-1.5,5-3.3,5.5-.9.2-1.7,0-2-.4-.4-.3-.5-.6-.4-.6Z"/><path class="cls-15" d="M585.9,152.5c-1.6,1.2-3.4,2.4-5.4,2.6-2,.2-4.3-.9-4.7-2.8-.2-.9,0-1.9-.6-2.6-.7-.8-2-.5-3.1-.4-3.7.5-7.6-2.1-8.6-5.7-.9,1.4-3.1,1.4-4.6.5-1.5-.9-2.4-2.4-3.6-3.7-1.2-1.3-2.8-2.4-4.4-2.1-.9.2-1.8.7-2.8.7-1.7-.1-2.5-2.1-2.8-3.7-.3-1.7-.5-3.6-2-4.5-1.3-.8-3-.3-4.6,0-1.5.3-3.6,0-4-1.6-.2-.8,0-1.6.5-2.3,1.9-3.2,6.3-4.7,9.7-3.3,1.2-4.3,5.1-7.6,9.4-8.2,4.4-.6,9,1.7,11.2,5.6,2.7-2.5,6.6-3.6,10.2-2.9,3.6.7,6.7,3.3,8.2,6.7,3.1-.9,6.7.2,8.7,2.8,2,2.5,2.4,6.2.9,9.1,2.3,1.3,4.3,3.5,4.4,6.2.1,2.7-2.4,5.3-5,4.7,1.1,2,.3,4.9-1.7,6.1-2,1.2-4.8.6-6.1-1.3"/><path class="cls-14" d="M544.2,127.3s0,0,0,.2c0,.2,0,.4,0,.7.1.6.4,1.5,1,2.4.6,1,1.5,2.1,2.9,3,1.4.9,3.2,1.5,5.3,1.4l-.2-.3c-.4,1.1-.2,2.4.3,3.5.5,1.1,1.4,2.1,2.3,3.1.5.5.8,1,1.5,1.4.6.4,1.3.6,2,.7,1.4.2,3.1-.3,4.1-1.6h-.5c.4,2.4,1.9,4.9,4.2,6.4,1.2.9,2.8,1.4,4.2,1.3,1.5,0,2.9-.5,4.1-1h-.3c.7,1.4,1.8,2.8,3.1,3.7,1.3,1,3,1.5,4.5,1.1,3-.7,5-3.3,5.3-5.6h-.3c1.5.9,3.1,1,4.4.7,1.3-.3,2.3-.9,3-1.4.7-.6,1.1-1.2,1.4-1.6.2-.4.3-.7.3-.7,0,0-.4,1-1.8,2.1-.7.5-1.7,1.1-3,1.3-1.2.2-2.8.2-4.2-.6h-.2c0-.1,0,.1,0,.1-.4,2.2-2.2,4.6-5,5.2-1.4.4-2.9-.1-4.1-1.1-1.2-.9-2.3-2.2-2.9-3.7v-.2c-.1,0-.3,0-.3,0-1.3.5-2.6.9-3.9.9-1.4,0-2.7-.4-3.9-1.2-2.2-1.4-3.6-3.8-4-6.2v-.6c0,0-.5.5-.5.5-.9,1.1-2.3,1.5-3.6,1.4-.7,0-1.3-.3-1.8-.6-.5-.3-.9-.9-1.4-1.4-.9-1-1.7-1.9-2.2-3-.5-1-.7-2.2-.3-3.2v-.3c0,0-.2,0-.2,0-2,.2-3.7-.4-5.1-1.3-1.4-.8-2.3-1.9-2.9-2.8-1.2-1.9-1.2-3.3-1.3-3.2Z"/><path class="cls-15" d="M557.3,186.3c-.5,0,0,3.1-2.1,5.7-2.2,2.6-5.5,2.8-5.4,3.3,0,.2.8.5,2.2.3,1.3-.2,3.2-1,4.6-2.6,1.3-1.6,1.7-3.5,1.6-4.7-.1-1.3-.6-2-.8-1.9Z"/><path class="cls-17" d="M439.8,333.7c1.6-.6,68.1-8.7,68.1-8.7l21.8-18.4-2,53.4-79.1,7.6-8.7-33.8Z"/><path class="cls-19" d="M520,314.7c-.7.3-6,5.1-6,5.1l1.6,41.1,4.4-46.2Z"/><path class="cls-15" d="M611.4,411.3h-90.6s4.8,25.6,6.6,37.4c1.8,11.8,4.4,20.1,4.4,20.1h82.1s6.1-14.9,7.2-24.4c1.1-9.5-9.6-33.1-9.6-33.1Z"/><path class="cls-15" d="M514,414.4s-2.5,29.1,0,54.4h31.4v-23.3l-31.4-31.1Z"/><path class="cls-1" d="M531.5,271.5l9.8-21.4,1.2-13.2s18.7-11.8,27.6-16.2c8.9-4.4,20.9-8.5,20.9-8.5v12.5l-59.4,46.8Z"/><path class="cls-17" d="M613.1,380.7s5.3-71.3,5.7-76.6c0,0,3.1-38.1-3.6-52.6-6.8-14.5-21.9-27.3-21.9-27.3l-1.4-7.6-29.6,18.6-13.7,11.9s-7.8,8.2-12.9,16c-3.9,5.4-8.2,12.3-10.1,21-.7,3.2-8.8,41.1-9.1,67.6,0,0-1.3,23.1-2.6,36.1-1.6,16.2-4.2,53.1-3.6,74.9l95.8-2.9c23.7-3.6,19.5-6,19.5-6l-12.5-73.2Z"/><path class="cls-15" d="M590.9,224.7s-.2.1-.7.3c-.5.2-1.1.5-2,.8-.8.4-1.9.9-3,1.6-1.1.7-2.5,1.4-3.9,2.4-5.7,3.9-13.3,10.4-21,19.5h0c0,0,0,0,0,0-2.9.5-6,1.1-9.2,1.7l.2-.2c-.1,4.3-.3,8.8-.5,13.4h0c0,.1,0,.2,0,.2-4.6,4.4-9.3,9.3-13.5,14.8-1.7,2.3-3.3,4.6-4.6,7l-.5.9-.4.9c-.3.6-.5,1.3-.7,1.9-.4,1.3-.8,2.6-1.1,3.9-1.4,5.2-2.6,10.2-3.7,15-2.2,9.6-4,18.3-5.5,25.7-3,14.6-4.7,23.7-4.7,23.7,0,0,0-.6.2-1.7.2-1.1.4-2.7.8-4.7.7-4.1,1.9-10.1,3.3-17.4,1.5-7.3,3.2-16,5.4-25.7,1.1-4.8,2.2-9.9,3.7-15.1.3-1.3.7-2.6,1.2-3.9.2-.7.4-1.3.7-2l.4-1,.5-.9c1.3-2.4,2.9-4.8,4.7-7.1,4.3-5.6,8.9-10.5,13.6-14.9v.2c0-4.6.2-9.1.4-13.4v-.2s.2,0,.2,0c3.2-.6,6.3-1.1,9.2-1.7h-.1c7.8-9,15.4-15.5,21.2-19.3,1.4-1,2.8-1.7,4-2.4,1.2-.6,2.2-1.1,3.1-1.5.9-.3,1.5-.6,2-.8.5-.2.7-.2.7-.2Z"/><path class="cls-17" d="M558.8,281l1.1,95.1-14.5,92.6h38.2s17.4-70.3,21.4-85.1c3.9-14.4,9.8-86.6,10.3-90.2.2-1.4,4.3-26.3-7.8-38.1"/><path class="cls-15" d="M607.5,255.4s.3.3.8.8c.5.5,1.2,1.4,2.1,2.6,1.7,2.4,3.6,6.3,4.8,11.7,1.1,5.4,1.5,12.2.7,20.1-.6,3.9-.9,8.1-1.3,12.5-.4,4.4-.8,9.1-1.3,14-.9,9.8-1.9,20.6-3.2,32.2-.6,5.8-1.3,11.8-2.1,17.9-.8,6.1-1.6,12.5-3.4,18.9-6.4,25.4-13.4,53.4-20.8,82.8v.2h-.3c-1.3,0-2.7,0-4.1,0-11.6,0-23,0-34.1,0h-.3v-.3c5.4-34.2,10.4-65.7,14.6-92.6h0c-.3-28.8-.6-52.5-.7-69.1,0-8.3-.1-14.8-.2-19.2,0-2.2,0-3.9,0-5,0-1.1,0-1.7,0-1.7,0,0,0,.6,0,1.7,0,1.1,0,2.8,0,5,0,4.4.2,10.9.3,19.2.2,16.6.5,40.4.9,69.2h0s0,0,0,0c-4.2,26.9-9.1,58.5-14.4,92.6l-.3-.3c11.1,0,22.5,0,34.1,0h4.1l-.3.2c7.4-29.4,14.4-57.4,20.8-82.8,1.7-6.3,2.5-12.6,3.4-18.8.8-6.1,1.5-12.1,2.1-17.9,1.3-11.6,2.3-22.3,3.2-32.2.5-4.9.9-9.6,1.3-14,.4-4.4.7-8.6,1.3-12.5.8-7.8.5-14.6-.6-20-1.1-5.4-3-9.3-4.7-11.7-.8-1.2-1.5-2-2-2.6-.5-.5-.8-.8-.8-.8Z"/><path class="cls-15" d="M578.9,385.5c0,0-1.2-.2-3-.9-1.8-.6-4.2-1.5-6.9-2.7-2.6-1.2-5-2.4-6.6-3.3-1.7-.9-2.6-1.6-2.6-1.6,0,0,1.1.5,2.8,1.3,1.7.8,4,2,6.7,3.1,2.6,1.2,5.1,2.2,6.8,2.9,1.8.7,2.8,1.1,2.8,1.2Z"/><path class="cls-15" d="M513.6,391.8s0,0,0-.2c0-.2,0-.4,0-.7,0-.7,0-1.6.2-2.8.2-2.5.4-6,.7-10.3.6-8.7,1.4-20.7,2.6-33.9,1.2-13.2,2.5-25.2,3.6-33.8.6-4.3,1-7.8,1.4-10.2.2-1.2.3-2.1.4-2.8,0-.3,0-.5.1-.7,0-.2,0-.2,0-.2,0,0,0,0,0,.2,0,.2,0,.4,0,.7,0,.7-.2,1.6-.3,2.8-.3,2.5-.7,5.9-1.2,10.2-1,8.6-2.3,20.6-3.5,33.8-1.2,13.2-2.1,25.2-2.7,33.9-.3,4.3-.6,7.8-.8,10.3-.1,1.2-.2,2.1-.2,2.8,0,.3,0,.5,0,.7,0,.2,0,.2,0,.2Z"/><path class="cls-15" d="M590.9,243.4c-.2,0-1.1-3.7-3.6-7.6-2.5-3.9-5.4-6.4-5.3-6.5,0,0,.8.5,1.9,1.6,1.1,1.1,2.5,2.7,3.8,4.7,1.3,2,2.1,4,2.6,5.4.5,1.5.6,2.4.6,2.4Z"/><path class="cls-15" d="M523.5,361.6s.1.2,0,.7c0,.4-.2,1.1-.8,1.7-.6.6-1.7,1-2.8.6-.5-.2-1-.5-1.4-1-.4-.5-.6-1.1-.6-1.8,0-.8.3-1.6.7-2.2.2-.3.5-.6.9-.7.4-.1.6-.2.9-.3h0s0,0,0,0c.7,0,1.4.2,1.8.5.5.3.7.8.9,1.2.2.8.2,1.2.2,1.2,0,0-.1-.4-.4-1.1-.2-.3-.4-.7-.8-1-.4-.3-1-.4-1.6-.4h0c-.3,0-.6.2-.9.3-.3.1-.5.3-.7.6-.4.5-.6,1.2-.6,1.9,0,1.1.7,2,1.6,2.3.9.4,1.8,0,2.3-.4.6-.5.8-1.1.9-1.5,0-.4,0-.7.1-.7Z"/><path class="cls-15" d="M522.1,395.2s.1.2,0,.7c0,.4-.2,1.1-.8,1.7-.6.6-1.7,1-2.8.6-.5-.2-1-.5-1.4-1-.4-.5-.6-1.1-.6-1.8,0-.8.3-1.6.7-2.2.2-.3.5-.6.9-.7.4-.1.6-.2.9-.3h0s0,0,0,0c.7,0,1.4.2,1.8.5.5.3.7.8.9,1.2.2.8.2,1.2.2,1.2,0,0-.1-.4-.4-1.1-.2-.3-.4-.7-.8-1-.4-.3-1-.4-1.6-.4h0c-.3,0-.6.2-.9.3-.3.1-.5.3-.7.6-.4.5-.6,1.2-.6,1.9,0,1.1.7,2,1.6,2.3.9.4,1.8,0,2.3-.4.6-.5.8-1.1.9-1.5,0-.4,0-.7.1-.7Z"/><path class="cls-15" d="M603.2,249.8c0,0-1.3-.7-3.5-1.6-1.1-.4-2.5-.8-4-1.1-1.5-.3-3.3-.5-5.1-.5-1.8,0-3.5.3-5.1.6-1.5.4-2.9.8-4,1.3-2.2.9-3.4,1.8-3.5,1.7,0,0,.3-.3.8-.6.3-.2.6-.4,1.1-.6.4-.2.9-.5,1.5-.7,1.1-.5,2.5-1,4-1.4,1.6-.4,3.3-.6,5.2-.6,1.9,0,3.6.2,5.2.5,1.6.3,3,.8,4.1,1.3.6.2,1,.5,1.5.7.4.2.8.4,1.1.6.6.4.9.6.9.6Z"/><g class="cls-19"><path d="M519.5,338.7c4.1-6,5.7-11.7,7.9-18.7,3.3-10.3,4.2-22,9.4-31.6,3-5.6,6.6-11.4,11.9-15,5.1-3.5,5.9-8,5.8-20.1,3.7,0,7.6-2.8,8-3.3,2.5-2.7,4.3-7,4.5-8.5-2.6,2.8-6.9,7.5-6.9,7.5,0,0-9.3,1.7-9.2,1.7-.2,4.7-.2,8.7-.5,13.4,0,0-17.9,19-19.3,22.8-1.4,3.8-11.6,51.7-11.6,51.7Z"/></g><g class="cls-19"><path d="M586,457.3c22.7-42.9,29.7-99.4,28.4-153.2,0,0-6.5,65.4-8.7,76.6-2.2,11.1-19.7,76.6-19.7,76.6Z"/></g><path class="cls-15" d="M589.5,217.8s-.2.1-.5.4c-.4.3-.9.6-1.5,1-1.4.9-3.3,2.2-5.6,3.7-4.8,3.1-11.4,7.3-18.6,12-2.8,1.8-5.5,3.5-8,5.1h0c-.9.7-1.7,1.3-2.6,2-.9.6-1.6,1.3-2.3,2-1.4,1.4-2.7,2.7-3.8,3.9l-.2.2v-.3c-1.3-2.8-2.3-5.1-3-6.8-.3-.8-.6-1.4-.8-1.9-.2-.4-.3-.7-.2-.7s.1.2.3.6c.2.5.5,1.1.9,1.8.8,1.6,1.8,3.9,3.1,6.7h-.3c1.1-1.3,2.3-2.6,3.8-4,.7-.7,1.5-1.4,2.3-2,.8-.6,1.7-1.3,2.5-2h0s0,0,0,0c2.5-1.6,5.2-3.3,8-5.1,7.3-4.6,13.9-8.8,18.7-11.9,2.4-1.5,4.3-2.7,5.7-3.5.6-.4,1.2-.7,1.6-.9.4-.2.6-.3.6-.3Z"/><path class="cls-15" d="M262.8,194.8c-2.6-7.2-5.2-14.4-6.6-22-1.4-7.5-1.4-15.4,1-22.7.4-1.1,3.5-8.5,4.7-8.4.8,0-1,6.9-.6,7.6,4.2,6.7,5.6,14.9,5.3,22.8-.4,7.9-1.7,15.1-3.8,22.7"/><path class="cls-24" d="M265.2,235.6l-2.8-69.5c-1.3-19.2,7.3-36.3,26.4-37.1h2.1c17.7.3,32.2,14.2,33.3,31.9,1.1,16.7,2,35.2,1.7,44.2-.5,18.4-19,21-19,21,0,0,.8,13.3.9,18.7,0,0-1.9,1.4-19.1,2-17.2.6-23.6-11.2-23.6-11.2Z"/><path class="cls-21" d="M307,226s-11.6.5-23.9-7.5c0,0,5.6,13.5,24,12.2l-.2-4.7Z"/><path class="cls-15" d="M318.7,178.2c0,1.4-1.1,2.6-2.6,2.6-1.4,0-2.6-1-2.7-2.4,0-1.4,1.1-2.6,2.6-2.6,1.5,0,2.6,1,2.7,2.4Z"/><path class="cls-15" d="M293.2,178.9c0,1.4-1.1,2.6-2.6,2.6-1.4,0-2.6-1-2.7-2.4,0-1.4,1.1-2.6,2.6-2.6,1.5,0,2.6,1,2.7,2.4Z"/><path class="cls-15" d="M319.7,171c-.3.3-2.3-1.2-5.1-1.2-2.8,0-4.9,1.3-5.2,1-.1-.2.2-.8,1.1-1.4.9-.6,2.4-1.3,4.2-1.2,1.8,0,3.2.7,4.1,1.4.9.7,1.1,1.3,1,1.5Z"/><path class="cls-15" d="M292.4,171.8c-.3.3-2.3-1.2-5.1-1.2-2.8,0-4.9,1.3-5.2,1-.1-.2.2-.8,1.1-1.4.9-.6,2.4-1.3,4.2-1.2,1.8,0,3.2.7,4.1,1.4.9.7,1.1,1.3,1,1.5Z"/><path class="cls-15" d="M302.4,193.3c0-.2,1.8-.4,4.6-.7.7,0,1.4-.2,1.5-.7.2-.5-.1-1.3-.4-2.2-.6-1.8-1.3-3.6-2-5.5-2.8-7.9-4.9-14.4-4.5-14.5.3-.1,2.9,6.2,5.7,14.1.7,1.9,1.3,3.8,2,5.6.3.8.7,1.8.3,2.8-.2.5-.7.9-1.2,1-.5.1-.9.1-1.2.1-2.9.1-4.7,0-4.7,0Z"/><path class="cls-15" d="M292.4,161.7c-.3.7-3.1.1-6.5.2-3.3,0-6.1.8-6.5,0-.2-.3.4-1,1.5-1.7,1.1-.6,2.9-1.2,4.9-1.2,2,0,3.8.4,5,1,1.2.6,1.7,1.3,1.6,1.6Z"/><path class="cls-15" d="M319.9,159.7c-.5.7-2.8.2-5.6.3-2.7,0-5,.8-5.6.1-.3-.3,0-1,1-1.6,1-.7,2.6-1.3,4.5-1.3,1.9,0,3.5.4,4.5,1,1,.6,1.4,1.2,1.1,1.6Z"/><path class="cls-24" d="M263.7,179.7c-.3-.1-12.6-4-12.4,8.6.2,12.6,12.8,9.8,12.8,9.5,0-.4-.4-18.1-.4-18.1Z"/><path class="cls-21" d="M260,193.1c0,0-.2.2-.6.3-.4.2-1,.3-1.6,0-1.3-.5-2.5-2.6-2.6-4.8,0-1.1.2-2.2.6-3.2.4-.9,1-1.6,1.6-1.7.7-.2,1.1.2,1.3.6.2.3,0,.6.2.6,0,0,.3-.2.2-.7,0-.2-.2-.5-.5-.8-.3-.2-.8-.4-1.2-.3-1,0-1.8,1-2.3,2-.5,1-.8,2.2-.7,3.5.1,2.5,1.5,4.9,3.3,5.4.9.2,1.6,0,2-.4.4-.3.4-.6.4-.6Z"/><path class="cls-15" d="M315.7,140.5c2-1.2-4.3-7.6-9.3-9.8-7.7-3.3-19.3-5.1-26.2-3-8.3,2.6-15.2,6.9-19.3,14.7-4,7.7-5.4,16.7-5,25.4.1,2.7.5,5.4,2,7.7,1.8,2.7,5.2,4.4,5.2,8.3,0,1.4.4,2.8,1.4,3.8,2.4,2.4,5.1,0,6.4-2.3,2.7-5,2.8-10.9,2.9-16.6,0-4,.1-8.1-1.1-12-.7-2.1-1.7-4-2.2-6.2-.5-2.1-.5-4.5.7-6.3.2-.3.6-.7,1-1.1,3.5-3.2,8.5-4.3,13-2.8,7.2,2.3,19.4,5.8,22.5,3.3,4.5-3.6,5.5-5.9,5.5-5.9l2.6,2.6Z"/><path class="cls-15" d="M292.5,194.5c.5,0,.7,3,3.5,5,2.8,2,6,1.4,6.1,1.8,0,.2-.7.7-2.1.8-1.3.2-3.4-.1-5.1-1.3-1.7-1.2-2.5-2.9-2.7-4.2-.2-1.3,0-2.1.3-2.1Z"/><path class="cls-15" d="M236.6,409.2s-10.7,25-9.6,35.1c1.1,10.1,7.1,25.5,7.1,25.5h84.4s.4-8.5,2.2-21c1.8-12.5,2.9-39.6,2.9-39.6h-86.9Z"/><path class="cls-14" d="M315.2,254.9c0,1.7,5.6,39.5,6.6,49.2,1.5,15.4,5.6,91.7,4.2,98.3-1.4,6.6-1.7,7.8-1.7,7.8,0,0-73.8,2.8-82.8,3.6-9,.8-12.8.5-15-9.8-2.2-10.3.4-59.9.4-72.9s-1.7-25.3-2.5-44.5c-.6-16.7,3.4-26.9,11.4-36.5,7.9-9.6,22.7-20.2,22.7-20.2l6.2-9.1,44,23.3,1-5.3,2.7,8.2,2.8,7.9Z"/><g class="cls-19"><path d="M334.1,369.5c-.7-1.9-3.1-2.3-5.1-2.6-18.6-2.1-38.1-6.7-51.7-19.6-5.3-5-9.5-11.1-13.6-17.3-8.8-13.4-17.2-27.1-25.5-40.8l-6.5,2.4c4,19.4,7.9,33.4,14.3,49.3,6.5,15.9,11.5,31.3,27.8,36.5,10.6,3.4,30.6.8,41.7,0,4.6-.4,9.3-.8,13.7-2.1,1.3-.4,2.7-.9,3.7-1.9s1.6-2.5,1.1-3.8Z"/></g><path class="cls-14" d="M229.6,286.7c.5.9,37.8,80.5,54.5,83.8,16.7,3.3,68.4,4,78.5,2.1,10.1-1.9,21.5-5.1,21.5-5.1l2-29.8-16.8-.5s-38.7-2.1-44.1-3.6-10.2-6.6-15.1-6.3l-29.4-68.5s-19.1-17.8-32.8-12.3c-13.7,5.5-22.3,33-18.3,40.1Z"/><path class="cls-15" d="M276.7,253.4s-.5-.5-1.4-1.3c-.9-.9-2.3-2-4.3-3.2-1.9-1.2-4.4-2.3-7.2-3.1-2.9-.8-6.2-1.2-9.6-.8-3.4.4-6.6,1.4-9.2,2.7-2.7,1.3-4.8,3-6.5,4.5-1.6,1.5-2.8,3-3.5,4-.7,1-1.1,1.6-1.2,1.6,0,0,0-.2.2-.5.2-.3.4-.7.8-1.3.7-1.1,1.8-2.6,3.5-4.2,1.6-1.6,3.8-3.3,6.5-4.7,2.7-1.4,5.9-2.4,9.4-2.8,3.5-.3,6.9,0,9.8.9,2.9.8,5.4,2,7.3,3.3,1.9,1.2,3.3,2.5,4.2,3.4.5.4.8.8,1,1.1.2.3.3.4.3.4Z"/><path class="cls-15" d="M309.9,327.3c.1,0-.7,2.6-1.9,5.8-1.2,3.1-2.2,5.6-2.4,5.6-.1,0,.7-2.6,1.9-5.8,1.2-3.1,2.2-5.6,2.4-5.6Z"/><path class="cls-15" d="M309.8,246.7s-.4-.2-1-.5c-.7-.4-1.6-.9-2.8-1.6h.2c-.5,2.7-1.1,6.8-2,11.7v.3c0,0-.3-.2-.3-.2-4.1-2.6-9-5.5-14.2-8.7-3.9-2.3-7.5-4.7-10.9-6.7-3.4-2-6.5-3.8-9.1-5.2-2.6-1.4-4.6-2.6-6.2-3.4-.7-.4-1.2-.7-1.7-.9-.4-.2-.6-.3-.6-.4,0,0,.2,0,.6.3.4.2,1,.5,1.7.9,1.5.8,3.6,1.9,6.2,3.3,2.6,1.4,5.7,3.1,9.1,5.1,3.4,2.1,7.1,4.3,10.9,6.7,5.2,3.2,10.1,6.1,14.2,8.7h-.3c1-4.7,1.6-8.8,2.2-11.6v-.2s.2,0,.2,0c1.1.7,2,1.3,2.7,1.7.6.4.9.6.9.6Z"/><g class="cls-19"><path d="M267.5,234.4c7.7,5.7,15.3,11.4,23,17.1,5.1,3.8,10.2,7.6,16.2,9.5-.1-5.3-.2-10.6-.3-16l-2.4,11.2-36.5-21.9Z"/></g><path class="cls-15" d="M384.1,367.5s0-.2,0-.5c0-.4,0-.9,0-1.6,0-1.4.2-3.4.4-6,.3-5.2.8-12.6,1.4-21.8l.2.2c-14.7-.8-34.2-1.8-55.4-3-2.6-.1-5.2-.3-7.8-.4h-.1s0-.1,0-.1c-1.5-2.2-3.3-4.2-5.5-5.5-2.2-1.3-4.8-1.9-7.1-1.3h-.2c0,0,0-.1,0-.1-7-16.5-13.1-30.7-17.4-40.9-2.1-5.1-3.8-9.1-5-11.9-.6-1.4-1-2.4-1.3-3.2-.1-.3-.2-.6-.3-.8,0-.2-.1-.3,0-.3,0,0,0,0,.1.3,0,.2.2.5.4.8.3.7.8,1.8,1.4,3.2,1.2,2.8,3,6.8,5.1,11.8,4.4,10.1,10.5,24.4,17.5,40.8h-.3c2.5-.8,5.3-.2,7.6,1.2,2.3,1.4,4.2,3.4,5.7,5.7h-.2c2.6,0,5.2.2,7.8.3,21.3,1.2,40.7,2.3,55.4,3.1h.2s0,.2,0,.2c-.7,9.2-1.2,16.6-1.6,21.8-.2,2.6-.4,4.6-.5,5.9,0,.7-.1,1.2-.1,1.5,0,.3,0,.5,0,.5Z"/><polygon class="cls-15" points="322 412 334.3 469.7 317.3 469.7 322 412"/><path class="cls-14" d="M320.7,432.9c.1,0-.5,8.3-1.4,18.5-.9,10.2-1.8,18.5-2,18.4-.1,0,.5-8.3,1.4-18.5.9-10.2,1.8-18.5,2-18.4Z"/><path class="cls-17" d="M228.4,139.9c-1.4,26.5-26.4,45-52.2,38.5-19-4.8-32.3-22.8-31.3-42.5,1.4-26.5,26.4-45,52.2-38.5,19,4.8,32.3,22.8,31.3,42.5Z"/><g class="cls-20"><path class="cls-16" d="M192.9,96.6c-22.8-3.4-44.1,12.3-47.5,35.1,0,0,28.8,5.7,37.6-5,8.7-10.6,10-30.1,10-30.1Z"/></g><path class="cls-17" d="M217.9,137.7c-.5,20.9-20.4,35.6-40.5,29.9-13.7-3.9-23.3-16.9-23-31.2.5-20.9,20.4-35.6,40.5-29.9,13.7,3.9,23.3,16.9,23,31.1Z"/><g class="cls-18"><path d="M217.9,137.7c-.5,20.9-20.4,35.6-40.5,29.9-13.7-3.9-23.3-16.9-23-31.2.5-20.9,20.4-35.6,40.5-29.9,13.7,3.9,23.3,16.9,23,31.1Z"/></g><path class="cls-17" d="M218.6,139.2c-.5,20.7-20.1,35.1-40,29.5-13.5-3.8-23-16.7-22.7-30.7.5-20.7,20.1-35.1,40-29.5,13.5,3.8,23,16.7,22.7,30.7Z"/><g class="cls-18"><path class="cls-16" d="M218.6,139.2c-.5,20.7-20.1,35.1-40,29.5-13.5-3.8-23-16.7-22.7-30.7.5-20.7,20.1-35.1,40-29.5,13.5,3.8,23,16.7,22.7,30.7Z"/></g><text class="cls-3" transform="translate(170.6 155.4) rotate(6.2)"><tspan x="0" y="0"></tspan></text><text class="cls-11" transform="translate(170.6 155.4) rotate(6.2)"><tspan x="0" y="0"></tspan></text><text class="cls-3" transform="translate(169.6 153.8) rotate(6.2)"><tspan x="0" y="0"></tspan></text><text class="cls-9" transform="translate(169.6 153.8) rotate(6.2)"><tspan x="0" y="0"></tspan></text><path class="cls-16" d="M187.1,123.3s.5,0,1.2.4c.7.4,1.6,1.2,2.1,2.3.5,1.2.5,2.3.2,3.1-.2.8-.5,1.2-.5,1.2,0,0,.2-.5.3-1.2.1-.8.1-1.9-.3-3-.5-1.1-1.3-1.9-1.9-2.3-.6-.4-1.1-.6-1.1-.6Z"/><path class="cls-16" d="M183.6,149.8c-.1,0-1.2-1.6-2.4-3.6-1.2-2-2.1-3.6-2-3.6.1,0,1.2,1.6,2.4,3.6,1.2,2,2.1,3.6,2,3.6Z"/><path class="cls-17" d="M710.4,192.5c-1.5,29-28.9,49.2-57.1,42.1-20.8-5.3-35.4-25-34.3-46.4,1.5-29,28.9-49.2,57-42.1,20.8,5.3,35.4,25,34.3,46.4Z"/><g class="cls-20"><path class="cls-16" d="M671.6,145.2c-25-3.8-48.2,13.4-52,38.4,0,0,31.5,6.2,41.1-5.4,9.6-11.6,10.9-32.9,10.9-32.9Z"/></g><path class="cls-17" d="M698.9,190.2c-.6,22.9-22.3,38.9-44.4,32.7-15-4.2-25.5-18.5-25.1-34.1.6-22.9,22.3-38.9,44.4-32.7,15,4.2,25.5,18.5,25.1,34.1Z"/><g class="cls-18"><path d="M698.9,190.2c-.6,22.9-22.3,38.9-44.4,32.7-15-4.2-25.5-18.5-25.1-34.1.6-22.9,22.3-38.9,44.4-32.7,15,4.2,25.5,18.5,25.1,34.1Z"/></g><path class="cls-17" d="M699.6,191.8c-.6,22.6-22,38.4-43.8,32.3-14.8-4.2-25.2-18.2-24.8-33.6.6-22.6,22-38.4,43.8-32.3,14.8,4.2,25.2,18.2,24.8,33.6Z"/><g class="cls-18"><path class="cls-16" d="M699.6,191.8c-.6,22.6-22,38.4-43.8,32.3-14.8-4.2-25.2-18.2-24.8-33.6.6-22.6,22-38.4,43.8-32.3,14.8,4.2,25.2,18.2,24.8,33.6Z"/></g><text class="cls-2" transform="translate(647.2 209.5) rotate(6.2)"><tspan x="0" y="0"></tspan></text><text class="cls-10" transform="translate(647.2 209.5) rotate(6.2)"><tspan x="0" y="0"></tspan></text><text class="cls-2" transform="translate(646.1 207.7) rotate(6.2)"><tspan x="0" y="0"></tspan></text><text class="cls-6" transform="translate(646.1 207.7) rotate(6.2)"><tspan x="0" y="0"></tspan></text><path class="cls-16" d="M665.2,174.4s.6,0,1.3.5c.8.4,1.7,1.3,2.3,2.6.5,1.3.5,2.6.3,3.4-.2.9-.6,1.3-.6,1.3,0,0,.2-.5.3-1.3.2-.8.2-2-.3-3.2-.5-1.2-1.4-2-2.1-2.5-.7-.5-1.2-.6-1.2-.7Z"/><path class="cls-16" d="M661.4,203.4c-.1,0-1.3-1.8-2.6-3.9-1.3-2.2-2.3-3.9-2.2-3.9.1,0,1.3,1.8,2.6,3.9,1.3,2.2,2.3,3.9,2.2,3.9Z"/><path class="cls-17" d="M647.5,76.1c-1,19.9-19.8,33.8-39.2,28.9-14.3-3.6-24.3-17.2-23.5-31.9,1-19.9,19.8-33.8,39.2-28.9,14.3,3.6,24.3,17.1,23.5,31.9Z"/><g class="cls-20"><path class="cls-16" d="M620.8,43.6c-17.1-2.6-33.1,9.2-35.7,26.3,0,0,21.7,4.3,28.2-3.7,6.6-8,7.5-22.6,7.5-22.6Z"/></g><path class="cls-17" d="M639.6,74.5c-.4,15.7-15.3,26.7-30.5,22.5-10.3-2.9-17.5-12.7-17.3-23.4.4-15.7,15.3-26.7,30.5-22.5,10.3,2.9,17.5,12.7,17.3,23.4Z"/><g class="cls-18"><path d="M639.6,74.5c-.4,15.7-15.3,26.7-30.5,22.5-10.3-2.9-17.5-12.7-17.3-23.4.4-15.7,15.3-26.7,30.5-22.5,10.3,2.9,17.5,12.7,17.3,23.4Z"/></g><path class="cls-17" d="M640.1,75.6c-.4,15.5-15.1,26.4-30,22.2-10.2-2.9-17.3-12.5-17-23.1.4-15.5,15.1-26.4,30-22.2,10.2,2.9,17.3,12.5,17,23.1Z"/><g class="cls-18"><path class="cls-16" d="M640.1,75.6c-.4,15.5-15.1,26.4-30,22.2-10.2-2.9-17.3-12.5-17-23.1.4-15.5,15.1-26.4,30-22.2,10.2,2.9,17.3,12.5,17,23.1Z"/></g><text class="cls-4" transform="translate(604.1 87.8) rotate(6.2)"><tspan x="0" y="0"></tspan></text><text class="cls-13" transform="translate(604.1 87.8) rotate(6.2)"><tspan x="0" y="0"></tspan></text><text class="cls-4" transform="translate(603.3 86.6) rotate(6.2)"><tspan x="0" y="0"></tspan></text><text class="cls-7" transform="translate(603.3 86.6) rotate(6.2)"><tspan x="0" y="0"></tspan></text><path class="cls-16" d="M616.5,63.7s.4,0,.9.3c.5.3,1.2.9,1.6,1.8.4.9.3,1.8.2,2.3-.2.6-.4.9-.4.9,0,0,.1-.3.2-.9.1-.6.1-1.4-.2-2.2-.3-.8-1-1.4-1.4-1.7-.5-.3-.8-.4-.8-.5Z"/><path class="cls-16" d="M613.8,83.6c0,0-.9-1.2-1.8-2.7-.9-1.5-1.6-2.7-1.5-2.7,0,0,.9,1.2,1.8,2.7.9,1.5,1.6,2.7,1.5,2.7Z"/><path class="cls-17" d="M329.8,45.2c-1,19.9-19.8,33.8-39.2,28.9-14.3-3.6-24.3-17.2-23.5-31.9,1-19.9,19.8-33.8,39.2-28.9,14.3,3.6,24.3,17.1,23.5,31.9Z"/><g class="cls-20"><path class="cls-16" d="M303.2,12.7c-17.1-2.6-33.1,9.2-35.7,26.3,0,0,21.7,4.3,28.2-3.7,6.6-8,7.5-22.6,7.5-22.6Z"/></g><path class="cls-17" d="M321.9,43.6c-.4,15.7-15.3,26.7-30.5,22.5-10.3-2.9-17.5-12.7-17.3-23.4.4-15.7,15.3-26.7,30.5-22.5,10.3,2.9,17.5,12.7,17.3,23.4Z"/><g class="cls-18"><path d="M321.9,43.6c-.4,15.7-15.3,26.7-30.5,22.5-10.3-2.9-17.5-12.7-17.3-23.4.4-15.7,15.3-26.7,30.5-22.5,10.3,2.9,17.5,12.7,17.3,23.4Z"/></g><path class="cls-17" d="M322.4,44.7c-.4,15.5-15.1,26.4-30,22.2-10.2-2.9-17.3-12.5-17-23.1.4-15.5,15.1-26.4,30-22.2,10.2,2.9,17.3,12.5,17,23.1Z"/><g class="cls-18"><path class="cls-16" d="M322.4,44.7c-.4,15.5-15.1,26.4-30,22.2-10.2-2.9-17.3-12.5-17-23.1.4-15.5,15.1-26.4,30-22.2,10.2,2.9,17.3,12.5,17,23.1Z"/></g><text class="cls-4" transform="translate(286.4 56.9) rotate(6.2)"><tspan x="0" y="0"></tspan></text><text class="cls-13" transform="translate(286.4 56.9) rotate(6.2)"><tspan x="0" y="0"></tspan></text><text class="cls-4" transform="translate(285.7 55.6) rotate(6.2)"><tspan x="0" y="0"></tspan></text><text class="cls-7" transform="translate(285.7 55.6) rotate(6.2)"><tspan x="0" y="0"></tspan></text><path class="cls-16" d="M298.8,32.8s.4,0,.9.3c.5.3,1.2.9,1.6,1.8.4.9.3,1.8.2,2.3-.2.6-.4.9-.4.9,0,0,.1-.3.2-.9.1-.6.1-1.4-.2-2.2-.3-.8-1-1.4-1.4-1.7-.5-.3-.8-.4-.8-.5Z"/><path class="cls-16" d="M296.2,52.6c0,0-.9-1.2-1.8-2.7-.9-1.5-1.6-2.7-1.5-2.7,0,0,.9,1.2,1.8,2.7.9,1.5,1.6,2.7,1.5,2.7Z"/><path class="cls-17" d="M453.5,280.4c-1.2,23.1-23,39.2-45.4,33.5-16.6-4.2-28.1-19.9-27.3-37,1.2-23.1,23-39.2,45.4-33.5,16.6,4.2,28.1,19.9,27.3,37Z"/><g class="cls-20"><path class="cls-16" d="M422.6,242.7c-19.9-3-38.4,10.7-41.4,30.5,0,0,25.1,4.9,32.7-4.3,7.6-9.3,8.7-26.2,8.7-26.2Z"/></g><path class="cls-17" d="M444.4,278.5c-.4,18.2-17.8,31-35.3,26-12-3.4-20.3-14.7-20-27.1.4-18.2,17.8-31,35.3-26,12,3.4,20.3,14.7,20,27.1Z"/><g class="cls-18"><path d="M444.4,278.5c-.4,18.2-17.8,31-35.3,26-12-3.4-20.3-14.7-20-27.1.4-18.2,17.8-31,35.3-26,12,3.4,20.3,14.7,20,27.1Z"/></g><path class="cls-17" d="M445,279.8c-.4,18-17.5,30.6-34.8,25.7-11.8-3.3-20-14.5-19.7-26.8.4-18,17.5-30.6,34.8-25.7,11.8,3.3,20,14.5,19.7,26.8Z"/><g class="cls-18"><path class="cls-16" d="M445,279.8c-.4,18-17.5,30.6-34.8,25.7-11.8-3.3-20-14.5-19.7-26.8.4-18,17.5-30.6,34.8-25.7,11.8,3.3,20,14.5,19.7,26.8Z"/></g><text class="cls-5" transform="translate(403.2 293.9) rotate(6.2)"><tspan x="0" y="0"></tspan></text><text class="cls-12" transform="translate(403.2 293.9) rotate(6.2)"><tspan x="0" y="0"></tspan></text><text class="cls-5" transform="translate(402.3 292.5) rotate(6.2)"><tspan x="0" y="0"></tspan></text><text class="cls-8" transform="translate(402.3 292.5) rotate(6.2)"><tspan x="0" y="0"></tspan></text><path class="cls-16" d="M417.5,266s.4,0,1.1.4c.6.3,1.4,1,1.8,2,.4,1,.4,2,.2,2.7-.2.7-.4,1-.5,1,0,0,.2-.4.3-1.1.1-.7.1-1.6-.3-2.6-.4-.9-1.1-1.6-1.7-2-.6-.4-1-.5-1-.5Z"/><path class="cls-16" d="M414.5,289c0,0-1-1.4-2.1-3.1-1.1-1.7-1.8-3.1-1.7-3.1,0,0,1,1.4,2.1,3.1,1.1,1.7,1.8,3.1,1.7,3.1Z"/></svg>