<?xml version="1.0" encoding="UTF-8"?><svg id="Layer_1" xmlns="http://www.w3.org/2000/svg" viewBox="0 0 850 470"><defs><style>.cls-1{fill:#fb6a44;}.cls-2{fill:#ebebeb;}.cls-3{fill:#455b64;}.cls-4{fill:#263238;}.cls-5{fill:#ffaa81;}.cls-6{fill:#c27460;}.cls-7{fill:#3a5fa0;}.cls-8{fill:#fff;}.cls-9{opacity:.3;}.cls-10{fill:#ec996f;}.cls-11{fill:#f5f5f5;}.cls-12{fill:#fafbfb;}.cls-13{fill:#f3725f;}.cls-14{fill:#e0e0e0;}.cls-15{fill:#fbbd9d;}</style></defs><path class="cls-2" d="M451.2,106.2c1.4-2.2,3-4.2,4.9-6l-1.9-6.9,10.5-5.6,4.7,5.4c2.5-.6,5.1-.8,7.7-.8l3.6-6.2,11.4,3.5-.5,7.2c2.2,1.4,4.2,3,6,4.9l6.9-1.9,5.6,10.5-5.4,4.7c.6,2.5.8,5.1.8,7.7l6.2,3.6-3.5,11.4-7.2-.5c-1.4,2.2-3,4.2-4.9,6l1.9,6.9-10.5,5.6-4.7-5.4c-2.5.6-5.1.8-7.7.8l-3.6,6.2-11.4-3.5.5-7.2c-2.2-1.4-4.2-3-6-4.9l-6.9,1.9-5.6-10.5,5.4-4.7c-.6-2.5-.8-5.1-.8-7.7l-6.2-3.6,3.5-11.4,7.2.5h0ZM460.7,116.9c-2.6,8.5,2.2,17.4,10.7,20,8.5,2.6,17.4-2.2,20-10.7,2.6-8.5-2.2-17.4-10.7-20-8.5-2.6-17.4,2.2-20,10.7Z"/><path class="cls-2" d="M288.2,64.5c1.1-1.7,2.3-3.2,3.8-4.6l-1.5-5.3,8-4.3,3.6,4.2c1.9-.5,3.9-.7,5.9-.6l2.7-4.8,8.7,2.7-.4,5.5c1.7,1.1,3.2,2.3,4.6,3.8l5.3-1.5,4.3,8-4.2,3.6c.5,1.9.7,3.9.6,5.9l4.8,2.7-2.7,8.7-5.5-.4c-1.1,1.7-2.3,3.2-3.8,4.6l1.5,5.3-8,4.3-3.6-4.2c-1.9.4-3.9.7-5.9.6l-2.7,4.8-8.7-2.7.4-5.5c-1.7-1.1-3.3-2.3-4.6-3.8l-5.3,1.5-4.3-8,4.2-3.6c-.4-1.9-.7-3.9-.6-5.9l-4.8-2.7,2.7-8.7,5.5.4h0ZM295.6,72.8c-2,6.5,1.7,13.4,8.2,15.3,6.5,2,13.4-1.7,15.3-8.2,2-6.5-1.7-13.4-8.2-15.3-6.5-2-13.4,1.7-15.3,8.2Z"/><path class="cls-2" d="M462.7,51.9c.8-1.4,1.9-2.6,3-3.6l-1.2-4.2,6.4-3.4,2.9,3.3c1.5-.4,3.1-.5,4.7-.5l2.2-3.8,6.9,2.1-.3,4.4c1.4.8,2.6,1.9,3.6,3l4.2-1.2,3.4,6.4-3.3,2.9c.4,1.5.5,3.1.5,4.7l3.8,2.2-2.1,6.9-4.4-.3c-.8,1.4-1.9,2.6-3,3.6l1.2,4.2-6.4,3.4-2.9-3.3c-1.5.4-3.1.5-4.7.5l-2.2,3.8-6.9-2.1.3-4.4c-1.4-.8-2.6-1.9-3.6-3l-4.2,1.2-3.4-6.4,3.3-2.9c-.4-1.5-.5-3.1-.5-4.7l-3.8-2.2,2.1-6.9,4.4.3h0ZM468.5,58.4c-1.6,5.2,1.3,10.6,6.5,12.2,5.2,1.6,10.6-1.3,12.2-6.5,1.6-5.2-1.3-10.6-6.5-12.2-5.2-1.6-10.6,1.3-12.2,6.5Z"/><path class="cls-2" d="M255.1,195.7c1.3-2.1,2.8-3.9,4.5-5.5l-1.8-6.4,9.7-5.2,4.3,5c2.3-.5,4.7-.8,7.1-.7l3.3-5.8,10.5,3.2-.5,6.6c2.1,1.3,3.9,2.8,5.5,4.5l6.4-1.8,5.2,9.7-5,4.3c.5,2.3.8,4.7.7,7.1l5.8,3.3-3.2,10.5-6.6-.5c-1.3,2.1-2.8,3.9-4.5,5.5l1.8,6.4-9.7,5.2-4.3-5c-2.3.5-4.7.8-7.1.7l-3.3,5.8-10.5-3.2.5-6.6c-2.1-1.3-3.9-2.8-5.5-4.5l-6.4,1.8-5.2-9.7,5-4.3c-.5-2.3-.8-4.7-.7-7.1l-5.8-3.3,3.2-10.5,6.6.5h0ZM263.9,205.6c-2.4,7.8,2,16.1,9.9,18.5,7.8,2.4,16.1-2,18.5-9.9,2.4-7.8-2-16.1-9.9-18.5-7.8-2.4-16.1,2-18.5,9.9Z"/><path class="cls-2" d="M218.5,208.2c.6-.9,1.2-1.7,2-2.4l-.8-2.8,4.2-2.2,1.9,2.2c1-.2,2-.3,3.1-.3l1.4-2.5,4.5,1.4-.2,2.9c.9.6,1.7,1.2,2.4,2l2.8-.8,2.2,4.2-2.2,1.9c.2,1,.3,2,.3,3.1l2.5,1.4-1.4,4.5-2.9-.2c-.6.9-1.2,1.7-2,2.4l.8,2.8-4.2,2.2-1.9-2.2c-1,.2-2,.3-3.1.3l-1.4,2.5-4.5-1.4.2-2.9c-.9-.6-1.7-1.2-2.4-2l-2.8.8-2.2-4.2,2.2-1.9c-.2-1-.3-2-.3-3.1l-2.5-1.4,1.4-4.5,2.9.2h0ZM222.4,212.5c-1,3.4.9,7,4.3,8,3.4,1,7-.9,8-4.3,1-3.4-.9-7-4.3-8-3.4-1-7,.9-8,4.3Z"/><path class="cls-2" d="M319.9,33.9c.6-.9,1.2-1.7,2-2.4l-.8-2.8,4.2-2.2,1.9,2.2c1-.2,2-.3,3.1-.3l1.4-2.5,4.5,1.4-.2,2.9c.9.6,1.7,1.2,2.4,2l2.8-.8,2.2,4.2-2.2,1.9c.2,1,.3,2,.3,3.1l2.5,1.4-1.4,4.5-2.9-.2c-.6.9-1.2,1.7-2,2.4l.8,2.8-4.2,2.2-1.9-2.2c-1,.2-2,.3-3.1.3l-1.4,2.5-4.5-1.4.2-2.9c-.9-.6-1.7-1.2-2.4-2l-2.8.8-2.2-4.2,2.2-1.9c-.2-1-.3-2-.3-3.1l-2.5-1.4,1.4-4.5,2.9.2h0ZM323.7,38.2c-1,3.4.9,7,4.3,8,3.4,1,7-.9,8-4.3s-.9-7-4.3-8c-3.4-1-7,.9-8,4.3Z"/><path class="cls-2" d="M504.3,71.8c.6-.9,1.2-1.7,2-2.4l-.8-2.8,4.2-2.2,1.9,2.2c1-.2,2-.3,3.1-.3l1.4-2.5,4.5,1.4-.2,2.9c.9.6,1.7,1.2,2.4,2l2.8-.8,2.2,4.2-2.2,1.9c.2,1,.3,2,.3,3.1l2.5,1.4-1.4,4.5-2.9-.2c-.6.9-1.2,1.7-2,2.4l.8,2.8-4.2,2.2-1.9-2.2c-1,.2-2,.3-3.1.3l-1.4,2.5-4.5-1.4.2-2.9c-.9-.6-1.7-1.2-2.4-2l-2.8.8-2.2-4.2,2.2-1.9c-.2-1-.3-2-.3-3.1l-2.5-1.4,1.4-4.5,2.9.2h0ZM508.1,76.1c-1,3.4.9,7,4.3,8,3.4,1,7-.9,8-4.3s-.9-7-4.3-8c-3.4-1-7,.9-8,4.3Z"/><path class="cls-2" d="M395,196.9c.6-.9,1.2-1.7,2-2.4l-.8-2.8,4.2-2.2,1.9,2.2c1-.2,2-.3,3.1-.3l1.4-2.5,4.5,1.4-.2,2.9c.9.6,1.7,1.2,2.4,2l2.8-.8,2.2,4.2-2.2,1.9c.2,1,.3,2,.3,3.1l2.5,1.4-1.4,4.5-2.9-.2c-.6.9-1.2,1.7-2,2.4l.8,2.8-4.2,2.2-1.9-2.2c-1,.2-2,.3-3.1.3l-1.4,2.5-4.5-1.4.2-2.9c-.9-.6-1.7-1.2-2.4-2l-2.8.8-2.2-4.2,2.2-1.9c-.2-1-.3-2-.3-3.1l-2.5-1.4,1.4-4.5,2.9.2h0ZM398.8,201.2c-1,3.4.9,7,4.3,8,3.4,1,7-.9,8-4.3,1-3.4-.9-7-4.3-8-3.4-1-7,.9-8,4.3Z"/><path class="cls-14" d="M586.9,367.3c-4.2-2.6-8.9-4.2-13.8-4.7-2.3-.2-4.7-.2-6.5,1.2-.4.3-.8.7-.7,1.2,0,.3.4.6.6.8,5.6,4.3,14.1,4.8,20.4,1.5"/><path class="cls-14" d="M586.6,366.9c-3.1-2.4-6.3-4.9-8.9-7.8-2.6-2.9-4.8-6.4-5.6-10.3-.2-1.2-.3-2.5.4-3.5,7.1,5.5,12.7,12.7,14.1,21.6"/><path class="cls-14" d="M586.9,367.2c-.5-3.9-.7-7.9.2-11.7.9-3.8,3-7.5,6.2-9.7,1.2,2.9.7,6.2-.2,9.2-1.3,4.6-3.4,9-6.2,13"/><path class="cls-14" d="M593.8,379.7c-4.2.5-7.9,2.7-11.1,5.6-3.2,2.9-5.4,6.7-6.3,10.9,4.1-.3,7.7-3.2,10.2-6.5,2.6-3.3,4.3-6.9,7.1-9.9"/><path class="cls-14" d="M595.3,381.7c-3.4-8.4-2.2-18.5,3.2-25.8,2.4,8.6,1.5,18.2-3.2,25.8"/><path class="cls-14" d="M604.5,392.6c-3.8-.2-7.7.7-11.1,2.6-3.3,1.9-6.1,4.8-7.8,8.3-.2.5-.4,1.1-.1,1.5.3.4.8.4,1.3.4,3.7-.2,7-2.5,9.7-5,2.7-2.5,5.1-5.5,8.1-7.7"/><path class="cls-14" d="M604.2,392c-2-6.3-2.1-13.2-.4-19.6.7-2.5,1.9-5.2,4.2-6.4.2-.1.4-.2.6-.1.2,0,.3.3.4.5.8,1.7,1.1,3.7,1,5.6,0,1.9-.5,3.8-.9,5.7-.7,3.5-1.1,7.2-3,10.2-.5.7-.9,1.5-1.2,2.2-.4.8-.4,1-.7,1.6"/><path class="cls-14" d="M628.6,395.7c-1.8-6.9.1-15.2,4.4-20.8.3-.4.7-.9,1.3-.8.8,0,1,1.1,1,1.9-.3,7-2.7,13.9-6.7,19.7"/><path class="cls-14" d="M630.8,397.2c8.3,2.2,17.9,0,24.8-5.1-4.1-2.1-9-2.7-13.4-1.6-4.5,1-8.6,3-11.4,6.7"/><path class="cls-14" d="M632.6,392.6c4.7-7.6,13.6-12.6,22.5-13-1,3.6-4,6.4-7.4,8.2-3.4,1.7-7.1,2.4-10.8,3.2-1.4.3-3.4.6-4.3,1.7"/><path class="cls-14" d="M629,370.4c1.3-4.3,2.5-8.7,2.9-13.2.3-4.5-.3-9.2-2.6-13.1-4.4,8.4-4.8,18.3-.4,26.7"/><path class="cls-14" d="M643.7,363c5.1-9.3,15.5-16.7,26-17.7-4.1,10.1-15.1,17.9-26,17.7"/><path class="cls-14" d="M640.5,364.8c7.6,1.2,14.1,6,21.2,9,1.5.6,3.2,1.1,4.8.9,1.6-.2,3.2-1.3,3.6-2.9.3-1.3-.3-2.7-1.3-3.7-1-1-2.2-1.6-3.5-2.1-7.7-3.2-16-3.3-24.2-1.3"/><path class="cls-14" d="M636.1,370.2c1.7.5,2.3,1.4,3.7,2.5,4.6,3.9,10.2,6.8,16.1,8.3.6.2,1.4.2,1.7-.3.3-.5,0-1.1-.4-1.5-2.5-3.1-6-5.2-9.7-6.6-3.7-1.4-6.9-3-11.4-2.7"/><path class="cls-14" d="M631.1,337.9c6.2,5.8,14.9,8.7,23.3,7.9.4,0,.8,0,1.1-.4.6-.6-.1-1.6-.8-2.2-6.9-5.3-15.2-7.6-23.6-5.4"/><path class="cls-14" d="M637,335.8c8.2-6.1,19.4-8,29.1-4.8-3.7,3.6-8.7,5.6-13.9,6.1-5.1.5-10.2,0-15.2-1.3"/><path class="cls-14" d="M634.7,321c-.7-6.8-.2-12.2-.7-19.1,0-.5-.2-1.2-.7-1.4-.7-.3-1.3.6-1.5,1.3-2,6.3-.9,13.6,2.9,19"/><path class="cls-14" d="M634.2,321.7c4.6-2.9,8.1-6.6,11.3-11,2.2-3.1,4.1-6.7,3.6-10.5-3.1,0-6.1,1.7-8.2,4.1-2,2.4-3.3,5.4-4.2,8.4-.9,3-1.5,6.1-2.6,9.1"/><path class="cls-14" d="M645.3,318.6c10.2-3.8,19.7-9.4,27.9-16.5-3.3-1.3-7.1-.5-10.5.8-7.6,3.1-13.8,8.3-17.6,15.6"/><path class="cls-14" d="M637.3,325.5c5.1.6,10.4.9,15.5,0,5-.8,9.8-2.8,14.5-4.8.4-.2.8-.4,1-.7.2-.4,0-.9-.4-1.2-.3-.3-.8-.5-1.2-.6-5.1-1.4-10.6-.8-15.6.9-5,1.7-9.1,3.7-13.7,6.4"/><path class="cls-14" d="M607.9,338.2c-3.5-7.1-3.3-15.4-.3-22.7,2.1,3.3,2.4,7.4,2,11.3-.4,3.9-1.6,7.9-1.6,11.8"/><path class="cls-14" d="M593.9,331.1c-8.8-.2-17.5,3.6-23.5,10,4.4.7,8.9-.4,12.9-2.4,4-1.9,7.5-4.7,11-7.4"/><path class="cls-14" d="M584.5,327.9c-4.3-.3-8.4-.9-12.5.4-4.1,1.3-7.9,4.1-9.6,8.1,4,.5,8.1-.6,11.8-2.2,3.7-1.7,7-4,10.3-6.3"/><path class="cls-14" d="M598.4,328.1c-3.9-2.5-7.8-5.1-12.3-6.2-4.5-1-9.7-.3-12.8,3.1,3.6,2.1,8.1,2.4,12.3,2.4,4.2,0,9.4,0,13.4,1.4"/><path class="cls-14" d="M598.5,328.3c-6.6-6.5-9.1-18.1-6.4-27,5.2,7.9,7.5,17.6,6.4,27"/><path class="cls-14" d="M616.6,309.9c1.2-2.9,2.1-5.9,3.2-8.9,1.1-2.9,2.5-5.8,4.6-8.2,2.1-2.3,5-4.1,8.2-4.2-2,8.9-7.9,16.9-15.9,21.3"/><path class="cls-14" d="M613.3,313.8c-2.1-2.8-4.4-6.7-7.2-8.8-2.8-2.1-6.4-3.4-9.8-2.6,3.5,6.2,10,10.6,17.1,11.4"/><path class="cls-14" d="M614,310.2c-1.4-3.4-2.7-6.9-3.3-10.5-.5-3.6-.2-7.5,1.7-10.7,3.6,6.8,4.8,14.2,1.8,21.3"/><path class="cls-14" d="M616.6,288.9c2.1-6.8,8.3-11.8,15-14.1.8-.3,1.7-.5,2.6-.4.9.1,1.8.7,1.9,1.6.2,1.2-.7,2.2-1.6,3-5.2,4.5-11.4,7.9-17.9,9.9"/><path class="cls-14" d="M616.7,283.3c.3-4.4.5-8.8,2-13,1.4-4.1,4.2-8,8.2-9.9.7,4.4-1.3,8.8-3.6,12.6-2.4,3.8-5.2,7.4-6.6,11.6"/><path class="cls-14" d="M616.6,286.4c-1.7-4.9-1.9-11.2-4.8-15.5-2.1-3-5.4-5.1-7.2-8.3-1.2,3-.8,6.4.4,9.4,1.2,3,3.3,5.5,5.5,7.8,2.2,2.3,4.1,4.1,6.1,6.6"/><path class="cls-14" d="M616.6,432.1c-.1,0-.2-33-.3-73.7,0-40.7,0-73.7.2-73.7s.2,33,.3,73.7c0,40.7,0,73.7-.2,73.7Z"/><path class="cls-14" d="M645.5,333.2s-.4.2-1.2.5c-.9.3-2,.7-3.4,1.2-2.9,1-6.8,2.4-11.1,4.2-4.3,1.8-8.3,3.3-10.5,5.3-1.1,1-1.8,2-2.1,2.8-.3.8-.4,1.2-.4,1.2,0,0,0-.1,0-.3,0-.2,0-.6.2-1,.3-.8.9-1.9,2.1-3,1.1-1,2.7-2,4.6-2.8,1.8-.9,3.9-1.7,6-2.6,4.3-1.8,8.3-3.1,11.2-4,1.5-.5,2.6-.8,3.5-1,.8-.2,1.3-.3,1.3-.3Z"/><path class="cls-14" d="M654.9,310s-.1.1-.3.4c-.3.3-.6.6-1.1,1-1,.9-2.3,2.1-4,3.6-3.4,3-8,7.2-13.2,11.7-5.1,4.6-9.6,8.9-12.7,12.2-1.5,1.6-2.8,3-3.6,4-.4.4-.7.8-1,1.1-.2.2-.3.4-.4.4,0,0,0-.2.3-.4.2-.3.5-.7.9-1.2.8-1,2-2.4,3.5-4.1,3-3.4,7.4-7.8,12.6-12.4,5.2-4.6,9.8-8.7,13.3-11.6,1.7-1.4,3-2.6,4.1-3.5.5-.4.8-.7,1.1-.9.3-.2.4-.3.4-.3Z"/><path class="cls-14" d="M630.9,331.3c-.1,0,.9-2.5,2-5.7,1.1-3.1,1.6-5.8,1.7-5.8.1,0-.2,2.7-1.3,5.9-.5,1.6-1.1,3-1.6,4-.5,1-.8,1.6-.9,1.6Z"/><path class="cls-14" d="M616.7,351.3s-.3-.3-.8-.9c-.5-.7-1.2-1.6-2-2.6-1.7-2.2-4.1-5.2-6.7-8.6-2.6-3.3-5.1-6.3-6.8-8.5-.8-1-1.5-1.9-2.1-2.6-.5-.6-.7-1-.7-1,0,0,.3.3.9.9.5.6,1.3,1.4,2.2,2.5,1.8,2.1,4.3,5.1,6.9,8.4,2.6,3.3,5,6.4,6.6,8.7.8,1.1,1.5,2,1.9,2.7.4.6.7,1,.6,1Z"/><path class="cls-14" d="M610.3,343.2c0,0-1.8-1.9-2.6-5-.7-2.1-.7-4.1-.6-5h.2c0,.4-.2.6-.2.6,0,0,0-.2,0-.6h.2c0,.9.2,2.8.8,4.9.9,2.9,2.3,5,2.2,5.1Z"/><path class="cls-14" d="M602.2,332.9c0,0-.6-.6-1.9-1.1-1.2-.5-3.1-.6-5.1-.4-2,.1-3.9.5-5.2.8-1.3.3-2.1.6-2.1.5,0,0,.7-.4,2-.8,1.3-.4,3.1-.8,5.2-1,2.1-.2,4,0,5.3.6,1.3.6,1.8,1.4,1.7,1.4Z"/><path class="cls-14" d="M600.2,330.4c0,0-1.1-.4-2.8-1-1.8-.6-4.3-1.2-7.1-1.5-2.8-.2-5.4,0-7.2.4-1.8.3-2.9.7-3,.6,0,0,.3-.1.8-.3.5-.2,1.2-.4,2.1-.6,1.8-.4,4.4-.7,7.3-.5,2.9.2,5.4.9,7.2,1.6.9.3,1.6.7,2,.9.5.2.7.4.7.4Z"/><path class="cls-14" d="M616.6,319.9c-.1,0-1.1-3.2-2.1-7.2-1-4-1.7-7.3-1.6-7.3.1,0,1.1,3.2,2.1,7.2,1,4,1.7,7.3,1.6,7.3Z"/><path class="cls-14" d="M616.7,319.9c-.1,0-.7-2.1-2.3-4.3-1.5-2.2-3.4-3.4-3.4-3.5,0,0,.6.1,1.3.7.7.5,1.7,1.4,2.5,2.5,1.6,2.3,2,4.6,1.9,4.6Z"/><path class="cls-14" d="M616.6,414.5c0,0-.1-.8-.5-2.2-.4-1.4-1.1-3.4-2.2-5.7-2.3-4.7-6.4-10.6-11.7-16.5-2.6-3-5.1-5.8-7.3-8.5-2.2-2.7-3.9-5.3-5.2-7.5-1.3-2.3-2.1-4.2-2.6-5.6-.2-.7-.4-1.2-.5-1.6-.1-.4-.2-.6-.1-.6,0,0,.3.8.8,2.1.5,1.3,1.4,3.3,2.8,5.5,1.3,2.2,3.1,4.8,5.3,7.4,2.2,2.7,4.7,5.5,7.3,8.5,5.3,5.9,9.4,11.9,11.6,16.7,1.1,2.4,1.8,4.4,2.1,5.8.2.7.3,1.3.3,1.7,0,.4,0,.6,0,.6Z"/><path class="cls-14" d="M642.7,385s-.5.3-1.4.8c-.9.5-2.1,1.3-3.5,2.3-1.4,1.1-3,2.5-4.7,4.2-1.6,1.7-3.3,3.7-5,5.9-3.4,4.3-6.6,8.1-8.6,11.2-1,1.5-1.7,2.8-2.2,3.7-.5.9-.7,1.4-.8,1.4,0,0,0-.1.1-.4.1-.2.2-.6.5-1.1.4-.9,1.1-2.2,2-3.8,1.9-3.1,5.1-7,8.5-11.3,1.7-2.2,3.4-4.2,5.1-5.9,1.7-1.7,3.3-3.1,4.8-4.2,1.5-1.1,2.8-1.8,3.7-2.2.5-.2.8-.4,1.1-.5.2-.1.4-.1.4-.1Z"/><path class="cls-14" d="M643.2,394.6c0,0-1.1.2-2.9.4-1.8.2-4.3.5-6.8,1.3-2.6.8-4.7,2.1-6.1,3.2-1.4,1.1-2.1,2-2.1,1.9,0,0,.1-.3.4-.7.3-.4.8-.9,1.5-1.5,1.4-1.2,3.5-2.5,6.2-3.4,2.7-.8,5.2-1.1,7-1.2,1.8-.1,2.9-.1,2.9,0Z"/><path class="cls-14" d="M626,400.5c-.2,0,1.2-2.1,2.2-4.7.9-2.7,1.2-5.1,1.3-5,0,0,0,.6,0,1.5-.1.9-.3,2.3-.8,3.6-.5,1.4-1.2,2.5-1.7,3.3-.5.8-.9,1.3-.9,1.2Z"/><path class="cls-14" d="M651.1,359.4s-.2,0-.5.2c-.4.2-.8.4-1.4.6-.6.3-1.3.6-2.1,1-.8.4-1.8.9-2.8,1.4-.5.3-1,.6-1.6.9-.5.3-1.1.7-1.7,1-1.2.7-2.3,1.6-3.6,2.5-2.4,1.8-5,4-7.4,6.5-2.4,2.5-4.5,5.2-6.3,7.7-.8,1.3-1.7,2.5-2.3,3.6-.3.6-.7,1.1-1,1.7-.3.6-.6,1.1-.8,1.6-.6,1-1,2-1.4,2.8-.4.8-.7,1.6-.9,2.2-.2.6-.4,1-.6,1.4-.1.3-.2.5-.2.5,0,0,0-.2.1-.5.1-.4.3-.8.5-1.4.2-.6.5-1.4.9-2.2.4-.8.8-1.8,1.3-2.9.3-.5.5-1.1.8-1.6.3-.6.6-1.1,1-1.7.7-1.2,1.5-2.4,2.3-3.7,1.8-2.5,3.9-5.2,6.3-7.7,2.5-2.5,5.1-4.7,7.5-6.6,1.3-.9,2.4-1.7,3.6-2.4.6-.4,1.1-.7,1.7-1,.6-.3,1.1-.6,1.6-.9,1-.6,2-1,2.8-1.4.8-.4,1.6-.7,2.2-.9.6-.2,1-.4,1.4-.5.3-.1.5-.2.5-.2Z"/><path class="cls-14" d="M630.5,373.2s.2-.8,1.1-1.7c.9-.9,2.6-1.7,4.6-1.8,2,0,3.7.5,4.8.9,1.2.5,1.8.8,1.8.9,0,0-.8-.2-1.9-.6-1.2-.4-2.8-.8-4.7-.8-1.8,0-3.4.8-4.4,1.5-.9.8-1.3,1.5-1.4,1.4Z"/><path class="cls-14" d="M627.4,376.4c-.1,0,1-1.8,1.3-4.2.3-2.4-.4-4.4-.3-4.4,0,0,.3.4.5,1.2.2.8.4,2,.2,3.2-.2,1.3-.6,2.4-1,3.1-.4.7-.8,1.1-.8,1.1Z"/><path class="cls-14" d="M593.8,419.2c.7,12.6,4.5,25.4,10.4,38.4h25.4c5.6-12.8,9.1-25.7,9.7-38.4h-45.5Z"/><path class="cls-12" d="M635.2,439.6c0,.1-8.4.2-18.7.2s-18.7-.1-18.7-.2,8.4-.2,18.7-.2,18.7.1,18.7.2Z"/><path class="cls-12" d="M634.7,444.2c0,.1-7.8.2-17.5.2s-17.5-.1-17.5-.2,7.8-.2,17.5-.2,17.5.1,17.5.2Z"/><path class="cls-12" d="M604.6,427.5c.1,0,.2,2.6.2,5.9s-.1,5.9-.2,5.9-.2-2.6-.2-5.9.1-5.9.2-5.9Z"/><path class="cls-12" d="M618.2,427.5c.1,0,.2,2.7.2,6.1s-.1,6.1-.2,6.1-.2-2.7-.2-6.1.1-6.1.2-6.1Z"/><path class="cls-12" d="M631,427.4c.1,0,.2,2.8.2,6.2s-.1,6.2-.2,6.2-.2-2.8-.2-6.2.1-6.2.2-6.2Z"/><path class="cls-12" d="M638.6,427.5c0,.1-9.8.2-21.9.2s-21.9-.1-21.9-.2,9.8-.2,21.9-.2,21.9.1,21.9.2Z"/><path class="cls-4" d="M665.1,457.8c0,.1-103.3.3-230.8.3s-230.8-.1-230.8-.3,103.3-.3,230.8-.3,230.8.1,230.8.3Z"/><path class="cls-14" d="M621.4,450.1c-1.3-1.1-4.1-4.5-1.9-8.5.8-1.5,2.5-2.2,4-2.8,1.5-.6,3.1-1.2,4.4-2.3,2.4-2,3-5.4,4.6-8.1,1.8-3.1,5.2-5.4,8.8-5.2,4.1.2,7.5,3.5,9,7.3,1.5,3.8,1.6,8,1.6,12.1,0,2.3,0,4.8-1.8,6.4-1.5,1.4-3.9,1.4-5.9,1.4-7.4-.2-14.9-.5-22.3-.7"/><path class="cls-3" d="M664.1,388.7h-58.7l10.6,63.1c.5,2.8,2.5,4.9,5,5.6,0,0,.1,0,.2,0,.2,0,.3.1.5.1.4,0,.8.1,1.2.1,0,0,0,0,0,0h.3s0,0,0,0h26.2c.5,0,1,0,1.4-.1,3.1-.5,5.6-3,5.9-6.2l5.1-43.5.2-1.7h0l2-17.2v-.3ZM653,429h-6l.6-18.3h7l-1.6,18.3ZM655.2,410.6h5.8l-2.1,18.3h-5.2l1.6-18.3ZM638,449.2l-.4-15.9h8.7l-.5,15.9h-7.8ZM628.6,433.3h8.4l.4,15.9h-7.6l-1.2-15.9ZM629.2,449.2h-7.1c-.7-4.3-1.5-9.9-2.5-15.9h8.3l1.2,15.9ZM628.2,429l-1.4-18.3h9.7l.4,18.3h-8.7ZM637.5,429l-.4-18.3h10l-.6,18.3h-8.9ZM637,406.3l-.4-17h11.2l-.6,17h-10.2ZM636.4,406.3h-9.9l-1.3-17h10.8l.4,17ZM625.9,406.3h-10.5c-.4-2.3-.7-4.6-1-6.6-1.1-6.9-1.5-9.4-1.7-10.4h11.9l1.3,17ZM626.2,410.6l1.4,18.3h-8.7c-.3-1.9-.6-3.7-.9-5.6-.7-4.3-1.4-8.6-2-12.7h10.1ZM618.4,429h-5.7l-3.1-18.3h5.9c.9,5.7,1.9,12,2.9,18.3ZM619.1,433.3c.9,5.5,1.7,10.9,2.5,15.9h-5.4l-2.7-15.9h5.6ZM646.3,449.2l.5-15.9h5.8l-1.4,15.9h-5ZM647.8,406.3l.6-17h8.1l-1.4,17h-7.2ZM612.1,389.3c.2,1.2,1.3,7.9,2.7,17h-5.9l-2.8-17h6ZM656.4,449.2h-4.5l1.4-15.9h5l-1.9,15.9ZM661.5,406.3h-5.9l1.4-17h6.4l-2,17Z"/><path class="cls-4" d="M256.8,428.5s-4.2-29.2-3.9-46.2c.4-17,0-36.1,0-36.1h2s-1.3,33.7.1,54.1c1.4,20.3,5.2,28.2,5.2,28.2h-3.4"/><path class="cls-3" d="M269.4,313.3c-.4-1-.9-2-1.8-2.6-1.2-.8-2.9-.5-4.3,0-5.9,2.1-11.2,13.1-13.5,18.9l7.9,26.5c14.2-13.1,16.6-30.4,11.7-42.8Z"/><path class="cls-4" d="M267.2,311.8s0,.1-.1.3c-.1.3-.2.6-.4,1-.3.8-.8,2-1.4,3.5-1.2,3-2.6,7.2-3.9,11.9-1.3,4.7-2.2,9.1-2.8,12.3-.3,1.6-.5,2.9-.6,3.8,0,.4-.1.8-.2,1,0,.2,0,.4,0,.4,0,0,0-.1,0-.4,0-.3,0-.6.1-1,0-.9.3-2.2.5-3.8.5-3.2,1.4-7.6,2.7-12.3,1.3-4.7,2.8-8.9,4-11.9.6-1.5,1.1-2.7,1.5-3.5.2-.4.3-.7.4-.9.1-.2.2-.3.2-.3Z"/><path class="cls-3" d="M254.2,362.5c-7.4-4.1-11.7-11.7-12.1-20.1-.3-5.9,1.5-11.6,3.6-17.1.2-.5.4-1,.8-1.2.6-.3,1.4,0,2,.3,5.3,3,8.6,8.8,10.3,14.8,1.1,3.9,1.7,8.1,1.2,12.1-.5,4.1-2.9,8.5-5.8,11.3"/><path class="cls-4" d="M254.2,362.5s0-.1,0-.4c0-.3,0-.6,0-1,0-.9,0-2.2-.1-3.7-.1-3.1-.6-7.5-1.4-12.2-.8-4.7-1.8-9-2.5-12-.4-1.5-.7-2.7-.9-3.6,0-.4-.2-.7-.2-1,0-.2,0-.3,0-.4,0,0,0,.1.1.3,0,.3.2.6.3,1,.2.8.6,2.1,1,3.6.8,3.1,1.8,7.3,2.6,12,.8,4.8,1.2,9.1,1.3,12.3,0,1.6,0,2.9,0,3.7,0,.4,0,.7,0,1,0,.2,0,.4,0,.4Z"/><g class="cls-9"><path d="M254.2,362.5c-7.4-4.1-11.7-11.7-12.1-20.1-.3-5.9,1.5-11.6,3.6-17.1.2-.5.4-1,.8-1.2.6-.3,1.4,0,2,.3,5.3,3,8.6,8.8,10.3,14.8,1.1,3.9,1.7,8.1,1.2,12.1-.5,4.1-2.9,8.5-5.8,11.3"/></g><path class="cls-3" d="M262.5,407.1c7.2,1.6,13.2,6.7,20.2,9.2,4.6,1.6,9.9,2.2,13.5,5.5-.9-2.2-3-3.7-5-5-5.7-3.6-11.9-6.5-18.3-8.7-3.3-1.1-6.9-2.1-10.2-1.1"/><path class="cls-3" d="M252.1,413.6c-9.1-.1-18.6-7.9-27.6-8.3,9.4-3.1,23-.6,27.6,8.3"/><path class="cls-3" d="M255.6,391.8c4.6-1.7,9.7-1.7,14.5-1,4.8.8,9.5,2.3,14.2,3.8-.5-3.1-3-5.5-5.4-7.6-1.8-1.6-3.6-3.2-5.7-4.4-2.1-1.2-4.4-2-6.8-1.9-2.9.1-5.6,1.6-7.5,3.8-1.9,2.2-2.9,4.4-3.2,7.2"/><path class="cls-3" d="M237,381.8c-5.7-4.9-14.4-4.4-21.9-4.2,11.5,5.5,24,13.1,33.9,21.1.3-5.3-4.8-10.7-12-16.9Z"/><g class="cls-9"><path d="M237,381.8c-5.7-4.9-14.4-4.4-21.9-4.2,11.5,5.5,24,13.1,33.9,21.1.3-5.3-4.8-10.7-12-16.9Z"/></g><path class="cls-3" d="M258.2,375.1c2.9-1.9,5.8-3.7,8.8-5.1,3-1.4,5.8-3.5,8.7-5.1,3.8-2,7-4.9,10.5-7.4,3.5-2.5,7.2-4.8,11.5-5.5-3.4-.7-7-.3-10.4.6-3.4.9-6.6,2.4-9.8,3.8-4.5,2-9,4.1-12.6,7.3-3.6,3.3-6.9,6.5-6.5,11.3"/><path class="cls-4" d="M282.6,413.6s-.1,0-.3-.1c-.2-.1-.5-.2-.8-.4-.7-.4-1.7-.9-2.9-1.5-.6-.3-1.3-.7-2-1-.7-.4-1.5-.7-2.4-1.1-1.7-.7-3.5-1.5-5.6-1.9-2-.5-4.1-.6-5.8-.1-.9.2-1.7.4-2.5.7-.7.3-1.4.7-2,1-1.2.7-2,1.5-2.5,2.1-.5.6-.8.9-.8.9,0,0,0,0,.2-.3.1-.2.3-.4.5-.7.5-.6,1.3-1.4,2.5-2.2.6-.4,1.3-.8,2-1.1.8-.3,1.6-.6,2.5-.8,1.8-.5,3.9-.4,6,.1,2.1.5,4,1.3,5.6,2,.8.4,1.6.7,2.4,1.1.7.4,1.4.7,2,1,1.2.6,2.2,1.2,2.9,1.6.3.2.6.3.8.5.2.1.3.2.3.2Z"/><path class="cls-4" d="M245.3,409.1s.2,0,.6.2c.4.1.9.3,1.5.6,1.2.6,2.8,1.6,4.3,3.1,1.5,1.4,2.6,3,3.2,4.2.3.6.6,1.1.7,1.5.1.4.2.6.2.6,0,0-.4-.7-1.1-1.9-.7-1.2-1.8-2.7-3.3-4.1-1.5-1.4-3-2.5-4.2-3.1-1.2-.7-2-1-1.9-1Z"/><path class="cls-4" d="M225.2,381.4s.1,0,.4.1c.3,0,.6.2,1.1.4.5.2,1.1.4,1.7.6.7.2,1.4.6,2.2,1,3.3,1.5,7.6,4,11.8,7.5,2.1,1.8,3.9,3.6,5.5,5.4,1.6,1.8,2.9,3.5,3.9,5,1,1.5,1.8,2.7,2.4,3.5.3.4.5.7.6,1,.1.2.2.3.2.4,0,0,0-.1-.3-.3-.2-.2-.4-.5-.7-.9-.6-.8-1.4-2-2.4-3.5-1-1.5-2.4-3.1-3.9-4.9-1.6-1.8-3.4-3.6-5.5-5.4-4.2-3.5-8.5-6-11.7-7.6-.8-.4-1.5-.8-2.2-1-.6-.3-1.2-.5-1.7-.7-.4-.2-.8-.3-1.1-.4-.2-.1-.4-.2-.4-.2Z"/><path class="cls-4" d="M269.2,386.7s-.3,0-.7,0c-.2,0-.5,0-.8-.2-.3,0-.7,0-1.1-.1-1.6-.1-4,0-6.2,1.2-1.1.6-2.1,1.3-2.8,2.1-.8.8-1.4,1.6-1.8,2.3-.9,1.4-1.2,2.4-1.2,2.4,0,0,0-.3.2-.7.2-.4.4-1.1.9-1.8.4-.7,1-1.6,1.8-2.3.8-.8,1.7-1.6,2.9-2.2,2.3-1.3,4.8-1.4,6.4-1.2.4,0,.8,0,1.1.2.3,0,.6.1.8.2.5.1.7.2.7.2Z"/><path class="cls-4" d="M278.3,358.4s-.1,0-.3.2c-.3.1-.6.3-1,.5-.9.5-2.1,1.2-3.7,2.1-1.5.9-3.3,2-5.3,3.4-1.9,1.4-4,3-5.9,4.9-.9,1-1.8,2-2.4,3.1-.6,1.1-1.2,2.2-1.7,3.3-1,2.1-1.9,4.1-2.5,5.7-.6,1.7-1,3.1-1.2,4-.2,1-.3,1.5-.3,1.5,0,0,0-.1,0-.4,0-.3,0-.6.2-1.1.2-1,.5-2.4,1.1-4.1.6-1.7,1.4-3.7,2.5-5.8.5-1.1,1.1-2.2,1.7-3.3.6-1.2,1.5-2.2,2.4-3.2,1.9-2,4-3.6,5.9-4.9,1.9-1.4,3.8-2.5,5.3-3.4,1.6-.9,2.8-1.6,3.7-2,.4-.2.8-.4,1-.5.2-.1.4-.2.4-.2Z"/><path class="cls-4" d="M252.9,385.9s0-.3-.2-.8c-.1-.6-.2-1.3-.4-2.1-.3-1.8-.9-4.2-1.7-6.8-.8-2.6-1.8-4.9-2.6-6.5-.4-.8-.6-1.4-.9-1.9-.2-.5-.3-.7-.3-.7,0,0,.2.2.4.7.2.4.6,1.1,1,1.9.8,1.6,1.9,3.9,2.7,6.5.8,2.6,1.3,5.1,1.6,6.9.1.9.2,1.6.3,2.1,0,.5,0,.8,0,.8Z"/><path class="cls-3" d="M252.2,365.3c-.2-3.4-1.3-6.8-2.9-9.8-4.4-8.3-12.7-14.5-21.9-16.3,6.8,10.1,13.5,20.2,20.3,30.2l2.6,5.4c1.8-2.9,2.2-6.1,2-9.5Z"/><rect class="cls-13" x="234.2" y="424.9" width="47.2" height="8.4"/><polygon class="cls-13" points="237.7 431.6 242.5 457.5 273 457.5 277.8 431.6 237.7 431.6"/><path class="cls-4" d="M281.3,433.2c0,0-10.6.2-23.8.2s-23.8,0-23.8-.2,10.6-.2,23.8-.2,23.8,0,23.8.2Z"/><rect class="cls-3" x="445.1" y="385.7" width="10.4" height="57.3"/><path class="cls-4" d="M504.1,352.7h-109.7s-1.6,4,5,7.6c5.9,3.3,27.3,9.5,49.9,9.2,22.6.3,44-5.9,49.9-9.2,6.5-3.7,5-7.6,5-7.6Z"/><path class="cls-4" d="M449.6,365.8h-21.3c2,2.5,4.7,4.3,7.6,5.7,2.9,1.4,5.9,2.4,9,3.3h10.1c3-1,6.1-1.9,9-3.3,2.9-1.4,5.6-3.3,7.6-5.7h-22Z"/><rect class="cls-4" x="444" y="373" width="12.6" height="15.3"/><path class="cls-4" d="M387.4,447.2s1.1-6.5,5-7.6c3.9-1.1,50.2-7.6,50.2-7.6v11.5l-48.6,3.7h-6.7Z"/><path class="cls-4" d="M512.3,447.2s-1.1-6.5-5-7.6c-3.9-1.1-50.2-7.6-50.2-7.6v11.5l48.6,3.7h6.7Z"/><rect class="cls-4" x="441.4" y="410.6" width="16.9" height="32.8"/><path class="cls-4" d="M393,361.1h-1.2c-2.4.2-4.5-1.6-4.7-4l-3.3-48.7c-.2-2.5,1.8-4.7,4.4-4.7h4.4c2.4,0,4.4,2,4.4,4.4v48.6c0,2.3-1.8,4.3-4.1,4.4Z"/><path class="cls-4" d="M508.3,361.2h-1.2c-2.4,0-4.4-1.9-4.5-4.3l-.7-48.8c0-2.6,2.1-4.6,4.6-4.5l4.4.2c2.4.1,4.3,2.2,4.2,4.6l-2.6,48.5c-.1,2.3-2,4.2-4.4,4.2Z"/><rect class="cls-4" x="441.8" y="333.3" width="17.1" height="19.7"/><g class="cls-9"><path d="M441.6,336.7c2.5,2.1,5.7,3.3,9,3.2,3.2,0,6.5-1.2,8.9-3.3h-17.9Z"/></g><path class="cls-3" d="M493.2,269.9c-2-14-2.8-29.4-10.7-40-4.7-6.3-11.5-10.2-18.5-11.9-4.1-1-8.4-1.6-11.8-1.8h-5.7c-3.5.3-7.8.8-11.8,1.8-7,1.7-13.8,5.5-18.5,11.9-7.9,10.7-8.7,26-10.7,40-2.1,14.5-5.9,30-1,43.5,3.2,8.8,9.8,15.5,17.3,19.3,6.7,3.4,19.3,4.5,27.7,4.4,8.4.1,20.9-1,27.7-4.4,7.5-3.7,14.1-10.4,17.3-19.3,4.9-13.6,1.1-29-1-43.5Z"/><path class="cls-3" d="M504.1,352.7c0-4.4-5.1-7.7-9.4-8.6-16.1-3.7-28.2,4.1-44.6,4.3-.2,0-.3,0-.5,0-.2,0-.3,0-.5,0-16.3-.2-28.4-8-44.6-4.3-4.2,1-9,4.5-10.1,8.4,0,0,1.1.8,6.1,3.2,6.1,2.8,26,7.2,48.6,6.9,22.6.3,41.2-2.7,47.3-5.5,5.4-2.5,7.5-4.2,7.5-4.2Z"/><path class="cls-4" d="M400.7,450.5c0,3.7-3,6.7-6.7,6.7s-6.7-3-6.7-6.7,3-6.7,6.7-6.7,6.7,3,6.7,6.7Z"/><path class="cls-4" d="M456.5,451.1c0,3.7-3,6.7-6.7,6.7s-6.7-3-6.7-6.7,3-6.7,6.7-6.7,6.7,3,6.7,6.7Z"/><path class="cls-4" d="M511.7,450.5c0,3.7-3,6.7-6.7,6.7s-6.7-3-6.7-6.7,3-6.7,6.7-6.7,6.7,3,6.7,6.7Z"/><path class="cls-3" d="M471.1,368.1s-.6.1-1.6.3c-1,.2-2.6.4-4.4.6-3.8.4-9,.8-14.8.8-5.8,0-11-.4-14.8-.8-1.9-.2-3.4-.4-4.4-.6-1-.2-1.6-.3-1.6-.3s.6,0,1.6.1c1.1.1,2.6.3,4.5.4,3.8.3,9,.6,14.7.6,5.8,0,11-.3,14.7-.7,1.9-.2,3.4-.3,4.5-.4,1.1-.1,1.6-.2,1.6-.1Z"/><path class="cls-3" d="M456.7,374.7c0,.1-2.8.3-6.2.3s-6.2-.1-6.2-.3,2.8-.3,6.2-.3,6.2.1,6.2.3Z"/><path class="cls-3" d="M443.8,442.6c-.2,0,.4-2.3,0-5.1-.3-2.8-1.2-4.9-1.1-5,.1,0,1.3,2,1.6,4.9.3,2.9-.5,5.2-.6,5.2Z"/><path class="cls-3" d="M455.9,442.6c-.1,0-1.1-2.2-1-5.2,0-3,1.2-5.2,1.3-5.1.2,0-.7,2.3-.8,5.1-.1,2.9.6,5.1.4,5.2Z"/><rect class="cls-4" x="444.7" y="432.9" width="10.3" height="16.3"/><path class="cls-3" d="M452.9,432.3c0,.2-1.6.2-3.6.2-2,0-3.5.2-3.6,0,0-.1,1.6-.5,3.5-.5,2,0,3.6.2,3.6.3Z"/><path class="cls-3" d="M388.3,357.2c-.1,0-.9-10.7-1.6-24-.8-13.3-1.3-24-1.1-24,.1,0,.9,10.7,1.6,24,.8,13.3,1.3,24,1.1,24Z"/><path class="cls-3" d="M511.7,356.4c-.1,0,.3-10.8,1-24,.7-13.3,1.4-24,1.6-24,.1,0-.3,10.8-1,24-.7,13.3-1.4,24-1.6,24Z"/><rect class="cls-13" x="432.5" y="279.3" width="72.9" height="4.9"/><rect class="cls-8" x="433.5" y="280" width="71.8" height="3.4"/><g class="cls-9"><rect x="461.5" y="279.3" width="43.8" height="4.9" transform="translate(966.9 563.4) rotate(180)"/></g><rect class="cls-13" x="432.4" y="267.7" width="72.9" height="4.9"/><rect class="cls-8" x="433.5" y="268.5" width="71.8" height="3.4"/><g class="cls-9"><rect x="461.5" y="267.7" width="43.8" height="4.9" transform="translate(966.8 540.3) rotate(180)"/></g><rect class="cls-4" x="434.7" y="272.5" width="72.9" height="6.7"/><rect class="cls-8" x="435.8" y="273.5" width="71.8" height="4.7"/><g class="cls-9"><rect x="463.7" y="272.5" width="43.8" height="6.7" transform="translate(971.3 551.7) rotate(180)"/></g><path class="cls-4" d="M507.4,274.9c0,.1-16,.3-35.8.3s-35.8-.1-35.8-.3,16-.3,35.8-.3,35.8.1,35.8.3Z"/><path class="cls-4" d="M507.4,276.9c0,.1-16,.3-35.8.3s-35.8-.1-35.8-.3,16-.3,35.8-.3,35.8.1,35.8.3Z"/><rect class="cls-13" x="432.5" y="254.3" width="72.9" height="6.6"/><rect class="cls-8" x="433.5" y="255.4" width="71.8" height="4.6"/><g class="cls-9"><rect x="461.5" y="254.3" width="43.8" height="6.6" transform="translate(966.9 515.3) rotate(180)"/></g><rect class="cls-4" x="434.6" y="261" width="72.9" height="6.7"/><rect class="cls-8" x="435.7" y="262" width="71.8" height="4.7"/><g class="cls-9"><rect x="463.7" y="261" width="43.8" height="6.7" transform="translate(971.2 528.7) rotate(180)"/></g><rect class="cls-4" x="571" y="297" width="10.2" height="160.7"/><rect class="cls-4" x="304.7" y="297" width="10.2" height="160.7"/><rect class="cls-6" x="261.9" y="283.3" width="336.6" height="13.8"/><polygon class="cls-14" points="332.7 254.3 326.7 282.8 351.3 282.8 353 254.3 332.7 254.3"/><rect class="cls-14" x="288.6" y="180.9" width="111.1" height="83.9" rx="5.6" ry="5.6"/><path class="cls-4" d="M294.2,264.8s-.3,0-1-.1c-.6-.1-1.6-.4-2.6-1.2-1-.8-1.9-2.2-2-4,0-1.8,0-4,0-6.4,0-9.6,0-23.6,0-40.8,0-4.3,0-8.8,0-13.5,0-2.3,0-4.7,0-7.2,0-1.2,0-2.5,0-3.7,0-.6,0-1.3,0-1.9,0-.6.2-1.2.4-1.7.5-1.1,1.4-2,2.5-2.6.5-.3,1.1-.5,1.8-.5.6,0,1.3,0,1.9,0,2.6,0,5.3,0,8,0,5.4,0,10.9,0,16.6,0,22.8,0,47.8,0,74,0,1.6,0,3.1.7,4.1,1.9.5.6.9,1.3,1.1,2,.2.7.2,1.5.2,2.3,0,3.2,0,6.5,0,9.7,0,6.4,0,12.7,0,18.9,0,12.4,0,24.3,0,35.7,0,1.4,0,2.8,0,4.2,0,.7,0,1.4,0,2.1,0,.7,0,1.4,0,2-.2,1.3-.9,2.5-2,3.3-1,.8-2.3,1.2-3.6,1.2-5.4,0-10.6,0-15.7,0-10.1,0-19.5,0-28.1,0-17.2,0-31.1,0-40.8,0-4.8,0-8.5,0-11.1,0-1.3,0-2.2,0-2.9,0-.6,0-1,0-1,0,0,0,.3,0,1,0,.7,0,1.6,0,2.9,0,2.5,0,6.3,0,11.1,0,9.6,0,23.6,0,40.8,0,8.6,0,18,0,28.1,0,5.1,0,10.3,0,15.7,0,1.4,0,2.8-.4,3.9-1.3,1.1-.9,1.9-2.2,2.2-3.6.1-.7,0-1.4,0-2.1,0-.7,0-1.4,0-2.1,0-1.4,0-2.8,0-4.2,0-11.4,0-23.3,0-35.7,0-6.2,0-12.5,0-18.9,0-3.2,0-6.4,0-9.7,0-.8,0-1.7-.2-2.5-.2-.8-.6-1.6-1.2-2.2-1.1-1.3-2.8-2.1-4.5-2.1-26.3,0-51.3,0-74,0-5.7,0-11.2,0-16.6,0-2.7,0-5.4,0-8,0-.7,0-1.3,0-2,0-.7,0-1.3.3-1.9.6-1.2.6-2.2,1.6-2.7,2.8-.3.6-.4,1.2-.5,1.9,0,.7,0,1.3,0,1.9,0,1.2,0,2.5,0,3.7,0,2.4,0,4.8,0,7.2,0,4.7,0,9.2,0,13.5,0,17.2,0,31.1,0,40.8,0,2.4,0,4.5,0,6.4.1,1.9,1.1,3.3,2.1,4.1,1,.8,2,1.1,2.6,1.2.3,0,.6,0,.7,0,.2,0,.2,0,.2,0Z"/><polygon class="cls-9" points="330 267.1 352.3 267.1 352.4 265 330.4 265 330 267.1"/><rect class="cls-3" x="291.6" y="184.6" width="105.3" height="69.7"/><path class="cls-8" d="M603.3,110.3l3.8-6.7c-1.4-4.8-1.5-10,.2-15.1,3.9-11.6,15.9-18.7,27.9-16.5,15.1,2.8,24.1,18.2,19,32.7-4.1,11.6-16.3,18.6-28.4,16.1-6.2-1.3-11.3-4.7-14.8-9.2h0s-7.9-1.2-7.9-1.2Z"/><path class="cls-4" d="M603.3,110.3s.2,0,.5,0c.4,0,.9.1,1.5.2,1.4.2,3.3.5,5.8.8v.2c-.1,0-.1,0-.1,0,0,0,0-.1,0-.2,0,0,.1,0,.1,0,1.9,2.5,5,5.5,9.5,7.5,2.2,1,4.8,1.7,7.6,2,2.8.3,5.8,0,8.9-.7,3-.8,6.1-2.3,8.8-4.4,2.7-2.1,5.1-4.9,6.7-8.1,3.4-6.5,3.8-15.1,0-22.3l-.7-1.3-.8-1.3c-.5-.9-1.2-1.6-1.8-2.4-1.3-1.5-2.8-2.8-4.4-3.9-3.2-2.3-6.8-3.7-10.4-4.3-3.6-.6-7.3-.3-10.6.7-3.3.9-6.3,2.6-8.7,4.5-4.9,4-7.7,9.4-8.7,14.2-1,4.8-.4,9.1.5,12.1,0,0,0,0,0,0-1.2,2.1-2.2,3.8-2.9,4.9-.3.5-.6,1-.8,1.3-.2.3-.3.4-.3.4,0,0,0-.1.2-.4.2-.3.4-.7.7-1.3.6-1.2,1.6-2.9,2.8-5.1h0c-.9-2.9-1.6-7.2-.6-12.1.9-4.9,3.7-10.4,8.7-14.4,2.5-2,5.5-3.7,8.9-4.7,3.4-1,7.1-1.3,10.8-.7,3.7.6,7.4,2.1,10.7,4.4,1.6,1.1,3.1,2.5,4.5,4,.6.8,1.3,1.6,1.8,2.4l.8,1.3.7,1.4c3.8,7.4,3.4,16.2,0,22.8-1.7,3.3-4.1,6.1-6.9,8.3-2.8,2.2-5.8,3.6-8.9,4.5-3.1.8-6.2,1-9,.7-2.8-.3-5.5-1-7.7-2.1-4.6-2.1-7.6-5.1-9.6-7.7h.2c0-.1,0-.1,0-.1,0,0,0,.1,0,.2,0,0,0,0,0,0-2.6-.4-4.5-.8-5.9-1-.6-.1-1.1-.2-1.5-.3-.3,0-.5,0-.5,0Z"/><polygon class="cls-13" points="630.3 107.5 617.4 97.9 620.7 93.4 629.4 99.8 641.2 85.6 645.5 89.2 630.3 107.5"/><path class="cls-4" d="M549.6,77.3c-5.7-.8-11.7,2.5-13.9,7.4-2.2,5-.2,11.2,4.5,14.3-2.4,2.4-3,6.2-1.5,9.2,1.4,3,8.5,10.2,12,10.8,3.5.7,3.3-5.1,6.3-6.7.4,2.9,2.8,5.4,5.8,6,3,.6,6.4-.6,8.1-3.1,3.1,3.4.4,8.4,5,7.5,10.6-1.9,14.8-12,13.7-16.4,4-1.9,6.6-5.9,6.7-10.1,0-4.2-2.5-8.2-6.4-10.3,1.1-3.5-.3-7.7-3.4-10-3.1-2.3-7.7-2.6-11.2-.8-2.4-4.8-8.3-7.8-13.9-7.2-5.6.5-10.6,4.6-12,9.8"/><path class="cls-15" d="M583.4,100.7c1.1-6.5-2-13.6-7.5-17-3.5-2.2-6.4-2.4-8.3-2.8-4.3-.9-8,.9-8,.9-1.9.3-9.1,5.8-10.1,12.5-1.1,7.4-2.1,16.5-1.7,22.1.9,11.3,9.2,13.4,9.2,13.4,0,0-2.1,9.7-2.1,9.7l13.4,3.2,7.2-9,7.9-32.9Z"/><path class="cls-10" d="M557.1,129.6s7.5,1.1,15.2-2.8c0,0-4.6,7.5-15.6,5.6l.4-2.8Z"/><path class="cls-15" d="M580.6,107.1c0-.8,1.2-2.7,2-2.8,2.2-.2,6.1.3,5.7,5.9-.6,7.6-9.4,5.4-9.4,5.2,0-.2,1.5-5.4,1.7-8.3Z"/><path class="cls-10" d="M582.2,112.9s.1.1.3.2c.2.1.6.2,1,0,.8-.2,1.6-1.5,1.7-2.8,0-.7,0-1.4-.2-1.9-.2-.6-.5-1-.9-1.1-.4-.1-.7,0-.8.3-.1.2,0,.4-.1.4,0,0-.2-.1,0-.4,0-.1.1-.3.3-.5.2-.1.5-.2.7-.1.6,0,1.1.7,1.3,1.3.3.6.4,1.4.3,2.2-.2,1.5-1.1,2.9-2.2,3.1-.5,0-1,0-1.2-.3-.2-.2-.2-.4-.2-.4Z"/><path class="cls-4" d="M545.9,98.2c10.9,0,8.3-10.5,12.7-9.1,8.4,2.7,11.7-2.2,14-5.9,0,0,3.3,13.1,6.7,14.2,0,0-.6,4.7,0,7.7.4,2-.4,5.4.3,6.1,1.5,1.3,5.5-7.1,6.9-8.6,1.3-1.5,2-3.5,2.6-5.5l-3.5-13.1-13-6.9-9.8-2.9-8.3,2.6s-8.8,6.7-8.6,6.9c.2.1,0,14.5,0,14.5Z"/><path class="cls-10" d="M560.6,116.9c.1,1.3,1.3,2.2,2.6,2.1,1.3-.1,2.2-1.3,2.1-2.6s-1.3-2.2-2.6-2.1c-1.3.1-2.2,1.3-2.1,2.6Z"/><path class="cls-4" d="M552.4,104.2c0,.8.6,1.4,1.4,1.5.8,0,1.5-.5,1.5-1.3,0-.8-.6-1.4-1.4-1.5-.8,0-1.5.5-1.5,1.3Z"/><path class="cls-4" d="M552.2,98.6c.2.2,1.3-.6,2.9-.6,1.6,0,2.7.8,2.9.6,0,0,0-.4-.6-.8-.5-.4-1.3-.7-2.3-.7-1,0-1.8.3-2.3.7-.5.4-.7.7-.6.8Z"/><path class="cls-4" d="M565.6,115c-.2-.2-1.2.8-2.7,1.1-1.6.3-2.8-.3-3-.1,0,0,.2.4.7.7.5.3,1.4.5,2.4.3,1-.2,1.7-.7,2.1-1.1.4-.4.5-.8.4-.9Z"/><path class="cls-4" d="M561.5,111.6c0,0-1-.3-2.6-.5-.4,0-.8-.1-.8-.4,0-.3,0-.7.3-1.2.4-1,.8-2,1.2-3.1,1.7-4.3,3-7.9,2.8-8-.2,0-1.7,3.4-3.4,7.7-.4,1.1-.8,2.1-1.2,3.1-.2.5-.4,1-.2,1.6.1.3.4.5.7.6.3,0,.5,0,.7.1,1.6.1,2.6.1,2.6,0Z"/><path class="cls-4" d="M552.5,91.9c.3.4,1.5.1,2.9.3,1.4,0,2.6.5,2.9.2.1-.2,0-.5-.5-.9-.5-.4-1.3-.8-2.3-.8-1,0-1.8.2-2.4.5-.5.3-.7.7-.6.8Z"/><path class="cls-4" d="M568.5,105.5c0,.8-.7,1.4-1.5,1.4-.8,0-1.5-.6-1.4-1.4,0-.8.7-1.4,1.5-1.4.8,0,1.5.6,1.4,1.4Z"/><path class="cls-4" d="M572.8,100.3c-.2.2-1.3-.7-2.8-.8-2.8.2-3.4.8-2.9.5,0,0,.1-.4.6-.8.5-.3,1.4-.7,2.4-.6,1,0,1.8.5,2.2.9.5.4.6.7.5.8Z"/><path class="cls-4" d="M573.2,96.6c-.3.3-1.5,0-3-.2-1.5-.1-2.7.1-3-.3-.1-.2,0-.5.7-.8.6-.3,1.5-.5,2.5-.5,1,0,1.9.4,2.3.8.5.4.6.8.5.9Z"/><path class="cls-15" d="M563.7,419c-.3,0-1.4,10.6-1,11.4.4.8,3.8,2.9,3.5,4.2-.3,1.3-16.9,19.9-19.1,20.7-2.2.8-4.6.6-4.6.6,0,0,5.3-17.3,6.8-22.2,1.5-4.9,1.7-15,1.7-15l12.6.3Z"/><path class="cls-4" d="M563.2,431c.3.3,4.3,3,5.5,7,1.3,4,.9,21.7.9,21.7l-1.8.2s-.8-13.1-1.4-14.1c-.6-.9-2.6-2.1-7.3,3-4.7,5.1-3.7,9.9-8.3,11.8-4.5,1.9-20.1,1.5-20.1.4s12.1-6.3,12.1-6.3c0,0,3.2.7,6-2.2,2.8-2.9,14.3-21.7,14.3-21.7Z"/><path class="cls-15" d="M581.3,425.3s3.2,7.2,3,9.6c-.2,2.4-.4,8,.2,11.3.6,3.3,2.2,6.2.5,8.5-1.6,2.3-13-3-13-3,0,0,0-9.1.1-13.2.1-4.1.5-12.8-.4-16.6l10.1-1.2-.4,4.6Z"/><path class="cls-4" d="M585.4,449.6s1.3,4.8.9,8.5c-.4,3.7-4.9,4.4-7.4,4.4-5.1,0-7.9-2.1-8.5-2.8-.6-.6,1.3-8.4,1-9.5-.3-1.1.7-11.4.7-11.2,0,.2-.6,11.3.4,11.9,1.1.7,10.4.5,12.9-1.4Z"/><path class="cls-4" d="M583.9,451.2s.4-4.5.3-5.9c-.1-1.4-.2-5.6-.2-5.6,0,0,.3,5.4.7,6.5.4,1.1.8,4.1.8,4.1l-1.6.9Z"/><path class="cls-4" d="M591.2,236.9c-.4,1.7,10.8,26.7,10,37.4-.7,10.7-9.7,72.8-9,81.8.7,9,.3,28.8-.2,39.7-.7,14.2-.8,36-.8,36h-19.8c0,.1-7.7-57.7-7.4-77.1.4-19.4-4.3-112.3-4.3-112.3,0,0-.9-27.6-1.2-25.2-.3,2.4,29.4.9,29.4.9l3.3,18.8Z"/><path class="cls-4" d="M558.6,217.2l21.4,93.8-8.5,120.9h-23.7s-1.8-13.5-2.7-26.7c-.9-13.7-4.3-38.9-5.4-47.2-1.2-8.8-11.7-61.3-13.1-80.3-1.4-19.1,7.3-59.2,7.4-60.6h24.6Z"/><path class="cls-3" d="M591.2,431.8s-.1,0-.4,0c-.3,0-.6,0-1.1,0-1,0-2.3,0-4.1,0-3.6,0-8.8.1-15.4.2h-.2s0-.1,0-.1c-.9-8.4-1.5-19.2-2.3-31.6-.7-12.4-1.4-26.3-2.1-41.1-1.8-37.5-3.1-69.9-3.7-84.6h0c-1.5-2.4-2.7-4.3-3.5-5.6-.4-.6-.7-1.1-.9-1.5-.2-.3-.3-.5-.3-.5,0,0,.1.2.3.5.2.3.5.8.9,1.4.8,1.3,2,3.2,3.6,5.6h0s0,0,0,0c.7,14.8,2.2,47.1,4,84.6.7,14.8,1.4,28.7,2.1,41.1.7,12.4,1.2,23.2,2.1,31.5h-.2c6.6-.2,11.8-.2,15.4-.2,1.8,0,3.1,0,4.1,0,.4,0,.8,0,1.1,0,.2,0,.4,0,.4,0Z"/><path class="cls-3" d="M585.7,370.1c0,0-.9-.5-2.2-1.4-1.3-1-3-2.5-4.7-4.3-1.7-1.9-3-3.7-3.9-5.1-.9-1.4-1.3-2.3-1.2-2.4,0,0,.6.8,1.6,2.1.9,1.3,2.3,3.1,4,4.9,1.7,1.8,3.3,3.3,4.6,4.4,1.2,1.1,2,1.7,2,1.7Z"/><path class="cls-3" d="M554.5,362.3c0,.1-1.7-.7-3.3-2.3-1.6-1.5-2.5-3.1-2.4-3.2.1,0,1.2,1.3,2.8,2.8,1.6,1.5,3,2.5,2.9,2.7Z"/><path class="cls-7" d="M539.1,141.7s-5,2.8-7.6,9.7c-2.6,6.9-9.5,51.2-10.5,50.6-.9-.6-8.9-3.4-9.7-2.5-.8.9-5.6,13-5.1,14.8.4,1.8,12.9,11.2,21.5,11,8.6-.2,11.4-83.6,11.4-83.6Z"/><path class="cls-15" d="M516.8,203.4l-5.2-3.2s.3-5.2-2.4-7.8c-2.7-2.6-4.6-3.3-6.5-5.7s-4.1-5-4.4-4.9c-.4.1-1.7,2.3-.7,4.5,1,2.2,3,5.4,3,5.4,0,0-19.4-4.3-20.3-2.6-.9,1.7.4,3.4.4,3.4,0,0-.3,1.8.7,2.6l1.3,1s-.2,2.5,3.3,3.7v.3c.4.9.9,1.6,1.7,2,1.9,1,5.7,3,7.3,3.8,2.3,1.2,12.4,2.9,12.4,2.9l5.1,3.5,4.2-8.7Z"/><path class="cls-10" d="M503.7,199.7c0,.1-1.8-1.4-2.7-4-.9-2.6-.3-4.9-.2-4.8.2,0-.1,2.2.7,4.7.8,2.5,2.3,4.1,2.2,4.2Z"/><path class="cls-10" d="M496.5,195.3c0,0-.9-.1-2.3-.4-1.6-.3-3.5-.7-5.5-1.2-2.1-.4-3.9-.8-5.5-1.1-1.4-.3-2.3-.4-2.3-.5,0,0,.9,0,2.3.1,1.4.2,3.4.5,5.6.9,2.2.4,4.1.9,5.5,1.3,1.4.4,2.2.7,2.2.8Z"/><path class="cls-10" d="M496,203.9c-.1,0-.5-2.6,0-5.9.4-3.3,1.5-5.7,1.6-5.7.2,0-.7,2.5-1.1,5.7-.5,3.2-.4,5.8-.5,5.8Z"/><path class="cls-10" d="M496.2,198.8c0,0-.8,0-2-.3-1.5-.3-3-.6-4.8-.9-3.7-.7-6.8-1.5-6.7-1.7,0,0,.8,0,2,.3,1.5.3,3,.5,4.8.9,3.8.7,6.7,1.6,6.7,1.7Z"/><path class="cls-10" d="M495.9,202.4c0,.1-2.3-.4-5.1-1.2-2.8-.8-5-1.5-5-1.7,0-.1,2.3.4,5.1,1.2,2.8.8,5,1.5,5,1.7Z"/><path class="cls-11" d="M576.4,129.9l-16.6,10.9-4.7-6.7-3.3,6.3s-16.7,17.9-19.5,29.9c-2.8,12,2.3,48.7,2.3,48.7,12.2,8,42.9,0,42.9,0l3-83.7-4-5.3Z"/><path class="cls-7" d="M579.3,133.6l3,4.3,18.5,6.2-3.4,63.9,12.9,55.2s-21.7,9-26.1,8.8c-4.4-.3-9.1-51.8-10.2-66.2-1.3-16.6.2-45.6,1-53.3.8-7.7,4.3-18.9,4.3-18.9Z"/><path class="cls-7" d="M553.8,136.3c-.8,1.3-4,3.5-4,3.5l-10.7,1.9s-12.7,40.5-10.8,63.7c1.8,23.2-4.6,58.1-3.9,63.8h5.7s8-47.2,7.2-63.2c-.8-16-2.6-19.4,0-30.5,2.6-11.1,16.6-39.2,16.6-39.2Z"/><path class="cls-4" d="M529.7,199.5s-.1-.5-.2-1.4c-.1-.9-.2-2.2-.3-3.9-.2-3.3-.2-7.8.4-12.8.6-5,1.5-9.4,2.4-12.5.4-1.6.8-2.8,1.2-3.7.3-.9.5-1.3.5-1.3,0,0,0,.5-.3,1.4-.3.9-.6,2.1-1,3.7-.8,3.2-1.7,7.6-2.3,12.5-.6,4.9-.6,9.4-.6,12.7,0,1.6,0,2.9.1,3.9,0,.9,0,1.4,0,1.4Z"/><path class="cls-4" d="M574.8,194.9s0-.2.2-.5c.1-.4.3-.9.5-1.5.4-1.3.9-3.2,1.5-5.6,1.2-4.7,2.8-11.3,4.1-18.7,1.3-7.4,2.3-14.1,2.8-18.9.3-2.4.5-4.4.6-5.8,0-.6,0-1.2.1-1.6,0-.4,0-.6,0-.6,0,0,0,.2-.1.5,0,.4-.1.9-.2,1.6-.2,1.4-.4,3.4-.7,5.7-.6,4.8-1.6,11.5-2.9,18.9-1.3,7.3-2.8,13.9-4,18.7-.6,2.3-1,4.2-1.4,5.6-.1.6-.3,1.1-.4,1.5,0,.4-.1.5,0,.5Z"/><path class="cls-4" d="M538,173.8s.2-.4.3-1.3c.2-.9.5-2.1.8-3.5.7-3,1.7-7,3.1-11.4,1.4-4.4,2.8-8.4,4-11.2.5-1.3,1-2.4,1.3-3.3.3-.8.5-1.2.4-1.2,0,0-.3.4-.6,1.2-.4.8-.9,1.9-1.5,3.3-1.2,2.8-2.7,6.7-4.1,11.2-1.4,4.4-2.3,8.5-2.9,11.5-.3,1.5-.5,2.7-.6,3.6-.1.8-.2,1.3-.1,1.3Z"/><path class="cls-4" d="M550.1,199.5s0-.2,0-.6c0-.4,0-1,.2-1.6.1-1.5.3-3.5.5-6,.5-5.1,1.3-12.1,2.6-19.8,1.3-7.7,2.7-14.6,3.9-19.6.6-2.4,1.1-4.4,1.4-5.9.2-.6.3-1.2.4-1.6,0-.4.1-.6,0-.6,0,0,0,.2-.2.5-.1.4-.3.9-.5,1.6-.4,1.4-.9,3.4-1.6,5.8-1.3,5-2.8,11.9-4.1,19.6-1.3,7.7-2,14.7-2.4,19.8-.2,2.5-.3,4.6-.4,6,0,.7,0,1.2,0,1.6,0,.4,0,.6,0,.6Z"/><path class="cls-14" d="M561,206.6c-.3,3.7-4.1,6-7.5,7.6-8.1,3.6-16.7,6.3-25.5,8l-12.9-33.4c12.5,8.6,30.7,17.4,45.8,17.9Z"/><path class="cls-14" d="M560.2,204.3c-.3,3.7-4.1,6-7.5,7.6-8.1,3.6-16.7,6.3-25.5,8l-12.1-31.1c12.5,8.6,29.9,15.1,45.1,15.6Z"/><path class="cls-4" d="M523.8,194.1s.4.4,1.2.9c.8.6,2,1.4,3.5,2.3,3.1,1.8,7.5,4.1,12.6,5.9,5.2,1.8,10,2.7,13.6,3.1,1.8.2,3.2.3,4.2.3,1,0,1.5,0,1.5,0,0,0-.5-.1-1.5-.2-1,0-2.4-.3-4.2-.5-3.5-.5-8.3-1.5-13.5-3.2-5.1-1.8-9.5-3.9-12.6-5.7-1.5-.9-2.8-1.6-3.6-2.2-.8-.5-1.3-.8-1.3-.8Z"/><path class="cls-4" d="M532.7,201.3s.3.3.8.6c.5.4,1.4.9,2.4,1.5,2.1,1.2,5,2.6,8.4,3.9,3.4,1.2,6.6,2,9,2.4,1.2.2,2.1.3,2.8.4.7,0,1,0,1,0,0,0-1.4-.3-3.7-.8-2.3-.5-5.5-1.3-8.8-2.5-3.4-1.2-6.3-2.6-8.4-3.7-2.1-1.1-3.4-1.8-3.4-1.8Z"/><path class="cls-4" d="M561.3,222.4l-46.1-33.6c-.3-.2-.7-.3-1-.3l-32.5,1.3c-1.6,0-2.2,2.1-.9,3l45.9,32.4c.3.2.6.3,1,.3h32.7c1.6,0,2.3-2.1,1-3Z"/><path class="cls-15" d="M561.5,209s-4.8-3.2-8.9-2.8c-4.1.4-13.8,2.4-13.8,2.4l4.5,3.3s-4.2,1.3-3.9,2.6c.3,1.3,2.6,2.4,2.6,2.4,0,0-1.3,1.7-.3,3,1.1,1.2,1.6,1.2,1.6,1.2,0,0,0,1.3,2.2,2.2,0,0-.2,2,3.4,2.7,3.5.7,11.9-.6,15.1-1.1l4.5-.5v-13s-2.2.9-3.3,0c-.8-.7-3.7-2.4-3.7-2.4Z"/><path class="cls-10" d="M543,212.1c0,.1,1.5-.2,3.2-.7,1.7-.5,3.1-1.1,3-1.2,0-.1-1.5.2-3.2.7-1.7.5-3.1,1.1-3,1.2Z"/><path class="cls-10" d="M550.8,216.9c0-.2-2,0-4.5,0-2.5,0-4.5-.2-4.5,0,0,.1,2,.6,4.5.6,2.5,0,4.5-.4,4.5-.5Z"/><path class="cls-10" d="M551.5,220.4c0-.1-1.8.5-4.1.7-2.3.2-4.1,0-4.1.1,0,.1,1.8.7,4.2.4,2.4-.2,4.1-1.2,4-1.3Z"/><path class="cls-10" d="M553.9,224.4c0-.2-1.8-.1-4-.3-2.2-.2-4-.5-4-.4,0,.1,1.7.7,4,.9,2.3.2,4.1-.1,4.1-.2Z"/><path class="cls-7" d="M597.4,143c.8.4,9.3.1,11.2,16.3,1.8,15.3,7.3,57.9,3.3,61-4,3.1-47.8,10.7-47.8,10.7l-2.1-21.8,29.3-6.8s-2.2-41.1-.5-45.8c1.7-4.6,6.6-13.7,6.6-13.7Z"/><path class="cls-4" d="M590.2,162.4c0,0,.3-1.1.8-2.8.5-1.7,1.4-4.1,2.8-6.4,1.4-2.3,3.1-4.2,4.4-5.5,1.3-1.2,2.2-1.9,2.1-2,0,0-.3.1-.7.4-.4.3-1,.7-1.7,1.3-1.4,1.2-3.1,3.1-4.6,5.5-1.5,2.4-2.3,4.8-2.7,6.6-.2.9-.3,1.6-.4,2.1,0,.5,0,.8,0,.8Z"/><path class="cls-4" d="M598.9,224.8s-.2,0-.7,0c-.5,0-1.1.2-1.9.3-1.7.3-4.1.8-7.2,1.3-6.2,1.2-14.9,2.9-25.1,4.8l.3.2c-.6-6.7-1.4-14.1-2.1-21.8l-.2.3c0,0,.1,0,.2,0,10.7-2.4,20.7-4.7,29.1-6.6h.2s0-.2,0-.2c-.4-8.3-.7-15.2-.9-20.1-.1-2.4-.2-4.3-.3-5.6,0-.6,0-1.1,0-1.5,0-.3,0-.5,0-.5s0,.2,0,.5c0,.4,0,.9,0,1.5,0,1.3,0,3.2.2,5.6.2,4.9.4,11.8.7,20.1l.2-.2c-8.4,1.9-18.4,4.1-29.1,6.5,0,0-.1,0-.2,0h-.2c0,0,0,.3,0,.3.8,7.7,1.5,15.1,2.1,21.8v.3s.3,0,.3,0c10.2-2,18.9-3.8,25.1-5,3-.6,5.5-1.1,7.2-1.5.8-.2,1.4-.3,1.9-.4.4,0,.7-.2.6-.2Z"/><path class="cls-4" d="M504.5,190.4l-.6-1.3s-1.9-1.7-2.6-2c-.4-.2-9,.4-9.1.7-.1.3,2.8,2.6,3.4,2.6.5,0,8.8,0,8.8,0Z"/><rect class="cls-8" x="383.9" y="77.6" width="88.7" height="120.1" rx="6.3" ry="6.3" transform="translate(-1 3.1) rotate(-.4)"/><path class="cls-4" d="M466.7,197.5s.4,0,1-.1c.7-.1,1.7-.4,2.8-1.3,1-.8,2.1-2.3,2.4-4.2,0-2,0-4.3,0-6.8,0-10.3-.2-25.2-.4-43.6,0-9.2-.2-19.3-.3-30.1,0-5.4,0-11-.1-16.8,0-2.9,0-5.8,0-8.8,0-1.5.1-3-.4-4.3-.5-1.3-1.5-2.5-2.8-3.2-.6-.3-1.4-.6-2.1-.7-.7,0-1.5,0-2.3,0-1.5,0-3.1,0-4.6,0-3.1,0-6.3,0-9.4,0-6.4,0-12.9,0-19.5.1-13.2,0-26.9.2-41,.3-1.7,0-3.3.8-4.5,2-1.1,1.2-1.7,2.9-1.6,4.6,0,3.5,0,6.9,0,10.3,0,6.8,0,13.6.1,20.2,0,13.2.2,26,.3,38.2,0,12.2.2,23.7.2,34.6,0,1.3,0,2.7,0,4,0,1.3.6,2.5,1.4,3.5.8,1,1.9,1.7,3.1,2,1.2.4,2.5.2,3.7.2,5,0,9.8,0,14.4,0,18.4,0,33.3-.2,43.6-.2,5.1,0,9.1,0,11.9,0,1.3,0,2.4,0,3.1,0,.7,0,1.1,0,1.1,0,0,0-.4,0-1,0-.7,0-1.7,0-3.1,0-2.7,0-6.7,0-11.8.1-10.3,0-25.2.2-43.6.4-4.6,0-9.4,0-14.4.1-.6,0-1.3,0-1.9,0-.6,0-1.3,0-1.9-.2-1.3-.4-2.4-1.1-3.3-2.2-.8-1-1.4-2.4-1.5-3.7,0-1.4,0-2.7,0-4,0-10.8-.2-22.4-.3-34.6,0-12.2-.2-24.9-.3-38.2,0-6.6-.1-13.4-.2-20.2,0-3.4,0-6.9,0-10.3-.1-1.8.5-3.7,1.7-5,1.2-1.4,3-2.2,4.8-2.2,14-.1,27.7-.2,41-.3,6.6,0,13.1,0,19.5-.1,3.2,0,6.3,0,9.4,0,1.6,0,3.1,0,4.6,0,.8,0,1.5,0,2.3,0,.8,0,1.6.3,2.3.7,1.4.7,2.5,2,3.1,3.5.3.7.4,1.5.4,2.3,0,.7,0,1.5,0,2.2,0,3,0,5.9,0,8.8,0,5.8,0,11.4.1,16.8,0,10.8.1,20.9.2,30.1,0,18.4.2,33.3.2,43.6,0,2.6,0,4.9,0,6.8-.2,2-1.4,3.5-2.4,4.3-1.1.8-2.1,1.1-2.8,1.2-.3,0-.6,0-.8,0-.2,0-.3,0-.3,0Z"/><rect class="cls-14" x="390.6" y="184.3" width="75.5" height="3"/><path class="cls-13" d="M398,165.8l1.3,2.7c.2.3.5.5.8.6l3,.4c.9.1,1.2,1.2.6,1.8l-2.2,2.1c-.2.2-.4.6-.3.9l.5,3c.1.9-.8,1.5-1.5,1.1l-2.7-1.4c-.3-.2-.7-.2-1,0l-2.7,1.4c-.8.4-1.7-.3-1.5-1.1l.5-3c0-.3,0-.7-.3-.9l-2.2-2.1c-.6-.6-.3-1.7.6-1.8l3-.4c.3,0,.6-.3.8-.6l1.3-2.7c.4-.8,1.5-.8,1.9,0Z"/><path class="cls-13" d="M413.7,165.8l1.3,2.7c.2.3.5.5.8.6l3,.4c.9.1,1.2,1.2.6,1.8l-2.2,2.1c-.2.2-.4.6-.3.9l.5,3c.1.9-.8,1.5-1.5,1.1l-2.7-1.4c-.3-.2-.7-.2-1,0l-2.7,1.4c-.8.4-1.7-.3-1.5-1.1l.5-3c0-.3,0-.7-.3-.9l-2.2-2.1c-.6-.6-.3-1.7.6-1.8l3-.4c.3,0,.6-.3.8-.6l1.3-2.7c.4-.8,1.5-.8,1.9,0Z"/><path class="cls-13" d="M429.4,165.8l1.3,2.7c.2.3.5.5.8.6l3,.4c.9.1,1.2,1.2.6,1.8l-2.2,2.1c-.2.2-.4.6-.3.9l.5,3c.1.9-.8,1.5-1.5,1.1l-2.7-1.4c-.3-.2-.7-.2-1,0l-2.7,1.4c-.8.4-1.7-.3-1.5-1.1l.5-3c0-.3,0-.7-.3-.9l-2.2-2.1c-.6-.6-.3-1.7.6-1.8l3-.4c.3,0,.6-.3.8-.6l1.3-2.7c.4-.8,1.5-.8,1.9,0Z"/><path class="cls-13" d="M445.2,165.8l1.3,2.7c.2.3.5.5.8.6l3,.4c.9.1,1.2,1.2.6,1.8l-2.2,2.1c-.2.2-.4.6-.3.9l.5,3c.1.9-.8,1.5-1.5,1.1l-2.7-1.4c-.3-.2-.7-.2-1,0l-2.7,1.4c-.8.4-1.7-.3-1.5-1.1l.5-3c0-.3,0-.7-.3-.9l-2.2-2.1c-.6-.6-.3-1.7.6-1.8l3-.4c.3,0,.6-.3.8-.6l1.3-2.7c.4-.8,1.5-.8,1.9,0Z"/><path class="cls-14" d="M460.9,165.8l1.3,2.7c.2.3.5.5.8.6l3,.4c.9.1,1.2,1.2.6,1.8l-2.2,2.1c-.2.2-.4.6-.3.9l.5,3c.1.9-.8,1.5-1.5,1.1l-2.7-1.4c-.3-.2-.7-.2-1,0l-2.7,1.4c-.8.4-1.7-.3-1.5-1.1l.5-3c0-.3,0-.7-.3-.9l-2.2-2.1c-.6-.6-.3-1.7.6-1.8l3-.4c.3,0,.6-.3.8-.6l1.3-2.7c.4-.8,1.5-.8,1.9,0Z"/><rect class="cls-2" x="386.7" y="82.1" width="81.5" height="77.2"/><path class="cls-13" d="M453.8,102.1s8,2.2,9.1,17.4c.9,12.9,2.2,39.7,2.2,39.7h-10.1l-1.2-57.1Z"/><polygon class="cls-15" points="412.9 111.5 418.1 99.4 438.1 96.4 444.7 112 430 136.4 412.9 111.5"/><path class="cls-4" d="M446.8,53.1c-.2-1.2-1.2-2.3-2.4-2.6-1.2-.3-2.6.2-3.3,1.2-.2-1.9-3-2.4-4.5-1.2-1.5,1.1-2,3.1-2.4,5l-1.6.4c-2.1,0-4,1.4-4.8,3.4-.8,1.9-.3,4.3,1.1,5.8-1.3,1.7-1.3,4.3-.1,6.1,1.2,1.8,3.7,2.6,5.7,1.9-.5,2.8,1.3,5.9,4,6.9,2.7,1,6.1-.3,7.4-2.9,1.8.4,3.9-.3,5.1-1.8,1.1-1.5,1.3-3.7.4-5.4,1.8-.8,3.1-2.7,3.3-4.7.1-2-.9-4-2.7-5,1.5-1.5,1.8-4.2.4-5.9-1.3-1.7-3.9-2.2-5.8-1.1Z"/><path class="cls-4" d="M441.6,66.2c1.2-2.2-1.4-5.9-3.4-7.4.8-1.4.6-2.7-.6-3.8-1.2-1.1-1.1-1.4-2.6-1.8-1.3-3.5-5.6-5.4-9.1-4.1-2.2-2.5-6.2-2.3-9.3-1-.7.3-1.5.7-2.3.8-.6,0-1.2,0-1.8,0-3.3,0-6.2,2.7-7,5.9-.1.5-1.4,2-1.7,2.5-.3.6-.9.9-1.2,1.5-.9,2.2.4,2.9.6,4.4.1,1.3-.4,1.2-.7,2.4-.2.6-.6,1.1-.7,1.8-.4,1.8,1.8,3.3,1.7,5.1,0,.4-.1.7-.2,1.1-.1.8,0,1.6.5,2.2.3.5.8.9.9,1.5,0,.4,0,.9,0,1.3,0,1.1,2.8,4.9,3.8,5.3l27.5-3.6c2-.7,3.5-2.8,3.4-5,0-.4,0-.7.1-1,.2-.3.4-.4.7-.6,1.6-1.2,1.5-3.7,1-5.6,0-.3-.1-.6-.1-.8,0-.4.3-.8.5-1.1Z"/><path class="cls-3" d="M417.4,48s.8-.5,2.4-.8c.8-.1,1.8-.2,2.9,0,1.1.2,2.4.9,3.3,1.9h-.2c1.5-.6,3.3-.7,5.1,0,1.7.7,3.5,2.1,4.2,4.1h-.1c.5,0,1,.2,1.4.5.4.3.8.7,1.1,1.1.4.3.8.8,1,1.3.2.5.3,1.1.2,1.7,0,.4-.3.9-.5,1.2v-.3c1.4,1.1,2.5,2.5,3.2,4,.4.8.6,1.6.5,2.4,0,.4-.2.8-.3,1.2-.2.3-.4.6-.5,1,0,.3,0,.7.1,1,0,.4.1.7.2,1.1,0,.7.1,1.4,0,2.1-.1.7-.4,1.3-.8,1.8-.2.2-.5.5-.7.6-.3.2-.5.3-.6.5,0,.2,0,.5,0,.8,0,.3,0,.5,0,.8,0,.5-.2,1-.4,1.4-.4.9-.9,1.5-1.4,1.9-.5.4-.9.7-1.2.8-.2,0-.3.1-.4.1,0,0-.1,0-.1,0,0,0,.7-.2,1.6-1.1.4-.4.9-1,1.3-1.9.2-.4.3-.9.3-1.4,0-.2,0-.5,0-.8,0-.3,0-.6,0-.9.1-.3.4-.5.7-.7.2-.2.4-.4.6-.6.4-.5.6-1.1.7-1.7.1-.6,0-1.3,0-2,0-.3-.1-.7-.2-1.1,0-.3-.2-.7-.1-1.2,0-.4.3-.8.5-1.1.2-.3.3-.7.3-1,0-.7-.2-1.5-.5-2.2-.7-1.4-1.8-2.8-3.1-3.9h-.2c0-.1,0-.3,0-.3.2-.3.3-.7.4-1.1.2-1-.3-2-1.1-2.6-.4-.4-.7-.8-1.1-1-.4-.3-.8-.4-1.3-.6h0s0-.1,0-.1c-.7-1.9-2.3-3.2-4-3.9-1.7-.7-3.5-.6-4.9-.1h-.1s0,0,0,0c-.9-1-2.1-1.7-3.2-1.9-1.1-.3-2.1-.2-2.9,0-1.6.3-2.4.7-2.4.7Z"/><path class="cls-15" d="M434.1,67.2c-.6-4.9-4.5-10-9.7-11.7-3.3-1.1-5.6-.7-7.3-.7-3.6.1-6.3,2.3-6.3,2.3-1.5.6-6.3,6.5-5.7,12,.6,6.2,1.5,13.7,3,18.1,2.9,8.9,10.1,9,10.1,9,0,0,.4,4.4.4,4.4l9.4,6.6,8.5-10.2-2.4-30Z"/><path class="cls-4" d="M410.6,76.3c0,.6.7,1.1,1.3,1,.7,0,1.1-.6,1-1.3,0-.6-.7-1.1-1.3-1-.7,0-1.1.6-1,1.3Z"/><path class="cls-4" d="M407.7,72.4c.2.1,1-.7,2.2-.9,1.3-.2,2.3.3,2.4.1,0,0-.1-.3-.6-.6-.4-.2-1.2-.4-2-.3-.8.1-1.4.5-1.7.9-.3.4-.4.7-.3.7Z"/><path class="cls-4" d="M416.7,81.2c0,0-.8,0-2.1,0-.3,0-.6,0-.7-.2-.1-.2,0-.6,0-1,.2-.8.4-1.7.6-2.6.8-3.7,1.3-6.7,1.1-6.8-.1,0-.9,3-1.7,6.7-.2.9-.4,1.8-.5,2.6,0,.4-.2.8,0,1.3.1.2.4.4.6.4.2,0,.4,0,.6,0,1.3-.1,2.1-.3,2.1-.3Z"/><path class="cls-10" d="M418.2,96.4s6.3-.6,11.8-5.3c0,0-2.3,7-11.6,7.6l-.2-2.3Z"/><path class="cls-4" d="M407.3,67c.3.2,1.2-.3,2.3-.6,1.1-.3,2.1-.3,2.3-.6,0-.2-.2-.4-.6-.6-.5-.2-1.2-.2-2,0-.8.2-1.4.6-1.7,1-.3.4-.4.7-.2.8Z"/><path class="cls-4" d="M424,74.2c0,.6-.3,1.2-1,1.3-.6.1-1.2-.3-1.3-.9,0-.6.3-1.2,1-1.3.6-.1,1.3.3,1.3.9Z"/><path class="cls-4" d="M425.1,70.1c-.1.2-1.1-.4-2.4-.2-1.3.1-2.1.9-2.3.8,0,0,0-.4.4-.7.4-.3,1-.7,1.8-.8.8,0,1.5.1,1.9.4.4.3.6.5.5.6Z"/><path class="cls-4" d="M424.5,63.7c-.2.3-1.2.1-2.4.3-1.2,0-2.2.5-2.4.2-.1-.1,0-.4.4-.8.4-.3,1.1-.6,1.9-.7.8,0,1.5.1,2,.3.5.2.6.5.5.7Z"/><path class="cls-15" d="M433.9,76.1c-.1-.7.4-2.4,1.1-2.6,1.8-.6,5-.9,5.8,3.6,1,6.2-6.6,6.2-6.6,6,0-.1.1-4.7-.2-7Z"/><path class="cls-10" d="M436.3,80.5s.1,0,.3.1c.2,0,.5,0,.8-.1.6-.4,1-1.5.8-2.6,0-.6-.3-1.1-.6-1.5-.3-.4-.6-.7-1-.7-.3,0-.5.2-.6.4,0,.2,0,.3,0,.3,0,0-.2,0-.1-.3,0-.1,0-.3.2-.4.1-.1.3-.2.6-.3.5,0,1,.3,1.3.8.3.5.6,1,.7,1.7.2,1.3-.3,2.5-1.1,3-.4.2-.8.1-1,0-.2-.1-.3-.3-.3-.3Z"/><path class="cls-4" d="M403.7,69.5c1.1-1,1.8-2.2,1.5-3.7.9.1,1.6-1.1,1.9-1.9.4-.8.9-1.3.7-2.1,0-.2,0-.4,0-.5,0-.3.4-.4.6-.5,1.3-.6,2.2-1.9,2.3-3.3,1.4.4,3,.4,4.4,0,.8.8,2,1.2,3.2,1,1.1-.2,2.1-1.1,2.5-2.1.5.7,1.4,1.1,2.3,1.2.9,0,1.8,0,2.6-.3-.1,1.7,1.3,3.4,3,3.7.2,0,.5,0,.6.3.1.2,0,.5,0,.7-.3,1.5.9,3.2,2.5,3.3-.9,1-.5,2.8.7,3.3.2.1.6.2.6.5,0,.1,0,.2,0,.3-.4.7-.7,1.4-.7,2.2,0,.8.7,1.6,1.5,1.5-.3.4-.7.9-.6,1.5,0,.5.6,2.2,1.2,2.2,1.4,0,3.2-2.7,3.3-2.9,1.4-2.7-1.2-5-1.9-7.9-.6-2.9-2.1-5.7-4-8-.8-1-1.7-1.9-2.7-2.7-1.2-.8-2.5-1.4-3.8-2-1.7-.7-3.5-1.5-5.4-1.6-3.5-.3-6.8,1.5-9.7,3.5-1.1.7-2.2,1.5-3.1,2.5-1,1.2-1.7,2.7-2.3,4.2-.8,2.2-1.4,4.5-1.3,6.8"/><path class="cls-10" d="M420.9,82.6c-.7-.4-1.6-.3-2.2.2-.6.6-.6,1.5-.2,2.2.4.7,1.3,1,2.1.8.8-.2,1.4-.9,1.4-1.7,0-.6-.2-1.2-.8-1.4"/><path class="cls-4" d="M421.1,81.2c-.2,0,0,1.4-1.1,2.5-1.1,1.1-2.6,1.1-2.6,1.3,0,0,.4.2,1,.2.6,0,1.5-.3,2.2-1,.7-.7.9-1.5.9-2.1,0-.6-.2-.9-.3-.9Z"/><path class="cls-4" d="M397.4,61.9c.7,2.7,3.5,4.7,6.4,4.5,2.8-.2,5.3-2.6,5.7-5.3,1.1.9,2.8,1,4,.2,1.2-.8,1.8-2.4,1.4-3.8,1.9.6,4.2-.6,5-2.4.9-1.8.5-4.1-.6-5.8-1.2-1.8-3.2-3-5.4-3.3-2.2-.2-4.4.5-6,2-2.9-1.4-7,.6-7.6,3.8-3.1,1.2-4.6,5.5-2.9,8.3"/><path class="cls-3" d="M413.9,50.1s.1-.2.4-.4c.3-.2.7-.5,1.4-.6.6-.1,1.4-.2,2.2,0,.8.2,1.7.8,2.2,1.7.4.7.3,1.7-.4,2.1v-.3c.6.5.9,1.1,1.1,1.6.2.6.2,1.1,0,1.5-.2.9-.6,1.2-.6,1.2,0,0,.2-.4.3-1.3,0-.8-.1-2-1.2-2.8l-.2-.2.2-.2c.4-.3.6-1,.2-1.6-.4-.7-1.2-1.2-1.9-1.5-.7-.2-1.5-.3-2-.2-1.2.2-1.7.8-1.8.7Z"/><path class="cls-8" d="M415.7,109.6c1.3,2.2,13.3,21.7,13.3,21.7,0,0,13.3-28.4,13.3-27.9,0,.5,11,38,11,38l-1.3,17.6-39.6.4,3.4-49.8Z"/><path class="cls-13" d="M436.2,94.7c.4.4,5.8,3.9,5.8,3.9l11.8,3.5,1.2,57.1-13.7-.3s-3.3-50.6-4.3-54.4c-1-3.8-.8-9.8-.8-9.8Z"/><path class="cls-13" d="M418.2,97.4l-5.2,4.2-12.2,2.2-1,55.8h13.7c0-.1,3.5-43.3,3.6-47,.1-3.7,1.3-12,1.3-12l-.3-3.1Z"/><path class="cls-13" d="M400.8,103.7s-6.9,1.6-8.8,13.1c-1.3,7.4-2.5,42.8-2.5,42.8h11.1c0,0,.2-55.8.2-55.8Z"/><path class="cls-4" d="M402.2,158.6s-.1-.6-.2-1.7c0-1.2-.2-2.8-.4-4.7-.3-4-.8-9.4-1.3-15.4-.6-6-1.1-11.3-1.5-15.4-.2-1.9-.3-3.5-.4-4.7,0-1.1-.1-1.7,0-1.7s.1.6.3,1.7c.2,1.1.4,2.7.6,4.6.5,3.9,1.1,9.4,1.6,15.4.5,6,.9,11.5,1.1,15.4.1,2,.2,3.6.2,4.7,0,1.1,0,1.7,0,1.7Z"/><path class="cls-4" d="M456.1,117.5c.1,0-.1,9.3-.6,20.8-.5,11.5-1,20.8-1.1,20.8-.1,0,.1-9.3.6-20.8.5-11.5,1-20.8,1.1-20.8Z"/><path class="cls-4" d="M441.3,98.7s.1.2.3.6c.2.4.4,1,.6,1.7.5,1.5,1.3,3.6,2.1,6.2.8,2.6,1.7,5.8,2.3,9.5.6,3.6.7,7.7.3,11.9-.4,4.2-1.2,8.2-1.9,11.8-.7,3.6-1.4,6.8-1.9,9.5-.5,2.7-.8,4.9-1,6.5,0,.7-.1,1.3-.2,1.8,0,.4,0,.6-.1.6,0,0,0-.2,0-.6,0-.5,0-1.1.1-1.8.1-1.5.4-3.8.9-6.5.5-2.7,1.1-6,1.8-9.6.7-3.6,1.4-7.5,1.8-11.7.4-4.2.3-8.2-.2-11.8-.5-3.6-1.4-6.8-2.1-9.4-.8-2.7-1.5-4.8-1.9-6.3-.2-.7-.4-1.3-.5-1.7-.1-.4-.2-.6-.2-.6Z"/><path class="cls-4" d="M412.1,159.4s0-.2-.1-.6c0-.4-.2-1-.3-1.7-.3-1.5-.7-3.6-1.3-6.2-1.1-5.2-3-12.4-3.9-20.6-.4-4.1-.4-8,0-11.6.4-3.5,1.2-6.7,2.1-9.2,1-2.5,2-4.4,2.9-5.7.4-.6.8-1.1,1-1.4.2-.3.4-.5.4-.5,0,0-.5.7-1.2,2-.8,1.3-1.8,3.2-2.7,5.7-.9,2.5-1.6,5.6-2,9.1-.4,3.5-.3,7.4,0,11.4.9,8.1,2.8,15.3,3.7,20.5.5,2.6.9,4.8,1.1,6.3.1.7.2,1.3.2,1.7,0,.4,0,.6,0,.6Z"/><rect class="cls-8" x="208.2" y="90.8" width="120.1" height="88.7" rx="6.3" ry="6.3" transform="translate(131.9 402.8) rotate(-89.7)"/><path class="cls-4" d="M306,195.4s.4,0,1-.1c.7-.1,1.7-.4,2.8-1.2,1.1-.8,2.2-2.2,2.4-4.2.1-2,0-4.3,0-6.8,0-10.3,0-25.2.1-43.6,0-9.2,0-19.3.1-30.1,0-5.4,0-11,0-16.8,0-2.9,0-5.8,0-8.8,0-1.5.2-3-.4-4.3-.5-1.4-1.5-2.5-2.8-3.2-.6-.4-1.4-.6-2.1-.7-.7,0-1.5,0-2.3,0-1.5,0-3.1,0-4.6,0-3.1,0-6.3,0-9.4,0-6.4,0-12.9,0-19.5,0-13.2,0-26.9-.1-41-.2-1.7,0-3.3.7-4.5,2-1.2,1.2-1.7,2.9-1.6,4.6,0,3.5,0,6.9,0,10.3,0,6.8,0,13.6,0,20.2,0,13.2-.1,26-.2,38.2,0,12.2-.1,23.7-.2,34.6,0,1.3,0,2.7,0,4,0,1.3.5,2.5,1.3,3.5.8,1,1.9,1.7,3.1,2.1,1.2.4,2.5.2,3.7.3,5,0,9.8,0,14.4,0,18.4.1,33.3.2,43.6.3,5.1,0,9.1,0,11.9.1,1.3,0,2.4,0,3.1,0,.7,0,1,0,1,0,0,0-.4,0-1.1,0-.7,0-1.7,0-3.1,0-2.7,0-6.7,0-11.9,0-10.3,0-25.2,0-43.6-.1-4.6,0-9.4,0-14.4,0-.6,0-1.3,0-1.9,0-.6,0-1.3,0-1.9-.3-1.3-.4-2.4-1.1-3.3-2.2-.8-1.1-1.4-2.4-1.4-3.8,0-1.4,0-2.7,0-4,0-10.8,0-22.4.1-34.6,0-12.2.1-24.9.2-38.2,0-6.6,0-13.4,0-20.2,0-3.4,0-6.9,0-10.3,0-1.8.5-3.6,1.8-5,1.2-1.3,3-2.1,4.9-2.1,14,0,27.7.1,41,.2,6.6,0,13.1,0,19.5,0,3.2,0,6.3,0,9.4,0,1.6,0,3.1,0,4.6,0,.8,0,1.5,0,2.3,0,.8.1,1.6.4,2.2.7,1.4.8,2.5,2,3,3.5.3.7.4,1.5.4,2.3,0,.7,0,1.5,0,2.2,0,3,0,5.9,0,8.8,0,5.8,0,11.4,0,16.8,0,10.8-.1,20.9-.2,30.1-.1,18.4-.2,33.3-.3,43.6,0,2.6,0,4.9-.1,6.8-.3,2-1.4,3.5-2.5,4.3-1.1.8-2.2,1.1-2.8,1.2-.3,0-.6,0-.8,0-.2,0-.3,0-.3,0Z"/><rect class="cls-14" x="231.6" y="179.8" width="66.3" height="3"/><rect class="cls-14" x="231.6" y="185.3" width="37.3" height="3"/><path class="cls-13" d="M238.1,161.4l1.3,2.7c.2.3.5.5.8.6l3,.4c.9.1,1.2,1.2.6,1.8l-2.2,2.1c-.2.2-.4.6-.3.9l.5,3c.1.9-.8,1.5-1.5,1.1l-2.7-1.4c-.3-.2-.7-.2-1,0l-2.7,1.4c-.8.4-1.7-.3-1.5-1.1l.5-3c0-.3,0-.7-.3-.9l-2.2-2.1c-.6-.6-.3-1.7.6-1.8l3-.4c.3,0,.6-.3.8-.6l1.3-2.7c.4-.8,1.5-.8,1.9,0Z"/><path class="cls-13" d="M253.8,161.4l1.3,2.7c.2.3.5.5.8.6l3,.4c.9.1,1.2,1.2.6,1.8l-2.2,2.1c-.2.2-.4.6-.3.9l.5,3c.1.9-.8,1.5-1.5,1.1l-2.7-1.4c-.3-.2-.7-.2-1,0l-2.7,1.4c-.8.4-1.7-.3-1.5-1.1l.5-3c0-.3,0-.7-.3-.9l-2.2-2.1c-.6-.6-.3-1.7.6-1.8l3-.4c.3,0,.6-.3.8-.6l1.3-2.7c.4-.8,1.5-.8,1.9,0Z"/><path class="cls-13" d="M269.5,161.4l1.3,2.7c.2.3.5.5.8.6l3,.4c.9.1,1.2,1.2.6,1.8l-2.2,2.1c-.2.2-.4.6-.3.9l.5,3c.1.9-.8,1.5-1.5,1.1l-2.7-1.4c-.3-.2-.7-.2-1,0l-2.7,1.4c-.8.4-1.7-.3-1.5-1.1l.5-3c0-.3,0-.7-.3-.9l-2.2-2.1c-.6-.6-.3-1.7.6-1.8l3-.4c.3,0,.6-.3.8-.6l1.3-2.7c.4-.8,1.5-.8,1.9,0Z"/><path class="cls-14" d="M285.2,161.4l1.3,2.7c.2.3.5.5.8.6l3,.4c.9.1,1.2,1.2.6,1.8l-2.2,2.1c-.2.2-.4.6-.3.9l.5,3c.1.9-.8,1.5-1.5,1.1l-2.7-1.4c-.3-.2-.7-.2-1,0l-2.7,1.4c-.8.4-1.7-.3-1.5-1.1l.5-3c0-.3,0-.7-.3-.9l-2.2-2.1c-.6-.6-.3-1.7.6-1.8l3-.4c.3,0,.6-.3.8-.6l1.3-2.7c.4-.8,1.5-.8,1.9,0Z"/><path class="cls-14" d="M300.9,161.4l1.3,2.7c.2.3.5.5.8.6l3,.4c.9.1,1.2,1.2.6,1.8l-2.2,2.1c-.2.2-.4.6-.3.9l.5,3c.1.9-.8,1.5-1.5,1.1l-2.7-1.4c-.3-.2-.7-.2-1,0l-2.7,1.4c-.8.4-1.7-.3-1.5-1.1l.5-3c0-.3,0-.7-.3-.9l-2.2-2.1c-.6-.6-.3-1.7.6-1.8l3-.4c.3,0,.6-.3.8-.6l1.3-2.7c.4-.8,1.5-.8,1.9,0Z"/><rect class="cls-2" x="227.8" y="78.6" width="81.5" height="77.2"/><path class="cls-4" d="M285.9,53.7c1.9,0,3.7-1.4,4-3.3.3-1.9-1-3.9-2.9-4.3,1.1-1.3,1.3-3.3.4-4.7-.9-1.4-2.7-2.2-4.3-1.9-.2-1.6-1.3-3.2-2.8-3.9-1.5-.7-3.4-.5-4.7.4-1.9-1.4-4.9-1.3-6.7.3-1.6-.2-3.3.8-4,2.3-.7,1.5-.2,3.4,1,4.5"/><path class="cls-15" d="M268.4,40.2h.8c8.5-.6,16.1,5.5,17.3,14,1.1,7.9,2.3,16.6,2.5,20.9.5,8.8-8.3,10.7-8.3,10.7l.4,4.4-4.6,7.1-15.3-11.4-4.8-27c-1.4-9.1,2.8-17.5,11.9-18.6Z"/><path class="cls-10" d="M280.8,85.8s-5.6.7-11.7-2.6c0,0,3.1,6.2,11.8,4.8v-2.2Z"/><path class="cls-4" d="M283,63.6c0,.7-.4,1.3-1.1,1.3-.7,0-1.3-.4-1.4-1.1,0-.7.4-1.3,1.1-1.3.7,0,1.3.4,1.4,1.1Z"/><path class="cls-4" d="M284.9,58.6c-.1.2-1.1-.5-2.5-.4-1.4,0-2.3.8-2.5.7,0,0,0-.4.5-.7.4-.3,1.1-.7,2-.7.8,0,1.6.2,2,.5.4.3.6.6.5.7Z"/><path class="cls-4" d="M271.5,64.1c0,.7-.4,1.3-1.1,1.3-.7,0-1.3-.4-1.4-1.1,0-.7.4-1.3,1.1-1.3.7,0,1.3.4,1.4,1.1Z"/><path class="cls-4" d="M271.6,59.7c-.1.2-1.1-.5-2.5-.4-1.4,0-2.3.8-2.5.7,0,0,0-.4.5-.7.4-.3,1.1-.7,2-.7.8,0,1.6.2,2,.5.4.3.6.6.5.7Z"/><path class="cls-4" d="M277.2,69.4c0,0,.8-.3,2.2-.5.3,0,.7-.1.7-.4,0-.3-.1-.6-.3-1-.4-.8-.8-1.7-1.2-2.6-1.7-3.7-2.9-6.7-2.7-6.7.1,0,1.6,2.8,3.3,6.5.4.9.8,1.8,1.1,2.6.2.4.4.8.3,1.3,0,.3-.3.5-.5.5-.2,0-.4,0-.6.1-1.4.2-2.2.2-2.2.1Z"/><path class="cls-4" d="M272.5,54.4c-.2.4-1.3,0-2.8.1-1.4,0-2.6.4-2.8,0,0-.2.2-.5.7-.8.5-.3,1.3-.6,2.1-.6.9,0,1.6.2,2.1.5.5.3.7.6.7.8Z"/><path class="cls-4" d="M284.6,53c-.3.3-1.4,0-2.7.1-1.3,0-2.5.4-2.7,0-.1-.1,0-.5.5-.8.5-.3,1.3-.6,2.2-.6.9,0,1.7.2,2.2.5.5.3.7.6.6.7Z"/><path class="cls-4" d="M285.4,50.2s-2.7-5.4-5.4-6.5c-3.3-1.4-4.5,2.3-7.6,1.6-3.1-.7-6.3-2-9.3.6-3.3,2.8-1.5,4.5-1.5,8.4.2,15.9-2.4,20.5-3.7,13.1-.1-.8-2.5-1.3-3-4.7-.7-4.4-1.2-9.9-.4-13.1.7-2.7,2.1-4.7,4.7-6.9,4.1-3.5,10-3.9,14.1-3.8,4.1.1,12.1,4.3,12.2,11.2Z"/><path class="cls-15" d="M258.4,67.3c-.1-1.4-1.4-2.4-2.7-2.1-1.6.3-3.4,1.3-3.1,4.7.6,6,6.5,4.2,6.5,4,0-.1-.4-4.1-.7-6.6Z"/><path class="cls-10" d="M257.6,71.7s0,0-.3.2c-.2,0-.5.2-.8,0-.7-.2-1.3-1.1-1.4-2.2,0-.5,0-1.1.1-1.5.1-.5.4-.8.7-.9.3-.1.6,0,.6.2,0,.2,0,.3.1.3,0,0,.1-.1,0-.4,0-.1-.1-.3-.3-.4-.2-.1-.4-.1-.6,0-.5,0-.8.5-1,1-.2.5-.3,1.1-.2,1.7.2,1.2.9,2.3,1.8,2.4.4,0,.8,0,.9-.3.2-.2.2-.3.2-.3Z"/><path class="cls-4" d="M257.8,55.6c.8.5,1.7,1,2.6,1,.9,0,2-.6,2.1-1.5,0-.4,0-.9.2-1.2.3-.4.9-.3,1.4-.3,1.8,0,3.7-2,4-3.7.5.6,1.5.8,2.1.3.6-.5.9-.7,1.4-1.4.5-.6,1.2-1.2,2-1.2.4,0,.9.3,1.3.2.8-.1,1.1-1.1,1.2-1.9,0-.8.1-1.7.7-2.2.6-.4,1.4-.3,2.1-.2.7,0,1.7-.2,1.8-.9,0-.4-.1-.8-.3-1.1-1-1.4-3.1-1.9-4.7-1.2-.7-2-2.7-3.4-4.8-3.5-2.1,0-4.1,1.2-5,3.1-1.3-1.1-3.2-1.4-4.9-.9-1.6.5-3,1.8-3.6,3.5-1.5-.3-3.1.4-4,1.6-.9,1.3-.9,3,0,4.3-1,.7-1.9,1.8-1.8,3.1,0,1.2,1.4,2.4,2.5,2-.4,1,0,2.3,1,2.8,1,.5,2.3,0,2.8-.9"/><path class="cls-3" d="M276.4,42.1s0,0,0,.1c0,0,0,.2,0,.3,0,.3-.1.7-.4,1.2-.2.5-.6,1-1.2,1.5-.6.5-1.4.9-2.4.9h0c.2.4.2,1,0,1.5-.2.6-.6,1.1-.9,1.5-.2.2-.4.5-.6.7-.3.2-.6.4-.9.4-.7.1-1.5,0-2-.6h.2c0,1.1-.7,2.4-1.7,3.2-.5.5-1.2.7-1.9.8-.7,0-1.4-.1-2-.3h.2c-.3.7-.7,1.4-1.3,1.9-.6.5-1.3.8-2.1.7-1.4-.2-2.5-1.3-2.7-2.4h.1c-.7.5-1.4.6-2,.5-.6,0-1.1-.3-1.5-.6-.4-.2-.6-.5-.7-.7-.1-.2-.2-.3-.2-.3,0,0,.2.4.9.9.4.2.8.4,1.4.5.6,0,1.3,0,1.9-.4h.1c0,0,0,0,0,0,.3,1,1.2,2.1,2.6,2.2.7.1,1.3-.2,1.9-.7.5-.5,1-1.1,1.2-1.8h0c0-.1.1,0,.1,0,.6.2,1.2.3,1.9.3.6,0,1.3-.3,1.8-.7,1-.8,1.5-1.9,1.6-3.1v-.3s.2.2.2.2c.4.5,1.1.6,1.7.5.3,0,.6-.2.8-.4.2-.2.4-.4.6-.7.4-.5.7-1,.9-1.5.2-.5.2-1.1,0-1.5h0c0-.1.2-.1.2-.1.9,0,1.7-.3,2.3-.8.6-.4,1-1,1.2-1.4.5-.9.4-1.6.5-1.6Z"/><path class="cls-4" d="M276.8,73.4c0-.2-1.5.2-2.9-.8-1.4-1-1.7-2.6-1.9-2.5,0,0-.2.4,0,1.1.2.7.6,1.5,1.5,2.1.8.6,1.8.7,2.4.6.6-.1.9-.4.9-.5Z"/><path class="cls-8" d="M286.8,97.3l-5.2-7.6c.2.3-6.4,6.3-6.4,6.3l-14.2-10.4-3.1,6.6s-1.4,23.4-1.4,23.7c0,.3.5,37.9.6,40l34.5-1.9-4.7-56.6Z"/><polygon class="cls-4" points="279.1 101.6 278 104.7 273.8 104.7 272.6 102.3 275.1 96.6 275.2 96 279.1 101.6"/><path class="cls-4" d="M260.4,96.2s.2.2.7.5c.5.3,1.2.8,1.9,1.2,1.6,1,3.9,2.4,6.4,4,.8.5,1.6,1,2.4,1.4h.2c0,0,0,0,0,0,1.2-2,1.9-3.9,2.4-5.2.2-.7.4-1.2.6-1.6.1-.4.2-.6.2-.6,0,0-.4.7-1,2-.6,1.3-1.3,3.1-2.5,5.1h.3c-.7-.5-1.5-1-2.4-1.5-2.5-1.5-4.8-2.9-6.5-3.9-.8-.4-1.4-.8-2-1.1-.5-.3-.7-.4-.8-.4Z"/><path class="cls-4" d="M282.3,98.7s-.3.4-.8,1c-.5.7-1.1,1.6-1.9,2.7h.3c-.3-.4-.6-.9-1-1.4-1-1.4-1.9-2.7-2.5-3.6-.7-.9-1.1-1.4-1.2-1.4,0,0,.3.6,1,1.6.6,1,1.5,2.3,2.4,3.7.3.5.7,1,1,1.4l.2.2v-.2c.9-1.1,1.5-2.1,1.9-2.8.4-.7.7-1.1.6-1.1Z"/><polygon class="cls-4" points="278 104.7 281 122 284.6 145.2 278.4 154.1 266.3 142.3 273.8 104.7 278 104.7"/><path class="cls-13" d="M285,93.1l-2.8-2.8s.5,6.6.5,7.1c0,.5-4.2,45.9-4.2,45.9l-18.7-55.9-4.9,4.9-16.6,5.4,7.6,58.2h51s1-60.3,1-60.3c.1,0-12.8-2.4-12.8-2.4Z"/><path class="cls-13" d="M243.9,151.7l-1.1-28.3-4.6-25.8s-6,1.7-8.1,9.3c-1.1,4.1-2.8,42.9-2.6,48.8h16.4v-4.2Z"/><path class="cls-13" d="M297.8,95.5l-1.5,28.2c.2,0-.3,22-.3,22l-.8,3.8,1.7,6.3h12.5c-1.1-10.1-1.2-43.9-1.6-46.3-2-12.3-9.9-14-9.9-14Z"/><path class="cls-4" d="M278.8,143.7s0-.2.1-.6c.1-.4.2-1,.4-1.6.4-1.5.9-3.5,1.6-6,1.4-5.1,3.3-12.1,5.4-19.8,1.3-4.5,2.5-8.8,3.5-12.5v.2c-1.2-1.1-2.4-2.1-3.5-3h0c0,0,0-.2,0-.2.5-1.2.9-2.2,1.3-3.2h0c-1.5-1.8-2.7-3.3-3.6-4.4-.4-.5-.7-.9-1-1.2-.2-.3-.3-.4-.3-.4,0,0,.2.1.4.4.2.3.6.7,1,1.2.9,1,2.1,2.6,3.7,4.5h0c0,0,0,.1,0,.1-.4,1-.8,2.1-1.3,3.2v-.2c1.1.9,2.3,1.9,3.5,3h0c0,0,0,.2,0,.2-1,3.8-2.2,8-3.5,12.5-2.2,7.7-4.1,14.7-5.6,19.8-.7,2.5-1.3,4.5-1.7,6-.2.7-.4,1.2-.5,1.6-.1.4-.2.6-.2.6Z"/><path class="cls-4" d="M277.2,143.3s-.1-.2-.3-.5c-.2-.4-.5-.9-.9-1.5-.8-1.3-1.9-3.2-3.3-5.5-2.7-4.7-6.5-11-10.6-18.1-1.9-3.3-3.8-6.4-5.5-9.3-.9-1.4-1.7-2.8-2.4-4.1l-.3-.5h0s0,0,0,0c0,0,0,0,.1,0,0,0,0,0,0,0,0,0,0,0,0,0,0,0,0,0-.1,0,0,0,0,0,0-.1,0,0,0,0,0,0h0c0-.2,0-.3.1-.3.2-.3.3-.6.5-1,.4-.6.7-1.2,1-1.8v.2c-.6-.4-1.1-.9-1.7-1.3-.1-.1-.3-.2-.4-.3,0,0-.1,0-.2-.2,0,0,0-.1,0-.1,0,0,0,0,0,0,0,0,0,0,0-.1,0-.3.1-.6.2-.9.3-1.2.6-2.2.8-3,.2-.8.4-1.4.6-1.9,0-.2.1-.4.2-.5,0-.1,0-.2,0-.2,0,0,0,.2-.1.7-.1.5-.3,1.1-.5,1.9-.2.8-.5,1.8-.7,3,0,.3-.1.6-.2.9,0,0,0,0,0,.1,0,0,0,0,0,0,0,0,0,0,0,0,0,0,0,0,0,0h0c.1-.2,0,0,0,0h0s0,0,0,0h0s.1.1.1.1c.1,0,.3.2.4.3.6.4,1.1.8,1.8,1.3h.1c0,0,0,.2,0,.2-.3.6-.6,1.2-1,1.8-.2.3-.3.6-.5.9,0,0,0,.2-.1.2h0s0,0,0,0c0,0-.1,0-.1,0,0,0,0,0,0,0,0,0,0,0,0,0h0c0-.3,0,0,0-.1,0,0,.2,0,.2,0h0s0,0,0,0l.3.5c.8,1.3,1.6,2.6,2.5,4.1,1.7,2.9,3.6,6,5.5,9.3,4.1,7.1,7.9,13.5,10.5,18.1,1.3,2.3,2.4,4.2,3.1,5.5.3.6.6,1.1.8,1.5.2.3.3.5.3.5Z"/><path class="cls-4" d="M240.3,111.1c-.1,0-.8-2.5-2.5-5.3-1.6-2.8-3.6-4.6-3.5-4.7,0,0,.6.4,1.3,1.1.7.8,1.7,1.9,2.5,3.3.8,1.4,1.4,2.8,1.7,3.8.3,1,.4,1.7.4,1.7Z"/><path class="cls-4" d="M299,111.1s0,.6,0,1.7c0,1.2-.2,2.8-.3,4.7-.3,4-.7,9.5-1.1,15.6-.6,7.3-1.1,13.8-1.5,17.7h0c.2,1.3.4,2.3.5,3.1.1.7.2,1.1.1,1.1s-.1-.4-.3-1.1c-.2-.8-.4-1.9-.7-3.2h0s0,0,0,0c.2-4,.7-10.4,1.3-17.7.5-6.1.9-11.6,1.3-15.6.2-1.9.3-3.5.4-4.7.1-1.1.2-1.7.2-1.7Z"/><path class="cls-4" d="M279,155.5c-.1,0-.6-2.7-.9-6.2-.3-3.4,0-6.3,0-6.2.1,0,.2,2.8.4,6.2.2,3.4.5,6.2.3,6.2Z"/><path class="cls-4" d="M244.9,149.9s-.1-.4-.3-1.1c-.1-.7-.3-1.8-.5-3.1-.4-2.7-.8-6.3-1.2-10.4-.4-4.1-.6-7.8-.7-10.5,0-1.3,0-2.4-.1-3.2,0-.8,0-1.2,0-1.2s0,.4.2,1.2c0,.9.2,1.9.3,3.2.2,2.7.5,6.4.9,10.4.4,4.1.8,7.8,1.1,10.4.1,1.2.2,2.3.3,3.2,0,.7,0,1.2,0,1.2Z"/><path class="cls-9" d="M302.7,83.1h83c4.8,0,8.7,3.9,8.7,8.7v114.2c0,4.5-3.7,8.2-8.2,8.2h-83.8c-4.6,0-8.3-3.7-8.3-8.3v-114.1c0-4.8,3.9-8.7,8.7-8.7Z" transform="translate(688.4 297.4) rotate(180)"/><rect class="cls-8" x="297.9" y="85.2" width="93.3" height="126.3" rx="6.3" ry="6.3"/><path class="cls-4" d="M384.9,211.6s.4,0,1.1-.1c.7-.1,1.8-.5,2.9-1.4,1.1-.9,2.2-2.5,2.2-4.5,0-2.1,0-4.5,0-7.2,0-10.9,0-26.5,0-45.9,0-9.7,0-20.3,0-31.7,0-5.7,0-11.6,0-17.7,0-3,0-6.1,0-9.2,0-1.6.2-3.2-.4-4.6-.6-1.4-1.7-2.6-3.1-3.2-.7-.3-1.5-.5-2.2-.5-.8,0-1.6,0-2.4,0-1.6,0-3.3,0-4.9,0-3.3,0-6.6,0-10,0-6.7,0-13.6,0-20.5,0-13.9,0-28.4,0-43.2,0-1.8,0-3.5.8-4.7,2.2-.6.7-1,1.5-1.2,2.3-.2.8-.2,1.7-.2,2.7,0,3.7,0,7.3,0,10.9,0,7.2,0,14.3,0,21.3,0,13.9,0,27.4,0,40.2,0,12.8,0,25,0,36.4,0,1.4,0,2.8,0,4.2,0,1.4.6,2.7,1.5,3.7.9,1,2.1,1.7,3.3,2,.6.1,1.3.1,2,.1.7,0,1.3,0,2,0,5.3,0,10.4,0,15.2,0,19.4,0,35.1,0,45.9,0,5.4,0,9.6,0,12.5,0,1.4,0,2.5,0,3.2,0,.7,0,1.1,0,1.1,0,0,0-.4,0-1.1,0-.7,0-1.8,0-3.2,0-2.9,0-7.1,0-12.5,0-10.8,0-26.5,0-45.9,0-4.8,0-9.9,0-15.2,0-.7,0-1.3,0-2,0-.7,0-1.4,0-2-.1-1.4-.3-2.7-1-3.6-2.1-.9-1.1-1.5-2.5-1.6-3.9,0-1.4,0-2.8,0-4.2,0-11.4,0-23.6,0-36.4,0-12.8,0-26.3,0-40.2,0-7,0-14.1,0-21.3,0-3.6,0-7.2,0-10.9,0-.9,0-1.9.2-2.8.2-.9.7-1.8,1.3-2.5,1.2-1.5,3.1-2.4,5.1-2.4,14.8,0,29.2,0,43.2,0,7,0,13.8,0,20.5,0,3.4,0,6.7,0,10,0,1.6,0,3.3,0,4.9,0,.8,0,1.6,0,2.4,0,.8,0,1.7.2,2.4.6,1.5.7,2.7,2,3.3,3.5.3.8.5,1.6.5,2.4,0,.8,0,1.6,0,2.4,0,3.1,0,6.2,0,9.2,0,6.1,0,12,0,17.7,0,11.4,0,22,0,31.7,0,19.4,0,35.1,0,45.9,0,2.7,0,5.1,0,7.2-.1,2.1-1.2,3.7-2.3,4.6-1.1.9-2.2,1.2-2.9,1.3-.4,0-.6,0-.8,0-.2,0-.3,0-.3,0Z"/><rect class="cls-2" x="303.6" y="90.8" width="81.5" height="78.7"/><path class="cls-13" d="M374.4,108.9c-1.2-.6-13.1-6.5-16-7.4,0,0,0,0,0,0l-2-3.3c0,0,0,0-.2,0l-19.8,2.1c0,0-.1,0-.1,0l-1.9,3.8s0,0-.1,0l-17.7,5.7v43.5l-.3,16.5h53.1l5.1-60.7c0,0,0-.1,0-.2Z"/><polygon class="cls-4" points="344.2 114.5 338 166.9 338.8 169.8 352.1 169.7 352.7 166.6 346.7 114.5 344.2 114.5"/><path class="cls-4" d="M357.5,84.2c1.3-3.4,2.6-6.9,3.3-10.5.7-3.6.8-7.4-.3-10.9-.2-.5-1.6-4.1-2.2-4.1-.4,0,.5,3.3.2,3.7-2.1,3.2-2.8,7.1-2.7,10.9.1,3.8.7,7.2,1.7,10.9"/><path class="cls-5" d="M345.5,52.5h-.8c-8.5,0-15.6,6.6-16.3,15.1-.6,7.9-1.2,16.7-1.1,21,.1,8.8,9,10.1,9,10.1,0,0,0,2.4,0,2.4l9.5,7.9,10.1-9.8,2.8-29.1c.8-9.1-3.9-17.2-13.1-17.7Z"/><path class="cls-1" d="M336.2,98.8s5.6.3,11.5-3.4c0,0-2.7,6.6-11.5,5.9v-2.4Z"/><path class="cls-4" d="M332.4,76.4c0,.7.5,1.2,1.2,1.3.7,0,1.3-.5,1.3-1.1,0-.7-.5-1.2-1.2-1.3-.7,0-1.3.5-1.3,1.1Z"/><path class="cls-4" d="M330.2,71.6c.2.2,1.1-.5,2.5-.5,1.4,0,2.3.7,2.5.5,0,0,0-.4-.5-.7-.4-.3-1.2-.6-2-.6-.8,0-1.6.3-2,.6-.4.3-.6.6-.5.7Z"/><path class="cls-4" d="M344.2,76.4c0,.7.5,1.2,1.2,1.3.7,0,1.3-.5,1.3-1.1,0-.7-.5-1.2-1.2-1.3-.7,0-1.3.5-1.3,1.1Z"/><path class="cls-4" d="M343.5,71.8c.2.2,1.1-.5,2.5-.5,1.4,0,2.3.7,2.5.5,0,0,0-.4-.5-.7-.4-.3-1.2-.6-2-.6-.8,0-1.6.3-2,.6-.4.3-.6.6-.5.7Z"/><path class="cls-4" d="M338.6,82.2c0,0-.8-.2-2.2-.4-.3,0-.7-.1-.7-.3,0-.2,0-.6.2-1,.3-.8.7-1.7,1-2.6,1.4-3.8,2.4-6.8,2.3-6.9-.2,0-1.4,2.9-2.8,6.7-.3.9-.7,1.8-1,2.7-.1.4-.4.8-.2,1.4,0,.3.3.4.6.5.2,0,.4,0,.6,0,1.4,0,2.2,0,2.2,0Z"/><path class="cls-4" d="M343,67.1c.1.4,1.5.2,3.1.4,1.6.2,2.9.6,3.1.3,0-.2-.1-.5-.6-.9-.5-.4-1.3-.7-2.3-.8-1-.1-1.8,0-2.4.3-.6.2-.9.5-.8.7Z"/><path class="cls-4" d="M329.8,67.9c.3.3,1.4,0,2.7,0,1.3,0,2.4.2,2.7,0,.1-.2,0-.5-.5-.8-.5-.3-1.3-.5-2.2-.5-.9,0-1.7.3-2.2.6-.5.3-.6.6-.5.8Z"/><path class="cls-5" d="M357.9,76.7c.1,0,6-1.8,5.9,4.2-.2,6-7.5,4-7.5,3.9,0-.2,1.6-8.1,1.6-8.1Z"/><path class="cls-1" d="M359.5,83.2s.1,0,.3.2c.2,0,.5.1.8,0,.6-.2,1.2-1.2,1.3-2.3,0-.5,0-1.1-.3-1.5-.2-.4-.4-.8-.8-.8-.3,0-.5.1-.6.3,0,.2,0,.3,0,.3,0,0-.1-.1,0-.4,0-.1.1-.3.2-.4.1-.1.4-.2.6-.1.5,0,.9.5,1.1,1,.2.5.4,1.1.3,1.7,0,1.2-.7,2.3-1.6,2.6-.4,0-.8,0-1-.2-.2-.2-.2-.3-.2-.3Z"/><path class="cls-4" d="M332.6,57.8c-1-.6,2.1-3.6,4.5-4.6,3.7-1.5,9.2-2.3,12.5-1.2,4,1.3,7.2,3.4,9.1,7.1,1.9,3.7,2.5,8,2.2,12.2,0,1.3-.3,2.6-1,3.6-.9,1.3-2.1,1.9-2.5,3.9-.1.7-.2,1.3-.7,1.8-1.1,1.1-2.5,0-3-1.1-1.2-2.4-1.3-5.2-1.3-7.9,0-1.9,0-3.9.6-5.7.3-1,.8-1.9,1.1-2.9.3-1,.3-2.2-.3-3,0-.1-.3-.3-.5-.5-1.6-1.6-4-2.1-6.2-1.4-3.4,1.1-9.3,2.7-10.8,1.4-2.1-1.7-2.6-2.8-2.6-2.8l-1.2,1.2Z"/><path class="cls-1" d="M343.4,84.8c-.4-.3-1-.2-1.5,0-1.4.4-2.7.7-4.1,1.1,0,3.8,3.7,3.5,4.6,2.9s1.5-1.7,1.5-2.8c0-.4,0-.8-.4-1.1Z"/><path class="cls-4" d="M340.6,89.2c0,0,.7.1,1.6-.5.4-.3.8-.8,1.1-1.4.1-.3.2-.7.2-1,0-.4,0-.8-.1-1.1-.1-.3-.4-.4-.8-.3-.4,0-.7.2-1.1.3-.7.2-1.3.3-1.9.5-1.1.3-1.7.4-1.7.3,0,0,.6-.3,1.7-.6.6-.2,1.2-.4,1.8-.6.4-.1.7-.2,1.1-.3.2,0,.4,0,.7,0,.3,0,.5.3.6.5.5,1.8-.4,3.4-1.4,4-.5.3-1,.4-1.3.3-.3,0-.5,0-.5-.1Z"/><path class="cls-4" d="M358.3,102s0,.1,0,.3c0,.2,0,.5-.1.9-.1.8-.4,1.9-.9,3.3-1,2.7-3.1,6.4-6.8,9.4h-.2c0,.1-.1,0-.1,0-1.2-1.5-2.6-3.2-3.9-4.9-.3-.4-.6-.8-.9-1.1h.3c-.9,1.2-1.8,2.3-2.6,3.4-.4.5-.8,1.1-1.2,1.6-.2.3-.4.5-.7.7-.3.2-.6.4-1,.4-.8,0-1.3-.6-1.6-1.1-.4-.5-.6-1.1-.8-1.6-.4-1-.8-2-1.2-2.9-.7-1.7-1.2-3.1-1.7-4.2-.2-.5-.3-.8-.4-1.1,0-.3-.1-.4-.1-.4,0,0,0,.1.2.4.1.3.3.7.5,1.1.4,1,1,2.4,1.8,4.1.4.9.8,1.8,1.2,2.9.2.5.4,1,.8,1.5.3.5.8.9,1.3.9.6,0,1-.5,1.4-1,.4-.5.8-1.1,1.2-1.6.8-1.1,1.7-2.2,2.6-3.4l.2-.2.2.2c.3.4.6.7.9,1.1,1.4,1.7,2.7,3.4,3.9,4.9h-.3c3.7-2.9,5.8-6.5,6.9-9.2.5-1.3.8-2.4,1-3.2.2-.8.3-1.2.3-1.2Z"/><path class="cls-4" d="M342.5,113.5c0,0,1.9,3.2,1.9,3.2h2.7c0,0,1.5-3.2,1.5-3.2l-2-2.5h-1.9l-2.1,2.5Z"/><path class="cls-13" d="M316.9,109.7s-4.1.7-7,6.6c-2.8,5.8-6.7,53.4-6.7,53.4h14.7l1.1-14.6-2.2-45.4Z"/><path class="cls-13" d="M374,108.9s4.1.7,7,6.4c2.8,5.6,4.9,54.3,4.9,54.3h-15.6v-17.7l3.7-43Z"/><path class="cls-4" d="M316.2,169.7s0-.2,0-.5c0-.4,0-.8,0-1.4,0-1.3,0-3,0-5.1,0-4.4,0-10.2-.1-16.7,0-6.5,0-12.5.1-16.7,0-2.1.1-3.9.2-5.1,0-.5,0-1,0-1.4,0-.3,0-.5,0-.5,0,0,0,.2,0,.5,0,.4,0,.8,0,1.4,0,1.3,0,3,0,5.1,0,4.4,0,10.2,0,16.7,0,6.5,0,12.5,0,16.7,0,2.1,0,3.9,0,5.1,0,.5,0,1,0,1.4,0,.3,0,.5,0,.5Z"/><path class="cls-4" d="M373.2,121.1c.1,0-.6,10.9-1.6,24.3-1.1,13.4-2,24.3-2.2,24.3-.1,0,.6-10.9,1.6-24.3,1.1-13.4,2-24.3,2.2-24.3Z"/><path class="cls-13" d="M313.9,178.1l1.3,2.7c.2.3.5.5.8.6l3,.4c.9.1,1.2,1.2.6,1.8l-2.2,2.1c-.2.2-.4.6-.3.9l.5,3c.1.9-.8,1.5-1.5,1.1l-2.7-1.4c-.3-.2-.7-.2-1,0l-2.7,1.4c-.8.4-1.7-.3-1.5-1.1l.5-3c0-.3,0-.7-.3-.9l-2.2-2.1c-.6-.6-.3-1.7.6-1.8l3-.4c.3,0,.6-.3.8-.6l1.3-2.7c.4-.8,1.5-.8,1.9,0Z"/><path class="cls-13" d="M329.6,178.1l1.3,2.7c.2.3.5.5.8.6l3,.4c.9.1,1.2,1.2.6,1.8l-2.2,2.1c-.2.2-.4.6-.3.9l.5,3c.1.9-.8,1.5-1.5,1.1l-2.7-1.4c-.3-.2-.7-.2-1,0l-2.7,1.4c-.8.4-1.7-.3-1.5-1.1l.5-3c0-.3,0-.7-.3-.9l-2.2-2.1c-.6-.6-.3-1.7.6-1.8l3-.4c.3,0,.6-.3.8-.6l1.3-2.7c.4-.8,1.5-.8,1.9,0Z"/><path class="cls-13" d="M345.3,178.1l1.3,2.7c.2.3.5.5.8.6l3,.4c.9.1,1.2,1.2.6,1.8l-2.2,2.1c-.2.2-.4.6-.3.9l.5,3c.1.9-.8,1.5-1.5,1.1l-2.7-1.4c-.3-.2-.7-.2-1,0l-2.7,1.4c-.8.4-1.7-.3-1.5-1.1l.5-3c0-.3,0-.7-.3-.9l-2.2-2.1c-.6-.6-.3-1.7.6-1.8l3-.4c.3,0,.6-.3.8-.6l1.3-2.7c.4-.8,1.5-.8,1.9,0Z"/><path class="cls-13" d="M361.1,178.1l1.3,2.7c.2.3.5.5.8.6l3,.4c.9.1,1.2,1.2.6,1.8l-2.2,2.1c-.2.2-.4.6-.3.9l.5,3c.1.9-.8,1.5-1.5,1.1l-2.7-1.4c-.3-.2-.7-.2-1,0l-2.7,1.4c-.8.4-1.7-.3-1.5-1.1l.5-3c0-.3,0-.7-.3-.9l-2.2-2.1c-.6-.6-.3-1.7.6-1.8l3-.4c.3,0,.6-.3.8-.6l1.3-2.7c.4-.8,1.5-.8,1.9,0Z"/><path class="cls-13" d="M376.8,178.1l1.3,2.7c.2.3.5.5.8.6l3,.4c.9.1,1.2,1.2.6,1.8l-2.2,2.1c-.2.2-.4.6-.3.9l.5,3c.1.9-.8,1.5-1.5,1.1l-2.7-1.4c-.3-.2-.7-.2-1,0l-2.7,1.4c-.8.4-1.7-.3-1.5-1.1l.5-3c0-.3,0-.7-.3-.9l-2.2-2.1c-.6-.6-.3-1.7.6-1.8l3-.4c.3,0,.6-.3.8-.6l1.3-2.7c.4-.8,1.5-.8,1.9,0Z"/><rect class="cls-14" x="307.3" y="196.5" width="75.5" height="3"/></svg>