<?xml version="1.0" encoding="UTF-8"?><svg id="Layer_1" xmlns="http://www.w3.org/2000/svg" viewBox="0 0 850 470"><defs><style>.cls-1{fill:#ebebeb;}.cls-2{fill:#455b64;}.cls-3{fill:#263238;}.cls-4{fill:#3a5fa0;}.cls-5{fill:#fff;}.cls-6{opacity:.6;}.cls-7{opacity:.3;}.cls-8{fill:#ec996f;}.cls-9{fill:#f5f5f5;}.cls-10{fill:#fafbfb;}.cls-11{fill:#7c4235;}.cls-12{fill:#e0e0e0;}.cls-13{fill:#fbbd9d;}</style></defs><rect class="cls-12" x="177.3" y="52.8" width="6.4" height="137.4"/><rect class="cls-9" x="84.6" y="53.9" width="91.7" height="136.5" rx="0" ry="0"/><path class="cls-1" d="M177.3,191.4h-93.7c0,0,0,0,0,0V52.9c0,0,0,0,0,0h93.7c0,0,0,0,0,0v138.5c0,0,0,0,0,0ZM85.7,189.3h89.4c0,0,0,0,0,0V55c0,0,0,0,0,0h-89.4c0,0,0,0,0,0v134.2c0,0,0,0,0,0Z"/><rect class="cls-5" x="93.8" y="62.3" width="73.4" height="119.6" rx="0" ry="0"/><rect class="cls-1" x="109.8" y="96.2" width="41.2" height="48.3" rx="0" ry="0"/><path class="cls-12" d="M147.8,138.6c0,.2-2,1-5.9.6-1.9-.3-4.3-.9-6.6-2.6-2.3-1.7-4.4-4.4-5.1-8-.8-3.6.5-8.1,3.9-11,.9-.7,1.9-1.3,3-1.7,1.2-.4,2.4-.6,3.7-.4,1.3.2,2.6.6,3.7,1.6,1.1,1,1.8,2.8,1.5,4.3-.3,1.6-1.1,2.8-2,3.7-.9,1-2,1.7-3.1,2.3-2.2,1.2-4.8,2-7.4,2.1-2.6.1-5.4-.4-7.9-1.8-2.4-1.4-4.5-3.4-5.8-6-1.3-2.6-1.7-5.7-1-8.4.7-2.8,2.2-5.2,4.4-6.9,1.1-.9,2.4-1.5,3.7-1.9,1.4-.4,2.8-.4,4.2-.1,1.4.3,2.8,1,3.8,2.1,1,1.2,1.5,2.7,1.5,4.1,0,1.4-.4,2.7-1,3.9-.6,1.1-1.5,2.1-2.4,2.8-1.8,1.5-3.8,2.5-5.8,3.1-2.1.6-4.2.7-6.1.5-2-.3-3.8-1-5.3-2-3-2.1-4.8-5.2-5.1-8.1-.3-2.9.7-5.4,1.9-6.9,1.2-1.6,2.6-2.4,3.5-2.8,1-.4,1.5-.4,1.5-.3,0,.1-.4.3-1.2.9-.8.5-1.8,1.4-2.7,2.9-.9,1.5-1.6,3.6-1.1,5.9.4,2.3,2,4.8,4.5,6.4,2.5,1.6,6,2,9.4.9,1.7-.5,3.3-1.4,4.7-2.7,1.3-1.2,2.3-2.8,2.2-4.4,0-1.6-1.1-2.8-2.8-3.1-.9-.2-1.8-.1-2.7.1-.9.3-1.8.7-2.5,1.3-1.6,1.2-2.7,3.1-3.2,5.1-.5,2-.2,4.2.8,6.1,1,1.9,2.6,3.6,4.4,4.6,1.8,1.1,4,1.5,6.1,1.4,2.1,0,4.2-.7,6-1.6.9-.5,1.8-1.1,2.4-1.7.7-.6,1.1-1.4,1.2-2,.1-.6,0-1.2-.5-1.6-.4-.4-1.2-.8-2-.9-.8-.1-1.6,0-2.3.2-.8.3-1.5.7-2.2,1.2-1.3,1-2.3,2.4-2.8,3.9-.6,1.5-.7,3-.5,4.5.4,2.9,2.1,5.4,3.9,7,1.9,1.6,3.9,2.4,5.6,2.8,3.5.8,5.6.4,5.6.7Z"/><path class="cls-9" d="M594.7,430c-1.2-1-4-4.3-1.9-8.1.8-1.4,2.4-2.1,3.9-2.7,1.5-.6,3-1.1,4.3-2.2,2.3-1.9,3-5.1,4.5-7.7,1.8-3,5.1-5.2,8.5-5,4,.2,7.3,3.4,8.8,7,1.5,3.6,1.6,7.7,1.6,11.6,0,2.2,0,4.6-1.7,6.1-1.5,1.4-3.8,1.4-5.8,1.3-7.3-.2-14.5-.4-21.8-.7"/><path class="cls-12" d="M636.4,371.4h-57.3l10.3,60.2c.5,2.6,2.4,4.7,4.9,5.4,0,0,.1,0,.2,0,.2,0,.3,0,.5.1.4,0,.8.1,1.2.1,0,0,0,0,0,0h.3s0,0,0,0h25.5c.5,0,.9,0,1.4-.1,3-.5,5.4-2.8,5.8-5.9l5-41.5.2-1.6h0l2-16.4v-.3ZM625.6,409.8h-5.9l.6-17.5h6.8l-1.5,17.5ZM627.7,392.3h5.6l-2.1,17.5h-5.1l1.5-17.5ZM610.9,429.1l-.4-15.2h8.5l-.5,15.2h-7.6ZM601.7,413.9h8.2l.4,15.2h-7.4l-1.2-15.2ZM602.4,429.1h-6.9c-.7-4.1-1.5-9.4-2.4-15.2h8.1l1.2,15.2ZM601.4,409.8l-1.4-17.5h9.4l.4,17.5h-8.5ZM610.4,409.8l-.4-17.5h9.7l-.6,17.5h-8.7ZM609.9,388.1l-.4-16.2h10.9l-.5,16.2h-10ZM609.4,388.1h-9.7l-1.3-16.2h10.6l.4,16.2ZM599.1,388.1h-10.2c-.4-2.2-.7-4.4-1-6.3-1.1-6.5-1.5-9-1.7-9.9h11.7l1.3,16.2ZM599.4,392.3l1.4,17.5h-8.5c-.3-1.8-.6-3.6-.9-5.4-.7-4.1-1.3-8.2-2-12.1h9.9ZM591.8,409.8h-5.5l-3-17.5h5.7c.9,5.4,1.8,11.4,2.8,17.5ZM592.5,413.9c.8,5.3,1.7,10.4,2.4,15.2h-5.3l-2.6-15.2h5.5ZM619.1,429.1l.5-15.2h5.7l-1.3,15.2h-4.8ZM620.5,388.1l.5-16.2h7.9l-1.4,16.2h-7ZM585.6,371.9c.2,1.2,1.3,7.5,2.7,16.2h-5.8l-2.8-16.2h5.9ZM628.9,429.1h-4.4l1.3-15.2h4.9l-1.8,15.2ZM633.8,388.1h-5.8l1.4-16.2h6.3l-1.9,16.2Z"/><path class="cls-3" d="M663.2,437.2s-101.2,0-225.9,0-226,0-226,0,101.1,0,226,0,225.9,0,225.9,0Z"/><rect class="cls-5" x="527.5" y="35.8" width="202.8" height="185.6" rx="6.3" ry="6.3"/><path class="cls-3" d="M724,221.3s.7,0,1.9-.3c.6-.2,1.4-.6,2.1-1.2.7-.6,1.5-1.5,1.9-2.7.5-1.2.3-2.6.3-4.2,0-1.6,0-3.3,0-5.2,0-3.7,0-8,0-12.9,0-19.4,0-47.4,0-82.1,0-17.3,0-36.3,0-56.7,0-2.5,0-5.1,0-7.7,0-1.3,0-2.6,0-3.9v-2c0-.7,0-1.3-.2-1.9-.3-1.2-1-2.4-2-3.2-1-.8-2.2-1.3-3.5-1.4-2.6,0-5.4,0-8.1,0-10.9,0-22,0-33.5,0-45.8,0-96.2,0-149,0-1.6,0-3.2.6-4.3,1.8-1.1,1.1-1.8,2.7-1.8,4.3,0,3.3,0,6.6,0,9.8,0,6.5,0,13,0,19.4,0,12.9,0,25.6,0,38,0,24.9,0,49,0,71.9,0,11.5,0,22.6,0,33.5,0,1.3.3,2.6,1,3.7.7,1.1,1.8,1.9,3,2.3,1.2.5,2.5.3,3.9.4,1.3,0,2.6,0,4,0,5.3,0,10.4,0,15.5,0,20.4,0,39.3,0,56.7,0,34.6,0,62.7,0,82.1,0,9.7,0,17.2,0,22.3,0,2.5,0,4.5,0,5.8,0,1.3,0,2,0,2,0,0,0-.7,0-2,0-1.3,0-3.3,0-5.8,0-5.1,0-12.6,0-22.3,0-19.4,0-47.4,0-82.1,0-17.3,0-36.3,0-56.7,0-5.1,0-10.3,0-15.5,0-1.3,0-2.6,0-4,0h-2c-.7,0-1.4-.2-2-.4-1.3-.4-2.5-1.4-3.2-2.5-.8-1.2-1.2-2.6-1.1-4,0-10.9,0-22,0-33.5,0-22.9,0-47,0-71.9,0-12.5,0-25.2,0-38,0-6.4,0-12.9,0-19.4,0-3.3,0-6.5,0-9.8,0-1.7.7-3.4,1.9-4.6,1.2-1.2,2.9-1.9,4.6-1.9,52.9,0,103.2,0,149,0,11.5,0,22.6,0,33.5,0,2.7,0,5.4,0,8.1,0,1.4,0,2.7.6,3.8,1.5,1,.9,1.8,2.1,2.1,3.4.2.7.2,1.4.2,2v2c0,1.3,0,2.6,0,3.9,0,2.6,0,5.2,0,7.7,0,20.4,0,39.3,0,56.7,0,34.6,0,62.7,0,82.1,0,4.8,0,9.1,0,12.9,0,1.9,0,3.6,0,5.2,0,1.6.1,3-.4,4.3-.4,1.2-1.2,2.1-1.9,2.8-.7.6-1.5,1-2.1,1.2-.6.2-1.1.3-1.5.3-.3,0-.5,0-.5,0Z"/><path class="cls-4" d="M578,154.4c-12.1,0-21.9,9.8-21.9,21.9s9.8,21.9,21.9,21.9,21.9-9.8,21.9-21.9-9.8-21.9-21.9-21.9ZM578,188.5c-6.8,0-12.2-5.5-12.2-12.2s5.5-12.2,12.2-12.2,12.2,5.5,12.2,12.2-5.5,12.2-12.2,12.2Z"/><path class="cls-2" d="M578,198.2c12,0,21.7-9.6,21.9-21.5h-9.7c-.2,6.6-5.6,11.8-12.2,11.8s-12-5.3-12.2-11.8h-9.7c.2,11.9,9.9,21.5,21.9,21.5Z"/><path class="cls-12" d="M578,154.4c-.1,0-.3,0-.4,0v9.7c.1,0,.3,0,.4,0,6.8,0,12.2,5.5,12.2,12.2s0,.3,0,.4h9.7c0-.1,0-.3,0-.4,0-12.1-9.8-21.9-21.9-21.9Z"/><path class="cls-12" d="M600,176.8h-9.9,0c0-.2,0-.2,0-.3,0,0,0-.1,0-.2,0-6.7-5.4-12.1-12.1-12.1s-.1,0-.2,0c0,0-.1,0-.2,0h-.1s0-9.9,0-9.9h.3c0,0,.2,0,.2,0,12.1,0,22,9.9,22,22s0,.1,0,.2c0,0,0,.1,0,.2h0ZM590.4,176.6h9.4s0,0,0,0c0,0,0-.1,0-.2,0-12-9.8-21.8-21.8-21.8s-.2,0-.2,0h0v9.4s0,0,0,0c0,0,.2,0,.2,0,6.8,0,12.4,5.5,12.4,12.4s0,.2,0,.2c0,0,0,0,0,0Z"/><path class="cls-3" d="M590.3,176.7c-.1,3.6-1.8,6.9-4.4,9l6,7.6c4.8-3.9,7.9-9.9,8.1-16.6h-9.7Z"/><path class="cls-4" d="M610.3,165.3c0,1.1-.9,2-2,2s-2-.9-2-2,.9-2,2-2,2,.9,2,2Z"/><path class="cls-12" d="M610.3,174.1c0,1.1-.9,2-2,2s-2-.9-2-2,.9-2,2-2,2,.9,2,2Z"/><path class="cls-2" d="M610.3,182.7c0,1.1-.9,2-2,2s-2-.9-2-2,.9-2,2-2,2,.9,2,2Z"/><path class="cls-3" d="M610.3,191.2c0,1.1-.9,2-2,2s-2-.9-2-2,.9-2,2-2,2,.9,2,2Z"/><rect class="cls-12" x="615.1" y="164.3" width="11.2" height="2" rx=".5" ry=".5"/><rect class="cls-12" x="615.1" y="173" width="11.2" height="2" rx=".5" ry=".5"/><rect class="cls-12" x="615.1" y="181.6" width="11.2" height="2" rx=".5" ry=".5"/><rect class="cls-12" x="615.1" y="190.3" width="11.2" height="2" rx=".5" ry=".5"/><path class="cls-1" d="M709.7,133.7h-158.3v-67.8h158.3v67.8ZM551.8,133.4h157.6v-67.1h-157.6v67.1Z"/><rect class="cls-1" x="551.6" y="122.1" width="158" height=".3"/><rect class="cls-1" x="551.6" y="110.9" width="158" height=".3"/><rect class="cls-1" x="551.6" y="99.6" width="158" height=".3"/><rect class="cls-1" x="551.6" y="88.4" width="158" height=".3"/><rect class="cls-1" x="551.6" y="77.2" width="158" height=".3"/><rect class="cls-4" x="566.6" y="87.7" width="5.2" height="45.6"/><rect class="cls-2" x="574.8" y="76.7" width="6.4" height="56.6"/><rect class="cls-4" x="603" y="120.3" width="5.2" height="12.9"/><rect class="cls-2" x="611.2" y="93.7" width="5.2" height="39.6"/><rect class="cls-4" x="637" y="68.2" width="5.2" height="65.1"/><rect class="cls-2" x="646.4" y="117.8" width="5.2" height="15.5"/><rect class="cls-4" x="670.9" y="74.8" width="5.2" height="58.5"/><rect class="cls-2" x="679.2" y="99.7" width="5.2" height="33.6"/><rect class="cls-4" x="696.4" y="128.7" width="5.2" height="4.5"/><rect class="cls-12" x="566.7" y="138.9" width="12.2" height="2.1" rx=".6" ry=".6"/><rect class="cls-12" x="602.2" y="138.9" width="12.2" height="2.1" rx=".6" ry=".6"/><rect class="cls-12" x="633.4" y="138.9" width="12.2" height="2.1" rx=".6" ry=".6"/><rect class="cls-12" x="665.7" y="138.9" width="12.2" height="2.1" rx=".6" ry=".6"/><rect class="cls-12" x="693" y="138.9" width="12.2" height="2.1" rx=".6" ry=".6"/><rect class="cls-4" x="652.3" y="172.3" width="21.9" height="4.4" transform="translate(1326.5 349) rotate(180)"/><path class="cls-3" d="M672.8,172.3c0,0,0,1,0,2.1s0,2.1,0,2.1,0-1,0-2.1,0-2.1,0-2.1Z"/><path class="cls-3" d="M670.7,172.3c0,0,0,1,0,2.1s0,2.1,0,2.1,0-1,0-2.1,0-2.1,0-2.1Z"/><path class="cls-3" d="M668.7,172.3c0,0,0,1,0,2.1s0,2.1,0,2.1,0-1,0-2.1,0-2.1,0-2.1Z"/><path class="cls-3" d="M666.7,172.3c0,0,0,1,0,2.1s0,2.1,0,2.1,0-1,0-2.1,0-2.1,0-2.1Z"/><path class="cls-3" d="M664.7,172.3c0,0,0,1,0,2.1s0,2.1,0,2.1,0-1,0-2.1,0-2.1,0-2.1Z"/><path class="cls-3" d="M662.7,172.3c0,0,0,1,0,2.1s0,2.1,0,2.1,0-1,0-2.1,0-2.1,0-2.1Z"/><path class="cls-3" d="M660.7,172.3c0,0,0,1,0,2.1s0,2.1,0,2.1,0-1,0-2.1,0-2.1,0-2.1Z"/><path class="cls-3" d="M658.8,172.3c0,0,0,1,0,2.1s0,2.1,0,2.1,0-1,0-2.1,0-2.1,0-2.1Z"/><path class="cls-3" d="M656.8,172.3c0,0,0,1,0,2.1s0,2.1,0,2.1,0-1,0-2.1,0-2.1,0-2.1Z"/><path class="cls-3" d="M654.8,172.3c0,0,0,1,0,2.1s0,2.1,0,2.1,0-1,0-2.1,0-2.1,0-2.1Z"/><path class="cls-3" d="M652.8,172.3c0,0,0,1,0,2.1s0,2.1,0,2.1,0-1,0-2.1,0-2.1,0-2.1Z"/><rect class="cls-4" x="651.8" y="176.6" width="21.9" height="4.4" transform="translate(1325.5 357.6) rotate(180)"/><path class="cls-3" d="M672.3,176.7c0,0,0,1,0,2.1s0,2.1,0,2.1,0-1,0-2.1,0-2.1,0-2.1Z"/><path class="cls-3" d="M670.2,176.7c0,0,0,1,0,2.1s0,2.1,0,2.1,0-1,0-2.1,0-2.1,0-2.1Z"/><path class="cls-3" d="M668.2,176.7c0,0,0,1,0,2.1s0,2.1,0,2.1,0-1,0-2.1,0-2.1,0-2.1Z"/><path class="cls-3" d="M666.2,176.7c0,0,0,1,0,2.1s0,2.1,0,2.1,0-1,0-2.1,0-2.1,0-2.1Z"/><path class="cls-3" d="M664.2,176.7c0,0,0,1,0,2.1s0,2.1,0,2.1,0-1,0-2.1,0-2.1,0-2.1Z"/><path class="cls-3" d="M662.3,176.7c0,0,0,1,0,2.1s0,2.1,0,2.1,0-1,0-2.1,0-2.1,0-2.1Z"/><path class="cls-3" d="M660.3,176.7c0,0,0,1,0,2.1s0,2.1,0,2.1,0-1,0-2.1,0-2.1,0-2.1Z"/><path class="cls-3" d="M658.3,176.7c0,0,0,1,0,2.1s0,2.1,0,2.1,0-1,0-2.1,0-2.1,0-2.1Z"/><path class="cls-3" d="M656.3,176.7c0,0,0,1,0,2.1s0,2.1,0,2.1,0-1,0-2.1,0-2.1,0-2.1Z"/><path class="cls-3" d="M654.3,176.7c0,0,0,1,0,2.1s0,2.1,0,2.1,0-1,0-2.1,0-2.1,0-2.1Z"/><path class="cls-3" d="M652.3,176.7c0,0,0,1,0,2.1s0,2.1,0,2.1,0-1,0-2.1,0-2.1,0-2.1Z"/><g class="cls-7"><path d="M673.3,176.6c-6.8.9-14.4,1-21.2,0h21.2Z"/></g><path class="cls-3" d="M651.8,176.6c0,0,4.9,0,10.9,0s10.9,0,10.9,0-4.9,0-10.9,0-10.9,0-10.9,0Z"/><rect class="cls-4" x="653.9" y="180.9" width="21.9" height="4.4" transform="translate(1329.6 366.2) rotate(180)"/><path class="cls-3" d="M674.4,181c0,0,0,1,0,2.1s0,2.1,0,2.1,0-1,0-2.1,0-2.1,0-2.1Z"/><path class="cls-3" d="M672.3,181c0,0,0,1,0,2.1s0,2.1,0,2.1,0-1,0-2.1,0-2.1,0-2.1Z"/><path class="cls-3" d="M670.3,181c0,0,0,1,0,2.1s0,2.1,0,2.1,0-1,0-2.1,0-2.1,0-2.1Z"/><path class="cls-3" d="M668.3,181c0,0,0,1,0,2.1s0,2.1,0,2.1,0-1,0-2.1,0-2.1,0-2.1Z"/><path class="cls-3" d="M666.3,181c0,0,0,1,0,2.1s0,2.1,0,2.1,0-1,0-2.1,0-2.1,0-2.1Z"/><path class="cls-3" d="M664.3,181c0,0,0,1,0,2.1s0,2.1,0,2.1,0-1,0-2.1,0-2.1,0-2.1Z"/><path class="cls-3" d="M662.3,181c0,0,0,1,0,2.1s0,2.1,0,2.1,0-1,0-2.1,0-2.1,0-2.1Z"/><path class="cls-3" d="M660.3,181c0,0,0,1,0,2.1s0,2.1,0,2.1,0-1,0-2.1,0-2.1,0-2.1Z"/><path class="cls-3" d="M658.3,181c0,0,0,1,0,2.1s0,2.1,0,2.1,0-1,0-2.1,0-2.1,0-2.1Z"/><path class="cls-3" d="M656.3,181c0,0,0,1,0,2.1s0,2.1,0,2.1,0-1,0-2.1,0-2.1,0-2.1Z"/><path class="cls-3" d="M654.4,181c0,0,0,1,0,2.1s0,2.1,0,2.1,0-1,0-2.1,0-2.1,0-2.1Z"/><g class="cls-7"><path d="M675.4,180.9c-6.8.9-14.4,1-21.2,0h21.2Z"/></g><path class="cls-3" d="M653.9,180.9c0,0,4.9,0,10.9,0s10.9,0,10.9,0-4.9,0-10.9,0-10.9,0-10.9,0Z"/><rect class="cls-4" x="651.3" y="185.3" width="21.9" height="4.2" transform="translate(1324.5 374.8) rotate(180)"/><path class="cls-3" d="M671.8,185.3c0,0,0,.9,0,2.1s0,2.1,0,2.1,0-.9,0-2.1,0-2.1,0-2.1Z"/><path class="cls-3" d="M669.8,185.3c0,0,0,.9,0,2.1s0,2.1,0,2.1,0-.9,0-2.1,0-2.1,0-2.1Z"/><path class="cls-3" d="M667.8,185.3c0,0,0,.9,0,2.1s0,2.1,0,2.1,0-.9,0-2.1,0-2.1,0-2.1Z"/><path class="cls-3" d="M665.8,185.3c0,0,0,.9,0,2.1s0,2.1,0,2.1,0-.9,0-2.1,0-2.1,0-2.1Z"/><path class="cls-3" d="M663.8,185.3c0,0,0,.9,0,2.1s0,2.1,0,2.1,0-.9,0-2.1,0-2.1,0-2.1Z"/><path class="cls-3" d="M661.8,185.3c0,0,0,.9,0,2.1s0,2.1,0,2.1,0-.9,0-2.1,0-2.1,0-2.1Z"/><path class="cls-3" d="M659.8,185.3c0,0,0,.9,0,2.1s0,2.1,0,2.1,0-.9,0-2.1,0-2.1,0-2.1Z"/><path class="cls-3" d="M657.8,185.3c0,0,0,.9,0,2.1s0,2.1,0,2.1,0-.9,0-2.1,0-2.1,0-2.1Z"/><path class="cls-3" d="M655.8,185.3c0,0,0,.9,0,2.1s0,2.1,0,2.1,0-.9,0-2.1,0-2.1,0-2.1Z"/><path class="cls-3" d="M653.8,185.3c0,0,0,.9,0,2.1s0,2.1,0,2.1,0-.9,0-2.1,0-2.1,0-2.1Z"/><path class="cls-3" d="M651.8,185.3c0,0,0,.9,0,2.1s0,2.1,0,2.1,0-.9,0-2.1,0-2.1,0-2.1Z"/><g class="cls-7"><path d="M672.8,185.3c-6.8,1.2-14.4,1.2-21.2,0h21.2Z"/></g><path class="cls-3" d="M651.3,185.3c0,0,4.9,0,10.9,0s10.9,0,10.9,0-4.9,0-10.9,0-10.9,0-10.9,0Z"/><rect class="cls-4" x="652.7" y="189.5" width="21.9" height="4.2" transform="translate(1327.3 383.3) rotate(180)"/><path class="cls-3" d="M673.2,189.6c0,0,0,.9,0,2.1s0,2.1,0,2.1,0-.9,0-2.1,0-2.1,0-2.1Z"/><path class="cls-3" d="M671.2,189.6c0,0,0,.9,0,2.1s0,2.1,0,2.1,0-.9,0-2.1,0-2.1,0-2.1Z"/><ellipse class="cls-3" cx="669.2" cy="191.7" rx="0" ry="2.1"/><path class="cls-3" d="M667.2,189.6c0,0,0,.9,0,2.1s0,2.1,0,2.1,0-.9,0-2.1,0-2.1,0-2.1Z"/><path class="cls-3" d="M665.2,189.6c0,0,0,.9,0,2.1s0,2.1,0,2.1,0-.9,0-2.1,0-2.1,0-2.1Z"/><path class="cls-3" d="M663.2,189.6c0,0,0,.9,0,2.1s0,2.1,0,2.1,0-.9,0-2.1,0-2.1,0-2.1Z"/><path class="cls-3" d="M661.2,189.6c0,0,0,.9,0,2.1s0,2.1,0,2.1,0-.9,0-2.1,0-2.1,0-2.1Z"/><path class="cls-3" d="M659.2,189.6c0,0,0,.9,0,2.1s0,2.1,0,2.1,0-.9,0-2.1,0-2.1,0-2.1Z"/><path class="cls-3" d="M657.2,189.6c0,0,0,.9,0,2.1s0,2.1,0,2.1,0-.9,0-2.1,0-2.1,0-2.1Z"/><path class="cls-3" d="M655.2,189.6c0,0,0,.9,0,2.1s0,2.1,0,2.1,0-.9,0-2.1,0-2.1,0-2.1Z"/><path class="cls-3" d="M653.2,189.6c0,0,0,.9,0,2.1s0,2.1,0,2.1,0-.9,0-2.1,0-2.1,0-2.1Z"/><g class="cls-7"><path d="M674.3,189.5c-6.8,1.3-14.4,1.4-21.2,0h21.2Z"/></g><path class="cls-3" d="M652.7,189.5c0,0,4.9,0,10.9,0s10.9,0,10.9,0-4.9,0-10.9,0-10.9,0-10.9,0Z"/><rect class="cls-4" x="651.5" y="193.7" width="21.9" height="4.2" transform="translate(1324.8 391.7) rotate(180)"/><path class="cls-3" d="M671.9,193.8c0,0,0,.9,0,2.1s0,2.1,0,2.1,0-.9,0-2.1,0-2.1,0-2.1Z"/><path class="cls-3" d="M669.9,193.8c0,0,0,.9,0,2.1s0,2.1,0,2.1,0-.9,0-2.1,0-2.1,0-2.1Z"/><path class="cls-3" d="M667.9,193.8c0,0,0,.9,0,2.1s0,2.1,0,2.1,0-.9,0-2.1,0-2.1,0-2.1Z"/><path class="cls-3" d="M665.9,193.8c0,0,0,.9,0,2.1s0,2.1,0,2.1,0-.9,0-2.1,0-2.1,0-2.1Z"/><path class="cls-3" d="M663.9,193.8c0,0,0,.9,0,2.1s0,2.1,0,2.1,0-.9,0-2.1,0-2.1,0-2.1Z"/><path class="cls-3" d="M661.9,193.8c0,0,0,.9,0,2.1s0,2.1,0,2.1,0-.9,0-2.1,0-2.1,0-2.1Z"/><path class="cls-3" d="M659.9,193.8c0,0,0,.9,0,2.1s0,2.1,0,2.1,0-.9,0-2.1,0-2.1,0-2.1Z"/><path class="cls-3" d="M657.9,193.8c0,0,0,.9,0,2.1s0,2.1,0,2.1,0-.9,0-2.1,0-2.1,0-2.1Z"/><path class="cls-3" d="M655.9,193.8c0,0,0,.9,0,2.1s0,2.1,0,2.1,0-.9,0-2.1,0-2.1,0-2.1Z"/><path class="cls-3" d="M653.9,193.8c0,0,0,.9,0,2.1s0,2.1,0,2.1,0-.9,0-2.1,0-2.1,0-2.1Z"/><path class="cls-3" d="M651.9,193.8c0,0,0,.9,0,2.1s0,2.1,0,2.1,0-.9,0-2.1,0-2.1,0-2.1Z"/><g class="cls-7"><path d="M673,193.7c-6.8,1.2-14.4,1.2-21.2,0h21.2Z"/></g><path class="cls-3" d="M651.5,193.7c0,0,4.9,0,10.9,0s10.9,0,10.9,0-4.9,0-10.9,0-10.9,0-10.9,0Z"/><path class="cls-3" d="M673.4,198s0,0,0,0c0,0,0-.1,0-.2,0-.2,0-.5,0-.8,0-.7,0-1.8,0-3.1h0s0,0,0,0c.4,0,.8,0,1.2,0h0c0-1.2,0-2.6,0-4.2h0c-.4,0-.9,0-1.4,0h0s0,0,0,0c0-1.3,0-2.7,0-4.2h0c0,0,0,0,0,0,.5,0,1,0,1.5,0s.7,0,1.1,0h0c0-1.5,0-3,0-4.4h0c-.7,0-1.4,0-2.1,0h0s0,0,0,0c0-1.5,0-2.9,0-4.1h0c0,0,0,0,0,0,.2,0,.4,0,.5,0h0c0-1.3,0-2.4,0-3.2,0-.4,0-.7,0-.9,0,0,0-.2,0-.2,0,0,0,0,0,0s0,0,0,0c0,0,0,.1,0,.2,0,.2,0,.5,0,.9,0,.8,0,1.9,0,3.2h0s0,0,0,0c-.2,0-.3,0-.5,0h0c0,1.1,0,2.5,0,4.1h0c.7,0,1.4,0,2.1,0h0s0,0,0,0c0,1.4,0,2.9,0,4.5h0c0,0,0,0,0,0-.4,0-.7,0-1.1,0-.5,0-1,0-1.5,0h0c0,1.4,0,2.8,0,4.1h0c.5,0,1,0,1.4,0h0s0,0,0,0c0,1.6,0,3,0,4.2h0c0,0,0,0,0,0-.4,0-.8,0-1.2,0h0c0,1.3,0,2.3,0,3,0,.4,0,.6,0,.8,0,0,0,.2,0,.2,0,0,0,0,0,0Z"/><path class="cls-12" d="M684.2,166.8h15.4c.6,0,1-.8.5-1.2l-7.7-7.9c-.3-.3-.7-.3-1,0l-7.7,7.9c-.4.5-.1,1.2.5,1.2Z"/><rect class="cls-12" x="687.2" y="165.4" width="9.9" height="32.1"/><path class="cls-4" d="M660.4,161.4c.8.7,1.2,1.6,1.2,2.8s-.2,1.5-.6,2.1c-.4.6-1,1.2-1.8,1.6-.8.4-1.8.6-3,.6s-1.7,0-2.5-.3-1.5-.5-2.2-.8l1.3-3c.5.3,1,.5,1.6.7.5.2,1.1.2,1.6.2s.8,0,1.1-.3c.3-.2.4-.4.4-.7s-.1-.5-.4-.6c-.3-.1-.7-.2-1.4-.2h-3.4l.6-7.4h7.8v3.1h-4.6v1.2c0,0,.5,0,.5,0,1.6,0,2.9.4,3.6,1.1Z"/><path class="cls-4" d="M664.9,167.7c-.8-.5-1.4-1.2-1.9-2.2-.5-1-.7-2.1-.7-3.4s.2-2.5.7-3.4c.5-1,1.1-1.7,1.9-2.2.8-.5,1.7-.8,2.8-.8s2,.3,2.8.8c.8.5,1.4,1.2,1.9,2.2.5,1,.7,2.1.7,3.4s-.2,2.5-.7,3.4c-.5,1-1.1,1.7-1.9,2.2-.8.5-1.7.8-2.8.8s-2-.3-2.8-.8ZM669,162.1c0-2-.4-3.1-1.3-3.1s-1.3,1-1.3,3.1.4,3.1,1.3,3.1,1.3-1,1.3-3.1Z"/><path class="cls-3" d="M578.3,177.8h-.9v1.2h-1.3v-1.2h-3v-.9l2.6-3.6h1.4l-2.4,3.5h1.5v-1.1h1.2v1.1h.9v1.1Z"/><path class="cls-3" d="M582.3,175.9c.4.3.6.8.6,1.3s0,.7-.3,1c-.2.3-.4.5-.8.7-.3.2-.8.3-1.3.3s-.8,0-1.2-.2c-.4-.1-.7-.3-1-.5l.5-1c.2.2.5.3.7.4.3,0,.6.1.9.1s.6,0,.8-.2c.2-.1.3-.3.3-.6s0-.4-.3-.6c-.2-.1-.5-.2-1-.2h-1.4l.3-3.2h3.4v1.1h-2.3v1.1c0,0,.4,0,.4,0,.8,0,1.4.2,1.7.5Z"/><path class="cls-4" d="M674.6,158.6c-.2-.2-.3-.5-.3-.8s0-.6.3-.8c.2-.2.4-.3.7-.3s.5,0,.7.3c.2.2.3.5.3.8s0,.6-.3.8c-.2.2-.4.3-.7.3s-.5,0-.7-.3ZM675.7,158.4c0-.1.1-.3.1-.5s0-.4-.1-.5c0-.1-.2-.2-.4-.2s-.3,0-.4.2c0,.1-.1.3-.1.5s0,.4.1.5c0,.1.2.2.4.2s.3,0,.4-.2ZM677.7,156.8h.6l-2.7,3.9h-.6l2.7-3.9ZM677.2,160.5c-.2-.2-.3-.5-.3-.8s0-.6.3-.8c.2-.2.4-.3.7-.3s.5,0,.7.3c.2.2.3.5.3.8s0,.6-.3.8c-.2.2-.4.3-.7.3s-.5,0-.7-.3ZM678.2,160.2c0-.1.1-.3.1-.5s0-.4-.1-.5c0-.1-.2-.2-.4-.2s-.3,0-.4.2c0,.1-.1.3-.1.5s0,.4.1.5c0,.1.2.2.4.2s.3,0,.4-.2Z"/><path class="cls-3" d="M545.5,48.8c0,1.4-1.1,2.6-2.6,2.6s-2.6-1.1-2.6-2.6,1.1-2.6,2.6-2.6,2.6,1.1,2.6,2.6Z"/><path class="cls-3" d="M552.7,48.8c0,1.4-1.1,2.6-2.6,2.6s-2.6-1.1-2.6-2.6,1.1-2.6,2.6-2.6,2.6,1.1,2.6,2.6Z"/><path class="cls-3" d="M559.8,48.8c0,1.4-1.1,2.6-2.6,2.6s-2.6-1.1-2.6-2.6,1.1-2.6,2.6-2.6,2.6,1.1,2.6,2.6Z"/><path class="cls-5" d="M278,167.2l-3.4-5.9c1.3-3.9,1.6-8.1.6-12.3-2.8-12.2-15-19.8-27.2-17-12.2,2.8-19.8,15-17,27.2,2.8,12.2,15,19.8,27.2,17,5.1-1.2,9.4-4,12.5-7.8h0s7.3-1.2,7.3-1.2Z"/><path class="cls-3" d="M278,167.2s-.1,0-.4,0c-.3,0-.8.1-1.4.3-1.3.2-3.1.6-5.5,1,0,0-.1,0-.1,0,0,0,0,0,0,0h0s.2.1.2.1c-1.8,2.3-4.7,5-9,6.7-2.1.9-4.5,1.5-7.1,1.7-2.6.2-5.4,0-8.2-.9-2.8-.8-5.6-2.3-8-4.3-2.5-2-4.6-4.6-6.1-7.7-3-6.1-3.1-14.1.4-20.7,1.8-3.3,4.4-6.2,7.4-8.2,3-2,6.5-3.3,9.9-3.7,3.4-.4,6.8,0,9.9.9,3.1,1,5.8,2.6,8,4.5,4.5,3.9,6.8,9,7.6,13.5.8,4.5,0,8.4-.9,11.1h0c1.1,1.8,1.9,3.3,2.5,4.4.3.5.5.9.6,1.1.1.3.2.4.2.4,0,0,0-.1-.2-.4-.2-.3-.4-.7-.7-1.1-.6-1-1.4-2.5-2.5-4.3,0,0,0,0,0,0,.9-2.7,1.6-6.6.8-11-.7-4.4-3.1-9.4-7.5-13.2-2.2-1.9-4.9-3.4-7.9-4.4-3-1-6.3-1.3-9.7-.9-3.4.5-6.7,1.7-9.7,3.7-3,2-5.5,4.8-7.2,8-3.5,6.5-3.4,14.3-.5,20.3,2.9,6.1,8.3,10.2,13.8,11.8,2.7.8,5.5,1.1,8.1.9,2.6-.2,4.9-.7,7-1.6,4.2-1.7,7.1-4.3,8.9-6.6,0,0,.1,0,.2,0,0,0,0,0,0,.1h0s-.1-.1-.1-.1c2.4-.4,4.2-.6,5.4-.8.6,0,1.1-.2,1.4-.2.3,0,.5,0,.5,0Z"/><path class="cls-3" d="M246.7,154c0,1.3-1,2.3-2.3,2.3s-2.3-1-2.3-2.3,1-2.3,2.3-2.3,2.3,1,2.3,2.3Z"/><path class="cls-3" d="M256,154c0,1.3-1,2.3-2.3,2.3s-2.3-1-2.3-2.3,1-2.3,2.3-2.3,2.3,1,2.3,2.3Z"/><path class="cls-3" d="M265.2,152.8c.6,1.1.3,2.5-.8,3.2-1.1.6-2.5.3-3.2-.8-.6-1.1-.3-2.5.8-3.2,1.1-.6,2.5-.3,3.2.8Z"/><path class="cls-13" d="M404.8,198.6s-.5,4.5-1.3,6.6c-.9,2.1-2.1,2.8-2.1,6.1,0,3.2,0,6.7,0,6.7,0,0-4.8,6.7-4.5,6.7.3,0,8.6,8,8.6,8l7.7-12.7,11.2-12,2.7-11.5-.7-.7v-2.1s-1.7-1.9-3,.3c0,0-.6-2.7-2.7,0-2.2,2.6-5.7,8.8-6.1,9-.4.2-4.8,3.7-4.8,3.7l-2.5.5s1.4-1.8,1.4-3.9c0-2.1.8-3.7-.8-4.9-1.6-1.2-3,.1-3,.1Z"/><path class="cls-8" d="M408.7,214.1s.2-.2.7-.6c.4-.4,1.1-.8,2-1.3,1.8-1,4.6-2,7.7-2.8h0s0,0,0,0c.4-.5.8-1,1.2-1.5.2-.2.4-.5.6-.7h0c0,0,0-.1,0-.1,0-1.3,0-2.5,0-3.6,0-.5.1-1.1.4-1.4.3-.4.8-.5,1.2-.5h-.1c1.1,3.2,1.9,5.4,2.1,5.3,0,0-.2-.5-.5-1.5-.3-1-.7-2.4-1.2-4h0c0-.1-.1-.1-.1-.1-.5,0-1.2,0-1.6.6-.4.5-.5,1.1-.5,1.7,0,1.1,0,2.4,0,3.6h0c-.2.1-.4.4-.6.6-.4.5-.8,1-1.2,1.5h.1c-3.2.7-6,1.8-7.8,2.9-.9.5-1.6,1.1-2,1.5-.4.4-.6.7-.6.7Z"/><path class="cls-8" d="M417.5,204.4c.1,0,1.5-2.2,3-5.1,1.6-2.9,2.7-5.2,2.6-5.3-.1,0-1.5,2.2-3,5.1-1.6,2.9-2.7,5.2-2.6,5.3Z"/><path class="cls-8" d="M423.4,201.1c0,0,.2-.3.3-.9.1-.6.3-1.4.7-2.1.4-.8.9-1.4,1.3-1.7.4-.3.8-.4.8-.5,0,0-.4,0-1,.2-.5.3-1.2.9-1.6,1.8-.4.9-.5,1.7-.6,2.3,0,.6,0,1,0,1Z"/><path class="cls-8" d="M414,204.6c0,.1,1.5,0,3.1.8,1.6.7,2.4,2,2.5,1.9,0,0,0-.4-.5-.9-.4-.5-1-1-1.9-1.4-.8-.4-1.7-.5-2.3-.5-.6,0-1,.1-1,.2Z"/><rect class="cls-12" x="334.8" y="349.1" width="10.8" height="57.7" transform="translate(680.3 756) rotate(180)"/><path class="cls-12" d="M378.7,339.8c-.2,0-33.2,10.4-33.2,10.4h-10.8l-37.9-10.4h81.8Z"/><path class="cls-12" d="M386,427.3s-5-15.2-11.9-18.9c-11.1-5.9-36.5-8.8-36.5-8.8l-2.8,7.2s34,1.3,39.3,8.2c4.9,6.3,8.5,12.3,8.5,12.3h3.3Z"/><circle class="cls-3" cx="381.8" cy="430.1" r="7.2" transform="translate(-192.3 395.9) rotate(-45)"/><path class="cls-12" d="M293.9,427s5-15.2,11.9-18.9c11.1-5.9,36.5-8.8,36.5-8.8l2.8,7.2s-34,1.3-39.3,8.2c-4.9,6.3-8.5,12.3-8.5,12.3h-3.3Z"/><circle class="cls-3" cx="295.8" cy="430.1" r="7.2" transform="translate(-217.5 335.2) rotate(-45)"/><polyline class="cls-12" points="343.9 403.5 342.3 423.1 337.8 424 337.8 403.5"/><circle class="cls-3" cx="339.7" cy="430.1" r="7.2" transform="translate(-156.8 662.3) rotate(-76.8)"/><path class="cls-3" d="M335,350.4c0,.1,2.3.2,5.1.2s5.1-.1,5.1-.2-2.3-.2-5.1-.2-5.1.1-5.1.2Z"/><path class="cls-3" d="M334.8,400.8c0,0,2.1,1.4,5.2,1.4,3,0,5.3-1.1,5.2-1.2,0-.1-2.3.8-5.2.7-2.9,0-5.1-1.1-5.2-1Z"/><path class="cls-2" d="M287.6,182.8h72.9c6.4,0,11.5,5.2,11.5,11.5v111.2c0,12.7-10.3,23-23,23h-49.9c-12.7,0-23-10.3-23-23v-111.2c0-6.4,5.2-11.5,11.5-11.5Z" transform="translate(648 511.4) rotate(180)"/><rect class="cls-2" x="276.1" y="326" width="114.4" height="13.8" rx="3.6" ry="3.6" transform="translate(666.5 665.9) rotate(-180)"/><path class="cls-3" d="M374,326c0-.1-21.1-.3-47.1-.3s-47.1.1-47.1.3,21.1.3,47.1.3,47.1-.1,47.1-.3Z"/><path class="cls-2" d="M400,399.2l-5.4,20s17.9,12.3,17.3,16.1l-38-9.4,7.2-31.4,19,4.7Z"/><path class="cls-12" d="M383.2,414.6c-.8,0-1.5.8-1.5,1.6,0,.8.7,1.6,1.5,1.5.8,0,1.7-.9,1.6-1.7,0-.8-1-1.6-1.7-1.4"/><path class="cls-3" d="M373.9,425.9l.8-3.1,36.1,10.2s1.5,1.2,1,2.4l-38-9.4Z"/><path class="cls-5" d="M395.3,419.1c0,.2-1,0-2.1.4-1.1.4-1.7,1.1-1.9,1-.2,0,.4-1.2,1.7-1.6,1.3-.5,2.4,0,2.3.2Z"/><path class="cls-5" d="M398.9,421.8c0,.2-.9.3-1.7,1-.8.6-1.2,1.5-1.4,1.4-.2,0,0-1.2,1-2,1-.8,2.1-.6,2.1-.4Z"/><path class="cls-5" d="M400,427.3c-.2,0-.2-1,.5-1.9.7-.9,1.7-1.1,1.7-1,0,.2-.6.6-1.2,1.4-.6.8-.8,1.5-1,1.5Z"/><path class="cls-5" d="M396,414.4c-.1.2-.9-.3-2-.5-1.1-.2-2,0-2-.2,0-.2.9-.7,2.1-.4,1.3.2,2,1,1.9,1.2Z"/><path class="cls-2" d="M366.6,411.9l4,24.7,8.7,18.6c.6,1.3,0,2.9-1.3,3.5h0c-.8.3-1.6.2-2.3-.2-4.3-2.9-19.8-13.8-20.2-15.1-.5-2.1-6.1-26.1-6.1-26.1l17.2-5.4Z"/><path class="cls-3" d="M377.9,458.7l-22.9-17.3.2,1c.3,1,.6,1.7,1.3,2.3,1.9,1.5,7.1,5.7,19.1,13.8.7.5,1.6.6,2.3.2h0Z"/><g class="cls-6"><path class="cls-5" d="M358.4,432.5c.7.3,1,1.2.8,1.9-.3.7-1.2,1.1-1.8.8-.7-.3-1.2-1.4-.8-2,.3-.7,1.4-1.1,2-.6"/></g><path class="cls-5" d="M370.4,449c.1,0,.4-1.4,1.7-2.3,1.3-1,2.7-.9,2.7-1.1,0,0-.3-.2-.9-.2-.6,0-1.4.3-2.1.8-.7.5-1.1,1.3-1.3,1.8-.2.6-.2.9,0,.9Z"/><path class="cls-5" d="M372.7,452c.1,0,.8-.9,1.9-1.5,1.2-.6,2.3-.6,2.3-.8,0-.1-1.2-.4-2.5.3-1.3.7-1.8,1.9-1.7,2Z"/><path class="cls-5" d="M366.5,445.4c.1,0,1.1-1.4,2.8-2.5,1.7-1.1,3.4-1.4,3.4-1.5,0-.1-1.8-.1-3.7,1.1-1.9,1.2-2.7,2.9-2.5,2.9Z"/><path class="cls-5" d="M364.6,438c0,.1,1.3-.7,3-1.1,1.7-.4,3.2-.2,3.2-.4,0-.1-1.5-.6-3.3-.1-1.8.4-3,1.5-2.9,1.6Z"/><path class="cls-5" d="M363.3,430.8c.1.1,1.3-1,3.1-1.2,1.8-.3,3.3.4,3.3.2,0,0-.3-.3-.9-.5-.6-.2-1.5-.4-2.5-.2-1,.2-1.8.6-2.3,1-.5.4-.7.7-.7.8Z"/><path class="cls-5" d="M366.1,428.2s0-.3-.1-.9c-.2-.6-.5-1.4-1.2-2.3-.3-.4-.7-.9-1.5-1.1-.4,0-.8,0-1.1.4-.2.4-.2.8-.2,1.2.3,1.6,1.9,2.8,3.6,2.7,1.8-.1,3.1-1.5,3.5-2.9,0-.4.1-.8-.2-1.2-.3-.4-.8-.5-1.1-.3-.7.2-1.1.8-1.4,1.2-.7.8-1.1,1.7-1.3,2.2-.2.6-.2.9-.2.9,0,0,.4-1.3,1.8-2.9.4-.4.8-.8,1.3-1,.2,0,.5,0,.6.2.1.2.1.5,0,.8-.4,1.2-1.6,2.4-3.1,2.5-1.5.1-2.9-1-3.1-2.2,0-.3,0-.6,0-.8.1-.2.3-.3.6-.3.5.1.9.6,1.2.9,1.3,1.6,1.5,3,1.6,3Z"/><path class="cls-3" d="M375.2,294.3s-1.1-.6,0,0c7.2,3.9,35.5,20.1,43,25.1,5.5,3.6,9,13.4,7.2,19.5-7.3,25.3-28.2,76.8-28.2,76.8l-24-3,16.8-71.8-33.9-15.9-33.1-32.9,52.2,2.3Z"/><path class="cls-3" d="M335.6,295.8s30.1,35.3,30.8,42.5c.8,9.8,8.9,96.3,8.9,96.3l-25.1,3.8-19.3-89.3-23.6-27.5-3-15.2,3.3-16,28.1,5.5Z"/><path class="cls-2" d="M343.8,306.4s0,.1.2.3c.2.2.4.5.6.8.6.7,1.4,1.8,2.4,3.1,2.1,2.7,5.2,6.7,8.9,11.6,1.9,2.5,3.9,5.2,6,8.1,1,1.5,2.1,3,3.1,4.6.5.8.7,1.7.9,2.7.2,1,.3,2,.4,3,1,8.1,1.6,17,2.4,26.4.4,4.7.8,9.3,1.2,13.7.4,4.4.8,8.7,1.2,12.7.8,8.1,1.5,15.4,2.1,21.5.6,6.1,1.1,11.1,1.5,14.5.2,1.7.3,3,.4,3.9,0,.4,0,.8.1,1,0,.2,0,.3,0,.3,0,0,0-.1,0-.4,0-.3,0-.6,0-1,0-.9-.2-2.3-.3-4-.3-3.5-.8-8.4-1.3-14.5-.6-6.1-1.2-13.4-2-21.5-.4-4.1-.8-8.3-1.2-12.7-.4-4.4-.8-9-1.2-13.7-.8-9.4-1.4-18.3-2.4-26.4-.1-1-.3-2-.5-3,0-.5-.2-1-.3-1.5-.1-.5-.3-1-.6-1.4-1-1.7-2.1-3.2-3.2-4.6-2.1-2.9-4.2-5.6-6-8.1-3.7-4.9-6.8-8.8-9-11.5-1.1-1.3-1.9-2.4-2.5-3.1-.3-.3-.5-.6-.7-.8-.2-.2-.2-.3-.2-.3Z"/><path class="cls-2" d="M398.8,332.9c0-.1-2.3,1.8-4.9,4.2-2.6,2.4-4.6,4.5-4.5,4.6,0,.1,2.3-1.8,4.9-4.2,2.6-2.4,4.6-4.5,4.5-4.6Z"/><path class="cls-3" d="M353.6,204.4s7.8.7,11.2,5.3c4,5.4,22.5,30.1,22.5,30.1l13.6-22.2,14.1,7.1s-13.1,34.3-18.2,37.2c-5.1,3-12,3.3-15,0-3.1-3.3-20.1-25.6-20.1-25.6l-8-32Z"/><polygon class="cls-10" points="373.6 293.6 341.9 203.6 337.6 198.3 313.9 195.2 309.8 206.6 323 294.3 373.6 293.6"/><path class="cls-3" d="M344.8,273.4s0-.2,0-.6c0-.4,0-1,0-1.6,0-.7,0-1.6-.2-2.6,0-1-.2-2.2-.3-3.4-.5-5.1-1.6-12-3.1-19.6-1.6-7.6-3.2-14.4-4.5-19.3-.6-2.5-1.2-4.4-1.5-5.8-.2-.6-.3-1.2-.5-1.6-.1-.4-.2-.5-.2-.5,0,0,0,.2,0,.6,0,.4.2.9.4,1.6.3,1.4.8,3.4,1.4,5.9,1.2,4.9,2.8,11.8,4.4,19.4,1.6,7.6,2.7,14.5,3.3,19.5.2,1.3.3,2.4.4,3.4.1,1,.2,1.9.2,2.6,0,.7.1,1.2.1,1.6,0,.4,0,.6,0,.6Z"/><path class="cls-3" d="M374.2,281.1c0-.9-10.7-65.1-10.7-65.1l-1.7-5c-1.5-3.6-4.6-6.2-8.3-7.1l-11.1-2.7-4.7-3.6-.2,2.2,4.9,15.9,20,65.6h11.8Z"/><path class="cls-3" d="M326.3,279.3c0-1.9,1.7-15.7.6-26.6-.9-8.1-3.2-22-4.9-31.8-1.3-7.5-3.6-14.8-6.9-21.7l-2-4.2-4.1,6.6-17.9,7.1,6.7,70.7h28.5Z"/><polygon class="cls-3" points="291.1 281.4 281.3 316.9 321.2 327.9 324.5 278.2 291.1 281.4"/><path class="cls-2" d="M291.1,281.4s0,0,0,.2c0,.1,0,.3-.2.5-.1.5-.3,1.1-.6,1.9-.5,1.7-1.2,4.2-2.1,7.3-1.8,6.3-4.2,15.1-7.2,25.6v.2c0,0,.2,0,.2,0,7.9,2.2,16.8,4.6,26.2,7.2,4.7,1.3,9.3,2.6,13.7,3.8h.3c0,0,0-.2,0-.2.9-14.2,1.7-26.7,2.2-35.6.3-4.4.5-8,.6-10.4,0-1.2.1-2.1.1-2.8,0-.3,0-.5,0-.7,0-.2,0-.2,0-.2,0,0,0,0,0,.2,0,.2,0,.4,0,.7,0,.7-.1,1.6-.2,2.8-.2,2.5-.4,6-.8,10.4-.6,8.9-1.5,21.3-2.4,35.6l.3-.2c-4.4-1.2-9-2.5-13.7-3.8-9.4-2.6-18.3-5-26.2-7.2l.2.3c2.9-10.5,5.3-19.4,7-25.6.8-3.1,1.5-5.6,2-7.3.2-.8.4-1.5.5-1.9,0-.2,0-.4.1-.5,0-.1,0-.2,0-.2Z"/><path class="cls-3" d="M331.5,264.7l-31.3-2.4-.9-34.1-7.1-20s-11,4-11.3,17.4c-.3,13.4-.6,41.7,1.7,50.1,0,.3.2.6.3.9,2.1,6.2,8.5,9.8,14.9,9l36.5-4.9-2.8-16Z"/><path class="cls-2" d="M298.8,230.1s0,.2,0,.6c0,.5,0,1.1,0,1.9,0,1.7.1,4,.2,6.8.2,5.8.5,13.8.9,22.5,0,.1,0,.3,0,.4v.2s.2,0,.2,0c8.7.7,16.5,1.3,22.2,1.7,2.8.2,5.1.4,6.7.5.8,0,1.4,0,1.8.1.4,0,.6,0,.6,0s-.2,0-.6-.1c-.5,0-1.1-.1-1.8-.2-1.6-.2-3.9-.4-6.7-.6-5.7-.5-13.5-1.1-22.2-1.9l.2.2c0-.1,0-.3,0-.4-.4-8.8-.8-16.7-1-22.5-.2-2.8-.3-5.2-.4-6.8,0-.8,0-1.4-.1-1.9,0-.4,0-.6,0-.6Z"/><path class="cls-2" d="M292.1,210.4c-.1.1,2.4,2.5,4.2,6.3,1.8,3.8,1.9,7.3,2.1,7.3,0,0,0-.9,0-2.3-.2-1.4-.7-3.3-1.6-5.2-.9-1.9-2.1-3.5-3-4.6-.9-1-1.6-1.6-1.7-1.5Z"/><path class="cls-2" d="M308.6,202.7s0,.2,0,.6c0,.4,0,.9.1,1.6.1,1.4.4,3.3.8,5.8.9,4.9,2.5,11.6,5.5,18.8v.2c0,0,.3,0,.3,0,.8-.1,1.6-.3,2.5-.4.4,0,.8-.1,1.2-.2l-.2-.4c-1.3,1.5-2.6,3.2-2.8,5.2-.1,1,.2,2,.5,2.8.3.9.7,1.6,1.1,2.4,1.5,3.1,2.8,5.9,3.9,8.3,1.1,2.3,2,4.2,2.7,5.5.3.6.5,1.1.7,1.5.2.3.3.5.3.5,0,0,0-.2-.2-.5-.2-.4-.4-.9-.7-1.5-.6-1.4-1.5-3.3-2.5-5.6-1.1-2.4-2.4-5.2-3.8-8.3-.7-1.6-1.7-3.2-1.5-5,.2-1.8,1.4-3.4,2.7-4.9l.5-.5h-.7c-.4.2-.8.3-1.2.3-.8.2-1.7.3-2.5.5l.3.2c-2.9-7.1-4.7-13.8-5.6-18.6-.5-2.4-.8-4.4-1-5.7,0-.6-.2-1.2-.2-1.6,0-.4,0-.5-.1-.5Z"/><path class="cls-2" d="M355.3,250.1s0-.2,0-.5c0-.3,0-.8,0-1.5,0-1.3,0-3.2-.3-5.5-.4-4.6-1.6-10.9-3.2-17.7-.8-3.4-1.6-6.7-2.4-9.6-.8-2.9-1.7-5.5-2.7-7.7-1-2.1-1.9-3.7-2.7-4.8-.4-.5-.7-.9-.9-1.2-.2-.3-.3-.4-.3-.4,0,0,.4.6,1.1,1.7.7,1.1,1.6,2.7,2.5,4.8.9,2.1,1.8,4.7,2.6,7.6.8,2.9,1.5,6.2,2.3,9.6,1.6,6.8,2.8,13.1,3.3,17.7.3,2.3.4,4.1.5,5.4,0,.6,0,1.1,0,1.5,0,.3,0,.5,0,.5Z"/><path class="cls-2" d="M292,269.5c.1,0,1.1-2.5,3.6-4.5,2.5-2.1,5.2-2.5,5.1-2.7,0,0-.7,0-1.7.3-1,.3-2.4,1-3.7,2-1.3,1.1-2.2,2.3-2.7,3.3-.5,1-.7,1.6-.6,1.6Z"/><polygon class="cls-4" points="333.2 220.4 335.9 283 343.8 297.4 349.1 280.8 336.3 219.8 333.2 220.4"/><path class="cls-12" d="M400.1,240.9c-.1.4-22,48.2-22,48.2h-40.5l17.8-45.2s13.9,1.8,26.2.8c9.8-.8,18.5-3.8,18.5-3.8Z"/><path class="cls-3" d="M400.1,240.9s0,0-.2,0c-.1,0-.3.1-.6.2-.5.2-1.3.4-2.3.7-2,.6-5,1.4-8.9,2.1-7.8,1.5-19.2,1.7-32.7.2h.2c-5.1,12.9-11.2,28.4-17.7,44.9h0c0,.1-.2-.2-.2-.2,14.6,0,28.4,0,40.5,0h-.2c13.1-28.1,21.4-46.1,22.2-47.9-.8,1.8-9,19.9-21.8,48.3h0c0,.1-.1.1-.1.1-12.1,0-25.9,0-40.5,0h-.4s.1-.4.1-.4h0c6.5-16.7,12.7-32.1,17.8-45.2v-.2c0,0,.2,0,.2,0,13.5,1.6,24.9,1.4,32.6,0,3.9-.6,6.9-1.4,8.9-1.9,1-.3,1.8-.5,2.3-.6.2,0,.4-.1.6-.2.1,0,.2,0,.2,0Z"/><path class="cls-13" d="M331.4,265.1l2.8.2s9.1-8.5,10.4-8.5,5.3,1.1,5.3,1.1l-1.1,2.8s6.7-.4,8.8,0c2,.4,4.4,1.4,3.6,3.9,0,0,1.7,2.7-1.8,4.1,0,0,.8,1.5-1.2,2.8-.3.2-.6.4-1.1.6-3.3,1.4-3.1,1.7-3.1,1.7,0,0-.1,1.5-1.3,2.7-1.2,1.2-7.9,3.8-11.6,3.9-3.7.2-7-.9-7-.9l-2.6-14.4Z"/><path class="cls-8" d="M341.1,260.7c0,.1,1.8.2,4,.2,2.2,0,4-.1,4-.3,0-.1-1.8-.2-4-.2-2.2,0-4,.1-4,.3Z"/><path class="cls-8" d="M342.8,265.9c0,0,1,0,2.7-.1,1.8-.1,4-.3,6.4-.4,2.4-.1,4.6-.2,6.4-.3,1.6,0,2.7-.1,2.7-.2,0,0-1-.1-2.7-.1-1.6,0-3.9,0-6.4.2-2.5.1-4.8.4-6.4.6-1.6.2-2.6.4-2.6.5Z"/><path class="cls-8" d="M346.6,270.7c0,.1,3-.2,6.6-.7,3.6-.5,6.5-1,6.5-1.2,0-.1-3,.2-6.6.7-3.6.5-6.5,1-6.5,1.2Z"/><path class="cls-8" d="M347.4,274.7c0,.1,1.6.2,3.5-.2,1.9-.3,3.4-.9,3.3-1,0-.1-1.6.2-3.4.5-1.9.3-3.4.5-3.4.7Z"/><g class="cls-7"><polygon points="380.8 297.4 390.5 303 284 307.3 286.7 297.4 380.8 297.4"/></g><polygon class="cls-4" points="333.2 220.4 331 217.6 332.6 212.9 335.2 212.9 337.3 217.2 336.3 219.8 333.2 220.4"/><path class="cls-3" d="M341.9,212.2s0,.2,0,.5c0,.3-.2.8-.5,1.4-.5,1.2-1.6,2.9-3.5,4.2l-.2.2v-.3c-.5-1.2-1-2.4-1.6-3.7-.7-1.3-1.5-2.5-2.8-3.4h.4c-.2.7-.5,1.6-.8,2.5-.7,2.3-1.6,4.5-2.4,6.5v.3c-.1,0-.4-.2-.4-.2-2.8-2.1-5.1-4.1-6.6-5.6-.8-.7-1.3-1.4-1.7-1.8-.4-.4-.6-.7-.6-.7,0,0,.3.2.7.6.5.4,1.1,1,1.8,1.7,1.6,1.4,3.8,3.4,6.6,5.4h-.4c.8-1.8,1.6-4,2.4-6.3.3-.9.5-1.8.8-2.6v-.3c0,0,.4.2.4.2,1.4.9,2.3,2.3,3,3.6.7,1.3,1.1,2.6,1.5,3.8h-.3c1.9-1.3,2.9-2.9,3.5-4.1.6-1.1.8-1.9.8-1.9Z"/><path class="cls-3" d="M343.9,138.6c-4-.7-7.6,3.1-11.6,2.8-2.4-.2-4.5-1.9-6.7-2.9-3.4-1.4-7.9-1.2-11,.8-3.1,2-5,4-5,7.7-3.2-1.4-7.7,2.9-9,6.7-1.3,3.8-.4,7.5.9,11.2,2.4,6.5,6.1,12.4,10.7,17.5.4.4,1,.9,1.6.6.4-.2.4-.7.5-1.1.2-3.6-.7-7.1-1.4-10.7-.7-3.5-1.3-7.2-.5-10.7.7-3.5,3.1-6.9,6.5-8,2.5-.8,5.3-.3,7.8.8,2.4,1,4.7,2.5,7,3.8s5,2.2,7.6,2c2.6-.2,5.3-1.7,6.2-4.2.9-2.5-.8-5.8-3.4-6,2.3-.5,4.2-2.8,4.2-5.2,0-2.4-1.9-4.6-4.3-5.1Z"/><path class="cls-13" d="M346.2,181c-.7-4.9-2.8-14.8-4.9-23.7-2.2-9.6-11.5-15.9-21.2-14.5h-1c-10.4,2.3-13.1,12.5-10.6,22.9l5.3,30.7,19.4,14.6,5.2-9-.4-7.9s9.6-2.9,8.2-13Z"/><path class="cls-8" d="M338,194s-6.6,1.5-14-1.7c0,0,4.2,6.6,14.1,4.2v-2.5Z"/><path class="cls-3" d="M339.6,167.2c.1.8-.4,1.5-1.2,1.7-.8.2-1.5-.3-1.7-1.1-.1-.8.4-1.5,1.2-1.7.8-.2,1.5.3,1.7,1.1Z"/><path class="cls-3" d="M339.8,162.5c-.2.2-1.4-.4-2.9-.2-1.5.2-2.6,1.2-2.8,1,0,0,0-.4.5-.9.4-.4,1.2-.9,2.2-1,1-.1,1.8,0,2.3.4.5.3.7.6.7.7Z"/><path class="cls-3" d="M325.4,169.7c.1.8-.4,1.5-1.2,1.7-.8.2-1.5-.3-1.7-1.1-.1-.8.4-1.5,1.2-1.7.8-.2,1.5.3,1.7,1.1Z"/><path class="cls-3" d="M324.7,165c-.2.2-1.4-.4-2.9-.2-1.5.2-2.6,1.2-2.8,1,0,0,0-.4.5-.9.4-.4,1.2-.9,2.2-1,1-.1,1.8,0,2.3.4.5.3.7.6.7.7Z"/><path class="cls-3" d="M332,175.7c0,0,.9-.4,2.4-.8.4,0,.8-.2.8-.5,0-.3-.2-.7-.4-1.1-.5-.9-1-1.8-1.6-2.8-2.3-4-3.9-7.4-3.8-7.5.2,0,2.1,3.1,4.4,7.2.5,1,1.1,2,1.6,2.9.2.4.5.9.4,1.5,0,.3-.3.6-.6.7-.2.1-.5.2-.7.2-1.6.3-2.5.5-2.5.4Z"/><path class="cls-3" d="M323.7,157.1c0,.4-1.7.5-3.4,1-1.8.4-3.2,1.2-3.5.9-.1-.2,0-.6.6-1.1.5-.5,1.4-1,2.5-1.3,1.1-.3,2.1-.3,2.8,0,.7.2,1.1.5,1.1.7Z"/><path class="cls-3" d="M338.6,158.1c-.2.4-1.3.2-2.6.4-1.3.1-2.3.6-2.6.3-.1-.2,0-.5.4-.9.4-.4,1.2-.8,2-.9.9-.1,1.7.1,2.2.4.5.3.7.6.6.8Z"/><path class="cls-13" d="M309.9,172.6c-.2,0-8-.9-6.8,6,1.2,6.9,8.4,4.6,8.4,4.6l-1.6-10.5Z"/><path class="cls-8" d="M308.3,180.3s-.1.1-.3.2c-.2.1-.5.2-.9.2-.8-.1-1.6-1.2-1.8-2.4-.1-.6-.1-1.2,0-1.8.1-.5.4-.9.7-1.1.3-.1.6,0,.8.2.1.2.1.3.1.3,0,0,.1-.1,0-.4,0-.1-.2-.3-.3-.4-.2-.1-.4-.1-.7,0-.5.1-.9.7-1.1,1.3-.2.6-.2,1.3,0,2,.3,1.4,1.2,2.5,2.3,2.6.5,0,.9-.2,1.1-.4.2-.2.2-.4.2-.4Z"/><path class="cls-3" d="M340,147.8c-1.2-1.8-3-3.2-4.9-4.2-4.2-2.3-9-3.4-13.7-2.7-4.7.6-9.2,3-12.1,6.7-2.3,3-3.6,6.7-3.9,10.5-.3,3.8,0,8.7,1.3,12.3.5,1.6,1.5,2,2.8,3,.8.6,2.1.9,2.8.2.4-.4.5-1.1.6-1.7.5-5.5,1-11.4-1.7-16.2,1.1-1.9,2.4-3.7,4.1-5.1s4-2.1,6.1-1.8c3.2.5,5.5,3.2,8.3,4.9,3.9,2.5,9.1,2.8,13.3,1l-3.1-7Z"/><path class="cls-12" d="M300.7,162.6c0,0,.7,0,1.9-.3,1.2-.2,2.7-.8,4.2-1.8,1.5-1,2.6-2.2,3.3-3.2.7-1,1-1.6,1.1-1.6,0,0-.2.7-.8,1.8-.6,1-1.8,2.3-3.3,3.4-1.6,1-3.2,1.5-4.4,1.7-1.2.2-2,0-2,0Z"/><path class="cls-12" d="M301.5,164.5c0,0,.7,0,1.9-.3,1.2-.2,2.7-.8,4.2-1.8,1.5-1,2.6-2.2,3.3-3.2.7-1,1-1.6,1.1-1.6,0,0-.2.7-.8,1.8-.6,1-1.8,2.3-3.3,3.4-1.6,1-3.2,1.5-4.4,1.7-1.2.2-2,0-2,0Z"/><path class="cls-8" d="M328.2,178.5s1.7.3,3.2.8l2.2.5c-.2.9-.7,2.4-1.4,2.9-.8.5-2.2.7-3,.2-.6-.4-1.1-1.1-1.3-2.1-.2-.8.4-2.3.4-2.3Z"/><path class="cls-3" d="M333.1,181.3s0,.2-.1.6c0,.2-.2.4-.4.6,0,.1-.2.2-.3.3-.2.1-.3.2-.5.2-.3.1-.7.1-1.1.2-.4,0-.9,0-1.3-.2-.4-.2-.9-.5-1.2-.9-.3-.4-.5-1-.4-1.6,0-.5.1-1.1.2-1.5,0-.1,0-.2,0-.4,0-.1.2-.4.5-.4.2,0,.3,0,.4,0h.3c.8.3,1.6.5,2.3.7,1.3.4,2.1.7,2.1.7,0,0-.8,0-2.2-.4-.7-.2-1.5-.4-2.3-.5h-.3c-.1-.1-.2-.1-.3-.1,0,0,0,0,0,0,0,0,0,0,0,0,0,0,0,.2,0,.3-.1.5-.2,1-.2,1.4,0,1,.5,1.8,1.3,2.1.7.3,1.6.3,2.2.1.3,0,.5-.2.7-.4.2-.2.3-.4.4-.5.2-.3.3-.5.3-.5Z"/><path class="cls-2" d="M366.8,244.8c-.1,0-1.1-5.2-2.1-11.6-1-6.4-1.7-11.6-1.6-11.7.1,0,1.1,5.2,2.1,11.6,1,6.4,1.7,11.6,1.6,11.7Z"/><path class="cls-2" d="M333.4,280.8s-.2,0-.5.1c-.4,0-.8.1-1.3.2-1.2.2-2.9.5-4.9.8-4.1.6-9.9,1.5-16.2,2.4-3.2.4-6.2.9-8.9,1.2-2.8.3-5.3.3-7.4.2-2.1-.1-3.8-.5-4.9-.8-.6-.1-1-.3-1.3-.4-.3-.1-.4-.2-.4-.2,0,0,.6.2,1.8.4,1.1.3,2.8.6,4.9.7,2.1.1,4.6,0,7.3-.3,2.7-.3,5.8-.8,8.9-1.2,6.3-.9,12.1-1.7,16.2-2.3,2-.3,3.7-.5,4.9-.6.5,0,1-.1,1.3-.1.3,0,.5,0,.5,0Z"/><path class="cls-12" d="M507.9,285.6h-13.9c0-.1,0-.2,0-.3l-9.5-39.8c-.5-2-2.3-3.5-4.4-3.5h-51.7c-3,0-5.1,2.8-4.3,5.7l10.8,39.8c.4,1.5,1.2,3.1,3.1,3.3h74.2v-.8c0-2.4-2-4.4-4.4-4.4Z"/><path class="cls-3" d="M507.9,285.6s.2,0,.5,0c.3,0,.8.1,1.4.4.6.3,1.3.8,1.8,1.6.3.4.5.9.6,1.4.1.6.1,1.2.1,1.8h0c0,0,0,0,0,0-12.3,0-39.7,0-74.2.1h0c-.9,0-1.7-.5-2.2-1.2-.5-.7-.8-1.5-1.1-2.3-.4-1.6-.9-3.3-1.3-4.9-.9-3.3-1.8-6.7-2.8-10.1-1.9-6.9-3.8-14-5.8-21.3-.2-.7-.4-1.5-.6-2.2-.2-.7-.5-1.4-.5-2.2,0-1.6.7-3.1,2-4,.6-.4,1.4-.7,2.1-.8.8,0,1.5,0,2.2,0,1.5,0,2.9,0,4.4,0,5.8,0,11.5,0,17.1,0,5.5,0,10.9,0,16.1,0,2.6,0,5.1,0,7.6,0,1.2,0,2.5,0,3.7,0,.6,0,1.2,0,1.8,0,.6.1,1.2.4,1.7.7,1,.7,1.8,1.8,2,2.9.3,1.1.5,2.3.8,3.4.5,2.2,1,4.4,1.5,6.5,1,4.2,1.9,8.1,2.8,11.8,1.7,7.3,3.2,13.5,4.3,18.4h0c4.5,0,8,0,10.3,0,1.2,0,2,0,2.6,0,.6,0,.9,0,.9,0,0,0-.3,0-.9,0-.6,0-1.5,0-2.6,0-2.3,0-5.8,0-10.3,0h0s0,0,0,0c-1.2-4.9-2.7-11.1-4.4-18.4-.9-3.7-1.8-7.6-2.8-11.8-.5-2.1-1-4.2-1.5-6.5-.3-1.1-.5-2.2-.8-3.4-.2-1.1-.9-2.1-1.9-2.8-.5-.3-1-.5-1.6-.6-.6-.1-1.2,0-1.8,0-1.2,0-2.5,0-3.7,0-2.5,0-5,0-7.6,0-5.2,0-10.6,0-16.1,0-5.5,0-11.2,0-17.1,0-1.5,0-2.9,0-4.4,0-.7,0-1.5,0-2.2,0-.7,0-1.4.3-2,.7-1.2.8-1.9,2.2-1.8,3.7,0,.7.3,1.4.5,2.2.2.7.4,1.5.6,2.2,2,7.3,3.9,14.4,5.8,21.3.9,3.4,1.9,6.8,2.8,10.1.5,1.7.9,3.3,1.3,4.9.2.8.5,1.6,1,2.2.5.6,1.2,1,2,1.1h0c34.5,0,61.8,0,74.2.1h0c0-.6,0-1.2,0-1.7-.1-.5-.3-1-.6-1.4-.5-.8-1.2-1.3-1.8-1.6-1.2-.5-1.9-.4-1.9-.5Z"/><polygon class="cls-5" points="479.8 245.9 428 245.9 438.3 282.7 488.7 282.7 479.8 245.9"/><path class="cls-3" d="M488.8,282.8h-50.5s-10.3-36.9-10.3-36.9h51.9s8.9,36.9,8.9,36.9ZM438.3,282.7h50.4l-8.9-36.8h-51.8l10.3,36.8Z"/><path class="cls-3" d="M494.5,285.7c0,.1-12.2.2-27.3.2s-27.3,0-27.3-.2,12.2-.2,27.3-.2,27.3,0,27.3.2Z"/><path class="cls-3" d="M483.7,279.3s0,0-.2,0c-.1,0-.3,0-.5,0-.5,0-1.1,0-1.9,0-1.7,0-4.1,0-7.1,0-6,0-14.3,0-23.5,0-2.9,0-5.6,0-8.2,0h-.1s0-.1,0-.1c-1.9-6.9-3.6-12.9-4.8-17.3-.6-2.1-1-3.8-1.4-5-.1-.6-.3-1-.3-1.4,0-.3-.1-.5,0-.5,0,0,0,.2.2.5.1.3.2.8.4,1.3.4,1.2.8,2.9,1.5,5,1.2,4.3,2.9,10.3,4.9,17.2h-.2c2.6-.1,5.4-.1,8.2-.1,9.2,0,17.5,0,23.5,0,3,0,5.4,0,7.1,0,.8,0,1.5,0,1.9,0,.2,0,.4,0,.5,0,.1,0,.2,0,.2,0Z"/><polygon class="cls-2" points="449 266.6 442.8 266.6 445.8 276.5 452 276.5 449 266.6"/><polygon class="cls-4" points="478.2 266.6 471.9 266.6 475 276.5 481.2 276.5 478.2 266.6"/><polygon class="cls-4" points="457.6 263.2 451.4 263.2 455.3 276.5 461.5 276.5 457.6 263.2"/><polygon class="cls-2" points="465.7 257 459.5 257 465.5 276.5 471.7 276.5 465.7 257"/><rect class="cls-12" x="516.8" y="301.1" width="10.6" height="136.1"/><path class="cls-3" d="M527.4,437.3s0-.2,0-.7c0-.5,0-1.2,0-2,0-1.8,0-4.5,0-7.9,0-6.8,0-16.7,0-29,0-24.5,0-58.5-.1-96.6l.3.3c-3.4,0-7,0-10.6,0h0l.3-.3c0,61.9-.1,114.8-.2,136.1h0c3.4,0,6.1,0,7.9,0,.9,0,1.6,0,2,0,.5,0,.7,0,.7,0,0,0-.2,0-.7,0-.5,0-1.1,0-2,0-1.8,0-4.5,0-7.9,0h0s0,0,0,0c0-21.4,0-74.3-.2-136.1v-.3s.3,0,.3,0h0c3.6,0,7.2,0,10.6,0h.3v.3c0,38.1,0,72.2-.1,96.7,0,12.2,0,22.1,0,28.9,0,3.4,0,6,0,7.8,0,.9,0,1.5,0,2,0,.5,0,.7,0,.7Z"/><rect class="cls-12" x="232.9" y="296.4" width="10.6" height="140.9"/><path class="cls-3" d="M243.5,437.3s0-.3,0-.7c0-.5,0-1.2,0-2.1,0-1.9,0-4.6,0-8.1,0-7.1,0-17.3,0-30,0-25.4,0-60.5-.1-99.9l.3.3c-3.4,0-7,0-10.6,0h0l.3-.3c0,64.3-.1,119.1-.2,140.9h0c3.5,0,6.1,0,7.9,0,.9,0,1.6,0,2,0,.5,0,.7,0,.7,0,0,0-.2,0-.7,0-.5,0-1.1,0-2,0-1.8,0-4.5,0-7.9,0h0s0,0,0,0c0-21.7,0-76.6-.2-140.9v-.3s.3,0,.3,0h0c3.6,0,7.2,0,10.6,0h.3v.3c0,39.4,0,74.7-.1,100.1,0,12.7,0,22.9,0,29.9,0,3.5,0,6.2,0,8.1,0,.9,0,1.6,0,2.1,0,.5,0,.7,0,.7Z"/><rect class="cls-12" x="313.6" y="296.4" width="10.6" height="140.9"/><path class="cls-3" d="M324.2,437.3s0-.3,0-.7c0-.5,0-1.2,0-2.1,0-1.9,0-4.6,0-8.1,0-7.1,0-17.3,0-30,0-25.4,0-60.6-.1-99.9l.3.3c-3.4,0-7,0-10.6,0h0l.3-.3c0,64.3-.1,119.2-.2,140.9h0c3.5,0,6.1,0,7.9,0,.9,0,1.6,0,2,0,.5,0,.7,0,.7,0,0,0-.2,0-.7,0-.5,0-1.1,0-2,0-1.8,0-4.5,0-7.9,0h0s0,0,0,0c0-21.7,0-76.6-.2-140.9v-.3s.3,0,.3,0h0c3.6,0,7.2,0,10.6,0h.3v.3c0,39.4,0,74.7-.1,100.1,0,12.7,0,22.9,0,29.9,0,3.5,0,6.2,0,8.1,0,.9,0,1.6,0,2.1,0,.5,0,.7,0,.7Z"/><rect class="cls-11" x="215.2" y="289.7" width="335.3" height="17.2"/><g class="cls-7"><rect x="215.7" y="289.7" width="90.8" height="17.1"/></g><rect class="cls-1" x="277.9" y="265.2" width="25.2" height="9.9" transform="translate(581 540.4) rotate(180)"/><rect class="cls-2" x="225" y="263.5" width="79.2" height="2.1" transform="translate(529.1 529.1) rotate(180)"/><rect class="cls-2" x="225" y="274.7" width="78.8" height="2.1" transform="translate(528.8 551.5) rotate(180)"/><polygon class="cls-2" points="277.9 264 277.8 276.4 225 276.4 225 264 277.9 264"/><path class="cls-3" d="M265.1,270.2c0,1.7,1.3,3.1,2.9,3.1s2.9-1.4,2.9-3.1-1.3-3.1-2.9-3.1-2.9,1.4-2.9,3.1Z"/><path class="cls-12" d="M264.6,270.2c0-1.9,1.5-3.5,3.3-3.5s3.3,1.6,3.3,3.5-1.5,3.5-3.3,3.5-3.3-1.6-3.3-3.5ZM265.5,270.2c0,1.5,1.1,2.6,2.4,2.6s2.4-1.2,2.4-2.6-1.1-2.6-2.4-2.6-2.4,1.2-2.4,2.6Z"/><path class="cls-3" d="M279.8,272.7c0,.1,5.2.2,11.6.2s11.6-.1,11.6-.2-5.2-.2-11.6-.2-11.6.1-11.6.2Z"/><path class="cls-3" d="M279.8,271c0,.1,5.2.2,11.6.2s11.6-.1,11.6-.2-5.2-.2-11.6-.2-11.6.1-11.6.2Z"/><path class="cls-3" d="M279.8,269.3c0,.1,5.2.2,11.6.2s11.6-.1,11.6-.2-5.2-.2-11.6-.2-11.6.1-11.6.2Z"/><path class="cls-3" d="M279.8,267.5c0,.1,5.2.2,11.6.2s11.6-.1,11.6-.2-5.2-.2-11.6-.2-11.6.1-11.6.2Z"/><rect class="cls-5" x="230.8" y="266.6" width="23.8" height="6.6" transform="translate(485.5 539.9) rotate(180)"/><path class="cls-12" d="M250.9,272.6c.1,0,.2-1.2.2-2.6s-.1-2.6-.2-2.6-.2,1.2-.2,2.6.1,2.6.2,2.6Z"/><path class="cls-12" d="M247.8,272.6c.1,0,.2-1.2.2-2.6s-.1-2.6-.2-2.6-.2,1.2-.2,2.6.1,2.6.2,2.6Z"/><path class="cls-12" d="M244.6,272.6c.1,0,.2-1.2.2-2.6s-.1-2.6-.2-2.6-.2,1.2-.2,2.6.1,2.6.2,2.6Z"/><path class="cls-12" d="M241.5,272.6c.1,0,.2-1.2.2-2.6s-.1-2.6-.2-2.6-.2,1.2-.2,2.6.1,2.6.2,2.6Z"/><path class="cls-12" d="M238.3,272.6c.1,0,.2-1.2.2-2.6s-.1-2.6-.2-2.6-.2,1.2-.2,2.6.1,2.6.2,2.6Z"/><path class="cls-12" d="M235.2,272.6c.1,0,.2-1.2.2-2.6s-.1-2.6-.2-2.6-.2,1.2-.2,2.6.1,2.6.2,2.6Z"/><path class="cls-3" d="M277.5,276.8c.1,0,.2-2.9.2-6.6s-.1-6.6-.2-6.6-.2,2.9-.2,6.6.1,6.6.2,6.6Z"/><polygon class="cls-9" points="227.7 244.2 227.7 241 295.3 241.1 299.2 241.1 299.2 244.2 295.3 244.2 295.3 263.6 222.2 263.6 222.2 244.2 227.7 244.2"/><polygon class="cls-1" points="244.2 263.6 244.2 241 227.7 241 227.7 244.2 222.2 244.2 222.2 263.6 244.2 263.6"/><path class="cls-12" d="M227.7,241c0,.1,15.9.2,35.5.2s35.5-.1,35.5-.2-15.9-.2-35.5-.2-35.5.1-35.5.2Z"/><path class="cls-12" d="M222.8,251.1c0,.1,16.2.2,36.1.2s36.1-.1,36.1-.2-16.2-.2-36.1-.2-36.1.1-36.1.2Z"/><path class="cls-12" d="M222.2,258.1c0,.1,16.3.2,36.4.2s36.4-.1,36.4-.2-16.3-.2-36.4-.2-36.4.1-36.4.2Z"/><path class="cls-12" d="M298.6,244.2c0-.1-15.9-.2-35.5-.2s-35.5.1-35.5.2,15.9.2,35.5.2,35.5-.1,35.5-.2Z"/><rect class="cls-1" x="274.5" y="278.1" width="25.2" height="9.9" transform="translate(574.3 566.2) rotate(180)"/><rect class="cls-4" x="221.6" y="276.4" width="79.2" height="2.1" transform="translate(522.4 554.9) rotate(180)"/><rect class="cls-4" x="221.6" y="287.6" width="78.8" height="2.1" transform="translate(522.1 577.3) rotate(180)"/><polygon class="cls-4" points="274.5 276.9 274.4 289.3 221.6 289.3 221.6 276.9 274.5 276.9"/><path class="cls-3" d="M261.7,283.1c0,1.7,1.3,3.1,2.9,3.1s2.9-1.4,2.9-3.1-1.3-3.1-2.9-3.1-2.9,1.4-2.9,3.1Z"/><path class="cls-12" d="M261.3,283.1c0-1.9,1.5-3.5,3.3-3.5s3.3,1.6,3.3,3.5-1.5,3.5-3.3,3.5-3.3-1.6-3.3-3.5ZM262.1,283.1c0,1.5,1.1,2.6,2.4,2.6s2.4-1.2,2.4-2.6-1.1-2.6-2.4-2.6-2.4,1.2-2.4,2.6Z"/><path class="cls-3" d="M276.4,285.6c0,.1,5.2.2,11.6.2s11.6-.1,11.6-.2-5.2-.2-11.6-.2-11.6.1-11.6.2Z"/><path class="cls-3" d="M276.4,283.9c0,.1,5.2.2,11.6.2s11.6-.1,11.6-.2-5.2-.2-11.6-.2-11.6.1-11.6.2Z"/><path class="cls-3" d="M276.4,282.2c0,.1,5.2.2,11.6.2s11.6-.1,11.6-.2-5.2-.2-11.6-.2-11.6.1-11.6.2Z"/><path class="cls-3" d="M276.4,280.4c0,.1,5.2.2,11.6.2s11.6-.1,11.6-.2-5.2-.2-11.6-.2-11.6.1-11.6.2Z"/><rect class="cls-5" x="227.5" y="279.6" width="23.8" height="6.6" transform="translate(478.8 565.7) rotate(180)"/><path class="cls-12" d="M247.6,285.5c.1,0,.2-1.2.2-2.6s-.1-2.6-.2-2.6-.2,1.2-.2,2.6.1,2.6.2,2.6Z"/><path class="cls-12" d="M244.4,285.5c.1,0,.2-1.2.2-2.6s-.1-2.6-.2-2.6-.2,1.2-.2,2.6.1,2.6.2,2.6Z"/><path class="cls-12" d="M241.3,285.5c.1,0,.2-1.2.2-2.6s-.1-2.6-.2-2.6-.2,1.2-.2,2.6.1,2.6.2,2.6Z"/><path class="cls-12" d="M238.1,285.5c.1,0,.2-1.2.2-2.6s-.1-2.6-.2-2.6-.2,1.2-.2,2.6.1,2.6.2,2.6Z"/><path class="cls-12" d="M235,285.5c.1,0,.2-1.2.2-2.6s-.1-2.6-.2-2.6-.2,1.2-.2,2.6.1,2.6.2,2.6Z"/><path class="cls-12" d="M231.8,285.5c.1,0,.2-1.2.2-2.6s-.1-2.6-.2-2.6-.2,1.2-.2,2.6.1,2.6.2,2.6Z"/><path class="cls-3" d="M274.2,289.7c.1,0,.2-2.9.2-6.6s-.1-6.6-.2-6.6-.2,2.9-.2,6.6.1,6.6.2,6.6Z"/><path class="cls-3" d="M628.3,157.6c-.6-1.9-2.4-3.2-4.4-3.2-1.9-2.1-5.3-2.7-7.8-1.3-1.5-1.3-3.6-1.7-5.5-1.1-1.9.6-3.4,2.2-3.8,4.2-1.9-.7-4.1,0-5.3,1.6-1.2,1.6-1.3,3.9-.2,5.6-2.2.3-4,2.4-4,4.7,0,2.2,2,4.3,4.3,4.4l24.9-9.7c1.6-1.1,2.4-3.3,1.8-5.1Z"/><path class="cls-13" d="M600.9,172.9c2.6-9.8,12.3-15.9,22.3-14.1l1,.2c10.6,2.6,14.3,13,11.4,23.5l-8.8,35.9-.2.3-17.8,12.3-3-2.2-3.9-9.8,1.5-8.2s-10-3.5-8.2-13.8c.8-5,3.4-15,5.9-24.1Z"/><path class="cls-8" d="M603.2,210.8s6.4,1.5,14.1-1.5c0,0-4.6,6.9-14.6,4.1l.5-2.6Z"/><path class="cls-3" d="M601.4,183.2c-.2.8.3,1.5,1.1,1.7.8.2,1.6-.3,1.8-1,.2-.8-.3-1.5-1.1-1.7-.8-.2-1.6.3-1.8,1Z"/><path class="cls-3" d="M602,178.8c.1.2,1.4-.4,3-.1,1.6.3,2.6,1.3,2.8,1.1,0,0,0-.4-.5-.9-.4-.5-1.2-1-2.2-1.1-1-.2-1.9,0-2.4.3-.6.3-.8.6-.7.7Z"/><path class="cls-3" d="M615,185.9c-.2.8.3,1.5,1.1,1.7.8.2,1.6-.3,1.8-1,.2-.8-.3-1.5-1.1-1.7-.8-.2-1.6.3-1.8,1Z"/><path class="cls-3" d="M617.1,181.3c.1.2,1.4-.4,3-.1,1.6.3,2.6,1.3,2.8,1.1,0,0,0-.4-.5-.9-.4-.5-1.2-1-2.2-1.1-1-.2-1.9,0-2.4.3-.6.3-.8.6-.7.7Z"/><path class="cls-3" d="M615.1,194.5c-.3,0-.8,1.2-2.1,2.1-1.4.9-2.8.8-2.8,1,0,.1.3.3.9.4.6,0,1.5,0,2.4-.6.8-.5,1.4-1.3,1.6-1.9.2-.6.2-1,0-1Z"/><path class="cls-3" d="M609.7,192.1c0,0-.9-.4-2.5-.9-.4-.1-.8-.3-.8-.6,0-.3.2-.7.5-1.1.6-.9,1.1-1.9,1.8-2.8,2.5-4.1,4.3-7.4,4.1-7.5-.2,0-2.3,3.1-4.7,7.2-.6,1-1.2,2-1.7,2.9-.2.4-.6.9-.5,1.5,0,.3.3.6.6.7.2.1.5.2.7.2,1.6.4,2.6.6,2.6.5Z"/><path class="cls-3" d="M617.9,176.8c.1.4,1.5.3,3.2.7,1.7.3,3,.9,3.2.5.1-.2,0-.6-.6-1.1-.5-.5-1.3-.9-2.3-1.1-1-.2-1.9,0-2.5.2-.6.2-1,.6-.9.8Z"/><path class="cls-3" d="M603.1,174.5c.2.4,1.3.3,2.6.7,1.3.3,2.3.9,2.7.6.2-.1,0-.5-.3-1-.4-.5-1.1-.9-2-1.1-.9-.2-1.7,0-2.3.1-.5.2-.8.6-.7.8Z"/><path class="cls-3" d="M602.7,168.4s3.9-5.9,7.3-6.9c4.1-1.1,4.9,3.3,8.7,2.9,3.8-.3,7.7-1.4,10.8,2,3.4,3.8,1.2,5.5.6,10.1-2.4,18.6,0,24.5,2.6,16,.3-.9,3.1-1.2,4.2-5.2,1.5-5.1,2.8-11.4,2.3-15.3-.4-3.3-1.8-5.8-4.5-8.7-4.3-4.7-11.3-6-16-6.4-4.8-.4-14.8,3.4-15.9,11.5Z"/><path class="cls-13" d="M632.1,192.1c.4-1.6,1.9-2.6,3.5-2.1,1.9.5,3.8,2,3,5.9-1.5,7-8.2,4-8.2,3.8,0-.1,1.1-4.7,1.7-7.6Z"/><path class="cls-8" d="M632.4,197.4s.1.1.3.3c.2.1.5.3.9.2.8-.1,1.7-1.1,2-2.4.2-.6.2-1.3,0-1.8-.1-.6-.4-1-.7-1.1-.4-.2-.7,0-.8.2-.1.2-.1.3-.2.3,0,0-.1-.1,0-.4,0-.1.2-.3.4-.4.2-.1.5-.1.7,0,.5.2.9.8,1,1.4.2.6.2,1.3,0,2-.3,1.4-1.4,2.6-2.4,2.6-.5,0-.9-.2-1.1-.4-.2-.2-.2-.4-.2-.4Z"/><path class="cls-3" d="M634.4,178.5c-1,.5-2.1.9-3.2.8-1.1,0-2.3-1-2.2-2.1,0-.5.2-1,0-1.5-.3-.5-1-.5-1.6-.6-2.1-.2-3.9-2-4.1-4.1-.7.7-1.9.4-2.6-.2-.7-.7-1-1.6-1.5-2.4s-1.2-1.6-2.2-1.6c-.5,0-1.1.2-1.6,0-.9-.3-1.2-1.4-1.1-2.4,0-.9.1-2-.6-2.7-.6-.6-1.6-.5-2.5-.5-.9,0-1.9-.4-2-1.3,0-.5.2-.9.5-1.2,1.4-1.5,3.9-1.8,5.7-.7,1.1-2.2,3.6-3.6,6.1-3.4,2.4.2,4.7,2,5.5,4.3,1.7-1.1,4-1.2,5.9-.4,1.9.8,3.3,2.6,3.7,4.5,1.8-.1,3.6.9,4.4,2.5.8,1.6.6,3.7-.5,5.1,1.1,1,2,2.4,1.7,3.9-.2,1.5-1.9,2.6-3.2,2,.4,1.2-.4,2.7-1.6,3.1-1.2.4-2.7-.2-3.2-1.4"/><path class="cls-2" d="M639.4,176.6s0,.6-.7,1.3c-.3.3-.9.6-1.6.6-.7,0-1.4-.3-1.9-.9h.3c-.5.6-1,1.1-1.7,1.5-.4.3-.9.5-1.4.6-.5,0-1,0-1.4-.1-.9-.3-1.6-.9-1.8-1.5-.3-.6-.3-1.2-.3-1.6,0-.4,0-.6,0-.6,0,0,0,.2.1.6,0,.4.1.9.4,1.5.5,1.1,2.6,2,4.2.9.6-.4,1.2-.9,1.6-1.4l.2-.2v.2c.5.5,1.2.8,1.7.8.6,0,1.1-.2,1.4-.4.7-.5.8-1.1.8-1.1Z"/><path class="cls-2" d="M629.1,158.2s-.2,0-.5,0c-.3,0-.8.3-1.3.7h-.1c0,.1,0,0,0,0-.5-1-1.4-2.3-2.9-3.4-.7-.5-1.6-.9-2.6-1.1-1-.2-2.1,0-3.1.3-.8.3-1.5.8-2.1,1.4-.6.6-1,1.3-1.2,2v.2c0,0-.3,0-.3,0-1-.5-2.1-.5-3-.2-.9.3-1.5.9-1.9,1.4-.8,1.1-.7,2-.8,2,0,0,0-.2,0-.6,0-.4.2-.9.6-1.5.4-.6,1-1.2,2-1.6.9-.3,2.1-.4,3.2.1h-.3c.2-.7.6-1.4,1.2-2,.6-.6,1.4-1.1,2.2-1.5,1.1-.4,2.3-.5,3.3-.3,1.1.2,2,.7,2.8,1.2,1.6,1.1,2.4,2.5,2.9,3.6h-.2c.5-.5,1-.7,1.4-.7.4,0,.6,0,.5,0Z"/><path class="cls-13" d="M517.9,291s.7-7.6,4.1-9.7c3.4-2.2,12.6-4,12.6-4l3.6,10.8-6.1,7.7-14.2-4.8Z"/><path class="cls-3" d="M497.7,401.4l.8,23.3s-23.3,8.2-23.6,12.5l45.1.5.2-36.3h-22.6Z"/><path class="cls-12" d="M512.4,422.8c.9.2,1.5,1.2,1.3,2.1-.2.9-1.2,1.5-2.1,1.3-.9-.2-1.7-1.4-1.3-2.3.3-.9,1.5-1.5,2.3-1.1"/><path class="cls-2" d="M520.2,437.7v-2.9s-43.8.4-43.8.4c0,0-1.4.9-1.6,2.2l45.3.3Z"/><path class="cls-2" d="M498.3,424.8c0,.2,1.1.3,2.2,1,1.1.7,1.7,1.7,1.9,1.6.2,0-.1-1.4-1.5-2.2-1.3-.9-2.7-.6-2.6-.4Z"/><path class="cls-2" d="M493.5,426.8c0,.2.9.6,1.7,1.5.8.9,1,1.9,1.2,1.9.2,0,.4-1.3-.6-2.4-.9-1.2-2.3-1.3-2.3-1Z"/><path class="cls-2" d="M490.8,432.5c.2,0,.5-1.1,0-2.3-.6-1.2-1.6-1.7-1.7-1.5-.1.2.5.8,1,1.8.5,1,.5,1.9.8,2Z"/><path class="cls-2" d="M498.7,419.5c0,.2,1.1-.1,2.4,0,1.3,0,2.2.5,2.4.3.1-.2-.8-1-2.3-1.1-1.5,0-2.5.6-2.4.8Z"/><path class="cls-2" d="M497.9,414.4c0,0,.9.2,2.3,0,.7-.1,1.5-.3,2.4-.7.4-.2.9-.4,1.3-.7.2-.1.5-.3.7-.5.2-.2.4-.8.1-1.2-.2-.4-.6-.5-1-.5-.3,0-.6,0-.9.1-.5.1-1,.3-1.4.5-.9.4-1.6.9-2.1,1.4-1.1,1-1.4,1.8-1.3,1.9.1,0,.6-.6,1.7-1.4.5-.4,1.2-.8,2-1.1.4-.2.8-.3,1.3-.4.5-.1.9-.1,1,0,0,0,0,.1,0,.3-.1.1-.3.3-.5.4-.4.3-.8.5-1.2.7-.8.4-1.6.7-2.2.8-1.3.4-2.2.4-2.2.5Z"/><path class="cls-3" d="M478.5,356.2l-11,20.6s-24.2-4.6-26.6-1l38.7,23.1,18.4-31.3-19.6-11.3Z"/><path class="cls-12" d="M480.3,382.1c.6.7.7,1.8,0,2.5-.6.7-1.8.7-2.5,0-.7-.6-.7-2,0-2.6.7-.6,2.1-.6,2.6.2"/><path class="cls-2" d="M479.7,398.9l1.5-2.5-38.1-21.7s-1.7,0-2.5,1.2l39.1,23Z"/><path class="cls-2" d="M467.1,376.7c-.1.2.8.8,1.4,2,.6,1.2.6,2.3.8,2.3.2,0,.6-1.3-.2-2.7-.7-1.4-2-1.9-2.1-1.7Z"/><path class="cls-2" d="M462,376c-.2.2.5,1,.7,2.2.2,1.2-.1,2.2,0,2.3.2.1,1-.9.7-2.4-.2-1.5-1.3-2.2-1.4-2Z"/><path class="cls-2" d="M456.8,379.6c.2.1,1-.7,1.1-2,.1-1.3-.5-2.3-.7-2.2-.2,0,0,1,0,2.1,0,1.1-.5,1.9-.3,2.1Z"/><path class="cls-2" d="M470.2,372.3c0,.2,1,.5,2.1,1.2,1.1.7,1.7,1.5,1.9,1.4.2,0-.2-1.3-1.5-2.1-1.2-.8-2.5-.7-2.5-.5Z"/><path class="cls-3" d="M472,367.5c0,0,.6.6,2,1.1.7.2,1.5.5,2.4.6.5,0,1,0,1.5,0,.2,0,.5,0,.9-.1.3,0,.7-.5.7-1,0-.4-.3-.8-.6-.9-.3-.2-.6-.3-.8-.3-.5-.1-1-.2-1.5-.3-1,0-1.8,0-2.5.1-1.4.3-2.1.9-2.1.9,0,.1.8-.2,2.2-.4.7,0,1.5,0,2.3,0,.4,0,.9.2,1.3.3.5.1.8.3.8.6,0,0,0,.1-.2.2-.2,0-.4,0-.6,0-.5,0-.9,0-1.4,0-.9,0-1.7-.2-2.3-.4-1.3-.3-2.1-.7-2.1-.6Z"/><path class="cls-3" d="M620.2,321.8c0-.5,0-.8,0-.8v.8Z"/><path class="cls-3" d="M621,321.8l-51.8-19.4s-30.6-14.3-41.8-17.4c-11.9-3.3-22.7,5.7-29.3,19.6-4.5,9.4-29.6,68.1-29.6,68.1l19.9,12.9,39.8-71,58.2,37.8s11.5-.2,22.6-.2,12.3-25.9,12-30.4Z"/><polygon class="cls-3" points="620.2 321.8 620.2 321.8 620.2 321.8 620.2 321.8"/><path class="cls-3" d="M494.2,420.9l7.3-80.5s1.3-16.8,11-20.1c9.7-3.3,21-2,21-2l54.2,34.2-55.6,1s-2.8,11.7-3.6,16.8c-1,6-8.2,51.7-8.2,51.7l-26-1Z"/><path class="cls-2" d="M586.4,349.5s0,0-.2-.2c-.2-.1-.4-.3-.8-.5-.7-.4-1.7-1-2.9-1.8-2.6-1.5-6.3-3.8-11-6.6-4.7-2.8-10.4-6.2-16.8-10-3.2-1.9-6.6-3.9-10.2-6-1.8-1.1-3.6-2.1-5.5-3.2-1.9-1.1-3.8-2.2-5.8-3.3h0s0,0,0,0c-2.4,0-4.9-.2-7.5-.2h0s0,0,0,0c-3.2.2-6.5.5-9.8,1.3-.8.2-1.6.4-2.4.7-.8.4-1.5.8-2.3,1.2l-1,.8-.5.4-.5.4-1,.9c-.3.3-.6.7-.9,1-2,2.4-3.4,5.2-4.3,8.1-.9,2.9-1.5,5.8-1.7,8.7-.5,5.8-1,11.4-1.5,16.7-1,10.6-1.8,20.2-2.5,28.3-.7,8-1.3,14.6-1.7,19.1-.2,2.2-.3,4-.4,5.2,0,.6,0,1-.1,1.4,0,.3,0,.5,0,.5,0,0,0-.2,0-.5,0-.3,0-.8.1-1.3.1-1.2.3-2.9.5-5.2.4-4.5,1-11,1.8-19.1.7-8.1,1.6-17.6,2.6-28.3.5-5.3,1-10.9,1.5-16.7.2-2.9.7-5.8,1.6-8.6.9-2.8,2.3-5.6,4.3-7.9.3-.3.5-.7.8-1l.9-.9.5-.4.5-.4,1-.7c.7-.4,1.5-.8,2.2-1.2.8-.3,1.6-.5,2.4-.7,3.2-.8,6.5-1.1,9.7-1.3h0c2.6,0,5.2.2,7.5.2h0c2,1.1,3.9,2.2,5.8,3.2,1.9,1.1,3.7,2.2,5.5,3.2,3.6,2.1,7,4.1,10.2,6,6.4,3.8,12.1,7.1,16.9,9.9,4.7,2.8,8.5,4.9,11.1,6.5,1.3.7,2.3,1.3,3,1.7.3.2.6.3.8.4.2,0,.3.1.3.1Z"/><polygon class="cls-4" points="575.5 281.6 560.6 284.6 547.6 289 569.5 302.5 573.3 294 575.5 281.6"/><path class="cls-4" d="M629.4,217.1s11.9,16.3,7.6,37.5c-4.3,21.2-11.5,62.8-11.8,67.4-.2,3.8-2.2,3.4-2.2,3.4l-53.3-22.3,11.3-45.3,16.8-30.7,2.6-7.9,27.8-7.3,1.1,5.2Z"/><path class="cls-13" d="M571.8,296.3s.8,9.4.9,10.6-1.5,5-1.6,7.1c0,2.1.6,4.2-.3,4.9-.9.7-3.1.1-3.6-1.4s-.1-6.3-.1-6.3l-1.3,4.2-.4,7.9s-.2,1.2-1.6,1.1-2.2-1.3-2.2-1.3c0,0-1.7.3-2.5-1.5,0,0-2.6.7-3.3-3.6,0,0-1.2.3-1.9-.8-.7-1.2-2.1-4-2.1-4,0,0,.3-10.4,1-12.6.7-2.2,7.2-10,7.2-10,0,0,6.8.6,9.5.3l2.1,5.5Z"/><path class="cls-8" d="M562.6,305s-.1.2-.3.6c-.2.4-.4,1-.6,1.8-.5,1.5-1,3.7-1.1,6.1-.1,2.4.1,4.7.4,6.2.2.8.3,1.4.5,1.8.1.4.2.7.2.7,0,0-.2-1-.4-2.5-.3-1.6-.5-3.7-.3-6.2.1-2.4.6-4.6,1-6.1.4-1.5.8-2.5.7-2.5Z"/><path class="cls-8" d="M557.7,304.5s0,.2-.2.6c0,.4-.2,1-.3,1.8-.2,1.5-.5,3.6-.5,6,0,2.4.6,4.5,1.2,5.9.3.7.6,1.3.8,1.6.2.4.4.5.4.5,0,0-.5-.8-1-2.3-.5-1.4-1-3.5-1.1-5.8,0-2.3.2-4.4.3-5.9.2-1.5.3-2.5.2-2.5Z"/><path class="cls-8" d="M555.7,304.2c0,0-.1.7-.3,1.9-.2,1.2-.5,2.9-.6,4.7-.1,1.9,0,3.6.5,4.8.2.6.4,1,.6,1.3.2.3.3.4.3.4,0,0-.3-.7-.7-1.8-.3-1.2-.5-2.8-.4-4.7.1-1.8.4-3.5.5-4.7.1-1.2.1-2,0-2Z"/><g class="cls-7"><path d="M546.8,291s8.8,2.5,14.4,4c5.6,1.5,8.6,1.9,11.6.6s14.5-7.1,17.2-9.2c3.7-2.9,17-12.4,19.3-14.9,4.5-4.8,11-12.4,11-12.4l-51.9,28.4-20.3,1.1-1.3,2.3Z"/></g><path class="cls-4" d="M629.5,238.8c-.2-.9-.8-2.5-1.2-3.2-5-10.6-22.4-4.5-29.7,2-6.6,5.8-31.9,34-31.9,34l-32.8,5.6,3.6,12.2s6.6,1.8,15.1,2.7c11.1,1.1,12.9,1.4,19.1,0,5.7-1.4,24.7-14.5,35.3-22.1,10.5-7.6,24.8-18.7,22.5-31.1Z"/><path class="cls-3" d="M629.5,238.8s0,.2,0,.6c0,.4.1,1,.2,1.7,0,1.5,0,3.9-1.2,6.6-1.1,2.7-3,5.8-5.8,8.9-2.8,3.1-6.3,6.3-10.5,9.5-4.2,3.2-8.9,6.5-14,10.1-5.1,3.5-10.6,7.3-16.6,10.9-1.5.9-3,1.8-4.6,2.7-1.6.8-3.2,1.7-5,2.3-1.8.5-3.6.9-5.5,1-1.9.2-3.8,0-5.7,0-1.9-.1-3.8-.3-5.8-.5-1.9-.2-3.9-.4-5.9-.7-3.9-.5-7.9-1.3-11.8-2.3h-.1s0-.2,0-.2c-.6-2-1.2-4.2-1.9-6.3-.6-2-1.2-3.9-1.7-5.9v-.3c0,0,.2,0,.2,0,11.5-2,22.5-3.9,32.8-5.6h-.1c8.2-9,15.9-17.4,22.9-24.7,1.7-1.8,3.5-3.6,5.1-5.3,1.7-1.7,3.3-3.3,5.1-4.7,3.6-2.7,7.3-4.5,10.9-5.6,3.6-1.1,7-1.5,9.9-1.1,1.5.2,2.8.6,3.9,1.2,1.1.6,2,1.3,2.6,2.1,1.3,1.6,1.8,3.1,2.2,4.1.2.5.3.9.4,1.1,0,.3,0,.4,0,.4,0,0,0-.1-.1-.4,0-.3-.2-.6-.4-1.1-.4-1-.9-2.5-2.2-4-1.3-1.5-3.5-2.9-6.4-3.2-2.9-.4-6.2,0-9.8,1.1-3.5,1.1-7.3,2.9-10.8,5.6-1.7,1.4-3.3,3-5,4.7-1.7,1.7-3.4,3.5-5.1,5.3-7,7.4-14.6,15.8-22.8,24.8h0c0,0,0,0,0,0-10.2,1.8-21.3,3.7-32.8,5.7l.2-.3c.6,1.9,1.2,3.9,1.7,5.9.6,2.2,1.3,4.3,1.9,6.3l-.2-.2c3.9,1,7.9,1.8,11.8,2.3,2,.3,3.9.5,5.8.7,1.9.2,3.8.4,5.7.5,1.9.1,3.8.2,5.6,0,1.8-.2,3.7-.5,5.4-1,1.7-.5,3.3-1.4,4.9-2.2,1.6-.8,3.1-1.7,4.6-2.6,6-3.6,11.5-7.3,16.6-10.9,5.1-3.5,9.8-6.8,14-10,4.2-3.2,7.7-6.4,10.5-9.4,2.8-3.1,4.7-6.1,5.8-8.8,1.1-2.7,1.2-5,1.3-6.5,0-.8-.1-1.3-.2-1.7,0-.4,0-.6,0-.6Z"/><path class="cls-3" d="M628.9,216.7s-.1,0-.3.1c-.3.1-.6.2-.9.4-.9.4-2,.9-3.4,1.5-2.9,1.2-6.9,2.8-11.5,4.3-3.7,1.2-7.1,2.3-9.9,3h.2c-1.1-1.8-1.7-3.4-2-4.6-.2-.6-.3-1.1-.3-1.4,0-.3-.1-.5-.1-.5,0,0,0,.2,0,.5,0,.3.1.8.3,1.4.3,1.2.8,2.9,1.9,4.8h0c0,0,.1,0,.1,0,2.8-.7,6.2-1.7,9.9-3,4.5-1.5,8.6-3.2,11.5-4.4,1.4-.6,2.6-1.2,3.4-1.6.4-.2.7-.3.9-.5.2-.1.3-.2.3-.2Z"/><path class="cls-12" d="M622.9,353h4.8c2.5,0,4.6-1.9,4.9-4.4.9-7.8,2.8-29.5,2.8-29.7l-3.4-.3c0,.2-1.9,21.8-2.8,29.6,0,.8-.8,1.4-1.5,1.4h-4.8v3.4Z"/><path class="cls-3" d="M622.9,353s0,0,0-.2c0-.2,0-.4,0-.7,0-.6,0-1.4,0-2.5h0c.8,0,1.7,0,2.7.1.5,0,1,0,1.6,0,.3,0,.6,0,.9,0,.3,0,.6-.2.8-.4.2-.2.4-.5.5-.9,0-.3,0-.6.1-1,0-.7.1-1.3.2-2,.1-1.4.3-2.9.4-4.5.6-6.3,1.4-13.9,2.2-22.2l-.2.2c.8,0,1.7.1,2.5.2.3,0,.6,0,.9,0l-.2-.2c-1.1,11.5-2,21.9-2.7,29.5-.1,1.9-1.3,3.3-2.6,4-1.3.7-2.7.5-3.7.6-1,0-1.8,0-2.4,0-.3,0-.5,0-.6,0-.1,0-.2,0-.2,0,0,0,0,0,.2,0,.2,0,.4,0,.6,0,.6,0,1.4,0,2.4,0,.5,0,1.1,0,1.8,0,.7,0,1.4-.2,2-.5,1.4-.7,2.6-2.2,2.8-4.1.7-7.5,1.7-17.9,2.9-29.5v-.2s-.2,0-.2,0c-.3,0-.6,0-.9,0-.9,0-1.7-.1-2.5-.2h-.2s0,.2,0,.2c-.8,8.2-1.5,15.9-2.1,22.2-.1,1.6-.3,3.1-.4,4.5,0,.7-.1,1.4-.2,2,0,.3,0,.7,0,1,0,.3-.2.5-.4.7-.2.2-.4.3-.7.4-.3,0-.5,0-.8,0-.6,0-1.1,0-1.6,0-1,0-1.9,0-2.7,0h0s0,0,0,0c0,1.1,0,1.9,0,2.6,0,.3,0,.5,0,.6,0,.1,0,.2,0,.2Z"/><path class="cls-2" d="M546.9,357.2h76.2c2.8,0,5.1-1.9,5.1-4.3h0c0-2.4-2.3-4.3-5.1-4.3h-76.2c-2.8,0-5.1,1.9-5.1,4.3h0c0,2.4,2.3,4.3,5.1,4.3Z"/><path class="cls-2" d="M639.4,321.5l10.4-81.6c.4-2.8-1.6-5.4-4.4-5.8h0c-2.8-.4-5.4,1.6-5.8,4.4l-10.4,81.6c-.4,2.8,1.6,5.4,4.4,5.8h0c2.8.4,5.4-1.6,5.8-4.4Z"/><polygon class="cls-2" points="547.4 354 536 437.3 540.6 437.3 557.5 357.2 547.4 354"/><polygon class="cls-2" points="622.2 354 633.3 437.3 628.7 437.3 612.1 357.2 622.2 354"/><path class="cls-3" d="M546.9,357.2c0,.1,17.3.2,38.6.2s38.6,0,38.6-.2-17.3-.2-38.6-.2-38.6,0-38.6.2Z"/><path class="cls-5" d="M387.8,69.5h54.2c3,0,5.4,2.4,5.4,5.4v48.1c0,2.5-2,4.6-4.6,4.6h-55.9c-2.5,0-4.6-2-4.6-4.6v-48.1c0-3,2.4-5.4,5.4-5.4Z"/><path class="cls-1" d="M387.8,69.5h54.2c3,0,5.4,2.4,5.4,5.4v7.9h-65v-7.9c0-3,2.4-5.4,5.4-5.4Z"/><path class="cls-5" d="M393.1,76.8c0,1.3-1.1,2.4-2.4,2.4s-2.4-1.1-2.4-2.4,1.1-2.4,2.4-2.4,2.4,1.1,2.4,2.4Z"/><path class="cls-5" d="M400.3,76.8c0,1.3-1.1,2.4-2.4,2.4s-2.4-1.1-2.4-2.4,1.1-2.4,2.4-2.4,2.4,1.1,2.4,2.4Z"/><path class="cls-5" d="M407.6,76.8c0,1.3-1.1,2.4-2.4,2.4s-2.4-1.1-2.4-2.4,1.1-2.4,2.4-2.4,2.4,1.1,2.4,2.4Z"/><path class="cls-12" d="M444,127.5s.2,0,.6,0c.4,0,1-.3,1.6-.8.6-.5,1.1-1.4,1.1-2.6,0-1.2,0-2.5,0-4,0-6.1,0-14.8,0-25.7,0-5.4,0-11.4,0-17.7,0-.8,0-1.6,0-2.4,0-.4,0-.8,0-1.2,0-.4-.2-.8-.3-1.1-.3-.7-.9-1.3-1.6-1.7-.4-.2-.7-.3-1.1-.4-.4,0-.8,0-1.2,0-3.4,0-6.9,0-10.5,0-7.2,0-14.7,0-22.5,0-3.9,0-7.9,0-11.9,0-2,0-4,0-6.1,0-1,0-2,0-3.1,0h-1.5c-.5,0-1,0-1.5,0-1,.1-1.9.7-2.5,1.5-.3.4-.5.8-.6,1.3-.1.5-.1,1-.1,1.5,0,2,0,4.1,0,6.1,0,4,0,8,0,11.9,0,7.8,0,15.3,0,22.5,0,1.8,0,3.6,0,5.3,0,.9,0,1.7,0,2.6,0,.4,0,.9,0,1.3,0,.4,0,.8,0,1.2.2.8.7,1.5,1.4,1.9.3.2.7.4,1.1.5.4,0,.8,0,1.2,0,1.6,0,3.3,0,4.9,0,6.4,0,12.3,0,17.7,0,10.8,0,19.6,0,25.7,0,3,0,5.4,0,7,0,.8,0,1.4,0,1.8,0,.4,0,.6,0,.6,0,0,0-.2,0-.6,0-.4,0-1,0-1.8,0-1.6,0-4,0-7,0-6.1,0-14.8,0-25.7,0-5.4,0-11.4,0-17.7,0-1.6,0-3.2,0-4.9,0-.4,0-.8,0-1.3,0-.4,0-.8-.3-1.2-.5-.7-.5-1.3-1.2-1.5-2.1-.1-.4-.1-.9-.1-1.3,0-.4,0-.9,0-1.3,0-.9,0-1.7,0-2.6,0-1.7,0-3.5,0-5.3,0-7.2,0-14.7,0-22.5,0-3.9,0-7.9,0-11.9,0-2,0-4,0-6.1,0-.5,0-1.1.1-1.6.1-.5.4-1,.7-1.4.6-.9,1.6-1.5,2.7-1.6.5,0,1.1,0,1.6,0h1.5c1,0,2.1,0,3.1,0,2,0,4.1,0,6.1,0,4,0,8,0,11.9,0,7.8,0,15.3,0,22.5,0,3.6,0,7.1,0,10.5,0,.4,0,.9,0,1.3,0,.4,0,.8.2,1.2.4.8.4,1.4,1.1,1.7,1.9.2.4.3.8.4,1.2,0,.4,0,.8,0,1.2,0,.8,0,1.6,0,2.4,0,6.4,0,12.3,0,17.7,0,10.8,0,19.6,0,25.7,0,1.5,0,2.9,0,4,0,1.2-.6,2.1-1.2,2.7-.6.5-1.2.7-1.6.8-.2,0-.4,0-.5,0-.1,0-.2,0-.2,0Z"/><rect class="cls-9" x="400.8" y="91.2" width="28.9" height="28.9" rx="4" ry="4"/><path class="cls-1" d="M400.8,111.9v5.4c0,1.5,1.3,2.8,2.8,2.8h23.2c1.6,0,2.8-1.3,2.8-2.8v-8.7l-6.7-6.3c-.8-.7-2-.6-2.7.1l-5.3,6-5.2-2.5c-.9-.4-2.1-.3-2.9.4l-6.2,5.5Z"/><path class="cls-1" d="M416.5,98.9c0,1.4-1.2,2.6-2.6,2.6s-2.6-1.2-2.6-2.6,1.2-2.6,2.6-2.6,2.6,1.2,2.6,2.6Z"/><path class="cls-3" d="M137.9,393.3s-4.8-32.7-4.4-51.8c.4-19,0-40.5,0-40.5h2.2s-1.5,37.8.1,60.6c1.6,22.8,5.9,31.6,5.9,31.6h-3.8"/><path class="cls-2" d="M152.1,264.2c-.4-1.1-1-2.3-2-2.9-1.4-.9-3.2-.5-4.8,0-6.6,2.3-12.5,14.7-15.2,21.2l8.8,29.7c15.9-14.7,18.6-34.1,13.2-48Z"/><path class="cls-3" d="M149.6,262.5s0,.1-.1.4c-.1.3-.3.6-.4,1.1-.4.9-.9,2.3-1.6,4-1.3,3.4-2.9,8.1-4.4,13.4-1.5,5.3-2.5,10.2-3.1,13.7-.3,1.8-.5,3.2-.7,4.2,0,.5-.1.8-.2,1.1,0,.3,0,.4,0,.4,0,0,0-.1,0-.4,0-.3,0-.7.1-1.2.1-1,.3-2.5.6-4.2.6-3.6,1.5-8.5,3-13.8,1.5-5.3,3.2-10,4.5-13.4.7-1.7,1.3-3,1.7-3.9.2-.4.4-.8.5-1.1.1-.2.2-.4.2-.4Z"/><path class="cls-2" d="M135,319.3c-8.2-4.6-13.1-13.1-13.6-22.5-.3-6.6,1.7-13,4-19.2.2-.5.4-1.1.9-1.4.7-.4,1.6,0,2.2.4,6,3.4,9.6,9.9,11.6,16.5,1.3,4.4,2,9.1,1.4,13.6-.6,4.6-3.2,9.5-6.5,12.7"/><path class="cls-3" d="M135,319.3s0-.1,0-.4c0-.3,0-.7,0-1.1,0-1,0-2.4-.1-4.2-.2-3.5-.6-8.4-1.5-13.7-.9-5.3-2-10.1-2.8-13.5-.4-1.7-.7-3.1-1-4.1-.1-.4-.2-.8-.3-1.1,0-.3,0-.4,0-.4,0,0,0,.1.1.4,0,.3.2.6.3,1.1.3,1,.6,2.3,1.1,4,.9,3.4,2,8.2,3,13.5.9,5.3,1.3,10.2,1.4,13.7,0,1.8,0,3.2,0,4.2,0,.5,0,.8,0,1.1,0,.3,0,.4,0,.4Z"/><g class="cls-7"><path d="M135,319.3c-8.2-4.6-13.1-13.1-13.6-22.5-.3-6.6,1.7-13,4-19.2.2-.5.4-1.1.9-1.4.7-.4,1.6,0,2.2.4,6,3.4,9.6,9.9,11.6,16.5,1.3,4.4,2,9.1,1.4,13.6-.6,4.6-3.2,9.5-6.5,12.7"/></g><path class="cls-2" d="M144.3,369.4c8.1,1.8,14.8,7.5,22.6,10.3,5.2,1.8,11,2.5,15.2,6.1-1-2.5-3.3-4.2-5.6-5.6-6.4-4-13.3-7.3-20.5-9.8-3.7-1.3-7.7-2.3-11.4-1.3"/><path class="cls-2" d="M132.6,376.6c-10.2-.2-20.9-8.8-31-9.3,10.6-3.4,25.8-.6,31,9.3"/><path class="cls-2" d="M136.6,352.2c5.2-1.9,10.8-1.9,16.3-1.1,5.4.8,10.7,2.6,15.9,4.3-.5-3.5-3.4-6.2-6.1-8.5-2-1.8-4.1-3.5-6.4-4.9-2.3-1.4-5-2.3-7.6-2.2-3.2.1-6.3,1.8-8.4,4.3-2.1,2.4-3.3,4.9-3.6,8.1"/><path class="cls-2" d="M115.7,341c-6.4-5.5-16.1-4.9-24.5-4.7,12.9,6.2,26.9,14.7,38,23.7.3-5.9-5.4-12-13.5-18.9Z"/><g class="cls-7"><path d="M115.7,341c-6.4-5.5-16.1-4.9-24.5-4.7,12.9,6.2,26.9,14.7,38,23.7.3-5.9-5.4-12-13.5-18.9Z"/></g><path class="cls-2" d="M139.4,333.5c3.2-2.1,6.5-4.2,9.8-5.7,3.4-1.5,6.5-4,9.8-5.7,4.2-2.3,7.9-5.5,11.7-8.3,3.9-2.8,8.1-5.4,12.9-6.1-3.9-.8-7.9-.4-11.7.7-3.8,1-7.4,2.7-11,4.3-5,2.2-10.1,4.6-14.2,8.2-4.1,3.7-7.8,7.3-7.3,12.7"/><path class="cls-3" d="M166.8,376.6s-.1,0-.3-.1c-.2-.1-.5-.3-.9-.5-.8-.4-1.9-1-3.2-1.7-.7-.4-1.4-.7-2.3-1.1-.8-.4-1.7-.8-2.6-1.2-1.9-.8-4-1.6-6.3-2.2-2.3-.6-4.6-.7-6.5-.2-1,.2-1.9.5-2.8.8-.8.3-1.6.7-2.2,1.1-1.3.8-2.2,1.7-2.8,2.3-.6.6-.9,1-.9,1,0,0,0-.1.2-.3.1-.2.3-.5.6-.8.6-.7,1.5-1.6,2.8-2.4.7-.4,1.4-.8,2.3-1.2.8-.4,1.8-.6,2.8-.9,2-.6,4.4-.4,6.7.1,2.3.6,4.4,1.4,6.3,2.2.9.4,1.8.8,2.6,1.2.8.4,1.6.8,2.3,1.2,1.4.7,2.5,1.4,3.2,1.8.3.2.6.4.9.5.2.1.3.2.3.2Z"/><path class="cls-3" d="M125,371.6s.2,0,.6.2c.4.1,1,.4,1.7.7,1.4.7,3.2,1.8,4.9,3.4,1.7,1.6,2.9,3.4,3.6,4.7.4.7.6,1.2.8,1.6.2.4.2.6.2.6,0,0-.4-.8-1.2-2.1-.8-1.3-2-3-3.7-4.6-1.7-1.6-3.4-2.8-4.7-3.5-1.3-.7-2.2-1.1-2.2-1.1Z"/><path class="cls-3" d="M102.5,340.5s.2,0,.4.1c.3.1.7.3,1.2.4.5.2,1.2.4,1.9.7.7.3,1.6.7,2.5,1.1,3.7,1.7,8.5,4.5,13.2,8.4,2.3,2,4.4,4.1,6.2,6.1,1.7,2,3.2,3.9,4.4,5.6,1.2,1.6,2,3,2.6,4,.3.4.5.8.7,1.1.2.3.2.4.2.4,0,0-.1-.1-.3-.4-.2-.2-.4-.6-.8-1.1-.6-.9-1.6-2.3-2.7-3.9-1.2-1.6-2.7-3.5-4.4-5.5-1.8-2-3.9-4-6.2-6-4.7-3.9-9.5-6.8-13.1-8.5-.9-.4-1.7-.8-2.5-1.1-.7-.3-1.4-.5-1.9-.8-.5-.2-.9-.4-1.2-.5-.3-.1-.4-.2-.4-.2Z"/><path class="cls-3" d="M151.8,346.5s-.3,0-.8-.1c-.3,0-.6-.1-.9-.2-.4,0-.8,0-1.2-.1-1.8-.1-4.5,0-7,1.4-1.3.6-2.3,1.5-3.2,2.4-.9.9-1.5,1.7-2,2.5-1,1.6-1.3,2.7-1.4,2.7,0,0,0-.3.2-.8.2-.5.5-1.2,1-2,.5-.8,1.1-1.7,2-2.6.9-.9,2-1.8,3.2-2.4,2.6-1.4,5.3-1.5,7.2-1.3.5,0,.9,0,1.3.2.3,0,.7.2.9.2.5.1.8.2.8.2Z"/><path class="cls-3" d="M162,314.8s-.1,0-.4.2c-.3.2-.7.4-1.1.6-1,.5-2.4,1.3-4.1,2.3-1.7,1-3.7,2.3-5.9,3.8-2.1,1.5-4.4,3.3-6.6,5.5-1,1.1-2,2.2-2.7,3.5-.7,1.3-1.3,2.5-1.9,3.7-1.2,2.4-2.1,4.6-2.8,6.4-.7,1.9-1.1,3.4-1.4,4.5-.3,1.1-.4,1.7-.4,1.7,0,0,0-.2,0-.4,0-.3,0-.7.2-1.3.2-1.1.6-2.7,1.3-4.6.7-1.9,1.6-4.1,2.8-6.5.6-1.2,1.2-2.4,1.9-3.7.7-1.3,1.7-2.5,2.7-3.6,2.2-2.2,4.5-4,6.6-5.5,2.2-1.5,4.2-2.8,6-3.8,1.7-1,3.2-1.7,4.2-2.2.5-.2.9-.4,1.2-.6.3-.1.4-.2.4-.2Z"/><path class="cls-3" d="M133.5,345.6s0-.3-.2-.9c-.1-.6-.3-1.4-.4-2.3-.4-2-1-4.7-1.9-7.6-.9-2.9-2.1-5.5-2.9-7.3-.4-.9-.7-1.6-1-2.2-.2-.5-.3-.8-.3-.8,0,0,.2.3.5.8.3.5.6,1.2,1.1,2.1.9,1.8,2.1,4.4,3,7.3,1,2.9,1.5,5.7,1.8,7.7.2,1,.3,1.8.3,2.4,0,.6,0,.9,0,.9Z"/><path class="cls-2" d="M132.8,322.5c-.3-3.8-1.5-7.6-3.3-11-4.9-9.3-14.2-16.2-24.6-18.3,7.6,11.3,15.2,22.6,22.7,33.9l2.9,6c2-3.3,2.4-6.8,2.2-10.6Z"/><rect class="cls-4" x="112.5" y="389.2" width="52.9" height="9.4"/><polygon class="cls-4" points="116.5 396.8 121.2 430.3 156.3 430.3 161.4 396.8 116.5 396.8"/><path class="cls-3" d="M165.4,398.6c0,.1-11.9.2-26.6.2s-26.6,0-26.6-.2,11.9-.2,26.6-.2,26.6,0,26.6.2Z"/></svg>