<?xml version="1.0" encoding="UTF-8"?><svg id="Layer_1" xmlns="http://www.w3.org/2000/svg" viewBox="0 0 850 470"><defs><style>.cls-1{fill:#ebebeb;}.cls-2{fill:#455b64;}.cls-3{fill:#263238;}.cls-4{fill:#606060;}.cls-5{fill:#3a5fa0;}.cls-6{fill:#fff;}.cls-7{opacity:.6;}.cls-8{opacity:.3;}.cls-9{fill:#ec996f;}.cls-10{fill:#5b4543;}.cls-11{fill:#f5f5f5;}.cls-12{fill:#fafbfb;}.cls-13{fill:#f3725f;}.cls-14{fill:#e0e0e0;}.cls-15{fill:#fbbd9d;}</style></defs><path class="cls-14" d="M191.4,356c-4.5-2.8-9.6-4.6-14.9-5.1-2.4-.2-5.1-.2-7,1.3-.4.3-.8.8-.7,1.3,0,.4.4.6.7.9,6,4.6,15.2,5.2,21.9,1.7"/><path class="cls-14" d="M191,355.6c-3.4-2.6-6.7-5.3-9.6-8.4-2.8-3.2-5.2-6.9-6-11.1-.3-1.3-.3-2.7.5-3.7,7.6,6,13.7,13.7,15.1,23.3"/><path class="cls-14" d="M191.3,355.9c-.6-4.2-.8-8.5.2-12.6,1-4.1,3.2-8,6.7-10.4,1.3,3.1.8,6.6-.2,9.9-1.4,5-3.7,9.7-6.7,14"/><path class="cls-14" d="M198.8,369.4c-4.6.6-8.5,3-11.9,6-3.4,3.1-5.8,7.2-6.8,11.7,4.5-.3,8.3-3.4,11-7,2.7-3.5,4.7-7.4,7.7-10.7"/><path class="cls-14" d="M200.5,371.5c-3.7-9-2.3-19.9,3.4-27.8,2.6,9.2,1.6,19.6-3.4,27.8"/><path class="cls-14" d="M210.4,383.3c-4.1-.3-8.3.7-11.9,2.8-3.6,2.1-6.5,5.2-8.4,8.9-.3.5-.5,1.1-.1,1.6.3.4.9.4,1.3.4,4-.3,7.6-2.7,10.5-5.4,2.9-2.7,5.5-5.9,8.7-8.3"/><path class="cls-14" d="M210.1,382.7c-2.1-6.8-2.3-14.2-.4-21.1.7-2.7,2-5.6,4.5-6.9.2-.1.5-.2.7-.1.2,0,.3.3.4.5.9,1.9,1.2,4,1.1,6.1,0,2.1-.5,4.1-1,6.1-.8,3.8-1.2,7.8-3.3,11-.5.8-.9,1.6-1.3,2.4-.4.8-.4,1.1-.7,1.8"/><path class="cls-14" d="M236.3,386.6c-1.9-7.4.1-16.3,4.8-22.4.3-.4.8-.9,1.4-.9.9,0,1.1,1.2,1,2.1-.3,7.6-2.9,15-7.2,21.2"/><path class="cls-14" d="M238.6,388.2c9,2.3,19.3,0,26.7-5.4-4.4-2.2-9.6-2.9-14.5-1.8-4.8,1.1-9.3,3.3-12.3,7.2"/><path class="cls-14" d="M240.6,383.3c5-8.2,14.7-13.5,24.3-14-1.1,3.9-4.3,6.9-7.9,8.8-3.6,1.8-7.7,2.6-11.7,3.4-1.6.3-3.7.6-4.7,1.9"/><path class="cls-14" d="M236.8,359.4c1.4-4.7,2.7-9.4,3.1-14.2.4-4.8-.3-9.9-2.8-14.1-4.7,9.1-5.2,19.7-.4,28.8"/><path class="cls-14" d="M252.6,351.4c5.5-10,16.7-18,28-19.1-4.4,10.9-16.3,19.3-28,19.1"/><path class="cls-14" d="M249.1,353.4c8.2,1.2,15.2,6.5,22.8,9.7,1.6.7,3.4,1.2,5.2,1,1.8-.2,3.5-1.4,3.9-3.1.3-1.4-.3-3-1.4-4-1-1.1-2.4-1.7-3.7-2.3-8.3-3.5-17.3-3.6-26.1-1.5"/><path class="cls-14" d="M244.4,359.1c1.9.5,2.5,1.5,4,2.7,5,4.2,11,7.3,17.3,8.9.7.2,1.5.2,1.9-.4.3-.5,0-1.2-.4-1.6-2.7-3.3-6.5-5.6-10.5-7.1-4-1.5-7.5-3.3-12.2-2.9"/><path class="cls-14" d="M239,324.4c6.7,6.2,16,9.4,25.1,8.5.4,0,.9-.1,1.1-.4.6-.7-.1-1.7-.9-2.3-7.4-5.8-16.3-8.1-25.4-5.8"/><path class="cls-14" d="M245.4,322.1c8.8-6.6,20.9-8.6,31.3-5.2-3.9,3.9-9.4,6-14.9,6.6-5.5.6-11,0-16.4-1.4"/><path class="cls-14" d="M242.9,306.1c-.7-7.4-.3-13.2-.8-20.6,0-.6-.2-1.3-.7-1.5-.8-.3-1.4.7-1.7,1.4-2.2,6.8-1,14.7,3.1,20.5"/><path class="cls-14" d="M242.3,307c5-3.1,8.7-7.1,12.2-11.9,2.4-3.3,4.4-7.3,3.9-11.3-3.4,0-6.6,1.8-8.8,4.4-2.2,2.6-3.5,5.8-4.5,9-1,3.2-1.7,6.6-2.8,9.8"/><path class="cls-14" d="M254.3,303.6c11-4.1,21.2-10.1,30-17.7-3.6-1.4-7.7-.6-11.3.9-8.2,3.3-14.9,8.9-18.9,16.8"/><path class="cls-14" d="M245.7,311c5.5.6,11.2,1,16.7,0,5.4-.9,10.5-3,15.6-5.2.4-.2.9-.4,1.1-.8.2-.5,0-1-.4-1.3-.4-.3-.9-.5-1.3-.6-5.5-1.5-11.4-.8-16.8,1-5.4,1.8-9.8,4-14.8,6.8"/><path class="cls-14" d="M214,324.7c-3.8-7.6-3.5-16.6-.3-24.4,2.3,3.5,2.6,8,2.2,12.1-.4,4.2-1.7,8.5-1.8,12.7"/><path class="cls-14" d="M198.9,317c-9.4-.2-18.9,3.8-25.3,10.8,4.7.7,9.6-.5,13.9-2.6,4.3-2.1,8.1-5,11.9-8"/><path class="cls-14" d="M188.8,313.6c-4.6-.4-9.1-.9-13.5.4-4.4,1.4-8.5,4.5-10.3,8.7,4.3.5,8.7-.6,12.7-2.4,4-1.8,7.6-4.3,11.1-6.8"/><path class="cls-14" d="M203.8,313.8c-4.2-2.7-8.4-5.5-13.3-6.6-4.8-1.1-10.5-.3-13.8,3.4,3.9,2.3,8.7,2.6,13.2,2.6,4.5,0,10.1,0,14.4,1.5"/><path class="cls-14" d="M203.8,314c-7.1-7-9.8-19.5-6.9-29.1,5.6,8.5,8.1,19,6.9,29.1"/><path class="cls-14" d="M223.4,294.2c1.3-3.1,2.3-6.4,3.5-9.6s2.7-6.3,5-8.8c2.3-2.5,5.4-4.4,8.8-4.6-2.1,9.6-8.5,18.2-17.1,23"/><path class="cls-14" d="M219.8,298.4c-2.2-3.1-4.8-7.2-7.8-9.5-3-2.3-6.9-3.7-10.6-2.8,3.7,6.7,10.8,11.4,18.4,12.3"/><path class="cls-14" d="M220.5,294.5c-1.5-3.7-2.9-7.4-3.5-11.4-.6-3.9-.2-8.1,1.8-11.5,3.9,7.4,5.2,15.3,1.9,23"/><path class="cls-14" d="M223.4,271.6c2.2-7.3,8.9-12.7,16.1-15.2.9-.3,1.9-.6,2.8-.4,1,.1,1.9.8,2.1,1.7.3,1.2-.8,2.4-1.7,3.2-5.6,4.8-12.2,8.5-19.3,10.7"/><path class="cls-14" d="M223.5,265.6c.3-4.7.6-9.5,2.1-14,1.5-4.5,4.5-8.7,8.8-10.6.7,4.8-1.4,9.5-3.9,13.6-2.5,4.1-5.6,8-7.1,12.5"/><path class="cls-14" d="M223.4,268.9c-1.8-5.3-2-12.1-5.2-16.7-2.2-3.2-5.8-5.5-7.7-8.9-1.3,3.2-.9,6.9.4,10.1,1.3,3.2,3.5,5.9,5.9,8.5,2.4,2.5,4.4,4.4,6.6,7.1"/><path class="cls-14" d="M223.4,425.8c-.1,0-.3-35.5-.3-79.4,0-43.9,0-79.4.2-79.4s.3,35.5.3,79.4c0,43.8,0,79.4-.2,79.4Z"/><path class="cls-14" d="M254.5,319.3s-.5.2-1.3.5c-1,.3-2.2.7-3.7,1.2-3.1,1.1-7.4,2.6-12,4.5-4.6,2-8.9,3.6-11.4,5.7-1.2,1.1-1.9,2.2-2.3,3-.4.8-.4,1.3-.5,1.3,0,0,0-.1,0-.4,0-.2.1-.6.3-1,.3-.9,1-2.1,2.2-3.2,1.2-1.1,3-2.1,4.9-3.1,2-.9,4.2-1.9,6.5-2.8,4.6-1.9,8.9-3.4,12.1-4.4,1.6-.5,2.8-.8,3.7-1.1.9-.2,1.4-.3,1.4-.3Z"/><path class="cls-14" d="M264.7,294.3s-.1.2-.4.4c-.3.3-.7.6-1.1,1.1-1.1,1-2.5,2.3-4.3,3.9-3.7,3.3-8.7,7.7-14.2,12.6-5.5,4.9-10.3,9.6-13.6,13.2-1.7,1.8-3,3.2-3.9,4.3-.4.5-.8.9-1,1.2-.2.3-.4.4-.4.4,0,0,0-.2.3-.5.2-.3.5-.7,1-1.2.8-1.1,2.1-2.6,3.7-4.4,3.3-3.6,8-8.4,13.6-13.3,5.6-4.9,10.6-9.3,14.3-12.5,1.8-1.5,3.3-2.8,4.4-3.7.5-.4.9-.7,1.2-1,.3-.2.4-.3.4-.3Z"/><path class="cls-14" d="M238.7,317.3c-.1,0,1-2.7,2.2-6.1,1.2-3.4,1.7-6.2,1.9-6.2.1,0-.2,2.9-1.4,6.4-.6,1.7-1.2,3.2-1.7,4.3-.5,1.1-.9,1.7-.9,1.7Z"/><path class="cls-14" d="M223.4,338.8s-.3-.3-.9-1c-.6-.7-1.3-1.7-2.2-2.8-1.8-2.4-4.4-5.6-7.2-9.2-2.8-3.6-5.5-6.8-7.4-9.1-.9-1.1-1.6-2-2.2-2.8-.5-.7-.8-1-.8-1.1,0,0,.4.3.9.9.6.6,1.4,1.5,2.4,2.7,2,2.3,4.6,5.4,7.5,9,2.8,3.6,5.3,6.9,7.1,9.3.9,1.2,1.6,2.2,2.1,2.9.5.7.7,1.1.7,1.1Z"/><path class="cls-14" d="M216.6,330c0,0-1.9-2.1-2.9-5.3-.7-2.3-.7-4.4-.6-5.4h.2c-.1.4-.2.6-.2.6,0,0,0-.2,0-.7h.2c0,1,.2,3,.9,5.3.9,3.2,2.5,5.4,2.4,5.5Z"/><path class="cls-14" d="M207.8,319c0,0-.7-.7-2-1.2-1.3-.5-3.3-.6-5.5-.4-2.2.2-4.2.6-5.6.9-1.4.3-2.3.6-2.3.5,0,0,.8-.5,2.2-.9,1.4-.4,3.4-.9,5.6-1.1,2.2-.2,4.3,0,5.7.6,1.4.6,1.9,1.5,1.9,1.5Z"/><path class="cls-14" d="M205.8,316.3c0,0-1.2-.5-3.1-1.1-1.9-.6-4.6-1.3-7.6-1.6-3-.2-5.8,0-7.8.4-2,.4-3.2.7-3.2.6,0,0,.3-.2.8-.3.5-.2,1.3-.4,2.3-.6,2-.5,4.8-.8,7.9-.6,3.1.2,5.8,1,7.7,1.7.9.4,1.7.7,2.2,1,.5.3.8.4.7.5Z"/><path class="cls-14" d="M223.4,304.9c-.1,0-1.1-3.4-2.2-7.7-1.1-4.3-1.9-7.8-1.7-7.9.1,0,1.1,3.4,2.2,7.7,1.1,4.3,1.9,7.8,1.7,7.9Z"/><path class="cls-14" d="M223.5,304.9c-.2,0-.8-2.3-2.5-4.6-1.6-2.4-3.7-3.6-3.6-3.7,0,0,.6.2,1.4.7.8.6,1.8,1.5,2.7,2.7,1.7,2.5,2.2,4.9,2,4.9Z"/><path class="cls-14" d="M223.4,406.8c0,0-.2-.9-.6-2.4-.4-1.5-1.1-3.7-2.4-6.2-2.5-5-6.9-11.4-12.6-17.8-2.8-3.2-5.5-6.2-7.9-9.2-2.3-2.9-4.2-5.7-5.6-8.1-1.4-2.4-2.3-4.5-2.8-6-.3-.7-.5-1.3-.6-1.7-.1-.4-.2-.6-.1-.6,0,0,.3.8.9,2.3.6,1.4,1.5,3.5,3,5.9,1.4,2.4,3.3,5.1,5.7,8,2.3,2.9,5.1,5.9,7.9,9.1,5.7,6.4,10.2,12.8,12.5,17.9,1.2,2.5,1.9,4.7,2.2,6.3.2.8.3,1.4.3,1.8,0,.4,0,.6,0,.6Z"/><path class="cls-14" d="M251.5,375.1s-.5.3-1.5.8c-.9.5-2.3,1.3-3.8,2.5-1.5,1.2-3.2,2.7-5,4.6-1.8,1.9-3.6,4-5.4,6.3-3.7,4.6-7.2,8.7-9.2,12-1.1,1.6-1.8,3-2.3,4-.5,1-.8,1.5-.8,1.5,0,0,0-.2.1-.4.1-.3.3-.7.5-1.2.4-1,1.2-2.4,2.2-4.1,2-3.4,5.4-7.5,9.1-12.1,1.9-2.3,3.7-4.5,5.5-6.3,1.8-1.9,3.6-3.4,5.1-4.5,1.6-1.2,3-1.9,3.9-2.4.5-.2.9-.4,1.1-.5.3-.1.4-.2.4-.1Z"/><path class="cls-14" d="M252,385.4c0,0-1.2.2-3.1.5-1.9.2-4.6.6-7.4,1.5-2.8.9-5.1,2.3-6.6,3.5-1.5,1.2-2.2,2.1-2.3,2.1,0,0,.1-.3.5-.7.3-.4.9-1,1.6-1.7,1.5-1.3,3.8-2.7,6.7-3.7,2.9-.9,5.6-1.2,7.5-1.3,1.9-.1,3.1-.2,3.1,0Z"/><path class="cls-14" d="M233.5,391.7c-.2,0,1.2-2.2,2.3-5.1,1-2.9,1.3-5.5,1.4-5.4,0,0,0,.6,0,1.7-.1,1-.4,2.4-.9,3.9-.5,1.5-1.3,2.7-1.8,3.6-.6.9-.9,1.4-1,1.3Z"/><path class="cls-14" d="M260.6,347.5s-.2.1-.5.3c-.4.2-.9.4-1.5.7-.6.3-1.4.6-2.3,1.1-.9.5-1.9.9-3,1.6-.5.3-1.1.6-1.7,1-.6.3-1.2.7-1.8,1.1-1.3.8-2.5,1.7-3.8,2.6-2.6,2-5.4,4.3-8,7.1-2.6,2.7-4.9,5.6-6.8,8.3-.9,1.4-1.8,2.7-2.5,3.9-.4.6-.7,1.2-1.1,1.8-.3.6-.6,1.2-.9,1.7-.6,1.1-1,2.1-1.5,3-.4.9-.8,1.7-1,2.3-.2.6-.5,1.1-.6,1.5-.1.3-.2.5-.2.5,0,0,0-.2.1-.5.1-.4.3-.9.5-1.5.2-.7.5-1.5.9-2.4.4-.9.8-2,1.4-3.1.3-.6.6-1.1.9-1.8.3-.6.7-1.2,1-1.9.7-1.3,1.6-2.6,2.5-4,1.9-2.7,4.2-5.6,6.8-8.3,2.7-2.7,5.5-5.1,8.1-7.1,1.4-1,2.6-1.9,3.9-2.6.6-.4,1.2-.8,1.8-1.1.6-.3,1.2-.6,1.7-.9,1.1-.6,2.1-1.1,3-1.5.9-.4,1.7-.8,2.3-1,.6-.2,1.1-.4,1.5-.6.3-.1.5-.2.5-.2Z"/><path class="cls-14" d="M238.4,362.4s.2-.9,1.2-1.8c1-.9,2.8-1.8,4.9-1.9,2.1,0,3.9.5,5.2,1,1.3.5,2,.9,2,1,0,0-.8-.2-2.1-.6-1.3-.4-3-.9-5-.8-2,0-3.7.8-4.7,1.7-1,.8-1.4,1.6-1.5,1.5Z"/><path class="cls-14" d="M235,365.8c-.1,0,1.1-1.9,1.4-4.5.3-2.6-.5-4.7-.3-4.7,0,0,.3.5.6,1.3.2.9.4,2.1.2,3.5-.2,1.4-.6,2.6-1,3.3-.4.8-.8,1.2-.9,1.2Z"/><path class="cls-14" d="M198.9,411.9c.8,13.6,4.9,27.4,11.2,41.4h27.4c6-13.8,9.8-27.6,10.5-41.4h-49Z"/><path class="cls-12" d="M243.5,433.9c0,.1-9,.3-20.1.3s-20.1-.1-20.1-.3,9-.3,20.1-.3,20.1.1,20.1.3Z"/><path class="cls-12" d="M242.8,438.8c0,.1-8.5.3-18.9.3s-18.9-.1-18.9-.3,8.5-.3,18.9-.3,18.9.1,18.9.3Z"/><path class="cls-12" d="M210.5,420.9c.1,0,.3,2.8.3,6.3s-.1,6.3-.3,6.3-.3-2.8-.3-6.3.1-6.3.3-6.3Z"/><path class="cls-12" d="M225.1,420.9c.1,0,.3,2.9.3,6.5s-.1,6.5-.3,6.5-.3-2.9-.3-6.5.1-6.5.3-6.5Z"/><path class="cls-12" d="M238.9,420.7c.1,0,.3,3,.3,6.7s-.1,6.7-.3,6.7-.3-3-.3-6.7.1-6.7.3-6.7Z"/><path class="cls-12" d="M247,420.9c0,.1-10.6.3-23.6.3s-23.6-.1-23.6-.3,10.6-.3,23.6-.3,23.6.1,23.6.3Z"/><path class="cls-14" d="M633.5,371.9c-3.7-2.4-8-3.8-12.4-4.3-2-.2-4.3-.1-5.9,1.1-.3.3-.7.6-.6,1.1,0,.3.3.5.6.7,5.1,3.9,12.7,4.3,18.3,1.4"/><path class="cls-14" d="M633.2,371.5c-2.8-2.2-5.6-4.4-8-7.1-2.4-2.7-4.3-5.8-5-9.3-.2-1.1-.3-2.3.4-3.1,6.4,5,11.4,11.5,12.7,19.5"/><path class="cls-14" d="M633.5,371.8c-.5-3.5-.7-7.1.1-10.5.8-3.4,2.7-6.7,5.6-8.7,1.1,2.6.6,5.6-.1,8.3-1.2,4.2-3.1,8.2-5.6,11.7"/><path class="cls-14" d="M639.8,383.1c-3.8.5-7.1,2.5-10,5-2.8,2.6-4.9,6-5.7,9.8,3.7-.2,6.9-2.9,9.2-5.8,2.3-3,3.9-6.2,6.4-9"/><path class="cls-14" d="M641.1,384.9c-3.1-7.6-2-16.7,2.8-23.3,2.2,7.7,1.4,16.4-2.8,23.3"/><path class="cls-14" d="M649.4,394.8c-3.5-.2-7,.6-10,2.3-3,1.7-5.5,4.4-7,7.4-.2.4-.4,1-.1,1.3.2.3.7.4,1.1.3,3.3-.2,6.3-2.2,8.8-4.5,2.4-2.3,4.6-4.9,7.3-6.9"/><path class="cls-14" d="M649.1,394.2c-1.8-5.7-1.9-11.9-.3-17.7.6-2.3,1.7-4.7,3.8-5.7.2,0,.4-.2.6-.1.2,0,.3.3.4.4.7,1.6,1,3.3.9,5.1,0,1.7-.4,3.4-.8,5.1-.7,3.1-1,6.5-2.7,9.2-.4.6-.8,1.3-1.1,2-.3.7-.3.9-.6,1.5"/><path class="cls-14" d="M671.1,397.5c-1.6-6.2,0-13.7,4-18.7.3-.4.7-.8,1.1-.7.7,0,.9,1,.9,1.7-.3,6.3-2.4,12.5-6,17.7"/><path class="cls-14" d="M673.1,398.8c7.5,2,16.1,0,22.4-4.6-3.7-1.9-8.1-2.4-12.1-1.5-4,.9-7.7,2.7-10.3,6"/><path class="cls-14" d="M674.7,394.7c4.2-6.9,12.3-11.3,20.3-11.7-.9,3.3-3.6,5.8-6.6,7.3-3,1.5-6.4,2.2-9.7,2.9-1.3.3-3.1.5-3.9,1.5"/><path class="cls-14" d="M671.5,374.7c1.1-3.9,2.3-7.8,2.6-11.9.3-4.1-.3-8.3-2.4-11.8-3.9,7.6-4.3,16.5-.3,24.1"/><path class="cls-14" d="M684.7,368.1c4.6-8.4,14-15,23.5-16-3.7,9.1-13.6,16.2-23.5,16"/><path class="cls-14" d="M681.8,369.7c6.9,1,12.7,5.4,19.1,8.1,1.4.6,2.8,1,4.3.8,1.5-.2,2.9-1.2,3.3-2.6.3-1.2-.3-2.5-1.1-3.4-.9-.9-2-1.4-3.1-1.9-7-2.9-14.5-3-21.8-1.2"/><path class="cls-14" d="M677.9,374.5c1.6.4,2.1,1.2,3.3,2.3,4.2,3.6,9.2,6.1,14.5,7.4.6.1,1.3.2,1.6-.3.2-.4,0-1-.4-1.4-2.2-2.8-5.4-4.7-8.7-5.9-3.3-1.2-6.2-2.7-10.2-2.4"/><path class="cls-14" d="M673.4,345.5c5.6,5.2,13.4,7.9,21,7.1.3,0,.7,0,1-.3.5-.6-.1-1.5-.7-1.9-6.2-4.8-13.7-6.8-21.2-4.9"/><path class="cls-14" d="M678.7,343.5c7.4-5.5,17.5-7.2,26.2-4.3-3.3,3.3-7.9,5-12.5,5.5-4.6.5-9.2,0-13.7-1.2"/><path class="cls-14" d="M676.6,330.2c-.6-6.2-.2-11-.6-17.2,0-.5-.1-1.1-.6-1.3-.6-.2-1.2.5-1.4,1.2-1.8,5.7-.8,12.3,2.6,17.2"/><path class="cls-14" d="M676.2,330.9c4.2-2.6,7.3-6,10.2-9.9,2-2.8,3.7-6.1,3.3-9.5-2.8,0-5.5,1.5-7.4,3.7-1.8,2.2-2.9,4.8-3.8,7.6-.8,2.7-1.4,5.5-2.4,8.2"/><path class="cls-14" d="M686.2,328.1c9.2-3.4,17.7-8.4,25.1-14.8-3-1.2-6.4-.5-9.4.7-6.9,2.8-12.5,7.4-15.8,14"/><path class="cls-14" d="M679,334.2c4.6.5,9.4.8,14,0,4.5-.8,8.8-2.6,13-4.3.4-.1.7-.3.9-.7.2-.4,0-.8-.3-1.1-.3-.3-.7-.4-1.1-.5-4.6-1.3-9.6-.7-14.1.8-4.5,1.5-8.2,3.3-12.4,5.7"/><path class="cls-14" d="M652.5,345.7c-3.2-6.4-3-13.8-.2-20.4,1.9,2.9,2.2,6.7,1.8,10.2s-1.4,7.1-1.5,10.6"/><path class="cls-14" d="M639.8,339.3c-7.9-.2-15.8,3.2-21.2,9,3.9.6,8-.4,11.6-2.2,3.6-1.8,6.8-4.2,9.9-6.7"/><path class="cls-14" d="M631.3,336.5c-3.9-.3-7.6-.8-11.3.3-3.7,1.1-7.1,3.7-8.6,7.3,3.6.4,7.3-.5,10.6-2,3.3-1.5,6.3-3.6,9.3-5.7"/><path class="cls-14" d="M643.9,336.6c-3.5-2.3-7.1-4.6-11.1-5.5-4.1-.9-8.7-.2-11.6,2.8,3.3,1.9,7.3,2.2,11.1,2.1,3.8,0,8.5,0,12,1.2"/><path class="cls-14" d="M643.9,336.8c-5.9-5.8-8.2-16.3-5.8-24.3,4.7,7.1,6.8,15.9,5.8,24.3"/><path class="cls-14" d="M660.3,320.2c1.1-2.6,1.9-5.3,2.9-8,1-2.7,2.3-5.3,4.2-7.4,1.9-2.1,4.5-3.7,7.4-3.8-1.8,8-7.1,15.2-14.3,19.2"/><path class="cls-14" d="M657.3,323.7c-1.9-2.6-4-6-6.5-7.9-2.5-1.9-5.8-3.1-8.9-2.3,3.1,5.6,9,9.5,15.4,10.3"/><path class="cls-14" d="M657.9,320.4c-1.2-3.1-2.4-6.2-2.9-9.5-.5-3.3-.2-6.8,1.5-9.7,3.3,6.2,4.3,12.8,1.6,19.2"/><path class="cls-14" d="M660.3,301.3c1.8-6.1,7.5-10.6,13.5-12.7.8-.3,1.6-.5,2.4-.4.8.1,1.6.7,1.7,1.5.2,1-.6,2-1.4,2.7-4.7,4-10.2,7.1-16.2,8.9"/><path class="cls-14" d="M660.4,296.3c.2-3.9.5-7.9,1.8-11.7,1.3-3.7,3.8-7.2,7.4-8.9.6,4-1.1,7.9-3.3,11.4-2.1,3.4-4.7,6.7-5.9,10.5"/><path class="cls-14" d="M660.3,299c-1.5-4.5-1.7-10.1-4.4-14-1.9-2.7-4.9-4.6-6.5-7.4-1.1,2.7-.7,5.8.4,8.4,1.1,2.7,3,5,4.9,7.1,2,2.1,3.7,3.7,5.5,5.9"/><path class="cls-14" d="M660.3,430.3c-.1,0-.2-29.7-.2-66.4,0-36.7,0-66.4.2-66.4s.2,29.7.2,66.4c0,36.7,0,66.4-.2,66.4Z"/><path class="cls-14" d="M686.3,341.2s-.4.2-1.1.4c-.8.3-1.8.6-3.1,1-2.6.9-6.2,2.2-10,3.7-3.8,1.6-7.4,3-9.5,4.8-1,.9-1.6,1.8-1.9,2.5-.3.7-.3,1.1-.4,1.1,0,0,0-.1,0-.3,0-.2,0-.5.2-.9.3-.7.8-1.8,1.9-2.7,1-.9,2.5-1.8,4.1-2.6,1.6-.8,3.5-1.6,5.4-2.4,3.9-1.6,7.5-2.8,10.1-3.6,1.3-.4,2.4-.7,3.1-.9.7-.2,1.2-.3,1.2-.3Z"/><path class="cls-14" d="M694.8,320.3s0,.1-.3.3c-.3.2-.6.5-1,.9-.9.8-2.1,1.9-3.6,3.2-3.1,2.7-7.2,6.5-11.9,10.6-4.6,4.1-8.6,8.1-11.4,11-1.4,1.5-2.5,2.7-3.2,3.6-.3.4-.6.7-.9,1-.2.2-.3.3-.3.3,0,0,0-.1.3-.4.2-.2.4-.6.8-1,.7-.9,1.8-2.2,3.1-3.7,2.7-3,6.7-7,11.3-11.1,4.6-4.1,8.9-7.8,11.9-10.5,1.5-1.3,2.7-2.4,3.7-3.1.4-.3.7-.6,1-.8.2-.2.4-.3.4-.3Z"/><path class="cls-14" d="M673.1,339.5c-.1,0,.8-2.3,1.8-5.1,1-2.8,1.4-5.2,1.6-5.2.1,0-.2,2.5-1.1,5.3-.5,1.4-1,2.7-1.4,3.6-.4.9-.7,1.4-.8,1.4Z"/><path class="cls-14" d="M660.3,357.5s-.3-.3-.7-.8c-.5-.6-1.1-1.4-1.8-2.3-1.5-2-3.7-4.7-6-7.7-2.4-3-4.6-5.7-6.2-7.6-.7-.9-1.4-1.7-1.9-2.3-.4-.5-.7-.9-.6-.9,0,0,.3.3.8.8.5.5,1.2,1.3,2,2.2,1.6,1.9,3.9,4.6,6.3,7.6,2.4,3,4.5,5.8,5.9,7.8.7,1,1.3,1.8,1.7,2.4.4.6.6.9.6.9Z"/><path class="cls-14" d="M654.6,350.2c0,0-1.6-1.7-2.4-4.5-.6-1.9-.6-3.7-.5-4.5h.2c0,.4-.1.5-.2.5,0,0,0-.2,0-.6h.2c0,.8.2,2.5.8,4.4.8,2.7,2.1,4.5,2,4.6Z"/><path class="cls-14" d="M647.3,340.9c0,0-.5-.6-1.7-1-1.1-.4-2.8-.5-4.6-.4-1.8.1-3.5.5-4.7.8-1.2.3-1.9.5-1.9.5,0,0,.7-.4,1.8-.8,1.2-.4,2.8-.8,4.7-.9,1.9-.2,3.6,0,4.8.5,1.2.5,1.6,1.2,1.6,1.3Z"/><path class="cls-14" d="M645.5,338.7c0,0-1-.4-2.6-.9-1.6-.5-3.8-1.1-6.4-1.3-2.5-.2-4.9,0-6.5.3-1.6.3-2.6.6-2.7.5,0,0,.2-.1.7-.3.4-.2,1.1-.4,1.9-.5,1.6-.4,4-.7,6.6-.5,2.6.2,4.9.8,6.4,1.5.8.3,1.4.6,1.8.8.4.2.6.4.6.4Z"/><path class="cls-14" d="M660.3,329.2c-.1,0-.9-2.9-1.9-6.5-.9-3.6-1.6-6.5-1.4-6.6.1,0,.9,2.9,1.9,6.5.9,3.6,1.6,6.5,1.4,6.6Z"/><path class="cls-14" d="M660.4,329.2c-.1,0-.7-1.9-2.1-3.9-1.4-2-3.1-3-3-3.1,0,0,.5.1,1.2.6.7.5,1.5,1.3,2.2,2.3,1.5,2.1,1.8,4.1,1.7,4.1Z"/><path class="cls-14" d="M660.3,414.4s-.1-.7-.5-2c-.3-1.3-1-3.1-2-5.1-2.1-4.2-5.8-9.5-10.5-14.9-2.4-2.7-4.6-5.2-6.6-7.7-1.9-2.4-3.5-4.7-4.7-6.8-1.2-2-1.9-3.8-2.4-5-.2-.6-.4-1.1-.5-1.4,0-.3-.1-.5-.1-.5,0,0,.3.7.7,1.9.5,1.2,1.3,2.9,2.5,4.9,1.2,2,2.8,4.3,4.7,6.7,1.9,2.4,4.2,4.9,6.6,7.6,4.8,5.3,8.5,10.7,10.5,15,1,2.1,1.6,4,1.9,5.2.1.6.2,1.1.3,1.5,0,.3,0,.5,0,.5Z"/><path class="cls-14" d="M683.8,387.9s-.4.3-1.2.7c-.8.4-1.9,1.1-3.2,2.1-1.3,1-2.7,2.3-4.2,3.8-1.5,1.6-3,3.4-4.5,5.3-3.1,3.9-6,7.3-7.7,10.1-.9,1.4-1.5,2.5-1.9,3.3-.4.8-.6,1.3-.7,1.2,0,0,0-.1.1-.3,0-.2.2-.6.4-1,.4-.8,1-2,1.8-3.4,1.7-2.8,4.6-6.3,7.6-10.2,1.6-1.9,3.1-3.7,4.6-5.3,1.5-1.5,3-2.8,4.3-3.8,1.3-1,2.5-1.6,3.3-2,.4-.2.7-.3,1-.4.2,0,.3-.1.3-.1Z"/><path class="cls-14" d="M684.3,396.5c0,0-1,.2-2.6.4-1.6.2-3.8.5-6.2,1.2-2.3.8-4.3,1.9-5.5,2.9-1.3,1-1.9,1.8-1.9,1.8,0,0,.1-.2.4-.6.3-.4.7-.9,1.4-1.4,1.2-1.1,3.2-2.3,5.6-3.1,2.4-.8,4.7-1,6.3-1.1,1.6-.1,2.6-.1,2.6,0Z"/><path class="cls-14" d="M668.8,401.8c-.1,0,1-1.9,1.9-4.3.9-2.4,1.1-4.6,1.2-4.5,0,0,0,.5,0,1.4-.1.9-.3,2-.8,3.3-.5,1.2-1.1,2.3-1.5,3-.5.7-.8,1.1-.8,1.1Z"/><path class="cls-14" d="M691.4,364.8s-.1,0-.4.2c-.3.1-.7.3-1.2.6-.5.2-1.2.5-1.9.9-.7.4-1.6.8-2.5,1.3-.5.3-.9.5-1.4.8-.5.3-1,.6-1.5.9-1,.6-2.1,1.4-3.2,2.2-2.2,1.7-4.5,3.6-6.7,5.9-2.2,2.3-4.1,4.7-5.7,6.9-.8,1.1-1.5,2.2-2.1,3.3-.3.5-.6,1-.9,1.5-.3.5-.5,1-.8,1.4-.5.9-.9,1.8-1.2,2.5-.4.7-.6,1.4-.8,1.9-.2.5-.4.9-.5,1.2-.1.3-.2.4-.2.4,0,0,0-.2.1-.5.1-.3.3-.8.4-1.3.2-.6.4-1.2.8-2,.3-.8.7-1.6,1.2-2.6.2-.5.5-1,.7-1.5.3-.5.6-1,.9-1.6.6-1.1,1.3-2.2,2.1-3.3,1.6-2.3,3.5-4.7,5.7-7,2.2-2.3,4.6-4.3,6.8-5.9,1.1-.8,2.2-1.6,3.3-2.2.5-.3,1-.7,1.5-.9.5-.3,1-.5,1.4-.8.9-.5,1.8-.9,2.5-1.3.7-.4,1.4-.6,2-.8.5-.2.9-.4,1.3-.5.3-.1.4-.2.4-.1Z"/><path class="cls-14" d="M672.8,377.2s.2-.7,1-1.5c.8-.8,2.4-1.5,4.1-1.6,1.8,0,3.3.4,4.3.8,1,.4,1.7.7,1.6.8,0,0-.7-.2-1.7-.5-1.1-.3-2.6-.7-4.2-.7-1.7,0-3.1.7-3.9,1.4-.9.7-1.2,1.3-1.2,1.3Z"/><path class="cls-14" d="M670,380.1c-.1,0,.9-1.6,1.2-3.8.3-2.2-.4-3.9-.3-4,0,0,.3.4.5,1.1.2.7.3,1.8.2,2.9-.1,1.1-.5,2.1-.9,2.8-.4.7-.7,1-.7,1Z"/><path class="cls-14" d="M639.8,418.7c.6,11.4,4.1,22.9,9.3,34.6h22.9c5-11.6,8.2-23.1,8.8-34.6h-41Z"/><path class="cls-12" d="M677.1,437.1c0,.1-7.5.2-16.8.2s-16.8,0-16.8-.2,7.5-.2,16.8-.2,16.8,0,16.8.2Z"/><path class="cls-12" d="M676.6,441.2c0,.1-7.1.2-15.8.2s-15.8,0-15.8-.2,7.1-.2,15.8-.2,15.8,0,15.8.2Z"/><path class="cls-12" d="M649.5,426.2c.1,0,.2,2.4.2,5.3s0,5.3-.2,5.3-.2-2.4-.2-5.3,0-5.3.2-5.3Z"/><path class="cls-12" d="M661.8,426.2c.1,0,.2,2.4.2,5.5s0,5.5-.2,5.5-.2-2.4-.2-5.5,0-5.5.2-5.5Z"/><path class="cls-12" d="M673.3,426.1c.1,0,.2,2.5.2,5.6s0,5.6-.2,5.6-.2-2.5-.2-5.6,0-5.6.2-5.6Z"/><path class="cls-12" d="M680.1,426.2c0,.1-8.8.2-19.8.2s-19.8,0-19.8-.2,8.8-.2,19.8-.2,19.8,0,19.8.2Z"/><rect class="cls-14" x="127.8" y="22.4" width="87.6" height="91.3"/><rect class="cls-12" x="121.9" y="22.4" width="87.6" height="91.3"/><path class="cls-14" d="M209.6,113.7h-87.7V22.3h87.7v91.4ZM121.9,113.7h87.6V22.4h-87.6v91.3Z"/><rect class="cls-6" x="133.7" y="34.6" width="64.1" height="66.8"/><path class="cls-14" d="M133.7,101.9c0,0-.6.8-1.6,1.8-1,1.1-2.5,2.5-4.1,4.1-1.6,1.6-3.1,3-4.2,4-1.1,1-1.8,1.6-1.9,1.5,0,0,.5-.8,1.6-1.8,1-1.1,2.5-2.5,4.1-4.1,1.6-1.6,3.1-3,4.2-4,1.1-1,1.8-1.6,1.8-1.5Z"/><path class="cls-14" d="M197.8,101.7c0,0,.8.6,1.8,1.6,1.1,1,2.5,2.5,4.1,4.1,1.6,1.6,3,3.1,4,4.2,1,1.1,1.6,1.8,1.5,1.9,0,0-.8-.5-1.8-1.6-1.1-1-2.5-2.5-4.1-4.1-1.6-1.6-3-3.1-4-4.2-1-1.1-1.6-1.8-1.5-1.8Z"/><path class="cls-14" d="M197.6,34.8c0,0,.6-.8,1.6-1.8,1-1.1,2.5-2.5,4.1-4.1,1.6-1.6,3.1-3,4.2-4,1.1-1,1.8-1.6,1.9-1.5,0,0-.5.8-1.6,1.8-1,1.1-2.5,2.5-4.1,4.1-1.6,1.6-3.1,3-4.2,4-1.1,1-1.8,1.6-1.8,1.5Z"/><path class="cls-14" d="M133.5,35c0,0-.8-.6-1.8-1.6-1.1-1-2.5-2.5-4.1-4.1-1.6-1.6-3-3.1-4-4.2-1-1.1-1.6-1.8-1.5-1.9,0,0,.8.5,1.8,1.6,1.1,1,2.5,2.5,4.1,4.1,1.6,1.6,3,3.1,4,4.2,1,1.1,1.6,1.8,1.5,1.8Z"/><path class="cls-14" d="M197.6,101.4s0-.1,0-.3c0-.2,0-.5,0-.9,0-.8,0-2,0-3.6,0-3.2,0-7.8,0-13.6,0-11.7,0-28.4-.1-48.3l.2.2c-18.7,0-40.6,0-63.9,0h0l.3-.3c0,24.5,0,47.4,0,66.8l-.2-.2c19.1,0,35.1,0,46.3.1,5.6,0,10,0,13,0,1.5,0,2.6,0,3.4,0,.4,0,.7,0,.9,0,.2,0,.3,0,.3,0,0,0,0,0-.3,0-.2,0-.5,0-.9,0-.8,0-1.9,0-3.4,0-3,0-7.4,0-12.9,0-11.2,0-27.2,0-46.4.1h-.2s0-.2,0-.2c0-19.3,0-42.3,0-66.8v-.3s.3,0,.3,0h0c23.3,0,45.2,0,63.9,0h.2v.2c0,20,0,36.7-.1,48.5,0,5.8,0,10.4,0,13.6,0,1.5,0,2.7,0,3.6,0,.4,0,.7,0,.9,0,.2,0,.3,0,.3Z"/><rect class="cls-1" x="155" y="57.4" width="21.4" height="21.4"/><path class="cls-11" d="M316.9,445.2c-1.3-1.1-4.3-4.7-2-8.9.8-1.5,2.6-2.3,4.2-3,1.6-.7,3.3-1.3,4.6-2.4,2.5-2.1,3.2-5.7,4.9-8.5,1.9-3.3,5.5-5.7,9.2-5.5,4.3.2,7.9,3.7,9.5,7.7,1.6,4,1.7,8.5,1.7,12.8,0,2.4,0,5.1-1.8,6.7-1.6,1.5-4.1,1.5-6.3,1.4-7.9-.2-15.7-.5-23.6-.7"/><path class="cls-14" d="M361.9,380.4h-62l11.2,66.6c.5,2.9,2.6,5.1,5.3,5.9,0,0,.1,0,.2,0,.2,0,.4.1.6.1.4,0,.8.1,1.3.1,0,0,0,0,0,0h.3s0,0,0,0h27.6c.5,0,1,0,1.5-.2,3.3-.5,5.9-3.1,6.3-6.5l5.4-45.9.2-1.8h0l2.1-18.2v-.3ZM350.2,422.8h-6.4l.6-19.3h7.4l-1.7,19.3ZM352.5,403.5h6.1l-2.3,19.3h-5.5l1.7-19.3ZM334.3,444.2l-.4-16.8h9.2l-.6,16.8h-8.2ZM324.4,427.5h8.9l.4,16.8h-8l-1.3-16.8ZM325.1,444.2h-7.5c-.7-4.5-1.6-10.4-2.6-16.8h8.8l1.3,16.8ZM324.1,422.8l-1.5-19.3h10.2l.4,19.3h-9.2ZM333.8,422.8l-.4-19.3h10.5l-.6,19.3h-9.4ZM333.3,398.9l-.4-17.9h11.8l-.6,17.9h-10.8ZM332.7,398.9h-10.5l-1.4-17.9h11.4l.4,17.9ZM321.6,398.9h-11.1c-.4-2.5-.8-4.8-1.1-6.9-1.2-7.2-1.6-10-1.8-11h12.6l1.4,17.9ZM322,403.5l1.5,19.3h-9.2c-.3-2-.6-3.9-.9-5.9-.7-4.6-1.4-9.1-2.1-13.4h10.7ZM313.7,422.8h-6l-3.2-19.3h6.2c.9,6,2,12.6,3,19.3ZM314.4,427.5c.9,5.8,1.8,11.5,2.6,16.8h-5.7l-2.8-16.8h5.9ZM343.2,444.2l.6-16.8h6.1l-1.4,16.8h-5.2ZM344.7,398.9l.6-17.9h8.5l-1.5,17.9h-7.6ZM307,381c.2,1.3,1.4,8.3,2.9,17.9h-6.2l-3-17.9h6.3ZM353.8,444.2h-4.8l1.4-16.8h5.3l-2,16.8ZM359.1,398.9h-6.2l1.5-17.9h6.8l-2.1,17.9Z"/><rect class="cls-14" x="650.4" y="23.3" width="102.5" height="169.6"/><rect class="cls-1" x="647" y="23.3" width="102.5" height="169.6"/><rect class="cls-6" x="651.3" y="26.8" width="93.7" height="162.7"/><rect class="cls-1" x="669.2" y="47.9" width="57.6" height="120.4"/><path class="cls-14" d="M669.2,125.7c-.1-11.3,10-22.2,21.1-23.8,5.3-.7,11,.3,15.9-1.7,8.9-3.6,11.7-15.4,20.6-18.9l.4,87h-58v-42.6Z"/><rect class="cls-14" x="383.7" y="258.6" width="11.4" height="194.4"/><polyline class="cls-14" points="389.2 422.2 388 418.7 361.4 454.2 364.9 454.2"/><polygon class="cls-14" points="390.8 418.7 417.4 454.2 413.9 454.2 389.6 422.2 390.8 418.7"/><path class="cls-3" d="M779,453.4c0,.1-155.9.3-348.2.3s-348.3-.1-348.3-.3,155.9-.3,348.3-.3,348.2.1,348.2.3Z"/><rect class="cls-12" x="251.2" y="33.3" width="332.9" height="230.8"/><path class="cls-3" d="M584,264.1c0-1.6,0-91.7-.2-230.8l.2.2c-95.3,0-209.8,0-332.8,0h0l.3-.2c0,83.6,0,162.4,0,230.8l-.2-.2c198.2.1,330.7.2,332.9.2-2.1,0-134.7,0-332.9.2h-.2s0-.2,0-.2c0-68.4,0-147.3,0-230.8v-.2h.3c123,0,237.5,0,332.8,0h.2s0,.2,0,.2c-.1,139.1-.2,229.2-.2,230.8Z"/><path class="cls-2" d="M300.1,245.4c-7.3,0-13.2-5.9-13.2-13.2V80.2c0-7.3,5.9-13.2,13.2-13.2h60.6c7.3,0,13.2,6,13.2,13.2v152c0,7.3-5.9,13.2-13.2,13.2"/><path class="cls-6" d="M300.2,239.2c-5.1,0-9.2-4.1-9.2-9.3V81.6c0-5.1,4.2-9.3,9.3-9.2h10.3s4.1,0,4.1,0h34.3s11.8,0,11.8,0c5.1,0,9.2,4.1,9.2,9.3v148.4c0,5.1-4.2,9.3-9.3,9.2"/><rect class="cls-2" x="285.3" y="88.3" width="3.3" height="19.7" rx=".6" ry=".6"/><rect class="cls-2" x="285.3" y="111.6" width="3.3" height="19.7" rx=".6" ry=".6"/><rect class="cls-2" x="372.3" y="104.4" width="3.3" height="34.1" rx=".6" ry=".6"/><rect class="cls-13" x="431.9" y="88.6" width="95.8" height="13" rx="2.6" ry="2.6"/><rect class="cls-14" x="410.2" y="122.2" width="63.3" height="6.5" rx="1.3" ry="1.3"/><rect class="cls-14" x="485.2" y="122.2" width="63.3" height="6.5" rx="1.3" ry="1.3"/><rect class="cls-14" x="411.2" y="216.2" width="26.3" height="6.5" rx="1.3" ry="1.3"/><rect class="cls-14" x="467.1" y="214.9" width="26.3" height="6.5" rx="1.3" ry="1.3"/><rect class="cls-14" x="518.6" y="215.3" width="26.3" height="6.5" rx="1.3" ry="1.3"/><rect class="cls-14" x="411.2" y="150.9" width="63.3" height="6.5" rx="1.3" ry="1.3"/><rect class="cls-14" x="410.8" y="136.4" width="136.5" height="6.5" rx="1.3" ry="1.3"/><circle class="cls-14" cx="424.4" cy="191.2" r="12.5" transform="translate(-21 326.6) rotate(-41.2)"/><circle class="cls-14" cx="478.6" cy="189.8" r="12.5" transform="translate(5.9 394) rotate(-45)"/><circle class="cls-14" cx="532.4" cy="190.3" r="12.5" transform="translate(224.3 664.3) rotate(-76.6)"/><polygon class="cls-13" points="330.4 132.5 316.7 138.4 316.7 154.2 330.4 160.6 344.1 154.8 344.1 138.1 330.4 132.5"/><polygon class="cls-6" points="330.4 144.8 316.5 138.9 316.9 137.9 330.4 143.7 343.9 137.6 344.3 138.5 330.4 144.8"/><rect class="cls-6" x="329.9" y="144.3" width="1" height="16.3"/><rect class="cls-13" x="316.7" y="169.2" width="27.4" height="8" rx="1.6" ry="1.6"/><path class="cls-3" d="M587.7,38.8H247.5c-3.1,0-5.7-2.5-5.7-5.7h0c0-3.1,2.5-5.7,5.7-5.7h340.2c3.1,0,5.7,2.5,5.7,5.7h0c0,3.1-2.5,5.7-5.7,5.7Z"/><path class="cls-6" d="M736,119.4l2.4-7.3c-2.4-3.7-3.9-8-4.1-12.8-.5-13.6,10.1-25,23.7-25.5,13.6-.5,25,10.1,25.5,23.7.5,13.6-10.1,25-23.7,25.5-5.7.2-11-1.5-15.3-4.6h0s-8.6,1-8.6,1Z"/><path class="cls-3" d="M736,119.4s.2,0,.6,0c.4,0,.9-.1,1.7-.2,1.5-.2,3.6-.4,6.4-.8h0c0,.1,0,.1,0,.1,0,0,0,0,0-.1,0,0,0,0,0,0,2.6,1.9,6.4,3.8,11.3,4.4,1.2.1,2.5.2,3.8.2,1.3-.1,2.7-.2,4-.5,2.7-.6,5.6-1.6,8.2-3.3,2.6-1.7,5.1-3.9,7-6.7,1.9-2.8,3.4-6,4-9.6,1.4-7.1-.7-15.3-6.2-21.1-2.8-2.9-6.2-5.2-9.9-6.4-3.7-1.3-7.5-1.6-11.2-1.2-3.7.4-7.1,1.8-10,3.6-2.9,1.8-5.3,4.2-7.1,6.8-1.8,2.6-3,5.4-3.6,8.2,0,.3-.2.7-.2,1,0,.3-.2.7-.2,1,0,.7-.2,1.3-.2,2,0,1.3,0,2.6,0,3.8.4,4.9,2.2,8.8,4,11.4,0,0,0,0,0,0-.8,2.4-1.4,4.2-1.8,5.4-.2.6-.4,1.1-.5,1.4-.1.3-.2.5-.2.5,0,0,0-.2.1-.5.1-.3.3-.8.4-1.4.4-1.3,1-3.1,1.8-5.5h0c-1.8-2.6-3.6-6.4-4.1-11.4-.1-1.2,0-2.5,0-3.9,0-.7.2-1.3.2-2,0-.3,0-.7.2-1,0-.3.1-.7.2-1,.7-2.8,1.8-5.6,3.6-8.3,1.8-2.6,4.2-5.1,7.1-6.9,2.9-1.9,6.4-3.2,10.1-3.7,3.7-.5,7.6-.1,11.4,1.2,3.7,1.2,7.2,3.6,10,6.5.4.3.7.7,1,1.1l.9,1.2.8,1.2c.3.4.5.8.8,1.3.2.4.5.9.7,1.3.2.4.4.9.6,1.3.2.5.4.9.5,1.4.1.5.3.9.4,1.4,1,3.7,1.2,7.6.5,11.2-.7,3.6-2.1,6.9-4.1,9.7-2,2.8-4.4,5.1-7.1,6.7-2.7,1.7-5.5,2.7-8.3,3.3-1.4.3-2.8.4-4.1.5-1.3,0-2.6,0-3.8-.2-4.9-.6-8.8-2.6-11.4-4.5h.1c0-.1,0-.1,0-.1,0,0,0,0,0,.1,0,0,0,0,0,0-2.8.3-5,.5-6.4.7-.7,0-1.3.1-1.6.2-.4,0-.5,0-.5,0Z"/><polygon class="cls-13" points="747.5 99 751 95.2 758.3 101.1 769.1 88.6 772.7 92.1 758.1 108.1 747.5 99"/><path class="cls-6" d="M608.1,170.2l-.6-7.9c-3.8-2.5-7-6-9-10.4-5.9-12.7-.5-27.7,12.2-33.7,12.7-5.9,27.7-.5,33.7,12.2,5.9,12.7.5,27.7-12.2,33.7-5.3,2.5-11,3-16.3,1.8h0s-7.7,4.4-7.7,4.4Z"/><path class="cls-3" d="M608.1,170.2s.2-.1.5-.3c.3-.2.8-.5,1.5-.9,1.3-.7,3.2-1.8,5.7-3.3h0c0,.1,0,.1,0,.1,0,0,0,0,0-.1,0,0,0,0,0,0,3.2.7,7.6,1,12.5-.4,1.2-.3,2.4-.8,3.7-1.4,1.2-.6,2.4-1.2,3.6-2.1,2.4-1.6,4.6-3.8,6.4-6.4,1.8-2.6,3.2-5.7,3.9-9.1.7-3.4.8-7.1,0-10.7-1.5-7.3-6.8-14.2-14.3-17.5-3.8-1.7-7.9-2.5-11.9-2.1-4,.3-7.8,1.5-11.1,3.4-3.3,1.9-6,4.5-8,7.4-2,2.9-3.3,6.1-3.9,9.3-.6,3.2-.6,6.3-.2,9.2,0,.4.1.7.2,1.1,0,.4.1.7.2,1,.2.7.4,1.3.6,2,.5,1.3,1,2.5,1.6,3.6,2.4,4.5,5.6,7.4,8.3,9.2,0,0,0,0,0,0,.2,2.6.3,4.5.4,5.9,0,.7,0,1.2.1,1.5,0,.3,0,.5,0,.5,0,0,0-.2,0-.5,0-.3,0-.8-.1-1.5-.1-1.4-.3-3.3-.5-5.9h0c-2.7-1.7-6-4.6-8.5-9.1-.6-1.1-1.1-2.4-1.6-3.6-.2-.7-.4-1.3-.6-2-.1-.3-.2-.7-.2-1,0-.4-.1-.7-.2-1.1-.5-2.9-.5-6.1.1-9.3.6-3.2,1.9-6.5,4-9.4,2-2.9,4.7-5.6,8.1-7.5,3.3-1.9,7.2-3.2,11.2-3.5,4-.3,8.2.5,12.1,2.2.5.2.9.4,1.4.7l1.4.7,1.3.8c.4.3.9.6,1.2.9.4.3.8.6,1.2,1,.4.3.7.7,1.1,1,.3.4.7.7,1.1,1.1.3.4.6.8.9,1.2,2.5,3.1,4.2,6.7,5,10.4.8,3.7.8,7.4,0,10.8-.7,3.4-2.2,6.6-4,9.2-1.8,2.7-4.1,4.8-6.5,6.4-1.2.9-2.5,1.5-3.7,2.1-1.2.6-2.5,1-3.7,1.4-4.9,1.4-9.3,1.1-12.6.3h0c0-.1,0-.1,0-.1,0,0,0,0,0,.1,0,0,0,0,0,0-2.5,1.4-4.5,2.5-5.8,3.2-.6.4-1.1.6-1.5.8-.3.2-.5.3-.5.3Z"/><path class="cls-2" d="M615.2,137.4h3.3s0-2.8,2.9-2.8c1.5,0,2.3,1,2.6,1.7.4.9.3,1.9-.2,2.7-.6.9-1.8,1.8-4,1.4v7.4h3.3v-4.4s4.6-1.2,4.6-6.2-4.3-6-6.2-6-6.2.3-6.2,6.2Z"/><rect class="cls-2" x="619.7" y="149.4" width="3.3" height="3.1"/><path class="cls-12" d="M114.4,91.2l-2-6.7c2.2-3.5,3.4-7.7,3.4-12.1,0-12.8-10.4-23.2-23.2-23.2s-23.2,10.4-23.2,23.2,10.4,23.2,23.2,23.2,10.3-1.8,14.2-4.9h0s7.6.5,7.6.5Z"/><path class="cls-3" d="M114.4,91.2s-.2,0-.5,0c-.3,0-.8,0-1.4,0-1.3,0-3.2-.2-5.7-.3,0,0,0,0,0-.1,0,0,0,0,0,0,0,0,0,0,0,0h.1c-2.4,2-5.9,4-10.4,4.8-2.3.4-4.8.4-7.4,0-2.6-.4-5.4-1.3-7.9-2.8-2.6-1.5-5-3.5-7-6.1-2-2.6-3.5-5.7-4.2-9.1-1.6-6.7.1-14.7,5.2-20.5,2.6-2.9,5.8-5.2,9.2-6.5,3.5-1.3,7.2-1.8,10.7-1.4,3.5.3,6.8,1.5,9.6,3.2,2.8,1.7,5.2,3.9,6.9,6.3,3.5,4.9,4.7,10.5,4.4,15.1-.3,4.7-1.9,8.3-3.5,10.8h0c.6,2.1,1.1,3.8,1.4,4.9.2.5.3,1,.4,1.3,0,.3.1.4.1.4,0,0,0-.2-.1-.4,0-.3-.2-.7-.4-1.3-.4-1.1-.9-2.8-1.5-4.9,0,0,0,0,0,0,1.5-2.5,3.1-6.1,3.3-10.8.3-4.6-.9-10.1-4.4-14.9-1.7-2.4-4-4.5-6.8-6.2-2.8-1.6-6-2.8-9.4-3.1-3.4-.3-7.1.1-10.5,1.4-3.4,1.3-6.6,3.5-9.1,6.3-5,5.6-6.7,13.4-5.1,20.1.7,3.3,2.2,6.4,4.1,8.9,1.9,2.5,4.3,4.6,6.8,6,2.5,1.5,5.2,2.3,7.8,2.8,2.6.4,5.1.4,7.3,0,4.5-.7,8-2.7,10.4-4.5,0,0,.1,0,.1,0,0,0,0,0,0,.1,0,0,0,0,0,0v-.2c2.4.2,4.2.3,5.5.4.6,0,1.1,0,1.5.1.3,0,.5,0,.5,0Z"/><path class="cls-3" d="M86.2,72.4c0,1.3-1.1,2.4-2.4,2.4s-2.4-1.1-2.4-2.4,1.1-2.4,2.4-2.4,2.4,1.1,2.4,2.4Z"/><path class="cls-3" d="M95.6,72.4c0,1.3-1.1,2.4-2.4,2.4s-2.4-1.1-2.4-2.4,1.1-2.4,2.4-2.4,2.4,1.1,2.4,2.4Z"/><path class="cls-3" d="M105,71.2c.6,1.1.3,2.6-.9,3.2s-2.6.3-3.2-.9c-.6-1.1-.3-2.6.9-3.2,1.1-.6,2.6-.3,3.2.9Z"/><path class="cls-3" d="M699.8,95.3c-1.2-3.7-4.1-5.5-7.9-6.6-3.8-1.1-8.1-.2-11.1,2.3-2,1.7-3.6,4.1-6,5-4,1.6-8.9-1.3-12.8.7-2.3,1.2-3.5,4.1-2.8,6.5.7,2.5,3.3,4.2,5.9,4-2.6,1.1-3.3,4.9-1.6,7.2,1.7,2.3,4.9,3.1,7.6,2.4,2.8-.6,5.1-2.4,7.1-4.4,2-2,3.8-4.2,6-6,2.2-1.8,4.8-3.2,7.7-3.2,3.8,0,7.2,2.8,9.1,6.1,1.9,3.4,2.4,7.3,2.8,11.1.4,3.8.6,7.7,1.9,11.3.2.4.4.9.8,1,.6.2,1.1-.5,1.4-1.1,3.2-6.6,5.1-13.9,5.5-21.2.3-4.3,0-8.3-2.5-11.7-2.5-3.5-8.5-5.8-11.3-3.5"/><path class="cls-15" d="M707.9,112.8l3.5,39c.6,7.3-3.6,20.9-15.1,21.4l.2-.7c-10.1-.3-9.9-12.2-10.8-20.9,0,0,0,.3,0,0,0,0-11,0-12.7-10.8-.8-5.2-1.7-16-2.4-25.8-.7-10.5,6.8-19.8,17.2-21.4l1-.2c11.3-1,18.5,8,19.2,19.3Z"/><path class="cls-9" d="M685.7,151.6s6.8-.6,13.4-6.2c0,0-2.1,8.8-13,9.5l-.4-3.2Z"/><path class="cls-3" d="M675.3,124.4c0,.8.9,1.4,1.7,1.3.9,0,1.5-.8,1.4-1.6,0-.8-.9-1.4-1.7-1.3-.9,0-1.5.8-1.4,1.6Z"/><path class="cls-3" d="M673.6,120c.2.2,1.3-.9,2.9-1.1,1.6-.3,3,.4,3.1.2,0-.1-.2-.4-.8-.7-.6-.3-1.5-.5-2.5-.4-1,.2-1.8.7-2.3,1.1-.4.5-.6.9-.5.9Z"/><path class="cls-3" d="M689.8,122.6c0,.8.9,1.4,1.7,1.3.9,0,1.5-.8,1.4-1.6,0-.8-.9-1.4-1.7-1.3-.9,0-1.5.8-1.4,1.6Z"/><path class="cls-3" d="M689.9,117.9c.2.2,1.3-.9,2.9-1.1,1.6-.3,3,.4,3.1.2,0-.1-.2-.4-.8-.7-.6-.3-1.5-.5-2.5-.4-1,.2-1.8.7-2.3,1.1-.4.5-.6.9-.5.9Z"/><path class="cls-3" d="M685.8,131c0,0-1.1-.1-2.8,0-.4,0-.8,0-1-.3-.1-.3,0-.8,0-1.3.2-1.1.5-2.2.8-3.4,1-4.8,1.7-8.8,1.5-8.8-.2,0-1.2,3.8-2.2,8.7-.2,1.2-.5,2.3-.7,3.4,0,.5-.3,1.1,0,1.7.2.3.5.5.8.5.3,0,.5,0,.7,0,1.7-.2,2.7-.3,2.7-.4Z"/><path class="cls-3" d="M688.5,111.4c.2.4,1.8,0,3.8,0,2,0,3.6.2,3.8-.2,0-.2-.3-.6-.9-.9-.7-.3-1.8-.6-2.9-.6-1.2,0-2.2.4-2.9.8-.7.4-1,.8-.9,1Z"/><path class="cls-3" d="M673.5,115.1c.3.3,1.4-.2,2.8-.5,1.4-.3,2.6-.1,2.8-.6,0-.2-.2-.6-.7-.8-.6-.3-1.4-.4-2.4-.3-.9.2-1.7.6-2.1,1.1-.4.5-.5.9-.4,1Z"/><path class="cls-15" d="M708.2,120.9c.2-.1,7.1-3.3,7.9,4.1.9,7.4-6.7,6.7-6.8,6.5,0-.2-1.2-10.6-1.2-10.6Z"/><path class="cls-9" d="M711.3,128.4s.1,0,.4.1c.2,0,.6,0,1,0,.7-.4,1.3-1.7,1.1-3,0-.7-.3-1.3-.6-1.8-.3-.5-.7-.8-1.1-.9-.4,0-.7.2-.7.4,0,.2,0,.4,0,.4,0,0-.2-.1-.1-.4,0-.2,0-.3.2-.5.2-.2.4-.3.7-.3.6,0,1.1.4,1.5,1,.4.5.6,1.2.7,2,.1,1.5-.5,3-1.5,3.4-.5.2-1,0-1.2,0-.3-.2-.3-.3-.3-.3Z"/><path class="cls-3" d="M668.9,105.1c.6-2.3,2.1-4.2,3.7-5.9,3.5-3.6,8.2-6.2,13.1-7.1,5-.8,10.3.2,14.5,3.1,3.3,2.3,5.8,5.8,7.2,9.5,1.5,3.8,2,7.9,1.9,11.9,0,1.8-.3,3.6-1.3,5.1-.6.9-1.9,1.6-2.8,1.1-.6-.3-.9-1-1.1-1.6-2.3-5.5-4.6-11.3-3.3-17.1-1.7-1.6-3.6-3.1-5.8-3.9-2.2-.8-4.7-.9-6.8,0-3.1,1.5-4.7,5-6.9,7.6-3.3,3.7-8.4,5.7-13.3,5.2l1-8.1Z"/><path class="cls-2" d="M660.1,98.9s0,.2,0,.5c0,.3,0,.8.3,1.4.4,1.2,1.6,2.8,3.7,3.7,2.1.9,5,.8,7.8-.4,2.8-1.1,5.3-3.3,8.1-5.3,2.7-2,5.6-3.7,8.5-3.9,2.9-.2,5.5.8,7.3,2,1.8,1.2,3.1,2.6,3.8,3.6.7,1,1.1,1.6,1.1,1.6,0,0,0-.2-.2-.5-.1-.3-.4-.7-.7-1.2-.7-1-1.9-2.5-3.8-3.7-1.8-1.3-4.5-2.4-7.5-2.2-3.1.2-6.1,1.9-8.8,3.9-2.7,2-5.2,4.1-7.9,5.3-2.7,1.2-5.5,1.3-7.5.5-2-.8-3.2-2.4-3.7-3.5-.5-1.1-.4-1.9-.5-1.9Z"/><path class="cls-2" d="M712.5,108.7s-.1-.8-.8-1.9c-.6-1.1-1.7-2.5-3.3-3.7-.8-.6-1.6-1.1-2.3-1.4-.8-.4-1.5-.6-2.2-.5-.7,0-1.2.3-1.4.5-.3.2-.4.4-.3.5,0,0,.6-.7,1.8-.7,1.2,0,2.8.9,4.3,2,1.5,1.2,2.6,2.5,3.3,3.5.7,1,1,1.8,1.1,1.7Z"/><path class="cls-2" d="M712.2,115.4s-.2-.8-.9-1.9c-.7-1.1-1.9-2.5-3.5-3.6-1.6-1.2-3.3-1.8-4.5-2.1-1.2-.3-2-.3-2.1-.3,0,0,.8.2,2,.6,1.2.4,2.8,1.1,4.3,2.2,1.5,1.1,2.7,2.4,3.5,3.4.7,1,1.1,1.7,1.2,1.7Z"/><path class="cls-3" d="M687,135.6c0,.1.4.3,1.2.2.7,0,1.7-.3,2.7-1,.9-.7,1.5-1.5,1.8-2.2.3-.7.3-1.2.1-1.2-.3,0-.9,1.5-2.5,2.6-1.6,1.2-3.3,1.3-3.3,1.5Z"/><path class="cls-3" d="M744.4,409.1l15.4,23.8,6.7,22.3c.5,1.6,2.2,2.5,3.8,1.9h0c.9-.3,1.6-1.1,1.8-2,1.2-5.6,5.4-31.6,4.6-32.8-1.3-2-13.4-22.1-13.4-22.1l-18.9,9Z"/><path class="cls-2" d="M770.3,457l5.4-36.4.6,1c.5.9.8,1.9.6,3-.4,2.7-1.8,15.8-4.8,30.4-.2.9-.9,1.7-1.9,2h0Z"/><g class="cls-7"><path class="cls-6" d="M767.1,419.9c-.3.8,0,1.8.8,2.2.8.4,1.8,0,2.2-.8.4-.8,0-2-.8-2.3-.8-.3-2,.2-2.2,1"/></g><path class="cls-6" d="M769.3,443.1c0,.2-1.4-.8-3.3-.6-1.9.1-3,1.3-3.1,1.2,0,0,.1-.4.6-.8.5-.4,1.4-.8,2.4-.9,1,0,1.9.2,2.5.5.6.3.8.7.8.7Z"/><path class="cls-6" d="M769.6,447.4c0,.2-1.3-.1-2.8.3-1.5.4-2.4,1.3-2.5,1.1-.1,0,.7-1.3,2.4-1.7,1.7-.5,3,.2,2.9.3Z"/><path class="cls-6" d="M770,437c0,.2-2-.3-4.3.1-2.3.4-4,1.5-4.1,1.4-.1-.1,1.5-1.5,4-2,2.5-.5,4.5.3,4.4.5Z"/><path class="cls-6" d="M765.9,429.4c0,.2-1.6.4-3.4,1.4-1.8,1-2.9,2.3-3,2.1-.1,0,.8-1.6,2.7-2.7,1.9-1.1,3.7-1.1,3.7-.9Z"/><path class="cls-6" d="M763.1,424.4c0,.2-1.8.2-3.6,1.4-1.8,1.2-2.5,2.8-2.7,2.8,0,0,0-.5.4-1.2.4-.7,1-1.5,2-2.1,1-.6,2-.9,2.7-1,.7,0,1.2,0,1.2.1Z"/><path class="cls-3" d="M684.5,258.6c0,1,7,88.7,9.7,94.4,2.7,5.7,55.9,71.3,55.9,71.3l22.2-15.3-47.1-68.3-1.3-64-10.9-25.1-28.4,7.1Z"/><path class="cls-3" d="M751.1,241c.6,1.3,7.9,22.2,8.4,31.1.6,8.9-15.8,166.4-15.8,166.4l-27.1-2.2,7-152.8-11.7-32.1,39.1-10.5Z"/><path class="cls-2" d="M720.7,275s0,.1,0,.3c0,.2,0,.5,0,.9,0,.8.1,2,.2,3.5.2,3.1.5,7.6.9,13.3.8,11.5,1.9,27.9,3.2,47.6h0c0,0,0,.1,0,.1,11,16,24,34.8,37.9,55,3.1,4.5,6.2,9,9.2,13.3v-.4c-7.7,5.3-15.1,10.5-22.1,15.3h.3c-16.3-20.3-30.3-37.7-40.3-50-5-6.1-8.9-11-11.6-14.4-1.4-1.7-2.4-2.9-3.1-3.8-.3-.4-.6-.7-.8-1-.2-.2-.3-.3-.3-.3,0,0,0,.1.3.4.2.2.4.6.8,1,.7.9,1.7,2.2,3.1,3.9,2.7,3.4,6.6,8.3,11.5,14.5,9.9,12.4,23.8,29.8,40.1,50.2v.2c.1,0,.3-.1.3-.1,7-4.8,14.5-10,22.2-15.3l.2-.2-.2-.2c-3-4.4-6.1-8.8-9.2-13.4-13.9-20.1-26.9-39-38-55h0c-1.4-19.6-2.6-35.9-3.4-47.4-.4-5.7-.8-10.2-1-13.3-.1-1.5-.2-2.7-.3-3.5,0-.4,0-.7,0-.9,0-.2,0-.3,0-.3Z"/><path class="cls-3" d="M722.3,423.2l.6,20.5s-20.7,7.5-21,11.3l39.9.3.4-32h-19.9Z"/><path class="cls-14" d="M735.2,442.2c.8.2,1.3,1.1,1.1,1.9-.2.8-1.1,1.3-1.8,1.1-.8-.2-1.4-1.2-1.2-2,.3-.8,1.3-1.3,2-.9"/><path class="cls-2" d="M741.8,455.4v-3.2c0,0-38.3.9-38.3.9,0,0-1.8.8-1.6,2l39.9.3Z"/><path class="cls-6" d="M722.2,443.6c0,.2,1,.3,1.9.9,1,.6,1.5,1.5,1.6,1.4.2,0-.1-1.2-1.3-2-1.2-.8-2.3-.5-2.3-.4Z"/><path class="cls-6" d="M718,445.3c0,.2.8.5,1.4,1.4.7.8.8,1.7,1,1.7.2,0,.3-1.1-.5-2.1-.8-1-2-1.1-2-.9Z"/><path class="cls-6" d="M715.6,450.3c.2,0,.5-.9,0-2-.5-1.1-1.4-1.5-1.5-1.3-.1.2.5.7.9,1.6.4.9.5,1.7.7,1.7Z"/><path class="cls-6" d="M722.6,438.9c0,.2,1,0,2.1,0,1.1,0,2,.4,2.1.3.1-.1-.7-.9-2-.9-1.3,0-2.2.5-2.1.7Z"/><path class="cls-4" d="M671.6,162.2s-14.2,4.3-15.2,23.4c-1,17.9.4,51.6,1.4,61.4.9,9.1,4.3,28,4.3,28l14.8-1-3.6-61.9,2-34.9-3.7-15Z"/><path class="cls-4" d="M751.2,236.4c-2.2-8.3-4.5-24.8-4.5-24.8l-20.2-58.1-12-.2-1.9-3.9c-.4-.8-1.3-1.3-2.2-1.1l-23.6,4.2c-1.1.2-1.8,1.2-1.7,2.3l.4,3.2-14.2,4.3-.9,28.3,9.6,59.9.9,8.4c.2,2,1.2,3.8,2.9,5l2.6,1.9,65.3-15.1,1.6-4.4c-.3-4.3-1.5-7.4-2.1-9.9Z"/><polygon class="cls-4" points="683.5 262 685.5 270.8 756.1 256.2 753.1 245.6 683.5 262"/><path class="cls-3" d="M713.8,153.3c0,0-1.5.6-3.9,1.6-2.4.9-5.8,2-9.7,2.6-3.9.6-7.5.7-10,.6-2.6-.1-4.2-.3-4.2-.2,0,0,.4.1,1.1.3.7.1,1.8.3,3.1.4,2.6.2,6.2.2,10.2-.4,3.9-.6,7.4-1.8,9.8-2.8,1.2-.5,2.1-1,2.8-1.3.6-.3,1-.6,1-.6Z"/><path class="cls-3" d="M669.3,173.5c.1,0,1.5,10.2,3,22.9,1.5,12.7,2.6,22.9,2.5,23-.1,0-1.5-10.2-3-22.9-1.5-12.7-2.6-22.9-2.5-23Z"/><path class="cls-15" d="M673.1,267.4s2-.9,3.4.8c1.4,1.6,3.2,5.6,3.5,7.6,0,0,3.1,0,3.4,1.1.3,1.2-.1,2.5-3,3.1,0,0-1.2,4-3.3,3.1-2.1-.9-1.8-2.5-1.8-2.5,0,0-1.2,3.2-4.5,0,0,0-1,1.1-2.4,1.1-1.3,0-2-.9-2-.9,0,0-1.5,1.2-2.6.2-1.2-1-5.3-5.2-6.1-6.6-.8-1.5-.8-3.6.4-4.7,1.2-1.1,3.5-.8,3.5-.8,0,0,1.7-2.6,4.5-1.3,0,0,3.1-4,7-.2Z"/><path class="cls-9" d="M661.9,273.5c-.1,0,.8,1.8,2.1,3.7.6,1,1.2,1.9,1.6,2.6.4.7.6,1.1.6,1.1,0,0,0-.5-.3-1.3-.3-.7-.8-1.7-1.5-2.7-1.3-2-2.5-3.5-2.6-3.5Z"/><path class="cls-9" d="M665.9,271.6c-.1,0,.8,2.2,2.1,4.7,1.3,2.5,2.7,4.4,2.8,4.3.1,0-1-2.1-2.3-4.6-1.3-2.5-2.5-4.5-2.6-4.4Z"/><path class="cls-9" d="M671.4,270.6c-.1,0,1.2,2.2,2.4,5,.6,1.4,1.2,2.7,1.4,3.6.2.9,0,1.5.1,1.6,0,0,.4-.6.3-1.6-.1-1-.7-2.3-1.3-3.7-1.2-2.8-2.8-4.8-2.9-4.7Z"/><path class="cls-9" d="M677.8,270.1c-.2,0,1,2.3,1.9,5.1.4,1.4.7,2.8.8,3.7.1,1-.2,1.5-.1,1.6,0,0,.5-.5.5-1.6,0-1-.2-2.4-.6-3.9-.9-3-2.3-5-2.4-5Z"/><g class="cls-8"><path d="M672.6,197.6c1,1.2,2.8,1.5,4.4,1.3s3.1-.7,4.7-.8c4.4-.2,8.5,3.1,12.8,2.2,2.4,6.4,7.3,11.7,12.5,16.2,5.2,4.5,11,8.3,16.1,12.9,2.5,2.3,5,4.7,8.1,6,3.6,1.5,7.9,1.2,11.3-.8,3.4-2,5.7-5.7,6.1-9.6l-50.4-39.5-27.7,6.2,2.1,5.8Z"/></g><path class="cls-14" d="M654.8,181.9l22.9-6,1.6,13s.1,6.6-3.3,7.5l-9.9,2.6s-4.6-1.2-6.6-5.5l-4.6-11.6Z"/><path class="cls-3" d="M654.8,181.9s0,.1.2.4c.1.3.3.6.5,1.1.4,1,1,2.3,1.7,4,.7,1.7,1.6,3.8,2.5,6.2,1.1,2.3,3.5,4.3,6.4,5.3h0c2.5-.7,5.1-1.4,7.9-2.1.7-.2,1.4-.4,2.1-.6.7-.2,1.2-.7,1.6-1.3.8-1.2,1.2-2.7,1.3-4.2,0-.6.1-1.2.1-1.8h0c-.6-4.6-1.1-9-1.6-13l.2.2c-6.7,1.7-12.4,3.2-16.4,4.2-2,.5-3.6.9-4.7,1.2-.5.1-1,.2-1.3.3-.3,0-.4.1-.5,0,0,0,.1,0,.4-.1.3,0,.7-.2,1.2-.3,1.1-.3,2.7-.7,4.7-1.3,4.1-1.1,9.8-2.6,16.5-4.4h.2c0,0,0,.2,0,.2.5,4,1,8.4,1.6,13h0c0,.6,0,1.2-.1,1.8-.2,1.6-.5,3.1-1.4,4.4-.4.6-1.1,1.2-1.8,1.4-.7.2-1.4.4-2.1.6-2.8.7-5.4,1.4-7.9,2.1h0s0,0,0,0c-3.1-1-5.5-3.1-6.6-5.5-1-2.4-1.8-4.6-2.5-6.3-.7-1.7-1.2-3.1-1.6-4.1-.2-.4-.3-.8-.4-1.1,0-.2-.1-.4-.1-.4Z"/><path class="cls-14" d="M677.7,182.9c.1,0,.2-.1.3-.2,0,0,.2,0,0,0-.2,0,0,0,0,0,.2,0,.5-.1.7-.2-.2,0,0,0,0,0,.1,0,.3,0,.4,0,.1,0,.2,0,.4,0,.2,0,0,0,0,0,0,0,.2,0,.2,0,.3,0,.5.1.7.2.2,0,0,0,0,0,0,0,.1,0,.2,0,.1,0,.2.1.4.2,0,0,.3.2,0,0,.1,0,.2.2.3.3,0,0,.2.2.2.3.1.1,0,0,0,0,0,0,0,.1.1.2,0,.1.1.2.2.4,0,0,.2.4.1.2,0-.2,0,.2,0,.2,0,.1,0,.3.1.4,0,0,0,.2,0,.2,0,0,0,.2,0,0,0-.2,0,.2,0,.2,0,.1,0,.2,0,.4,0,0,0,.4,0,.2,0,.3-.1.5-.2.8,0,0,0,.1,0,.2,0,0,.1-.2,0,0,0,.1-.1.3-.2.4,0,0-.2.3-.1.2,0-.1-.1.1-.2.2,0,0-.2.2-.3.2,0,0,0,0-.1.1.1-.1,0,0,0,0-.2.2-.5.3-.7.4-.1,0,0,0,0,0,0,0-.1,0-.2,0-.2,0-.3,0-.5.1,0,0-.1,0-.2,0,0,0-.3,0-.1,0,.2,0,0,0,0,0,0,0-.2,0-.2,0-.2,0-.3,0-.5,0,0,0-.2,0,0,0,.2,0-.2,0-.2,0-.7-.2-1.6.2-1.8,1-.2.7.2,1.6,1,1.8,3,.7,6.3-1.1,7.2-4.1.4-1.5.2-3.1-.5-4.5-.7-1.4-2-2.4-3.4-2.8-1.6-.5-3.4-.3-4.9.5-.6.4-.9,1.3-.5,1.9.4.7,1.3.9,1.9.5h0Z"/><path class="cls-3" d="M677.7,182.9s-.1.1-.4.2c-.3,0-.9,0-1.3-.4-.5-.4-.7-1.4,0-2.1.4-.3.8-.5,1.2-.7.5-.2,1-.3,1.5-.4,1.1-.1,2.4,0,3.5.7,1.2.6,2.2,1.7,2.8,3,.5,1.4.7,3,.1,4.5-.5,1.5-1.8,2.8-3.4,3.5-.7.3-1.4.5-2.2.5-.4,0-.7,0-1.1,0h-.5c-.2-.1-.4-.2-.6-.3-.7-.5-.9-1.4-.5-2.1.4-.7,1.2-1,1.9-.8l-.2.2s0-.2.1-.2c.1,0,.1,0,.1,0h0s0,0,0,0h0s0,0,0,0h0s0,0,0,0h0s0,0,0,0c0-.1.2.3,0,.3,0,0,0,0,0,0h0s0,0,0,0h0s0,0,0,0h0s0,0,0,0h0s0,0,0,0c0,0,0,0,0,0-.2-.4.2-.4,0-.3,0,0,0,0,0,0h0s0,0,0,0h.2c.2,0,.4,0,.6,0h0s0,0,.1,0c0,0,0,0,0,.2,0,.2-.1.2-.1.2,0,0,0,0,0,0h0s0,0,0,0h0s0,0,0,0h0s0,0,0,0c0,0,0,0,0,0,0,0-.1,0-.1-.2,0-.1.1-.1.1-.1h0s0,0,0,0h0s0,0,0,0c0,0,.2,0,.3,0,.2,0,.4-.1.6-.2v.3c.1,0,0,0,0,0h0s0,0,0,0h0s0,0,0,0c0,0,0,0-.1,0,0,0-.1-.2,0-.2,0,0,0,0,0,0,0,0,0,0,0,0h0s.1,0,.1,0l.3-.2.3-.2s0,0,.1,0h0s0,0,0,0c0,0,0,.4.2.3,0,0,0,0,0,0h0s0,0,0,0h0s0,0,0,0h0s0,0,0,0l-.2-.3c.1-.1.2-.2.3-.3,0,0,.1-.1.2-.2h0s0,0,0,0h0s0,0,0,0c0,0,0,0,.1,0,0,0,0,0,.1,0,.1,0,0,.2,0,.2h0s0,0,0,0h0s0,0,0,0c0,0,0,0,0,0,0,0-.1,0-.2,0,0,0,0-.2,0-.2h0s0,0,0,0c0-.1.2-.2.2-.4v-.2c.1,0,.1,0,.1,0h0s0,0,0,0h0s0,0,0,0c0,0,.2,0,.2,0,0,.2,0,0,0,.1h0s0,0,0,0h0s0,.1,0,.1h-.3c.1-.4.2-.7.3-1h.3c0,0,0,.1,0,.1h0s0,0,0,0h0s0,0-.1,0c-.2,0-.2-.1-.2-.1h0s0,0,0,0h0c0-.2,0-.3,0-.3,0-.1,0-.3,0-.4h0c0-.1,0-.1,0-.1h0s0,0,0-.1c0,0,.1,0,.1,0,0,0,0,0,0,0,0,0,0,0,0,.1h0s0,0,0,0h0s0,0,0,0h0s0,0,0,0h0c.1.1-.4.2-.3,0h0s0,0,0,0c0,0,0,0,0,0,0-.1,0-.3,0-.4,0-.1,0-.2-.1-.4h0c0-.1,0-.2,0-.2,0,0,.1,0,.1,0,0,0,0,0,0,0,0,0,0,0,0,0h0s0,0,0,0h0s0,0,0,0c0,0,0,0,0,0,0,0,0,0,0,0,0,0,0,0,0,0,0,0-.2,0-.2,0,0-.1,0-.1-.1-.2-.1-.2-.2-.4-.4-.6l.2-.2h0s0,0,0,0h0s0,0,0,0h0s0,0,0,0h0s0,.1,0,.2c0,0,0,0-.1,0,0,0,0,0,0,0,0,0,0,0,0-.1,0,0-.1-.1-.2-.2-.1-.1-.2-.2-.3-.3l.2-.2h0s0,0,0,0h0s0,0,0,0c0,0,0,0,0,.1,0,.2-.2,0-.2,0h0s0,0,0,0c0,0-.1,0-.2-.1-.1,0-.2-.1-.4-.2v-.2c.1,0,.2,0,.2,0h0s0,0,0,0c0,0,0,0,0,0-.2.4,0,.1-.1.2h0s0,0,0,0h0s0,0,0,0h0s-.2,0-.2,0c0,0-.2,0-.3,0-.2,0-.4-.1-.5-.1v-.2s.1,0,.1,0h0s0,0,0,0h0s0,.1,0,.2c0,0,0,0,0,0h0s0,0,0,0h0s0,0,0,0h-.2c-.1,0-.2,0-.3,0-.1,0-.2,0-.3,0h-.1s0,0,0,0h0s0,0,0,0h0c0,0,0,.1,0-.1h0s0,0,0,0h0s0,0,0,0h0s0,.1,0,.1c-.2,0-.5.1-.7.1,0,0,0,0-.1,0h0s0,0,0,0h0s0,0,0,0h0s0,0,0,0c0,0,0,0,0,0h0s0,0,0,0h.1s0,0,0,0h0s0,0,0,0c0,0,0,0,0,0,0,0,0,0,0,0h0s0,0,0,0c-.2.1-.4.2-.4.2,0,0,.1,0,.3-.2h0s0,0,0,0c0,0,0,0,0,0,0,0,0,0,0,0h0s0,0,0,0h0s-.1,0-.1,0h0s0,0,0,0c0,0,0,0,0,0,0,0,0,0,0,0,0,0,0,0,0,0h0s0,0,0,0h0s0,0,.1,0c.2,0,.4-.1.7-.2h0c0,.1,0,.2,0,.2h0s0,0,0,0h0s0,0,0,0c0-.2,0-.1,0-.1h0s0,0,0,0h0s0,0,0,0h.1c.1,0,.2,0,.3,0,.1,0,.2,0,.3,0h.2s0,0,0,0c0,.3,0,.2,0,.2h-.1s0-.2,0-.2c.2,0,.4,0,.6.1,0,0,.2,0,.3,0h.2s0,0,0,0h0s0,0,0,0h0s0,0,0,0c0,0,0,0,0,0,0,0,0,0,0,0,0,0,0,0,0,0h0s0,0,0,0v-.2c.2,0,.4.1.5.2,0,0,.1,0,.2.1h0c0,0,0,0,0,0,0,0,0,0,0,0,0,0,0,0,0,0,0,0,0,0,0,0,0,0,0,0,0,0,0,0,0,0,0,0h0s0,0,0,0h0s.2-.2.2-.2c.1.1.2.2.4.3,0,0,.1.1.2.2,0,0,0,0,0,.1,0,0,0,0,0,0,0,0,0,0,0,0,0,0,0,0,0,0h0s0,0,0,0h0c0,0,.2-.2.2-.2.1.2.3.4.4.7h0c0,0,0,.1,0,.1h0s0,0,0,0h0s0,0,0,0c0,0,0,0,0,0,0,0,0,0,0,0,0,0,0,0,0,0,0,0,0,0,0,0h0s0,0,0,0h0s0,0,0,0h0s0,0,0,0c0,0,0,0,0,0,0,0,0,0,0,0,.1,0,0,0,0,0h0s0,0,0,0h0s0,0,0,0c0,.1,0,.3.1.4,0,.1,0,.3,0,.4,0,0,0,0,0,.1h0s0,0,0,0h0s0,0,0,0c0,0,0,0-.1,0,0,0-.2,0-.2,0h0s0,0,0,0h0s0,0,0,0h0s0,0,0,0c0,0,0,0,0,0,0,0,0,0,0,0,0,0,0,0,0,0,.2,0,.1,0,.2,0h0s0,.1,0,.1c0,.1,0,.3,0,.4,0,0,0,.2,0,.2h0c-.4,0-.3,0-.3,0h0c0,0,.3,0,.3,0,0,.3-.1.6-.3,1h-.3c0-.1,0-.2,0-.2,0,0,0,0,0,0,0,0,0,0,.1,0,0,0,0,0,0,0,0,0,0,0,0,0h0s0,0,0,0h0s-.1.2-.1.2c0,.1-.2.3-.2.4h0s0,0,0,0c0,0-.1,0-.1,0,0,0,0,0,0,0h0c0,0,0,0,0,0h0s0,0,0,0c0,0,0,0,0,0,0,0,0,0,0,0,0,0,0,0,0,0,0,0,0,0,0,0,0,0,0,0,0,0h0s0,0,0,0h0c0,0-.1.2-.2.2-.1.1-.2.2-.3.3l-.2-.3h0c0,0,0,0,0,0h0s0,0,0,0h0s0,0,0,0c0,0,0,0,0,0,.1,0,.3.3.2.3,0,0,0,0,0,0h0c0,0,0,.1-.1.1l-.3.2-.3.2h-.1c0,0,0,.2,0,0,0,0,0-.2,0-.2h0s0,0,0,0h0s.1.3.1.3c-.2,0-.4.1-.6.2-.1,0-.2,0-.3,0h0s0,0,0,0c0,0,0,0,0,0,0,0,0-.2,0-.2,0,0,0-.1,0-.2h0s0,0,0,0h0s0,0,0,0c0,0,0,0,0,0,0,0,0,0,0,0,0,0,0,0,0,0,0,0,0,0,0,0,0,0,0,0,0,0,0,0,0,0,0,0h0s0,0,0,0h0c-.2,0-.4,0-.7,0h-.2s0,0,0,0h0s0,0,0,0h0s0,0,0,0c0,0,0,0,0-.1,0-.3,0-.2,0-.2h0s0,0,0,0h0s0,0,0,0c0,0,0,.1,0,.2v.2s0,0,0,0h0s0,0,0,0h0s0,0,0,0h0s0,0,0,0c0,0,0,0,.1,0,0,0,.1,0,.1-.1,0,0,0,0,0,0,0,0,0,0-.1,0v.2c-.6-.1-1.3.1-1.5.6-.2.5,0,1.3.4,1.6.2.2.6.2.9.2.3,0,.7,0,1,0,.7,0,1.4-.2,2-.5,1.5-.6,2.7-1.8,3.2-3.2.5-1.4.4-3,0-4.3-.5-1.3-1.5-2.3-2.6-2.9-1.1-.6-2.3-.8-3.3-.7-1,.1-2,.4-2.7.9-.3.3-.4.7-.4,1,0,.3.2.6.4.8.4.4.9.5,1.2.4.3,0,.5-.1.5-.1Z"/><path class="cls-15" d="M692,173.2s8.6,2.7,11.3,5c2.7,2.3,9.9,8.7,9.9,8.7l-8.9,11.8-3.7-4s-12.1,1.3-13.8,0c-1.7-1.3-1.5-4-1.5-4,0,0-2.4-1.3-2.6-2.8,0,0-5.1.7-5.7-.8-.5-1.5-.4-3.3,1.4-3.9,1.8-.6,6.1-1.3,4.5-1.9-1.6-.5-6.4,1.5-7.3-.5-.9-2.1-.2-3.9,2.1-4.1,2.3-.2,3.2-.2,3.2-.2,0,0-3.6-.2-4.3-3.2-.1-.5.3-1,.9-.9.6,0,1.5.3,2.3.5,3.2,1,10.4-.3,12.3.3Z"/><path class="cls-9" d="M679.9,176.7c0,.2,3.4-.7,7.6-.7,4.2,0,7.5.9,7.6.8,0,0-.8-.4-2.2-.7-1.4-.3-3.3-.6-5.4-.6-2.1,0-4.1.3-5.4.6-1.4.3-2.2.6-2.2.7Z"/><path class="cls-9" d="M682.5,187.6c0,.1.6.1,1.2,0,.7,0,1.2,0,1.2-.2,0-.1-.5-.3-1.2-.3-.7,0-1.2.3-1.2.4Z"/><path class="cls-9" d="M685.2,190.7c0,.1.3.3.7.3.4,0,.7,0,.7-.2,0-.1-.3-.3-.7-.3-.4,0-.7,0-.7.2Z"/><path class="cls-4" d="M726.4,153.5s19.4,1.2,23.5,19.6c3.4,15.5,14.1,44.8,7.2,54.5-2.4,3.4-8.9,7-14.9,4.8-14.5-5.2-44-32.7-44-32.7l12.1-17.8,25.9,20.1-5.8-27.9-4.1-20.7Z"/><path class="cls-3" d="M746.1,216.8c0,0-.2-1-.7-2.6-.4-1.6-1.3-3.7-2.7-5.8-1.4-2.1-3.1-3.7-4.4-4.7-1.3-1-2.2-1.5-2.2-1.6,0,0,.3,0,.7.3.4.2,1,.5,1.7,1,1.4,1,3.2,2.6,4.6,4.7,1.4,2.2,2.3,4.4,2.6,6,.2.8.3,1.5.3,2,0,.5,0,.7,0,.7Z"/><path class="cls-3" d="M759,222.9s0,.1,0,.4c0,.3,0,.7-.2,1.1-.3,1-.6,2.5-1.9,4-1.2,1.5-3.2,3-5.9,3.7-1.3.4-2.8.6-4.4.7-1.6,0-3.3,0-4.9-.7-6.6-2.4-13.3-7.4-20.7-12.8-7.3-5.6-14.9-12.3-22.9-19.5l-.2-.2v-.2c.8-.9,1.5-2,2.1-3,3.5-5.1,6.9-10.1,10.1-14.8l.2-.2.2.2c9.7,7.6,18.6,14.5,25.9,20.2l-.3.2c-1.8-8.9-3.2-16.1-4.3-21.1-.5-2.5-.9-4.4-1.1-5.8-.1-.6-.2-1.1-.3-1.5,0-.3,0-.5,0-.5,0,0,0,.2.1.5,0,.4.2.9.3,1.5.3,1.4.7,3.3,1.2,5.8,1.1,5,2.6,12.3,4.4,21.1v.5c.1,0-.3-.3-.3-.3-7.3-5.7-16.2-12.6-26-20.1h.4c-3.2,4.7-6.6,9.7-10.1,14.8-.7,1-1.4,2-2,3v-.3c7.9,7.2,15.5,13.8,22.8,19.5,7.4,5.4,14.1,10.4,20.5,12.9,1.6.6,3.2.7,4.8.7,1.5,0,3-.3,4.3-.6,2.6-.7,4.6-2.1,5.8-3.6,1.2-1.5,1.6-3,1.9-3.9,0-.5.2-.8.2-1.1,0-.3,0-.4,0-.4Z"/><path class="cls-3" d="M752.3,251.5s-.2,0-.7.2c-.5.1-1.1.3-1.9.5-1.7.4-4.1,1.1-7.1,1.8-6,1.4-14.4,3.3-23.6,5-9.3,1.7-17.7,3-23.9,3.8-3.1.4-5.6.7-7.3.9-.8,0-1.5.1-2,.2-.5,0-.7,0-.7,0s.2,0,.7-.1c.5,0,1.2-.2,2-.3,1.8-.3,4.2-.6,7.2-1.1,6.1-.9,14.5-2.3,23.8-4,9.3-1.7,17.6-3.5,23.7-4.8,3-.7,5.4-1.2,7.1-1.6.8-.2,1.4-.3,1.9-.4.4,0,.7-.1.7-.1Z"/><path class="cls-3" d="M550.6,169.1c1.1-1.2,2.9-1.9,4.6-1.7.7,0,1.4.3,2,0,.4-.3.6-.7.9-1.1.9-1.2,3-1.3,4-.2.3.3.5.6.8.8,1.3.7,2.8-1.8,4.1-1.1-.6.3-1.1.6-1.5,1.2-.3.6-.3,1.3.2,1.8,1.3,1.1,3.3-1.4,4.7-.5.8.5.9,1.7,1.7,1.9.3,0,.7,0,1,0,1.2-.1,2.3.8,2.5,1.9.1,1-.4,2.2.4,2.8.5.4,1.2.3,1.8.2,0,.9-.2,1.8-.6,2.6,1.6.9,2.2,3.2,1.3,4.8.8.6,1.6,1.2,2.1,2.1s.6,2,0,2.8c-.1.2-.3.4-.4.6,0,.2,0,.5,0,.7.2.9.6,1.8.6,2.8,0,.9-.7,2-1.6,1.9-.2,0-.5,0-.6,0-.1,0-.2.3-.2.4-.1.7,0,1.3.2,2,.1.7.1,1.4-.3,2-.4.6-1.3.8-1.7.2.3,1,.6,2.1.9,3.1.2.6.3,1.4-.1,1.8-.6.6-1.7.2-2.1-.6-.5-.7-.6-1.6-1.1-2.3-.2-.3-.4-.5-.6-.9-.1-.3-.1-.6-.4-.7-.4-.3-1.1.3-1,.8,0,.5.5,1,.9,1.4.4.4.6,1,.4,1.5-.1.2-.4.4-.5.6-.4.8.7,1.6.9,2.5.1.7-.4,1.3-.8,1.8-.6.6-1.7,1.1-2.1.3-.1-.3,0-.6-.2-.8-.1-.3-.4-.5-.7-.7-.6-.5-1.1-1.3-1.3-2.1.7.8,1.5,2,1,3-.2.4-.6.7-.9,1-.6.7-1,1.5-1.6,2.2-.6.7-1.6,1.1-2.4.7.3.9,0,1.9-.9,2.4-.8.5-1.9.3-2.5-.3-.2-.2-.3-.4-.6-.5-.3,0-.5,0-.8,0-1.6.3-3.3-.4-4.3-1.6.3,0,.5-.2.8-.3-1.6-.2-3.3-.4-4.6-1.3-1.3-.9-2.2-2.7-1.6-4.1.3-.6.9-1.3.6-1.9-.2-.4-.7-.6-1.1-.8-1.9-.6-3.8-1.3-5.7-1.9-.9-.3-1.9-.7-2.5-1.4-.6-.7-.7-2,.1-2.6-.4-.9-1.2-1.6-2-2.1-1-.6-2.1-.8-3-1.3-1-.5-1.9-1.4-1.8-2.5,0-1.1,1.6-2,2.3-1.2-.2-1.7-3.1-1.7-3.4-3.3-.2-1.3,1.5-2,2.3-3.1-.2-.5-.7-.7-.9-1.2-.4-1,.6-1.9,1.5-2.4.9-.5,2.1-.9,2.3-2,.2-1-.7-2.2-.2-3.1.3-.5,1-.7,1.5-.4.7-1.9,4.3-.5,5.4-2.3,0-.1.1-.3.1-.5,0-.1,0-.3-.2-.4-.4-.5-1.1-.8-1.6-1.2-.5-.4-1-1.1-.8-1.7.2-.6,1.4-.6,1.4,0,.7-.6,1.9-.3,2.2.5.5-.6,1.4-.6,2-.2.6.4,1,1,1.4,1.6"/><path class="cls-2" d="M560,190.1c-.7-2.7-2.8-4.8-5.1-6.5-1-.7-2-1.3-3.2-1.4-1.2-.1-2.5.3-3,1.4l.2,1.9c-.1,3.1,2.4,5.6,3.6,8.5.5,1.2,1,2.7,2.3,3.2.7.3,1.4.2,2.1,0,2.6-1,3.8-4.3,3.1-7Z"/><path class="cls-3" d="M560.8,204.4c1.7-2.4,1.2-6-1-8,1.1-1.5.5-3.7-.7-5-1.2-1.4-3-2.1-4.7-2.8-1.1-4.1-6-6.9-10.1-5.6-2.3-3.1-7-3.3-10.7-2.1-.9.3-1.8.7-2.7.7-.7,0-1.4-.1-2.1-.2-3.8-.3-7.4,2.6-8.7,6.1-.2.6-.4,1.2-.7,1.7-.5.7-1.2,1.1-1.8,1.6-1.3,1.1-2.1,2.9-2.1,4.6,0,1.5.6,3,0,4.4-.3.7-.8,1.3-1,2-.6,2.1,1.8,4,1.5,6.1,0,.4-.2.8-.3,1.3-.2.9,0,1.8.4,2.6.3.6.8,1.1.9,1.8,0,.5-.1,1-.2,1.5-.2,1.3,2.8,5.9,3.9,6.6l32.3-1.4c2.4-.6,4.3-2.9,4.4-5.4,0-.4,0-.9.2-1.2.2-.3.5-.4.9-.6,2-1.2,2.1-4.1,1.8-6.4,0-.3-.1-.7,0-1,0-.5.4-.9.7-1.2Z"/><path class="cls-15" d="M551.6,205c-.2-5.7-4.1-12.1-10-14.6-3.7-1.6-6.5-1.4-8.3-1.6-4.2-.3-7.5,2-7.5,2-1.8.5-8,6.8-7.9,13.3,0,7.2.3,16,1.5,21.3,2.4,10.7,10.8,11.5,10.8,11.5,0,0-.3,7.5-.3,7.5l23.2-1.7-1.4-37.8Z"/><path class="cls-9" d="M535.4,222.8c0-.6-.4-1.1-.8-1.4-.8-.7-2-.7-2.8-.1-.8.6-1.3,1.8-1.2,2.9h0c.5.7,1.2,1.1,2,1.2.1,0,.3,0,.4,0,.6,0,1.2-.2,1.7-.7.5-.5.8-1.2.7-1.9Z"/><path class="cls-3" d="M520.7,212.5c0,.7.7,1.3,1.4,1.3.8,0,1.4-.6,1.3-1.3,0-.7-.7-1.3-1.4-1.3-.8,0-1.4.6-1.3,1.3Z"/><path class="cls-3" d="M520.5,208.1c.2.2,1.2-.7,2.7-.8,1.5-.1,2.6.6,2.8.4,0,0-.1-.4-.6-.7-.5-.3-1.3-.6-2.2-.5-.9,0-1.7.5-2.1.8-.4.4-.6.7-.5.8Z"/><path class="cls-3" d="M530,219.3c0,0-.9-.2-2.4-.3-.4,0-.7,0-.8-.3-.1-.3,0-.7.2-1.1.3-.9.6-1.9.9-3,1.3-4.2,2.2-7.7,2-7.7-.2,0-1.4,3.3-2.7,7.5-.3,1-.6,2-.9,3-.1.4-.3.9-.1,1.5.1.3.4.5.7.5.2,0,.5,0,.7,0,1.5,0,2.4,0,2.4-.2Z"/><path class="cls-9" d="M530.1,237s7.3,0,14.2-4.8c0,0-3.4,7.7-14.3,7.4v-2.6Z"/><path class="cls-3" d="M534.4,220.1c-.2,0-.1,1.6-1.5,2.9-1.3,1.2-3,1.2-3,1.4,0,.1.4.3,1.1.3.7,0,1.7-.3,2.5-1.1.8-.8,1.1-1.7,1.1-2.4,0-.7-.2-1.1-.3-1.1Z"/><path class="cls-3" d="M520.8,202.5c.3.3,1.4,0,2.7,0,1.3,0,2.5.3,2.7,0,.1-.2,0-.5-.5-.8-.5-.3-1.3-.6-2.2-.6-.9,0-1.7.3-2.2.6-.5.3-.6.7-.5.8Z"/><path class="cls-3" d="M536.8,212c0,.7-.5,1.4-1.3,1.4-.8,0-1.4-.5-1.5-1.2,0-.7.5-1.4,1.3-1.4.8,0,1.4.5,1.5,1.2Z"/><path class="cls-3" d="M540.9,207.4c-.2.2-1.2-.6-2.7-.5-1.5,0-2.6.8-2.7.6,0,0,0-.4.6-.8.5-.4,1.3-.7,2.2-.7.9,0,1.7.3,2.2.6.5.3.6.7.5.7Z"/><path class="cls-3" d="M541,202.4c-.3.3-1.4,0-2.8,0-1.4,0-2.5.3-2.8,0-.1-.2,0-.5.6-.8.5-.3,1.3-.6,2.3-.6,1,0,1.8.3,2.3.6.5.3.7.7.5.8Z"/><path class="cls-15" d="M550.5,215.3c0-.8.8-2.8,1.5-2.9,2.1-.5,5.9-.5,6.3,4.8.5,7.3-7,6.4-7,6.1,0-.2-.7-5.3-.9-8Z"/><path class="cls-9" d="M553.2,220.5s.1,0,.4.2c.2,0,.6.1,1,0,.8-.3,1.3-1.6,1.3-2.9,0-.7-.2-1.3-.5-1.8-.3-.5-.6-.9-1-.9-.4,0-.7.2-.7.4,0,.2,0,.4,0,.4,0,0-.2-.1-.1-.4,0-.1,0-.3.3-.5.2-.2.4-.2.7-.2.6,0,1.1.5,1.4,1,.3.6.6,1.3.6,2,0,1.5-.6,2.9-1.6,3.3-.5.2-.9,0-1.2-.1-.2-.2-.3-.3-.3-.3Z"/><path class="cls-3" d="M516.2,204.4c1.4-1,2.3-2.3,2.1-4.1,1,.2,1.9-1.1,2.4-2,.5-.9,1.2-1.4,1.1-2.4,0-.2,0-.4,0-.6.1-.3.5-.4.8-.5,1.5-.6,2.7-2,3-3.6,1.6.6,3.4.8,5.1.5.8,1.1,2.2,1.6,3.6,1.5,1.3-.1,2.6-1,3.2-2.2.5.9,1.5,1.4,2.5,1.6,1,.2,2,0,3.1,0-.3,2,1.1,4.1,3.1,4.6.3,0,.6.1.7.4.1.2,0,.6,0,.8-.5,1.7.7,3.8,2.5,4.1-1.1,1-.9,3.2.5,3.9.3.1.6.3.6.6,0,.1,0,.2-.1.3-.5.8-1,1.6-1,2.5,0,.9.7,1.9,1.6,1.9-.5.5-.9,1-.8,1.7,0,.6.7,1.2,1.3,1,.2-.1,3.9-1.1,4-1.3,1.9-3-.9-5.9-1.3-9.4-.4-3.5-1.9-6.8-3.8-9.7-.8-1.2-1.7-2.4-2.8-3.4-1.3-1.1-2.7-1.9-4.2-2.7-1.9-1-3.9-2.1-6.1-2.4-4-.7-8.1,1-11.6,3-1.4.7-2.7,1.5-3.8,2.6-1.3,1.3-2.3,2.9-3.1,4.6-1.2,2.4-2.1,5-2.2,7.7"/><path class="cls-2" d="M514.6,201.9s0-.3.3-.8c.1-.3.3-.6.5-.9.2-.4.3-.9.3-1.4,0-.5,0-1.2-.1-1.8,0-.7-.2-1.4,0-2.2,0-.8.4-1.6.8-2.4.2-.4.5-.8.8-1.1.3-.3.7-.6,1.1-.9.4-.3.8-.6,1.1-1,.3-.4.4-.9.6-1.4.3-1,.9-2,1.6-3,.7-.9,1.6-1.7,2.7-2.4.5-.3,1.1-.6,1.7-.8.6-.2,1.3-.3,1.9-.3.3,0,.7,0,1,0,.3,0,.7,0,1,.1.7,0,1.3,0,2-.1.6-.2,1.3-.4,1.9-.7.7-.2,1.4-.4,2.1-.5.7-.1,1.4-.2,2.2-.2.7,0,1.5.1,2.2.3,1.4.3,2.8,1,3.9,2.2,0,.1.2.2.3.3h-.1c2.2-.7,4.5-.2,6.4.8,1.9,1.1,3.3,2.8,3.9,4.8h0c.9.3,1.8.7,2.7,1.1.8.5,1.6,1,2.2,1.8.6.7,1,1.6,1.1,2.5.1.9,0,1.8-.5,2.5h0c1.1.9,1.7,2.2,1.9,3.5.2,1.3,0,2.6-.5,3.7-.1.3-.3.5-.4.8-.2.2-.3.5-.5.7-.1.2-.2.5-.2.7,0,.3,0,.5,0,.8.1,1,.2,2,0,2.8,0,.8-.3,1.6-.6,2.2-.3.6-.7,1-1.1,1.3-.4.3-.7.4-.9.5-.2.1-.2.2-.3.2,0,0,0-.1.2-.3.2-.2.5-.3.9-.6.4-.3.7-.7,1-1.3.3-.6.5-1.3.6-2.1,0-.8,0-1.8-.1-2.8,0-.2,0-.5,0-.8,0-.3,0-.6.2-.8.1-.2.3-.5.5-.7.1-.2.3-.5.4-.7.5-1,.7-2.3.5-3.6-.2-1.3-.8-2.6-1.9-3.6h0c0,0,0-.1,0-.1.5-.7.6-1.5.5-2.4-.1-.9-.5-1.7-1.1-2.4-.6-.7-1.3-1.2-2.2-1.7-.8-.5-1.7-.8-2.6-1.2h0s0,0,0,0c-.5-1.9-1.9-3.6-3.8-4.7-1.8-1.1-4.1-1.5-6.2-.9h0s0,0,0,0c0-.1-.2-.2-.3-.3-1-1.1-2.3-1.8-3.7-2.1-.7-.2-1.4-.2-2.1-.3-.7,0-1.4,0-2.1.1-.7.1-1.4.3-2,.5-.7.2-1.3.5-2,.7-.3,0-.7.2-1,.2-.3,0-.7,0-1,0-.3,0-.7,0-1-.1-.3,0-.6,0-1,0-.6,0-1.3.2-1.9.3-.6.2-1.2.4-1.7.8-1.1.6-1.9,1.4-2.7,2.3-.7.9-1.2,1.9-1.6,2.9-.2.5-.3,1-.6,1.5-.3.4-.7.8-1.1,1.1-.4.3-.8.6-1.1.9-.3.3-.6.7-.8,1.1-.5.7-.7,1.6-.8,2.3-.1.8,0,1.5,0,2.2,0,.7.2,1.3.1,1.8,0,.6-.2,1-.4,1.4-.2.4-.4.7-.5.9-.2.2-.2.4-.3.6,0,.1,0,.2,0,.2Z"/><path class="cls-2" d="M540.8,181.6s-.2,0-.6-.3c-.4-.2-.9-.3-1.6-.4-.7,0-1.6,0-2.4.5-.8.4-1.6,1.2-2.1,2.1-.1.3-.2.6-.3.9,0,.3,0,.6.1.8l.2.2h-.3c-.8-.2-1.7,0-2.3.3-.6.4-1,.9-1.2,1.4-.2.5-.2.9-.2,1.2,0,.3,0,.5,0,.5,0,0,0,0,0-.1,0,0,0-.2,0-.3,0-.3,0-.8.2-1.3.2-.5.6-1.1,1.2-1.5.6-.4,1.5-.7,2.4-.5v.2c-.3-.3-.3-.6-.3-1,0-.3.2-.6.3-.9.5-1,1.3-1.8,2.2-2.2.9-.4,1.8-.5,2.5-.5.7,0,1.3.3,1.7.4.2,0,.3.2.4.2,0,0,.1,0,.1.1Z"/><path class="cls-2" d="M553.2,189.3s0,.1-.2.3c-.2.2-.4.4-.8.6-.4.2-.8.5-1.4.5-.6,0-1.3,0-1.9-.4h.2c0,0-.1.2-.2.3,0,.1-.2.2-.2.3-.5.6-1.1,1-1.8,1.3-.6.2-1.2.3-1.7.3-.5,0-.9-.1-1.2-.2-.3,0-.4-.2-.4-.2,0,0,.6.2,1.6.2.5,0,1.1-.1,1.7-.4.6-.2,1.2-.6,1.7-1.2,0,0,.2-.2.2-.3,0-.1.1-.2.2-.3h0c0-.1,0,0,0,0,.5.4,1.2.5,1.7.4.6,0,1-.3,1.4-.5.7-.4,1.1-.8,1.1-.8Z"/><path class="cls-2" d="M557.5,195.9s0,0,0,.1c0,0,0,.2-.1.4-.2.3-.5.7-1.1.9-.6.2-1.4.1-2.1,0-.4-.1-.8-.2-1.2-.4-.4-.2-.8-.4-1.1-.9,0,0,0,0,0-.1h.2c-.7.6-1.4,1.2-2.1,1.5-.7.3-1.5.4-2.1.3-.6,0-1-.3-1.3-.5-.1,0-.2-.2-.3-.3,0,0,0-.1,0-.1,0,0,.1.1.4.3.3.2.7.4,1.3.4.6,0,1.3,0,2-.4.7-.3,1.4-.8,2-1.4h.1c0,0,0,0,0,0,0,0,0,0,0,0,.2.4.6.6,1,.8.4.2.8.3,1.2.4.7.2,1.5.3,2,.1.6-.2.9-.5,1.1-.8.2-.3.2-.5.2-.5Z"/><path class="cls-2" d="M563.8,169.2s-.1,0-.3,0c-.2,0-.5.2-.8.6-.3.3-.5.8-.5,1.4,0,.6.2,1.3.4,2h0c0,.1-.1.1-.1.1-.8,0-1.7.3-2.5.9-.8.6-1.3,1.6-1.2,2.7,0,1,.5,1.9,1.2,2.4l.3.2h-.3c-1.1,0-2.1.7-2.7,1.4-.6.7-.8,1.6-.8,2.3,0,.7.2,1.3.3,1.6.2.4.3.5.3.5,0,0,0,0-.1-.1,0,0-.1-.2-.2-.4-.2-.3-.4-.9-.4-1.6,0-.7.2-1.6.8-2.4.6-.8,1.6-1.4,2.8-1.5v.2c-.8-.5-1.3-1.5-1.4-2.6,0-.6,0-1.1.3-1.6.2-.5.6-.9,1-1.2.8-.6,1.8-.9,2.6-1h0c-.2-.6-.4-1.3-.4-1.9,0-.6.2-1.2.5-1.5.3-.3.6-.5.9-.6.1,0,.2,0,.3,0,0,0,0,0,0,0Z"/><path class="cls-2" d="M577.8,184.3s0,0-.1,0c0,0-.2.1-.4.2-.3.2-.8.3-1.5.4-.6,0-1.5,0-2.3-.1-.9-.2-1.8-.7-2.6-1.5h.2c-.6,1.1-1.7,2.2-3.2,2.4-1.6.3-3.2-.5-3.8-1.7h.2c-.2.5-.5.9-.8,1.3-.4.3-.8.6-1.2.8-.8.3-1.6.4-2.2.4-.6,0-1.1,0-1.5-.1-.3,0-.5,0-.5-.1,0,0,.2,0,.5,0,.3,0,.8,0,1.5,0,.6,0,1.4,0,2.2-.4.8-.3,1.6-1,1.8-2v-.3c0,0,.2.2.2.2.6,1.1,2.1,1.9,3.6,1.6,1.4-.3,2.5-1.3,3-2.3h0c0-.1.1,0,.1,0,.7.8,1.6,1.2,2.5,1.4.8.2,1.6.3,2.3.2,1.3-.2,1.9-.6,1.9-.6Z"/><path class="cls-2" d="M570.8,195.5s0,0,0,.1c0,0-.2.2-.4.2-.4,0-1,0-1.6-.2-.7-.2-1.4-.7-2-1.4-.5-.8-.9-1.8-.7-2.9h0s.2,0,.2,0c-.9.5-2,.7-2.9.6-.9,0-1.7-.5-2.3-.8-.6-.4-1-.8-1.2-1.1-.3-.3-.4-.5-.4-.5,0,0,.5.7,1.7,1.4.6.3,1.3.7,2.2.8.9,0,1.9,0,2.8-.6h.2c0-.1,0,.1,0,.1h0c-.1,1,.2,2,.7,2.8.5.7,1.2,1.2,1.9,1.4.6.2,1.2.3,1.6.2.4,0,.5-.3.5-.3Z"/><path class="cls-2" d="M547.7,170.4c0,0-.4.9-.2,2.3,0,.7.3,1.5.9,2.3.5.8,1.4,1.4,2.4,1.8.6.2,1.2.3,1.7.3h.1s0,.1,0,.1c-.2.8-.2,1.7-.1,2.4.1.7.3,1.3.5,1.8.1.2.2.5.3.6.1.2.3.3.4.3.1,0,.2,0,.3-.1,0,0,0,0,0,0,0,0,0,0,0,.1,0,0-.2.2-.3.2-.2,0-.4-.1-.5-.3-.1-.2-.3-.4-.4-.6-.3-.5-.5-1.1-.6-1.9-.1-.7-.1-1.6,0-2.5h.1c-.6.1-1.2,0-1.8-.2-1-.4-1.9-1.1-2.4-1.9-.5-.8-.8-1.7-.8-2.4,0-.7,0-1.3.1-1.7,0-.2.1-.3.1-.4,0,0,0-.1,0-.1Z"/><path class="cls-2" d="M469.8,420.3l1.9,21.3s-20.9,8.6-20.9,12.6l41.3-1.7-1.6-33.3-20.7,1.1Z"/><path class="cls-14" d="M484.1,439.2c.8.2,1.4,1.1,1.3,1.9-.1.8-1,1.4-1.9,1.3-.8-.2-1.6-1.2-1.3-2,.2-.8,1.3-1.5,2.1-1.1"/><path class="cls-3" d="M492.1,452.4v-2.7c-.1,0-40.2,2.5-40.2,2.5,0,0-1.3.9-1.3,2.1l41.5-2Z"/><path class="cls-3" d="M471.3,441.7c0,.2,1,.2,2.1.8,1.1.6,1.6,1.4,1.8,1.3.2,0-.2-1.3-1.4-2-1.3-.7-2.5-.4-2.4-.2Z"/><path class="cls-3" d="M467,443.8c0,.2.9.5,1.6,1.3.8.8,1,1.7,1.2,1.7.2,0,.3-1.2-.7-2.2-.9-1-2.1-1-2.1-.8Z"/><path class="cls-3" d="M464.8,449.2c.2,0,.4-1-.2-2.1-.6-1.1-1.6-1.5-1.6-1.3-.1.2.5.7,1,1.6.5.9.6,1.7.8,1.8Z"/><path class="cls-3" d="M471.4,436.8c0,.2,1-.1,2.2-.1,1.2,0,2.1.3,2.2.2.1-.2-.8-.9-2.2-.9-1.4,0-2.3.7-2.2.8Z"/><path class="cls-3" d="M470.4,432.3c0,0,.8.2,2.1-.1.6-.1,1.4-.4,2.1-.8.4-.2.8-.4,1.2-.7.2-.1.4-.3.6-.5.2-.2.3-.8,0-1.1-.2-.3-.6-.4-.9-.4-.3,0-.6,0-.8.1-.5.1-.9.3-1.3.5-.8.4-1.4.9-1.9,1.4-.9.9-1.2,1.7-1.1,1.8,0,0,.5-.6,1.5-1.4.5-.4,1.1-.8,1.8-1.1.4-.2.8-.3,1.2-.4.4-.1.8-.2.9,0,0,0,0,.1,0,.2,0,.1-.3.3-.4.4-.4.3-.7.5-1.1.7-.7.4-1.4.7-2,.9-1.2.4-2,.5-2,.6Z"/><path class="cls-2" d="M426.3,377.8l-11.4,18.1s-21.8-5.9-24.3-2.7l33.9,23.7,19-27.4-17.1-11.7Z"/><path class="cls-14" d="M426.2,401.5c.5.6.5,1.7-.1,2.3-.6.6-1.7.5-2.3-.1-.6-.6-.5-1.9.1-2.4.7-.5,1.9-.4,2.3.4"/><path class="cls-3" d="M424.5,416.8l1.5-2.2-33.3-22.4s-1.5,0-2.3.9l34.2,23.7Z"/><path class="cls-3" d="M414.5,395.8c-.1.2.7.8,1.1,1.9.5,1.1.4,2.1.6,2.2.2,0,.6-1.1,0-2.4-.6-1.3-1.7-1.8-1.8-1.7Z"/><path class="cls-3" d="M409.9,394.8c-.2.1.4.9.5,2,.1,1.1-.3,2,0,2.1.1.1.9-.8.8-2.1-.1-1.4-1.1-2.1-1.2-2Z"/><path class="cls-3" d="M404.9,397.7c.1.1.9-.5,1.1-1.8.2-1.2-.3-2.1-.5-2-.2,0,0,.9-.2,1.9-.2,1-.6,1.7-.4,1.9Z"/><path class="cls-3" d="M417.6,391.9c0,.2.9.5,1.8,1.2.9.7,1.4,1.5,1.6,1.4.2,0-.1-1.2-1.2-2-1.1-.8-2.2-.8-2.2-.7Z"/><path class="cls-3" d="M419.6,387.7c0,0,.5.6,1.7,1.2.6.3,1.3.5,2.2.7.4,0,.9.1,1.4.2.2,0,.5,0,.8,0,.3,0,.7-.4.7-.8,0-.4-.2-.7-.5-.9-.2-.2-.5-.3-.7-.4-.4-.2-.9-.3-1.3-.4-.9-.2-1.7-.1-2.3,0-1.3.2-2,.6-2,.7,0,.1.8-.2,2-.2.6,0,1.3,0,2.1.2.4,0,.8.2,1.2.4.4.2.7.4.7.6,0,0,0,.1-.2.2-.1,0-.4,0-.6,0-.4,0-.9,0-1.3-.1-.8-.1-1.5-.3-2.1-.5-1.2-.4-1.9-.8-1.9-.7Z"/><path class="cls-3" d="M530.4,319.3c-.8,0,3.1,10.7-25.3,14.5-28.4,3.8-39.1,7.9-44.5,14.7-5.4,6.8,8.6,83.5,8.6,83.5l22.8-.8s-1.5-38.1-2-43.6c-.5-5.4-4.3-19.6-4.3-19.6h0l60,.6c.4,0,.7,0,1,0,13.4-.4,23.8-17.6,22.7-31l-1.3-7.2-37.8-11.1Z"/><path class="cls-3" d="M529.9,324.5s-27.8-7.8-42.7-9.2c-14.9-1.4-23.5,1.1-26,3.8-5.9,6.4-44.6,69.2-44.6,69.2l20.7,14.2s34-48.1,43.5-60.8l3.3-3.9,46.3-6.4-.4-7Z"/><path class="cls-2" d="M526.4,329.5s0,0-.2,0c-.2,0-.4,0-.6.1-.6.1-1.3.3-2.3.5-2.1.4-5,1-8.6,1.8-7.3,1.5-17.3,3.5-28.4,5.7-.8.2-1.6.3-2.3.5h.1c-4.2,9.9-10.2,17.7-15,22.7-2.4,2.5-4.5,4.4-6.1,5.6-.8.6-1.3,1-1.8,1.4-.2.1-.3.3-.5.3-.1,0-.2.1-.2.1,0,0,0,0,.1-.1.1,0,.3-.2.4-.4.4-.3,1-.8,1.7-1.4,1.5-1.2,3.6-3.1,6-5.6,2.4-2.5,5-5.7,7.6-9.6,2.6-3.8,5.2-8.3,7.2-13.2h0c0,0,0-.1,0-.1.7-.1,1.5-.3,2.3-.5,11.1-2.2,21.1-4.1,28.4-5.6,3.6-.7,6.6-1.3,8.6-1.6,1-.2,1.8-.3,2.3-.4.3,0,.5,0,.6-.1.1,0,.2,0,.2,0Z"/><path class="cls-10" d="M570.5,318.5l-1.4-5.6s-1.5-28.2-1.9-46.3c-.4-18-12.2-26.8-12.2-26.8l-2.2-5.2-23.5,7.5.2,7.4-10.4,16.8c-3,7.2-4,11.4-1.4,19.9l6.2,25.8-6.5,9.2,54.7,16.8c.4-8.5.5-11.3-1.6-19.5Z"/><path class="cls-3" d="M523.6,312c0,0,6.1,1.7,13.6,4.1,7.5,2.3,13.5,4.3,13.5,4.4,0,0-6.1-1.7-13.6-4.1-7.5-2.3-13.5-4.3-13.5-4.4Z"/><path class="cls-3" d="M531.1,311.9c0-.1,3.7-.5,8.3-.9,4.6-.4,8.3-.7,8.3-.6,0,.1-3.7.5-8.3.9-4.6.4-8.3.7-8.3.6Z"/><path class="cls-14" d="M564.9,373h4.4c2.3,0,4.3-1.7,4.5-4,.9-7.2,2.6-27.2,2.6-27.4l-3.1-.3c0,.2-1.7,20.1-2.6,27.3,0,.7-.7,1.3-1.4,1.3h-4.4v3.1Z"/><path class="cls-3" d="M564.9,373s0,0,0-.2c0-.2,0-.4,0-.6,0-.6,0-1.4,0-2.4h0c0,0,0,0,0,0,.7,0,1.5,0,2.4,0,.5,0,.9,0,1.5,0,.3,0,.5,0,.8,0,.2,0,.5-.2.7-.4.2-.2.3-.4.4-.7,0-.3,0-.6,0-.9,0-.6.1-1.2.2-1.9.1-1.3.2-2.7.4-4.1.5-5.8,1.2-12.8,1.9-20.4v-.2s.2,0,.2,0c.7,0,1.5.1,2.3.2.3,0,.6,0,.8,0h.2s0,.2,0,.2c-1,10.6-2,20.2-2.6,27.1-.1,1.8-1.3,3.2-2.6,3.8-.6.3-1.3.5-1.9.5-.6,0-1.1,0-1.6,0-1,0-1.7,0-2.2,0-.2,0-.4,0-.6,0-.1,0-.2,0-.2,0,0,0,0,0,.2,0,.2,0,.3,0,.6,0,.5,0,1.3,0,2.2,0,.9,0,2.2.1,3.4-.5,1.2-.6,2.3-1.9,2.4-3.7.6-7,1.5-16.5,2.5-27.1l.2.2c-.3,0-.5,0-.8,0-.8,0-1.6-.1-2.3-.2l.2-.2c-.7,7.6-1.4,14.6-2,20.4-.1,1.5-.3,2.8-.4,4.1,0,.6-.1,1.3-.2,1.9,0,.3,0,.6,0,.9,0,.3-.2.6-.4.8-.2.2-.5.4-.8.4-.3,0-.6,0-.8,0-.5,0-1,0-1.5,0-.9,0-1.7,0-2.4,0h0c0,.9,0,1.7,0,2.2,0,.3,0,.5,0,.6,0,.1,0,.2,0,.2Z"/><polygon class="cls-2" points="495.3 373.9 484.7 452.7 488.8 452.7 504.6 376.8 495.3 373.9"/><path class="cls-3" d="M495.3,373.9s.2,0,.6.2c.4.1,1,.3,1.8.5,1.6.5,3.9,1.2,7,2.1h0s0,.1,0,.1c-2.8,13.6-8.6,41.7-15.3,74.1-.1.6-.3,1.2-.4,1.8v.2h-.2c-1.5,0-2.8,0-4.2,0h-.2s0-.2,0-.2c3-22.1,5.7-41.8,7.7-56,1-7.1,1.8-12.8,2.3-16.7.3-1.9.5-3.5.6-4.5,0-.5.1-.9.2-1.2,0-.3,0-.4,0-.4,0,0,0,.1,0,.4,0,.3,0,.7-.1,1.2-.1,1.1-.3,2.6-.6,4.6-.5,4-1.3,9.7-2.2,16.8-1.9,14.2-4.5,33.8-7.5,55.8l-.2-.2c1.3,0,2.7,0,4.2,0l-.2.2c.1-.6.2-1.2.4-1.8,6.8-32.4,12.7-60.4,15.5-74h0c-3-.9-5.3-1.6-6.9-2.1-.8-.3-1.4-.4-1.8-.6-.4-.1-.6-.2-.6-.2Z"/><path class="cls-2" d="M494.8,376.8h70.2c2.6,0,4.7-2.1,4.7-4.7h0c0-2.6-2.1-4.7-4.7-4.7h-70.2c-2.6,0-4.7,2.1-4.7,4.7h0c0,2.6,2.1,4.7,4.7,4.7Z"/><path class="cls-2" d="M580.1,344l9.6-75.2c.3-2.6-1.5-5-4.1-5.3h0c-2.6-.3-5,1.5-5.3,4.1l-9.6,75.2c-.3,2.6,1.5,5,4.1,5.3h0c2.6.3,5-1.5,5.3-4.1Z"/><polygon class="cls-2" points="564.3 373.9 575.2 453.3 570.6 453.4 554.9 376.8 564.3 373.9"/><path class="cls-3" d="M494.3,376.8c0-.1,16.1-.2,35.9-.2s35.9,0,35.9.2-16.1.2-35.9.2-35.9,0-35.9-.2Z"/><path class="cls-15" d="M466.3,315.2l3.6-5.5,5.8-2.9.2-.2c1.9-1.4,4.3-1.8,6.6-1.2,2.4.6,5.6,1.4,8.3,1.9l6.3-1.7v12.3l-31.8-2,.8-.6Z"/><path class="cls-9" d="M466.6,314.8s.5-.5,1.3-1.2c.9-.7,2.1-1.7,3.4-2.7.4-.3.9-.7,1.3-1h0s0,0,0,0c1.3-.2,2.4-.4,3.2-.6.8-.1,1.3-.2,1.3-.1,0,0-.5.2-1.3.4s-1.9.4-3.2.7h0c-.4.3-.8.6-1.3,1-1.3,1.1-2.6,2-3.5,2.6-.9.7-1.5,1-1.5,1Z"/><path class="cls-9" d="M469,315.9c0,0,2-1.3,4.6-2.8.4-.2.8-.4,1.1-.6h0s0,0,0,0c2.3-.1,4.1-.2,4.1,0,0,0-1.7.3-4,.5h0c-.4.2-.7.4-1.1.6-2.6,1.4-4.7,2.5-4.8,2.4Z"/><path class="cls-2" d="M429.4,280.4c1.1-.6,2.4-.3,3.1.7l25.6,34.6,40.5.5c1.6,0,3.6,3.4,2.1,4.9l-45.7-.6-26.4-36.7c-.8-1.2-.5-2.8.8-3.5Z"/><path class="cls-3" d="M429.4,280.4s0,0-.2.1c-.1,0-.3.2-.5.5-.4.4-.8,1.4-.4,2.5.3.5.7,1,1.1,1.6.4.6.9,1.2,1.3,1.9,1,1.4,2.1,2.9,3.3,4.7,5,7,12.2,17,20.8,29h0c0,0,0,0,0,0,13.2.2,28.5.4,44.9.6.3,0,.6,0,.8,0h0s0,0,0,0c.4-.4.6-1.1.6-1.6,0-.6-.2-1.1-.4-1.6-.2-.5-.6-1-1-1.3-.4-.4-.9-.7-1.5-.7-2.1,0-4.2,0-6.3,0-4.1,0-8.2-.1-12.1-.2-7.8,0-15.2-.2-22-.3h.1c-8.3-11.1-15.3-20.5-20.1-27-2.4-3.3-4.3-5.8-5.7-7.6-.8-.9-1.7-.9-2.3-.8-.6.1-.8.3-.8.3,0,0,.3-.2.8-.3.5,0,1.5,0,2.2.8,1.3,1.8,3.2,4.4,5.6,7.6,4.8,6.6,11.7,16,20,27.2h0c0,0,0,0,0,0,6.8,0,14.2.2,22,.3,3.9,0,8,.1,12.1.2,2.1,0,4.1,0,6.2,0,.5,0,.9.3,1.3.6.4.3.7.8.9,1.2.4.9.6,2,0,2.8h.2c-.3,0-.5,0-.8,0-16.3-.2-31.7-.4-44.9-.6h.2c-8.6-11.8-15.8-21.8-20.9-28.8-1.3-1.7-2.4-3.3-3.4-4.7-.5-.7-1-1.3-1.4-1.9-.4-.6-.8-1.1-1.1-1.6-.5-1.1,0-2,.3-2.4.4-.5.7-.6.7-.6Z"/><path class="cls-10" d="M493.6,304.1l42.4-8.9,1.1-36.8s1.5-15,9-16.4l18.1,22.5c-1,11.4,0,32.9-5.3,41.1-5.2,8.3-10.3,14.9-23.2,14.3-12.9-.6-41.2-.9-41.2-.9l-1-15.1Z"/><path class="cls-3" d="M535.9,295.4c-.1,0,.9,1.4,1.8,3.3.9,1.8,1.2,3.5,1.4,3.5.1,0,0-1.7-1-3.6-.9-1.9-2.1-3.2-2.2-3.1Z"/><g class="cls-8"><path d="M537.4,256.8c-4.2,13-3.3,33.1-11.4,40.5l10-2.1s-.3-3.9,0-7.1c.8-10.3.9-20.8,1.5-31.3"/></g><path class="cls-3" d="M538.3,252.2s-.4,1-.7,3c-.2,1-.4,2.2-.5,3.6-.1,1.4-.2,3.1-.2,5-.2,7.5-.6,18.3-1,31.4v-.2c-12,2.5-26.5,5.5-42.3,8.8h-.2s0,.2,0,.2c.3,4.8.6,9.9,1,15.1v.2s.2,0,.2,0c1.6,0,3.4,0,5.2,0,7.4,0,14.6.2,21.5.4,3.5,0,6.9.2,10.2.3,3.3,0,6.6.4,9.8-.1,1.6-.2,3.1-.7,4.6-1.2,1.4-.6,2.8-1.3,4.1-2.2,2.5-1.8,4.4-4.1,6.1-6.4.8-1.2,1.6-2.3,2.3-3.5l.5-.9c.2-.3.3-.6.5-.9.2-.3.3-.6.5-.9.1-.3.2-.6.4-.9,1-2.5,1.5-5,1.9-7.4.8-4.8,1-9.2,1.2-13,.2-3.8.3-7.1.4-9.8,0-2.7.2-4.8.3-6.2,0-.7,0-1.2.1-1.6,0-.4,0-.6,0-.6,0,0,0,.2,0,.5,0,.4,0,.9-.1,1.6-.1,1.4-.2,3.5-.3,6.2-.1,2.7-.2,6-.4,9.8-.2,3.8-.5,8.2-1.3,13-.4,2.4-1,4.9-1.9,7.3-.1.3-.2.6-.4.9-.2.3-.3.6-.5.9-.2.3-.3.6-.5.9l-.6.9c-.7,1.2-1.5,2.3-2.3,3.5-1.7,2.3-3.6,4.5-6.1,6.3-1.2.9-2.6,1.6-4,2.2-1.4.5-3,1-4.5,1.2-3.1.5-6.4.2-9.8,0-3.3-.1-6.8-.2-10.2-.3-7-.2-14.2-.3-21.5-.4-1.8,0-3.5,0-5.2,0l.2.2c-.3-5.2-.7-10.3-1-15.1l-.2.2c15.8-3.3,30.3-6.3,42.4-8.9h.1s0-.2,0-.2c.4-13.1.7-23.9.9-31.5,0-1.9,0-3.5.2-5,.1-1.4.3-2.7.5-3.6.2-1,.3-1.7.5-2.2,0-.2.1-.4.1-.6,0-.1,0-.2,0-.2Z"/><path class="cls-14" d="M646.5,377.2h4.3c2.3,0,4.2-1.7,4.5-4,.9-7.1,2.6-26.8,2.6-27l-3.1-.3c0,.2-1.7,19.9-2.6,26.9,0,.7-.7,1.2-1.4,1.2h-4.3v3.1Z"/><path class="cls-3" d="M646.5,377.2s0,0,0-.2c0-.2,0-.4,0-.6,0-.5,0-1.3,0-2.3h0c.7,0,1.5,0,2.4,0,.5,0,.9,0,1.4,0,.3,0,.5,0,.8,0,.3,0,.6-.2.8-.4.2-.2.4-.5.4-.8,0-.3,0-.6,0-.9,0-.6.1-1.2.2-1.9.1-1.3.3-2.6.4-4.1.6-5.8,1.2-12.7,2-20.2l-.2.2c.7,0,1.5.1,2.3.2.3,0,.5,0,.8,0l-.2-.2c-1,10.5-1.9,19.9-2.5,26.8-.1,1.7-1.2,3-2.4,3.6-1.2.6-2.4.5-3.4.5-.9,0-1.7,0-2.2,0-.2,0-.4,0-.6,0-.1,0-.2,0-.2,0,0,0,0,0,.2,0,.1,0,.3,0,.6,0,.5,0,1.3,0,2.2,0,.5,0,1,0,1.6,0,.6,0,1.2-.2,1.9-.5,1.2-.6,2.4-2,2.5-3.8.7-6.9,1.6-16.3,2.6-26.8v-.2s-.2,0-.2,0c-.3,0-.5,0-.8,0-.8,0-1.6-.1-2.3-.2h-.2s0,.2,0,.2c-.7,7.5-1.4,14.4-1.9,20.2-.1,1.4-.3,2.8-.4,4.1,0,.6-.1,1.3-.2,1.9,0,.3,0,.6,0,.9,0,.3-.2.5-.4.7-.2.2-.4.3-.6.4-.2,0-.5,0-.8,0-.5,0-1,0-1.4,0-.9,0-1.7,0-2.4,0h0s0,0,0,0c0,1,0,1.8,0,2.3,0,.2,0,.4,0,.6,0,.1,0,.2,0,.2Z"/><path class="cls-2" d="M577.3,381h69.3c2.6,0,4.7-2.1,4.7-4.7h0c0-2.6-2.1-4.7-4.7-4.7h-69.3c-2.6,0-4.7,2.1-4.7,4.7h0c0,2.6,2.1,4.7,4.7,4.7Z"/><path class="cls-2" d="M661.5,348.6l9.5-74.2c.3-2.6-1.5-4.9-4-5.2h0c-2.6-.3-4.9,1.5-5.2,4l-9.5,74.2c-.3,2.6,1.5,4.9,4,5.2h0c2.6.3,4.9-1.5,5.2-4Z"/><polygon class="cls-2" points="577.7 378.1 567.6 453.4 571.7 453.4 587 381 577.7 378.1"/><polygon class="cls-2" points="645.8 378.1 656.2 453.4 652.1 453.4 636.6 381 645.8 378.1"/><path class="cls-3" d="M574.8,381c0,.1,16.3.2,36.4.2s36.4,0,36.4-.2-16.3-.2-36.4-.2-36.4,0-36.4.2Z"/><path class="cls-14" d="M646.2,222.1c1.5-4.2,3.1-8.5,3.9-13,.8-4.4.8-9.1-.6-13.4-.2-.6-2.1-5-2.8-5-.5,0,.6,4.1.4,4.5-2.5,3.9-3.3,8.8-3.1,13.4.2,4.7,1,8.9,2.2,13.4"/><path class="cls-15" d="M644.8,246.1l1.6-41c.8-11.3-4.3-21.4-15.6-21.9h-1.2c-10.4.2-19,8.4-19.7,18.8-.6,9.8-1.2,20.8-1,26.1.3,10.9,11.2,12.4,11.2,12.4,0,0-.5,7.9-.5,11.1,0,0,1.2.8,11.3,1.2,10.1.4,13.9-6.6,13.9-6.6Z"/><path class="cls-9" d="M620.1,240.5s6.9.3,14.1-4.4c0,0-3.3,8-14.2,7.2v-2.7Z"/><path class="cls-3" d="M613.2,213c0,.8.7,1.5,1.5,1.5.9,0,1.6-.6,1.6-1.4,0-.8-.7-1.5-1.5-1.5-.9,0-1.6.6-1.6,1.4Z"/><path class="cls-3" d="M612.7,208c.2.2,1.4-.7,3-.7,1.7,0,2.9.8,3.1.6,0,0-.1-.5-.7-.8-.5-.4-1.4-.7-2.5-.7-1,0-1.9.4-2.4.8-.5.4-.7.8-.6.9Z"/><path class="cls-3" d="M627.2,213.1c0,.8.7,1.5,1.5,1.5.9,0,1.6-.6,1.6-1.4,0-.8-.7-1.5-1.5-1.5-.9,0-1.6.6-1.6,1.4Z"/><path class="cls-3" d="M627.9,208.3c.2.2,1.4-.7,3-.7,1.7,0,2.9.8,3.1.6,0,0-.1-.5-.7-.8-.5-.4-1.4-.7-2.5-.7-1,0-1.9.4-2.4.8-.5.4-.7.8-.6.9Z"/><path class="cls-3" d="M622.8,221.2c0,0-1-.3-2.7-.4-.4,0-.8-.1-.9-.4-.1-.3,0-.8.3-1.3.4-1,.8-2.1,1.2-3.3,1.7-4.7,2.9-8.5,2.7-8.5-.2,0-1.7,3.7-3.4,8.3-.4,1.1-.8,2.2-1.2,3.3-.2.5-.4,1-.2,1.7.1.3.4.5.7.6.3,0,.5,0,.7,0,1.7,0,2.7,0,2.7,0Z"/><path class="cls-14" d="M627.6,202.8c.2.4,1.8,0,3.8.1,2,0,3.6.4,3.8,0,0-.2-.2-.6-.9-1-.7-.4-1.7-.7-2.9-.7-1.2,0-2.2.3-2.9.6-.7.4-1,.7-.9,1Z"/><path class="cls-14" d="M612,202.2c.3.4,1.7.1,3.3.2,1.6,0,2.9.5,3.3.1.2-.2,0-.6-.6-1-.6-.4-1.5-.8-2.6-.8-1.1,0-2.1.2-2.7.5-.6.3-.8.7-.7.9Z"/><path class="cls-15" d="M645.7,213.1c.2,0,7.4-2.3,7.3,5.1-.1,7.4-7.5,5.8-7.6,5.6,0-.2.2-10.7.2-10.7Z"/><path class="cls-9" d="M647.9,221s.1,0,.3.2c.2.1.6.2,1,0,.8-.3,1.5-1.5,1.5-2.9,0-.7-.1-1.3-.3-1.9-.2-.5-.6-.9-1-1-.4,0-.7.1-.8.3-.1.2,0,.4,0,.4,0,0-.2-.1,0-.4,0-.1.1-.3.3-.5.2-.1.4-.2.7-.2.6,0,1.1.6,1.3,1.2.3.6.5,1.3.4,2.1,0,1.5-.9,2.9-1.9,3.2-.5.1-1,0-1.2-.2-.2-.2-.3-.4-.2-.4Z"/><path class="cls-14" d="M615,190c-1.2-.7,2.5-4.5,5.5-5.8,4.5-1.9,11.4-3,15.5-1.7,4.9,1.5,9,4.1,11.4,8.7,2.4,4.6,3.2,9.9,2.9,15,0,1.6-.3,3.2-1.2,4.5-1.1,1.6-3.1,2.6-3.1,4.9,0,.8-.2,1.7-.8,2.3-1.4,1.4-3,0-3.8-1.4-1.6-2.9-1.7-6.4-1.7-9.8,0-2.4,0-4.8.6-7.1.4-1.2,1-2.4,1.3-3.6.3-1.2.3-2.7-.4-3.7-.1-.2-.3-.4-.6-.6-2.1-1.9-5-2.5-7.7-1.6-4.2,1.4-11.4,3.4-13.3,2-2.6-2.1-3.2-3.5-3.2-3.5l-1.5,1.5Z"/><path class="cls-3" d="M621.7,225.7c0,.1.4.4,1.1.5.7,0,1.8,0,2.9-.5,1-.5,1.8-1.3,2.2-1.9.4-.6.5-1.1.4-1.2-.2-.1-1.1,1.3-3,2.2-1.8.9-3.5.7-3.6.9Z"/><path class="cls-9" d="M630.8,222.7s.1-.2,0-.6c0-.3-.3-.8-.8-1.1-.5-.3-1-.3-1.3-.3-.3,0-.5.2-.5.2,0,0,.8-.2,1.6.4.8.5.9,1.4.9,1.4Z"/><path class="cls-2" d="M531.3,419.2l.8,22.5s-22.5,7.9-22.7,12.1l43.5.5.2-35.1h-21.8Z"/><path class="cls-14" d="M545.3,439.9c.9.2,1.4,1.2,1.2,2.1-.2.9-1.2,1.5-2,1.2-.9-.2-1.6-1.3-1.3-2.2.3-.8,1.5-1.5,2.2-1.1"/><path class="cls-3" d="M552.9,454.3v-2.8s-42.3.3-42.3.3c0,0-1.4.9-1.5,2.2l43.8.3Z"/><path class="cls-3" d="M531.7,441.9c0,.2,1.1.3,2.1,1,1.1.7,1.6,1.6,1.8,1.5.2,0-.1-1.3-1.4-2.1-1.3-.8-2.6-.6-2.5-.4Z"/><path class="cls-3" d="M527.1,443.8c0,.2.9.6,1.6,1.5.8.9.9,1.9,1.2,1.9.2,0,.4-1.2-.6-2.3-.9-1.1-2.2-1.2-2.2-1Z"/><path class="cls-3" d="M524.4,449.3c.2,0,.5-1,0-2.2-.5-1.2-1.6-1.6-1.6-1.5-.1.2.5.8,1,1.8.5,1,.5,1.9.7,1.9Z"/><path class="cls-3" d="M532.1,436.7c0,.2,1.1,0,2.3,0,1.2,0,2.2.5,2.3.3.1-.2-.8-1-2.2-1-1.4,0-2.4.6-2.3.8Z"/><path class="cls-3" d="M531.3,431.9c0,0,.8.2,2.2,0,.7-.1,1.5-.3,2.3-.7.4-.2.8-.4,1.3-.7.2-.1.4-.3.7-.5.2-.2.4-.8,0-1.1-.2-.3-.6-.5-.9-.5-.3,0-.6,0-.8.1-.5.1-.9.3-1.4.5-.8.4-1.5.9-2,1.3-1,.9-1.4,1.7-1.3,1.8,0,0,.6-.6,1.6-1.4.5-.4,1.2-.8,2-1.1.4-.2.8-.3,1.3-.4.5-.1.9-.1,1,0,0,0,0,.1,0,.2-.1.1-.3.2-.5.4-.4.3-.8.5-1.2.7-.8.4-1.5.6-2.1.8-1.3.4-2.1.4-2.1.5Z"/><path class="cls-2" d="M512.6,375.7l-10.6,19.8s-23.4-4.5-25.7-1l37.4,22.3,17.8-30.2-18.9-10.9Z"/><path class="cls-14" d="M514.3,400.6c.6.6.6,1.8,0,2.4-.6.6-1.7.7-2.4,0-.6-.6-.7-2,0-2.5.7-.6,2-.5,2.5.2"/><path class="cls-3" d="M513.7,416.8l1.4-2.4-36.7-20.9s-1.6,0-2.4,1.1l37.7,22.2Z"/><path class="cls-3" d="M501.6,395.4c-.1.2.8.8,1.3,1.9.6,1.1.6,2.2.8,2.2.2,0,.6-1.2-.1-2.6-.7-1.4-1.9-1.8-2-1.6Z"/><path class="cls-3" d="M496.6,394.8c-.1.2.5.9.6,2.1.2,1.1-.1,2.1,0,2.2.2.1.9-.9.7-2.3-.2-1.4-1.3-2.1-1.4-2Z"/><path class="cls-3" d="M491.6,398.2c.1.1.9-.6,1.1-1.9.1-1.3-.5-2.2-.7-2.1-.2,0,0,1,0,2,0,1.1-.5,1.9-.3,2Z"/><path class="cls-3" d="M504.5,391.1c0,.2,1,.5,2,1.1,1,.7,1.6,1.5,1.8,1.4.2,0-.2-1.2-1.4-2-1.2-.8-2.4-.7-2.4-.5Z"/><path class="cls-3" d="M506.3,386.6c0,0,.6.6,1.9,1.1.6.2,1.4.4,2.3.5.5,0,.9,0,1.4,0,.2,0,.5,0,.8-.1.3,0,.7-.5.7-.9,0-.4-.3-.7-.6-.9-.3-.2-.5-.2-.8-.3-.5-.1-1-.2-1.4-.3-.9,0-1.8,0-2.4.1-1.4.3-2.1.8-2,.9,0,.1.8-.2,2.1-.4.6,0,1.4,0,2.3,0,.4,0,.9.2,1.3.3.5.1.8.3.8.6,0,0,0,.1-.2.2-.2,0-.4,0-.6,0-.5,0-.9,0-1.3,0-.9,0-1.6-.2-2.3-.4-1.3-.3-2-.7-2.1-.6Z"/><path class="cls-3" d="M649.4,342.4c0-.5,0-.7,0-.7v.7Z"/><path class="cls-3" d="M650.1,342.4l-50.1-18.7s-29.6-13.8-40.3-16.8c-11.5-3.2-21.9,5.5-28.3,18.9-4.3,9.1-27.4,62.2-27.4,62.2l20.3,13.4,36.1-66,56.2,36.5s11.1-.2,21.8-.2,11.9-25,11.6-29.4Z"/><polygon class="cls-3" points="649.4 342.4 649.4 342.4 649.4 342.4 649.4 342.4"/><path class="cls-3" d="M528.5,429.9l6.3-69.6s1.2-16.2,10.6-19.4c9.3-3.2,20.3-1.9,20.3-1.9l52.3,33-53.7.9s-2.7,11.3-3.5,16.2c-.9,5.8-5.4,42.5-5.4,42.5l-26.9-1.7Z"/><path class="cls-2" d="M616.7,369.1s0,0-.2-.2c-.2-.1-.4-.3-.7-.4-.7-.4-1.6-1-2.8-1.7-2.5-1.5-6.1-3.6-10.6-6.3-4.6-2.7-10-5.9-16.2-9.6-3.1-1.8-6.4-3.8-9.8-5.8-1.7-1-3.5-2.1-5.3-3.1-1.8-1-3.7-2.1-5.6-3.1h0s0,0,0,0c-2.3,0-4.8-.1-7.3-.2h0s0,0,0,0c-3.1.2-6.3.5-9.4,1.2-.8.2-1.6.4-2.4.7-.7.4-1.5.8-2.2,1.2l-1,.7-.5.4-.5.4-.9.9c-.3.3-.6.6-.8,1-1.9,2.3-3.3,5-4.2,7.8-.9,2.8-1.4,5.6-1.6,8.4-.5,5.6-1,11-1.5,16.1-.9,10.3-1.7,19.5-2.4,27.3-.7,7.8-1.2,14.1-1.6,18.4-.2,2.2-.3,3.9-.4,5,0,.6,0,1,0,1.3,0,.3,0,.4,0,.4,0,0,0-.1,0-.4,0-.3,0-.7.1-1.3.1-1.2.3-2.8.5-5,.4-4.4,1-10.6,1.7-18.4.7-7.8,1.6-17,2.5-27.3.5-5.1,1-10.5,1.5-16.1.2-2.8.7-5.6,1.6-8.3.9-2.7,2.2-5.4,4.1-7.7.3-.3.5-.6.8-.9l.9-.8.4-.4.5-.4,1-.7c.7-.4,1.4-.8,2.1-1.2.7-.3,1.5-.5,2.3-.7,3.1-.8,6.3-1.1,9.4-1.2h0c2.5,0,5,.1,7.3.2h0c1.9,1,3.7,2.1,5.6,3.1,1.8,1.1,3.6,2.1,5.3,3.1,3.5,2,6.7,4,9.9,5.8,6.2,3.7,11.7,6.9,16.3,9.6,4.6,2.7,8.2,4.8,10.7,6.2,1.2.7,2.2,1.3,2.9,1.7.3.2.6.3.7.4.2,0,.3.1.3.1Z"/><polygon class="cls-5" points="601.7 306.9 577.3 313.5 599.9 325.8 603.2 317.1 601.7 306.9"/><g class="cls-8"><polygon points="601.7 306.9 577.3 313.5 599.9 325.8 603.2 317.1 601.7 306.9"/></g><path class="cls-5" d="M648.3,242.7s16,14.1,12.8,35.6c-3.1,21.4-5.7,57.2-8.1,61.2-2.4,3.9-3.6,3-3.6,3l-50.9-19.5,2.9-35,17.3-33.6-.2-7.9,26.6-10.9,3.1,7.3Z"/><path class="cls-5" d="M648.5,265.9c3,12.2-4.8,22.6-15.8,28.1-12.1,5.9-28.4,13.1-32.7,14.9-7,3-21.6,5.9-30.8,1.3-7.7-3.8-16.7-3.3-16.7-3.3l6.1-9.1,9.3-2.6,25.2-7.1s21.9-23.1,28.1-29.3c7-6.9,20.4-6.4,25.9,3.9.4.7,1.2,2.3,1.4,3.2Z"/><path class="cls-3" d="M648.5,265.9s0-.1,0-.3c0-.2-.2-.6-.4-1-.2-.4-.4-.9-.7-1.6-.3-.6-.8-1.3-1.2-2-1-1.4-2.5-3.1-4.7-4.5-2.2-1.3-5.1-2.3-8.4-2.4-3.3,0-7,.9-10.2,3.2-1.6,1.2-3,2.7-4.5,4.2-1.5,1.5-3,3.1-4.6,4.7-6.3,6.5-13.3,13.8-20.8,21.8h0c-10.6,2.9-22.2,6.2-34.4,9.6h0s0,0,0,0c-1.8,2.7-3.8,5.6-5.7,8.5-.1.2-.3.4-.4.6l-.2.3h.4c2,0,4.1,0,6.1.3,2,.3,4,.7,5.9,1.2,1,.3,1.9.6,2.8,1,.9.4,1.8.8,2.7,1.2.5.2.9.4,1.4.5.5.1.9.3,1.4.4,1,.2,1.9.5,2.9.6,3.9.6,7.8.4,11.5,0,3.7-.5,7.3-1.3,10.7-2.5,1.7-.6,3.3-1.3,4.9-2,1.6-.7,3.2-1.4,4.7-2.1,3.1-1.4,6.1-2.7,9-4,5.8-2.6,11.2-5.2,16-7.6,2.4-1.2,4.6-2.6,6.5-4.1,1-.7,1.8-1.6,2.7-2.4.8-.8,1.6-1.6,2.2-2.5.7-.8,1.2-1.7,1.8-2.5.2-.4.5-.9.7-1.3.1-.2.2-.4.3-.6,0-.2.2-.4.3-.6.2-.4.4-.8.5-1.2.1-.4.3-.8.4-1.2.3-.8.4-1.6.6-2.3.6-3,.4-5.4.2-6.9-.1-.8-.3-1.4-.4-1.8,0-.4-.1-.6-.1-.6,0,0,0,.2,0,.6,0,.4.2,1,.3,1.8.2,1.6.4,3.9-.3,6.9-.2.7-.3,1.5-.6,2.3-.1.4-.3.8-.4,1.2-.2.4-.4.8-.5,1.2,0,.2-.2.4-.3.6-.1.2-.2.4-.3.6-.2.4-.5.8-.7,1.3-.6.8-1.1,1.7-1.8,2.5-.6.9-1.4,1.6-2.2,2.5-.8.8-1.7,1.6-2.7,2.3-1.9,1.5-4.1,2.9-6.5,4.1-4.9,2.4-10.2,4.9-16,7.5-2.9,1.3-5.9,2.6-9,4-1.6.7-3.1,1.4-4.7,2.1-1.6.7-3.2,1.4-4.9,2-3.4,1.2-7,2-10.7,2.5-3.7.5-7.6.6-11.4,0-1-.1-1.9-.4-2.9-.6-.5-.1-.9-.3-1.4-.4-.5-.1-.9-.3-1.4-.5-.9-.4-1.8-.8-2.7-1.2-.9-.4-1.9-.7-2.9-1-1.9-.6-3.9-1-6-1.2-2-.3-4.1-.4-6.2-.3l.2.3c.1-.2.3-.4.4-.6,2-2.9,3.9-5.8,5.7-8.5h-.1c12.2-3.4,23.8-6.6,34.4-9.6h0s0,0,0,0c7.5-8,14.5-15.3,20.8-21.8,1.6-1.6,3.1-3.2,4.6-4.7,1.5-1.5,2.9-3,4.4-4.2,3.2-2.3,6.8-3.2,10.1-3.2,3.3,0,6.1,1,8.3,2.3,2.2,1.3,3.7,3,4.7,4.4.5.8.9,1.4,1.2,2,.3.6.6,1.1.7,1.5.2.4.3.7.4,1,0,.2.1.3.1.3Z"/><path class="cls-15" d="M599,316.4s1.3,9.3,1.4,10.5c.2,1.2-1.3,5.1-1.2,7.2.1,2.1.9,4.2,0,4.9-.9.7-3.1.3-3.7-1.2-.6-1.5-.5-6.2-.5-6.2l-1.1,4.3v7.9s-.2,1.2-1.6,1.2c-1.4,0-2.3-1.2-2.3-1.2,0,0-1.7.4-2.6-1.4,0,0-2.5.8-3.4-3.4,0,0-1.2.4-1.9-.7-.8-1.1-2.3-3.9-2.3-3.9,0,0-.3-10.4.4-12.7.6-2.3,6.6-8.9,6.6-8.9l9.7-1.7,2.4,5.5Z"/><path class="cls-9" d="M590.4,326s-.1.2-.3.6c-.2.4-.3,1-.5,1.8-.4,1.5-.8,3.7-.7,6.2,0,2.4.4,4.6.8,6.2.2.8.4,1.4.6,1.8.2.4.3.6.3.6,0,0-.2-1-.6-2.5-.3-1.5-.7-3.7-.7-6.1,0-2.4.3-4.6.6-6.1.3-1.5.6-2.5.6-2.5Z"/><path class="cls-9" d="M585.4,325.8s0,.2-.1.7c0,.4-.1,1-.2,1.8-.1,1.5-.3,3.6-.1,6,.2,2.3.8,4.4,1.5,5.8.3.7.7,1.2.9,1.6.3.3.4.5.4.5,0,0-.5-.8-1.1-2.2-.6-1.4-1.2-3.4-1.4-5.7-.2-2.3,0-4.4,0-5.9,0-1.5.1-2.5,0-2.5Z"/><path class="cls-9" d="M583.4,325.5c0,0,0,.7-.2,2-.1,1.2-.3,2.9-.4,4.7,0,1.9.3,3.6.7,4.7.2.6.5,1,.7,1.3.2.3.3.4.3.4,0,0-.4-.7-.8-1.8-.4-1.1-.6-2.8-.6-4.6,0-1.8.2-3.5.3-4.7,0-1.2,0-2,0-2Z"/><path class="cls-3" d="M647.1,242.6s-.1,0-.3.1c-.2.1-.5.3-.9.4-.8.4-2,1-3.3,1.6-2.8,1.4-6.8,3.2-11.2,5-3.6,1.4-7,2.6-9.7,3.6h.2c-1.2-1.7-1.9-3.3-2.3-4.5-.2-.6-.3-1-.4-1.3,0-.3-.1-.5-.2-.5,0,0,0,.2,0,.5,0,.3.2.8.3,1.4.4,1.2,1,2.9,2.2,4.7h0c0,0,.1,0,.1,0,2.7-.9,6.1-2,9.7-3.5,4.5-1.8,8.4-3.6,11.2-5.1,1.4-.7,2.5-1.3,3.3-1.7.4-.2.6-.4.9-.5.2-.1.3-.2.3-.2Z"/><path class="cls-3" d="M562.5,305.5c0,0-.4-1.4-1-3.1-.7-1.7-1.3-3-1.4-3,0,0,.4,1.4,1,3.1.7,1.7,1.3,3,1.4,3Z"/><path class="cls-3" d="M596.5,302.5c0,0,0-.6-.3-1.7-.3-1.1-.5-2.5-.9-3.9-.3-1.5-.6-2.8-.8-4-.2-1-.3-1.6-.4-1.6,0,0,0,.6.1,1.7.1,1,.4,2.4.7,4,.3,1.5.7,2.9,1,3.9.3,1,.5,1.6.6,1.6Z"/><path class="cls-3" d="M600.8,301.8s0-.6,0-1.5c-.1-.9-.4-2.2-1-3.5-.6-1.3-1.3-2.4-1.9-3.1-.6-.7-1.1-1.1-1.1-1.1,0,0,1.6,1.7,2.7,4.3,1.2,2.6,1.3,4.9,1.4,4.9Z"/><g class="cls-8"><path d="M599.7,309l-.5,5.4c8.4-3.8,17.3-7.7,25.6-11.5,4.8-2.2,9.6-4.4,13.7-7.7,4-3.3,7.3-8,7.7-13.3-14.4,10.4-30.3,19.8-46.5,27.1Z"/></g><path class="cls-2" d="M553.7,306.9s0,0-.3,0c-.2,0-.4,0-.7,0-.3,0-.7,0-1.2,0-.5,0-1,0-1.6.3-.3,0-.6.2-1,.2-.3.1-.7.3-1,.4-.4.1-.7.3-1.1.5-.4.2-.8.4-1.1.6-1.5.9-3.1,2.1-4.7,3.7-3.2,3.1-6.3,7.4-9.2,12.6-2.9,5.1-5.7,11-8,17.4-.2.5-.3.9-.5,1.3h0s0,0,0,0c-5.3,12.2-10,23.2-13.5,31.2-1.7,3.9-3.1,7.1-4.1,9.4-.5,1.1-.9,1.9-1.1,2.5-.1.3-.2.5-.3.7,0,.1-.1.2-.1.2,0,0,0,0,0-.2,0-.2.2-.4.3-.7.3-.6.6-1.5,1.1-2.6,1-2.3,2.3-5.5,4-9.5,3.4-8,8.1-19,13.4-31.3h0c.2-.4.3-.9.5-1.3,2.4-6.4,5.1-12.3,8.1-17.5,2.9-5.1,6.1-9.5,9.4-12.6,1.6-1.5,3.3-2.8,4.8-3.7.4-.2.8-.4,1.2-.6.4-.2.7-.4,1.1-.5.4-.1.7-.3,1-.4.3,0,.7-.2,1-.2.6-.2,1.2-.2,1.7-.2.5,0,.9,0,1.2,0,.3,0,.5,0,.8,0,.2,0,.3,0,.3,0Z"/><path class="cls-15" d="M276.7,117s-1.4,4.4-2.7,6.3c-1.3,1.9-2.7,2.4-3.4,5.6-.6,3.3-1.5,6.7-1.5,6.7,0,0-6.2,5.7-5.9,5.8.3,0,6.9,9.8,6.9,9.8l10.4-11.1,13.7-9.7,5.1-10.9-.5-.8.5-2.1s-1.3-2.3-3-.3c0,0,0-2.8-2.7-.7-2.7,2.2-7.6,7.7-8,7.8-.4.1-5.5,2.7-5.5,2.7h-2.6s1.8-1.5,2.2-3.6c.4-2.1,1.6-3.5.3-5-1.3-1.5-3-.5-3-.5Z"/><path class="cls-9" d="M277.3,133.3s.3-.2.8-.4c.5-.3,1.3-.6,2.3-.9,2-.6,5-1.1,8.3-1.2h0s0,0,0,0c.5-.4,1-.8,1.5-1.2.2-.2.5-.4.7-.6h0c0,0,0-.1,0-.1.3-1.3.6-2.5.8-3.6.1-.5.3-1,.7-1.3.4-.3.9-.3,1.3-.2v-.2c.2,3.6.7,5.9.8,5.9,0,0,0-.6-.2-1.6-.1-1-.2-2.5-.4-4.3h0c0-.1-.1-.2-.1-.2-.5-.2-1.2-.2-1.7.2-.5.4-.8,1-.9,1.6-.3,1.1-.6,2.3-.8,3.6h0c-.2,0-.5.3-.7.5-.5.4-1,.8-1.5,1.2h.1c-3.4,0-6.4.6-8.4,1.3-1,.3-1.8.7-2.3,1.1-.5.3-.7.6-.7.6Z"/><path class="cls-9" d="M288.2,125.4c0,0,1.9-1.9,4.1-4.4,2.2-2.5,3.8-4.6,3.7-4.7,0,0-1.9,1.9-4.1,4.4-2.2,2.5-3.8,4.6-3.7,4.7Z"/><path class="cls-9" d="M294.8,123.3c0,0,.2-.3.5-.8.3-.5.6-1.3,1.1-2,.5-.7,1.2-1.2,1.7-1.4.5-.2.9-.3.9-.4,0,0-.4-.1-1,0-.6.2-1.4.7-2,1.4-.6.8-.9,1.6-1.1,2.1-.2.6-.3.9-.2,1Z"/><path class="cls-9" d="M284.7,124.8c0,.1,1.5.3,2.9,1.4,1.4,1.1,2,2.5,2.1,2.4,0,0,0-.4-.3-1-.3-.6-.8-1.3-1.6-1.8-.8-.6-1.6-.9-2.2-1-.6-.1-1,0-1,0Z"/><path class="cls-3" d="M188.4,419.9l-1.2,21.1s21.1,8.3,21.2,12.2l-41-.8.5-32.9,20.5.4Z"/><path class="cls-14" d="M174.7,439c-.8.2-1.4,1.1-1.2,1.9.2.8,1.1,1.4,1.9,1.2.8-.2,1.5-1.2,1.3-2-.3-.8-1.3-1.4-2.1-1"/><path class="cls-2" d="M167.5,452.4l.2-3.3,39.2,2s1.8.8,1.6,2.1l-41-.8Z"/><path class="cls-6" d="M188,440.8c0,.2-1,.3-2,.9-1,.6-1.5,1.5-1.7,1.4-.2,0,.1-1.2,1.4-2,1.2-.7,2.4-.5,2.4-.3Z"/><path class="cls-6" d="M192.2,442.7c0,.2-.8.5-1.5,1.4-.7.8-.9,1.7-1.1,1.7-.2,0-.3-1.1.6-2.2.9-1,2.1-1.1,2.1-.9Z"/><path class="cls-6" d="M194.6,447.9c-.2,0-.4-1,0-2.1.5-1.1,1.5-1.5,1.6-1.3.1.2-.5.7-.9,1.6-.4.9-.5,1.7-.7,1.7Z"/><path class="cls-6" d="M187.7,436c0,.2-1-.1-2.1,0-1.1,0-2,.4-2.1.2-.1-.1.8-.9,2.1-.9,1.3,0,2.3.6,2.2.8Z"/><path class="cls-3" d="M138.8,417.8l-2.2,25.5,4.1,20.6c.3,1.5-.7,2.9-2.2,3.1h0c-.8.1-1.7-.2-2.3-.8-3.7-4-17-18.7-16.8-20.6.3-2.1.6-27,.6-27l18.9-.8Z"/><path class="cls-2" d="M138.4,467.1l-18.9-23.1v1.1c-.1.9.1,1.9.7,2.6,1.5,2,5.8,7.5,15.9,18.6.6.6,1.5,1,2.3.8h0Z"/><g class="cls-7"><path class="cls-6" d="M125.3,436.1c.6.5.8,1.5.3,2.1-.5.6-1.5.8-2.1.3-.6-.5-.8-1.6-.3-2.2.5-.6,1.7-.7,2.2,0"/></g><path class="cls-6" d="M133.3,455.5c.1,0,.8-1.2,2.4-1.8,1.5-.7,2.9-.2,3-.4,0,0-.3-.3-.9-.4-.6-.1-1.5,0-2.3.3-.9.4-1.5,1-1.8,1.5-.3.5-.4.9-.3.9Z"/><path class="cls-6" d="M134.9,459.1c.1.1,1-.7,2.3-1,1.3-.3,2.5,0,2.5-.2,0-.1-1.1-.7-2.6-.4-1.5.3-2.3,1.4-2.2,1.5Z"/><path class="cls-6" d="M130.2,450.9c.1.1,1.4-1.1,3.5-1.7,2-.7,3.8-.5,3.8-.6,0-.1-1.8-.6-4,.1-2.2.7-3.4,2.2-3.3,2.2Z"/><path class="cls-6" d="M130.2,443.1c0,.2,1.5-.3,3.3-.3,1.8,0,3.3.6,3.3.4,0-.1-1.3-1-3.3-1-2,0-3.4.7-3.4.9Z"/><path class="cls-6" d="M130.7,435.6c0,.2,1.5-.6,3.5-.4,1.9.2,3.2,1.2,3.3,1.1,0,0-.2-.4-.8-.8-.6-.4-1.5-.8-2.5-.9-1-.1-2,0-2.6.4-.6.3-.9.5-.9.6Z"/><path class="cls-6" d="M134.2,433.8s.1-.3,0-1c0-.6-.1-1.5-.6-2.6-.2-.5-.5-1.1-1.2-1.5-.3-.2-.9-.2-1.2.2-.3.3-.4.7-.5,1.1,0,1.6,1.2,3.3,3,3.6,1.8.3,3.5-.6,4.4-2,.2-.4.3-.8.1-1.2-.2-.4-.7-.7-1-.6-.8,0-1.3.5-1.7.8-.9.7-1.5,1.4-1.9,1.9-.4.5-.5.8-.4.9,0,0,.7-1.2,2.5-2.4.5-.3,1-.6,1.5-.6.3,0,.5.1.6.3,0,.2,0,.5-.1.8-.7,1.1-2.3,2-3.8,1.7-1.5-.3-2.7-1.7-2.6-3,0-.3.1-.6.3-.8.2-.2.4-.2.7,0,.5.2.8.8,1,1.3,1,1.9.8,3.4.9,3.4Z"/><path class="cls-3" d="M208.8,242.7s3.1,12,2,26.7c-.4,5.7-19.6,162.6-19.6,162.6h-25.8l7.3-147.5-2.1.5s-14.1,62.9-15.3,73.1c-1,9.2-12.9,75.7-12.9,75.7l-23.6.3,7.5-88,8.8-84.4,3.3-24.6,70.5,5.7Z"/><path class="cls-3" d="M168.5,269.5s.4.3,1.1.6c.7.3,1.8.9,3.2,1.1.7.1,1.5.2,2.4,0,.8-.2,1.8-.5,2.5-1.2.7-.7,1.2-1.6,1.5-2.6.3-1,.5-2,.7-3.1.8-4.3,1.4-8.1,1.7-11,.2-1.4.3-2.6.3-3.3,0-.8,0-1.2,0-1.2,0,0-.1.4-.2,1.2-.1.9-.3,2-.5,3.3-.4,2.8-1,6.7-1.9,10.9-.4,2.1-.7,4.2-2,5.5-1.3,1.2-3.1,1.4-4.5,1.2-1.4-.2-2.4-.7-3.2-.9-.7-.3-1.1-.4-1.2-.4Z"/><path class="cls-3" d="M176.3,249.5s-.2-.1-.5-.2c-.4,0-.9,0-1.4.5-.5.4-1.1,1.1-1.1,2,0,.9.7,1.9,1.7,2.2,1,.4,2.1.2,2.7-.6.6-.7.6-1.6.5-2.2-.2-.6-.5-1.1-.8-1.3-.3-.2-.5-.3-.5-.2,0,0,.7.4.9,1.6,0,.6,0,1.3-.5,1.8-.5.5-1.3.7-2.1.4-.8-.3-1.4-1-1.3-1.7,0-.7.4-1.3.8-1.7.9-.8,1.7-.5,1.7-.6Z"/><path class="cls-3" d="M135.3,260.1s.3,0,.9.1c.6,0,1.4,0,2.4,0,2,0,4.9-.6,7.8-1.8,2.9-1.2,5.2-2.9,6.7-4.3.8-.7,1.3-1.3,1.7-1.8.4-.4.5-.7.5-.7,0,0-.9.9-2.4,2.2-1.5,1.3-3.9,2.9-6.7,4.1-2.8,1.2-5.6,1.7-7.6,1.9-2,.2-3.3.1-3.3.2Z"/><path class="cls-3" d="M163.2,65.9c.9-1.8,3.1-2.9,5.1-2.6,2.3-1.9,6-1.9,8.3,0,1.8-1.1,4.1-1.2,5.9-.2,1.8.9,3.1,2.9,3.2,5,2.1-.4,4.3.7,5.3,2.5,1,1.8.7,4.3-.7,5.8,2.3.7,3.8,3.2,3.3,5.5-.5,2.3-2.8,4.1-5.2,3.9l-24.3-14.3c-1.5-1.4-1.9-3.8-1-5.6Z"/><path class="cls-15" d="M189.2,86.4c-1.1-10.6-10.1-18.6-20.8-18.4h-1.1c-11.4.9-17,11.1-15.8,22.5l2.4,38,1.7,4.8,19.7,24.6,5-22.2v-10.3c0,0,11-1.9,11-12.9,0-5.3-1-16.2-2-26.1Z"/><path class="cls-9" d="M180.4,125.5s-6.9.5-14.4-3.9c0,0,3.5,7.9,14.4,6.7v-2.7Z"/><path class="cls-3" d="M186.2,96.7c0,.8-.6,1.5-1.5,1.6-.9,0-1.6-.6-1.6-1.4s.6-1.6,1.5-1.6c.9,0,1.6.6,1.6,1.4Z"/><path class="cls-3" d="M187.1,92.4c-.2.2-1.4-.6-3.1-.6-1.7,0-2.9.9-3.1.7,0,0,0-.5.6-.9.5-.4,1.4-.8,2.5-.8,1.1,0,1.9.4,2.5.7.5.4.7.8.6.8Z"/><path class="cls-3" d="M171.8,97.7c0,.8-.6,1.5-1.5,1.6-.9,0-1.6-.6-1.6-1.4,0-.8.6-1.5,1.5-1.6.9,0,1.6.6,1.6,1.4Z"/><path class="cls-3" d="M171,92.5c-.2.2-1.4-.6-3.1-.6-1.7,0-2.9.9-3.1.7,0,0,0-.5.6-.9.5-.4,1.4-.8,2.5-.8,1.1,0,1.9.4,2.5.7.5.4.7.8.6.8Z"/><path class="cls-3" d="M176.8,104.9c0,0,1-.3,2.7-.6.4,0,.8-.1.9-.4,0-.3,0-.8-.3-1.3-.4-1-.9-2.1-1.3-3.3-1.9-4.6-3.2-8.5-3-8.5.2,0,1.9,3.6,3.7,8.3.4,1.1.9,2.2,1.3,3.3.2.5.5,1,.3,1.7-.1.3-.4.6-.7.6-.3,0-.5,0-.7.1-1.7.1-2.8.2-2.8,0Z"/><path class="cls-3" d="M170.9,87.7c-.2.4-1.7,0-3.4.1-1.8,0-3.2.5-3.4,0,0-.2.2-.6.8-1,.6-.4,1.5-.7,2.6-.7,1.1,0,2,.3,2.6.6.6.4.9.7.8,1Z"/><path class="cls-3" d="M186.6,87.8c-.3.4-1.5.1-2.8.3-1.4,0-2.5.5-2.9.1-.1-.2,0-.6.5-1,.5-.4,1.3-.8,2.2-.9,1,0,1.8.2,2.3.5.5.3.7.7.6.9Z"/><path class="cls-3" d="M188.1,81.4s-3-6.8-6.4-8.4c-4.1-1.9-5.7,2.6-9.5,1.6-3.8-1-7.7-2.8-11.6.3-4.2,3.3-2.2,5.6-2.3,10.4-.7,19.8-4.2,25.4-5.4,16.2-.1-1-3-1.8-3.5-6.1-.7-5.6-1-12.4.2-16.3,1-3.4,2.8-5.7,6.2-8.3,5.3-4.1,12.7-4.4,17.8-4,5,.4,14.9,6,14.6,14.6Z"/><path class="cls-15" d="M153.6,101.2c-.1-1.7-1.6-3-3.3-2.8-2,.2-4.3,1.4-4.1,5.7.4,7.5,7.8,5.6,7.8,5.3,0-.1-.3-5.1-.5-8.2Z"/><path class="cls-9" d="M152.3,106.7s-.1,0-.3.2c-.2.1-.6.2-1,0-.8-.2-1.5-1.5-1.6-2.8,0-.7,0-1.3.3-1.9.2-.6.5-1,.9-1.1.4-.1.7.1.8.3.1.2,0,.4.1.4,0,0,.2-.1,0-.4,0-.1-.1-.3-.3-.5-.2-.1-.5-.2-.7-.2-.6,0-1.1.6-1.3,1.2-.3.6-.4,1.3-.3,2.1.1,1.5,1,2.9,2.1,3.1.5.1,1,0,1.2-.3.2-.2.3-.4.2-.4Z"/><path class="cls-3" d="M153.4,86.7c1,.6,2,1.3,3.2,1.4,1.2,0,2.5-.6,2.7-1.8,0-.5,0-1.1.3-1.5.4-.5,1.2-.4,1.8-.3,2.2.2,4.4-1.4,4.9-3.5.6.8,1.9.8,2.7.2.8-.6,1.4-1.5,2-2.2.6-.8,1.6-1.5,2.6-1.3.6,0,1.1.4,1.6.3,1-.1,1.4-1.3,1.6-2.3.1-1,.2-2.1,1-2.7.8-.5,1.8-.2,2.7-.1.9.1,2.1-.1,2.3-1,.1-.5,0-1-.4-1.4-1.2-1.8-3.8-2.6-5.8-1.7-.8-2.5-3.1-4.3-5.7-4.6-2.6-.2-5.2,1.2-6.4,3.5-1.6-1.4-3.9-2-6-1.4-2.1.5-3.9,2.1-4.6,4.1-1.8-.4-3.9.3-5,1.8-1.1,1.5-1.2,3.7-.3,5.3-1.3.8-2.5,2.2-2.5,3.7,0,1.6,1.5,3.1,3,2.6-.6,1.2,0,2.9,1.1,3.5s2.8.2,3.6-.9"/><path class="cls-9" d="M172.7,107.7c-.2,0-.3-.1-.5,0-.1,0-.2.2-.3.4-.5,1.2-.3,2.6.4,3.6,0,0,0,0,0,0,1.1,1.5,3.5,1.1,4.2-.5l.6-1.3c-1-.5-3.5-1.6-4.5-2.1Z"/><path class="cls-3" d="M176.1,111.7c0,0-.5.8-1.9.9-.3,0-.8,0-1.1-.2-.4-.1-.8-.4-1-.8-.5-.7-.8-1.7-.7-2.7,0-.3,0-.5,0-.8,0-.3.1-.6.4-.8.3-.2.7,0,.9,0,.2,0,.4.2.6.3.7.4,1.4.7,2,1,1.1.6,1.8,1,1.8,1.1,0,0-.8-.2-1.9-.8-.6-.3-1.3-.6-2-.9-.4-.2-.8-.5-1-.3-.2.1-.3.7-.3,1.1,0,.9.2,1.8.6,2.5.2.3.5.5.8.7.3.2.6.2.9.2,1.2,0,1.8-.7,1.9-.6Z"/><path class="cls-2" d="M148.5,83.8s-.1.6.5,1.4c.3.4.8.8,1.5.9.7,0,1.5,0,2.1-.7h-.3c.4.6.9,1.2,1.5,1.8.4.4.9.7,1.4.8.5.2,1.1.2,1.5.1.9-.1,1.8-.7,2.1-1.3.4-.6.5-1.2.6-1.6,0-.4,0-.6,0-.6,0,0,0,.2-.2.6-.1.4-.3.9-.7,1.4-.7,1.1-3,1.7-4.5.2-.6-.5-1.1-1.1-1.5-1.7v-.2c-.1,0-.3.2-.3.2-.5.5-1.2.7-1.8.6-.6,0-1.1-.4-1.4-.7-.6-.7-.6-1.3-.7-1.3Z"/><path class="cls-2" d="M162.4,66.4s.2,0,.5.2c.3.1.8.4,1.2,1h0c0,.1.1,0,.1,0,.7-1,1.8-2.2,3.6-3,.9-.4,1.9-.7,2.9-.7,1.1,0,2.2.3,3.2.8.8.5,1.4,1.1,1.9,1.8.5.7.8,1.5.9,2.2v.2s.3,0,.3,0c1.1-.3,2.3-.1,3.1.3.9.5,1.4,1.2,1.7,1.8.6,1.3.4,2.2.5,2.2,0,0,0-.2,0-.6,0-.4,0-1-.4-1.7-.3-.7-.9-1.5-1.8-2-.9-.5-2.2-.8-3.4-.4l.3.2c0-.8-.4-1.7-.9-2.4-.5-.7-1.2-1.4-2.1-1.9-1.1-.6-2.3-.9-3.4-.9-1.1,0-2.2.3-3.1.8-1.8.9-2.9,2.2-3.6,3.2h.2c-.4-.6-1-.8-1.3-1-.4-.1-.6,0-.6,0Z"/><path class="cls-11" d="M153.9,125.5l14,9.8,7.4,11,2-11.3,3.2-8.2,3.6,3.5,9,19.3,10.2,93s-17.7,5.2-26.9,5.8c-9.2.6-23.8-1.9-23.8-1.9v-49l-5.2-48.5,6.3-18.6.3-5.1Z"/><path class="cls-3" d="M180.3,247.8s0,0,0-.3c0-.2,0-.4,0-.8,0-.7,0-1.7-.1-2.9,0-2.6-.2-6.3-.4-10.8-.3-9.2-.8-21.8-1.5-35.8-.7-14-1.5-26.6-2.2-35.7-.3-4.6-.6-8.2-.8-10.8,0-1.3-.2-2.2-.2-2.9,0-.3,0-.6,0-.8,0-.2,0-.3,0-.3,0,0,0,0,0,.3,0,.2,0,.4,0,.8,0,.7.2,1.7.3,2.9.2,2.6.5,6.2.9,10.8.7,9.1,1.5,21.8,2.3,35.7.7,14,1.2,26.6,1.4,35.8.1,4.6.2,8.3.2,10.8,0,1.3,0,2.3,0,3,0,.3,0,.6,0,.8,0,.2,0,.3,0,.3Z"/><path class="cls-5" d="M151.2,132.1l-3,4.2-19.1,8.6c-4.4,5.2-7,10.6-7.9,16.3l17.9,39.3,2,11-13.6,57.8s18.2,6.2,19.7,4.3c.6-.8,2.8-8.8,4.1-13.4,3.1-10.4,4.9-14.3,5.9-23.8,1-9.5,2-21.7,1.3-30-1.3-15.4-3.3-40.9-3.5-47.6-.2-6.7-1.4-30.7-1.4-30.7l-2.5,3.8Z"/><path class="cls-5" d="M184,130.3l7.2,3.5,18.4,2.1,1.7,25.6,2.2,51.8,12.2,51.4s-14.6,7.9-18.1,6.6c-3.5-1.3-6.3-14.8-6.8-19.6-.6-5.8-10.2-50.5-10.2-50.5l-5.5-62-1-8.8Z"/><path class="cls-5" d="M209.3,135.8l35.8,21.2h0l23-22.5,13.8,10.7-27.7,31.7c-3.5,3.4-11,3.2-14.9,1.9l-29.6-10.8-2.8-8.8,2.4-23.3Z"/><path class="cls-5" d="M113.2,157.7s2.3,24.8,3.1,31.7c1.2,10.8,2.7,15.2,4.4,22.8,1.9,8.4,13.5,8.2,17.5,4.1,6.2-6.3,4.2-20.3,4.2-20.3l-11.4-40-17.8,1.7Z"/><path class="cls-3" d="M174.9,145.9s-.3-.2-.7-.6c-.5-.5-1.1-1.1-1.8-1.8-1.6-1.6-3.8-3.8-6.2-6.4h.3c-.8.9-1.3,2.1-1.6,3.4-.1.7-.2,1.4-.2,2v.4s-.3-.3-.3-.3c-3.1-2.6-5.7-5.1-7.6-6.8-.9-.9-1.7-1.5-2.2-2-.5-.5-.8-.7-.8-.7,0,0,.3.2.9.6.6.4,1.4,1.1,2.3,1.9,2,1.7,4.5,4.1,7.7,6.7l-.3.2c0-.7,0-1.4.2-2.1.3-1.4.9-2.6,1.7-3.6v-.2c.1,0,.3.1.3.1,2.4,2.6,4.6,4.8,6.1,6.5.7.8,1.3,1.4,1.8,1.9.4.5.6.7.6.7Z"/><path class="cls-3" d="M183.3,132s0,.2,0,.6c0,.4,0,.9,0,1.6-.1,1.4-.4,3.4-.9,5.6v.5c-.1,0-.3-.4-.3-.4-.6-1.1-1.4-2.3-2.4-3.3-.3-.3-.6-.5-.8-.8h.3c-.7,2.9-1.5,5.5-2.3,7.3-.4.9-.7,1.6-.9,2.1-.2.5-.4.8-.4.7,0,0,0-.3.3-.8.2-.6.5-1.3.8-2.2.6-1.8,1.5-4.4,2.1-7.4v-.3c0,0,.3.2.3.2.3.2.6.5.9.8,1.1,1.1,1.9,2.3,2.5,3.4h-.3c.6-2.2.9-4.1,1.1-5.5.2-1.4.2-2.2.3-2.2Z"/><path class="cls-3" d="M246.4,167.5c-.2,0,.3-2.5,0-5.5-.4-3-1.5-5.3-1.3-5.4.1,0,1.4,2.2,1.8,5.3.4,3.1-.3,5.6-.4,5.6Z"/><path class="cls-2" d="M129.6,102.8h15.8c1.9,0,3.4,1.5,3.4,3.4v39.5c0,1.9-1.5,3.4-3.4,3.4h-15.8c-1.9,0-3.4-1.5-3.4-3.4v-39.5c0-1.9,1.5-3.4,3.4-3.4Z" transform="translate(-25.9 36.1) rotate(-13.7)"/><path class="cls-6" d="M134.9,148.8c-1.3.3-2.6-.5-2.9-1.8l-9.1-37.5c-.3-1.3.5-2.6,1.8-2.9l2.6-.6,1-.3,8.7-2.1,3-.7c1.3-.3,2.6.5,2.9,1.8l9.1,37.5c.3,1.3-.5,2.6-1.8,2.9"/><rect class="cls-2" x="122.4" y="111.4" width=".8" height="5.1" rx=".2" ry=".2" transform="translate(-23.6 32.5) rotate(-13.8)"/><rect class="cls-2" x="123.9" y="117.3" width=".8" height="5.1" rx=".2" ry=".2" transform="translate(-24.7 32.7) rotate(-13.6)"/><rect class="cls-2" x="145.9" y="110.1" width=".8" height="8.9" rx=".2" ry=".2" transform="translate(-23 38.1) rotate(-13.8)"/><path class="cls-15" d="M134.9,139.9l-3.2-4.5-4.6-3s-1.7-1.3-2.6-1.4c-.8-.2-8.2,3.5-8.2,3.5-2.2.4-2.6,2.4-2.6,2.4-2.5,2.4-.6,5.1-.6,5.1l.8,3.7,2.8,9.6.3,2.1,11-1.1-.8-3.3c2.2-2.3,2.3-7.4,2.3-7.4,1.6-1.5.8-3.2.8-3.2.8-.7.3-2.5.3-2.5,1.5,1.4,3.2,1.1,4.1.8.3-.1.5-.5.3-.8Z"/><path class="cls-9" d="M117.3,142.1s.1,0,.4,0c.3,0,.6-.1,1.1-.2.9-.2,2.2-.5,3.8-1,.2,0,.4-.1.6-.2.2,0,.4-.1.7-.1.5,0,1,.1,1.4.4.7.7,1.5,1.3,2.4,2.1.2.2.4.4.6.6,0,0,.1.1.2.2,0,0,0,0,0,.1h0c0,.2.1.4.1.5.1.6,0,1.2-.1,1.8-.2.6-.4,1.2-.7,1.7-.1.3-.3.6-.5.8-.2.3-.7.4-1,.3-.3,0-.5-.3-.7-.5-.1-.2-.2-.5-.2-.8,0-.5.2-1,.4-1.5v.2c-.8-.5-1.6-1.1-2.3-1.8h.2c-.8.7-1.8,1-2.8.8v-.2c.5.3.7.8.6,1.3-.1.5-.5.8-.9.9v-.2c1.1.2,2,.7,2.7,1.4.6.6,1,1.3,1.2,1.9.2.6.2,1.1.2,1.4,0,.2,0,.3,0,.4,0,0,0,.1,0,.1,0,0,0-.7-.3-1.9-.2-.6-.6-1.3-1.2-1.9-.6-.6-1.5-1.1-2.6-1.3h-.5c0,0,.5-.2.5-.2.3,0,.7-.4.8-.8,0-.4,0-.8-.4-1.1l-.5-.3h.6c.8.3,1.8,0,2.5-.6h0c0,0,0,0,0,0,.6.7,1.4,1.3,2.3,1.7h.1c0,0,0,.2,0,.2-.2.5-.3.9-.3,1.4,0,.5.2.9.7,1.1.3,0,.5,0,.7-.2.2-.2.3-.5.5-.7.3-.6.5-1.1.7-1.7.2-.6.3-1.1.1-1.7,0-.1,0-.3-.1-.4h0c0-.1,0-.1,0-.2,0,0,0,0-.1-.1-.2-.2-.4-.4-.6-.6-.8-.7-1.6-1.4-2.3-2.1-.4-.3-.8-.4-1.2-.4-.2,0-.4,0-.6.1-.2,0-.4.1-.6.2-1.6.4-2.9.7-3.9.9-.5,0-.8.1-1.1.2-.2,0-.4,0-.4,0Z"/><path class="cls-9" d="M130.2,142.7s-.5-.7-1.1-1.8c-.3-.6-.7-1.3-1.2-1.9-.5-.6-1.3-1.3-2.2-1.5-.9-.2-1.9,0-2.7.2-.8.2-1.6.4-2.2.5-.6.1-1.2.2-1.5.3s-.6,0-.6,0c0,0,.2,0,.5-.2.4-.1.9-.2,1.5-.4.7-.2,1.4-.4,2.2-.6.8-.2,1.8-.4,2.8-.2,1,.3,1.8.9,2.3,1.6.6.7.9,1.4,1.2,2,.3.5.5,1,.7,1.4.2.3.3.5.2.5Z"/><path class="cls-9" d="M130.6,140.4s-.3-.9-1.1-2.3c-.4-.7-.9-1.4-1.5-2.2-.3-.4-.7-.8-1.1-1.2-.4-.4-.9-.6-1.5-.6-.6,0-1.1.1-1.7.2-.5.1-1.1.2-1.6.3-1,.2-1.9.4-2.6.7-.7.2-1.3.4-1.8.5-.4.1-.6.2-.7.2,0,0,.2-.1.6-.3.4-.2,1-.4,1.7-.6.7-.2,1.6-.5,2.6-.7.5-.1,1-.2,1.6-.3.6,0,1.1-.2,1.7-.2.3,0,.6,0,.9.2.3.1.5.3.7.5.4.4.8.8,1.1,1.2.6.8,1.1,1.6,1.5,2.3.4.7.6,1.3.7,1.7.1.4.2.7.2.7Z"/><path class="cls-3" d="M132.3,219c0,0,1.3,0,3.3-.9,1-.5,2.1-1.3,3.1-2.5,1-1.2,1.9-2.8,2.5-4.6.6-1.8,1.1-4,.8-6.3-.3-2.3-.7-4.8-1.2-7.3-.9-5.2-2.1-10.8-3.4-16.7-2.1-9.3-4.3-17.8-6.2-24.7l.2.2c-5.5.5-10,.9-13.3,1.2-1.5.1-2.8.2-3.7.3-.4,0-.7,0-1,0-.2,0-.3,0-.3,0,0,0,.1,0,.3,0,.3,0,.6,0,1-.1.9-.1,2.1-.2,3.7-.4,3.2-.3,7.8-.8,13.2-1.4h.2s0,.2,0,.2c1.9,6.9,4.2,15.4,6.3,24.7,1.3,5.9,2.5,11.5,3.4,16.7.4,2.6.8,5,1.1,7.4.3,2.4-.3,4.6-.9,6.5-.7,1.9-1.6,3.5-2.7,4.7-1,1.2-2.2,2-3.2,2.5-1,.4-1.9.6-2.5.7-.6,0-.9,0-.9,0Z"/><polygon class="cls-5" points="136.4 119.4 133 122 134 126.4 138.3 127.2 141.7 124.7 140.6 120 136.4 119.4"/><polygon class="cls-6" points="137.2 122.8 137.2 122.8 133 122.1 133 121.8 137.2 122.5 140.5 119.9 140.7 120.1 137.2 122.8"/><rect class="cls-6" x="137.6" y="122.6" width=".3" height="4.7" transform="translate(-25.7 36.2) rotate(-13.7)"/><rect class="cls-5" x="135.3" y="129.9" width="7.9" height="2.3" rx=".5" ry=".5" transform="translate(-27.1 36.7) rotate(-13.7)"/><rect class="cls-6" x="192.2" y="162" width="14.6" height="6.1" transform="translate(-10 12.9) rotate(-3.6)"/><path class="cls-3" d="M206.9,167.7s0-.6-.2-1.7c0-1.1-.2-2.6-.4-4.4l.2.2c-3.7.3-8.9.6-14.6,1-.2.3.3-.3.2-.3h0s0,0,0,0h0s0,0,0,0h0s0,0,0,0h0c0,.1,0,.3,0,.3v.4s0,.8,0,.8c0,.5,0,1,0,1.6,0,1,.1,2,.2,3l-.3-.2c4.2-.2,7.8-.4,10.4-.5,1.2,0,2.3,0,3.1-.1.7,0,1.1,0,1.1,0s-.3,0-1,.1c-.8,0-1.8.2-3,.3-2.6.2-6.3.5-10.5.8h-.3s0-.2,0-.2c0-1-.1-1.9-.2-3,0-.5,0-1-.1-1.6v-.8c0,0,0-.4,0-.4v-.2s0-.1,0-.1h0c0,0,0,0,0,0h0s0,0,0,0h0s0,0,0,0c0,0,.5-.5.3-.3,5.7-.4,10.8-.7,14.6-.8h.2s0,.2,0,.2c0,1.9.2,3.5.2,4.5,0,1.1,0,1.6,0,1.6Z"/><path class="cls-3" d="M210.3,149.7s0,.2,0,.6c0,.5,0,1,.1,1.7.1,1.6.2,3.7.4,6.3.3,5.4.7,12.8,1.2,20.9.4,8.1.7,15.5,1,20.9,0,2.6.2,4.8.2,6.3,0,.7,0,1.3,0,1.7,0,.4,0,.6,0,.6,0,0,0-.2,0-.6,0-.5,0-1-.1-1.7-.1-1.6-.2-3.7-.4-6.3-.3-5.4-.7-12.8-1.2-20.9-.4-8.1-.7-15.5-1-20.9,0-2.6-.2-4.8-.2-6.3,0-.7,0-1.3,0-1.7,0-.4,0-.6,0-.6Z"/><path class="cls-3" d="M137.6,161.4s.1.6.3,1.6c.1,1.2.3,2.7.6,4.5.5,3.8,1.1,9.1,1.7,14.9.6,5.8,1.2,11.1,1.5,15,.2,1.8.3,3.4.4,4.5,0,1.1.1,1.7,0,1.7,0,0-.1-.6-.3-1.7-.1-1.2-.3-2.7-.6-4.5-.5-3.8-1.1-9.1-1.7-14.9-.6-5.8-1.2-11.1-1.5-14.9-.2-1.8-.3-3.4-.4-4.5,0-1.1-.1-1.7,0-1.7Z"/></svg>