<?xml version="1.0" encoding="UTF-8"?><svg id="Layer_1" xmlns="http://www.w3.org/2000/svg" viewBox="0 0 850 470"><defs><style>.cls-1{fill:#ebebeb;}.cls-2{fill:#455b64;}.cls-3{fill:#263238;}.cls-4{fill:#c27460;}.cls-5{fill:#3a5fa0;}.cls-6{fill:#fff;}.cls-7{opacity:.6;}.cls-8{opacity:.3;}.cls-9{fill:#ec996f;}.cls-10{fill:#f5f5f5;}.cls-11{fill:#fafbfb;}.cls-12{fill:#7c4235;}.cls-13{fill:#e0e0e0;}.cls-14{fill:#fbbd9d;}</style></defs><rect class="cls-10" x="255.5" y="243.7" width="48.7" height="12.9"/><path class="cls-1" d="M767.4,171.9c3.5-2.5,5.3-7,4.3-11.6-1.3-6.1-7-10-12.7-8.8-5.7,1.2-9.3,7.2-7.9,13.3,1,4.7,4.6,8.1,8.9,8.8-15.4,5.9-10.8,23-10.8,23l37.6-8.2s-3-17.6-19.3-16.5Z"/><path class="cls-1" d="M767.4,297s0,0,0-.2c0-.2,0-.4,0-.7,0-.6,0-1.5,0-2.6,0-2.3,0-5.4,0-9.4l.2.2c-8,0-18.9,0-31,0-.2.2.3-.3.3-.3h0v1.7c0,.6,0,1.1,0,1.7,0,1.1,0,2.2,0,3.3,0,2.2,0,4.2,0,6.3l-.2-.2c8.9,0,16.7,0,22.2.1,2.7,0,4.9,0,6.5,0,.7,0,1.3,0,1.7,0,.4,0,.6,0,.6,0,0,0-.2,0-.6,0-.4,0-1,0-1.7,0-1.5,0-3.7,0-6.4,0-5.6,0-13.3,0-22.4.1h-.2s0-.2,0-.2c0-2,0-4.1,0-6.3,0-1.1,0-2.2,0-3.3,0-.6,0-1.1,0-1.7v-.8s0-.4,0-.4v-.2h0v-.2h0c0,0,.5-.5.3-.3,12.1,0,23.1,0,31,0h.2s0,.2,0,.2c0,4,0,7.2,0,9.5,0,1.1,0,1.9,0,2.5,0,.6,0,.9,0,.9Z"/><path class="cls-13" d="M762.6,310.1s0,0,0-.2c0-.2,0-.4,0-.7,0-.6,0-1.5,0-2.5,0-2.2,0-5.4,0-9.5l.2.2c-11.1,0-28.8,0-48.7,0,.1-.1-.3.2.2-.2h0v.8s0,.8,0,.8c0,.5,0,1.1,0,1.6,0,1.1,0,2.2,0,3.3,0,2.2,0,4.3,0,6.3l-.2-.2c13.9,0,26,0,34.7.1,4.3,0,7.8,0,10.2,0,1.2,0,2.1,0,2.8,0,.3,0,.5,0,.7,0,.2,0,.3,0,.3,0,0,0,0,0-.2,0-.2,0-.4,0-.7,0-.6,0-1.6,0-2.7,0-2.4,0-5.9,0-10.2,0-8.7,0-20.9,0-34.9.1h-.2s0-.2,0-.2c0-2.1,0-4.2,0-6.3,0-1.1,0-2.2,0-3.3,0-.5,0-1.1,0-1.6v-.8s0-.4,0-.4v-.2h0v-.2h0c.5-.5.1-.2.3-.3,19.9,0,37.6,0,48.7,0h.2s0,.2,0,.2c0,4.1,0,7.3,0,9.5,0,1.1,0,1.9,0,2.5,0,.3,0,.5,0,.6,0,.1,0,.2,0,.2Z"/><rect class="cls-10" x="130.8" y="314.9" width="48.7" height="12.9"/><path class="cls-13" d="M158.9,341.4s0,0,0-.2c0-.2,0-.4,0-.7,0-.6,0-1.5,0-2.5,0-2.2,0-5.4,0-9.5l.2.2c-11.1,0-28.8,0-48.7,0,.1-.1-.3.2.2-.2h0v.8s0,.8,0,.8c0,.5,0,1.1,0,1.6,0,1.1,0,2.2,0,3.3,0,2.2,0,4.3,0,6.3l-.2-.2c13.9,0,26,0,34.7.1,4.3,0,7.8,0,10.2,0,1.2,0,2.1,0,2.8,0,.3,0,.5,0,.7,0,.2,0,.3,0,.3,0s0,0-.2,0c-.2,0-.4,0-.7,0-.6,0-1.6,0-2.7,0-2.4,0-5.9,0-10.2,0-8.7,0-20.9,0-34.9.1h-.2s0-.2,0-.2c0-2.1,0-4.2,0-6.3,0-1.1,0-2.2,0-3.3,0-.5,0-1.1,0-1.6v-.8s0-.4,0-.4v-.2h0v-.2h0c.5-.5.1-.2.3-.3,19.9,0,37.6,0,48.7,0h.2s0,.2,0,.2c0,4.1,0,7.3,0,9.5,0,1.1,0,1.9,0,2.5,0,.3,0,.5,0,.6,0,.1,0,.2,0,.2Z"/><rect class="cls-10" x="577.1" y="330" width="48.7" height="12.9"/><path class="cls-13" d="M605.2,356.4s0,0,0-.2c0-.2,0-.4,0-.7,0-.6,0-1.5,0-2.5,0-2.2,0-5.4,0-9.5l.2.2c-11.1,0-28.8,0-48.7,0,.1-.1-.3.2.2-.2h0v.8s0,.8,0,.8c0,.5,0,1.1,0,1.6,0,1.1,0,2.2,0,3.3,0,2.2,0,4.3,0,6.3l-.2-.2c13.9,0,26,0,34.7.1,4.3,0,7.8,0,10.2,0,1.2,0,2.1,0,2.8,0,.3,0,.5,0,.7,0,.2,0,.3,0,.3,0,0,0,0,0-.2,0-.2,0-.4,0-.7,0-.6,0-1.6,0-2.7,0-2.4,0-5.9,0-10.2,0-8.7,0-20.9,0-34.9.1h-.2s0-.2,0-.2c0-2.1,0-4.2,0-6.3,0-1.1,0-2.2,0-3.3,0-.5,0-1.1,0-1.6v-.8s0-.4,0-.4v-.2h0v-.2h0c.5-.5.1-.2.3-.3,19.9,0,37.6,0,48.7,0h.2s0,.2,0,.2c0,4.1,0,7.3,0,9.5,0,1.1,0,1.9,0,2.5,0,.3,0,.5,0,.6,0,.1,0,.2,0,.2Z"/><path class="cls-1" d="M456,392.6s0,0,0-.2c0-.2,0-.4,0-.7,0-.6,0-1.5,0-2.6,0-2.3,0-5.4,0-9.4l.2.2c-8,0-18.9,0-31,0-.2.2.3-.3.3-.3h0v.8s0,.8,0,.8c0,.6,0,1.1,0,1.7,0,1.1,0,2.2,0,3.3,0,2.2,0,4.2,0,6.3l-.2-.2c8.9,0,16.7,0,22.2.1,2.7,0,4.9,0,6.5,0,.7,0,1.3,0,1.7,0,.4,0,.6,0,.6,0s-.2,0-.6,0c-.4,0-1,0-1.7,0-1.5,0-3.7,0-6.4,0-5.6,0-13.3,0-22.4.1h-.2s0-.2,0-.2c0-2,0-4.1,0-6.3,0-1.1,0-2.2,0-3.3,0-.6,0-1.1,0-1.7v-.8s0-.4,0-.4v-.2s0-.1,0-.1h0c0,0,.5-.6.3-.4,12.1,0,23.1,0,31,0h.2s0,.2,0,.2c0,4,0,7.2,0,9.5,0,1.1,0,1.9,0,2.5,0,.6,0,.9,0,.9Z"/><path class="cls-13" d="M451.3,405.7s0,0,0-.2c0-.2,0-.4,0-.7,0-.6,0-1.5,0-2.5,0-2.2,0-5.4,0-9.5l.2.2c-11.1,0-28.8,0-48.7,0,.1-.1-.3.2.2-.2h0v.8s0,.8,0,.8c0,.5,0,1.1,0,1.6,0,1.1,0,2.2,0,3.3,0,2.2,0,4.3,0,6.3l-.2-.2c13.9,0,26,0,34.7.1,4.3,0,7.8,0,10.2,0,1.2,0,2.1,0,2.8,0,.3,0,.5,0,.7,0,.2,0,.3,0,.3,0,0,0,0,0-.2,0-.2,0-.4,0-.7,0-.6,0-1.6,0-2.7,0-2.4,0-5.9,0-10.2,0-8.7,0-20.9,0-34.9.1h-.2s0-.2,0-.2c0-2.1,0-4.2,0-6.3,0-1.1,0-2.2,0-3.3,0-.5,0-1.1,0-1.6v-.8s0-.4,0-.4v-.2h0v-.2h0c.5-.5.1-.2.3-.3,19.9,0,37.6,0,48.7,0h.2s0,.2,0,.2c0,4.1,0,7.3,0,9.5,0,1.1,0,1.9,0,2.5,0,.3,0,.5,0,.6,0,.1,0,.2,0,.2Z"/><rect class="cls-10" x="495.4" y="257.7" width="48.7" height="12.9"/><circle class="cls-13" cx="698.3" cy="48.9" r="32.6"/><path class="cls-6" d="M668.8,46.9c1.1-16.4,15.2-28.8,31.6-27.7,16.4,1.1,28.8,15.2,27.7,31.6-1.1,16.4-15.2,28.8-31.6,27.7-16.4-1.1-28.8-15.2-27.7-31.6Z"/><path class="cls-13" d="M712.1,49.4s-.4,0-1,0c-.7,0-1.7,0-2.9,0-2.5,0-5.9,0-9.7,0h-.2s0-.2,0-.2c0-.6,0-1.3,0-1.9,0-4.3,0-8.2,0-11,0-1.4,0-2.5,0-3.3,0-.8,0-1.2,0-1.2s0,.4,0,1.2c0,.9,0,2,0,3.3,0,2.8,0,6.7,0,11,0,.7,0,1.3,0,1.9l-.2-.2c3.9,0,7.3,0,9.7,0,1.2,0,2.1,0,2.9,0,.7,0,1,0,1,0Z"/><path class="cls-13" d="M698.5,23.7c.1,0,.2,1.1.2,2.5s0,2.5-.2,2.5-.2-1.1-.2-2.5,0-2.5.2-2.5Z"/><path class="cls-13" d="M712.1,27.7c0,0-.6.9-1.6,1.9-1,1-1.8,1.7-1.9,1.6,0,0,.6-.9,1.6-1.9,1-1,1.8-1.7,1.9-1.6Z"/><path class="cls-13" d="M720,36.3c0,0-.9.7-2,1.4-1.2.7-2.1,1.3-2.2,1.2,0,0,.8-.8,2-1.5,1.2-.7,2.2-1.1,2.2-1Z"/><path class="cls-13" d="M724.6,49.2c0,.1-1.5.2-3.4.2s-3.4,0-3.4-.2,1.5-.2,3.4-.2,3.4,0,3.4.2Z"/><path class="cls-13" d="M677.4,48.7c0,.1-1.4.2-3.2.2s-3.2,0-3.2-.2,1.4-.2,3.2-.2,3.2,0,3.2.2Z"/><path class="cls-13" d="M680.8,58.2c0,0-1,1.1-2.4,2.2-1.4,1.1-2.6,2-2.7,1.9,0,0,1-1.1,2.4-2.2,1.4-1.1,2.6-2,2.7-1.9Z"/><path class="cls-13" d="M689,65.6c0,0-.7,1.3-1.7,2.9-.9,1.6-1.7,2.9-1.8,2.8,0,0,.5-1.4,1.4-3,.9-1.6,1.9-2.7,2-2.7Z"/><path class="cls-13" d="M698.5,75.2c-.1,0-.2-1.5-.2-3.4s0-3.4.2-3.4.2,1.5.2,3.4,0,3.4-.2,3.4Z"/><path class="cls-13" d="M713.2,70.6c0,0-1.4-.7-2.8-1.9-1.4-1.2-2.4-2.5-2.3-2.5,0,0,1.1,1,2.5,2.2,1.4,1.2,2.6,2.1,2.6,2.2Z"/><path class="cls-13" d="M720.1,63.2c0,0-1.1-.8-2.3-2-1.2-1.2-2.1-2.2-2-2.3,0,0,1.1.8,2.3,2,1.2,1.2,2.1,2.2,2,2.3Z"/><path class="cls-13" d="M680.5,39.5c0,0-1-.7-2-1.7-1-1-1.8-1.9-1.7-2,0,0,1,.7,2,1.7,1,1,1.8,1.9,1.7,2Z"/><path class="cls-13" d="M688.9,30.6c0,0-1-.7-2-1.7-1-1-1.8-1.9-1.7-1.9,0,0,.9.7,2,1.7,1,1,1.8,1.9,1.7,1.9Z"/><path class="cls-10" d="M672.2,48.9c0-15.7,12.3-28.6,27.8-29.5-.6,0-1.2,0-1.8,0-16.3,0-29.5,13.2-29.5,29.5s13.2,29.5,29.5,29.5,1.2,0,1.8,0c-15.5-.9-27.8-13.8-27.8-29.5Z"/><path class="cls-13" d="M668.8,46.9s0,.2,0,.5c0,.3,0,.8,0,1.4,0,.3,0,.7,0,1,0,.4,0,.8.1,1.3,0,.5,0,.9.1,1.5,0,.5.2,1.1.3,1.6.4,2.3,1.3,5.1,2.8,8.1,1.5,3,3.8,6.1,7,8.9.4.3.8.7,1.2,1,.4.3.9.6,1.3.9.5.3.9.7,1.4.9.5.3,1,.6,1.5.8.3.1.5.3.8.4.3.1.5.2.8.4.5.2,1.1.5,1.6.7.6.2,1.1.4,1.7.6.6.2,1.1.4,1.8.5,1.2.3,2.4.6,3.7.7.6,0,1.3.2,1.9.2.6,0,1.3,0,2,0,.3,0,.7,0,1,0,.3,0,.7,0,1,0,.7,0,1.3,0,2-.2,1.3-.3,2.7-.4,4-.9l1-.3c.2,0,.3,0,.5-.2l.5-.2c.7-.3,1.3-.5,2-.8.6-.3,1.3-.7,1.9-1,.3-.2.6-.3.9-.5l.9-.6c1.3-.7,2.4-1.7,3.5-2.6.5-.5,1.1-1,1.6-1.6l.4-.4.4-.4.7-.9.7-.9.7-.9.7-.9.3-.5c.1-.2.2-.3.3-.5.4-.7.8-1.3,1.1-2,.3-.7.6-1.4.9-2.1,1.2-2.9,1.9-6,2.1-9.2.2-3.2-.1-6.4-.9-9.4-.2-.7-.4-1.5-.7-2.2-.3-.7-.6-1.4-.9-2.1l-.2-.5-.3-.5-.5-1-.5-1-.6-1-.6-.9-.3-.5-.3-.4c-.5-.6-.9-1.2-1.4-1.7-1-1.1-2-2.2-3.2-3.1l-.8-.7c-.3-.2-.6-.4-.9-.6-.6-.4-1.2-.8-1.8-1.2-.6-.4-1.2-.7-1.8-1l-.5-.3c-.2,0-.3-.1-.5-.2l-1-.4c-1.2-.6-2.6-1-3.9-1.4-.7-.2-1.3-.3-2-.5-.3,0-.7-.1-1-.2-.3,0-.7,0-1-.1-.7,0-1.3-.2-1.9-.2-.6,0-1.3,0-1.9,0-1.3,0-2.5,0-3.8.2-.6,0-1.2.2-1.8.3-.6.1-1.2.2-1.8.4-.6.2-1.1.3-1.7.5-.3,0-.6.2-.8.2-.3.1-.5.2-.8.3-.5.2-1.1.4-1.6.6-.5.2-1,.5-1.5.7-.5.3-1,.5-1.4.8-.5.3-.9.6-1.3.9-3.5,2.3-6.2,5.1-8.1,7.9-1.9,2.8-3.1,5.4-3.8,7.7-.2.6-.4,1.1-.5,1.6-.1.5-.2,1-.3,1.4,0,.4-.2.8-.3,1.2,0,.4,0,.7-.1,1,0,.6-.1,1.1-.2,1.4,0,.3,0,.5,0,.5,0,0,0-.2,0-.5,0-.3,0-.8.1-1.4,0-.3,0-.7.1-1,0-.4.2-.8.3-1.2,0-.4.2-.9.3-1.4,0-.5.3-1,.5-1.6.7-2.3,1.9-4.9,3.8-7.7,1.9-2.8,4.5-5.6,8.1-8,.4-.3.9-.6,1.3-.9.5-.3,1-.5,1.5-.8.5-.2,1-.5,1.5-.7.5-.2,1.1-.4,1.6-.6.3-.1.5-.2.8-.3.3,0,.6-.2.8-.2.6-.2,1.1-.3,1.7-.5.6-.2,1.2-.2,1.8-.4.6,0,1.2-.3,1.8-.3,1.2,0,2.5-.3,3.8-.2.6,0,1.3,0,1.9,0,.7,0,1.3.2,2,.2.3,0,.7,0,1,.1.3,0,.7.1,1,.2.7.2,1.3.3,2,.5,1.3.4,2.6.8,3.9,1.4l1,.4c.2,0,.3.1.5.2l.5.3c.6.3,1.2.7,1.9,1.1.6.4,1.2.8,1.8,1.2.3.2.6.4.9.6l.8.7c1.2.9,2.2,2,3.2,3.1.5.6.9,1.2,1.4,1.8l.4.4.3.5.6,1,.6,1,.5,1,.5,1,.3.5.2.5c.3.7.6,1.4.9,2.2.2.8.4,1.5.7,2.3.8,3.1,1.1,6.3.9,9.5-.3,3.2-1,6.4-2.2,9.3-.3.7-.6,1.4-1,2.2-.4.7-.8,1.4-1.2,2,0,.2-.2.3-.3.5l-.3.5-.7.9-.7.9-.7.9-.7.9-.4.4-.4.4c-.5.5-1.1,1-1.6,1.6-1.2.9-2.3,1.9-3.6,2.6l-.9.6c-.3.2-.6.3-1,.5-.6.3-1.3.7-1.9,1-.7.3-1.3.5-2,.8l-.5.2c-.2,0-.3.1-.5.2l-1,.3c-1.3.5-2.7.6-4.1.9-.7,0-1.4.1-2,.2-.3,0-.7,0-1,0-.3,0-.7,0-1,0-.7,0-1.3,0-2,0-.7,0-1.3-.1-1.9-.2-1.3,0-2.5-.4-3.7-.7-.6-.1-1.2-.4-1.8-.5-.6-.2-1.2-.4-1.7-.6-.5-.2-1.1-.5-1.6-.7-.3-.1-.5-.2-.8-.4-.3-.1-.5-.3-.8-.4-.5-.3-1-.6-1.5-.8-.5-.3-.9-.6-1.4-.9-.5-.3-.9-.6-1.3-1-.4-.4-.8-.7-1.2-1-3.2-2.8-5.5-6-7-9-1.5-3-2.4-5.8-2.7-8.1,0-.6-.2-1.1-.3-1.7,0-.5,0-1-.1-1.5,0-.5,0-.9,0-1.3,0-.4,0-.7,0-1,0-.6,0-1.1,0-1.4,0-.3,0-.5,0-.5Z"/><path class="cls-1" d="M439.3,322.1l-40.3-19.6c-2.8-1.4-3.9-4.7-2.6-7.5l27.2-55.8c1.4-2.8,4.7-3.9,7.5-2.6l25.6,12.5,9.9,30-19.7,40.4c-1.4,2.8-4.7,3.9-7.5,2.6Z"/><path class="cls-13" d="M456.7,249.1l-7.6,15.7c-1.3,2.6-.2,5.7,2.4,7l15.1,7.4-9.9-30Z"/><path class="cls-6" d="M446,262.5c0,.2-4.4-1.7-9.5-4.2-5.2-2.5-9.2-4.7-9.1-4.9,0-.2,4.4,1.7,9.5,4.2,5.1,2.5,9.2,4.7,9.1,4.9Z"/><path class="cls-6" d="M453.7,277.2c0,.2-7.1-3-15.5-7.1-8.5-4.1-15.3-7.6-15.2-7.8,0-.2,7,3,15.5,7.1,8.5,4.1,15.3,7.6,15.2,7.8Z"/><path class="cls-6" d="M452.8,286c0,.2-7.7-3.3-16.9-7.8-9.2-4.5-16.7-8.3-16.6-8.5,0-.2,7.7,3.3,16.9,7.8,9.2,4.5,16.7,8.3,16.6,8.5Z"/><path class="cls-6" d="M449.4,293c0,.2-7.7-3.3-16.9-7.8-9.2-4.5-16.7-8.3-16.6-8.5,0-.2,7.7,3.3,16.9,7.8,9.2,4.5,16.7,8.3,16.6,8.5Z"/><path class="cls-6" d="M446,300c0,.2-7.7-3.3-16.9-7.8-9.2-4.5-16.7-8.3-16.6-8.5,0-.2,7.7,3.3,16.9,7.8,9.2,4.5,16.7,8.3,16.6,8.5Z"/><path class="cls-6" d="M442.6,307c0,.2-7.7-3.3-16.9-7.8-9.2-4.5-16.7-8.3-16.6-8.5,0-.2,7.7,3.3,16.9,7.8,9.2,4.5,16.7,8.3,16.6,8.5Z"/><rect class="cls-13" x="139.3" y="17.4" width="116.5" height="150.5" transform="translate(395.2 185.4) rotate(180)"/><path class="cls-1" d="M139.3,167.9s0-.1.3-.4c.3-.3.6-.7,1-1.1.9-1,2.2-2.5,3.9-4.3h0c0,0,0,0,0,0,10.1-.1,30-.2,52.9-.2s42.8,0,52.9.2h0s0,0,0,0c1.7,1.8,3,3.3,3.9,4.3.4.5.7.8,1,1.1.2.3.3.4.3.4,0,0-.1-.1-.4-.3-.3-.3-.6-.6-1.1-1.1-1-1-2.3-2.4-4-4.2h.1c-10.1.2-30,.2-52.9.2s-42.8,0-52.9-.2h.1c-1.7,1.8-3.1,3.2-4,4.2-.4.4-.8.8-1.1,1.1-.2.2-.4.4-.4.3Z"/><path class="cls-1" d="M255.8,17.4s0,.1-.3.4c-.3.3-.6.7-1,1.1-.9,1-2.2,2.5-3.9,4.3h0c0,0,0,0,0,0-10.1.1-30,.2-52.9.2s-42.8,0-52.9-.2h0s0,0,0,0c-1.7-1.8-3-3.3-3.9-4.3-.4-.5-.7-.8-1-1.1-.2-.3-.3-.4-.3-.4s.1.1.4.3c.3.3.6.6,1.1,1.1,1,1,2.3,2.4,4,4.2h-.1c10.1-.2,30-.2,52.9-.2s42.8,0,52.9.2h-.1c1.7-1.8,3.1-3.2,4-4.2.4-.4.8-.8,1.1-1.1.2-.2.4-.4.4-.3Z"/><rect class="cls-6" x="144.7" y="23.2" width="105.8" height="139" transform="translate(395.2 185.4) rotate(180)"/><path class="cls-13" d="M232.5,40.2c.2,0,.3,23.4.3,52.2s-.2,52.2-.3,52.2-.3-23.4-.3-52.2.2-52.2.3-52.2Z"/><path class="cls-13" d="M229.1,40.2c.2,0,.3,23.4.3,52.2s-.2,52.2-.3,52.2-.3-23.4-.3-52.2.2-52.2.3-52.2Z"/><path class="cls-13" d="M225.8,40.2c.2,0,.3,23.4.3,52.2s-.2,52.2-.3,52.2-.3-23.4-.3-52.2.2-52.2.3-52.2Z"/><path class="cls-13" d="M222.5,40.2c.2,0,.3,23.4.3,52.2s-.2,52.2-.3,52.2-.3-23.4-.3-52.2.2-52.2.3-52.2Z"/><path class="cls-13" d="M219.2,40.2c.2,0,.3,23.4.3,52.2s-.2,52.2-.3,52.2-.3-23.4-.3-52.2.2-52.2.3-52.2Z"/><path class="cls-13" d="M215.9,40.2c.2,0,.3,23.4.3,52.2s-.2,52.2-.3,52.2-.3-23.4-.3-52.2.2-52.2.3-52.2Z"/><path class="cls-13" d="M212.6,40.2c.2,0,.3,23.4.3,52.2s-.2,52.2-.3,52.2-.3-23.4-.3-52.2.2-52.2.3-52.2Z"/><path class="cls-13" d="M209.3,40.2c.2,0,.3,23.4.3,52.2s-.2,52.2-.3,52.2-.3-23.4-.3-52.2.2-52.2.3-52.2Z"/><path class="cls-13" d="M206,40.2c.2,0,.3,23.4.3,52.2s-.2,52.2-.3,52.2-.3-23.4-.3-52.2.2-52.2.3-52.2Z"/><path class="cls-13" d="M202.7,40.2c.2,0,.3,23.4.3,52.2s-.2,52.2-.3,52.2-.3-23.4-.3-52.2.2-52.2.3-52.2Z"/><path class="cls-13" d="M199.4,40.2c.2,0,.3,23.4.3,52.2s-.2,52.2-.3,52.2-.3-23.4-.3-52.2.2-52.2.3-52.2Z"/><path class="cls-13" d="M196.1,40.2c.2,0,.3,23.4.3,52.2s-.2,52.2-.3,52.2-.3-23.4-.3-52.2.2-52.2.3-52.2Z"/><path class="cls-13" d="M192.8,40.2c.2,0,.3,23.4.3,52.2s-.2,52.2-.3,52.2-.3-23.4-.3-52.2.2-52.2.3-52.2Z"/><path class="cls-13" d="M189.4,40.2c.2,0,.3,23.4.3,52.2s-.2,52.2-.3,52.2-.3-23.4-.3-52.2.2-52.2.3-52.2Z"/><path class="cls-13" d="M186.1,40.2c.2,0,.3,23.4.3,52.2s-.2,52.2-.3,52.2-.3-23.4-.3-52.2.2-52.2.3-52.2Z"/><path class="cls-13" d="M182.8,40.2c.2,0,.3,23.4.3,52.2s-.2,52.2-.3,52.2-.3-23.4-.3-52.2.2-52.2.3-52.2Z"/><path class="cls-13" d="M179.5,40.2c.2,0,.3,23.4.3,52.2s-.2,52.2-.3,52.2-.3-23.4-.3-52.2.2-52.2.3-52.2Z"/><path class="cls-13" d="M176.2,40.2c.2,0,.3,23.4.3,52.2s-.2,52.2-.3,52.2-.3-23.4-.3-52.2.2-52.2.3-52.2Z"/><path class="cls-13" d="M172.9,40.2c.2,0,.3,23.4.3,52.2s-.2,52.2-.3,52.2-.3-23.4-.3-52.2.2-52.2.3-52.2Z"/><path class="cls-13" d="M169.6,40.2c.2,0,.3,23.4.3,52.2s-.2,52.2-.3,52.2-.3-23.4-.3-52.2.2-52.2.3-52.2Z"/><path class="cls-13" d="M166.3,40.2c.2,0,.3,23.4.3,52.2s-.2,52.2-.3,52.2-.3-23.4-.3-52.2.2-52.2.3-52.2Z"/><path class="cls-13" d="M163,40.2c.2,0,.3,23.4.3,52.2s-.2,52.2-.3,52.2-.3-23.4-.3-52.2.2-52.2.3-52.2Z"/><path class="cls-10" d="M607,287.4v-2.2c-.4-18.2-10.4-34.9-26.6-42.9-2.1-1-4.2-1.9-6.4-2.6-15.9-5.2-34.4-1.6-47.5,9.1-7.7,6.3-13.9,15.1-23.3,18.2-12.2,4-25-3-35.9-9.8-10.9-6.8-23.6-13.8-35.9-9.7-7.7,2.6-13.5,9.1-17.2,16.4-9.8,19.1-6.5,43.2,5.2,61,11.7,17.8,30.6,29.8,50.7,36.6,28.2,9.6,60.3,9.5,87.2-3.7,26.9-13.2,47.7-40.5,49.6-70.4Z"/><circle class="cls-10" cx="174.5" cy="51.6" r="30.5"/><path class="cls-3" d="M751.9,451c0,.1-139.8.3-312.2.3s-312.2-.1-312.2-.3,139.8-.3,312.2-.3,312.2.1,312.2.3Z"/><rect class="cls-6" x="376.6" y="28.7" width="236.3" height="195.6"/><path class="cls-3" d="M612.9,224.4c0-1.4,0-77.7-.2-195.6l.2.2c-67.7,0-149,0-236.3,0h0l.2-.2c0,70.8,0,137.7,0,195.6l-.2-.2c140.7.1,234.8.2,236.3.2-1.5,0-95.7,0-236.3.2h-.2s0-.2,0-.2c0-58,0-124.8,0-195.6v-.2h.2c87.3,0,168.6,0,236.3,0h.2s0,.2,0,.2c0,117.9-.2,194.3-.2,195.6Z"/><path class="cls-13" d="M585.7,81.6c0,.1-42.4.2-94.6.2s-94.6,0-94.6-.2,42.4-.2,94.6-.2,94.6,0,94.6.2Z"/><path class="cls-13" d="M585.7,102.5c0,.1-42.4.2-94.6.2s-94.6,0-94.6-.2,42.4-.2,94.6-.2,94.6,0,94.6.2Z"/><path class="cls-13" d="M585.7,123.4c0,.1-42.4.2-94.6.2s-94.6,0-94.6-.2,42.4-.2,94.6-.2,94.6,0,94.6.2Z"/><path class="cls-13" d="M585.7,144.3c0,.1-42.4.2-94.6.2s-94.6,0-94.6-.2,42.4-.2,94.6-.2,94.6,0,94.6.2Z"/><path class="cls-13" d="M585.7,165.2c0,.1-42.4.2-94.6.2s-94.6,0-94.6-.2,42.4-.2,94.6-.2,94.6,0,94.6.2Z"/><path class="cls-13" d="M585.7,186.1c0,.1-42.4.2-94.6.2s-94.6,0-94.6-.2,42.4-.2,94.6-.2,94.6,0,94.6.2Z"/><rect class="cls-2" x="512.7" y="146" width="18.9" height="60.7"/><rect class="cls-2" x="548.3" y="126" width="18.9" height="80.8"/><rect class="cls-2" x="413.4" y="178.3" width="18.9" height="28.4"/><rect class="cls-2" x="444.6" y="169.9" width="18.9" height="36.9"/><rect class="cls-2" x="477" y="159.1" width="18.9" height="47.6"/><path class="cls-3" d="M613,39.6h-236.5c-4,0-7.2-3.2-7.2-7.2h0c0-4,3.2-7.2,7.2-7.2h236.5c4,0,7.2,3.2,7.2,7.2h0c0,4-3.2,7.2-7.2,7.2Z"/><path class="cls-3" d="M587.5,206.8s-.3,0-.9,0c-.6,0-1.4,0-2.5,0-2.2,0-5.5,0-9.8,0-8.5,0-20.8,0-36,0-30.4,0-72.4,0-118.7,0-8,0-15.9,0-23.5,0h-.2v-.2c0-40.9,0-77,0-102.9,0-12.9,0-23.3,0-30.5,0-3.6,0-6.3,0-8.2,0-.9,0-1.6,0-2.1,0-.5,0-.7,0-.7,0,0,0,.2,0,.7,0,.5,0,1.2,0,2.1,0,1.9,0,4.6,0,8.2,0,7.2,0,17.6,0,30.5,0,25.9,0,62,0,102.9l-.2-.2c7.5,0,15.4,0,23.5,0,46.4,0,88.3,0,118.7,0,15.2,0,27.5,0,36,0,4.2,0,7.5,0,9.8,0,1.1,0,2,0,2.5,0,.6,0,.9,0,.9,0Z"/><path class="cls-3" d="M405.4,73.3c0,.1-2.1.2-4.7.2s-4.7,0-4.7-.2,2.1-.2,4.7-.2,4.7,0,4.7.2Z"/><path class="cls-3" d="M405.4,93.1c0,.1-2.1.2-4.7.2s-4.7,0-4.7-.2,2.1-.2,4.7-.2,4.7,0,4.7.2Z"/><path class="cls-3" d="M405.4,113c0,.1-2.1.2-4.7.2s-4.7,0-4.7-.2,2.1-.2,4.7-.2,4.7,0,4.7.2Z"/><path class="cls-3" d="M405.4,132.9c0,.1-2.1.2-4.7.2s-4.7,0-4.7-.2,2.1-.2,4.7-.2,4.7,0,4.7.2Z"/><path class="cls-3" d="M405.4,152.8c0,.1-2.1.2-4.7.2s-4.7,0-4.7-.2,2.1-.2,4.7-.2,4.7,0,4.7.2Z"/><path class="cls-3" d="M405.4,172.7c0,.1-2.1.2-4.7.2s-4.7,0-4.7-.2,2.1-.2,4.7-.2,4.7,0,4.7.2Z"/><path class="cls-3" d="M502.1,414.4s-4.8-32.7-4.4-51.8c.4-19,0-40.5,0-40.5h2.2s-1.5,37.8.1,60.6c1.6,22.8,5.9,31.6,5.9,31.6h-3.8"/><path class="cls-2" d="M516.3,285.3c-.4-1.1-1-2.3-2-2.9-1.4-.9-3.2-.5-4.8,0-6.6,2.3-12.5,14.7-15.2,21.2l8.8,29.7c15.9-14.7,18.6-34.1,13.2-48Z"/><path class="cls-3" d="M513.8,283.6s0,.1-.1.4c-.1.3-.3.6-.4,1.1-.4.9-.9,2.3-1.6,4-1.3,3.4-2.9,8.1-4.4,13.4-1.5,5.3-2.5,10.2-3.1,13.7-.3,1.8-.5,3.2-.7,4.2,0,.5-.1.8-.2,1.1,0,.3,0,.4,0,.4,0,0,0-.1,0-.4,0-.3,0-.7.1-1.2.1-1,.3-2.5.6-4.2.6-3.6,1.5-8.5,3-13.8,1.5-5.3,3.2-10,4.5-13.4.7-1.7,1.3-3,1.7-3.9.2-.4.4-.8.5-1.1.1-.2.2-.4.2-.4Z"/><path class="cls-2" d="M499.3,340.4c-8.2-4.6-13.1-13.1-13.6-22.5-.3-6.6,1.7-13,4-19.2.2-.5.4-1.1.9-1.4.7-.4,1.6,0,2.2.4,6,3.4,9.6,9.9,11.6,16.5,1.3,4.4,2,9.1,1.4,13.6-.6,4.6-3.2,9.5-6.5,12.7"/><path class="cls-3" d="M499.3,340.4s0-.1,0-.4c0-.3,0-.7,0-1.1,0-1,0-2.4-.1-4.2-.2-3.5-.6-8.4-1.5-13.7-.9-5.3-2-10.1-2.8-13.5-.4-1.7-.7-3.1-1-4.1-.1-.4-.2-.8-.3-1.1,0-.3,0-.4,0-.4,0,0,0,.1.1.4,0,.3.2.6.3,1.1.3,1,.6,2.3,1.1,4,.9,3.4,2,8.2,3,13.5.9,5.3,1.3,10.2,1.4,13.7,0,1.8,0,3.2,0,4.2,0,.5,0,.8,0,1.1,0,.3,0,.4,0,.4Z"/><g class="cls-8"><path d="M499.3,340.4c-8.2-4.6-13.1-13.1-13.6-22.5-.3-6.6,1.7-13,4-19.2.2-.5.4-1.1.9-1.4.7-.4,1.6,0,2.2.4,6,3.4,9.6,9.9,11.6,16.5,1.3,4.4,2,9.1,1.4,13.6-.6,4.6-3.2,9.5-6.5,12.7"/></g><path class="cls-2" d="M508.6,390.5c8.1,1.8,14.8,7.5,22.6,10.3,5.2,1.8,11,2.5,15.2,6.1-1-2.5-3.3-4.2-5.6-5.6-6.4-4-13.3-7.3-20.5-9.8-3.7-1.3-7.7-2.3-11.4-1.3"/><path class="cls-2" d="M496.8,397.7c-10.2-.2-20.9-8.8-31-9.3,10.6-3.4,25.8-.6,31,9.3"/><path class="cls-2" d="M500.8,373.3c5.2-1.9,10.8-1.9,16.3-1.1,5.4.8,10.7,2.6,15.9,4.3-.5-3.5-3.4-6.2-6.1-8.5-2-1.8-4.1-3.5-6.4-4.9-2.3-1.4-5-2.3-7.6-2.2-3.2.1-6.3,1.8-8.4,4.3-2.1,2.4-3.3,4.9-3.6,8.1"/><path class="cls-2" d="M479.9,362.1c-6.4-5.5-16.1-4.9-24.5-4.7,12.9,6.2,26.9,14.7,38,23.7.3-5.9-5.4-12-13.5-18.9Z"/><g class="cls-8"><path d="M479.9,362.1c-6.4-5.5-16.1-4.9-24.5-4.7,12.9,6.2,26.9,14.7,38,23.7.3-5.9-5.4-12-13.5-18.9Z"/></g><path class="cls-2" d="M503.7,354.6c3.2-2.1,6.5-4.2,9.8-5.7,3.4-1.5,6.5-4,9.8-5.7,4.2-2.3,7.9-5.5,11.7-8.3,3.9-2.8,8.1-5.4,12.9-6.1-3.9-.8-7.9-.4-11.7.7-3.8,1-7.4,2.7-11,4.3-5,2.2-10.1,4.6-14.2,8.2-4.1,3.7-7.8,7.3-7.3,12.7"/><path class="cls-3" d="M531,397.7s-.1,0-.3-.1c-.2-.1-.5-.3-.9-.5-.8-.4-1.9-1-3.2-1.7-.7-.4-1.4-.7-2.3-1.1-.8-.4-1.7-.8-2.6-1.2-1.9-.8-4-1.6-6.3-2.2-2.3-.6-4.6-.7-6.5-.2-1,.2-1.9.5-2.8.8-.8.3-1.6.7-2.2,1.1-1.3.8-2.2,1.7-2.8,2.3-.6.6-.9,1-.9,1,0,0,0-.1.2-.3.1-.2.3-.5.6-.8.6-.7,1.5-1.6,2.8-2.4.7-.4,1.4-.8,2.3-1.2.8-.4,1.8-.6,2.8-.9,2-.6,4.4-.4,6.7.1,2.3.6,4.4,1.4,6.3,2.2.9.4,1.8.8,2.6,1.2.8.4,1.6.8,2.3,1.2,1.4.7,2.5,1.4,3.2,1.8.3.2.6.4.9.5.2.1.3.2.3.2Z"/><path class="cls-3" d="M489.2,392.7s.2,0,.6.2c.4.1,1,.4,1.7.7,1.4.7,3.2,1.8,4.9,3.4,1.7,1.6,2.9,3.4,3.6,4.7.4.7.6,1.2.8,1.6.2.4.2.6.2.6,0,0-.4-.8-1.2-2.1-.8-1.3-2-3-3.7-4.6-1.7-1.6-3.4-2.8-4.7-3.5-1.3-.7-2.2-1.1-2.2-1.1Z"/><path class="cls-3" d="M466.8,361.6s.2,0,.4.1c.3.1.7.3,1.2.4.5.2,1.2.4,1.9.7.7.3,1.6.7,2.5,1.1,3.7,1.7,8.5,4.5,13.2,8.4,2.3,2,4.4,4.1,6.2,6.1,1.7,2,3.2,3.9,4.4,5.6,1.2,1.6,2,3,2.6,4,.3.4.5.8.7,1.1.2.3.2.4.2.4,0,0-.1-.1-.3-.4-.2-.2-.4-.6-.8-1.1-.6-.9-1.6-2.3-2.7-3.9-1.2-1.6-2.7-3.5-4.4-5.5-1.8-2-3.9-4-6.2-6-4.7-3.9-9.5-6.8-13.1-8.5-.9-.4-1.7-.8-2.5-1.1-.7-.3-1.4-.5-1.9-.8-.5-.2-.9-.4-1.2-.5-.3-.1-.4-.2-.4-.2Z"/><path class="cls-3" d="M516.1,367.6s-.3,0-.8-.1c-.3,0-.6-.1-.9-.2-.4,0-.8,0-1.2-.1-1.8-.1-4.5,0-7,1.4-1.3.6-2.3,1.5-3.2,2.4-.9.9-1.5,1.7-2,2.5-1,1.6-1.3,2.7-1.4,2.7,0,0,0-.3.2-.8.2-.5.5-1.2,1-2,.5-.8,1.1-1.7,2-2.6.9-.9,2-1.8,3.2-2.4,2.6-1.4,5.3-1.5,7.2-1.3.5,0,.9,0,1.3.2.3,0,.7.2.9.2.5.1.8.2.8.2Z"/><path class="cls-3" d="M526.3,335.9s-.1,0-.4.2c-.3.2-.7.4-1.1.6-1,.5-2.4,1.3-4.1,2.3-1.7,1-3.7,2.3-5.9,3.8-2.1,1.5-4.4,3.3-6.6,5.5-1,1.1-2,2.2-2.7,3.5-.7,1.3-1.3,2.5-1.9,3.7-1.2,2.4-2.1,4.6-2.8,6.4-.7,1.9-1.1,3.4-1.4,4.5-.3,1.1-.4,1.7-.4,1.7,0,0,0-.2,0-.4,0-.3,0-.7.2-1.3.2-1.1.6-2.7,1.3-4.6.7-1.9,1.6-4.1,2.8-6.5.6-1.2,1.2-2.4,1.9-3.7.7-1.3,1.7-2.5,2.7-3.6,2.2-2.2,4.5-4,6.6-5.5,2.2-1.5,4.2-2.8,6-3.8,1.7-1,3.2-1.7,4.2-2.2.5-.2.9-.4,1.2-.6.3-.1.4-.2.4-.2Z"/><path class="cls-3" d="M497.8,366.7s0-.3-.2-.9c-.1-.6-.3-1.4-.4-2.3-.4-2-1-4.7-1.9-7.6-.9-2.9-2.1-5.5-2.9-7.3-.4-.9-.7-1.6-1-2.2-.2-.5-.3-.8-.3-.8,0,0,.2.3.5.8.3.5.6,1.2,1.1,2.1.9,1.8,2.1,4.4,3,7.3,1,2.9,1.5,5.7,1.8,7.7.2,1,.3,1.8.3,2.4,0,.6,0,.9,0,.9Z"/><path class="cls-2" d="M497,343.6c-.3-3.8-1.5-7.6-3.3-11-4.9-9.3-14.2-16.2-24.6-18.3,7.6,11.3,15.2,22.6,22.7,33.9l2.9,6c2-3.3,2.4-6.8,2.2-10.6Z"/><rect class="cls-5" x="476.8" y="410.3" width="52.9" height="9.4"/><polygon class="cls-5" points="480.7 417.9 485.4 451.4 520.5 451.4 525.7 417.9 480.7 417.9"/><path class="cls-3" d="M529.6,419.7c0,.1-11.9.2-26.6.2s-26.6,0-26.6-.2,11.9-.2,26.6-.2,26.6,0,26.6.2Z"/><path class="cls-6" d="M736.9,59.4c-14.3-1.8-27.3,8.3-29.1,22.6-.8,6,.6,11.7,3.4,16.5h0s-3.6,9.6-3.6,9.6l9.7-2.5c3.6,2.9,8.1,4.9,13.1,5.5,14.3,1.8,27.3-8.3,29.1-22.6,1.8-14.3-8.3-27.4-22.6-29.2Z"/><path class="cls-3" d="M736.9,59.4s.2,0,.4,0c.3,0,.8.1,1.3.2.3,0,.6,0,1,.2.3,0,.7.2,1.1.3.4.1.9.2,1.3.4.5.2.9.4,1.5.6,1.1.4,2.1,1,3.3,1.6.6.4,1.2.7,1.8,1.1.6.4,1.2.9,1.8,1.4,2.4,2,4.8,4.8,6.6,8.3,1.8,3.6,2.9,7.9,2.8,12.6-.1,1.2-.1,2.4-.4,3.6-.1.6-.2,1.2-.3,1.8-.2.6-.3,1.2-.5,1.8-.8,2.4-1.8,4.8-3.4,6.9-1.5,2.2-3.3,4.2-5.5,5.9-2.2,1.7-4.7,3.1-7.4,4-.7.2-1.4.5-2.1.7-.7.2-1.4.3-2.1.5-.7,0-1.5.2-2.2.3-.7,0-1.5,0-2.2,0-.7,0-1.5,0-2.2,0-.7,0-1.5-.1-2.2-.2-1.5-.2-3-.6-4.4-1.1-2.9-1-5.5-2.5-7.8-4.4h.2c-3.3.9-6.6,1.7-9.7,2.6-.1,0-.3,0-.3-.2,0,0,0-.1,0-.2,1.2-3.3,2.4-6.5,3.6-9.6,0-.1.2-.2.3-.1,0,0,0,0,0,0,0,0,0,0,0,0l-.4.3c-2.2-3.7-3.3-7.8-3.6-11.7-.1-2,0-3.9.3-5.8.2-.9.3-1.8.6-2.7.3-.9.5-1.8.8-2.6,1.3-3.3,3.1-6.2,5.2-8.4,2.1-2.3,4.4-4,6.7-5.2.3-.2.6-.3.8-.5.3-.1.6-.3.9-.4.6-.2,1.1-.5,1.6-.7,1.1-.3,2.1-.8,3.1-.9.5-.1,1-.2,1.4-.3.5,0,.9-.1,1.3-.2.4,0,.8,0,1.2-.1.4,0,.8,0,1.1,0,.7,0,1.3,0,1.9,0,.5,0,1,0,1.3.1.3,0,.6,0,.8,0,.2,0,.3,0,.3,0,0,0,0,0-.3,0-.2,0-.5,0-.8,0-.4,0-.8,0-1.3,0-.5,0-1.2,0-1.8,0-.3,0-.7,0-1.1,0-.4,0-.8.1-1.2.2-.4,0-.9.1-1.3.2-.5.1-.9.2-1.4.3-1,.2-2,.6-3.1,1-.5.2-1.1.5-1.6.7-.3.1-.6.3-.8.4-.3.1-.5.3-.8.5-2.3,1.2-4.5,2.9-6.6,5.2-2.1,2.3-3.9,5.1-5.1,8.3-.4.8-.6,1.7-.8,2.5-.3.9-.4,1.8-.6,2.7-.3,1.8-.4,3.7-.3,5.7.2,3.9,1.4,7.9,3.5,11.5,0,.1,0,.3,0,.3,0,0-.2,0-.3,0h0s.4,0,.4,0c-1.2,3.1-2.4,6.3-3.6,9.6l-.3-.3c3.2-.8,6.4-1.7,9.7-2.5,0,0,.2,0,.2,0,2.3,1.8,4.9,3.3,7.7,4.3,1.4.5,2.9.9,4.3,1.1.7.1,1.5.2,2.2.2.7,0,1.5.1,2.2,0,.7,0,1.5,0,2.2,0,.7,0,1.4-.2,2.1-.3.7-.2,1.4-.3,2.1-.5.7-.1,1.4-.4,2-.6,2.7-1,5.1-2.3,7.3-4,2.1-1.7,3.9-3.7,5.4-5.8,1.5-2.1,2.5-4.5,3.3-6.8.2-.6.3-1.2.5-1.8.2-.6.2-1.2.3-1.8.3-1.2.3-2.3.4-3.5.2-4.6-1-8.9-2.7-12.4-1.8-3.5-4.1-6.3-6.5-8.3-.6-.5-1.2-1-1.8-1.4-.6-.4-1.2-.8-1.8-1.1-1.2-.6-2.2-1.3-3.3-1.6-.5-.2-1-.4-1.4-.6-.5-.1-.9-.3-1.3-.4-.4-.1-.8-.2-1.1-.3-.3,0-.7-.1-1-.2-.6-.1-1-.2-1.3-.3-.3,0-.4-.1-.4-.1Z"/><path class="cls-2" d="M726.1,80.2h3.9s0-3.3,3.4-3.3c1.8,0,2.7,1.1,3,2,.4,1,.3,2.2-.3,3.1-.7,1.1-2.1,2.1-4.7,1.6v8.7h3.8v-5.1s5.4-1.4,5.4-7.3-5.1-7-7.3-7-7.3.4-7.3,7.2Z"/><rect class="cls-2" x="731.4" y="94.1" width="3.9" height="3.6"/><path class="cls-11" d="M298.5,94l-10.4-4.3c-3.6,2.9-8.1,4.9-13.1,5.5-14.3,1.8-27.3-8.3-29.1-22.6-1.8-14.3,8.3-27.4,22.6-29.2,14.3-1.8,27.3,8.3,29.1,22.6.8,6-.6,11.7-3.4,16.5h0s4.2,11.4,4.2,11.4Z"/><path class="cls-3" d="M298.5,94c-.2-.5-1.5-4.1-4.2-11.4h0c0-.1,0,0,0,0h0s.1.1.1.1c1-1.6,1.9-3.5,2.5-5.7.7-2.2,1.1-4.7,1.1-7.4,0-1.3,0-2.7-.3-4.1-.1-.7-.2-1.4-.4-2.1-.2-.7-.4-1.4-.6-2.1-.9-2.9-2.4-5.7-4.5-8.3-2.1-2.6-4.8-4.9-7.9-6.6-3.1-1.7-6.8-2.8-10.6-3.1-3.8-.3-7.8.3-11.5,1.8-3.7,1.5-7.2,3.8-9.9,6.9l-1,1.2c-.3.4-.6.9-.9,1.3-.3.4-.6.8-.9,1.3l-.8,1.4c-.3.4-.5.9-.7,1.4-.2.5-.4.9-.6,1.4-.2.5-.3,1-.5,1.5-.2.5-.3,1-.4,1.5-1,4-1.1,8-.3,11.8.8,3.8,2.3,7.3,4.5,10.3,2.2,2.9,4.8,5.3,7.7,7,2.9,1.7,6,2.8,9,3.4,3,.5,5.9.4,8.6,0,2.7-.4,5-1.2,7.1-2.2,2.1-1,3.8-2.1,5.2-3.3h0c6.6,2.7,9.9,4,10.4,4.2-.5-.2-3.7-1.6-10.3-4.3h0s0,0,0,0c-1.4,1.1-3.2,2.3-5.2,3.3-2.1,1-4.4,1.7-7.1,2.1-2.6.3-5.5.4-8.5,0-3-.5-6-1.6-8.9-3.3-2.8-1.7-5.5-4.1-7.6-7-2.1-2.9-3.7-6.4-4.4-10.2-.8-3.8-.7-7.8.3-11.7,0-.5.3-1,.4-1.4.2-.5.3-1,.5-1.4.2-.5.4-.9.6-1.4.2-.5.4-.9.7-1.4l.8-1.3c.2-.5.6-.9.9-1.3.3-.4.6-.9.9-1.3l1-1.2c2.7-3.1,6.2-5.4,9.8-6.8,3.7-1.4,7.6-2,11.3-1.7,3.8.3,7.3,1.4,10.4,3.1,3.1,1.7,5.8,4,7.8,6.5,2.1,2.5,3.6,5.4,4.5,8.2.2.7.4,1.4.6,2.1.2.7.3,1.4.4,2.1.3,1.4.3,2.8.3,4.1,0,2.7-.4,5.1-1.1,7.3-.7,2.2-1.5,4.1-2.5,5.7l-.3.5.4-.4h0s-.1,0-.1,0c2.7,7.2,4.1,10.8,4.3,11.3Z"/><path class="cls-3" d="M263.7,70.1c0-1.5-1.2-2.7-2.7-2.7s-2.7,1.2-2.7,2.7,1.2,2.7,2.7,2.7,2.7-1.2,2.7-2.7Z"/><path class="cls-3" d="M274.4,70.1c0-1.5-1.2-2.7-2.7-2.7s-2.7,1.2-2.7,2.7,1.2,2.7,2.7,2.7,2.7-1.2,2.7-2.7Z"/><path class="cls-3" d="M284.9,71.4c.7-1.3.3-2.9-1-3.6-1.3-.7-2.9-.3-3.6,1-.7,1.3-.3,2.9,1,3.6,1.3.7,2.9.3,3.6-1Z"/><path class="cls-6" d="M170.6,123.9l-4.2-7.5c1.5-4.7,1.7-9.9.4-15-3.8-14.8-18.8-23.7-33.5-20-14.8,3.8-23.7,18.8-20,33.5,3.8,14.8,18.8,23.7,33.5,20,6.2-1.6,11.3-5.1,15-9.8h0s8.8-1.2,8.8-1.2Z"/><path class="cls-3" d="M170.6,123.9s-.2,0-.5,0c-.4,0-.9.1-1.7.3-1.5.2-3.7.6-6.5,1,0,0-.1,0-.1,0,0,0,0,0,0,0h0s.2,0,.2,0c-2.2,2.8-5.6,6.1-10.7,8.4-1.3.6-2.6,1-4.1,1.4-1.5.3-3,.7-4.5.8-3.2.3-6.6,0-10-.9-3.4-.9-6.8-2.6-9.8-5-3-2.4-5.7-5.6-7.5-9.3-1.9-3.7-2.9-8-2.9-12.3,0-4.4,1-8.9,3.1-12.9l.8-1.5.9-1.4.5-.7.5-.7,1.1-1.3c.4-.4.8-.8,1.2-1.2.4-.4.8-.8,1.2-1.2.9-.7,1.7-1.5,2.6-2,3.6-2.5,7.7-4.1,11.8-4.7,4.1-.6,8.2-.2,12,.9,3.7,1.1,7.1,3,9.8,5.2,2.7,2.3,4.9,5,6.4,7.7.8,1.4,1.4,2.8,1.9,4.2.4,1.4.9,2.8,1.1,4.2,1,5.5.3,10.2-.8,13.5h0c1.3,2.4,2.4,4.3,3.1,5.6.3.6.6,1.1.8,1.4.2.3.2.5.2.5,0,0-.1-.2-.3-.5-.2-.3-.5-.8-.8-1.4-.7-1.3-1.8-3.1-3.1-5.5,0,0,0,0,0,0,1-3.3,1.8-8,.7-13.4-.2-1.3-.7-2.7-1.1-4.1-.6-1.4-1.1-2.8-1.9-4.1-1.6-2.7-3.7-5.4-6.4-7.6-2.7-2.2-6-4.1-9.7-5.1-3.7-1.1-7.7-1.5-11.8-.9-4.1.6-8.1,2.2-11.7,4.6-.9.6-1.7,1.3-2.6,2-.4.3-.8.8-1.2,1.1-.4.4-.8.8-1.1,1.2l-1,1.3-.5.7-.5.7-.9,1.4-.8,1.5c-2.1,4-3.1,8.4-3.1,12.7,0,4.3,1,8.5,2.9,12.1,1.8,3.7,4.4,6.8,7.4,9.1,3,2.4,6.3,4,9.7,5,3.4,1,6.7,1.2,9.9.9,1.6,0,3.1-.5,4.5-.8,1.4-.4,2.8-.8,4-1.4,5-2.2,8.5-5.5,10.7-8.2,0,0,0,0,.1,0,0,0,0,0,0,.1h0s-.1-.1-.1-.1c2.8-.4,5-.7,6.5-.9.7,0,1.3-.2,1.7-.2.4,0,.6,0,.6,0Z"/><polygon class="cls-5" points="128.4 109.2 131.8 105.4 139 111.2 151.9 97.6 155.4 101 138.8 118.1 128.4 109.2"/><path class="cls-14" d="M685.3,82.9l.5,43.9c0,7.5-1.3,18.4-13.1,18.1h0c-10.2-1.1-12.9-10.8-13-17.7,0-3.3,0-6.1-.1-6.4,0,0-11.2-.9-12.1-12-.5-5.3-.5-16.4-.4-26.4,0-10.8,8.4-19.6,19.2-20.4h1.1c11.6-.2,18.1,9.5,18,21Z"/><path class="cls-9" d="M659.6,120.7s7-.1,14.1-5.3c0,0-2.9,8.3-14,8.1v-2.8Z"/><path class="cls-3" d="M665.9,86.8c.2.2,1.5-.8,3.3-.9,1.8,0,3.2.9,3.4.6,0-.1-.1-.5-.7-.9-.6-.4-1.6-.8-2.8-.8-1.2,0-2.1.5-2.7,1-.6.5-.7.9-.6,1Z"/><path class="cls-3" d="M665.1,92.1c0,.8.7,1.4,1.6,1.4.8,0,1.5-.7,1.4-1.5,0-.8-.7-1.4-1.5-1.4-.8,0-1.5.7-1.4,1.5Z"/><path class="cls-3" d="M661.3,99.7c0,0-1.1-.2-2.8-.3-.4,0-.9,0-.9-.4-.1-.3,0-.8.2-1.3.3-1.1.7-2.2,1-3.4,1.4-4.8,2.4-8.8,2.3-8.9-.2,0-1.5,3.8-3,8.7-.3,1.2-.7,2.3-1,3.4-.1.5-.4,1.1-.1,1.7.1.3.5.5.8.6.3,0,.5,0,.7,0,1.7,0,2.8-.1,2.8-.2Z"/><path class="cls-3" d="M666.7,78.9c.2.4,1.7.1,3.4.2,1.8,0,3.2.5,3.4,0,0-.2-.2-.6-.8-.9-.6-.4-1.5-.7-2.6-.7-1.1,0-2,.2-2.6.5-.6.3-.9.7-.8.9Z"/><path class="cls-3" d="M649.1,81.7c.2.3,1.6,0,3.4,0,1.8,0,3.2.2,3.4-.2,0-.2-.2-.5-.8-.7-.6-.3-1.5-.5-2.6-.4-1,0-2,.3-2.6.6-.6.3-.9.6-.8.8Z"/><path class="cls-14" d="M685,91.1c.2,0,7.4-2.8,7.7,4.8.3,7.6-7.4,6.3-7.4,6.1,0-.2-.4-10.9-.4-10.9Z"/><path class="cls-9" d="M687.5,99.1s.1,0,.4.2c.2,0,.6.1,1,0,.8-.3,1.4-1.6,1.4-3,0-.7-.2-1.3-.4-1.9-.3-.5-.6-.9-1-1-.4,0-.7.2-.8.4,0,.2,0,.4,0,.4,0,0-.2-.1-.1-.4,0-.2.1-.3.3-.5.2-.2.4-.2.7-.2.6,0,1.1.5,1.4,1.1.3.6.5,1.3.5,2.1,0,1.5-.7,3-1.8,3.4-.5.2-1,0-1.2-.2-.2-.2-.3-.3-.3-.4Z"/><path class="cls-3" d="M663.1,104.9c0-.2,1.4-.6,2.4-2,.5-.7.8-1.4,1-2,.2-.5.4-.9.5-.9,0,0,0,.4,0,1-.1.6-.4,1.4-1,2.2-.6.8-1.4,1.3-1.9,1.5-.6.2-1,.2-1,.2Z"/><path class="cls-3" d="M632.4,72.4c.1-.4.4-.8.8-1,.9-.5,1.9-.4,2.8-.5,2.9,0,5.8-.9,8.3-2.5,1.2-1.7,2.5-3.2,3.9-4.7,3.3-3.5,6.1-5.8,9-6.9,3.7-1.5,9.9-2.1,13.7-1.1,3.8,1,7.3,4.1,7.8,8.1,2.2-1.8,5.4-1.8,8-.8h0c2.9,1,4.6,4.1,5.4,7.1.9,3,1.2,6.2,2.8,8.8.3.6.7,1.2.4,1.8-.2.4-.8.6-1.3.6-.5,0-.9-.3-1.4-.6.3.8.7,1.6,1,2.3-1.1.2-2.2,0-3.2-.2-.6,2.8-1.4,6-2.1,7.9-1.2,0-2.3,0-3.1.8-1,.9-1.5,2.7-3.2,2-.9-.3-1.7-2.2-1.9-3-1.9-5.9-2.6-12.1-1.9-18.2-1.2-1.3-2.7-2.3-4.3-3.1h.1c-3.1-1-6.6-2-9.5-.6-2.3,1.1-3.6,3.5-5.3,5.4-3.2,3.6-7.6,5.5-12.4,5.7-.2,3.1,0,7.5,0,10.6l-2.6-5h0c-.2-.3-.4-.7-.6-1.1h0c-.3-.7-.5-1.3-.9-1.9,0,0,0,0,0,0-1.7,1.5-4.2-.8-2.8-2.6.3-.4.6-.7.9-.9-.8.7-1.9,1.1-2.9.8-1-.3-1.8-1.3-1.7-2.4,0-.7.6-1.4,1.2-1.6-1.4.1-2.8-.2-3.9-.9-.8-.4-1.5-1.2-1.3-2.2Z"/><path class="cls-2" d="M675.2,65s.5.3,1.1,1c.6.7,1.4,2,1.7,3.7.2.8.3,1.8.3,2.8,0,1,0,2.1-.2,3.3,0,1.1-.2,2.4,0,3.6,0,.6.1,1.3.2,1.9.1.6.3,1.3.8,1.9.4.4,1,.6,1.6.5.6,0,1-.4,1.4-.8.7-.8.9-1.9,1.1-2.8h-.2c.4.9.8,1.7,1.3,2.3.6.7,1.4,1.1,2.1,1.2.4,0,.8,0,1.1-.2.3-.2.6-.5.8-.8.2-.3.3-.7.2-1,0-.3-.1-.6-.4-.9h-.1c.9,1.1,1.8,1.6,2.4,1.9.3.1.6.2.7.3.2,0,.3,0,.3,0,0,0,0,0-.2-.1-.2,0-.4-.2-.7-.3-.6-.3-1.5-.8-2.3-1.8h-.1c.4.5.4,1.2,0,1.7-.2.3-.4.5-.7.7-.3.1-.7.2-1,.2-.7,0-1.5-.5-2-1.1-.5-.6-.9-1.4-1.3-2.3l-.2-.4v.4c-.2.9-.4,1.9-1.1,2.7-.3.4-.8.6-1.3.7-.5,0-1,0-1.3-.4-.4-.5-.6-1.1-.7-1.7-.1-.6-.2-1.3-.2-1.9,0-1.2,0-2.4,0-3.6,0-1.1.1-2.2.1-3.3,0-1-.1-2-.3-2.8-.4-1.7-1.1-3-1.8-3.7-.7-.7-1.2-.9-1.2-.9Z"/><path class="cls-2" d="M641,75.7s0,0,0,0c0,0,.2.1.3.2.1,0,.3.2.5.3.2.1.4.2.7.4,1,.5,2.7,1,4.7.9,2-.1,4.5-.8,6.7-2.5,2.2-1.6,4.1-3.9,5.7-6.6.8-1.3,1.5-2.7,2.2-4,.7-1.3,1.5-2.4,2.5-3.4.9-.9,2-1.6,3.2-1.9.6-.2,1.1-.2,1.7-.2.5,0,1.1.1,1.5.3,1,.3,1.7.8,2.3,1.4.6.5,1,1.1,1.2,1.6.5,1,.5,1.7.6,1.7,0,0,0,0,0-.1,0,0,0-.2,0-.3,0-.3-.2-.7-.4-1.2-.3-.5-.6-1.1-1.2-1.7-.6-.6-1.4-1.1-2.3-1.5-.5-.2-1-.3-1.6-.3-.6,0-1.2,0-1.7.2-1.2.3-2.3,1-3.3,2-1,.9-1.8,2.1-2.5,3.4-.7,1.3-1.4,2.6-2.2,4-1.6,2.7-3.5,5-5.6,6.5-2.1,1.6-4.5,2.3-6.5,2.5-2,.1-3.6-.3-4.7-.8-1-.5-1.5-.9-1.5-.8Z"/><path class="cls-2" d="M640,70.9s.1.1.4.3c.3.2.7.4,1.2.6.5.2,1.1.4,1.9.6.7.2,1.5.3,2.4.3.9,0,1.7,0,2.4-.2.7-.1,1.4-.3,1.9-.5.5-.2.9-.4,1.2-.5.3-.1.4-.2.4-.3,0,0-.6.3-1.7.6-.5.2-1.2.3-1.9.4-.7.1-1.5.2-2.3.1-.8,0-1.6-.1-2.3-.3-.7-.2-1.3-.3-1.8-.5-1-.4-1.6-.7-1.6-.7Z"/><path class="cls-3" d="M649.1,86.8c.2.2,1.5-.8,3.3-.9,1.8,0,3.2.9,3.4.6,0-.1-.1-.5-.7-.9-.6-.4-1.6-.8-2.8-.8-1.2,0-2.1.5-2.7,1-.6.5-.7.9-.6,1Z"/><path class="cls-3" d="M649.4,92.1c0,.8.7,1.4,1.6,1.4.8,0,1.5-.7,1.4-1.5,0-.8-.7-1.4-1.5-1.4-.8,0-1.5.7-1.4,1.5Z"/><path class="cls-3" d="M660.1,418.5l.8,21.4s-21.5,8-21.7,12h41.6c0,0,.1-33.5.1-33.5h-20.8Z"/><path class="cls-13" d="M673.8,438.1c.8.2,1.4,1.1,1.2,1.9-.2.8-1.1,1.4-1.9,1.2-.8-.2-1.5-1.3-1.2-2.1.3-.8,1.4-1.4,2.1-1"/><path class="cls-2" d="M680.8,451.8v-3.4c-.1,0-40,1.3-40,1.3,0,0-1.8.8-1.6,2.1h41.6Z"/><path class="cls-6" d="M660.3,439.7c0,.2,1,.3,2,.9,1,.6,1.5,1.5,1.7,1.4.2,0-.1-1.3-1.3-2-1.2-.8-2.4-.5-2.4-.3Z"/><path class="cls-6" d="M655.9,441.5c0,.2.8.5,1.5,1.4.7.8.9,1.8,1.1,1.8.2,0,.3-1.2-.6-2.2-.9-1.1-2.1-1.1-2.1-.9Z"/><path class="cls-6" d="M653.5,446.7c.2,0,.5-1,0-2.1-.5-1.1-1.5-1.6-1.6-1.4-.1.2.5.8.9,1.7.4.9.5,1.8.7,1.8Z"/><path class="cls-6" d="M660.6,434.8c0,.2,1,0,2.2,0,1.1,0,2,.4,2.1.3.1-.1-.8-.9-2.1-1-1.4,0-2.3.6-2.2.7Z"/><path class="cls-3" d="M711,415.6l2.3,25.8-4.1,20.9c-.3,1.5.7,3,2.3,3.1h0c.9.1,1.7-.2,2.3-.8,3.7-4,17.3-19,17-20.9-.3-2.2-.6-27.4-.6-27.4l-19.1-.8Z"/><path class="cls-2" d="M711.5,465.5l19.2-23.4v1.1c.1.9-.1,1.9-.7,2.6-1.5,2-5.8,7.6-16.1,18.9-.6.7-1.5,1-2.4.8h0Z"/><g class="cls-7"><path class="cls-6" d="M724.8,434.1c-.6.5-.8,1.5-.3,2.1.5.6,1.5.8,2.1.3.6-.5.8-1.7.3-2.3-.5-.6-1.7-.7-2.2,0"/></g><path class="cls-6" d="M716.7,453.8c-.1,0-.8-1.2-2.4-1.9-1.6-.7-3-.2-3-.4,0,0,.3-.3.9-.4.6-.1,1.5,0,2.3.3.9.4,1.5,1,1.8,1.5.3.5.4.9.3.9Z"/><path class="cls-6" d="M715,457.4c-.1.1-1-.7-2.4-1-1.4-.3-2.5,0-2.5-.2,0-.1,1.1-.8,2.7-.4,1.6.3,2.4,1.4,2.2,1.5Z"/><path class="cls-6" d="M719.8,449.2c-.1.1-1.5-1.1-3.5-1.7-2.1-.7-3.9-.5-3.9-.6,0-.1,1.8-.6,4.1.1,2.2.7,3.5,2.2,3.4,2.3Z"/><path class="cls-6" d="M719.8,441.2c0,.2-1.5-.3-3.4-.3-1.9,0-3.3.6-3.4.4,0-.1,1.4-1,3.4-1,2,0,3.5.7,3.4.9Z"/><path class="cls-6" d="M719.3,433.6c0,.2-1.6-.6-3.5-.4-2,.2-3.3,1.2-3.4,1.1,0,0,.2-.4.8-.8.6-.4,1.5-.8,2.5-.9,1.1-.1,2,0,2.7.4.6.3,1,.5.9.6Z"/><path class="cls-6" d="M715.7,431.8s-.1-.3,0-1c0-.6.1-1.6.6-2.6.2-.5.5-1.1,1.2-1.5.3-.2.9-.2,1.2.2.3.3.4.7.5,1.1,0,1.6-1.2,3.3-3.1,3.7-1.8.3-3.6-.6-4.4-2-.2-.4-.3-.8-.2-1.3.2-.5.7-.7,1.1-.6.8,0,1.3.5,1.8.8.9.7,1.5,1.4,1.9,1.9.4.5.5.9.5.9,0,0-.7-1.2-2.6-2.4-.5-.3-1-.6-1.6-.6-.3,0-.5.1-.6.3,0,.2,0,.5.1.8.7,1.1,2.3,2,3.8,1.7,1.5-.3,2.7-1.8,2.6-3.1,0-.3-.1-.6-.3-.8-.2-.2-.4-.2-.7,0-.5.2-.8.8-1,1.3-1,2-.8,3.4-.9,3.4Z"/><path class="cls-3" d="M640.1,237.9s-3.2,12.2-2,27.1c.4,5.8,19.9,165,19.9,165h26.2l-7.4-149.6,2.1.5s14.3,63.8,15.5,74.2c1,9.3,13.1,76.8,13.1,76.8l24,.3-7.7-89.3-8.9-85.6-3.4-24.9-71.5,5.7Z"/><path class="cls-2" d="M677.8,270.2s0,0-.2.2c-.1,0-.3.2-.6.3-.6.2-1.6,0-2.5-.6-.9-.7-1.5-2-1.7-3.4-.2-1.4-.2-3-.3-4.6-.2-3.2-.3-6.2-.4-8.3,0-2.1,0-3.4,0-3.4s.2,1.3.4,3.4c.2,2.1.3,5,.5,8.3.1,1.6.1,3.2.3,4.5.2,1.4.6,2.6,1.5,3.2.8.6,1.7.8,2.2.7.6,0,.8-.3.9-.3Z"/><path class="cls-2" d="M716.3,254.8s-.3.1-.7.3c-.5.1-1.2.3-2.1.4-1.8.2-4.3,0-6.9-1-2.6-1-4.5-2.7-5.7-4-.6-.7-1-1.3-1.3-1.7-.3-.4-.4-.7-.3-.7,0,0,.7.9,1.9,2.2,1.2,1.3,3.1,2.8,5.6,3.8,2.5,1,5,1.2,6.7,1.1,1.8,0,2.8-.3,2.9-.3Z"/><path class="cls-2" d="M650.6,248.1c0,0,0,1-.4,2.6-.4,1.6-1.2,3.8-2.6,5.9-1.4,2.1-3.1,3.7-4.4,4.7-1.3,1-2.2,1.4-2.3,1.4-.1-.1,3.5-2.2,6.2-6.4,2.8-4.1,3.3-8.3,3.5-8.2Z"/><path class="cls-13" d="M700.2,178l9.8,9.4-3.2-18.1,19.9-6.3s5.3,24.8,6.2,30.6c1.6,10.5-.4,25.5-10.2,26.5-10.6,1.1-18.6-9.3-23.7-16.2-3.9-5.3-10.2-14.5-10.2-14.5l11.4-11.6"/><path class="cls-13" d="M624.5,161.9c-3.2,10-7.6,11.6-9.4,40.3-.3,5.6.9,13.1,6.2,14.9,5.9,2,14.8-1.7,17.6-6.5l.2-19.8-14.6-28.9Z"/><path class="cls-3" d="M637.6,203.9c-.1,0-.7-2-2-4.2-1.3-2.2-2.8-3.7-2.7-3.8,0,0,.4.3,1,.9.6.6,1.3,1.6,2,2.7.7,1.1,1.1,2.2,1.4,3.1.3.8.3,1.3.3,1.4Z"/><path class="cls-13" d="M619.7,173.5c.2-.6,10-27.3,13.1-33.1,3.7-7,11.6-10.1,16.5-10.4,4.9-.3,57.2,3.9,57.2,3.9,0,0,14.6,3.7,17.6,16.9,3.7,16.6,6.7,33,6.7,33l-26.2,5.7-3.1-7.8-49.2,11-12-17.8-20.5-1.4Z"/><path class="cls-13" d="M709.9,135.3l-20.4-9-2.3-8.8-23.8,11.3-5-5.5-2.1,6.2-5.2,1.7-10.3,20.3-1.9,47-2.5,39.5,2.6,6.2,21.9,3.2c2.4.4,4.8.4,7.2,0l44.4-7.3,1.1-13-4.7-35.9,1-55.8Z"/><path class="cls-13" d="M687.2,117.5s-2.7.8-9.5,4.4c-6.7,3.6-14.3,6.8-14.3,6.8l.6,10.8,25.4-12.7"/><polyline class="cls-13" points="658.3 123.3 663.3 128.8 660.7 140.3 656.2 129.9"/><g class="cls-8"><path d="M663.2,130c-.2.2-1.6,13.3-1.6,13.3l25.4-15.4-23.1,11.6-.7-9.6Z"/></g><path class="cls-2" d="M663.4,179.1c.4-10.1-1.2-35.7-1.2-35.7l-3.3-.5s-6.2,24.9-8.5,55.5c-.9,12.4-.9,26.7-.9,26.7l6.7,14.3,7.4-14.2s-.5-33.8,0-46.1Z"/><path class="cls-3" d="M703.8,159.1s.1.4.2,1c.1.7.3,1.7.5,2.9.4,2.5,1,5.8,1.6,9.4.6,3.7,1.2,7,1.5,9.4.2,1.2.3,2.2.4,2.9,0,.7.1,1.1.1,1.1,0,0-.1-.4-.2-1-.1-.7-.3-1.7-.5-2.9-.4-2.5-1-5.8-1.6-9.4-.6-3.7-1.2-7-1.5-9.4-.2-1.2-.3-2.1-.4-2.9,0-.7-.1-1.1-.1-1.1Z"/><path class="cls-3" d="M711.4,136.9s-.7.6-1.7,1.7c-1,1.1-2.3,2.7-3.4,4.6-1.1,2-1.7,3.9-2,5.4-.3,1.4-.4,2.4-.5,2.4,0,0,0-.2,0-.6,0-.4,0-1,.2-1.8.3-1.5.8-3.5,1.9-5.5,1.1-2,2.4-3.6,3.5-4.6.5-.5,1-.9,1.3-1.1.3-.2.5-.4.5-.4Z"/><polygon class="cls-2" points="663.4 133.9 661.1 133.1 659 136.8 658.6 142.8 661.6 143.3 663.9 139.6 663.4 133.9"/><path class="cls-3" d="M638.9,152c0,0,.2,13.1.2,29.3s0,29.3-.2,29.3-.2-13.1-.2-29.3,0-29.3.2-29.3Z"/><path class="cls-3" d="M663.6,128.7s-.5.8-1.3,2.2c-.8,1.3-1.9,3.2-2.9,5.4,0,.2-.2.4-.2.5l-.2.3-.2-.3c-1-2.1-1.7-4-2.1-5.4-.2-.7-.4-1.3-.5-1.7,0-.4-.1-.6-.1-.6,0,0,.3.8.8,2.2.5,1.4,1.2,3.3,2.2,5.3h-.3c0-.2.2-.3.2-.5,1-2.2,2.1-4.1,3-5.4.4-.7.8-1.2,1.1-1.5.3-.4.4-.5.4-.5Z"/><path class="cls-3" d="M689.5,126.3s-.1,0-.3.2c-.3.1-.6.3-1,.5-.9.5-2.2,1.2-3.8,2-3.2,1.7-7.6,4-12.4,6.6-3,1.6-5.8,3-8.2,4.3h-.2c0,.1,0-.1,0-.1,0-3.2,0-5.8,0-7.7,0-.9,0-1.6,0-2.2,0-.5,0-.8,0-.8,0,0,0,.3,0,.8,0,.5,0,1.3,0,2.2,0,1.9.1,4.6.2,7.7h-.2c2.4-1.4,5.2-2.8,8.2-4.4,4.9-2.6,9.3-4.9,12.5-6.5,1.6-.8,2.9-1.4,3.8-1.9.4-.2.8-.4,1.1-.5.2-.1.4-.2.4-.1Z"/><path class="cls-3" d="M641.9,134.6c0,0-.3.7-.9,1.9-.5,1.1-1.1,2.8-1.5,4.7-.3,1.9-.4,3.6-.3,4.9,0,1.3.2,2,.1,2,0,0,0-.2-.2-.5,0-.3-.2-.9-.2-1.5-.1-1.3-.1-3.1.2-5,.4-1.9,1-3.6,1.6-4.7.3-.6.5-1,.7-1.3.2-.3.3-.5.3-.4Z"/><path class="cls-3" d="M661.1,143.7c0,0-.6-.2-1.3-.6-.7-.4-1.2-.8-1.1-.9,0,0,.6.2,1.3.6.7.4,1.2.8,1.1.9Z"/><path class="cls-3" d="M662.2,142.2c0,0-.8-1.3-1.5-3.1-.8-1.7-1.3-3.2-1.2-3.2,0,0,.8,1.3,1.5,3.1.8,1.7,1.3,3.2,1.2,3.2Z"/><g class="cls-8"><path d="M670,188.6c-.1-.6-.3-1.2-.8-1.5-.8-.5-1.9.2-2.8.7-2.3,1.4-5.1,1.3-7.7,1.2-8-.3-15.9-.9-23.8-2.3-3.9-.6-7.7-1.5-11.2-3.3-3.4-1.8-6.4-4.8-7.6-8.6l-1.8-1c1.4,3,1.3,11.7,1.8,15,.5,3.3,2,5.7,5.2,6.7,1.3.4,2.7.4,4,.3,13.1-.6,26.3,0,39.5-.7,1.9,0,4-.3,5-1.9.8-1.3.5-3.1.1-4.6Z"/></g><g class="cls-8"><path d="M691.1,193.2h0c1,5.5,2.9,13,5.6,17.9h8c-3-3.8-13.6-17.9-13.6-17.9Z"/></g><path class="cls-14" d="M702.9,183l-14.8-18.7-9.5-2.5-11,.6s-.6,1.7,1.2,2.8h-4.1c0,0-1,2,1.3,3.1l-2.9.3s1.1,3,4.3,2.7c3.3-.3,8.6,0,8.6,0l5.4,3.5-8.4-.9-6.2.7s-.9,1.5.4,2c1.4.5,6.7.5,6.7.5l7.5,3s2.7,4.5,3.6,5.7c1,1.2,5.8,3.7,5.8,3.7l2.3,2.4,9.8-8.7Z"/><path class="cls-9" d="M665.6,164.7c0,0,1.2.1,3.1.1,1.9,0,4.6,0,7.6-.2,1,0,1.9,0,2.8-.1h-.1c2.1.8,4,1.4,5.3,1.8,1.3.4,2.1.7,2.2.6,0,0-.7-.4-2-1-1.3-.5-3.1-1.3-5.3-2.1h0s0,0,0,0c-.9,0-1.9,0-2.8,0-3,.1-5.6.2-7.6.4-1.9.1-3.1.3-3.1.3Z"/><path class="cls-9" d="M664.6,168.1c0,0,1.1,0,2.9,0,1.8,0,4.2-.2,6.9-.4.9,0,1.8-.1,2.7-.2h-.2c3.7,1.7,6.4,2.9,6.5,2.8,0-.1-2.6-1.5-6.2-3.4h0s0,0,0,0c-.8,0-1.7.1-2.7.2-2.7.2-5.1.4-6.9.6-1.8.2-2.8.3-2.8.4Z"/><path class="cls-5" d="M672.1,151.1l-36.7.2h0s-6.6-6.5-6.6-6.5c-.5-.5-1.3-.8-2-.8h-15.2c-.9,0-1.7.8-1.6,1.7l2.1,34.5,60.6,10.8,1-38.3c0-.9-.7-1.7-1.6-1.6Z"/><polygon class="cls-11" points="672.4 188.7 611 184.9 611 147.4 671.4 147.4 672.4 188.7"/><path class="cls-5" d="M604.4,152.3l6.2,36.6c.2,1.3,1.3,2.2,2.6,2.2h59.5s0,0,0,0l-5.8-39.6c-.2-1.3-1.3-2.3-2.6-2.3h-57.3c-1.6,0-2.9,1.5-2.6,3.1Z"/><path class="cls-14" d="M601,165.5c-.8-.9-.8-2.4,0-3.4.7-1,2-1.5,3.2-1.5,1.2,0,2.4.3,3.6.7,1.4.5,2.8,1.2,4.1,2,.9.6,1.8,1.3,2,2.4.2,1.1-1,2.3-1.9,1.7,1.2.5,2.4,1.8,2.6,3.1.2,1.3-.5,2.1-1.8,2.4,1,.4,1.6,1.6,1.2,2.6-.5,1-1.9,1.3-2.9.9-1-.4-1.8-1.3-2.5-2.1.7,1.3,1,2.8.7,4.2-2.9-1-5.1-3.7-5.4-6.7-1.4-1.1-1.9-3.2-1-4.7-1.2-.4-2.5-2.1-2.4-3.3"/><path class="cls-9" d="M612.8,173s-.5-.4-1.2-.9c-.8-.6-1.9-1.4-3.3-1.7-.7-.1-1.4-.1-2,0-.6.1-1.1.4-1.4.7-.7.6-.9,1.2-.9,1.2,0,0,0-.2.1-.4.1-.3.3-.6.7-.9.4-.3.9-.7,1.5-.8.6-.2,1.4-.2,2.1,0,1.5.3,2.6,1.2,3.3,1.8.7.6,1.1,1.1,1.1,1.1Z"/><path class="cls-9" d="M612.4,167.6s-.6-.2-1.5-.6c-.5-.2-1-.5-1.6-.7-.6-.2-1.3-.4-2.1-.5-.7-.1-1.5-.1-2.1,0-.6.1-1.2.4-1.5.7-.8.6-1,1.2-1,1.2,0,0,0-.2.1-.4.1-.3.4-.6.8-1,.4-.3,1-.6,1.6-.8.7-.1,1.4-.1,2.2,0,.8.1,1.5.3,2.1.6.6.2,1.2.5,1.6.8.9.5,1.4.8,1.4.8Z"/><path class="cls-3" d="M724.5,199s-.2,0-.5-.3c-.3-.2-.7-.5-1.2-.9-1.1-.8-2.7-2-4.6-3.4-3.9-3-9.3-7.1-15.4-11.8h.3c-1.5,1.3-3,2.8-4.6,4.2-2.5,2.3-5,4.5-7.2,6.6v-.3c4.2,5.4,7.7,10.1,10.3,13.5,1.2,1.6,2.2,3,2.9,3.9.3.4.6.8.8,1.1.2.2.3.4.2.4,0,0-.1-.1-.3-.3-.2-.3-.5-.6-.8-1-.7-.9-1.8-2.2-3.1-3.9-2.6-3.4-6.2-8-10.4-13.4v-.2c-.1,0,0-.2,0-.2,2.2-2.1,4.7-4.3,7.2-6.6,1.6-1.4,3.1-2.9,4.6-4.2h.2c0-.1.2,0,.2,0,6.1,4.7,11.4,8.9,15.3,11.9,1.9,1.5,3.4,2.7,4.5,3.5.5.4.9.7,1.2,1,.3.2.4.3.4.4Z"/><path class="cls-3" d="M354.6,417l-1.2,21.8s21.8,8.5,21.9,12.6l-42.4-.8.5-34.1,21.2.5Z"/><path class="cls-13" d="M340.3,436.7c-.8.2-1.4,1.1-1.2,2,.2.8,1.1,1.4,1.9,1.2.8-.2,1.6-1.3,1.3-2.1-.3-.8-1.4-1.5-2.1-1.1"/><path class="cls-2" d="M332.9,450.6l.2-3.4,40.6,2s1.9.9,1.6,2.2l-42.4-.8Z"/><path class="cls-6" d="M354.1,438.6c0,.2-1,.3-2.1.9-1,.6-1.6,1.5-1.8,1.4-.2,0,.1-1.3,1.4-2,1.3-.8,2.5-.5,2.5-.3Z"/><path class="cls-6" d="M358.5,440.5c0,.2-.9.5-1.6,1.4-.7.8-.9,1.8-1.1,1.8-.2,0-.3-1.2.6-2.2.9-1.1,2.1-1.1,2.1-.9Z"/><path class="cls-6" d="M360.9,445.9c-.2,0-.5-1,0-2.1.5-1.1,1.5-1.6,1.6-1.4.1.2-.5.8-1,1.7-.5.9-.5,1.8-.7,1.8Z"/><path class="cls-6" d="M353.8,433.6c0,.2-1-.1-2.2,0-1.2,0-2.1.4-2.2.2-.1-.2.8-.9,2.2-.9,1.4,0,2.3.6,2.2.8Z"/><path class="cls-3" d="M303.3,414.8l-2.3,26.3,4.2,21.4c.3,1.5-.8,3-2.3,3.2h0c-.9.1-1.7-.2-2.3-.8-3.8-4.1-17.6-19.3-17.3-21.3.3-2.2.6-27.9.6-27.9l19.5-.8Z"/><path class="cls-2" d="M302.8,465.7l-19.5-23.9v1.1c-.1,1,.1,1.9.7,2.7,1.5,2.1,6,7.7,16.4,19.2.6.7,1.5,1,2.4.9h0Z"/><g class="cls-7"><path class="cls-6" d="M289.3,433.7c.6.5.8,1.5.3,2.2-.5.7-1.5.8-2.1.3-.6-.5-.9-1.7-.3-2.3.5-.6,1.8-.7,2.3,0"/></g><path class="cls-6" d="M297.5,453.8c.1,0,.8-1.3,2.4-1.9,1.6-.7,3-.2,3.1-.4,0,0-.3-.3-.9-.4-.6-.1-1.5-.1-2.4.3-.9.4-1.5,1-1.9,1.5-.3.5-.4.9-.3.9Z"/><path class="cls-6" d="M299.2,457.5c.1.1,1-.7,2.4-1,1.4-.3,2.5,0,2.6-.2,0-.1-1.1-.8-2.7-.4-1.6.4-2.4,1.5-2.3,1.6Z"/><path class="cls-6" d="M294.3,449c.1.1,1.5-1.1,3.6-1.8,2.1-.7,4-.5,4-.7,0-.1-1.9-.6-4.1.1-2.3.7-3.6,2.2-3.4,2.3Z"/><path class="cls-6" d="M294.4,441c0,.2,1.6-.4,3.5-.3,1.9,0,3.4.6,3.4.4,0-.1-1.4-1-3.4-1-2,0-3.5.8-3.5.9Z"/><path class="cls-6" d="M294.8,433.2c0,.2,1.6-.6,3.6-.4,2,.2,3.3,1.2,3.4,1.1,0,0-.2-.4-.8-.8-.6-.4-1.5-.8-2.6-.9-1.1-.1-2.1,0-2.7.4-.7.3-1,.6-.9.6Z"/><path class="cls-6" d="M298.5,431.3s.1-.3.1-1c0-.6-.1-1.6-.6-2.7-.3-.5-.5-1.2-1.2-1.6-.4-.2-.9-.2-1.2.2-.3.3-.5.7-.5,1.2,0,1.7,1.3,3.4,3.1,3.7,1.9.3,3.7-.6,4.5-2,.2-.4.3-.8.2-1.3-.2-.5-.7-.7-1.1-.6-.8,0-1.3.5-1.8.8-1,.7-1.6,1.4-1.9,1.9-.4.5-.5.9-.5.9,0,0,.7-1.3,2.6-2.5.5-.3,1-.6,1.6-.7.3,0,.5.1.6.3,0,.2,0,.5-.2.8-.7,1.1-2.3,2-3.9,1.7-1.6-.3-2.7-1.8-2.7-3.1,0-.3.1-.6.3-.8.2-.2.4-.2.7,0,.5.2.8.8,1.1,1.3,1,2,.8,3.5.9,3.5Z"/><path class="cls-3" d="M375.6,233.7s3.2,12.4,2,27.6c-.5,5.9-20.3,168.2-20.3,168.2h-26.7l7.5-152.6-2.2.5s-14.6,65.1-15.8,75.6c-1.1,9.5-13.4,78.3-13.4,78.3l-24.4.3,7.8-91,9.1-87.3,3.4-25.4,72.9,5.9Z"/><path class="cls-3" d="M333.9,261.4s.4.3,1.1.6c.7.3,1.8.9,3.3,1.2.7.1,1.6.2,2.5,0,.9-.2,1.8-.5,2.6-1.2.8-.7,1.2-1.7,1.6-2.7.3-1,.5-2.1.7-3.2.9-4.4,1.4-8.4,1.8-11.3.2-1.5.3-2.6.3-3.5,0-.8,0-1.3,0-1.3,0,0-.1.4-.3,1.3-.1.9-.3,2.1-.5,3.4-.4,2.9-1.1,6.9-1.9,11.3-.4,2.2-.7,4.4-2.1,5.7-1.4,1.3-3.2,1.4-4.6,1.2-1.4-.2-2.5-.7-3.3-1-.8-.3-1.2-.5-1.2-.4Z"/><path class="cls-3" d="M342,240.7s-.2-.1-.5-.2c-.4,0-.9,0-1.5.5-.5.4-1.1,1.1-1.1,2.1,0,1,.7,1.9,1.7,2.3,1,.4,2.2.2,2.8-.6.6-.7.7-1.6.5-2.3-.2-.7-.5-1.1-.8-1.3-.3-.2-.5-.3-.5-.2,0,0,.8.4.9,1.7,0,.6,0,1.3-.5,1.9-.5.6-1.4.7-2.2.4-.8-.3-1.4-1-1.4-1.8,0-.7.4-1.4.9-1.7.9-.8,1.8-.5,1.8-.6Z"/><path class="cls-3" d="M299.6,251.7s.3,0,.9.1c.6,0,1.4,0,2.5,0,2.1,0,5-.6,8-1.9,3-1.3,5.4-3,7-4.5.8-.7,1.4-1.3,1.7-1.8.4-.5.6-.7.5-.8,0,0-.9.9-2.5,2.3-1.6,1.3-4,3-6.9,4.2-2.9,1.2-5.8,1.8-7.9,2-2.1.2-3.4.1-3.4.2Z"/><path class="cls-3" d="M364.6,241.2c0,0,.4,1.1,1.2,2.7.9,1.6,2.3,3.7,4.1,5.8,1.9,2,3.8,3.5,5.2,4.5,1.5.9,2.4,1.4,2.5,1.3,0,0-.9-.6-2.3-1.7-1.4-1-3.3-2.6-5.1-4.5-1.8-2-3.2-4-4.2-5.6-.9-1.5-1.5-2.5-1.5-2.5Z"/><path class="cls-4" d="M431.2,166.5l3.4-2.1s4.4-4,5.6-4.8c1.2-.9,5.9-3,6.5-2.9s7.1-.4,8.6-1.1,3.2-1.6,3.2-1.6c0,0,1.1,1.2.2,2.7-.9,1.6-5.6,4.6-5.6,4.6l1.8,11.5s-4.4,3.4-7.1,3.7c-2.7.2-5.3-.3-6.1,0-.8.2-2.7.9-2.7.9l-7.8-10.8Z"/><polygon class="cls-3" points="443.3 167.2 473.1 147.5 474.8 150 445.3 169.6 443.3 167.2"/><path class="cls-4" d="M460,161.4s2.3.9,1.1,3c-1.2,2.1-2.8,1.4-2.8,1.4,0,0,.6,2.2-2,3.5,0,0,.3,2.2-1.5,3.5l-1.4.7-.9-1.8s-5.4-.5-6.3-2.7v-1.1s-1.1-.5-.9-1.6c.2-1.1.1-1.1,2.2-1.8,2-.7,6.4-.2,6.4-.2,0,0-2.3-.9-2.3-2.1,0-1.2,1-2,3.5-1.8,2.5.2,5,1,5,1Z"/><path class="cls-12" d="M460,161.4s-.3,0-.9-.2c-.6-.1-1.4-.3-2.5-.5-.6,0-1.2-.2-1.8-.2-.7,0-1.4,0-2.1.3-.3.1-.6.4-.8.7-.2.3-.2.8,0,1.1.2.3.5.6.9.9.4.2.8.5,1.2.6l1,.4h-1.1c-1.6-.2-3.5-.3-5.3,0-.5,0-.9.2-1.4.4-.4.2-1,.3-1.3.6-.2.1-.2.3-.3.6v.4c0,.1,0,.2,0,.3,0,.4.4.8.8,1h.1c0,0,0,.2,0,.2,0,.4,0,.7,0,1.1h0s0,.1.1.2c.3.4.7.8,1.2,1,.5.3,1,.5,1.5.6,1.1.3,2.1.5,3.2.6h.1s0,.1,0,.1c.3.6.6,1.2.9,1.8h-.3c.5-.3,1-.6,1.4-.8h0c1.1-.8,1.5-2.1,1.4-3.3h0c0-.1.1-.2.1-.2.7-.3,1.3-.8,1.6-1.4.3-.6.4-1.3.3-1.9v-.2s.2,0,.2,0c.5.2,1,0,1.4-.1.4-.2.7-.6,1-.9.2-.3.4-.7.5-1,0-.3,0-.7,0-.9-.2-.6-.6-.9-.8-1-.3-.2-.4-.3-.4-.3,0,0,.2,0,.4.2.3.2.7.5.9,1,.1.3.2.7,0,1,0,.4-.3.8-.5,1.1-.3.4-.6.7-1,1-.5.2-1,.4-1.6.2l.2-.2c.1.7,0,1.4-.3,2.1-.4.7-1,1.2-1.7,1.5v-.2c.2.7,0,1.3-.2,2-.2.6-.7,1.2-1.3,1.7h0s0,0,0,0c-.5.2-1,.5-1.4.8h-.2c0,0,0,0,0,0-.3-.6-.6-1.2-.9-1.8h.2c-1.1,0-2.2-.2-3.3-.5-.5-.2-1.1-.4-1.6-.6-.5-.3-1-.6-1.4-1.2,0-.1-.1-.2-.2-.3h0s0,0,0,0c0-.4,0-.8,0-1.1v.2c-.4-.3-.8-.7-.9-1.4,0-.1,0-.3,0-.4v-.4c.1-.2.2-.6.5-.8.5-.3,1-.5,1.4-.6.5-.2,1-.3,1.4-.4,1.9-.3,3.8-.1,5.4,0v.3c-.5-.2-1-.4-1.4-.7-.4-.3-.8-.6-1-1-.4-1,.3-1.9,1-2.2.8-.3,1.5-.3,2.2-.3.7,0,1.3.1,1.9.2,1.1.2,2,.4,2.5.6.3,0,.5.2.7.2.1,0,.2,0,.2,0Z"/><path class="cls-12" d="M455.7,169.3c0,.1-2-1-4.7-1.4-2.7-.4-4.9,0-4.9,0,0,0,.5-.2,1.4-.4.9-.1,2.2-.2,3.5,0,1.4.2,2.6.6,3.4,1,.8.4,1.3.7,1.2.8Z"/><path class="cls-12" d="M458.3,166c0,0-1.1-.6-2.5-1-1.4-.4-2.6-.5-2.6-.6,0-.1,1.3-.2,2.7.2,1.5.4,2.5,1.3,2.4,1.3Z"/><path class="cls-3" d="M328.5,50.8c.9-1.9,3.2-3,5.3-2.7,2.4-2,6.2-2,8.6,0,1.8-1.1,4.2-1.2,6.1-.2,1.9,1,3.2,3,3.4,5.1,2.1-.4,4.4.7,5.5,2.6,1,1.9.7,4.4-.8,6,2.3.7,3.9,3.3,3.5,5.7-.5,2.4-2.9,4.2-5.4,4l-25.1-14.7c-1.5-1.4-2-3.9-1.1-5.8Z"/><path class="cls-4" d="M355.4,72c-1.1-11-10.5-19.3-21.5-19h-1.1c-11.8,1-17.6,11.5-16.3,23.3l2.5,39.3,1.7,4.9,20.3,25.5,5.1-23v-10.7c0,0,11.4-2,11.3-13.4,0-5.5-1.1-16.8-2.1-27Z"/><path class="cls-12" d="M346.2,112.4s-7.1.6-14.9-4.1c0,0,3.6,8.1,14.9,6.9v-2.8Z"/><path class="cls-3" d="M352.3,82.6c0,.9-.6,1.6-1.5,1.7-.9,0-1.7-.6-1.7-1.4,0-.9.6-1.6,1.5-1.7.9,0,1.7.6,1.7,1.4Z"/><path class="cls-3" d="M353.2,78.2c-.2.2-1.4-.7-3.2-.6-1.7,0-3,.9-3.2.7,0,0,.1-.5.7-.9.5-.4,1.5-.8,2.6-.8,1.1,0,2,.4,2.5.8.5.4.7.8.6.9Z"/><path class="cls-3" d="M337.4,83.7c0,.9-.6,1.6-1.5,1.7-.9,0-1.7-.6-1.7-1.4,0-.9.6-1.6,1.5-1.7.9,0,1.7.6,1.7,1.4Z"/><path class="cls-3" d="M336.5,78.3c-.2.2-1.4-.7-3.2-.6-1.7,0-3,.9-3.2.7,0,0,.1-.5.7-.9.5-.4,1.5-.8,2.6-.8,1.1,0,2,.4,2.5.8.5.4.7.8.6.9Z"/><path class="cls-3" d="M342.5,91.1c0,0,1.1-.3,2.8-.6.4,0,.9-.2.9-.5,0-.3,0-.8-.3-1.3-.4-1.1-.9-2.2-1.4-3.4-1.9-4.8-3.3-8.7-3.1-8.8.2,0,1.9,3.7,3.8,8.5.5,1.2.9,2.3,1.3,3.4.2.5.5,1.1.3,1.7-.1.3-.4.6-.7.7-.3,0-.5.1-.8.1-1.8.1-2.9.2-2.9,0Z"/><path class="cls-3" d="M336.4,73.3c-.2.5-1.7,0-3.5.1-1.8,0-3.3.5-3.5,0,0-.2.2-.6.8-1,.6-.4,1.6-.7,2.7-.8,1.1,0,2.1.3,2.7.6.6.4.9.8.8,1Z"/><path class="cls-3" d="M352.7,73.4c-.3.4-1.5.1-2.9.3-1.4,0-2.6.5-3,.2-.1-.2,0-.6.5-1,.5-.4,1.3-.8,2.3-.9,1,0,1.9.2,2.4.6.5.4.8.7.6.9Z"/><path class="cls-3" d="M354.2,66.8s-3.1-7.1-6.6-8.6c-4.2-1.9-5.9,2.7-9.9,1.6-4-1-8-2.9-12,.3-4.4,3.4-2.2,5.7-2.4,10.8-.7,20.5-4.3,26.3-5.6,16.7-.1-1.1-3.1-1.8-3.6-6.3-.7-5.8-1-12.8.2-16.9,1-3.5,2.9-5.9,6.4-8.6,5.5-4.3,13.2-4.5,18.4-4.1,5.2.4,15.4,6.2,15.1,15.1Z"/><path class="cls-4" d="M318.5,87.3c-.1-1.8-1.6-3.1-3.4-2.9-2.1.2-4.4,1.5-4.2,5.9.4,7.8,8.1,5.8,8.1,5.5,0-.2-.3-5.2-.5-8.5Z"/><path class="cls-12" d="M317.2,93s-.1.1-.4.2c-.2.1-.6.2-1,0-.8-.3-1.6-1.5-1.7-2.9,0-.7,0-1.4.3-2,.2-.6.6-1,1-1.1.4-.1.7.1.8.3.1.2,0,.4.1.4,0,0,.2-.1,0-.5,0-.2-.1-.3-.3-.5-.2-.1-.5-.2-.8-.2-.6,0-1.1.7-1.3,1.3-.3.6-.4,1.4-.4,2.2.1,1.6,1,3,2.1,3.2.6.1,1,0,1.2-.3.2-.2.3-.4.2-.4Z"/><path class="cls-3" d="M318.3,72.2c1,.7,2.1,1.4,3.3,1.5,1.2,0,2.6-.6,2.8-1.8,0-.5,0-1.2.3-1.6.4-.5,1.2-.4,1.9-.3,2.3.2,4.5-1.5,5.1-3.7.6.9,1.9.8,2.8.2.9-.6,1.4-1.5,2.1-2.3.7-.8,1.6-1.5,2.6-1.4.6,0,1.1.4,1.7.3,1-.1,1.5-1.3,1.6-2.3.1-1,.2-2.2,1.1-2.8.8-.5,1.8-.3,2.8-.1.9.1,2.1-.1,2.4-1,.1-.5-.1-1-.4-1.4-1.2-1.9-3.9-2.7-6-1.8-.8-2.6-3.3-4.5-5.9-4.7-2.7-.2-5.4,1.3-6.6,3.7-1.7-1.5-4.1-2-6.2-1.5-2.2.5-4,2.2-4.8,4.2-1.9-.5-4,.3-5.2,1.9-1.2,1.6-1.3,3.8-.3,5.5-1.4.8-2.5,2.2-2.5,3.8,0,1.6,1.6,3.2,3.1,2.7-.6,1.3,0,3,1.2,3.6,1.2.7,2.9.2,3.7-1"/><path class="cls-12" d="M338.2,94c-.2,0-.3-.2-.5,0-.1,0-.2.2-.3.4-.5,1.2-.3,2.7.4,3.7,0,0,0,0,0,0,1.2,1.5,3.6,1.2,4.4-.6l.6-1.3c-1.1-.5-3.6-1.7-4.6-2.2Z"/><path class="cls-3" d="M341.9,98.1c0,0-.5.8-1.9,1-.3,0-.8,0-1.1-.2-.4-.2-.8-.4-1.1-.8-.6-.8-.8-1.8-.8-2.8,0-.3,0-.5,0-.8,0-.3.1-.6.5-.8.3-.2.7,0,.9,0,.2.1.4.2.6.3.7.4,1.4.7,2,1.1,1.2.6,1.9,1,1.8,1.1,0,0-.8-.2-2-.8-.7-.3-1.4-.6-2.1-1-.4-.2-.9-.5-1-.3-.2.1-.3.7-.3,1.1,0,1,.2,1.9.6,2.5.2.3.5.5.9.7.3.2.6.2.9.2,1.3,0,1.9-.7,1.9-.6Z"/><path class="cls-2" d="M313.3,69.3s-.1.7.5,1.5c.3.4.9.8,1.6.9.7.1,1.6,0,2.2-.7h-.3c.4.6.9,1.3,1.6,1.9.4.4.9.7,1.4.9.5.2,1.1.2,1.6.1,1-.1,1.8-.7,2.2-1.3.4-.6.5-1.2.6-1.6,0-.4,0-.6,0-.6,0,0,0,.2-.2.6-.1.4-.3.9-.7,1.5-.7,1.1-3.1,1.7-4.7.2-.6-.5-1.1-1.2-1.5-1.8v-.2c-.1,0-.3.2-.3.2-.5.5-1.3.7-1.9.6-.6,0-1.1-.4-1.4-.7-.6-.7-.6-1.3-.7-1.3Z"/><path class="cls-2" d="M327.6,51.3s.2,0,.6.2c.3.1.8.4,1.2,1h0c0,.1.1,0,.1,0,.7-1,1.9-2.3,3.7-3.1.9-.4,1.9-.7,3-.7,1.1,0,2.3.3,3.3.9.8.5,1.5,1.1,2,1.8.5.7.8,1.5.9,2.3v.2s.3,0,.3,0c1.2-.3,2.4-.1,3.2.3.9.5,1.5,1.2,1.8,1.9.7,1.4.5,2.3.5,2.3,0,0,0-.2,0-.6,0-.4,0-1-.4-1.8-.3-.7-.9-1.5-1.9-2.1-.9-.5-2.2-.8-3.5-.4l.3.2c0-.9-.4-1.7-1-2.5-.5-.8-1.3-1.5-2.1-2-1.1-.6-2.4-1-3.5-.9-1.2,0-2.3.4-3.2.8-1.9.9-3.1,2.3-3.7,3.3h.2c-.4-.6-1-.9-1.4-1-.4-.1-.6,0-.6,0Z"/><path class="cls-10" d="M318.8,112.4l13.5,10.6,8.6,10.9,3.1-11.3,2.2-8.9,3.7,3.7,9.4,19.9,10.5,96.2s-18.3,5.4-27.8,6c-9.5.7-24.6-2-24.6-2v-50.6l-5.4-50.2,6.5-19.2.3-5.2Z"/><path class="cls-3" d="M346.2,239s0,0,0-.3c0-.2,0-.5,0-.8,0-.7,0-1.7-.1-3,0-2.7-.2-6.5-.4-11.2-.3-9.5-.8-22.5-1.6-37-.7-14.4-1.6-27.5-2.2-37-.3-4.7-.6-8.5-.8-11.2,0-1.3-.2-2.3-.2-3,0-.3,0-.6,0-.8,0-.2,0-.3,0-.3,0,0,0,0,0,.3,0,.2,0,.5,0,.8,0,.7.2,1.7.3,3,.2,2.6.5,6.5.9,11.2.7,9.4,1.6,22.5,2.3,37,.7,14.4,1.2,27.5,1.5,37,.1,4.7.2,8.6.3,11.2,0,1.3,0,2.3,0,3.1,0,.3,0,.6,0,.8,0,.2,0,.3,0,.3Z"/><path class="cls-5" d="M316.7,117.4l-3.1,4.3-25.7,13.5,14.3,43.5,3.8,24.4-14.4,58s17.5,6,19,4.1c.6-.8,2.5-5,4.4-9.5,3.8-9.1,6.3-18.7,7.3-28.5,1.1-9.9,2.1-22.5,1.3-31-1.3-16-3.5-42.3-3.7-49.2-.2-6.9-1.4-33.1-1.4-33.1l-2,3.4Z"/><path class="cls-5" d="M348.1,114.9l8.5,5,27.5,9-2.2,19.4-1.3,50.3,8.7,60.4s-9.2,3.3-12.9,1.9c-3.7-1.3-8.7-9.6-8.8-14.6-.2-5-7.3-53.5-7.3-53.5l-6.9-65.2-5.2-12.8Z"/><path class="cls-3" d="M357.1,119.8s.1.1.3.4c.2.3.6.7,1,1.2.8,1.1,2,2.5,3.5,4.4h0c0,0,0,.2,0,.2-.9.7-1.9,1.4-3,2.3v-.2c1,.3,2.2.7,3.5,1.1h.1s0,.2,0,.2c0,6.3-.2,14.1-.2,22.7-.2,10.4-.3,19.8-.4,26.7,0,3.4-.1,6.1-.2,8.1,0,.9,0,1.7,0,2.2,0,.2,0,.4,0,.6,0,.1,0,.2,0,.2,0,0,0,0,0-.2,0-.2,0-.3,0-.6,0-.5,0-1.3,0-2.2,0-1.9,0-4.7,0-8.1,0-6.9.2-16.3.3-26.7.1-8.5.2-16.4.3-22.7v.2c-1.1-.4-2.3-.8-3.4-1.1h-.3c0,0,.2-.2.2-.2,1.1-.8,2.1-1.6,3-2.2v.2c-1.5-1.9-2.6-3.4-3.5-4.5-.4-.5-.7-.9-.9-1.2-.2-.3-.3-.4-.3-.4Z"/><path class="cls-3" d="M322.9,188s0,0,0-.2c0-.1-.1-.3-.2-.6-.2-.5-.4-1.2-.7-2.2-.6-1.9-1.5-4.6-2.7-7.9-.6-1.7-1.2-3.5-1.9-5.4-.7-1.9-1.4-4.1-2-6.3-1.1-4.5-2-9.6-2.8-14.9-1-6.9-1.6-13.5-1.9-19.1h0c0,0,0-.1,0-.1,1.1-1,2.1-2,3-2.9v.2c-1-.8-2-1.5-2.9-2.2h-.1c0,0,0-.2,0-.2,2.2-2.9,3.9-5.3,5.2-7,.6-.8,1.1-1.4,1.4-1.9.2-.2.3-.4.4-.5,0-.1.1-.2.1-.2s0,0-.1.2c0,.1-.2.3-.3.5-.3.5-.8,1.1-1.4,1.9-1.2,1.7-2.9,4.1-5.1,7.1v-.2c.9.7,1.8,1.4,2.9,2.2h.1c0,.1-.1.2-.1.2-1,.9-1.9,1.9-3,2.9h0c.4,5.5,1,12,2,18.9.7,5.3,1.6,10.4,2.7,14.9.6,2.3,1.2,4.4,1.9,6.3.7,2,1.3,3.8,1.9,5.4,1.1,3.3,2,6,2.6,7.9.3.9.5,1.7.6,2.2,0,.2.1.4.1.6,0,.1,0,.2,0,.2Z"/><polygon class="cls-8" points="300.9 223.9 315.8 229.8 316.8 226.5 321.9 231.1 322.8 223 318.1 214.3 302 219.5 300.9 223.9"/><path class="cls-4" d="M351.6,223.8l-6.1-3.7-5.3-4.8s1.6,1.4,4.1,2.3c2.5.8,3.9-1.5,3.9-1.5,0,0-2.2-1.4-2.9-1.8-.7-.4-8.3-6-10.2-6.5-1.9-.4-14.5-3-14.5-3l-.2.7-6.2,13.3,5.5,1.5s1.6,2.2,2.8,4.7c1.2,2.5,7.3,5,9.6,6.2s5-.9,5-.9c2.7.6,3.3-2.3,3.3-2.3,3.1-.4,3.3-3.8,3.3-3.8,0,0,5.6,2.2,7.3,2.5.7.1,1.1-.2,1.3-.7.3-.8,0-1.7-.8-2.2Z"/><path class="cls-12" d="M343.8,224.2c0,0-1.7-.6-3.5-1.6-1.9-1-3.2-2.2-3.1-2.3,0,0,1.5.9,3.3,1.9,1.9,1,3.4,1.8,3.3,1.9Z"/><path class="cls-12" d="M334,223.7c0-.1,1.7.8,3.5,2.1,1.8,1.3,3.3,2.3,3.3,2.4,0,.1-1.7-.8-3.5-2-1.8-1.3-3.3-2.3-3.3-2.4Z"/><path class="cls-12" d="M331.6,226.3c0,0,1.2.9,2.8,2,1.6,1.1,2.8,2,2.7,2.1,0,0-1.4-.7-3-1.7-1.6-1.1-2.7-2.2-2.6-2.3Z"/><path class="cls-12" d="M333.1,210s.5,0,1.3.3c.8.3,1.9.8,2.9,1.6,1,.8,1.8,1.7,2.3,2.4.5.7.8,1.1.7,1.2-.1,0-1.3-1.6-3.3-3.2-2-1.6-4.1-2.1-4-2.2Z"/><path class="cls-5" d="M274.7,208.2c-1.6-1-2.6-2.7-2.7-4.6,0-1.7,0-4.2.5-7.9,1.1-8.9,15.6-60.4,15.6-60.4l14.6,40.2-5,17.5,25.6,12.2-7.1,20.1s-34-12.4-41.4-17.1Z"/><path class="cls-5" d="M384.1,128.9l23.5,44.6.6.9,25.6-13.1,8.4,17.1-34.5,20.9c-3.9,2.3-9,1.2-11.5-2.6l-15.2-22.7-4.1-18.7,7.2-26.5Z"/><path class="cls-3" d="M381.2,141.6s0,.2,0,.6c0,.4,0,.9,0,1.6,0,1.4,0,3.5.1,5.9,0,5,0,11.9,0,19.6,0,7.6-.2,14.6-.4,19.6,0,2.5-.2,4.5-.2,5.9,0,.7,0,1.2,0,1.6,0,.4,0,.6,0,.6,0,0,0-.2,0-.6,0-.4,0-.9,0-1.6,0-1.4,0-3.5,0-5.9,0-5,.2-11.9.3-19.6,0-7.6,0-14.6,0-19.6,0-2.5,0-4.5,0-5.9,0-.7,0-1.2,0-1.6,0-.4,0-.6,0-.6Z"/><path class="cls-3" d="M293.7,146.4s0,.2.2.5c.1.3.2.8.4,1.3.3,1.2.8,2.8,1.4,4.8,1.1,4.1,2.7,9.8,4.3,16,1.6,6.3,2.8,12,3.6,16.2.4,2.1.7,3.8.9,5,0,.6.2,1,.2,1.4,0,.3,0,.5,0,.5,0,0,0-.2-.1-.5,0-.3-.2-.8-.3-1.3-.2-1.2-.6-2.9-1-4.9-.9-4.2-2.2-9.9-3.8-16.2-1.6-6.3-3.1-12-4.2-16.1-.5-2-.9-3.7-1.3-4.9-.1-.5-.2-1-.3-1.3,0-.3,0-.5,0-.5Z"/><path class="cls-3" d="M283.2,212.3s0,0,.2,0c.1,0,.3.1.5.2.4.2,1.1.4,1.8.7,1.6.6,4,1.5,6.9,2.6,5.9,2.3,14.1,5.5,23.7,9.2h-.2c1.5-4.1,3.1-8.7,4.8-13.4.8-2.3,1.6-4.5,2.3-6.6v.2c-9.7-4.7-18.5-9-25.2-12.2h0c-2.1-.7-4.2-.9-6-.7-1.8.2-3.3.6-4.4,1.1-1.2.5-2,1-2.6,1.3-.3.2-.5.3-.6.4-.1,0-.2.1-.2.1,0,0,0,0,.2-.2.2-.1.4-.3.6-.4.6-.4,1.4-.9,2.5-1.4,1.2-.5,2.7-1,4.5-1.2,1.8-.2,3.9,0,6.1.6h0s0,0,0,0c6.7,3.2,15.5,7.4,25.3,12.1h.2c0,0,0,.2,0,.2-.8,2.1-1.5,4.4-2.3,6.6-1.7,4.7-3.3,9.3-4.8,13.5v.2c0,0-.2,0-.2,0-9.5-3.8-17.8-7-23.6-9.4-2.9-1.2-5.2-2.1-6.8-2.7-.8-.3-1.4-.6-1.8-.7-.2,0-.3-.1-.5-.2-.1,0-.2,0-.2,0Z"/><path class="cls-3" d="M408.4,173.9s.1.7,0,1.8c0,1.1-.3,2.6-.6,4.2-.3,1.6-.7,3.1-.9,4.1-.2,1.1-.4,1.7-.4,1.7,0,0,0-.7.2-1.7.2-1.1.5-2.5.8-4.1.3-1.6.6-3.1.7-4.1.1-1.1.2-1.7.2-1.7Z"/><path class="cls-3" d="M408.4,175c.1,0-.4,1.9-1.2,4.1-.8,2.2-1.5,3.9-1.6,3.9-.1,0,.4-1.9,1.2-4.1.8-2.2,1.5-3.9,1.6-3.9Z"/><path class="cls-3" d="M340.6,133.5s-.3-.2-.7-.7c-.5-.5-1.1-1.1-1.9-1.9-1.6-1.7-3.9-4-6.4-6.6h.3c-.8.9-1.4,2.2-1.7,3.5-.1.7-.2,1.4-.2,2.1v.4s-.3-.3-.3-.3c-3.3-2.6-5.9-5.2-7.9-7-1-.9-1.8-1.6-2.3-2.1-.6-.5-.9-.7-.8-.8,0,0,.3.2.9.7.6.4,1.4,1.1,2.4,2,2,1.7,4.7,4.3,7.9,6.9l-.3.2c0-.7,0-1.4.2-2.2.3-1.4.9-2.7,1.8-3.7v-.2c.1,0,.3.1.3.1,2.5,2.7,4.7,5,6.3,6.7.7.8,1.4,1.5,1.8,2,.4.5.6.7.6.7Z"/><path class="cls-3" d="M349.2,119.1s0,.2,0,.6c0,.4,0,1,0,1.7-.1,1.4-.4,3.5-1,5.8v.5c-.1,0-.3-.4-.3-.4-.6-1.2-1.4-2.4-2.5-3.4-.3-.3-.6-.6-.9-.8h.3c-.7,3-1.6,5.7-2.3,7.6-.4.9-.7,1.7-.9,2.2-.2.5-.4.8-.4.8,0,0,0-.3.3-.8.2-.6.5-1.4.8-2.2.7-1.9,1.5-4.6,2.2-7.7v-.3c0,0,.3.2.3.2.3.3.6.5.9.8,1.1,1.1,1.9,2.3,2.5,3.6h-.3c.6-2.3.9-4.3,1.1-5.7.2-1.4.2-2.3.3-2.3Z"/><polygon class="cls-5" points="372.6 220.3 374.9 227.4 387.8 226.2 383.8 219.4 372.6 220.3"/><path class="cls-3" d="M372.6,220.3s.3,0,.8,0c.6,0,1.3-.1,2.3-.2,2-.2,4.8-.5,8.2-.7h.1s0,0,0,0c1.2,2.1,2.6,4.4,4.1,6.8l.2.3h-.3c-.2,0-.4,0-.7,0-4.7.4-9,.8-12.3,1.1h-.1s0-.1,0-.1c-.7-2.2-1.2-4-1.6-5.3-.2-.6-.3-1-.4-1.4,0-.3-.1-.5-.1-.5,0,0,0,.2.2.5.1.4.3.8.5,1.4.4,1.3,1,3,1.7,5.1h-.2c3.4-.4,7.6-.8,12.3-1.3.2,0,.5,0,.7,0l-.2.3c-1.4-2.4-2.8-4.7-4-6.8h.2c-3.3.3-6.1.5-8,.6-1,0-1.7.1-2.3.1-.5,0-.8,0-.9,0Z"/><rect class="cls-5" x="364.5" y="163.8" width="13.9" height="4.5"/><path class="cls-3" d="M378.4,168.3s0-.1,0-.3c0-.2,0-.5,0-.9,0-.8,0-1.9,0-3.3h.1c-3.3.2-8.3.2-13.9.2,0,0-.2.2.2-.2h0c0,.1,0,.3,0,.3v.9c0,.4,0,.8,0,1.1,0,.8,0,1.5,0,2.2l-.2-.2c4,0,7.4,0,9.9,0,1.2,0,2.2,0,2.9,0,.7,0,1.1,0,1.1,0,0,0-.3,0-1,0-.7,0-1.7,0-2.9,0-2.5,0-6,0-10,0h-.2s0-.2,0-.2c0-.7,0-1.4,0-2.2,0-.4,0-.8,0-1.1v-.6s0-.3,0-.3h0v-.2h0c.4-.5.1-.2.2-.3,5.6,0,10.6,0,13.9,0h.1s0,.1,0,.1c0,1.4,0,2.5,0,3.3,0,.8,0,1.2,0,1.2Z"/><path class="cls-8" d="M362.4,129.2l2.1,3s-.6,44.8-2.9,55.9l.7-58.8Z"/><path class="cls-2" d="M236.2,142.8s5.3,2.3,5.9,14.5c.6,12.2,1.6,39.7,1.6,39.7,0,0,3.4,4.6,3.8,8.4.4,3.8,6.8,26,6.8,26l-14.4,4.8-3.7-6.8-3.1-67.3,3.1-19.2Z"/><path class="cls-14" d="M249.3,211.1s2.6-3,4.6-3,3.1,1,3.1,2.4v2l-7.7-1.4Z"/><path class="cls-3" d="M237.3,158s0,.3.1.8c0,.6,0,1.3.2,2.3.2,2,.3,4.9.3,8.4.1,7.1-.2,16.9-.9,27.7-.7,10.8-1.3,20.6-1.5,27.7,0,3.5-.1,6.4,0,8.4,0,.9,0,1.7,0,2.3,0,.5,0,.8,0,.8,0,0,0-.3,0-.8,0-.6,0-1.3-.1-2.3,0-2-.1-4.9-.1-8.4,0-7.1.6-16.9,1.3-27.7.7-10.8,1.1-20.6,1.1-27.7,0-3.5,0-6.4-.1-8.4,0-.9,0-1.7,0-2.3,0-.5,0-.8,0-.8Z"/><path class="cls-3" d="M236.5,208.2c-.2,0,.3-2.6,1.9-5.4,1.5-2.8,3.4-4.6,3.5-4.5.1.1-1.5,2.1-2.9,4.8-1.5,2.7-2.2,5.1-2.4,5.1Z"/><path class="cls-14" d="M265.7,221.9s1.9,2.5,1.2,4.5c-.7,2-5.4,5.6-5.4,5.6,0,0-1.8,2.1-2.6,2.1s-4.8.7-4.5-1.6c.3-2.3,3.7-2.7,3.7-2.7,0,0,0-.8,1.6-1.9,1.5-1.1,3.3-2.3,3.3-2.3l2.7-3.6Z"/><path class="cls-9" d="M262.4,231.3c0,0-.2.4-.7.7-.5.3-1.4.6-2.4.2-.5-.2-.8-.5-1.1-.9-.2-.4-.3-.8-.3-1.1,0-.7.4-1,.4-.9,0,0,0,.4,0,.9,0,.5.5,1.1,1.2,1.4.7.3,1.5.1,2,0,.5-.2.8-.3.9-.3Z"/><path class="cls-3" d="M185.5,100.8c-.3,9,3.6,18,10.2,24.1,1.5-4.4,3-8.8,4.5-13.2l-14.7-10.9Z"/><path class="cls-3" d="M219.8,74.6c-3.9-2.1-8.6-2.4-13-1.6-4.4.9-8.4,2.8-12.3,5.1-2.2,1.2-4.3,2.6-5.9,4.6-2.8,3.6-5.6,9.4-5.9,14-.2,3.7,1.2,12.9,2.7,16.2,1.4,3.1,8.1,5.4,11.4,6.2l30.2-35.1c-1.1-3.9-3.8-7.3-7.3-9.3Z"/><path class="cls-3" d="M225,79.3l-7.2-1.3c4,9.4,5,31,7.3,41,2.7-3.9,8.9-15.7,8.5-20.4-.3-4.7,0-20.1-8.6-19.3Z"/><path class="cls-14" d="M190.6,95c.4-5.5,4-10,9.3-11.4l16.7-4.3c7.2-.8,12,8.1,12.5,15.3.5,8,.8,16.5,0,22.5-1.9,12.1-11.1,13.6-11.1,13.6,0,0,0,5.7,0,9.3l.2,15.3-23.8-17.1-3.7-43.2c0-.2,0,.1,0-.1Z"/><path class="cls-3" d="M226.2,103.8c0,.8-.6,1.5-1.5,1.6-.9,0-1.6-.6-1.6-1.4,0-.8.6-1.5,1.5-1.6.9,0,1.6.6,1.6,1.4Z"/><path class="cls-3" d="M227.3,99.4c-.2.2-1.4-.7-3-.7-1.7,0-2.9.8-3.1.6,0,0,.1-.5.6-.8.5-.4,1.4-.8,2.5-.8,1,0,1.9.4,2.4.8.5.4.7.8.6.8Z"/><path class="cls-3" d="M211.9,103.8c0,.8-.6,1.5-1.5,1.6-.9,0-1.6-.6-1.6-1.4,0-.8.6-1.5,1.5-1.6.9,0,1.6.6,1.6,1.4Z"/><path class="cls-3" d="M211.5,99.4c-.2.2-1.4-.7-3-.7-1.7,0-2.9.8-3.1.6,0,0,.1-.5.6-.8.5-.4,1.4-.8,2.5-.8,1,0,1.9.4,2.4.8.5.4.7.8.6.8Z"/><path class="cls-3" d="M216.7,112.5c0,0,1-.3,2.7-.5.4,0,.8-.1.9-.4,0-.3,0-.8-.3-1.3-.4-1-.8-2.1-1.3-3.2-1.8-4.6-3-8.4-2.8-8.5.2,0,1.8,3.6,3.5,8.2.4,1.1.8,2.2,1.2,3.3.2.5.4,1,.2,1.7-.1.3-.4.5-.7.6-.3,0-.5,0-.7.1-1.7,0-2.7.1-2.7,0Z"/><path class="cls-9" d="M201.9,126.6s3.9,8.3,16,7.1v-2.8s-7.9.5-16-4.3Z"/><path class="cls-3" d="M211,93.4c-.2.5-1.8.2-3.8.5-2,.2-3.5.8-3.8.4-.1-.2.2-.6.8-1.1.6-.4,1.6-.9,2.8-1,1.2-.1,2.2,0,3,.3.7.3,1.1.6,1,.9Z"/><path class="cls-3" d="M226.8,94.3c-.3.4-1.4,0-2.8,0-1.4,0-2.5.3-2.8-.1-.1-.2,0-.6.6-.9.5-.4,1.3-.7,2.3-.6.9,0,1.8.4,2.3.8.5.4.6.8.5,1Z"/><path class="cls-3" d="M225.9,83.7c-.7-1.8-2.7-2.9-4.7-3-2,0-3.9.6-5.6,1.6-7.2,4.2-10.9,14.2-18,18.5-1.7,1.1-4,0-5.5,1.5-1.5,1.4-2.4,3.6-1.6,5.5-1-1.3-1.9-2.6-2.5-4.2-.5-1.5-.6-3.3.2-4.7.6-1.1,1.7-1.9,2-3.1.3-1-.2-2.1-.1-3.2,0-1.1.6-2.1,1.1-3.1,2.8-4.9,6.6-9.4,11.5-12.1,3.2-1.8,6.9-2.9,10.6-2.7,3.7.1,7.4,1.5,10.1,4,1.6,1.5,3.3,3,2.4,5"/><path class="cls-14" d="M192.3,103.8c-.1-.3-6.4-2.6-6.5,4.1,0,6.5,6.5,5.2,6.5,5,0-.2,0-9.1,0-9.1Z"/><path class="cls-9" d="M190.3,110.4s-.1,0-.3.2c-.2,0-.5.1-.8,0-.7-.3-1.3-1.4-1.3-2.5,0-.6.1-1.2.3-1.6.2-.5.5-.8.9-.9.3,0,.6.1.7.3,0,.2,0,.3,0,.3,0,0,.1-.1,0-.4,0-.1-.1-.3-.3-.4-.2-.1-.4-.2-.6-.2-.5,0-1,.5-1.2,1-.3.5-.4,1.1-.4,1.8,0,1.3.7,2.5,1.6,2.8.5.1.8,0,1-.2.2-.2.2-.3.2-.3Z"/><path class="cls-2" d="M189.7,100.4s.1,0,.4-.2c.2-.2.6-.4,1.1-.7.9-.7,2.2-1.7,3.5-3.2,1.3-1.5,2.8-3.4,4.3-5.6,1.5-2.1,3.2-4.5,5.4-6.7,1.1-1,2.2-2,3.5-2.7,1.2-.7,2.5-1.3,3.7-1.7,2.5-.8,4.9-1,6.9-.8,2,.1,3.6.5,4.6.9.5.2.9.3,1.2.4.3.1.4.2.4.2,0,0-.1,0-.4-.2-.3-.1-.7-.3-1.2-.5-1-.4-2.6-.9-4.6-1-2-.2-4.4,0-7,.8-1.3.4-2.6,1-3.8,1.7-1.2.8-2.4,1.7-3.5,2.8-2.2,2.2-3.9,4.6-5.4,6.7-1.5,2.2-2.9,4.1-4.2,5.6-1.3,1.5-2.5,2.6-3.4,3.2-.4.3-.8.6-1.1.7-.2.2-.4.3-.4.3Z"/><path class="cls-6" d="M189.6,111.5c-.6-.1-1.3.3-1.5.9-.2.6.2,1.3.9,1.5.6.2,1.3-.2,1.6-.8.2-.6,0-1.4-.7-1.6"/><path class="cls-3" d="M189.9,111.6s.4.2.6.9c0,.3,0,.7-.3,1-.3.3-.8.5-1.2.3-.4-.1-.7-.6-.8-1,0-.4.1-.8.4-1,.5-.4,1-.3,1-.4,0,0,0,0-.3,0-.2,0-.5,0-.8.3-.3.2-.6.7-.5,1.2,0,.5.4,1,1,1.2.6.2,1.2,0,1.5-.4.3-.4.4-.9.3-1.3-.1-.4-.3-.6-.5-.7-.2-.1-.3-.1-.3-.1Z"/><path class="cls-3" d="M191.3,102.3c-.1,1.8-.2,3.6.6,5.2.8,1.6,2.9,2.7,4.4,1.8,1.3-.7,1.6-2.3,1.8-3.8.6-4.1.9-8.3,1.6-12.5l-8.5,9.2Z"/><path class="cls-2" d="M224.3,80.6s-.6-.1-1.6-.1c-1,0-2.6.1-4.3.8-.9.3-1.8.8-2.7,1.4-.9.6-1.8,1.3-2.8,2.1-1.9,1.6-3.8,3.5-5.4,5.9-.8,1.2-1.6,2.4-2.3,3.5-.8,1.1-1.7,2.1-2.6,2.9-1.9,1.6-3.8,2.8-5.5,3.7-1.7.9-3.1,1.5-4,1.9-.5.2-.8.3-1.1.5-.3.1-.4.2-.4.1,0,0,.1,0,.4-.2.3-.1.6-.3,1.1-.5.9-.5,2.3-1.1,3.9-2,1.6-.9,3.5-2.1,5.4-3.7.9-.8,1.8-1.8,2.5-2.9.8-1.1,1.5-2.3,2.3-3.5,1.7-2.4,3.6-4.3,5.5-5.9,1-.8,1.9-1.5,2.8-2.1.9-.6,1.9-1,2.8-1.4,1.8-.7,3.3-.8,4.4-.7.5,0,.9.1,1.2.2.3,0,.4.1.4.1Z"/><path class="cls-2" d="M191.2,98.2s-.2.2-.6.4c-.4.3-1,.6-1.6,1-.2.1-.4.2-.6.3-.2.1-.4.2-.7.2-.1,0-.3,0-.4-.1-.1,0-.2-.3-.2-.4,0-.3.2-.6.3-.8.6-.9,1.2-2,1.9-3.1l.3.2c-.6.5-1.3.8-2.1,1-.8.2-1.6.3-2.3.3-.2,0-.4,0-.6-.1-.2,0-.4-.2-.5-.4,0-.2,0-.5.1-.7.1-.2.3-.3.4-.4,1-.9,1.7-1.9,2.2-2.8,1-1.8,1.3-3,1.4-3,0,0,0,.3-.2.9-.2.6-.5,1.3-1,2.2-.5.9-1.2,1.9-2.2,2.9-.2.2-.5.5-.4.7,0,.2.4.3.8.3.7,0,1.5,0,2.2-.3.7-.2,1.4-.6,2-1l.8-.6-.5.8c-.7,1.1-1.4,2.1-1.9,3-.2.2-.3.4-.3.6,0,.2.2.3.4.3.4,0,.8-.3,1.2-.5.7-.3,1.2-.6,1.7-.9.4-.2.6-.3.6-.3Z"/><path class="cls-9" d="M210.4,115.6c.2-1,1.2-1.8,2.2-1.6.7,0,1.4.6,1.7,1.2.3.7.4,1.5,0,2.2v.2c-.7.8-1.9,1-2.8.6-.9-.4-1.5-1.5-1.3-2.5Z"/><path class="cls-3" d="M215.6,117.5c0-.3-1.7-.2-2.9-1.6-1.3-1.4-1.2-3.2-1.4-3.2-.1,0-.3.4-.3,1.2,0,.7.3,1.8,1.1,2.7.8.8,1.8,1.2,2.5,1.2.7,0,1.1-.2,1.1-.3Z"/><path class="cls-2" d="M186.9,397l-23.9,21.8,27,29.9c2.7-2.8-5.6-23.4-5.6-23.4l14.9-14.4-12.5-13.9Z"/><path class="cls-6" d="M177.4,414.9c-.7-.4-1.7-.2-2.2.4-.5.7-.3,1.7.4,2.1.7.4,1.9.3,2.3-.5.4-.7.1-1.9-.7-2.2"/><path class="cls-3" d="M163,418.8l2.5-2.3,24.9,29.7s.6,1.9-.5,2.5l-26.9-29.9Z"/><path class="cls-6" d="M185.1,425.6c-.2.1-.9-.5-2-.8-1.1-.3-2.1-.1-2.1-.3,0-.2,1-.7,2.3-.4,1.4.4,2,1.4,1.8,1.5Z"/><path class="cls-6" d="M186.6,429.9c-.1.2-.9-.2-2-.2-1.1,0-1.8.5-2,.4-.1-.1.5-1,1.9-1,1.3,0,2.2.7,2.1.9Z"/><path class="cls-6" d="M184.5,435.1c-.2-.1.2-.9,1.5-1.3,1.1-.4,2.1,0,2,.2,0,.2-.9.1-1.8.4-.9.3-1.6.8-1.7.7Z"/><path class="cls-6" d="M188.4,422.2c-.2,0-.6-.8-1.4-1.6-.8-.8-1.6-1.2-1.6-1.4,0-.2,1.1,0,2.1.9.9.9,1.1,2,.9,2.1Z"/><path class="cls-6" d="M191.3,418.3c0,0-.7-.4-1.3-1.5-.3-.5-.7-1.2-.9-2-.1-.4-.2-.8-.3-1.3,0-.2,0-.5,0-.8,0-.3.3-.7.7-.8.4,0,.7.1.9.3.2.2.3.4.4.6.2.4.4.8.5,1.2.3.8.3,1.6.3,2.2,0,1.3-.3,2-.4,2-.1,0,0-.8,0-2,0-.6-.2-1.3-.5-2-.1-.4-.3-.7-.5-1.1-.2-.4-.4-.7-.7-.6,0,0-.1,0-.1.2,0,.1,0,.3,0,.6,0,.4.2.8.3,1.2.2.8.5,1.4.8,1.9.5,1.1,1,1.7.9,1.7Z"/><path class="cls-6" d="M190.9,418.3c0,0,.2-.8,1.1-1.7.4-.4,1.1-.9,1.8-1.3.4-.2.8-.3,1.3-.4.5,0,1-.2,1.6.3.3.3.3.7.1,1-.1.3-.3.5-.4.6-.3.4-.6.7-1,.9-.7.5-1.5.7-2.1.8-1.3.1-2-.3-2-.4,0-.1.8.1,1.9,0,.6-.1,1.2-.4,1.8-.8.3-.2.6-.5.8-.8.3-.3.4-.7.3-.8-.1-.2-.6-.2-1,0-.4,0-.8.2-1.1.4-.7.3-1.3.7-1.8,1.1-.9.8-1.3,1.4-1.4,1.3Z"/><path class="cls-2" d="M181.1,418l.3,32.4,40.3-.2c-.3-3.8-21.1-11.5-21.1-11.5l.7-20.7h-20.1Z"/><path class="cls-6" d="M188.1,437.1c-.8.2-1.3,1.1-1.1,1.9.2.8,1.1,1.3,1.9,1.1.8-.2,1.5-1.2,1.2-2-.3-.8-1.4-1.4-2.1-1"/><path class="cls-3" d="M181.4,450.5v-3.5s38.7,1.3,38.7,1.3c0,0,1.8.8,1.6,2h-40.3Z"/><path class="cls-3" d="M201.2,438.5c0,.2-1,.3-2,.9-1,.6-1.5,1.5-1.7,1.4-.2,0,.1-1.2,1.3-2,1.2-.8,2.4-.5,2.3-.4Z"/><path class="cls-3" d="M205.5,440.3c0,.2-.8.5-1.5,1.4-.7.8-.9,1.7-1,1.7-.2,0-.3-1.1.5-2.1.8-1,2-1.1,2-.9Z"/><path class="cls-3" d="M207.9,445.3c-.2,0-.5-.9,0-2,.5-1.1,1.4-1.5,1.5-1.3.1.2-.5.7-.9,1.6-.4.9-.5,1.7-.7,1.7Z"/><path class="cls-3" d="M200.9,433.8c0,.2-1,0-2.1,0-1.1,0-2,.4-2.1.3-.1-.1.7-.9,2-.9,1.3,0,2.2.5,2.1.7Z"/><path class="cls-3" d="M183.2,233.4s-5.6,6-8.4,11.8c-2.8,5.8-7,18.1-7,18.1,0,0-5.3,18.8-4.1,27.7,1.2,8.9,9.1,69.6,9.1,69.6,0,0-1.6,48.1,5.2,69.6l1.3,5.7,22.7-4h0l5-119.2,13.9-78.8-37.6-.5Z"/><path class="cls-2" d="M212.2,238.5c0,0,0-.7-.9-1.3-.4-.3-1-.4-1.6-.2-.6.2-1,.8-1,1.5,0,.7.5,1.3,1.1,1.5.6.2,1.2,0,1.5-.2.8-.6.7-1.4.8-1.3,0,0,0,.2,0,.5,0,.3-.2.8-.6,1.2-.4.4-1.2.6-2,.4-.8-.2-1.4-1-1.4-2,0-.9.6-1.8,1.4-2,.8-.3,1.5,0,2,.3.5.4.6.8.7,1.1,0,.3,0,.5,0,.5Z"/><path class="cls-3" d="M238.5,249.8s8.3,75.6,9.5,88.5c1.2,13-45.9,82.2-45.9,82.2l-19.9-23.5,30.3-56.4-10.2-56.1,13.4-50.7,20.9.2,1.8,15.7Z"/><path class="cls-2" d="M174.5,412.1s0,.6.2,1.7c.1,1.1.4,2.7.8,4.7.8,4.1,2,10.1,3.6,17.5v.2s.2,0,.2,0c6.4-1.1,14.1-2.5,22.7-4h.2s0-.2,0-.2c.6-15.6,1.4-34.2,2.2-54.2.8-21.5,1.6-41.4,2.3-57.8h0c1.7-13.1,3.1-24,4.1-31.6.5-3.8.8-6.7,1.1-8.8.1-1,.2-1.8.3-2.3,0-.5,0-.8,0-.8,0,0,0,.3-.1.8,0,.5-.2,1.3-.3,2.3-.3,2-.7,5-1.2,8.8-1,7.6-2.5,18.4-4.3,31.6h0s0,0,0,0c-.7,16.3-1.5,36.3-2.3,57.8-.8,20-1.5,38.6-2.1,54.2l.2-.2c-8.6,1.5-16.3,2.9-22.7,4.1h.2c-1.7-7.3-3-13.3-3.8-17.4-.4-2-.7-3.6-.9-4.7,0-.5-.1-.9-.2-1.2,0-.3,0-.4,0-.4Z"/><path class="cls-2" d="M208.9,264.1s.4,0,1.2,0c.8,0,2,.1,3.2-.5.6-.3,1-.9,1.3-1.7.2-.8.3-1.7.4-2.6.2-1.9.3-4,.5-6.1.3-4.4.5-8.3.5-11.2,0-1.3,0-2.5.1-3.4,0-.8,0-1.2.1-1.2,0,0,0,.4.1,1.2,0,.8,0,2,0,3.4,0,2.9-.1,6.8-.4,11.2-.1,2.2-.3,4.3-.5,6.1,0,.9-.2,1.9-.5,2.7-.3.8-.8,1.5-1.5,1.9-.7.4-1.4.5-1.9.5-.6,0-1.1,0-1.5,0-.8-.1-1.2-.2-1.2-.3Z"/><path class="cls-2" d="M237.6,249.8c0,0-.9-.3-2.2-1.1-1.3-.8-2.9-2.2-4.5-3.9-1.5-1.8-2.6-3.6-3.3-4.9-.7-1.4-.9-2.3-.9-2.3.2,0,1.5,3.5,4.6,6.9,3,3.5,6.3,5.3,6.2,5.4Z"/><polygon class="cls-6" points="180.7 160.1 188.5 233 231.8 236.2 235.2 233.2 218.5 138.9 213 149 193.6 135.1 180.7 160.1"/><path class="cls-2" d="M193.9,131.1l-7.1,7.8-23.2,7.8,14.5,70.1-11,27.1c-1.2,2.9-2.1,5.8-2.9,8.8l-6.8,26.6s23.4,6.4,29.4,2.9c6-3.5,13.4-37.3,15.6-45.4,2.2-8,5.6-31.9,4-44.6-1.6-12.7-4.2-31.5-5.6-37.9-1.3-6.5-6.9-23.2-6.9-23.2Z"/><path class="cls-2" d="M163.6,146.8s-6.1,8-7.8,15.6c-2.9,12.9-14.2,48.2-13.5,56.4.7,8.3,44.3,23.2,44.3,23.2l1.8-23-20.3-10.7,5.6-21.7"/><path class="cls-3" d="M173.6,186.7s0,.1,0,.4c0,.3-.1.6-.3,1.1-.2,1-.6,2.4-1,4.3-.9,3.7-2.3,9.2-4,16v-.2c5.6,3,12.5,6.6,20.2,10.6h.1c0,0,0,.2,0,.2-.5,7-1.1,14.7-1.8,23v.4s-.4-.1-.4-.1c-8.5-3-17.8-6.5-27-10.8-3-1.4-6-2.9-8.9-4.6-2.8-1.7-5.7-3.4-7.7-6-.3-.3-.4-.7-.6-1.1-.1-.2-.1-.4-.2-.6,0-.2-.1-.4,0-.6,0-.8,0-1.6,0-2.4.1-1.6.4-3.1.7-4.6.6-3,1.2-5.9,1.9-8.8,2.8-11.3,5.8-21.4,8.1-29.9,1.2-4.2,2.2-8.1,3-11.5.9-3.4,2.3-6.1,3.5-8.3,1.2-2.2,2.3-3.8,3-4.8.4-.5.7-.9.9-1.2.2-.3.3-.4.3-.4,0,0,0,.1-.3.4-.2.3-.5.7-.8,1.2-.7,1.1-1.8,2.7-2.9,4.9-1.2,2.2-2.5,4.9-3.4,8.3-.8,3.4-1.8,7.3-2.9,11.5-2.3,8.5-5.2,18.6-8,29.9-.7,2.8-1.3,5.7-1.9,8.7-.2,1.5-.5,3-.7,4.6-.1.8,0,1.5,0,2.3,0,.7.3,1.4.8,2,1.9,2.4,4.7,4.2,7.5,5.8,2.8,1.6,5.8,3.1,8.8,4.6,9.2,4.3,18.4,7.8,27,10.8l-.4.2c.7-8.2,1.3-16,1.8-23v.2c-7.6-4.1-14.5-7.7-20.1-10.8h-.1c0,0,0-.2,0-.2,1.8-6.8,3.2-12.2,4.2-15.9.5-1.8.9-3.3,1.1-4.2.1-.5.2-.8.3-1.1,0-.2.1-.4.1-.4Z"/><path class="cls-2" d="M217.9,134.2l4,5,14.2,3.6s3.7,18.7,3.7,23.9-2.1,62-2.1,64.7,10.3,39.1,9.4,41.3c-.9,2.2-11.6,3.8-11.6,3.8,0,0-4-31.5-4-42.2s-.4-37-2.7-50c-2.2-12.9-10.9-45.1-10.9-45.1v-5Z"/><path class="cls-3" d="M231.8,240.2s0,0,0-.3c0-.2,0-.5,0-.8,0-.7,0-1.7,0-3,0-2.7.1-6.4.3-11.1.2-9.3.6-22.2.8-36.5,0-1.8,0-3.5,0-5.3,0-1.7-.2-3.4-.3-5.1-.3-3.3-.5-6.6-.8-9.6-.3-3.1-.7-6-1.1-8.7-.5-2.7-1.2-5.1-2.1-7.3-1.7-4.3-3.5-7.7-4.7-10-.6-1.1-1.1-2-1.4-2.6-.2-.3-.3-.5-.4-.7,0-.2-.1-.2-.1-.2,0,0,0,0,.2.2.1.2.3.4.4.7.4.6.9,1.5,1.5,2.6,1.3,2.3,3.1,5.6,4.9,9.9.9,2.2,1.7,4.6,2.2,7.3.5,2.7.9,5.6,1.2,8.7.3,3.1.6,6.3.9,9.6.1,1.7.3,3.4.3,5.1,0,1.7,0,3.5,0,5.3-.2,14.2-.7,27.1-1,36.5-.2,4.6-.3,8.4-.4,11,0,1.3-.1,2.3-.1,3,0,.3,0,.6,0,.8,0,.2,0,.3,0,.3Z"/><path class="cls-3" d="M205.3,218.8s0-.3-.1-.8c0-.6-.1-1.4-.2-2.4-.1-2.1-.3-5.1-.2-8.9,0-1.9.1-3.9.3-6.2,0-2.2-.3-4.5-.8-6.9-1.2-4.8-3-9.9-5.1-15.3-2.1-5.3-4.4-10.3-6.4-14.8-1-2.3-2.1-4.4-2.7-6.5-.7-2.1-1.1-4.1-1.5-6-.7-3.7-1.1-6.7-1.4-8.8-.1-1-.2-1.9-.3-2.4,0-.6,0-.8,0-.8,0,0,0,.3.2.8,0,.6.2,1.4.4,2.4.3,2.1.8,5.1,1.5,8.8.4,1.8.8,3.8,1.5,5.9.7,2.1,1.8,4.2,2.8,6.4,2.1,4.5,4.3,9.5,6.5,14.8,2.1,5.3,4,10.5,5.1,15.4.5,2.4.9,4.8.8,7.1-.2,2.2-.3,4.3-.3,6.1-.1,3.8,0,6.8,0,8.9,0,1,0,1.8,0,2.4,0,.6,0,.8,0,.8Z"/><path class="cls-3" d="M269.3,217l-12.2,16.5c-.5.7-1.4,1-2.2.9l-52.7-10c-1.3-.2-2.1-1.6-1.7-2.9l5.7-17.5c.3-1.1,1.4-1.7,2.5-1.5l59.2,11c1.6.3,2.4,2.2,1.4,3.5Z"/><path class="cls-3" d="M155.8,209.8s.5-.7,1.8-1.4c1.2-.7,3.1-1.4,5.3-1.5,2.2,0,4.1.6,5.3,1.3,1.2.7,1.9,1.3,1.8,1.4,0,0-.7-.4-2-1-1.2-.6-3.1-1.1-5.2-1.1-2.1,0-3.9.6-5.1,1.3-1.2.6-1.9,1.1-2,1.1Z"/><g class="cls-8"><polygon points="168.2 241 189.1 248.7 191.2 240.1 201.1 242 202.4 237.1 186.9 234.9 186.8 242 170.6 235.9 168.2 241"/></g><path class="cls-14" d="M188.2,220.9s4.2-3.5,5.5-4.3c1.3-.8,5.7-3.7,7.6-3.4l2,.3-1.8,5.3s16-2.4,18.2.2c2.2,2.6-2.4,3.1-4.8,3.4-2.4.3-10,1.6-10,1.6,0,0,19.9-2.2,21.3,0s-1.9,2.7-1.9,2.7l-13.2,5.3-1.5.6-1.5,2s-5.4,3.8-7.1,3.3c-1.7-.5-14-2.8-14-2.8l1.3-14Z"/><path class="cls-9" d="M202.1,229.9c0,0,1.2-.5,3.1-.9,1.9-.5,4.6-1,7.7-1.5,3-.4,5.8-.6,7.8-.7,2,0,3.2,0,3.2,0,0,0-1.2.2-3.2.3-2,.2-4.7.4-7.7.9-3,.4-5.7.9-7.7,1.3-2,.4-3.2.6-3.2.5Z"/><path class="cls-9" d="M203.9,233.8c0-.2,1.2-.6,2.9-1,1.6-.4,3-.6,3-.5,0,.2-1.2.6-2.9,1-1.6.4-3,.6-3,.5Z"/><path class="cls-3" d="M239.5,158.8s0,.3,0,.7c0,.5,0,1.2.2,2.1.1,1.8.2,4.5.3,7.8.1,6.6-.2,15.6-.8,25.6-.7,10-1.2,19-1.3,25.6,0,3.3,0,5.9,0,7.8,0,.9,0,1.6,0,2.1,0,.5,0,.7,0,.7,0,0,0-.3,0-.7,0-.5,0-1.2-.1-2.1,0-1.8-.1-4.5-.1-7.8,0-6.6.5-15.6,1.2-25.6.7-10,1-19,1-25.6,0-3.3,0-5.9-.1-7.8,0-.9,0-1.6,0-2.1,0-.5,0-.7,0-.7Z"/><path class="cls-3" d="M175.2,184.4s0-.5,0-1.5c0-.9,0-2.3-.2-4-.2-3.4-.8-8-2.2-13-1.3-5-3.1-9.3-4.6-12.3-.7-1.5-1.4-2.7-1.8-3.5-.5-.8-.7-1.3-.7-1.3,0,0,.3.4.8,1.2.5.8,1.2,2,2,3.5,1.6,3,3.4,7.3,4.8,12.3,1.3,5,1.9,9.7,2,13.1,0,1.7,0,3.1,0,4,0,.9,0,1.5-.1,1.5Z"/><path class="cls-3" d="M221.6,151.8s-.2.4-.5,1c-.4.7-1,1.5-1.7,2.6-.2.3-.4.6-.6.9-.2.3-.4.6-.7.9-.3.3-.8.6-1.3.3-.5-.2-.7-.7-.9-1.1-.8-1.6-1.8-3.3-2.7-5.2h.5c-.5,1.2-1.1,2.6-1.6,3.9-.3.6-.5,1.2-.8,1.8-.2.3-.4.6-.8.7-.3.2-.7.2-1.1.1-.7-.2-1.2-.6-1.7-1-.4-.4-.9-.8-1.3-1.2-1.6-1.6-3.1-3-4.2-4.3-1.2-1.3-2.1-2.3-2.7-3-.6-.7-1-1.1-.9-1.2,0,0,.4.3,1.1,1,.7.8,1.7,1.7,2.8,2.9,1.2,1.2,2.7,2.6,4.3,4.2.8.7,1.6,1.8,2.7,2,.5.1,1-.1,1.3-.6.3-.5.5-1.1.8-1.7.6-1.4,1.1-2.7,1.6-3.9l.2-.5.2.5c1,1.9,1.9,3.6,2.7,5.2.2.4.4.8.7.9.3.2.6,0,.9-.2.5-.5.9-1.2,1.3-1.7.7-1,1.3-1.8,1.8-2.5.4-.6.7-.9.7-.9Z"/></svg>