<?xml version="1.0" encoding="UTF-8"?><svg id="Layer_1" xmlns="http://www.w3.org/2000/svg" viewBox="0 0 850 470"><defs><style>.cls-1{fill:#924640;}.cls-2{fill:#ebebeb;}.cls-3{fill:#455b64;}.cls-4,.cls-5,.cls-6,.cls-7,.cls-8,.cls-9{font-family:MyriadPro-Regular, 'Myriad Pro';}.cls-4,.cls-6{fill:#6b2727;}.cls-4,.cls-7,.cls-8{font-size:32.8px;}.cls-5,.cls-6,.cls-9{font-size:15.8px;}.cls-10{fill:#263238;}.cls-11{fill:#3a5fa0;}.cls-12{fill:#fff;}.cls-8,.cls-9{fill:#9e3a30;}.cls-13{opacity:.2;}.cls-14{opacity:.3;}.cls-15{opacity:0;}.cls-16{fill:#ec996f;}.cls-17{fill:#f5f5f5;}.cls-18{fill:#fafbfb;}.cls-19{fill:#f3725f;}.cls-20{fill:#e0e0e0;}.cls-21{fill:#fbbd9d;}</style></defs><rect class="cls-17" x="284.3" y="87.3" width="88" height="91.5" rx="4" ry="4"/><path class="cls-20" d="M329.1,107.9c-13.4,0-24.3,10.9-24.3,24.3s10.9,24.3,24.3,24.3,24.3-10.9,24.3-24.3-10.9-24.3-24.3-24.3ZM329.4,146.8c-8.3,0-15-6.7-15-14.9s6.7-14.9,15-14.9,14.9,6.7,14.9,14.9-6.7,14.9-14.9,14.9Z"/><path class="cls-18" d="M329.5,107.9c0,2.6,0,6.1,0,9,8.3,0,14.9,6.7,14.9,14.9s-.2,3.1-.7,4.5l8.8,2.4c.6-2.1.9-4.3.9-6.6,0-13.3-10.7-24.1-24-24.3Z"/><path class="cls-2" d="M314.5,131.9c0-6.1,3.6-11.3,8.9-13.7l-3.7-8.4c-8.7,3.7-14.9,12.3-14.9,22.4s0,.7,0,1h9.8c0-.5,0-.9,0-1.4Z"/><path class="cls-2" d="M329.4,146.8c-1.1,0-2.1-.1-3.2-.3-.4,2.2-1.1,6.4-1.6,9.7,1.4.3,2.9.4,4.4.4,11.2,0,20.6-7.5,23.4-17.8l-8.8-2.4c-1.9,6-7.6,10.4-14.2,10.4Z"/><path class="cls-20" d="M326.2,133.1h-.9v1.2h-1.2v-1.2h-3v-.9l2.6-3.5h1.3l-2.4,3.3h1.5v-1h1.2v1h.9v1Z"/><path class="cls-20" d="M326.6,131.5c0-1.8,1-2.9,2.4-2.9s2.4,1,2.4,2.9-1,2.9-2.4,2.9-2.4-1-2.4-2.9ZM330,131.5c0-1.3-.4-1.8-1.1-1.8s-1.1.5-1.1,1.8.4,1.8,1.1,1.8,1.1-.5,1.1-1.8Z"/><path class="cls-20" d="M331.9,130.2c0-.9.6-1.5,1.4-1.5s1.4.6,1.4,1.5-.6,1.5-1.4,1.5-1.4-.6-1.4-1.5ZM333.8,130.2c0-.6-.2-.9-.6-.9s-.6.3-.6.9.2.9.6.9.6-.3.6-.9ZM336.5,128.7h.9l-3.8,5.5h-.9l3.8-5.5ZM335.6,132.8c0-.9.6-1.5,1.4-1.5s1.4.6,1.4,1.5-.6,1.5-1.4,1.5-1.4-.6-1.4-1.5ZM337.6,132.8c0-.6-.2-.9-.6-.9s-.6.3-.6.9.2.9.6.9.6-.3.6-.9Z"/><path class="cls-20" d="M349.2,162.7c0,.1-9,.2-20.1.2s-20.1-.1-20.1-.2,9-.2,20.1-.2,20.1.1,20.1.2Z"/><path class="cls-20" d="M340.2,166.4c0,.1-5,.2-11.2.2s-11.2-.1-11.2-.2,5-.2,11.2-.2,11.2.1,11.2.2Z"/><circle class="cls-20" cx="293" cy="95.1" r="2.2"/><circle class="cls-20" cx="298.8" cy="95.1" r="2.2"/><path class="cls-20" d="M306.7,95.1c0,1.2-1,2.2-2.2,2.2s-2.2-1-2.2-2.2,1-2.2,2.2-2.2,2.2,1,2.2,2.2Z"/><path class="cls-2" d="M701.9,356.9c0-13.4-8.9-22-8.9-22-2.7,11.1,8.9,22,8.9,22Z"/><path class="cls-2" d="M689,350.7c-12.4-5.3-23.7-.7-23.7-.7,9.1,6.9,23.7.7,23.7.7Z"/><path class="cls-2" d="M687.5,343.5c2.1-10.4-3.2-18.5-3.2-18.5-3.9,8.1,3.2,18.5,3.2,18.5Z"/><path class="cls-2" d="M737.3,317.6c-18.8,5-28.9,21.4-28.9,21.4,16.1,0,28.9-21.4,28.9-21.4Z"/><path class="cls-2" d="M707.2,325.4c1-20.3-18.9-43.3-18.9-43.3,3,25.2,18.9,43.3,18.9,43.3"/><path class="cls-2" d="M707.3,267.6c-.8,16.5,7.1,29.1,7.1,29.1,2.8-13.1-7.1-29.1-7.1-29.1Z"/><path class="cls-2" d="M715,308.8c14.8-1.6,22.9-16.3,22.9-16.3-17.9,5-22.9,16.3-22.9,16.3Z"/><path class="cls-2" d="M747,370.8c-11.3-7.2-23.3-4.5-23.3-4.5,7.8,8.2,23.3,4.5,23.3,4.5Z"/><path class="cls-2" d="M708.5,377.5c2.8,7.8,10,11.2,10,11.2-.6-6.8-10-11.2-10-11.2Z"/><path class="cls-2" d="M710.5,375.3c8.4,5.2,17.7,3.2,17.7,3.2-5.7-6-17.7-3.2-17.7-3.2Z"/><path class="cls-20" d="M702.9,402.6s0-.1,0-.3c0-.2,0-.5,0-.9,0-.8,0-2,0-3.4,0-1.5,0-3.3,0-5.4,0-2.1,0-4.5.2-7.1.1-5.3.5-11.5,1-18.5.6-6.9,1.4-14.6,2.6-22.5,2.3-15.9,5.5-30.2,8.1-40.4,1.3-5.1,2.4-9.2,3.2-12.1.4-1.4.7-2.5.9-3.3,0-.3.2-.6.2-.9,0-.2,0-.3,0-.3,0,0,0,0-.1.3,0,.2-.2.5-.3.8-.2.8-.6,1.9-1,3.2-.9,2.8-2,6.9-3.4,12-2.7,10.2-6,24.5-8.3,40.4-1.2,8-2,15.6-2.6,22.6-.5,7-.8,13.3-.9,18.5,0,2.6,0,5,0,7.1,0,2.1,0,3.9,0,5.4,0,1.4,0,2.6.1,3.4,0,.4,0,.6,0,.9,0,.2,0,.3,0,.3Z"/><path class="cls-20" d="M730.1,359.7c-.1-.2-6.1,3.8-13.4,8.8-7.3,5-13.1,9.2-13,9.3.1.2,6.1-3.8,13.4-8.8,7.3-5,13.1-9.2,13-9.3Z"/><path class="cls-20" d="M703.7,361.8s-.3-.4-.9-1c-.7-.7-1.6-1.6-2.7-2.6-2.4-2.3-5.5-5.2-8.9-8.4-3.4-3.2-6.5-6.1-8.9-8.4-1.1-1-2-1.8-2.7-2.5-.6-.6-1-.9-1-.9,0,0,.3.4.9,1.1.6.7,1.5,1.6,2.6,2.7,2.2,2.2,5.3,5.2,8.8,8.5,3.5,3.3,6.7,6.2,9.1,8.2,1.2,1,2.1,1.9,2.8,2.4.7.6,1.1.8,1.1.8Z"/><path class="cls-2" d="M749.1,350s-15.3-.3-21.8,11.8c0,0,13.1.4,21.8-11.8Z"/><path class="cls-2" d="M728.2,343.9s-12.5,8.9-10.5,22.5c0,0,10.8-7.4,10.5-22.5Z"/><path class="cls-2" d="M662.5,322s4.9,17.2,20.6,20.2c0,0-4-14.7-20.6-20.2Z"/><path class="cls-2" d="M735,258.2s-19.6,12.8-17.4,33.5c0,0,16.8-10.7,17.4-33.5Z"/><path class="cls-20" d="M669.9,371.6s.4.4,1.3,1c.8.6,2,1.5,3.5,2.7,2.9,2.3,6.8,5.7,10.6,10,3.8,4.2,6.8,8.4,8.8,11.6,1,1.6,1.8,2.9,2.3,3.8.5.9.8,1.4.9,1.4,0,0-.2-.6-.6-1.5-.4-.9-1.2-2.3-2.1-3.9-1.9-3.2-4.8-7.5-8.7-11.8-3.8-4.3-7.8-7.6-10.8-9.9-1.5-1.1-2.8-2-3.6-2.5-.9-.6-1.4-.8-1.4-.8Z"/><path class="cls-2" d="M686.9,384.4c2.5-13.2-4.5-23.3-4.5-23.3-2.1,14.5,4.5,23.3,4.5,23.3Z"/><path class="cls-2" d="M673.8,377.2c-8.4-4.9-17.1-2.6-17.1-2.6,9.4,5,17.1,2.6,17.1,2.6Z"/><polygon class="cls-2" points="731.4 404.2 724 452.4 681.4 452.4 671.5 404.9 731.4 404.2"/><path class="cls-18" d="M677.5,435.1c0,.1,10.9.3,24.4.3s24.4-.1,24.4-.3-10.9-.3-24.4-.3-24.4.1-24.4.3Z"/><path class="cls-18" d="M677.3,432.7c0,.1,11,.3,24.6.3s24.6-.1,24.6-.3-11-.3-24.6-.3-24.6.1-24.6.3Z"/><path class="cls-18" d="M677.4,430.1c0,.1,11,.3,24.6.3s24.6-.1,24.6-.3-11-.3-24.6-.3-24.6.1-24.6.3Z"/><path class="cls-18" d="M719.2,449.7c.1,0,.7-2.7,1.3-6.1.6-3.4,1-6.1.8-6.2-.1,0-.7,2.7-1.3,6.1-.6,3.4-1,6.1-.8,6.2Z"/><path class="cls-18" d="M716.3,449.2c.1,0,.3-2.7.5-5.9.2-3.3.4-5.9.3-5.9-.1,0-.6,2.6-.8,5.9-.2,3.3-.2,6,0,6Z"/><path class="cls-18" d="M711,449.2c.1,0,.7-2.7,1.1-6.1.4-3.4.5-6.2.3-6.2-.1,0-.4,2.7-.8,6.1-.4,3.4-.8,6.1-.6,6.1Z"/><path class="cls-18" d="M707.3,449.4c.1,0,.5-2.7.6-6.2.1-3.4,0-6.2-.2-6.2-.1,0-.2,2.8-.3,6.2-.1,3.4-.2,6.2,0,6.2Z"/><path class="cls-18" d="M700.7,449.2c.1,0,.3-2.6.4-5.9.1-3.2,0-5.9,0-5.9-.1,0-.3,2.6-.4,5.9-.1,3.2,0,5.9,0,5.9Z"/><path class="cls-18" d="M695.9,449.4c.1,0,.2-2.7.2-6.1,0-3.3-.2-6.1-.3-6.1-.1,0-.2,2.7-.2,6.1,0,3.3.2,6.1.3,6.1Z"/><path class="cls-18" d="M691.4,448.8c.1,0,0-2.8-.4-6.3-.3-3.5-.7-6.3-.9-6.3-.1,0,0,2.8.4,6.3.3,3.5.7,6.3.9,6.3Z"/><path class="cls-18" d="M685.6,448.1c.1,0,0-2.4-.7-5.4-.6-2.9-1.5-5.2-1.6-5.2-.1,0,.5,2.4,1.1,5.3.6,2.9,1.1,5.3,1.2,5.3Z"/><path class="cls-2" d="M736.3,394.7v9c0,2-1.6,3.6-3.6,3.6h-61.7c-2,0-3.6-1.6-3.6-3.6v-9h68.8Z"/><polygon class="cls-20" points="730.9 407.2 730.4 410.1 673.5 414.2 672 407.2 730.9 407.2"/><path class="cls-17" d="M479,243.8c-.8,11.8-11.1,20.6-22.9,19.8-11.8-.8-20.7-11-19.9-22.8.8-11.8,11.1-20.6,22.9-19.8,11.8.8,20.7,11,19.9,22.8Z"/><path class="cls-2" d="M473.9,243.4c-.6,9-8.4,15.7-17.4,15.1-9-.6-15.8-8.4-15.1-17.4.6-9,8.4-15.7,17.4-15.1,9,.6,15.8,8.4,15.1,17.4Z"/><path class="cls-20" d="M473.9,242.9c0,0-.1-.7-.3-2-.2-1.3-.5-3.1-1.5-5.1-.5-1-1.1-2.1-1.9-3.1-.8-1-1.8-2-3-2.9-.6-.4-1.2-.9-1.9-1.2-.7-.4-1.4-.7-2.2-1-.8-.3-1.5-.5-2.4-.7-.8-.2-1.7-.3-2.5-.3-.9,0-1.7,0-2.5.1-.8,0-1.6.3-2.4.5-.8.2-1.5.5-2.2.8-.7.3-1.4.7-2,1.1-1.3.8-2.3,1.7-3.2,2.7-.9,1-1.6,2-2.2,3-1.1,2-1.6,3.7-1.9,5-.3,1.2-.3,2-.4,2,0,0-.2-.7,0-2,.1-1.3.5-3.2,1.6-5.3.5-1.1,1.3-2.2,2.2-3.2.9-1.1,2-2.1,3.4-2.9.7-.4,1.4-.8,2.1-1.2.8-.3,1.5-.7,2.4-.9.8-.2,1.7-.4,2.6-.5.9-.1,1.8-.1,2.7-.1.9,0,1.8.2,2.7.3.9.2,1.7.4,2.5.7.8.3,1.6.7,2.3,1.1.7.4,1.4.9,2,1.3,1.3,1,2.3,2.1,3.1,3.2.8,1.1,1.5,2.3,1.9,3.4.9,2.2,1.2,4.1,1.2,5.4,0,1.3-.1,2-.2,2Z"/><path class="cls-20" d="M458.8,252.1l-.2,2.8h-2.5c0-.1.2-2.9.2-2.9-2.5-.3-4.9-1.2-6.2-2.4l1.6-3c1.2,1,3,1.8,4.8,2.1l.2-4.2c-2.8-.8-5.9-2-5.7-5.6.1-2.7,2.2-4.9,6.3-5.1l.2-2.8h2.5c0,.1-.2,2.9-.2,2.9,1.9.3,3.7.9,5.1,1.8l-1.4,3c-1.3-.8-2.5-1.3-3.8-1.5l-.2,4.3c2.8.8,5.8,1.9,5.6,5.5-.1,2.6-2.2,4.8-6.2,5.1ZM456.9,240.8l.2-3.6c-1.4.2-1.9.9-2,1.8,0,.9.7,1.4,1.8,1.8ZM460.9,247.1c0-.9-.7-1.4-1.7-1.9l-.2,3.5c1.3-.2,1.9-.8,1.9-1.6Z"/><path class="cls-17" d="M204.1,80.1c-.8,11.8-11.1,20.6-22.9,19.8-11.8-.8-20.7-11-19.9-22.8.8-11.8,11.1-20.6,22.9-19.8,11.8.8,20.7,11,19.9,22.8Z"/><path class="cls-2" d="M199.1,79.7c-.6,9-8.4,15.7-17.4,15.1-9-.6-15.8-8.4-15.1-17.4.6-9,8.4-15.7,17.4-15.1,9,.6,15.8,8.4,15.1,17.4Z"/><path class="cls-20" d="M199.1,79.2c0,0-.1-.7-.3-2-.2-1.3-.5-3.1-1.5-5.1-.5-1-1.1-2.1-1.9-3.1-.8-1-1.8-2-3-2.9-.6-.4-1.2-.9-1.9-1.2-.7-.4-1.4-.7-2.2-1-.8-.3-1.5-.5-2.4-.7-.8-.2-1.7-.3-2.5-.3-.9,0-1.7,0-2.5.1-.8,0-1.6.3-2.4.5-.8.2-1.5.5-2.2.8-.7.3-1.4.7-2,1.1-1.3.8-2.3,1.7-3.2,2.7-.9,1-1.6,2-2.2,3-1.1,2-1.6,3.7-1.9,5-.3,1.2-.3,2-.4,2,0,0-.2-.7,0-2,.1-1.3.5-3.2,1.6-5.3.5-1.1,1.3-2.2,2.2-3.2.9-1.1,2-2.1,3.4-2.9.7-.4,1.4-.8,2.1-1.2.8-.3,1.5-.7,2.4-.9.8-.2,1.7-.4,2.6-.5.9-.1,1.8-.1,2.7-.1.9,0,1.8.2,2.7.3.9.2,1.7.4,2.5.7.8.3,1.6.7,2.3,1.1.7.4,1.4.9,2,1.3,1.3,1,2.3,2.1,3.1,3.2.8,1.1,1.5,2.3,1.9,3.4.9,2.2,1.2,4.1,1.2,5.4,0,1.3-.1,2-.2,2Z"/><path class="cls-20" d="M183.9,88.4l-.2,2.8h-2.5c0-.1.2-2.9.2-2.9-2.5-.3-4.9-1.2-6.2-2.4l1.6-3c1.2,1,3,1.8,4.8,2.1l.2-4.2c-2.8-.8-5.9-2-5.7-5.6.1-2.7,2.2-4.9,6.3-5.1l.2-2.8h2.5c0,.1-.2,2.9-.2,2.9,1.9.3,3.7.9,5.1,1.8l-1.4,3c-1.3-.8-2.5-1.3-3.8-1.5l-.2,4.3c2.8.8,5.8,1.9,5.6,5.5-.1,2.6-2.2,4.8-6.2,5.1ZM182,77.1l.2-3.6c-1.4.2-1.9.9-2,1.8,0,.9.7,1.4,1.8,1.8ZM186,83.4c0-.9-.7-1.4-1.7-1.9l-.2,3.5c1.3-.2,1.9-.8,1.9-1.6Z"/><path class="cls-17" d="M144.3,219.8c-.5,7.3-6.9,12.8-14.2,12.3-7.3-.5-12.8-6.8-12.3-14.1.5-7.3,6.9-12.8,14.2-12.3,7.3.5,12.8,6.8,12.3,14.1Z"/><path class="cls-2" d="M141.2,219.5c-.4,5.6-5.2,9.7-10.8,9.4-5.6-.4-9.8-5.2-9.4-10.8.4-5.6,5.2-9.7,10.8-9.4,5.6.4,9.8,5.2,9.4,10.8Z"/><path class="cls-20" d="M141.2,219.2c0,0,0-.4-.2-1.2-.1-.8-.3-1.9-.9-3.2-.3-.6-.7-1.3-1.2-1.9-.5-.6-1.1-1.3-1.9-1.8-.4-.3-.8-.5-1.2-.8-.4-.2-.9-.4-1.3-.6-.5-.2-1-.3-1.5-.4-.5,0-1-.2-1.5-.2-.5,0-1,0-1.6,0-.5,0-1,.2-1.5.3-.5.1-.9.3-1.4.5-.4.2-.9.4-1.2.7-.8.5-1.4,1.1-2,1.7-.6.6-1,1.2-1.4,1.8-.7,1.2-1,2.3-1.2,3.1-.2.8-.2,1.2-.3,1.2,0,0-.1-.4,0-1.3,0-.8.3-2,1-3.3.3-.7.8-1.3,1.4-2,.6-.7,1.3-1.3,2.1-1.8.4-.3.8-.5,1.3-.7.5-.2,1-.4,1.5-.6.5-.1,1.1-.3,1.6-.3.6,0,1.1,0,1.7,0,.6,0,1.1,0,1.7.2.5.1,1.1.3,1.6.5.5.2,1,.4,1.4.7.5.2.9.5,1.3.8.8.6,1.4,1.3,1.9,2,.5.7.9,1.4,1.2,2.1.6,1.4.7,2.6.7,3.4,0,.8,0,1.3-.1,1.3Z"/><path class="cls-20" d="M131.8,224.9v1.8c0,0-1.7,0-1.7,0v-1.7c-1.5-.2-2.9-.8-3.7-1.5l1-1.9c.8.6,1.9,1.1,3,1.3v-2.6c-1.6-.5-3.5-1.2-3.4-3.5,0-1.7,1.4-3,3.9-3.2v-1.7c0,0,1.7,0,1.7,0v1.7c1.1.2,2.2.5,3,1.1l-.9,1.9c-.8-.5-1.6-.8-2.4-1v2.7c1.6.5,3.5,1.2,3.3,3.4,0,1.6-1.4,3-3.8,3.1ZM130.6,217.9v-2.2c-.7.1-1.1.6-1.1,1.1,0,.5.4.9,1.1,1.1ZM133.1,221.8c0-.5-.4-.9-1.1-1.1v2.2c.7-.1,1-.5,1.1-1Z"/><path class="cls-17" d="M343.5,234.5c-.4,6.3-5.9,11.1-12.2,10.6-6.3-.4-11.1-5.9-10.6-12.2.4-6.3,5.9-11,12.2-10.6,6.3.4,11.1,5.9,10.6,12.2Z"/><path class="cls-2" d="M340.8,234.3c-.3,4.8-4.5,8.4-9.3,8.1-4.8-.3-8.4-4.5-8.1-9.3.3-4.8,4.5-8.4,9.3-8.1,4.8.3,8.4,4.5,8.1,9.3Z"/><path class="cls-20" d="M340.8,234c0,0,0-.4-.2-1.1,0-.7-.3-1.7-.8-2.7-.3-.5-.6-1.1-1-1.7-.4-.5-1-1.1-1.6-1.6-.3-.2-.7-.5-1-.7-.4-.2-.7-.4-1.2-.5-.4-.1-.8-.3-1.3-.4-.4,0-.9-.1-1.3-.2-.5,0-.9,0-1.3,0-.4,0-.9.1-1.3.3-.4.1-.8.3-1.2.4-.4.2-.7.4-1.1.6-.7.4-1.2.9-1.7,1.4-.5.5-.9,1.1-1.2,1.6-.6,1-.9,2-1,2.7-.1.7-.2,1.1-.2,1,0,0,0-.4,0-1.1,0-.7.3-1.7.9-2.9.3-.6.7-1.2,1.2-1.7.5-.6,1.1-1.1,1.8-1.6.4-.2.7-.5,1.1-.6.4-.2.8-.4,1.3-.5.4-.1.9-.2,1.4-.3.5,0,1,0,1.5,0,.5,0,1,0,1.4.2.5,0,.9.2,1.4.4.4.2.8.4,1.2.6.4.2.8.5,1.1.7.7.5,1.2,1.1,1.7,1.7.4.6.8,1.2,1,1.8.5,1.2.6,2.2.6,2.9,0,.7,0,1.1-.1,1.1Z"/><path class="cls-20" d="M332.7,238.9v1.5c0,0-1.4,0-1.4,0v-1.5c-1.3-.2-2.5-.6-3.2-1.3l.8-1.6c.7.5,1.6,1,2.6,1.1v-2.3c-1.4-.4-3-1-2.9-3,0-1.4,1.2-2.6,3.3-2.7v-1.5c0,0,1.4,0,1.4,0v1.5c.9.1,1.9.5,2.6,1l-.8,1.6c-.7-.4-1.4-.7-2-.8v2.3c1.4.4,3,1,2.9,2.9,0,1.4-1.2,2.6-3.3,2.7ZM331.7,232.9v-1.9c-.6.1-.9.5-1,.9,0,.5.4.8,1,1ZM333.8,236.3c0-.5-.4-.8-.9-1v1.9c.6-.1.9-.4.9-.9Z"/><rect class="cls-17" x="414" y="78.9" width="15.7" height="49"/><rect class="cls-17" x="437.4" y="90.1" width="15.7" height="37.8"/><rect class="cls-17" x="459" y="105.4" width="15.7" height="22.4"/><rect class="cls-20" x="720.2" y="56" width="6.9" height="148.5"/><rect class="cls-17" x="620" y="57.1" width="99.2" height="147.6" rx="0" ry="0"/><path class="cls-2" d="M720.2,205.8h-101.3c0,0,0,0,0,0V56.1c0,0,0,0,0,0h101.3c0,0,0,0,0,0v149.7c0,0,0,0,0,0ZM621.2,203.6h96.7c0,0,0,0,0,0V58.3c0,0,0,0,0,0h-96.7c0,0,0,0,0,0v145.1c0,0,0,0,0,0Z"/><rect class="cls-12" x="630" y="66.2" width="79.4" height="129.3" rx="0" ry="0"/><rect class="cls-2" x="647.3" y="102.9" width="44.6" height="52.2" rx="0" ry="0"/><path class="cls-20" d="M688.3,148.7c0,.2-2.1,1.1-6.3.6-2.1-.3-4.6-1-7.1-2.8-2.4-1.8-4.7-4.8-5.5-8.7-.8-3.9.5-8.8,4.2-11.9.9-.8,2-1.4,3.2-1.9,1.3-.5,2.6-.6,4-.5,1.4.2,2.8.6,4,1.8,1.2,1.1,1.9,3,1.6,4.7-.3,1.7-1.2,3-2.2,4-1,1-2.2,1.8-3.4,2.5-2.4,1.3-5.1,2.2-8,2.3-2.9.1-5.9-.4-8.5-1.9-2.6-1.5-4.9-3.7-6.3-6.5-1.4-2.8-1.9-6.1-1.1-9.1.7-3,2.4-5.7,4.8-7.5,1.2-.9,2.6-1.6,4-2,1.5-.4,3-.5,4.5-.1,1.5.3,3,1.1,4.1,2.3,1.1,1.3,1.6,2.9,1.6,4.4,0,1.5-.4,3-1.1,4.2-.7,1.2-1.6,2.2-2.5,3.1-1.9,1.6-4.1,2.7-6.3,3.4-2.2.6-4.5.8-6.6.5-2.1-.3-4.2-1.1-5.8-2.2-3.3-2.2-5.2-5.6-5.5-8.7-.4-3.2.8-5.8,2-7.5,1.3-1.7,2.8-2.6,3.8-3,1-.4,1.6-.4,1.7-.3,0,.1-.5.4-1.3.9-.8.6-2,1.5-2.9,3.2-.9,1.6-1.7,3.9-1.2,6.4.4,2.5,2.2,5.2,4.9,6.9,2.7,1.7,6.5,2.2,10.1,1,1.8-.6,3.6-1.6,5.1-2.9,1.5-1.3,2.4-3,2.4-4.7,0-1.8-1.2-3-3.1-3.4-.9-.2-2-.1-2.9.1-1,.3-1.9.8-2.7,1.4-1.7,1.3-3,3.3-3.5,5.5-.5,2.2-.2,4.5.9,6.6,1,2.1,2.8,3.9,4.8,5,2,1.1,4.3,1.6,6.6,1.5,2.3,0,4.5-.7,6.5-1.8,1-.5,1.9-1.1,2.6-1.8.7-.7,1.2-1.5,1.3-2.1.1-.7,0-1.3-.5-1.7-.5-.5-1.3-.8-2.1-.9-.9-.1-1.8,0-2.5.2-.9.3-1.6.7-2.4,1.3-1.4,1.1-2.5,2.6-3.1,4.2-.6,1.6-.7,3.3-.5,4.9.5,3.2,2.3,5.8,4.2,7.5,2,1.7,4.2,2.6,6.1,3,3.8.9,6,.4,6.1.8Z"/><path class="cls-17" d="M145.4,443.3c-1.5-1.3-4.9-5.5-2.3-10.3,1-1.8,3-2.6,4.9-3.4,1.9-.8,3.8-1.5,5.3-2.8,2.9-2.5,3.7-6.5,5.6-9.8,2.2-3.8,6.3-6.6,10.7-6.4,5,.2,9.1,4.3,11,8.9,1.9,4.6,1.9,9.8,2,14.8,0,2.8-.1,5.9-2.1,7.8-1.9,1.7-4.7,1.7-7.2,1.7-9.1-.3-18.1-.6-27.2-.8"/><path class="cls-20" d="M197.4,368.5h-71.5l12.9,76.8c.6,3.4,3,5.9,6.1,6.8,0,0,.2,0,.3,0,.2,0,.4.1.6.2.5,0,1,.1,1.5.2,0,0,0,0,0,0h.3c0,0,0,0,0,0h31.9c.6,0,1.2,0,1.8-.2,3.8-.6,6.8-3.6,7.2-7.5l6.2-52.9.3-2.1h0l2.5-21v-.4ZM183.9,417.5h-7.3l.7-22.3h8.5l-1.9,22.3ZM186.5,395.2h7l-2.6,22.3h-6.3l1.9-22.3ZM165.6,442.3l-.4-19.4h10.6l-.6,19.4h-9.5ZM154.1,422.9h10.3l.4,19.4h-9.2l-1.5-19.4ZM154.9,442.3h-8.6c-.8-5.2-1.9-12-3-19.4h10.1l1.5,19.4ZM153.7,417.5l-1.7-22.3h11.8l.5,22.3h-10.6ZM165,417.5l-.5-22.3h12.1l-.7,22.3h-10.9ZM164.4,389.9l-.5-20.6h13.6l-.7,20.6h-12.4ZM163.6,389.9h-12.1l-1.6-20.6h13.2l.5,20.6ZM150.9,389.9h-12.8c-.5-2.9-.9-5.6-1.3-8-1.3-8.3-1.8-11.5-2.1-12.7h14.6l1.6,20.6ZM151.3,395.2l1.7,22.3h-10.6c-.4-2.3-.7-4.6-1.1-6.8-.8-5.3-1.7-10.5-2.4-15.5h12.3ZM141.7,417.5h-6.9l-3.7-22.3h7.1c1.1,6.9,2.3,14.6,3.5,22.3ZM142.6,422.9c1.1,6.7,2.1,13.3,3,19.4h-6.6l-3.2-19.4h6.8ZM175.8,442.3l.6-19.4h7.1l-1.7,19.4h-6ZM177.5,389.9l.7-20.6h9.9l-1.8,20.6h-8.8ZM134,369.3c.3,1.5,1.6,9.6,3.3,20.6h-7.2l-3.5-20.6h7.3ZM188,442.3h-5.5l1.7-19.4h6.1l-2.3,19.4ZM194.2,389.9h-7.2l1.8-20.6h7.9l-2.4,20.6Z"/><path class="cls-10" d="M746.8,452.7c0,.1-143.3.2-320,.2s-320-.1-320-.2,143.2-.2,320-.2,320,.1,320,.2Z"/><path class="cls-19" d="M397.4,187.2c-.4,7.8-7.8,13.2-15.3,11.3-5.6-1.4-9.5-6.7-9.2-12.5.4-7.8,7.8-13.2,15.3-11.3,5.6,1.4,9.5,6.7,9.2,12.5Z"/><g class="cls-15"><path class="cls-12" d="M387,174.5c-6.7-1-12.9,3.6-14,10.3,0,0,8.5,1.7,11-1.5,2.6-3.1,2.9-8.8,2.9-8.8Z"/></g><path class="cls-19" d="M394.3,186.6c-.1,6.1-6,10.4-11.9,8.8-4-1.1-6.8-5-6.7-9.1.2-6.1,6-10.4,11.9-8.8,4,1.1,6.8,5,6.7,9.1Z"/><g class="cls-13"><path d="M394.3,186.6c-.1,6.1-6,10.4-11.9,8.8-4-1.1-6.8-5-6.7-9.1.2-6.1,6-10.4,11.9-8.8,4,1.1,6.8,5,6.7,9.1Z"/></g><path class="cls-19" d="M394.5,187c-.1,6.1-5.9,10.3-11.7,8.7-4-1.1-6.8-4.9-6.7-9,.1-6.1,5.9-10.3,11.7-8.7,4,1.1,6.8,4.9,6.7,9Z"/><g class="cls-13"><path class="cls-12" d="M394.5,187c-.1,6.1-5.9,10.3-11.7,8.7-4-1.1-6.8-4.9-6.7-9,.1-6.1,5.9-10.3,11.7-8.7,4,1.1,6.8,4.9,6.7,9Z"/></g><text class="cls-5" transform="translate(380.4 191.8) rotate(6.2)"><tspan x="0" y="0">₹</tspan></text><text class="cls-6" transform="translate(380.4 191.8) rotate(6.2)"><tspan x="0" y="0">₹</tspan></text><text class="cls-5" transform="translate(380.1 191.3) rotate(6.2)"><tspan x="0" y="0">₹</tspan></text><text class="cls-9" transform="translate(380.1 191.3) rotate(6.2)"><tspan x="0" y="0">₹</tspan></text><path class="cls-12" d="M385.3,182.4s.2,0,.4.1c.2.1.5.3.6.7.1.3.1.7,0,.9,0,.2-.1.4-.2.3,0,0,0-.1,0-.4,0-.2,0-.5,0-.9-.1-.3-.4-.5-.6-.7-.2-.1-.3-.2-.3-.2Z"/><path class="cls-12" d="M384.3,190.1s-.3-.5-.7-1.1c-.4-.6-.6-1-.6-1,0,0,.3.5.7,1.1.4.6.6,1,.6,1Z"/><path class="cls-12" d="M538.4,159.3l-3-5.5c1-4.6.7-9.6-1.4-14.4-4.7-11.2-17.5-17.1-29.1-13.5-13.4,4.2-20.4,19.1-14.8,32.2,4.7,11.1,17.2,17,28.8,13.6,5.7-1.7,10.3-5.3,13.3-9.9h0s6.3-2.4,6.3-2.4Z"/><path class="cls-10" d="M538.4,159.3s-.1,0-.4.2c-.3.1-.7.3-1.2.5-1.1.4-2.7,1.1-4.7,1.9,0,0-.1,0-.1,0,0,0,0,0,0,0,0,0,0,0,0,0h.2c-1.6,2.6-4.2,5.7-8.4,8-2.1,1.2-4.5,2.1-7.2,2.7-2.7.5-5.7.6-8.7,0-3-.5-6.1-1.7-8.9-3.5-2.8-1.8-5.4-4.3-7.3-7.3-1.9-3.1-3.2-6.6-3.6-10.4-.4-3.8.2-7.8,1.6-11.5.7-1.9,1.8-3.6,2.9-5.2.6-.8,1.2-1.5,1.9-2.3l1-1,.5-.5.6-.5c3-2.5,6.4-4.1,10-5,3.5-.9,7.2-.8,10.5,0,3.3.7,6.3,2.1,8.9,3.9,2.5,1.8,4.6,4,6.1,6.2.4.6.7,1.2,1.1,1.7.3.6.6,1.2.9,1.8.6,1.2.9,2.3,1.3,3.5,1.3,4.6.9,8.7.3,11.5h0c.9,1.7,1.7,3.1,2.2,4.1.2.5.4.8.5,1.1.1.2.2.4.2.4,0,0,0-.1-.2-.4-.1-.3-.3-.6-.6-1.1-.5-.9-1.3-2.3-2.2-4,0,0,0,0,0,0,.6-2.9.9-6.9-.4-11.4-.3-1.1-.7-2.3-1.3-3.4-.3-.6-.5-1.2-.9-1.7-.3-.6-.7-1.1-1-1.7-1.5-2.2-3.6-4.4-6.1-6.1-2.5-1.7-5.5-3.1-8.7-3.8-3.3-.7-6.8-.8-10.3,0-3.5.8-6.9,2.5-9.8,4.9l-.6.4-.5.5-1,1c-.7.7-1.2,1.5-1.8,2.2-1.1,1.6-2.1,3.3-2.8,5.1-1.5,3.6-2,7.5-1.6,11.2.4,3.7,1.6,7.2,3.5,10.2,1.9,3,4.4,5.4,7.2,7.2,2.8,1.8,5.8,2.9,8.8,3.5,3,.5,5.9.5,8.6,0,2.7-.5,5-1.4,7.1-2.6,4.1-2.3,6.8-5.3,8.4-7.8,0,0,0,0,.1,0,0,0,0,0,0,.1,0,0,0,0,0,0h-.1c2-.9,3.6-1.4,4.7-1.8.5-.2.9-.3,1.2-.4.3,0,.4-.1.4-.1Z"/><path class="cls-19" d="M532.4,127.7c0-10.9-8.9-19.8-19.8-19.8s-19.8,8.9-19.8,19.8,4.7,14.8,11.4,17.9c0,2.3,0,5,0,5h17.4s.1-2.8.1-5.3c6.4-3.3,10.7-9.9,10.7-17.6Z"/><path class="cls-10" d="M520.2,153.9h-14.9c-.6,0-1.1-.5-1.1-1.1h0c0-.6.5-1.1,1.1-1.1h14.9c.6,0,1.1.5,1.1,1.1h0c0,.6-.5,1.1-1.1,1.1Z"/><path class="cls-10" d="M520.2,154.9h-14.9c-.6,0-1.1.5-1.1,1.1s.5,1.1,1.1,1.1h1.6l2.2,4.1c.2.5.7.8,1.3.8h5.3c.5,0,1-.3,1.3-.8l2.1-4.1h1.1c.6,0,1.1-.5,1.1-1.1s-.5-1.1-1.1-1.1Z"/><path class="cls-3" d="M516.7,161.6s-.4-.1-1-.3c-.6-.2-1.5-.3-2.5-.3-1,0-1.9.2-2.5.5-.6.2-1,.4-1,.4,0,0,.3-.3.9-.5.6-.3,1.5-.5,2.6-.5,1,0,2,.2,2.6.4.6.2,1,.5,1,.5Z"/><path class="cls-3" d="M519.1,157.1c0,0-2.7.1-6,.1s-6,0-6-.1c0,0,2.7-.1,6-.1,3.3,0,6,0,6,.1Z"/><path class="cls-3" d="M518.2,158.9s-.6,0-1.5.1c-.9,0-2.2.1-3.6.1-1.4,0-2.6,0-3.6,0-.9,0-1.5,0-1.5-.1,0,0,.6,0,1.5,0,1,0,2.2,0,3.6,0,1.3,0,2.6,0,3.6,0,.9,0,1.5,0,1.5,0Z"/><path class="cls-12" d="M529.4,121.8s.2.3.4,1c.2.7.5,1.6.6,2.9.3,2.5.1,6-1.5,9.5-1.6,3.5-4.2,6-6.2,7.4-1,.7-1.9,1.2-2.6,1.4-.6.3-1,.4-1,.4,0,0,1.4-.6,3.4-2.1,2-1.4,4.4-3.9,6-7.3,1.5-3.4,1.8-6.9,1.6-9.3-.2-2.4-.8-3.9-.7-3.9Z"/><path class="cls-10" d="M512.5,103.4c-.1,0-.2-2-.2-4.4s.1-4.4.2-4.4.2,2,.2,4.4-.1,4.4-.2,4.4Z"/><path class="cls-10" d="M503.6,104.6c-.1,0-1.1-1.1-2.2-2.7-1.1-1.6-1.9-2.9-1.8-3,.1,0,1.1,1.1,2.2,2.7,1.1,1.6,1.9,2.9,1.8,3Z"/><path class="cls-10" d="M525.2,99c.1,0-.4,1.3-1.3,2.8-.8,1.5-1.6,2.6-1.7,2.5-.1,0,.4-1.3,1.3-2.8.8-1.5,1.6-2.6,1.7-2.5Z"/><path class="cls-10" d="M495.9,109.6c0,0-1-.6-2-1.5-1-.9-1.7-1.8-1.7-1.8s1,.6,2,1.5c1,.9,1.7,1.7,1.7,1.8Z"/><path class="cls-10" d="M534.7,108.3c0,.1-.7.8-1.7,1.6-1,.8-1.9,1.4-2,1.3,0-.1.7-.8,1.7-1.6,1-.8,1.9-1.4,2-1.3Z"/><g class="cls-14"><path class="cls-12" d="M516,111.4c-.4-1.4-2-2.3-3.9-2.3-3.7.4-7.2,1.5-10.3,3.6-3,2.1-5.3,5.7-6.1,9.3-.2.8-.3,1.7-.1,2.5.2.8.8,1.6,1.6,1.8.8.2,1.6,0,2.3-.6.6-.5,1.1-1.2,1.5-1.9.9-1.6,1.6-3.3,2.7-4.8s2.5-2.8,4.3-3.2c1.2-.3,2.3-.3,3.5-.5,1.5-.3,2.4-.3,3.5-.9.8-.5,1.4-2,1.1-2.9Z"/></g><g class="cls-14"><path class="cls-12" d="M500,131.6c0,1.3-1,2.3-2.3,2.3s-2.3-1-2.3-2.3,1-2.3,2.3-2.3,2.3,1,2.3,2.3Z"/></g><text class="cls-7" transform="translate(504.6 141.8)"><tspan x="0" y="0">₹</tspan></text><text class="cls-4" transform="translate(504.6 141.8)"><tspan x="0" y="0">₹</tspan></text><text class="cls-7" transform="translate(503.9 140.9)"><tspan x="0" y="0">₹</tspan></text><text class="cls-8" transform="translate(503.9 140.9)"><tspan x="0" y="0">₹</tspan></text><path class="cls-12" d="M180.8,159.3l-6.5,2.2c-2.6,4.5-6.7,8.2-11.8,10.6-12.2,5.5-26.8.7-33.5-10.9-7.7-13.4-2.2-30.5,12-36.9,12.1-5.4,26.5-.8,33.2,10.5,3.3,5.6,4.3,12,3.3,17.9h0s3.3,6.6,3.3,6.6Z"/><path class="cls-10" d="M180.8,159.3s0-.2-.2-.4c-.2-.3-.4-.7-.6-1.3-.6-1.1-1.4-2.8-2.5-4.9h.2s0,0,0,0c0,0,0,0-.1,0,0,0,0,0,0-.1.5-3.2.7-7.6-.9-12.5-.8-2.4-2-5-3.8-7.4-1.8-2.4-4.1-4.6-6.8-6.4-2.8-1.8-6.1-3.1-9.7-3.8-3.6-.6-7.4-.6-11.2.5-3.7,1-7.4,2.9-10.5,5.6-3.1,2.7-5.6,6.2-7.1,10.2-.8,2-1.2,4.1-1.6,6.2,0,1.1-.2,2.1-.2,3.2v1.6c0,0,.1.8.1.8v.8c.6,4.1,2.2,8,4.3,11.2,2.2,3.3,5.1,5.9,8.2,7.7,3.1,1.9,6.5,3,9.8,3.5,3.3.5,6.5.3,9.4-.4.7-.2,1.4-.4,2.1-.6.7-.2,1.3-.5,2-.7,1.3-.5,2.5-1.1,3.6-1.8,4.4-2.7,7.2-6.1,8.8-8.9,0,0,0,0,0,0,2.1-.7,3.7-1.2,4.8-1.6.5-.2,1-.3,1.3-.4.3,0,.4-.1.4-.1,0,0-.1,0-.4.2-.3.1-.7.3-1.2.4-1.1.4-2.8,1-4.8,1.7h0c-1.6,2.7-4.4,6.3-8.8,9-1.1.7-2.3,1.3-3.6,1.9-.7.2-1.3.6-2,.8-.7.2-1.4.4-2.1.6-2.9.7-6.2.9-9.6.5-3.4-.5-6.8-1.6-10-3.5-3.2-1.9-6.2-4.5-8.4-7.9-2.2-3.3-3.8-7.2-4.3-11.4v-.8c-.1,0-.2-.8-.2-.8,0-.5,0-1.1,0-1.6,0-1.1,0-2.1.2-3.2.3-2.1.7-4.3,1.6-6.3,1.5-4.1,4-7.7,7.2-10.4,3.2-2.7,6.9-4.7,10.7-5.7,3.8-1.1,7.7-1.1,11.4-.4,3.6.7,7,2,9.8,3.8,2.8,1.8,5.1,4.1,6.9,6.5,1.7,2.4,3,5,3.8,7.5,1.6,5,1.4,9.4.8,12.6h-.2c0,0,0,0,0,0,0,0,0,0,.1,0,0,0,0,0,0,0,1,2.2,1.8,3.8,2.4,5,.3.5.5,1,.6,1.3.1.3.2.4.2.4Z"/><polygon class="cls-19" points="140.2 149.2 143.5 145.7 150.3 151.3 162.7 138.5 166 141.8 150 157.9 140.2 149.2"/><path class="cls-20" d="M211.5,354.1h-5.6c-2.9,0-5.4-2.2-5.8-5.1-1.1-9.1-3.3-34.4-3.3-34.7l4-.3c0,.3,2.2,25.5,3.3,34.6.1.9.9,1.6,1.8,1.6h5.6v4Z"/><path class="cls-10" d="M211.5,354.1s0,0,0-.3c0-.2,0-.5,0-.8,0-.7,0-1.7,0-2.9h0c-.9.1-1.9.1-3.1.1-.6,0-1.2,0-1.9,0-.3,0-.7,0-1,0-.4,0-.7-.3-1-.5-.3-.3-.5-.6-.5-1,0-.4,0-.7-.1-1.1,0-.8-.2-1.6-.2-2.4-.2-1.6-.3-3.4-.5-5.2-.7-7.4-1.6-16.3-2.5-25.9l.3.2c-.9,0-1.9.2-2.9.3-.4,0-.7,0-1,0l.2-.3c1.3,13.5,2.4,25.6,3.2,34.4.2,2.2,1.5,3.9,3,4.6,1.5.8,3.1.6,4.3.7,1.2,0,2.1,0,2.8,0,.3,0,.6,0,.7,0,.2,0,.3,0,.3,0s0,0-.2,0c-.2,0-.4,0-.7,0-.7,0-1.6,0-2.8,0-.6,0-1.3,0-2.1,0-.8,0-1.6-.2-2.4-.6-1.6-.8-3.1-2.6-3.3-4.8-.9-8.8-2-21-3.4-34.4v-.2s.2,0,.2,0c.3,0,.7,0,1,0,1,0,2-.2,2.9-.3h.2s0,.2,0,.2c.9,9.6,1.7,18.5,2.4,25.9.2,1.8.3,3.6.5,5.2,0,.8.1,1.6.2,2.4,0,.4,0,.8.1,1.1,0,.3.2.6.5.9.2.2.5.4.8.5.3,0,.6,0,1,0,.6,0,1.3,0,1.9,0,1.2,0,2.2,0,3.1,0h0s0,0,0,0c0,1.3,0,2.3,0,3,0,.3,0,.6,0,.8,0,.2,0,.2,0,.2Z"/><path class="cls-3" d="M300.4,359h-89.1c-3.3,0-6-2.7-6-6h0c0-3.3,2.7-6,6-6h89.1c3.3,0,6,2.7,6,6h0c0,3.3-2.7,6-6,6Z"/><path class="cls-3" d="M192.3,317.3l-12.2-95.3c-.4-3.3,1.9-6.3,5.2-6.7h0c3.3-.4,6.3,1.9,6.7,5.2l12.2,95.3c.4,3.3-1.9,6.3-5.2,6.7h0c-3.3.4-6.3-1.9-6.7-5.2Z"/><polygon class="cls-3" points="299.8 355.3 313.1 452.7 307.8 452.7 288 359 299.8 355.3"/><polygon class="cls-3" points="212.3 355.3 199.4 452.7 204.7 452.7 224.2 359 212.3 355.3"/><path class="cls-10" d="M303.6,359c0,.1-20.9.2-46.8.2s-46.8-.1-46.8-.2,20.9-.2,46.8-.2,46.8.1,46.8.2Z"/><path class="cls-10" d="M211.8,154.8c-2-5.4-4-10.9-5-16.7-1-5.7-1.1-11.7.8-17.2.3-.8,2.7-6.5,3.6-6.4.6,0-.8,5.3-.5,5.8,3.2,5.1,4.2,11.3,4,17.3-.3,6-1.3,11.4-2.9,17.2"/><path class="cls-21" d="M213.7,185.7l-2.1-52.7c-1-14.5,5.5-27.5,20-28.1h1.6c13.4.3,24.4,10.8,25.3,24.2.8,12.6,1.5,26.7,1.3,33.5-.4,14-14.4,15.9-14.4,15.9,0,0,.6,10.1.7,14.2,0,0-1.5,1.1-14.5,1.5-13,.5-17.9-8.5-17.9-8.5Z"/><path class="cls-16" d="M245.4,178.4s-8.8.4-18.1-5.7c0,0,4.3,10.2,18.2,9.2v-3.5Z"/><path class="cls-10" d="M253.7,143.8c0,1.1-.9,1.9-2,2-1.1,0-2-.8-2-1.8,0-1.1.9-1.9,2-2,1.1,0,2,.8,2,1.8Z"/><path class="cls-10" d="M255,136.8c-.3.3-1.7-.9-3.9-.9-2.1,0-3.7,1-4,.7-.1-.1.1-.6.8-1.1.7-.5,1.8-.9,3.2-.9,1.3,0,2.5.5,3.1,1.1.7.5.9,1,.7,1.1Z"/><path class="cls-10" d="M235.7,143.1c0,1.1-.9,1.9-2,2-1.1,0-2-.8-2-1.8,0-1.1.9-1.9,2-2,1.1,0,2,.8,2,1.8Z"/><path class="cls-10" d="M235.3,137.1c-.3.3-1.7-.9-3.9-.9-2.1,0-3.7,1-4,.7-.1-.1.1-.6.8-1.1.7-.5,1.8-.9,3.2-.9,1.3,0,2.5.5,3.1,1.1.6.5.9,1,.7,1.1Z"/><path class="cls-10" d="M241.9,153.7c0-.1,1.3-.3,3.5-.6.5,0,1.1-.1,1.2-.5.1-.4,0-1-.3-1.6-.5-1.3-1-2.7-1.5-4.2-2.1-6-3.7-10.9-3.4-11,.2,0,2.2,4.7,4.3,10.7.5,1.5,1,2.9,1.5,4.2.2.6.5,1.3.2,2.2-.2.4-.6.7-.9.8-.4.1-.7.1-.9.1-2.2,0-3.5,0-3.5,0Z"/><path class="cls-21" d="M212.5,143.3c-.2-.1-9.5-3-9.4,6.5.1,9.5,9.7,7.4,9.7,7.2,0-.3-.3-13.7-.3-13.7Z"/><path class="cls-16" d="M209.7,153.5s-.2.1-.4.3c-.3.1-.7.2-1.2,0-1-.4-1.9-1.9-2-3.7,0-.9.1-1.7.4-2.4.3-.7.7-1.2,1.2-1.3.5-.1.9.2,1,.4.1.3,0,.5.1.5,0,0,.2-.2.1-.6,0-.2-.2-.4-.4-.6-.2-.2-.6-.3-.9-.2-.7,0-1.4.7-1.7,1.5-.4.8-.6,1.7-.5,2.7,0,1.9,1.1,3.7,2.5,4.1.7.2,1.2,0,1.5-.3.3-.2.3-.5.3-.5Z"/><path class="cls-10" d="M251.9,113.6c1.5-.9-3.2-5.8-7.1-7.4-5.8-2.5-14.6-3.9-19.9-2.2-6.3,2-11.5,5.2-14.6,11.1-3.1,5.9-4.1,12.7-3.8,19.3.1,2,.4,4.1,1.5,5.8,1.4,2.1,4,3.3,3.9,6.3,0,1.1.3,2.1,1.1,2.9,1.8,1.8,3.9,0,4.8-1.8,2-3.8,2.1-8.3,2.2-12.5,0-3,.1-6.2-.8-9.1-.5-1.6-1.3-3.1-1.7-4.7-.4-1.6-.4-3.4.6-4.8.2-.2.4-.5.8-.8,2.6-2.4,6.4-3.2,9.8-2.1,5.4,1.8,14.7,4.4,17,2.5,3.4-2.7,4.2-4.4,4.2-4.4l1.9,2Z"/><path class="cls-10" d="M243.3,159.5c0,.2-.5.5-1.4.6-.9.1-2.3,0-3.7-.7-1.3-.6-2.3-1.6-2.8-2.4-.5-.8-.6-1.4-.5-1.5.3-.2,1.5,1.7,3.8,2.8,2.3,1.1,4.5.8,4.6,1.2Z"/><path class="cls-16" d="M231.6,155.6c0,0-.1-.3,0-.7,0-.4.4-1,1-1.4.6-.4,1.3-.4,1.7-.4.4,0,.7.3.6.3,0,.1-1.1-.2-2.1.5-1,.7-1.1,1.8-1.2,1.7Z"/><path class="cls-3" d="M359.5,408.1l-1,28.9s28.9,10.1,29.2,15.5l-55.9.7-.3-45.1h28Z"/><path class="cls-20" d="M341.5,434.7c-1.1.3-1.8,1.5-1.6,2.6.3,1.1,1.5,1.9,2.6,1.6,1.1-.3,2-1.7,1.7-2.8-.4-1.1-1.9-1.9-2.9-1.4"/><path class="cls-10" d="M331.8,453.1v-3.6s54.3.4,54.3.4c0,0,1.8,1.1,1.9,2.8l-56.2.4Z"/><path class="cls-10" d="M359,437.2c0,.3-1.4.4-2.7,1.3-1.4.9-2.1,2-2.3,1.9-.3,0,.2-1.7,1.8-2.7,1.7-1.1,3.3-.7,3.3-.5Z"/><path class="cls-10" d="M364.9,439.6c0,.3-1.1.7-2.1,1.9-1,1.1-1.2,2.4-1.5,2.4-.3,0-.5-1.6.7-3,1.2-1.4,2.8-1.6,2.8-1.3Z"/><path class="cls-10" d="M368.3,446.7c-.3,0-.6-1.3,0-2.8.7-1.5,2-2.1,2.1-1.9.2.2-.7,1-1.2,2.3-.6,1.2-.7,2.4-.9,2.4Z"/><path class="cls-10" d="M358.5,430.5c-.1.3-1.4-.1-2.9,0-1.6,0-2.8.6-2.9.4-.2-.2,1-1.2,2.9-1.3,1.8-.1,3.1.8,3,1Z"/><path class="cls-10" d="M359.5,424.3c0,.1-1.1.3-2.8,0-.9-.1-1.9-.4-3-.9-.5-.2-1.1-.5-1.6-.9-.3-.2-.6-.3-.9-.7-.3-.3-.5-1-.1-1.5.3-.4.8-.6,1.2-.6.4,0,.8,0,1.1.1.6.2,1.2.4,1.8.6,1.1.5,2,1.1,2.6,1.7,1.3,1.2,1.8,2.2,1.7,2.3-.1,0-.8-.8-2.1-1.8-.7-.5-1.5-1-2.5-1.4-.5-.2-1-.4-1.6-.5-.6-.2-1.1-.2-1.3.1,0,.1,0,.1,0,.3.1.2.4.3.6.5.5.3,1,.6,1.5.9,1,.5,1.9.8,2.7,1,1.6.5,2.7.5,2.7.7Z"/><path class="cls-3" d="M383.5,352.1l13.6,25.5s30.1-5.7,33-1.3l-48.1,28.6-22.9-38.9,24.3-14Z"/><path class="cls-20" d="M381.3,384.1c-.8.8-.8,2.2,0,3.1.8.8,2.2.9,3.1,0,.8-.8.9-2.5,0-3.3-.9-.7-2.6-.7-3.2.3"/><path class="cls-10" d="M382.1,405l-1.8-3.1,47.2-26.9s2.1,0,3.1,1.4l-48.5,28.5Z"/><path class="cls-10" d="M397.6,377.5c.1.2-1,1-1.7,2.5-.8,1.4-.8,2.8-1,2.8-.2,0-.7-1.6.2-3.3.9-1.7,2.5-2.3,2.6-2.1Z"/><path class="cls-10" d="M404,376.6c.2.2-.6,1.2-.8,2.7-.3,1.5.2,2.7,0,2.8-.2.2-1.2-1.1-.9-3,.3-1.8,1.6-2.8,1.8-2.5Z"/><path class="cls-10" d="M410.5,381.1c-.2.2-1.2-.8-1.4-2.5-.2-1.7.7-2.8.9-2.7.2.1,0,1.2,0,2.6.1,1.4.6,2.4.4,2.6Z"/><path class="cls-10" d="M393.9,372c0,.3-1.3.6-2.6,1.5-1.3.8-2.1,1.9-2.3,1.8-.2,0,.3-1.6,1.8-2.6,1.5-1,3.1-.9,3.1-.7Z"/><path class="cls-10" d="M391.6,366.1c0,0-.8.8-2.5,1.4-.8.3-1.9.6-3,.7-.6,0-1.2,0-1.8,0-.3,0-.7,0-1.1-.1-.4,0-.9-.6-.8-1.2,0-.5.4-.9.7-1.2.4-.2.7-.3,1-.4.6-.2,1.2-.3,1.8-.4,1.2-.1,2.2,0,3.1.2,1.7.4,2.6,1.1,2.6,1.2,0,.1-1-.3-2.7-.5-.8,0-1.8-.1-2.9,0-.5,0-1.1.2-1.7.4-.6.2-1,.4-1,.7,0,.1,0,.2.2.2.2,0,.5,0,.8.1.6,0,1.2,0,1.7,0,1.1,0,2.1-.3,2.9-.5,1.6-.4,2.6-.9,2.7-.8Z"/><path class="cls-10" d="M207.7,309.4c0-.6,0-.9,0-.9v.9Z"/><path class="cls-10" d="M206.8,309.4l64.3-24.1s38-17.7,51.8-21.5c14.8-4.1,28.1,7,36.4,24.3,5.6,11.7,35.2,79.9,35.2,79.9l-26.1,17.3-46.4-84.7-72.3,46.9s-14.2-.3-28-.3-15.3-32.1-14.9-37.8Z"/><polygon class="cls-10" points="207.7 309.4 207.7 309.4 207.7 309.4 207.7 309.4"/><path class="cls-10" d="M363.1,421.8l-8.1-89.3s-1.6-20.8-13.6-24.9c-12-4.1-26-2.5-26-2.5l-67.2,42.4,69,1.2s3.5,14.5,4.5,20.8c1.2,7.5,6.9,54.5,6.9,54.5l34.6-2.2Z"/><path class="cls-3" d="M249.7,343.7s.1,0,.3-.2c.2-.1.5-.3.9-.6.8-.5,2.1-1.2,3.6-2.2,3.2-1.9,7.8-4.7,13.7-8.1,5.8-3.5,12.9-7.6,20.9-12.4,4-2.4,8.2-4.9,12.6-7.5,2.2-1.3,4.5-2.6,6.8-4,2.3-1.3,4.7-2.7,7.1-4h0s0,0,0,0c2.9,0,6.1-.2,9.4-.3h0s0,0,0,0c4,.2,8,.6,12.1,1.6,1,.3,2,.5,3,.9.9.5,1.9,1,2.8,1.5l1.3.9.7.5.6.6,1.2,1.1c.4.4.7.8,1.1,1.2,2.5,3,4.2,6.4,5.4,10,1.2,3.6,1.8,7.2,2.1,10.8.6,7.2,1.3,14.1,1.9,20.7,1.2,13.2,2.2,25.1,3.1,35.1.9,10,1.6,18.1,2.1,23.7.2,2.8.4,4.9.5,6.4,0,.7,0,1.3.1,1.7,0,.4,0,.6,0,.6,0,0,0-.2,0-.6,0-.4,0-.9-.2-1.7-.1-1.5-.4-3.7-.6-6.4-.5-5.6-1.3-13.7-2.2-23.7-.9-10-2-21.9-3.2-35.1-.6-6.6-1.2-13.5-1.9-20.7-.2-3.6-.9-7.2-2-10.7-1.1-3.5-2.9-6.9-5.3-9.8-.3-.4-.7-.8-1-1.2l-1.2-1.1-.6-.5-.6-.5-1.3-.9c-.9-.6-1.8-1-2.7-1.5-.9-.4-2-.7-3-.9-4-1-8.1-1.4-12-1.6h0c-3.2,0-6.4.2-9.4.3h.1c-2.4,1.3-4.8,2.7-7.1,4-2.3,1.4-4.6,2.7-6.8,4-4.4,2.6-8.7,5.1-12.7,7.4-8,4.7-15.1,8.8-20.9,12.3-5.9,3.4-10.5,6.1-13.7,8-1.6.9-2.8,1.6-3.7,2.1-.4.2-.7.4-1,.5-.2.1-.3.2-.3.2Z"/><polygon class="cls-11" points="269 263.8 300.3 272.3 271.3 288.1 267.1 276.9 269 263.8"/><g class="cls-14"><polygon points="269 263.8 300.3 272.3 271.3 288.1 267.1 276.9 269 263.8"/></g><path class="cls-11" d="M209.1,181.3s-20.5,18.2-16.5,45.7c4,27.5,7.3,73.5,10.4,78.6,3.1,5,4.6,3.8,4.6,3.8l65.4-25.1-3.8-45-22.2-43.2.2-10.1-34.2-14.1-4,9.4Z"/><path class="cls-11" d="M208.9,211.1c-3.9,15.7,6.1,29.1,20.3,36.1,15.5,7.6,36.5,16.8,42.1,19.2,9,3.8,27.7,7.6,39.6,1.7,9.9-4.9,21.4-4.2,21.4-4.2l-7.9-11.7-11.9-3.4-32.3-9.1s-28.1-29.7-36.1-37.6c-8.9-8.8-26.2-8.3-33.3,5-.5,1-1.5,2.9-1.8,4.1Z"/><path class="cls-10" d="M208.9,211.1s0-.2.1-.4c0-.3.2-.7.5-1.3.2-.5.5-1.2.9-2,.4-.8,1-1.6,1.6-2.6,1.3-1.8,3.2-4,6.1-5.7,2.8-1.7,6.5-3,10.8-3.1,4.2,0,9,1.1,13.1,4.1,2,1.5,3.8,3.5,5.7,5.4,1.9,1.9,3.9,4,5.9,6,8.1,8.3,17,17.7,26.7,28h0c13.6,3.8,28.6,8,44.2,12.4h0s0,0,0,0c2.3,3.5,4.8,7.2,7.4,10.9.2.3.4.5.5.8l.3.4h-.5c-2.6-.1-5.3,0-7.9.4-2.6.3-5.1.8-7.6,1.6-1.2.4-2.4.8-3.6,1.3-1.2.5-2.3,1-3.5,1.5-.6.3-1.2.5-1.8.7-.6.2-1.2.4-1.8.6-1.2.3-2.5.6-3.7.7-5,.8-10,.5-14.8,0-4.8-.7-9.4-1.7-13.8-3.3-2.2-.8-4.3-1.7-6.3-2.6-2.1-.9-4.1-1.8-6.1-2.7-4-1.8-7.8-3.5-11.6-5.2-7.4-3.4-14.3-6.6-20.6-9.7-3.1-1.6-5.9-3.4-8.4-5.3-1.2-1-2.4-2-3.4-3-1-1.1-2-2.1-2.8-3.2-.9-1.1-1.6-2.2-2.3-3.3-.3-.6-.6-1.1-.9-1.7-.1-.3-.3-.5-.4-.8-.1-.3-.2-.6-.4-.8-.2-.5-.5-1.1-.7-1.6-.2-.5-.4-1.1-.5-1.6-.4-1-.6-2-.8-3-.8-3.8-.5-6.9-.2-8.9.2-1,.4-1.8.5-2.3.1-.5.2-.8.2-.8,0,0,0,.3-.1.8,0,.5-.2,1.3-.4,2.3-.2,2-.5,5.1.3,8.9.2.9.4,2,.8,3,.2.5.3,1,.5,1.6.2.5.5,1,.7,1.6.1.3.2.5.4.8.1.3.3.5.4.8.3.5.6,1.1.9,1.6.7,1.1,1.4,2.2,2.3,3.2.8,1.1,1.8,2.1,2.8,3.2,1.1,1,2.2,2,3.4,3,2.5,1.9,5.2,3.7,8.4,5.2,6.2,3.1,13.1,6.3,20.6,9.6,3.7,1.7,7.6,3.4,11.6,5.2,2,.9,4,1.8,6.1,2.7,2.1.9,4.1,1.8,6.3,2.6,4.3,1.5,8.9,2.6,13.7,3.2,4.8.6,9.7.8,14.6,0,1.2-.1,2.4-.5,3.7-.7.6-.2,1.2-.4,1.8-.6.6-.2,1.2-.4,1.8-.7,1.2-.5,2.3-1,3.5-1.5,1.2-.5,2.4-.9,3.7-1.3,2.5-.7,5.1-1.3,7.7-1.6,2.6-.3,5.3-.5,7.9-.4l-.2.4c-.2-.2-.3-.5-.5-.8-2.5-3.7-5-7.5-7.4-10.9h.1c-15.6-4.3-30.6-8.5-44.2-12.4h0s0,0,0,0c-9.7-10.2-18.6-19.6-26.7-28-2-2.1-4-4.1-5.9-6.1-1.9-1.9-3.7-3.9-5.7-5.4-4.1-3-8.8-4.1-12.9-4.1-4.2,0-7.9,1.3-10.7,3-2.8,1.7-4.7,3.8-6.1,5.6-.6,1-1.2,1.8-1.6,2.6-.4.8-.7,1.4-1,2-.2.5-.4,1-.5,1.2,0,.3-.1.4-.1.4Z"/><path class="cls-21" d="M272.4,275.9s-1.7,12-1.9,13.5c-.2,1.5,1.6,6.5,1.5,9.2-.1,2.7-1.1,5.3,0,6.3,1.1.9,4,.4,4.7-1.6.7-2,.6-8,.6-8l1.4,5.5v10.1s.2,1.6,2,1.5,2.9-1.5,2.9-1.5c0,0,2.1.6,3.3-1.8,0,0,3.3,1,4.4-4.4,0,0,1.5.5,2.5-.9,1-1.4,2.9-5,2.9-5,0,0,.3-13.4-.5-16.3-.8-2.9-8.4-11.5-8.4-11.5l-12.4-2.2-3.1,7.1Z"/><path class="cls-16" d="M283.6,288.3s.2.3.4.8c.2.5.4,1.3.7,2.3.5,2,1,4.8,1,7.9,0,3.1-.5,6-1,7.9-.3,1-.5,1.8-.7,2.3-.2.5-.3.8-.4.8,0,0,.3-1.2.7-3.2.4-2,.8-4.8.9-7.9,0-3.1-.4-5.9-.8-7.9-.4-2-.8-3.2-.7-3.2Z"/><path class="cls-16" d="M289.9,288s0,.3.2.8c0,.5.2,1.3.3,2.3.2,2,.4,4.7.2,7.7-.2,3-1,5.7-1.9,7.5-.4.9-.9,1.6-1.2,2-.3.4-.5.7-.6.7,0,0,.7-1,1.4-2.8.8-1.8,1.5-4.4,1.8-7.4.2-3,0-5.7,0-7.6-.1-2-.2-3.2-.1-3.2Z"/><path class="cls-16" d="M292.6,287.7c0,0,.1,1,.3,2.5.1,1.5.4,3.7.5,6.1,0,2.4-.3,4.6-.9,6.1-.3.7-.6,1.3-.8,1.7-.2.4-.4.5-.4.5,0,0,.5-.8,1-2.3.5-1.5.8-3.6.8-5.9,0-2.4-.3-4.5-.4-6.1,0-1.6,0-2.5,0-2.5Z"/><path class="cls-10" d="M210.7,181.1s.2,0,.4.2c.3.2.7.3,1.2.6,1.1.5,2.5,1.2,4.3,2.1,3.6,1.7,8.7,4.1,14.4,6.4,4.6,1.9,8.9,3.4,12.4,4.6h-.2c1.6-2.2,2.4-4.3,2.9-5.8.3-.7.4-1.3.5-1.7.1-.4.2-.6.2-.6,0,0,0,.2,0,.6,0,.4-.2,1-.4,1.8-.5,1.5-1.3,3.7-2.8,6h0c0,.1-.1,0-.1,0-3.5-1.1-7.8-2.6-12.5-4.5-5.7-2.3-10.8-4.7-14.4-6.5-1.8-.9-3.2-1.7-4.2-2.2-.5-.3-.8-.5-1.1-.6-.3-.2-.4-.2-.4-.3Z"/><path class="cls-10" d="M319.4,262c-.1,0,.5-1.8,1.3-4,.9-2.2,1.6-3.9,1.8-3.8.1,0-.5,1.8-1.3,4-.9,2.2-1.6,3.9-1.8,3.8Z"/><path class="cls-10" d="M275.7,258.1c0,0,.1-.8.4-2.1.3-1.5.7-3.2,1.1-5.1.4-1.9.7-3.6,1-5.1.3-1.3.4-2.1.5-2.1,0,0,0,.8-.2,2.2-.2,1.3-.5,3.1-.9,5.1-.4,2-.9,3.8-1.3,5.1-.4,1.3-.7,2.1-.7,2Z"/><path class="cls-10" d="M270.2,257.2c0,0,0-.8,0-1.9.2-1.2.5-2.8,1.3-4.5.8-1.7,1.7-3.1,2.5-4,.8-.9,1.4-1.4,1.4-1.4.1,0-2,2.2-3.5,5.5-1.5,3.3-1.6,6.3-1.8,6.3Z"/><g class="cls-14"><path d="M271.6,266.4l.6,7c-10.8-4.9-22.2-10-32.9-14.8-6.1-2.8-12.4-5.6-17.6-9.9-5.2-4.3-9.3-10.3-9.9-17,18.5,13.3,39,25.4,59.8,34.8Z"/></g><polygon class="cls-20" points="163.5 452.8 156.9 452.8 155.3 281.6 165.9 281.6 163.5 452.8"/><path class="cls-10" d="M163.5,452.8s0-.3,0-.9c0-.6,0-1.5,0-2.6,0-2.3,0-5.6.1-9.9.1-8.6.3-21.1.4-36.5.4-30.9,1-73.6,1.6-121.3l.2.2c-2.7,0-5.7,0-8.6,0h-2l.2-.2c.8,82.5,1.3,151.7,1.4,171.2h0c2.3,0,3.9,0,5,0,1.1,0,1.6,0,1.6,0,0,0-.5,0-1.6,0-1.1,0-2.8,0-5.1,0h0s0,0,0,0c-.3-19.6-1-88.7-1.8-171.2v-.2s.2,0,.2,0h2c3,0,5.9,0,8.6,0h.2v.2c-.7,47.7-1.4,90.6-1.8,121.5-.2,15.4-.4,27.9-.6,36.5,0,4.3-.1,7.6-.2,9.9,0,1.1,0,2,0,2.6,0,.6,0,.9,0,.9Z"/><polygon class="cls-20" points="275.2 452.4 268.5 452.4 266.9 283.4 277.6 283.4 275.2 452.4"/><path class="cls-10" d="M275.2,452.4s0-.3,0-.9c0-.6,0-1.4,0-2.6,0-2.2,0-5.5.1-9.8.1-8.5.3-20.8.4-36.1.4-30.5,1-72.7,1.6-119.7l.2.2c-2.7,0-5.7,0-8.6,0-.7,0-1.4,0-2,0l.2-.2c.8,81.4,1.3,149.6,1.4,169h0c2.3,0,3.9,0,5,0,1.1,0,1.6,0,1.6,0,0,0-.5,0-1.6,0-1.1,0-2.8,0-5.1,0h0s0,0,0,0c-.3-19.4-1-87.6-1.8-169v-.2s.2,0,.2,0h2c3,0,5.9,0,8.6,0h.2v.2c-.7,47.1-1.4,89.4-1.8,119.9-.2,15.2-.4,27.5-.6,36,0,4.2-.1,7.5-.2,9.7,0,1.1,0,1.9,0,2.5,0,.6,0,.8,0,.8Z"/><rect class="cls-3" x="144.3" y="274.6" width="369.4" height="9.4" transform="translate(658 558.7) rotate(180)"/><polygon class="cls-20" points="486.8 452.8 493.5 452.8 495.1 284.1 484.4 284.1 486.8 452.8"/><path class="cls-10" d="M486.8,452.8s0-.3,0-.8c0-.6,0-1.4,0-2.5,0-2.2,0-5.5-.2-9.7-.1-8.5-.3-20.7-.6-35.9-.5-30.5-1.1-72.7-1.8-119.7v-.2s.2,0,.2,0c2.7,0,5.7,0,8.6,0h2.3v.2c-.8,81.3-1.5,149.4-1.8,168.7h0c0,0,0,0,0,0-2.3,0-3.9,0-5.1,0-1.1,0-1.6,0-1.6,0,0,0,.5,0,1.6,0,1.1,0,2.8,0,5,0h0c0-19.3.7-87.4,1.4-168.7l.2.2h-2c-3,0-5.9,0-8.6,0l.2-.2c.6,47,1.2,89.1,1.6,119.6.2,15.2.3,27.5.4,36,0,4.2,0,7.5.1,9.8,0,1.1,0,2,0,2.5,0,.6,0,.9,0,.9Z"/><g class="cls-14"><rect x="144.3" y="274.6" width="129.5" height="9.4"/></g><rect class="cls-3" x="160.1" y="256.3" width="74.4" height="18.8"/><path class="cls-10" d="M179.1,266.7c0,2.5-2.1,4.6-4.6,4.6s-4.6-2.1-4.6-4.6,2.1-4.6,4.6-4.6,4.6,2.1,4.6,4.6Z"/><path class="cls-20" d="M174.5,272.2c-3,0-5.5-2.5-5.5-5.5s2.5-5.5,5.5-5.5,5.5,2.5,5.5,5.5-2.5,5.5-5.5,5.5ZM174.5,263c-2,0-3.7,1.7-3.7,3.7s1.7,3.7,3.7,3.7,3.7-1.7,3.7-3.7-1.7-3.7-3.7-3.7Z"/><rect class="cls-2" x="185.6" y="263.5" width="33" height="6.4"/><rect class="cls-10" x="160.1" y="237.5" width="74.4" height="18.8" transform="translate(394.5 493.7) rotate(180)"/><path class="cls-10" d="M215.4,246.9c0-2.5,2.1-4.6,4.6-4.6s4.6,2.1,4.6,4.6-2.1,4.6-4.6,4.6-4.6-2.1-4.6-4.6Z"/><path class="cls-20" d="M220,252.4c-3,0-5.5-2.5-5.5-5.5s2.5-5.5,5.5-5.5,5.5,2.5,5.5,5.5-2.5,5.5-5.5,5.5ZM220,243.2c-2,0-3.7,1.7-3.7,3.7s1.7,3.7,3.7,3.7,3.7-1.7,3.7-3.7-1.7-3.7-3.7-3.7Z"/><rect class="cls-2" x="175.9" y="243.7" width="33" height="6.4" transform="translate(384.8 493.7) rotate(180)"/><rect class="cls-10" x="234.4" y="237.5" width="14.8" height="18.8"/><rect class="cls-10" x="234.4" y="256.3" width="14.8" height="18.8"/><g class="cls-14"><rect x="234.4" y="237.5" width="14.8" height="18.8"/></g><path class="cls-20" d="M319.7,268.1h17.7c0-.1,0-.3,0-.4l12.1-50.8c.6-2.6,2.9-4.4,5.6-4.4h65.9c3.8,0,6.5,3.6,5.5,7.2l-13.8,50.8c-.5,2-1.5,4-4,4.2h-1.6s-64.2,0-64.2,0h-28.9v-1.1c0-3.1,2.5-5.6,5.6-5.6Z"/><path class="cls-10" d="M319.7,268.1s-.2,0-.6,0c-.4,0-1,.1-1.8.5-.8.3-1.6,1-2.3,2-.3.5-.6,1.1-.8,1.8-.2.7-.1,1.5-.1,2.3h0c0,0,0,0,0,0,15.8,0,50.6,0,94.7.1h0c1.1-.1,2.2-.7,2.9-1.6.7-.9,1.1-1.9,1.4-3,.6-2.1,1.1-4.2,1.7-6.3,1.2-4.2,2.3-8.6,3.5-12.9,2.4-8.8,4.9-17.9,7.4-27.1.3-.9.5-1.9.8-2.8.2-.9.6-1.8.6-2.9,0-2-.9-4-2.6-5.1-.8-.6-1.8-.9-2.7-1-1,0-1.9,0-2.9,0-1.9,0-3.8,0-5.6,0-7.4,0-14.7,0-21.8,0-7.1,0-13.9,0-20.6,0-3.3,0-6.6,0-9.7,0-1.6,0-3.2,0-4.7,0-.8,0-1.6,0-2.4,0-.8.1-1.5.4-2.2.9-1.3.9-2.3,2.3-2.6,3.8-.3,1.4-.7,2.9-1,4.3-.7,2.8-1.3,5.6-1.9,8.2-1.3,5.3-2.4,10.4-3.6,15-2.2,9.4-4.1,17.3-5.5,23.5h.1c-5.7,0-10.2,0-13.2,0-1.5,0-2.6,0-3.4,0-.8,0-1.1,0-1.1,0,0,0,.4,0,1.1,0,.8,0,1.9,0,3.4,0,3,0,7.4,0,13.2,0h0s0,0,0,0c1.5-6.2,3.4-14.2,5.6-23.5,1.1-4.7,2.3-9.7,3.6-15,.6-2.7,1.3-5.4,2-8.2.3-1.4.7-2.8,1-4.3.3-1.4,1.2-2.7,2.4-3.5.6-.4,1.3-.7,2-.8.7-.1,1.5,0,2.3,0,1.6,0,3.1,0,4.7,0,3.2,0,6.4,0,9.7,0,6.6,0,13.5,0,20.6,0,7.1,0,14.3,0,21.8,0,1.9,0,3.7,0,5.6,0,.9,0,1.9,0,2.8,0,.9,0,1.8.4,2.5,1,1.5,1,2.4,2.9,2.4,4.7,0,.9-.4,1.8-.6,2.8-.3.9-.5,1.9-.8,2.8-2.5,9.3-5,18.3-7.4,27.1-1.2,4.4-2.4,8.7-3.5,12.9-.6,2.1-1.1,4.2-1.7,6.3-.3,1-.6,2-1.3,2.8-.6.8-1.6,1.3-2.6,1.4h0c-44,0-78.9.1-94.7.1h0c0-.7,0-1.5.1-2.2.1-.7.4-1.3.7-1.8.7-1,1.5-1.6,2.2-2,1.5-.7,2.4-.5,2.4-.6Z"/><polygon class="cls-3" points="355.5 217.5 421.7 217.5 408.5 264.5 344.2 264.5 355.5 217.5"/><path class="cls-10" d="M336.7,268.2c0,.1,15.6.2,34.8.2,19.2,0,34.8-.1,34.8-.2s-15.6-.2-34.8-.2c-19.2,0-34.8.1-34.8.2Z"/><path class="cls-10" d="M350.6,260.1s0,0,.2,0c.2,0,.4,0,.6,0,.6,0,1.4,0,2.5,0,2.2,0,5.3,0,9.1,0,7.7,0,18.3,0,30,0,3.6,0,7.2,0,10.5,0h.2s0-.2,0-.2c2.4-8.8,4.6-16.5,6.1-22,.7-2.7,1.3-4.9,1.7-6.4.2-.7.3-1.3.4-1.7,0-.4.1-.6.1-.6,0,0,0,.2-.2.6-.1.4-.3,1-.5,1.7-.4,1.5-1.1,3.7-1.9,6.4-1.6,5.5-3.7,13.2-6.2,22l.2-.2c-3.3,0-6.9,0-10.5,0-11.7,0-22.3,0-30,0-3.8,0-6.9,0-9.1,0-1,0-1.9,0-2.5,0-.3,0-.5,0-.6,0-.1,0-.2,0-.2,0Z"/><polygon class="cls-10" points="394.8 243.9 402.8 243.9 399 256.5 391 256.5 394.8 243.9"/><polygon class="cls-10" points="357.6 243.9 365.6 243.9 361.7 256.5 353.8 256.5 357.6 243.9"/><polygon class="cls-10" points="383.8 239.5 391.8 239.5 386.8 256.5 378.9 256.5 383.8 239.5"/><polygon class="cls-10" points="373.6 231.7 381.5 231.7 373.8 256.5 365.9 256.5 373.6 231.7"/><path class="cls-10" d="M615.3,124.1c-6.6-7.6-15.4-11.8-25.5-11.7-5.7,0-8,1.3-12.1,2.6-4.1,1.2-7.7,3.6-10,7.1-2.8,4.2-5.1,8.9-5.5,14-.4,5.2-.8,10.4-.2,15.5.6,5.2,2.1,10.3,5.3,14.4l13.2,1.9c7.3,0,14.6,0,21.7-1.9,7-1.9,13.8-5.9,17.4-12.2,5-8.8,2.4-22.1-4.3-29.7Z"/><path class="cls-10" d="M629.3,161.8c-.4-3-2.1-5.8-4.7-7.3-2.6-1.4-6.2-1.2-8.3,1l-2,2.5c-3.2,1.5-5.1,5.2-4.6,8.7.5,3.5,3.3,6.5,6.7,7.4,3.4.9,7.2-.2,9.7-2.7,2.5-2.5,3.6-6.2,3.1-9.7Z"/><path class="cls-3" d="M627,170.8c0,0,.8-.9.6-2.6-.2-1.7-1.5-3.8-3.2-5.8-1.8-2-3.8-3.3-5.4-4.1-1.6-.8-2.6-1-2.6-1.2,0,0,1.1,0,2.8.7,1.7.7,3.8,2,5.7,4,.9,1,1.7,2.1,2.2,3.2.6,1,.9,2.1.9,3.1,0,.9-.2,1.7-.5,2.1-.3.4-.5.6-.6.6Z"/><path class="cls-3" d="M620.8,174.9c-.2,0,.6-4-.9-8.7-1.3-4.7-4.2-7.6-4-7.7,0,0,.8.6,1.8,1.9,1,1.3,2.1,3.3,2.8,5.7.7,2.4.8,4.7.7,6.3-.1,1.6-.4,2.6-.5,2.6Z"/><path class="cls-21" d="M608.4,128.9c-.2-2.5-2.2-4.5-4.8-4.6l-17.8-6.4-4.6.7c-10.3.4-17.1,12-16.9,20.3.2,9.3.9,20.6,2.5,27.4,3.4,13.7,14.2,14.5,14.2,14.5,0,0,.3,8.6.3,8.6v24.1c-.1,0,29.4-25.9,29.4-25.9l-2.4-58.7Z"/><path class="cls-10" d="M568.9,148.9c0,.9.9,1.7,1.9,1.6,1,0,1.7-.8,1.7-1.8,0-.9-.9-1.7-1.9-1.6-1,0-1.7.8-1.7,1.8Z"/><path class="cls-10" d="M568,144c.2.2,1.5-.9,3.4-1.1,1.9-.2,3.4.7,3.6.4,0-.1-.2-.5-.8-.9-.6-.4-1.7-.7-2.9-.6-1.2.1-2.2.6-2.7,1.1-.5.5-.7.9-.6,1Z"/><path class="cls-10" d="M580.5,158.1c0-.1-1.2-.2-3.2-.3-.5,0-1,0-1.1-.4-.1-.3,0-.9.2-1.5.4-1.2.7-2.5,1.1-3.8,1.5-5.5,2.6-9.9,2.4-10-.2,0-1.7,4.3-3.2,9.8-.4,1.3-.7,2.6-1.1,3.9-.1.6-.4,1.2,0,1.9.2.4.5.6.9.6.3,0,.6,0,.8,0,1.9,0,3.1-.2,3.1-.3Z"/><path class="cls-16" d="M581.2,180.8s9.4-.2,18.1-6.6c0,0-4,10.3-18,10.2v-3.7Z"/><path class="cls-10" d="M568.2,136.7c.4.4,1.8,0,3.5,0,1.7,0,3.2.3,3.5-.1.1-.2,0-.7-.7-1.1-.6-.4-1.7-.8-2.9-.7-1.2,0-2.2.4-2.8.9-.6.4-.8.9-.7,1.1Z"/><path class="cls-10" d="M590.4,148c0,.9-.6,1.8-1.6,1.9-1,.1-1.8-.6-1.9-1.5,0-.9.6-1.8,1.6-1.9,1-.1,1.8.6,1.9,1.5Z"/><path class="cls-10" d="M594.2,142.4c-.2.2-1.6-.7-3.5-.6-1.9,0-3.3,1.1-3.5.9-.1,0,0-.5.7-1,.6-.5,1.6-1,2.8-1,1.2,0,2.2.3,2.8.8.6.4.8.8.7.9Z"/><path class="cls-10" d="M593.3,136c-.4.5-1.9,0-3.6.1-1.8,0-3.3.5-3.6,0-.2-.2,0-.7.7-1.1.6-.4,1.7-.8,2.9-.9,1.2,0,2.3.3,2.9.7.7.4.9.9.7,1.1Z"/><path class="cls-21" d="M606.8,152.3c0-1,.9-3.6,1.9-3.8,2.7-.7,7.6-.9,8.2,6,.9,9.4-8.8,8.4-8.8,8.1,0-.2-1-6.8-1.3-10.3Z"/><path class="cls-1" d="M610.4,158.9s.2,0,.5.2c.3,0,.8.1,1.2,0,1-.5,1.7-2.1,1.5-3.8,0-.9-.3-1.7-.7-2.3-.4-.7-.8-1.1-1.4-1.1-.5,0-.8.3-.9.5-.1.3,0,.5,0,.5,0,0-.2-.1-.2-.5,0-.2.1-.4.3-.6.2-.2.5-.3.9-.3.7,0,1.4.6,1.9,1.3.4.7.8,1.6.8,2.6.1,1.9-.7,3.8-2,4.3-.6.2-1.2,0-1.5-.1-.3-.2-.4-.4-.4-.4Z"/><path class="cls-10" d="M609.4,148.2l-2.6,2.8c-10.7-9.6-31.7-33.8-30.6-32.4,0,0,7-3.1,14.8-2.1,7.8,1.1,22.5,4.5,22.6,13.6,0,9.1-4.1,18-4.1,18Z"/><path class="cls-3" d="M622.7,146s0-.2-.2-.5c-.1-.3-.3-.9-.7-1.5-.7-1.2-2-2.9-4.1-4.3-2.1-1.5-4.9-2.7-8.1-3.6-3.2-.9-6.8-1.6-10.3-3-3.6-1.3-6.8-3.1-9.5-4.9-2.7-1.9-5-3.8-6.8-5.6-1.8-1.8-3.1-3.3-4-4.4-.4-.5-.7-.9-1-1.3-.2-.3-.4-.4-.4-.4,0,0,0,.2.3.5.2.3.5.8.9,1.3.8,1.1,2.1,2.7,3.9,4.5,1.8,1.8,4,3.8,6.8,5.7,2.8,1.9,6,3.7,9.6,5,3.6,1.4,7.2,2.1,10.4,3,3.2.9,6,2,8,3.4,2.1,1.4,3.4,3,4.1,4.1.7,1.2,1,1.9,1,1.9Z"/><path class="cls-3" d="M620,147.5s0-.8-.4-2.1c-.5-1.3-1.7-3-3.7-4.3-2-1.4-4.9-2.2-8-2.8-3.1-.6-6.5-1.4-9.9-2.8-3.4-1.4-6.4-3.2-8.9-5.1-2.5-1.9-4.6-3.9-6.2-5.7-1.6-1.8-2.7-3.4-3.5-4.5-.3-.5-.6-1-.8-1.3-.2-.3-.3-.4-.3-.4,0,0,0,.2.2.5.2.4.5.8.8,1.4.7,1.1,1.8,2.8,3.4,4.6,1.6,1.8,3.6,3.9,6.2,5.8,2.5,2,5.6,3.8,9,5.2,3.4,1.5,6.9,2.2,10,2.8,3.1.6,5.9,1.4,7.9,2.7,2,1.3,3.2,2.9,3.7,4.1.5,1.2.5,2,.6,2Z"/><path class="cls-1" d="M586,159.6c.3-.2.5-.3.8-.3.3,0,.5.2.7.4,1,.9,1.3,2.4.8,3.6-.5,1.2-1.7,2.1-3.1,2.1-1.3,0-2.9-.7-3.7-3.1,1.4-.8,3-1.9,4.4-2.7Z"/><path class="cls-10" d="M585.3,165.4c0,0,.9,0,1.9-.8.5-.4,1-1,1.1-1.8.2-.8,0-1.8-.6-2.5-.3-.4-.7-.7-1-.7-.4,0-.8.4-1.1.6-.7.4-1.4.8-2,1.2-1.2.7-1.9,1-1.9,1,0,0,.6-.5,1.7-1.3.6-.4,1.3-.8,2-1.3.4-.2.7-.5,1.3-.7.3,0,.6,0,.8.3.2.2.4.4.6.6.7.9.9,2,.7,2.9-.2.9-.8,1.6-1.3,2-1.2.8-2.1.6-2.1.6Z"/><path class="cls-3" d="M534.6,412.4l2.4,26.7s-26.2,10.8-26.2,15.8l51.8-2.2-2-41.7-25.9,1.4Z"/><path class="cls-20" d="M552.6,436c1,.2,1.8,1.3,1.6,2.4-.2,1-1.3,1.8-2.3,1.6-1-.2-2-1.5-1.7-2.5.3-1,1.7-1.9,2.6-1.4"/><path class="cls-10" d="M562.5,452.6l-.2-3.3-50.2,3.1s-1.6,1.1-1.7,2.7l52-2.5Z"/><path class="cls-10" d="M536.6,439.2c0,.3,1.3.3,2.6,1.1,1.3.7,2,1.8,2.3,1.7.2,0-.2-1.6-1.8-2.5-1.6-.9-3.1-.5-3-.3Z"/><path class="cls-10" d="M531.2,441.8c0,.3,1.1.6,2,1.7,1,1,1.2,2.2,1.5,2.1.2,0,.3-1.5-.8-2.7-1.2-1.3-2.7-1.3-2.7-1.1Z"/><path class="cls-10" d="M528.4,448.5c.2,0,.5-1.3-.2-2.6-.7-1.4-2-1.9-2-1.6-.1.2.7.9,1.3,2.1.6,1.1.7,2.2,1,2.2Z"/><path class="cls-10" d="M536.7,433c.1.2,1.3-.2,2.7-.2,1.4,0,2.6.4,2.7.2.1-.2-1-1.1-2.7-1.1-1.7,0-2.9.9-2.7,1.1Z"/><path class="cls-10" d="M535.5,427.3c0,.1,1,.2,2.6-.2.8-.2,1.7-.5,2.7-1,.5-.2,1-.5,1.5-.9.2-.2.5-.3.8-.7.3-.3.4-1,0-1.4-.3-.4-.8-.5-1.1-.5-.4,0-.7.1-1,.2-.6.2-1.1.4-1.6.6-1,.5-1.8,1.1-2.3,1.7-1.2,1.2-1.5,2.2-1.4,2.2.1,0,.7-.8,1.9-1.7.6-.5,1.4-1,2.3-1.4.5-.2,1-.4,1.5-.5.5-.2,1-.2,1.2,0,0,0,0,.1,0,.3-.1.2-.3.3-.6.5-.4.3-.9.6-1.3.9-.9.5-1.7.9-2.5,1.1-1.5.5-2.5.6-2.4.8Z"/><path class="cls-3" d="M480.2,359.1l-14.3,22.6s-27.4-7.3-30.4-3.4l42.4,29.7,23.8-34.3-21.4-14.6Z"/><path class="cls-20" d="M480.1,388.8c.7.8.6,2.1-.2,2.8-.8.7-2.1.7-2.8-.1-.7-.8-.7-2.4.2-3,.8-.6,2.4-.5,2.9.5"/><path class="cls-10" d="M477.9,408l1.9-2.7-41.8-28s-1.9,0-2.9,1.1l42.8,29.6Z"/><path class="cls-10" d="M465.4,381.6c-.1.2.9,1,1.4,2.4.6,1.4.5,2.7.8,2.7.2,0,.8-1.4,0-3.1-.7-1.7-2.2-2.3-2.2-2.1Z"/><path class="cls-10" d="M459.6,380.4c-.2.2.5,1.2.6,2.5.1,1.4-.3,2.5-.1,2.6.2.2,1.2-1,1-2.7-.1-1.7-1.3-2.7-1.5-2.5Z"/><path class="cls-10" d="M453.3,384c.2.2,1.2-.7,1.4-2.2.3-1.5-.4-2.7-.6-2.5-.2,0,0,1.1-.2,2.4-.2,1.3-.7,2.2-.5,2.3Z"/><path class="cls-10" d="M469.2,376.8c0,.3,1.1.6,2.3,1.5,1.2.9,1.8,1.9,2,1.8.2,0-.1-1.5-1.5-2.5-1.3-1-2.8-1.1-2.8-.8Z"/><path class="cls-10" d="M471.7,371.5c0,0,.7.8,2.2,1.5.7.3,1.7.7,2.7.9.5,0,1.1.2,1.7.2.3,0,.6,0,1,0,.4,0,.9-.5.9-1.1,0-.5-.3-.9-.6-1.1-.3-.2-.6-.3-.9-.4-.6-.2-1.1-.4-1.7-.5-1.1-.2-2.1-.2-2.9,0-1.6.2-2.5.8-2.5.9,0,.1,1-.2,2.5-.3.8,0,1.7,0,2.7.2.5.1,1,.3,1.5.5.5.2.9.5.9.7,0,.1,0,.1-.2.2-.2,0-.5,0-.7,0-.6,0-1.1,0-1.6-.1-1-.1-1.9-.4-2.6-.6-1.5-.5-2.3-1-2.4-.9Z"/><path class="cls-10" d="M610.5,285.9c-1,0,3.8,13.4-31.7,18.2-35.5,4.7-48.9,9.9-55.7,18.4-6.8,8.5,10.8,104.6,10.8,104.6l28.5-1s-1.9-47.8-2.5-54.6c-.7-6.8-5.3-24.6-5.3-24.6h0l75.2.8c.4,0,.9,0,1.3,0,16.8-.5,29.8-22.1,28.5-38.8l-1.7-9.1-47.3-13.9Z"/><path class="cls-10" d="M610,292.4s-34.9-9.8-53.5-11.5c-18.6-1.7-29.4,1.4-32.6,4.8-7.4,8-55.9,86.7-55.9,86.7l25.9,17.8s42.6-60.2,54.5-76.1l4.1-4.8,58-8-.5-8.8Z"/><path class="cls-3" d="M605.6,298.6s0,0-.3,0c-.2,0-.4.1-.8.2-.7.1-1.7.4-2.9.6-2.6.5-6.2,1.3-10.8,2.2-9.1,1.8-21.7,4.3-35.5,7.1-1,.2-2,.4-2.9.6h.2c-5.3,12.4-12.8,22.1-18.8,28.4-3,3.1-5.7,5.5-7.6,7-.9.7-1.7,1.3-2.2,1.7-.2.2-.4.3-.6.4-.1,0-.2.1-.2.1,0,0,0,0,.2-.2.1-.1.3-.3.6-.5.5-.4,1.2-1,2.2-1.8,1.9-1.5,4.5-3.9,7.5-7,3-3.2,6.3-7.2,9.5-12,3.2-4.8,6.5-10.3,9-16.5h0c0-.1.1-.1.1-.1.9-.2,1.9-.4,2.9-.6,13.9-2.7,26.4-5.2,35.6-7,4.5-.9,8.2-1.6,10.8-2.1,1.3-.2,2.2-.4,2.9-.5.3,0,.6,0,.8-.1.2,0,.3,0,.3,0Z"/><path class="cls-21" d="M530.8,204.4s0-7.2.6-9.6c.6-2.5-.2-5.1-2.9-4.9-2.5.2-2.8,4.2-3.2,6.6-.4,2.4-.8,4-3.9,4.6-3.1.6-22.4-1.6-24.3-.6-1.9,1-2.9,3.4-.6,3.9,2.3.5,14.5,1.7,14.5,1.7,0,0,1.4-.2.7,1.1s-16.9,3.9-18.3,5c-1.4,1.1-.9,3.3,1.3,3.6,2.1.2,16.7-4,17.4-3.5s.8,1,0,1.7-14,7.5-13.7,8.6c.2,1.1,1.5,2.4,3.1,1.5,1.6-.9,11.7-6.5,13.1-6.2,1.4.3,1.7,1.2,1.4,2.3-.4,1.1-5.2,7.8-4.9,8.4.3.6.7,2.2,2.1,1.3,1.4-1,10.3-9.2,12.1-10.1,1.7-.9,5.9,0,5.9,0l3.4-13.8-3.8-1.6Z"/><path class="cls-1" d="M530.8,204.4s0,0,.3,0c.2,0,.4.2.7.3.7.3,1.6.6,2.8,1.1h0s0,0,0,0c-.7,3-1.9,7.7-3.4,13.8h0c0,.1-.1,0-.1,0-1.2-.2-2.4-.3-3.7-.3-.6,0-1.3,0-1.9.3-.6.2-1.1.7-1.7,1.1-2.2,1.7-4.4,3.7-6.7,5.8-1.2,1-2.4,2.1-3.7,3.1-.3.3-.7.5-1.2.5-.5,0-.9-.5-1.1-.9-.1-.2-.2-.4-.3-.6,0-.1-.1-.1-.1-.4,0-.2,0-.3,0-.4.2-.4.4-.8.6-1.2.9-1.5,1.9-3,2.8-4.5.5-.8,1-1.5,1.4-2.3.2-.4.2-.8.1-1.2-.1-.4-.5-.6-.9-.8-.2,0-.4-.1-.6-.1-.2,0-.4,0-.6.1-.4.1-.9.3-1.3.5-.9.4-1.7.8-2.6,1.2-1.7.9-3.5,1.8-5.2,2.7-.9.5-1.8,1-2.6,1.5-.4.2-1,.5-1.5.5-.6,0-1.1-.3-1.5-.7-.2-.2-.4-.4-.5-.7,0-.1-.1-.3-.2-.4v-.2c0-.1,0-.3,0-.3.4-.5.8-.8,1.2-1.1.9-.6,1.8-1.2,2.7-1.7,1.8-1.1,3.7-2.1,5.6-3.2.9-.5,1.9-1.1,2.8-1.6.5-.3,1-.5,1.4-.8.4-.3.7-.7.5-1.1,0,0-.1-.2-.2-.3,0,0-.1,0-.1-.1,0,0,0,0,0,0h0c-.2,0-.5,0-.8,0-.5,0-1.1.2-1.6.3-1.1.3-2.2.5-3.3.8-2.2.5-4.4,1.1-6.6,1.6-1.3.3-2.6.6-4,.8-.3,0-.7,0-1.1,0-.4,0-.7-.2-1-.3-.6-.4-1.1-1.1-1.1-1.8,0-.7.3-1.5.9-1.9.7-.4,1.3-.5,1.9-.7,1.3-.3,2.5-.6,3.8-.9,2.5-.6,5-1.1,7.4-1.6,1.2-.3,2.4-.6,3.6-1,.3,0,.6-.2.8-.3.3,0,.6-.3.6-.4.1-.2.2-.5.1-.7,0-.1-.3-.2-.6-.1h0s0,0,0,0c-2.7-.3-5.4-.6-8-.8-1.3-.2-2.6-.3-3.9-.5-.6,0-1.3-.2-1.9-.3-.6-.1-1.3-.2-1.9-.7-.3-.3-.4-.7-.4-1,0-.4.1-.7.3-1,.3-.6.8-1.1,1.3-1.4.1,0,.3-.2.4-.3.2,0,.3-.1.5-.2.3,0,.6,0,.9-.1.6,0,1.2,0,1.8,0,2.4,0,4.7.2,7,.3,4.5.3,8.8.7,12.8.7,1.9,0,4-.7,4.6-2.4.6-1.7.6-3.5,1-5.1.2-.8.4-1.6.8-2.3.2-.4.5-.7.8-.9.3-.2.7-.4,1.1-.4.8-.1,1.6,0,2.1.6.6.5.9,1.2,1,1.8.1.7.1,1.3,0,1.9,0,.6-.2,1.2-.3,1.7-.2,1.1-.2,2.1-.3,3-.1,1.8-.2,3.2-.2,4.2,0,.5,0,.8,0,1.1,0,.2,0,.4,0,.4,0,0,0-.1,0-.4,0-.3,0-.6,0-1.1,0-.9,0-2.4.1-4.2,0-.9.1-1.9.3-3,0-.6.2-1.1.3-1.7,0-.6,0-1.2,0-1.8-.1-.6-.4-1.2-.9-1.7-.5-.4-1.2-.6-2-.5-.7,0-1.3.6-1.7,1.3-.4.7-.6,1.4-.8,2.3-.4,1.6-.4,3.4-1,5.2-.3.9-1.1,1.7-2,2.1-.5.2-.9.3-1.4.4-.5.1-1,.1-1.5.1-4,0-8.3-.4-12.8-.6-2.3-.1-4.6-.3-7-.3-.6,0-1.2,0-1.8,0-.3,0-.6,0-.9.1-.1,0-.3,0-.4.1-.1,0-.3.1-.4.2-.5.3-.9.8-1.2,1.3-.3.5-.4,1.1,0,1.5.4.4,1,.5,1.6.6.6,0,1.3.2,1.9.3,1.3.1,2.6.3,3.9.4,2.6.3,5.3.5,8,.8h0c.2,0,.3,0,.5,0,.2,0,.4.1.5.3.2.4,0,.8,0,1.1-.3.4-.6.5-.9.6-.3.1-.6.2-.9.3-1.2.4-2.4.7-3.6,1-2.4.6-4.9,1.1-7.4,1.6-1.3.3-2.5.6-3.8.9-.6.2-1.3.3-1.8.6-.5.3-.8.9-.7,1.5,0,.6.4,1.1.9,1.4.3.1.6.2.9.3.3,0,.6,0,.9,0,1.3-.2,2.6-.5,3.9-.8,2.2-.5,4.4-1,6.6-1.6,1.1-.3,2.2-.5,3.3-.8.5-.1,1.1-.2,1.6-.3.3,0,.5,0,.9,0h.1c0,0,.1,0,.2,0,0,0,.1,0,.2.1.1,0,.2.2.3.4.2.3.2.7,0,1-.2.3-.4.5-.6.7-.5.3-1,.6-1.4.9-1,.5-1.9,1.1-2.8,1.6-1.9,1.1-3.7,2.1-5.5,3.2-.9.5-1.8,1.1-2.6,1.7-.4.3-.9.6-1.1,1,0,0,0,0,0,0v.2c0,.1.1.2.2.3.1.2.2.4.4.6.3.3.8.5,1.2.6.5,0,.9-.2,1.3-.4.9-.5,1.8-1,2.7-1.4,1.8-.9,3.5-1.9,5.3-2.7.9-.4,1.7-.8,2.6-1.2.4-.2.9-.4,1.4-.5.2,0,.5-.1.7-.2.3,0,.5,0,.8.1.5.2,1,.5,1.1,1,.2.5,0,1-.1,1.5-.4.9-.9,1.6-1.4,2.4-1,1.5-2,3-2.8,4.5-.2.4-.4.7-.6,1.1,0,0,0,.2,0,.2,0,0,0,0,0,0,0,0,0,0,0,0v.2c.2.2.2.4.3.6.2.4.4.7.8.7.3,0,.7-.2,1-.4,1.3-1,2.5-2.1,3.7-3.1,2.4-2.1,4.6-4,6.7-5.8.6-.4,1.1-.9,1.7-1.1.7-.2,1.3-.3,2-.3,1.3,0,2.5.1,3.7.3h-.2c1.5-6,2.7-10.6,3.5-13.6h0c-1.2-.5-2.2-.9-2.8-1.1-.3-.1-.5-.2-.7-.3-.2,0-.2-.1-.2-.1Z"/><path class="cls-21" d="M527.9,218.1c.4,0,7.8-7.3,7.8-7.3l22.1,16.1,9.4,11.1-11.1,12s-5.2-5.7-9.8-10.2c-6.5-6.3-18.9-22.3-18.4-21.8Z"/><path class="cls-19" d="M583.7,262.7s-11.3,4.8-20.6-4.1c-9.8-9.5-15.3-14.7-15.3-14.7l12.2-12.5,29,20.9-5.3,10.4Z"/><path class="cls-19" d="M614.6,182.9s18,4.1,22.4,26.2c4.4,22.2,10.8,60.9,10.8,60.9l2.9,6.6c4.3,9.7,7.2,20,8.5,30.6l.2,1.5-75.1-22.9,3.7-6.9-14.4-29.4c-3.2-6.9-3.9-14.3-1.8-23.8l8.3-25.2,1.1-8.2,29.5-15.4,3.8,5.9Z"/><path class="cls-21" d="M578.3,236.3s-30.1-29.5-35-32.3l-7.6,3.9,1.2,7.8,28.9,36.9s8.3-3.4,12.5-16.3Z"/><path class="cls-19" d="M630,219.6s-25.2,48.5-39.1,48.5c-19.1,0-26-15.4-26-15.4l11.5-19.3,5.7,3.8s18.6-36.8,22.6-42.1c4-5.2,16.5-7.5,22.2-2.3,5.5,5,9.5,16.8,3.1,26.8Z"/><path class="cls-10" d="M630,219.6s0-.2.2-.5c.2-.3.4-.7.7-1.3.3-.6.6-1.3,1-2.2.1-.5.3-1,.5-1.5.2-.5.3-1.1.4-1.7.5-2.5.6-5.6-.3-9.1-.4-1.7-1-3.6-2-5.4-1-1.8-2.2-3.6-3.9-5.1-1.7-1.5-4-2.3-6.4-2.7-2.4-.3-5.1-.1-7.6.5-2.6.7-5.2,1.8-7.2,3.8-.2.3-.5.5-.7.8l-.6.9c-.4.6-.8,1.2-1.2,1.9-.8,1.3-1.5,2.6-2.2,3.9-5.9,10.6-12,22.6-18.5,35.3v.2c-.1,0-.3-.1-.3-.1-1.8-1.2-3.7-2.5-5.7-3.8h.3c-.8,1.3-1.7,2.7-2.5,4.2-3.1,5.1-6.1,10.2-9,15v-.2c3.1,6,8.3,10.5,14,13,2.9,1.3,5.9,1.8,8.9,2.2,1.5,0,3,.3,4.4,0l1-.3c.3-.1.7-.3,1-.4.7-.3,1.3-.7,1.9-1,2.4-1.6,4.4-3.5,6.3-5.4,1.9-2,3.5-4,5.1-5.9,3.1-4,5.8-7.8,8.2-11.4,4.7-7.1,8.2-13.1,10.5-17.2,1.1-2,2-3.6,2.7-4.7.3-.5.5-.9.7-1.2.2-.3.2-.4.2-.4,0,0,0,.1-.2.4-.2.3-.4.7-.6,1.2-.6,1.1-1.4,2.7-2.6,4.8-2.3,4.1-5.7,10.1-10.4,17.3-2.3,3.6-5,7.5-8.1,11.4-1.6,2-3.3,4-5.1,6-1.9,2-3.9,3.9-6.4,5.5-.6.4-1.2.8-1.9,1.1-.3.1-.7.3-1,.4l-1.1.3c-1.5.4-3,.1-4.5,0-3-.3-6.1-.9-9-2.2-5.9-2.5-11.1-7.1-14.3-13.2h0c0-.1,0-.2,0-.2,2.9-4.8,5.9-9.9,9-15,.9-1.5,1.7-2.9,2.5-4.3v-.2c.1,0,.3.1.3.1,1.9,1.3,3.9,2.6,5.6,3.8h-.3c6.5-12.6,12.6-24.6,18.5-35.2.7-1.3,1.5-2.6,2.3-3.9.4-.6.8-1.3,1.2-1.9l.6-.9c.2-.3.5-.6.7-.8,2.1-2.1,4.8-3.2,7.4-3.9,2.6-.7,5.3-.9,7.8-.5,2.5.3,4.8,1.2,6.6,2.8,1.7,1.5,2.9,3.4,3.9,5.2,1,1.8,1.6,3.7,2,5.4.8,3.5.7,6.7.2,9.2-.2.6-.2,1.2-.4,1.7-.2.5-.3,1-.5,1.5-.4.9-.7,1.6-1,2.2-.3.6-.6,1-.8,1.3-.2.3-.3.4-.3.4Z"/><path class="cls-21" d="M543.3,204s-7.3-5.8-21.4-6.9c-14.1-1-21.5-.6-21.5,1s.1,1.5,1.3,2.1c1.2.6,11.5.4,12.4,1.9.9,1.5-.1,1.2-.1,1.2,0,0-16.9,2.5-17,4.3-.3,3.7,2.2,2.8,2.2,2.8,0,0,13.9-3.1,14.8-2.4.9.7,1.6.1.9.7-.7.6-16.1,5.7-15.9,6.7.3,1,1.2,2.7,2.8,2.1s14.1-5.5,14.8-4.8c.7.7,1,1.8,0,2.4-1,.6-11.1,9.4-10.5,9.8s1.2,1.8,2.8.8c1.6-1,11.5-8.7,13.8-9.3,2.2-.6,14.1-1,14.1-1"/><path class="cls-1" d="M536.9,215.7s-.2,0-.5,0c-.3,0-.8,0-1.4,0-1.3,0-3.1.2-5.5.3-1.2,0-2.5.2-4,.3-.7,0-1.5.2-2.2.3-.8.1-1.5.6-2.2,1-2.9,1.8-6,4.1-9.4,6.6-.9.6-1.7,1.3-2.7,1.9-.3.1-.6.2-.9.3-.3,0-.7,0-.9-.3-.3-.2-.5-.4-.7-.6,0-.1-.2-.2-.3-.3h0c0,0,0-.1,0-.2,0-.1,0-.2,0-.2,0,0,0-.2.1-.2.7-1,1.6-1.8,2.5-2.6.9-.8,1.8-1.7,2.7-2.5.9-.8,1.9-1.7,2.9-2.5.5-.4,1-.8,1.5-1.3.3-.2.5-.4.8-.6.3-.2.5-.4.5-.6,0-.3,0-.6-.1-.8,0-.1-.2-.3-.3-.4,0,0-.1-.1-.2-.2,0,0,0,0,0,0,0,0,0,0,0,0-.6,0-1.3.2-1.9.3-1.3.4-2.6.8-4,1.3-2.7.9-5.4,2-8.1,3-.3.1-.7.3-1.1.3-.4,0-.9-.1-1.2-.4-.7-.5-1-1.2-1.3-2h0c0,0,0-.1,0-.1,0,0,0-.1,0-.2,0,0,0-.1.1-.2,0,0,.2-.2.2-.2.2-.1.3-.2.5-.3.3-.2.7-.4,1-.5.7-.3,1.4-.6,2.1-.9,2.9-1.2,5.8-2.2,8.8-3.3.7-.3,1.5-.6,2.2-.9.4-.2.8-.3,1-.5h0c0,0,0,0,0,0,0,.1,0,.2,0,.3,0,0,0,0,0,0,0,0,0,0,0,0,0,0-.2,0-.3,0-.2,0-.4-.1-.6-.2-.1,0-.2-.1-.3-.2,0,0,0,0,0,0h-.1c-.2,0-.4,0-.6,0-.4,0-.8,0-1.2,0-.8,0-1.6.2-2.4.3-3.5.6-6.9,1.3-10.3,2.1h0c-.5.2-1.1.1-1.6-.1-.5-.3-.7-.8-.9-1.3-.1-.5-.1-1,0-1.5,0,0,0-.4.2-.5,0-.1.2-.2.3-.3.2-.2.4-.3.7-.4,1.8-.8,3.6-1.2,5.5-1.6,3.6-.8,7.2-1.4,10.7-2h0s0,0,0,0c0,0,.2,0,.2,0,0,0,0,0,0-.2,0-.2-.2-.5-.3-.7-.2-.3-.8-.5-1.3-.6-1.1-.2-2.2-.4-3.2-.5-2.2-.2-4.3-.3-6.4-.5-.5,0-1.1,0-1.6-.4-.2-.1-.5-.2-.7-.4-.3-.1-.4-.5-.5-.8,0-.3,0-.5,0-.8,0-.1,0-.2,0-.4,0-.2.1-.3.2-.4.4-.4,1-.5,1.4-.7,2-.5,3.9-.5,5.8-.5,3.8,0,7.3.1,10.6.3,3.3.2,6.3.5,9,.9,5.4,1,9.5,2.6,12.2,3.9,1.3.7,2.3,1.3,3,1.7.3.2.6.4.7.5.2.1.2.2.2.2,0,0,0,0-.3-.2-.2-.1-.4-.3-.7-.5-.7-.4-1.6-1-3-1.6-2.7-1.3-6.7-2.9-12.1-3.8-2.7-.5-5.7-.7-9-.9-3.3-.2-6.8-.3-10.5-.3-1.9,0-3.8.1-5.7.6-.5.1-.9.3-1.3.6-.1.1-.1.3-.1.6,0,.2,0,.5,0,.7,0,.2.1.4.3.5.2.1.4.2.7.3.4.2.9.3,1.4.3,2.1.2,4.2.3,6.4.5,1.1.1,2.2.2,3.3.5.3,0,.6.1.8.3.3.1.6.2.8.6.1.3.3.5.4.8,0,.2,0,.4-.2.6-.2.1-.4.1-.6,0h0c-3.4.5-7,1.2-10.6,2-1.8.4-3.7.8-5.4,1.6-.4.2-.9.4-.9.7,0,.5,0,.9,0,1.4.1.4.3.8.6,1,.3.2.8.2,1.2,0h0s0,0,0,0c3.4-.7,6.8-1.5,10.3-2.1.8-.1,1.6-.3,2.4-.3.4,0,.8,0,1.2,0,.2,0,.4,0,.6,0h.2c0,0,.2.1.2.1,0,0,.1.1.2.2.2,0,.3.2.5.2,0,0,.2,0,.3,0h0s0,0,.1,0c0,0,.1.2,0,.3,0,0,0,0,0,0,0,0,0,0-.1.1-.4.3-.8.4-1.1.6-.8.3-1.5.6-2.2.9-3,1.1-5.9,2.2-8.8,3.3-.7.3-1.4.6-2.1.9-.3.2-.7.3-1,.5-.2,0-.3.2-.5.3-.1,0-.3.3-.2.2.2.7.6,1.4,1.1,1.7.3.2.6.3.9.3.3,0,.6-.2,1-.3,2.8-1.1,5.5-2.1,8.2-3,1.3-.5,2.7-.9,4-1.3.7-.2,1.3-.4,2.1-.4,0,0,.3.1.3.2,0,0,.1.1.2.2.1.1.2.3.3.5.2.3.3.7.2,1.1-.1.4-.4.7-.7.9-.3.2-.5.4-.8.6-.5.4-1,.8-1.5,1.2-1,.8-2,1.7-2.9,2.5-.9.8-1.8,1.7-2.7,2.5-.9.8-1.8,1.7-2.4,2.6,0,0,0,.1,0,.2,0,0,0,0,0,0,0,0,0,0,0,0,0,0,0,0,0,0h0c.1.1.2.3.3.4.2.2.4.4.6.6.4.3,1,.2,1.4,0,.9-.6,1.8-1.3,2.7-1.9,3.5-2.5,6.6-4.8,9.5-6.6.7-.4,1.5-.9,2.3-1,.8-.1,1.5-.2,2.3-.3,1.5-.1,2.8-.2,4-.3,2.4-.1,4.3-.2,5.5-.2.6,0,1.1,0,1.4,0,.3,0,.5,0,.5,0Z"/><path class="cls-10" d="M583.2,251.9c-.1,0-.4-3.3-.6-7.3-.2-4-.2-7.3-.1-7.3.1,0,.4,3.3.6,7.3.2,4,.2,7.3.1,7.3Z"/><path class="cls-10" d="M582,195.2s0-.2,0-.7c0-.5.2-1.2.4-1.9v-.2s.2.2.2.2c1.2,1.4,2.8,3.4,4.7,5.8.3.3.6.5.9.6.3,0,.7,0,1.1-.2.7-.4,1.5-.9,2.2-1.4,1.5-1,3.2-2,4.8-3,4.9-3.1,9.4-5.8,12.6-7.8,1.6-.9,2.9-1.7,3.8-2.3.4-.2.8-.4,1.1-.6.2-.1.4-.2.4-.2,0,0-.1.1-.3.3-.3.2-.6.4-1,.7-1,.6-2.2,1.4-3.8,2.4-3.2,2-7.6,4.8-12.5,7.9-1.7,1-3.3,2.1-4.8,3-.8.5-1.5,1-2.3,1.4-.4.2-.9.3-1.4.2-.5-.1-.8-.4-1.1-.7-2-2.5-3.6-4.5-4.6-5.9h.2c-.2.7-.3,1.4-.5,1.9-.1.4-.2.7-.2.7Z"/><line class="cls-1" x1="565.7" y1="252.6" x2="536.9" y2="215.7"/><path class="cls-1" d="M536.9,215.7c.1,0,6.7,8.1,14.6,18.3,8,10.2,14.4,18.5,14.3,18.6-.1,0-6.7-8.1-14.6-18.3-8-10.2-14.4-18.5-14.3-18.6Z"/><path class="cls-10" d="M590.3,278c0-.1,7.9.8,17.6,2.1,9.7,1.3,17.6,2.4,17.6,2.6,0,.1-7.9-.8-17.6-2.1-9.7-1.3-17.6-2.4-17.6-2.6Z"/><path class="cls-10" d="M600.5,276c0-.1,4.5-1.4,10.1-3,5.6-1.5,10.1-2.6,10.2-2.5,0,.1-4.5,1.4-10.1,3-5.6,1.5-10.1,2.6-10.2,2.5Z"/><path class="cls-20" d="M653.8,353.1h5.5c2.9,0,5.3-2.2,5.7-5,1.1-9,3.2-34,3.3-34.3l-3.9-.3c0,.3-2.2,25.2-3.3,34.1-.1.9-.9,1.6-1.8,1.6h-5.5v3.9Z"/><path class="cls-10" d="M653.8,353.1s0,0,0-.2c0-.2,0-.4,0-.7,0-.7,0-1.7,0-3h0c0,0,0,0,0,0,.9,0,1.9,0,3.1,0,.6,0,1.2,0,1.8,0,.3,0,.7,0,1,0,.3,0,.6-.2.8-.5.2-.2.4-.5.4-.9,0-.3,0-.7.1-1.1,0-.8.1-1.5.2-2.4.1-1.6.3-3.4.5-5.2.7-7.3,1.5-16.1,2.4-25.6v-.2s.3,0,.3,0c.9,0,1.9.2,2.9.3.3,0,.7,0,1,0h.2s0,.3,0,.3c-1.3,13.3-2.5,25.3-3.3,34-.2,2.3-1.6,4-3.2,4.8-.8.4-1.6.6-2.4.6-.8,0-1.4,0-2.1,0-1.2,0-2.1,0-2.8,0-.3,0-.5,0-.7,0-.2,0-.2,0-.2,0,0,0,0,0,.3,0,.2,0,.4,0,.7,0,.7,0,1.6,0,2.8,0,1.2,0,2.7.2,4.3-.7,1.5-.8,2.9-2.4,3-4.6.8-8.7,1.9-20.7,3.2-34l.2.3c-.3,0-.7,0-1,0-1,0-2-.2-2.9-.3l.3-.2c-.9,9.5-1.8,18.3-2.5,25.6-.2,1.8-.4,3.5-.5,5.2,0,.8-.2,1.6-.2,2.4,0,.4,0,.7-.1,1.1,0,.4-.3.7-.5,1-.3.3-.6.4-1,.5-.4,0-.7,0-1,0-.6,0-1.3,0-1.8,0-1.2,0-2.2,0-3.1,0h0c0,1.1,0,2.1,0,2.8,0,.3,0,.6,0,.8,0,.2,0,.3,0,.3Z"/><rect class="cls-3" x="560.1" y="346" width="99.9" height="11.9" rx="2.6" ry="2.6" transform="translate(1220 703.9) rotate(-180)"/><path class="cls-3" d="M672.8,316.7l12-94.2c.4-3.3-1.9-6.2-5.1-6.6h0c-3.3-.4-6.2,1.9-6.6,5.1l-12,94.2c-.4,3.3,1.9,6.2,5.1,6.6h0c3.3.4,6.2-1.9,6.6-5.1Z"/><polygon class="cls-3" points="566.6 354.2 553.3 452.9 558.5 452.9 578.3 357.9 566.6 354.2"/><polygon class="cls-3" points="653 354.2 666.3 452.9 661.1 452.9 641.3 357.9 653 354.2"/><path class="cls-10" d="M565.3,357.9c0-.1,20.1-.2,45-.2s45,.1,45,.2-20.1.2-45,.2-45-.1-45-.2Z"/><polygon class="cls-10" points="705.9 452.6 615.1 452.6 619.7 386.9 703 386.7 705.9 452.6"/><path class="cls-3" d="M691.3,452.6c-.1,0-.2-14.7-.2-32.9s.1-32.9.2-32.9.2,14.7.2,32.9-.1,32.9-.2,32.9Z"/><path class="cls-3" d="M690.3,388.4s0,0-.1.2c-.1.2-.2.4-.4.7-.4.6-.9,1.5-1.6,2.6-1.4,2.2-3.5,5.5-6.4,9.3-2.9,3.8-6.4,8.2-11.3,12.3-2.4,2-5.1,3.9-8.2,5.6-3,1.6-6.4,2.9-10.1,3.2-3.7.3-7.3-.5-10.4-1.8-3.2-1.3-6-3.1-8.5-5.1-4.9-4-8.2-8.9-10.1-13.2-2-4.3-2.7-8.2-3-10.8,0-.7-.1-1.3-.2-1.8,0-.5,0-.9,0-1.3,0-.3,0-.6,0-.8,0-.2,0-.3,0-.3s0,0,0,.3c0,.2,0,.5,0,.8,0,.4,0,.8,0,1.3,0,.5.1,1.1.2,1.7.3,2.6,1.1,6.4,3.1,10.7,2,4.3,5.2,9,10.1,13,2.4,2,5.2,3.7,8.4,5,3.1,1.3,6.6,2.1,10.2,1.8,3.6-.3,6.9-1.5,9.9-3.1,3-1.6,5.7-3.5,8.1-5.5,4.8-4,8.4-8.4,11.3-12.2,2.9-3.8,5-7,6.5-9.2.7-1.1,1.3-1.9,1.7-2.5.2-.3.3-.5.5-.7.1-.1.2-.2.2-.2Z"/><circle class="cls-3" cx="651.2" cy="422.3" r="3.9"/><path class="cls-10" d="M677.9,374.6c-1.6-1.5-3.9-2.1-6.1-2.3-5.3-.5-11.2.6-15.9,3.2-4.7,2.6-8.1,7.1-10.4,11.9l3.1,3.2c1.3-5,4-9.4,8.4-12.3,4.3-2.9,8.9-4.2,14.1-3.4,1.2.2,2.8.6,3.8,1.3,2,1.4,2.3,3,2,5.1-.5,3.1-1.3,4.4-2.6,6.1,2.3,0,2.8,0,5,.1.6-2.2,1.1-4.5,1.1-6.8s-.8-4.7-2.5-6.2Z"/></svg>