<?xml version="1.0" encoding="UTF-8"?><svg id="Layer_1" xmlns="http://www.w3.org/2000/svg" viewBox="0 0 310.9 274.6"><defs><style>.cls-1{fill:#ebebeb;}.cls-2{fill:#455b64;}.cls-3{font-family:Outfit-SemiBold, Outfit;font-size:7.3px;font-weight:600;}.cls-3,.cls-4{fill:#fff;}.cls-5{fill:#263238;}.cls-6{fill:#7c4236;}.cls-7{opacity:.6;}.cls-8{opacity:.3;}.cls-9{fill:#ec996f;}.cls-10{fill:#fafbfb;}.cls-11{fill:#f3725f;}.cls-12{fill:#e0e0e0;}.cls-13{fill:#fbbd9d;}</style></defs><path class="cls-12" d="M293.6,170.9s0,0,0-.1c0,0,0-.2,0-.3,0-.3,0-.6,0-1.1,0-1,0-2.3,0-4.1h0c-4.8,0-12.4,0-20.9.1,0,0-.1.1.1-.1h0c0,0,0,.2,0,.2v.5c0,.2,0,.5,0,.7,0,.5,0,.9,0,1.4,0,.9,0,1.8,0,2.7h-.1c6,0,11.2,0,14.9,0,1.9,0,3.4,0,4.4,0,.5,0,.9,0,1.2,0,.1,0,.2,0,.3,0,0,0,.1,0,.1,0,0,0,0,0,0,0,0,0-.2,0-.3,0-.3,0-.7,0-1.2,0-1,0-2.5,0-4.4,0-3.8,0-9,0-15,0h-.1s0-.1,0-.1c0-.9,0-1.8,0-2.7,0-.5,0-.9,0-1.4,0-.2,0-.5,0-.7v-.4s0-.2,0-.2h0v-.2h0c.2-.2,0,0,.1-.1,8.5,0,16.1,0,20.9,0h0s0,0,0,0c0,1.7,0,3.1,0,4.1,0,.5,0,.8,0,1.1,0,.1,0,.2,0,.3,0,0,0,0,0,0Z"/><path class="cls-12" d="M296.4,165.4s0,0,0-.1c0,0,0-.2,0-.3,0-.3,0-.6,0-1.1,0-1,0-2.3,0-4h0c-3.3,0-7.7,0-12.6.1,0,0,.1-.1.1-.1h0c0,0,0,.2,0,.2v.5c0,.2,0,.5,0,.7,0,.5,0,.9,0,1.4,0,.9,0,1.8,0,2.7h-.1c3.6,0,6.7,0,9,0,1.1,0,2,0,2.6,0,.3,0,.5,0,.7,0,.2,0,.2,0,.3,0,0,0,0,0-.2,0-.2,0-.4,0-.7,0-.6,0-1.5,0-2.6,0-2.3,0-5.4,0-9.1,0h-.1s0-.1,0-.1c0-.9,0-1.8,0-2.7,0-.5,0-.9,0-1.4,0-.2,0-.5,0-.7v-.4s0-.2,0-.2h0v-.2h0s.2-.2.1-.1c4.9,0,9.3,0,12.6,0h0s0,0,0,0c0,1.7,0,3.1,0,4.1,0,.5,0,.8,0,1.1,0,.2,0,.4,0,.4Z"/><path class="cls-12" d="M293.6,170.9s0,0,0-.1c0,0,0-.2,0-.3,0-.3,0-.6,0-1.1,0-1,0-2.3,0-4.1h0c-4.8,0-12.4,0-20.9.1,0,0-.1.1.1-.1h0c0,0,0,.2,0,.2v.5c0,.2,0,.5,0,.7,0,.5,0,.9,0,1.4,0,.9,0,1.8,0,2.7h-.1c6,0,11.2,0,14.9,0,1.9,0,3.4,0,4.4,0,.5,0,.9,0,1.2,0,.1,0,.2,0,.3,0,0,0,.1,0,.1,0,0,0,0,0,0,0,0,0-.2,0-.3,0-.3,0-.7,0-1.2,0-1,0-2.5,0-4.4,0-3.8,0-9,0-15,0h-.1s0-.1,0-.1c0-.9,0-1.8,0-2.7,0-.5,0-.9,0-1.4,0-.2,0-.5,0-.7v-.4s0-.2,0-.2h0v-.2h0c.2-.2,0,0,.1-.1,8.5,0,16.1,0,20.9,0h0s0,0,0,0c0,1.7,0,3.1,0,4.1,0,.5,0,.8,0,1.1,0,.1,0,.2,0,.3,0,0,0,0,0,0Z"/><path class="cls-12" d="M296.4,165.4s0,0,0-.1c0,0,0-.2,0-.3,0-.3,0-.6,0-1.1,0-1,0-2.3,0-4h0c-3.3,0-7.7,0-12.6.1,0,0,.1-.1.1-.1h0c0,0,0,.2,0,.2v.5c0,.2,0,.5,0,.7,0,.5,0,.9,0,1.4,0,.9,0,1.8,0,2.7h-.1c3.6,0,6.7,0,9,0,1.1,0,2,0,2.6,0,.3,0,.5,0,.7,0,.2,0,.2,0,.3,0,0,0,0,0-.2,0-.2,0-.4,0-.7,0-.6,0-1.5,0-2.6,0-2.3,0-5.4,0-9.1,0h-.1s0-.1,0-.1c0-.9,0-1.8,0-2.7,0-.5,0-.9,0-1.4,0-.2,0-.5,0-.7v-.4s0-.2,0-.2h0v-.2h0s.2-.2.1-.1c4.9,0,9.3,0,12.6,0h0s0,0,0,0c0,1.7,0,3.1,0,4.1,0,.5,0,.8,0,1.1,0,.2,0,.4,0,.4Z"/><rect class="cls-1" x="33.7" y="75.2" width="20.9" height="5.5"/><path class="cls-12" d="M45.8,86.6s0,0,0-.1c0,0,0-.2,0-.3,0-.3,0-.6,0-1.1,0-1,0-2.3,0-4.1h0c-4.8,0-12.4,0-20.9.1,0,0-.1.1.1-.1h0v.4s0,.4,0,.4c0,.2,0,.5,0,.7,0,.5,0,.9,0,1.4,0,.9,0,1.8,0,2.7h-.1c6,0,11.2,0,14.9,0,1.9,0,3.4,0,4.4,0,.5,0,.9,0,1.2,0,.1,0,.2,0,.3,0,0,0,.1,0,.1,0,0,0,0,0,0,0,0,0-.2,0-.3,0-.3,0-.7,0-1.2,0-1,0-2.5,0-4.4,0-3.8,0-9,0-15,0h-.1s0-.1,0-.1c0-.9,0-1.8,0-2.7,0-.5,0-.9,0-1.4,0-.2,0-.5,0-.7v-.4s0-.2,0-.2h0v-.2h0c.2-.2,0,0,.1-.1,8.5,0,16.1,0,20.9,0h0s0,0,0,0c0,1.7,0,3.1,0,4.1,0,.5,0,.8,0,1.1,0,.1,0,.2,0,.3,0,0,0,0,0,0Z"/><rect class="cls-1" x="186.5" y="180.3" width="20.9" height="5.5"/><path class="cls-12" d="M198.5,191.7s0,0,0-.1c0,0,0-.2,0-.3,0-.3,0-.6,0-1.1,0-1,0-2.3,0-4.1h0c-4.8,0-12.4,0-20.9.1,0,0-.1.1.1-.1h0v.4s0,.4,0,.4c0,.2,0,.5,0,.7,0,.5,0,.9,0,1.4,0,.9,0,1.8,0,2.7h-.1c6,0,11.2,0,14.9,0,1.9,0,3.4,0,4.4,0,.5,0,.9,0,1.2,0,.1,0,.2,0,.3,0,0,0,.1,0,.1,0,0,0,0,0,0,0,0,0-.2,0-.3,0-.3,0-.7,0-1.2,0-1,0-2.5,0-4.4,0-3.8,0-9,0-15,0h-.1s0-.1,0-.1c0-.9,0-1.8,0-2.7,0-.5,0-.9,0-1.4,0-.2,0-.5,0-.7v-.4s0-.2,0-.2h0v-.2h0c.2-.2,0,0,.1-.1,8.5,0,16.1,0,20.9,0h0s0,0,0,0c0,1.7,0,3.1,0,4.1,0,.5,0,.8,0,1.1,0,.1,0,.2,0,.3,0,0,0,0,0,0Z"/><rect class="cls-1" x="184.4" y="83.9" width="20.9" height="5.5"/><rect class="cls-1" x="280.3" y="111.4" width="20.9" height="5.5"/><path class="cls-12" d="M93.3,58.6s0,0,0-.1c0,0,0-.2,0-.3,0-.3,0-.6,0-1.1,0-1,0-2.3,0-4.1h0c-4.8,0-12.4,0-20.9.1,0,0-.1.1.1-.1h0c0,0,0,.2,0,.2v.5c0,.2,0,.5,0,.7,0,.5,0,.9,0,1.4,0,.9,0,1.8,0,2.7h-.1c6,0,11.2,0,14.9,0,1.9,0,3.4,0,4.4,0,.5,0,.9,0,1.2,0,.1,0,.2,0,.3,0,0,0,.1,0,.1,0,0,0,0,0,0,0,0,0-.2,0-.3,0-.3,0-.7,0-1.2,0-1,0-2.5,0-4.4,0-3.8,0-9,0-15,0h-.1s0-.1,0-.1c0-.9,0-1.8,0-2.7,0-.5,0-.9,0-1.4,0-.2,0-.5,0-.7v-.4s0-.2,0-.2h0v-.2h0c.2-.2,0,0,.1-.1,8.5,0,16.1,0,20.9,0h0s0,0,0,0c0,1.7,0,3.1,0,4.1,0,.5,0,.8,0,1.1,0,.1,0,.2,0,.3,0,0,0,0,0,0Z"/><path class="cls-12" d="M96.1,53.1s0,0,0-.1c0,0,0-.2,0-.3,0-.3,0-.6,0-1.1,0-1,0-2.3,0-4h0c-3.3,0-7.7,0-12.6.1,0,0,.1-.1.1-.1h0c0,0,0,.2,0,.2v.5c0,.2,0,.5,0,.7,0,.5,0,.9,0,1.4,0,.9,0,1.8,0,2.7h-.1c3.6,0,6.7,0,9,0,1.1,0,2,0,2.6,0,.3,0,.5,0,.7,0,.2,0,.2,0,.3,0,0,0,0,0-.2,0-.2,0-.4,0-.7,0-.6,0-1.5,0-2.6,0-2.3,0-5.4,0-9.1,0h-.1s0-.1,0-.1c0-.9,0-1.8,0-2.7,0-.5,0-.9,0-1.4,0-.2,0-.5,0-.7v-.4s0-.2,0-.2h0v-.2h0s.2-.2.1-.1c4.9,0,9.3,0,12.6,0h0s0,0,0,0c0,1.7,0,3.1,0,4.1,0,.5,0,.8,0,1.1,0,.2,0,.4,0,.4Z"/><path class="cls-12" d="M263.7,61.5s0,0,0-.1c0,0,0-.2,0-.3,0-.3,0-.6,0-1.1,0-1,0-2.3,0-4.1h0c-4.8,0-12.4,0-20.9.1,0,0-.1.1.1-.1h0c0,0,0,.2,0,.2v.5c0,.2,0,.5,0,.7,0,.5,0,.9,0,1.4,0,.9,0,1.8,0,2.7h-.1c6,0,11.2,0,14.9,0,1.9,0,3.4,0,4.4,0,.5,0,.9,0,1.2,0,.1,0,.2,0,.3,0,0,0,.1,0,.1,0,0,0,0,0,0,0,0,0-.2,0-.3,0-.3,0-.7,0-1.2,0-1,0-2.5,0-4.4,0-3.8,0-9,0-15,0h-.1s0-.1,0-.1c0-.9,0-1.8,0-2.7,0-.5,0-.9,0-1.4,0-.2,0-.5,0-.7v-.4s0-.2,0-.2h0v-.2h0c.2-.2,0,0,.1-.1,8.5,0,16.1,0,20.9,0h0s0,0,0,0c0,1.7,0,3.1,0,4.1,0,.5,0,.8,0,1.1,0,.1,0,.2,0,.3,0,0,0,0,0,0Z"/><path class="cls-12" d="M266.5,56s0,0,0-.1c0,0,0-.2,0-.3,0-.3,0-.6,0-1.1,0-1,0-2.3,0-4h0c-3.3,0-7.7,0-12.6.1,0,0,.1-.1.1-.1h0c0,0,0,.2,0,.2v.5c0,.2,0,.5,0,.7,0,.5,0,.9,0,1.4,0,.9,0,1.8,0,2.7h-.1c3.6,0,6.7,0,9,0,1.1,0,2,0,2.6,0,.3,0,.5,0,.7,0,.2,0,.2,0,.3,0,0,0,0,0-.2,0-.2,0-.4,0-.7,0-.6,0-1.5,0-2.6,0-2.3,0-5.4,0-9.1,0h-.1s0-.1,0-.1c0-.9,0-1.8,0-2.7,0-.5,0-.9,0-1.4,0-.2,0-.5,0-.7v-.4s0-.2,0-.2h0v-.2h0s.2-.2.1-.1c4.9,0,9.3,0,12.6,0h0s0,0,0,0c0,1.7,0,3.1,0,4.1,0,.5,0,.8,0,1.1,0,.2,0,.4,0,.4Z"/><path class="cls-12" d="M139,90.6s0,0,0-.1c0,0,0-.2,0-.3,0-.3,0-.6,0-1.1,0-1,0-2.3,0-4.1h0c-4.8,0-12.4,0-20.9.1,0,0-.1.1.1-.1h0c0,0,0,.2,0,.2v.5c0,.2,0,.5,0,.7,0,.5,0,.9,0,1.4,0,.9,0,1.8,0,2.7h-.1c6,0,11.2,0,14.9,0,1.9,0,3.4,0,4.4,0,.5,0,.9,0,1.2,0,.1,0,.2,0,.3,0,0,0,.1,0,.1,0,0,0,0,0,0,0,0,0-.2,0-.3,0-.3,0-.7,0-1.2,0-1,0-2.5,0-4.4,0-3.8,0-9,0-15,0h-.1s0-.1,0-.1c0-.9,0-1.8,0-2.7,0-.5,0-.9,0-1.4,0-.2,0-.5,0-.7v-.4s0-.2,0-.2h0v-.2h0c.2-.2,0,0,.1-.1,8.5,0,16.1,0,20.9,0h0s0,0,0,0c0,1.7,0,3.1,0,4.1,0,.5,0,.8,0,1.1,0,.1,0,.2,0,.3,0,0,0,0,0,0Z"/><path class="cls-12" d="M141.8,85s0,0,0-.1c0,0,0-.2,0-.3,0-.3,0-.6,0-1.1,0-1,0-2.3,0-4h0c-3.3,0-7.7,0-12.6.1,0,0,.1-.1.1-.1h0c0,0,0,.2,0,.2v.5c0,.2,0,.5,0,.7,0,.5,0,.9,0,1.4,0,.9,0,1.8,0,2.7h-.1c3.6,0,6.7,0,9,0,1.1,0,2,0,2.6,0,.3,0,.5,0,.7,0,.2,0,.2,0,.3,0,0,0,0,0-.2,0-.2,0-.4,0-.7,0-.6,0-1.5,0-2.6,0-2.3,0-5.4,0-9.1,0h-.1s0-.1,0-.1c0-.9,0-1.8,0-2.7,0-.5,0-.9,0-1.4,0-.2,0-.5,0-.7v-.4s0-.2,0-.2h0v-.2h0s.2-.2.1-.1c4.9,0,9.3,0,12.6,0h0s0,0,0,0c0,1.7,0,3.1,0,4.1,0,.5,0,.8,0,1.1,0,.2,0,.4,0,.4Z"/><path class="cls-12" d="M31.5,159.3s0,0,0-.1c0,0,0-.2,0-.3,0-.3,0-.6,0-1.1,0-1,0-2.3,0-4.1h0c-4.8,0-12.4,0-20.9.1,0,0-.1.1.1-.1h0c0,0,0,.2,0,.2v.5c0,.2,0,.5,0,.7,0,.5,0,.9,0,1.4,0,.9,0,1.8,0,2.7h-.1c6,0,11.2,0,14.9,0,1.9,0,3.4,0,4.4,0,.5,0,.9,0,1.2,0,.1,0,.2,0,.3,0,0,0,.1,0,.1,0,0,0,0,0,0,0,0,0-.2,0-.3,0-.3,0-.7,0-1.2,0-1,0-2.5,0-4.4,0-3.8,0-9,0-15,0h-.1s0-.1,0-.1c0-.9,0-1.8,0-2.7,0-.5,0-.9,0-1.4,0-.2,0-.5,0-.7v-.4s0-.2,0-.2h0v-.2h0c.2-.2,0,0,.1-.1,8.5,0,16.1,0,20.9,0h0s0,0,0,0c0,1.7,0,3.1,0,4.1,0,.5,0,.8,0,1.1,0,.1,0,.2,0,.3,0,0,0,0,0,0Z"/><path class="cls-12" d="M34.4,153.8s0,0,0-.1c0,0,0-.2,0-.3,0-.3,0-.6,0-1.1,0-1,0-2.3,0-4h0c-3.3,0-7.7,0-12.6.1,0,0,.1-.1.1-.1h0c0,0,0,.2,0,.2v.5c0,.2,0,.5,0,.7,0,.5,0,.9,0,1.4,0,.9,0,1.8,0,2.7h-.1c3.6,0,6.7,0,9,0,1.1,0,2,0,2.6,0,.3,0,.5,0,.7,0,.2,0,.2,0,.3,0,0,0,0,0-.2,0-.2,0-.4,0-.7,0-.6,0-1.5,0-2.6,0-2.3,0-5.4,0-9.1,0h-.1s0-.1,0-.1c0-.9,0-1.8,0-2.7,0-.5,0-.9,0-1.4,0-.2,0-.5,0-.7v-.4s0-.2,0-.2h0v-.2h0s.2-.2.1-.1c4.9,0,9.3,0,12.6,0h0s0,0,0,0c0,1.7,0,3.1,0,4.1,0,.5,0,.8,0,1.1,0,.2,0,.4,0,.4Z"/><path class="cls-12" d="M103.2,186.8c-1.7-1.1-3.6-1.7-5.6-1.9-.9,0-1.9,0-2.7.5-.2.1-.3.3-.3.5,0,.1.1.2.3.3,2.3,1.8,5.8,2,8.3.6"/><path class="cls-12" d="M103.1,186.6c-1.3-1-2.6-2-3.6-3.2-1.1-1.2-2-2.6-2.3-4.2,0-.5-.1-1,.2-1.4,2.9,2.3,5.2,5.2,5.7,8.8"/><path class="cls-12" d="M103.2,186.8c-.2-1.6-.3-3.2,0-4.8.4-1.6,1.2-3.1,2.5-3.9.5,1.2.3,2.5,0,3.7-.5,1.9-1.4,3.7-2.5,5.3"/><path class="cls-12" d="M106,191.9c-1.7.2-3.2,1.1-4.5,2.3-1.3,1.2-2.2,2.7-2.6,4.4,1.7-.1,3.1-1.3,4.2-2.6,1-1.3,1.8-2.8,2.9-4.1"/><path class="cls-12" d="M106.6,192.7c-1.4-3.4-.9-7.6,1.3-10.6,1,3.5.6,7.5-1.3,10.6"/><path class="cls-12" d="M110.4,197.2c-1.6,0-3.2.3-4.5,1.1-1.4.8-2.5,2-3.2,3.4,0,.2-.2.4,0,.6.1.1.3.2.5.2,1.5,0,2.9-1,4-2.1,1.1-1,2.1-2.2,3.3-3.1"/><path class="cls-12" d="M110.3,196.9c-.8-2.6-.9-5.4-.1-8,.3-1,.8-2.1,1.7-2.6,0,0,.2,0,.3,0,0,0,.1.1.2.2.3.7.4,1.5.4,2.3,0,.8-.2,1.6-.4,2.3-.3,1.4-.5,3-1.2,4.2-.2.3-.3.6-.5.9-.1.3-.1.4-.3.7"/><path class="cls-12" d="M120.2,198.4c-.7-2.8,0-6.2,1.8-8.5.1-.2.3-.4.5-.3.3,0,.4.5.4.8-.1,2.9-1.1,5.7-2.7,8"/><path class="cls-12" d="M121.1,199c3.4.9,7.3,0,10.2-2.1-1.7-.9-3.7-1.1-5.5-.7-1.8.4-3.5,1.2-4.7,2.7"/><path class="cls-12" d="M121.9,197.2c1.9-3.1,5.6-5.1,9.2-5.3-.4,1.5-1.6,2.6-3,3.3-1.4.7-2.9,1-4.4,1.3-.6.1-1.4.2-1.8.7"/><path class="cls-12" d="M120.4,188.1c.5-1.8,1-3.6,1.2-5.4.1-1.8-.1-3.8-1.1-5.3-1.8,3.5-2,7.5-.2,10.9"/><path class="cls-12" d="M126.4,185.1c2.1-3.8,6.3-6.8,10.6-7.2-1.7,4.1-6.2,7.3-10.6,7.2"/><path class="cls-12" d="M125.1,185.8c3.1.5,5.8,2.5,8.7,3.7.6.3,1.3.5,2,.4.7,0,1.3-.5,1.5-1.2.1-.5-.1-1.1-.5-1.5-.4-.4-.9-.6-1.4-.9-3.2-1.3-6.6-1.4-9.9-.6"/><path class="cls-12" d="M123.3,188c.7.2.9.6,1.5,1,1.9,1.6,4.2,2.8,6.6,3.4.3,0,.6,0,.7-.1.1-.2,0-.4-.2-.6-1-1.3-2.5-2.1-4-2.7-1.5-.6-2.8-1.2-4.6-1.1"/><path class="cls-12" d="M121.3,174.8c2.5,2.4,6.1,3.6,9.5,3.2.2,0,.3,0,.4-.2.2-.3,0-.7-.3-.9-2.8-2.2-6.2-3.1-9.6-2.2"/><path class="cls-12" d="M123.7,173.9c3.3-2.5,7.9-3.3,11.9-2-1.5,1.5-3.6,2.3-5.7,2.5-2.1.2-4.2,0-6.2-.5"/><path class="cls-12" d="M122.7,167.9c-.3-2.8,0-5-.3-7.8,0-.2,0-.5-.3-.6-.3-.1-.5.2-.6.5-.8,2.6-.4,5.6,1.2,7.8"/><path class="cls-12" d="M122.5,168.2c1.9-1.2,3.3-2.7,4.6-4.5.9-1.3,1.7-2.8,1.5-4.3-1.3,0-2.5.7-3.3,1.7-.8,1-1.3,2.2-1.7,3.4-.4,1.2-.6,2.5-1.1,3.7"/><path class="cls-12" d="M127.1,166.9c4.2-1.5,8-3.8,11.4-6.7-1.4-.5-2.9-.2-4.3.3-3.1,1.3-5.7,3.4-7.2,6.4"/><path class="cls-12" d="M123.8,169.7c2.1.2,4.2.4,6.3,0,2.1-.3,4-1.2,5.9-2,.2,0,.3-.1.4-.3,0-.2,0-.4-.1-.5-.1-.1-.3-.2-.5-.2-2.1-.6-4.3-.3-6.4.4-2.1.7-3.7,1.5-5.6,2.6"/><path class="cls-12" d="M111.8,174.9c-1.4-2.9-1.3-6.3-.1-9.3.9,1.3,1,3,.8,4.6-.2,1.6-.6,3.2-.7,4.8"/><path class="cls-12" d="M106.1,172c-3.6,0-7.2,1.5-9.6,4.1,1.8.3,3.6-.2,5.3-1,1.6-.8,3.1-1.9,4.5-3"/><path class="cls-12" d="M102.2,170.7c-1.8-.1-3.4-.4-5.1.2-1.7.5-3.2,1.7-3.9,3.3,1.6.2,3.3-.2,4.8-.9,1.5-.7,2.9-1.6,4.2-2.6"/><path class="cls-12" d="M107.9,170.8c-1.6-1-3.2-2.1-5-2.5-1.8-.4-4-.1-5.2,1.3,1.5.9,3.3,1,5,1,1.7,0,3.8,0,5.5.6"/><path class="cls-12" d="M107.9,170.9c-2.7-2.7-3.7-7.4-2.6-11,2.1,3.2,3.1,7.2,2.6,11"/><path class="cls-12" d="M115.3,163.3c.5-1.2.9-2.4,1.3-3.6.5-1.2,1-2.4,1.9-3.3.9-1,2.1-1.7,3.3-1.7-.8,3.6-3.2,6.9-6.5,8.7"/><path class="cls-12" d="M114,164.9c-.8-1.2-1.8-2.7-3-3.6-1.1-.9-2.6-1.4-4-1.1,1.4,2.5,4.1,4.3,7,4.7"/><path class="cls-12" d="M114.3,163.4c-.6-1.4-1.1-2.8-1.3-4.3-.2-1.5,0-3.1.7-4.4,1.5,2.8,2,5.8.7,8.7"/><path class="cls-12" d="M115.4,154.7c.8-2.8,3.4-4.8,6.1-5.8.3-.1.7-.2,1.1-.2.4,0,.7.3.8.7.1.5-.3.9-.7,1.2-2.1,1.8-4.6,3.2-7.3,4"/><path class="cls-12" d="M115.4,152.5c.1-1.8.2-3.6.8-5.3.6-1.7,1.7-3.3,3.3-4,.3,1.8-.5,3.6-1.5,5.2-1,1.6-2.1,3-2.7,4.8"/><path class="cls-12" d="M115.3,153.7c-.7-2-.8-4.6-2-6.4-.8-1.2-2.2-2.1-2.9-3.4-.5,1.2-.3,2.6.2,3.8.5,1.2,1.3,2.3,2.2,3.2.9,1,1.7,1.7,2.5,2.7"/><path class="cls-12" d="M115.4,213.3c0,0-.1-13.5-.1-30.1,0-16.7,0-30.1,0-30.1s.1,13.5.1,30.1c0,16.6,0,30.1,0,30.1Z"/><path class="cls-12" d="M127.1,172.9s-.2,0-.5.2c-.4.1-.8.3-1.4.5-1.2.4-2.8,1-4.6,1.7-1.7.7-3.4,1.4-4.3,2.2-.5.4-.7.8-.9,1.1-.1.3-.2.5-.2.5,0,0,0,0,0-.1,0,0,0-.2,0-.4.1-.3.4-.8.8-1.2.5-.4,1.1-.8,1.9-1.2.7-.3,1.6-.7,2.5-1.1,1.8-.7,3.4-1.3,4.6-1.7.6-.2,1.1-.3,1.4-.4.3,0,.5-.1.5-.1Z"/><path class="cls-12" d="M131,163.4s0,0-.1.2c-.1.1-.3.2-.4.4-.4.4-.9.9-1.6,1.5-1.4,1.2-3.3,2.9-5.4,4.8-2.1,1.9-3.9,3.7-5.2,5-.6.7-1.1,1.2-1.5,1.6-.2.2-.3.3-.4.4,0,.1-.1.2-.1.1,0,0,0,0,.1-.2,0-.1.2-.3.4-.5.3-.4.8-1,1.4-1.7,1.2-1.4,3-3.2,5.1-5.1,2.1-1.9,4-3.5,5.4-4.7.7-.6,1.2-1.1,1.7-1.4.2-.2.3-.3.5-.4.1,0,.2-.1.2-.1Z"/><path class="cls-12" d="M121.2,172.1c0,0,.4-1,.8-2.3.4-1.3.6-2.4.7-2.4,0,0,0,1.1-.5,2.4-.2.6-.5,1.2-.7,1.6-.2.4-.3.6-.4.6Z"/><path class="cls-12" d="M115.4,180.3s-.1-.1-.3-.4c-.2-.3-.5-.6-.8-1.1-.7-.9-1.7-2.1-2.7-3.5-1.1-1.4-2.1-2.6-2.8-3.5-.3-.4-.6-.8-.8-1-.2-.2-.3-.4-.3-.4,0,0,.1.1.4.4.2.2.5.6.9,1,.7.9,1.8,2.1,2.8,3.4,1.1,1.4,2,2.6,2.7,3.5.3.5.6.8.8,1.1.2.3.3.4.3.4Z"/><path class="cls-12" d="M112.8,176.9s-.7-.8-1.1-2c-.3-.9-.3-1.7-.2-2h0c0,.2,0,.2,0,.2,0,0,0,0,0-.3h0c0,.4,0,1.1.3,2,.3,1.2.9,2.1.9,2.1Z"/><path class="cls-12" d="M109.4,172.7s-.2-.3-.8-.4c-.5-.2-1.3-.2-2.1-.2-.8,0-1.6.2-2.1.3-.5.1-.9.2-.9.2,0,0,.3-.2.8-.3.5-.2,1.3-.3,2.1-.4.8,0,1.6,0,2.2.2.5.2.7.6.7.6Z"/><path class="cls-12" d="M108.6,171.7s-.4-.2-1.2-.4c-.7-.2-1.7-.5-2.9-.6-1.2,0-2.2,0-2.9.1-.7.1-1.2.3-1.2.2,0,0,.1,0,.3-.1.2,0,.5-.2.9-.2.7-.2,1.8-.3,3-.2,1.2,0,2.2.4,2.9.7.4.1.6.3.8.4.2.1.3.2.3.2Z"/><path class="cls-12" d="M115.3,167.4c0,0-.4-1.3-.8-2.9-.4-1.6-.7-3-.7-3s.4,1.3.8,2.9c.4,1.6.7,3,.7,3Z"/><path class="cls-12" d="M115.4,167.4c0,0-.3-.9-.9-1.8-.6-.9-1.4-1.4-1.4-1.4,0,0,.2,0,.5.3.3.2.7.6,1,1,.7.9.8,1.9.8,1.9Z"/><path class="cls-12" d="M115.4,206.1s0-.3-.2-.9c-.2-.6-.4-1.4-.9-2.3-.9-1.9-2.6-4.3-4.8-6.7-1.1-1.2-2.1-2.4-3-3.5-.9-1.1-1.6-2.2-2.1-3.1-.5-.9-.9-1.7-1.1-2.3,0-.3-.2-.5-.2-.7,0-.2,0-.2,0-.2,0,0,.1.3.3.9.2.5.6,1.3,1.1,2.2.5.9,1.3,1.9,2.2,3,.9,1.1,1.9,2.2,3,3.5,2.2,2.4,3.9,4.9,4.8,6.8.5,1,.7,1.8.9,2.4,0,.3.1.5.1.7,0,.2,0,.2,0,.2Z"/><path class="cls-12" d="M126,194.1s-.2.1-.6.3c-.4.2-.9.5-1.4,1-.6.4-1.2,1-1.9,1.7-.7.7-1.4,1.5-2.1,2.4-1.4,1.8-2.7,3.3-3.5,4.6-.4.6-.7,1.1-.9,1.5-.2.4-.3.6-.3.6,0,0,0,0,0-.2,0-.1,0-.3.2-.4.2-.4.4-.9.8-1.5.8-1.3,2.1-2.9,3.5-4.6.7-.9,1.4-1.7,2.1-2.4.7-.7,1.4-1.3,1.9-1.7.6-.4,1.1-.7,1.5-.9.2,0,.3-.1.4-.2.1,0,.2,0,.2,0Z"/><path class="cls-12" d="M126.2,198s-.5,0-1.2.2c-.7,0-1.7.2-2.8.6-1.1.3-1.9.9-2.5,1.3-.6.4-.9.8-.9.8,0,0,0-.1.2-.3.1-.2.3-.4.6-.6.6-.5,1.4-1,2.5-1.4,1.1-.3,2.1-.4,2.8-.5.7,0,1.2,0,1.2,0Z"/><path class="cls-12" d="M119.2,200.4c0,0,.5-.8.9-1.9.4-1.1.5-2.1.5-2.1,0,0,0,.2,0,.6,0,.4-.1.9-.3,1.5-.2.6-.5,1-.7,1.4-.2.3-.4.5-.4.5Z"/><path class="cls-12" d="M129.5,183.6s0,0-.2.1c-.1,0-.3.1-.6.3-.2.1-.5.2-.9.4-.3.2-.7.3-1.1.6-.2.1-.4.2-.6.4-.2.1-.4.3-.7.4-.5.3-1,.6-1.5,1-1,.8-2,1.6-3,2.7-1,1-1.9,2.1-2.6,3.1-.3.5-.7,1-1,1.5-.1.2-.3.5-.4.7-.1.2-.2.4-.3.7-.2.4-.4.8-.6,1.1-.2.3-.3.6-.4.9,0,.2-.2.4-.2.6,0,.1,0,.2,0,.2,0,0,0,0,0-.2,0-.2.1-.3.2-.6,0-.3.2-.6.4-.9.2-.3.3-.7.5-1.2.1-.2.2-.4.3-.7.1-.2.3-.5.4-.7.3-.5.6-1,.9-1.5.7-1,1.6-2.1,2.6-3.2,1-1,2.1-1.9,3.1-2.7.5-.4,1-.7,1.5-1,.2-.1.5-.3.7-.4.2-.1.4-.2.7-.4.4-.2.8-.4,1.1-.6.3-.2.6-.3.9-.4.2,0,.4-.2.6-.2.1,0,.2,0,.2,0Z"/><path class="cls-12" d="M121,189.2s0-.3.5-.7c.4-.4,1.1-.7,1.9-.7.8,0,1.5.2,2,.4.5.2.8.3.7.4,0,0-.3,0-.8-.2-.5-.1-1.2-.3-1.9-.3-.8,0-1.4.3-1.8.6-.4.3-.5.6-.6.6Z"/><path class="cls-12" d="M119.8,190.5c0,0,.4-.7.5-1.7.1-1-.2-1.8-.1-1.8,0,0,.1.2.2.5,0,.3.2.8,0,1.3,0,.5-.2,1-.4,1.3-.2.3-.3.5-.3.4Z"/><path class="cls-12" d="M106,208c.3,5.2,1.8,10.4,4.2,15.7h10.4c2.3-5.3,3.7-10.5,4-15.7h-18.6Z"/><path class="cls-10" d="M123,216.4c0,0-3.4,0-7.6,0s-7.6,0-7.6,0,3.4,0,7.6,0,7.6,0,7.6,0Z"/><path class="cls-10" d="M122.7,218.2c0,0-3.2,0-7.2,0s-7.2,0-7.2,0,3.2,0,7.2,0,7.2,0,7.2,0Z"/><path class="cls-10" d="M110.4,211.4c0,0,0,1.1,0,2.4s0,2.4,0,2.4,0-1.1,0-2.4,0-2.4,0-2.4Z"/><path class="cls-10" d="M116,211.4c0,0,0,1.1,0,2.5s0,2.5,0,2.5,0-1.1,0-2.5,0-2.5,0-2.5Z"/><path class="cls-10" d="M121.2,211.4c0,0,0,1.1,0,2.5s0,2.5,0,2.5,0-1.1,0-2.5,0-2.5,0-2.5Z"/><path class="cls-10" d="M124.3,211.4c0,0-4,0-9,0s-9,0-9,0,4,0,9,0,9,0,9,0Z"/><path class="cls-5" d="M297.5,223.6c0,0-63.4.1-141.6.1s-141.6,0-141.6-.1,63.4-.1,141.6-.1,141.6,0,141.6.1Z"/><path class="cls-2" d="M292.9,154.7c-3.6,1.9-6.4,5.1-8.3,8.6-2,3.5-3.3,7.4-4.5,11.2l-1.1,19.8c4.2-7.1,7.5-15.5,8.4-23.7-.9,0-1.9-.2-2.8-.2,1.9-.3,3.4-1.6,4.4-3.2,1-1.6,1.5-3.5,2-5.3-1.1.2-2.3.3-3.4.5,2.7-1.8,4.6-4.6,5.3-7.7Z"/><g class="cls-8"><path d="M292.9,154.7c-3.6,1.9-6.4,5.1-8.3,8.6-2,3.5-3.3,7.4-4.5,11.2l-1.1,19.8c4.2-7.1,7.5-15.5,8.4-23.7-.9,0-1.9-.2-2.8-.2,1.9-.3,3.4-1.6,4.4-3.2,1-1.6,1.5-3.5,2-5.3-1.1.2-2.3.3-3.4.5,2.7-1.8,4.6-4.6,5.3-7.7Z"/></g><path class="cls-2" d="M278.3,199s-9.1-10.9-9-21.2h3.7s-4-2.6-3.7-4.1c.3-1.5.4-7,.4-7l3.4.8s-2.5-1.3-2.8-3.2.7-11.2.7-11.2c0,0,4.1,4.3,5.3,8.7s4.6,9.5,3.6,22.9-1.6,14.3-1.6,14.3Z"/><path class="cls-2" d="M282.9,200.1s9.8-6.6,12-14.9l-2.9-.8s3.8-1.2,3.8-2.5c0-1.2,1.2-5.7,1.2-5.7h-2.9c0,0,2.3-.5,3-2.1.7-1.5,1.9-9.2,1.9-9.2,0,0-4.2,2.6-6.2,5.8-2,3.3-5.7,6.7-7.9,17.7-2.2,11-2,11.7-2,11.7Z"/><path class="cls-5" d="M273.5,162.5s0,0,0,.1c0,0,0,.2,0,.3,0,.3.2.7.3,1.3.3,1.1.6,2.7,1,4.8.4,2,.8,4.4,1.2,7.1.4,2.7.8,5.6,1.2,8.7.4,3.1.6,6.1.8,8.8.2,2.7.3,5.1.4,7.2,0,2,.1,3.7.1,4.9,0,.6,0,1,0,1.3,0,.1,0,.3,0,.3,0,0,0,.1,0,.1,0,0,0,0,0-.1,0,0,0-.2,0-.3,0-.3,0-.8,0-1.3,0-1.1-.1-2.8-.2-4.9,0-2-.3-4.5-.5-7.2-.2-2.7-.5-5.7-.9-8.8-.4-3.1-.8-6.1-1.2-8.7-.4-2.7-.8-5.1-1.2-7.1-.4-2-.7-3.6-.9-4.8-.1-.5-.2-1-.3-1.3,0-.1,0-.2,0-.3,0,0,0-.1,0-.1Z"/><path class="cls-2" d="M277,205.7s-8.3-9.4-10.9-15.1l1.9-.8c-1.4.2-2.9-.4-4-1.3-1.1-.9-1.9-2.1-2.7-3.3l2.6-.4c-2.3-.7-4.4-2.2-5.6-4.3,3,.5,5.8,2.2,8,4.2,1.8,1.7,3.4,3.6,4.9,5.6.7,1,1.4,2,1.9,3.1,1.4,2.9,3.9,8.9,3.8,12.4Z"/><path class="cls-5" d="M295,170.4s0,0,0,0c0,0,0,.2-.1.3-.1.3-.3.6-.5,1-.4.9-1.1,2.2-1.8,3.9-1.5,3.3-3.5,7.8-5.5,13-2,5.1-3.6,9.9-4.6,13.3-.5,1.7-1,3.1-1.2,4.1-.1.5-.3.8-.3,1.1,0,.1,0,.2,0,.3,0,0,0,0,0,0,0,0,0,0,0-.1,0,0,0-.2,0-.3,0-.3.2-.7.3-1.1.3-1,.7-2.4,1.2-4.1,1-3.5,2.6-8.2,4.6-13.3,2-5.1,4-9.7,5.6-12.9.8-1.6,1.4-2.9,1.9-3.8.2-.4.4-.8.5-1,0-.1.1-.2.1-.3,0,0,0,0,0,0Z"/><path class="cls-5" d="M277.7,209.7s0-.2-.1-.7c0-.4-.2-1.1-.3-1.8-.3-1.5-.8-3.6-1.7-5.9-.8-2.2-1.8-4.2-2.6-5.5-.4-.7-.7-1.2-1-1.6-.2-.4-.4-.6-.3-.6,0,0,.2.2.4.5.3.4.6.9,1,1.6.8,1.3,1.8,3.3,2.7,5.5.8,2.3,1.4,4.4,1.6,5.9.1.8.2,1.4.3,1.8,0,.4,0,.7,0,.7Z"/><rect class="cls-11" x="270.5" y="207.5" width="18.2" height="3.7"/><polygon class="cls-11" points="272.2 211.2 274.2 223.7 285.2 223.7 287 211.2 272.2 211.2"/><path class="cls-5" d="M287.6,211.2c0,0-3.4.1-7.7.1s-7.7,0-7.7-.1,3.4-.1,7.7-.1,7.7,0,7.7.1Z"/><path class="cls-5" d="M33.1,212.6s-1.6-11.2-1.5-17.6c.1-6.5,0-13.8,0-13.8h.7s-.5,12.9,0,20.6c.6,7.8,2,10.8,2,10.8h-1.3"/><path class="cls-2" d="M37.9,168.6c-.2-.4-.3-.8-.7-1-.5-.3-1.1-.2-1.6,0-2.3.8-4.3,5-5.2,7.2l3,10.1c5.4-5,6.3-11.6,4.5-16.3Z"/><path class="cls-5" d="M37.1,168s0,0,0,.1c0,0,0,.2-.1.4-.1.3-.3.8-.5,1.4-.4,1.1-1,2.8-1.5,4.6-.5,1.8-.8,3.5-1.1,4.7-.1.6-.2,1.1-.2,1.4,0,.2,0,.3,0,.4,0,0,0,.1,0,.1s0,0,0-.1c0-.1,0-.2,0-.4,0-.3.1-.8.2-1.4.2-1.2.5-2.9,1-4.7.5-1.8,1.1-3.4,1.5-4.6.2-.6.4-1,.6-1.3,0-.1.1-.3.2-.4,0,0,0-.1,0-.1Z"/><path class="cls-2" d="M32.1,187.4c-2.8-1.6-4.5-4.5-4.6-7.7-.1-2.2.6-4.4,1.4-6.5,0-.2.1-.4.3-.5.2-.1.5,0,.8.1,2,1.2,3.3,3.4,3.9,5.6.4,1.5.7,3.1.5,4.6-.2,1.6-1.1,3.2-2.2,4.3"/><path class="cls-5" d="M32.1,187.4s0,0,0-.1c0-.1,0-.2,0-.4,0-.3,0-.8,0-1.4,0-1.2-.2-2.9-.5-4.7-.3-1.8-.7-3.4-1-4.6-.1-.6-.3-1-.3-1.4,0-.2,0-.3,0-.4,0,0,0-.1,0-.1,0,0,0,0,0,.1,0,0,0,.2.1.4,0,.3.2.8.4,1.4.3,1.2.7,2.8,1,4.6.3,1.8.5,3.5.5,4.7,0,.6,0,1.1,0,1.4,0,.2,0,.3,0,.4,0,0,0,.1,0,.1Z"/><g class="cls-8"><path d="M32.1,187.4c-2.8-1.6-4.5-4.5-4.6-7.7-.1-2.2.6-4.4,1.4-6.5,0-.2.1-.4.3-.5.2-.1.5,0,.8.1,2,1.2,3.3,3.4,3.9,5.6.4,1.5.7,3.1.5,4.6-.2,1.6-1.1,3.2-2.2,4.3"/></g><path class="cls-2" d="M35.3,204.4c2.8.6,5,2.6,7.7,3.5,1.8.6,3.8.8,5.2,2.1-.3-.9-1.1-1.4-1.9-1.9-2.2-1.4-4.5-2.5-7-3.3-1.3-.4-2.6-.8-3.9-.4"/><path class="cls-2" d="M31.3,206.9c-3.5,0-7.1-3-10.6-3.2,3.6-1.2,8.8-.2,10.6,3.2"/><path class="cls-2" d="M32.6,198.6c1.8-.6,3.7-.7,5.5-.4,1.8.3,3.6.9,5.4,1.5-.2-1.2-1.2-2.1-2.1-2.9-.7-.6-1.4-1.2-2.2-1.7s-1.7-.8-2.6-.7c-1.1,0-2.2.6-2.9,1.4-.7.8-1.1,1.7-1.2,2.8"/><path class="cls-2" d="M25.5,194.8c-2.2-1.9-5.5-1.7-8.4-1.6,4.4,2.1,9.2,5,13,8.1.1-2-1.8-4.1-4.6-6.5Z"/><g class="cls-8"><path d="M25.5,194.8c-2.2-1.9-5.5-1.7-8.4-1.6,4.4,2.1,9.2,5,13,8.1.1-2-1.8-4.1-4.6-6.5Z"/></g><path class="cls-2" d="M33.6,192.2c1.1-.7,2.2-1.4,3.4-1.9,1.1-.5,2.2-1.4,3.3-2,1.4-.8,2.7-1.9,4-2.8,1.3-1,2.8-1.8,4.4-2.1-1.3-.3-2.7-.1-4,.2-1.3.4-2.5.9-3.8,1.5-1.7.8-3.4,1.6-4.8,2.8-1.4,1.2-2.6,2.5-2.5,4.3"/><path class="cls-5" d="M42.9,206.9s0,0-.1,0c0,0-.2,0-.3-.2-.3-.1-.6-.3-1.1-.6-.2-.1-.5-.3-.8-.4-.3-.1-.6-.3-.9-.4-.6-.3-1.4-.6-2.1-.7-.8-.2-1.6-.2-2.2,0-.3,0-.7.2-.9.3-.3.1-.5.3-.8.4-.4.3-.8.6-1,.8-.2.2-.3.3-.3.3,0,0,0,0,0-.1,0,0,.1-.2.2-.3.2-.2.5-.5.9-.8.2-.1.5-.3.8-.4.3-.1.6-.2,1-.3.7-.2,1.5-.1,2.3,0,.8.2,1.5.5,2.2.8.3.1.6.3.9.4.3.1.5.3.8.4.5.2.8.5,1.1.6.1,0,.2.1.3.2,0,0,0,0,0,0Z"/><path class="cls-5" d="M28.7,205.2s0,0,.2,0c.1,0,.3.1.6.2.5.2,1.1.6,1.7,1.2.6.6,1,1.2,1.2,1.6.1.2.2.4.3.6,0,.1,0,.2,0,.2,0,0-.1-.3-.4-.7-.3-.4-.7-1-1.2-1.6-.6-.5-1.2-.9-1.6-1.2-.5-.2-.7-.4-.7-.4Z"/><path class="cls-5" d="M21,194.6s0,0,.1,0c.1,0,.2,0,.4.1.2,0,.4.1.7.2.3,0,.5.2.8.4,1.2.6,2.9,1.5,4.5,2.9.8.7,1.5,1.4,2.1,2.1.6.7,1.1,1.3,1.5,1.9.4.6.7,1,.9,1.3,0,.2.2.3.2.4,0,0,0,.1,0,.1,0,0,0,0,0-.1,0,0-.1-.2-.3-.4-.2-.3-.5-.8-.9-1.3-.4-.6-.9-1.2-1.5-1.9-.6-.7-1.3-1.4-2.1-2.1-1.6-1.3-3.2-2.3-4.5-2.9-.3-.1-.6-.3-.8-.4-.2-.1-.5-.2-.6-.3-.2,0-.3-.1-.4-.2,0,0-.1,0-.1,0Z"/><path class="cls-5" d="M37.8,196.6s-.1,0-.3,0c0,0-.2,0-.3,0-.1,0-.3,0-.4,0-.6,0-1.5,0-2.4.5-.4.2-.8.5-1.1.8-.3.3-.5.6-.7.9-.3.5-.5.9-.5.9,0,0,0,0,0-.3,0-.2.2-.4.3-.7.2-.3.4-.6.7-.9.3-.3.7-.6,1.1-.8.9-.5,1.8-.5,2.4-.4.2,0,.3,0,.4,0,.1,0,.2,0,.3,0,.2,0,.3,0,.3,0Z"/><path class="cls-5" d="M41.3,185.8s0,0-.1,0c0,0-.2.1-.4.2-.3.2-.8.4-1.4.8-.6.4-1.3.8-2,1.3-.7.5-1.5,1.1-2.2,1.9-.4.4-.7.8-.9,1.2-.2.4-.4.9-.6,1.3-.4.8-.7,1.6-1,2.2-.2.6-.4,1.2-.5,1.5,0,.4-.1.6-.1.6,0,0,0,0,0-.2,0-.1,0-.2,0-.4,0-.4.2-.9.4-1.6.2-.6.5-1.4.9-2.2.2-.4.4-.8.6-1.3.2-.4.6-.8.9-1.2.7-.8,1.5-1.4,2.3-1.9.7-.5,1.4-.9,2-1.3.6-.3,1.1-.6,1.4-.8.2,0,.3-.1.4-.2,0,0,.1,0,.1,0Z"/><path class="cls-5" d="M31.6,196.3s0-.1,0-.3c0-.2,0-.5-.2-.8-.1-.7-.3-1.6-.7-2.6-.3-1-.7-1.9-1-2.5-.1-.3-.2-.5-.3-.7,0-.2-.1-.3-.1-.3,0,0,0,0,.2.3,0,.2.2.4.4.7.3.6.7,1.5,1,2.5.3,1,.5,1.9.6,2.6,0,.3,0,.6.1.8,0,.2,0,.3,0,.3Z"/><path class="cls-2" d="M31.4,188.4c0-1.3-.5-2.6-1.1-3.7-1.7-3.2-4.8-5.5-8.4-6.2,2.6,3.8,5.2,7.7,7.7,11.5l1,2.1c.7-1.1.8-2.3.7-3.6Z"/><rect class="cls-11" x="24.4" y="211.2" width="18" height="3.2"/><polygon class="cls-11" points="25.8 213.8 27.3 223.7 39.3 223.7 41.1 213.8 25.8 213.8"/><path class="cls-5" d="M42.5,214.4s-4.1,0-9.1,0-9.1,0-9.1,0,4.1,0,9.1,0,9.1,0,9.1,0Z"/><path class="cls-5" d="M100.3,63.8l.6-1.4c.7.5,1.6.8,2.6.8s1.5-.4,1.5-.9c0-1.5-4.5-.5-4.5-3.5s1.1-2.5,3.3-2.5,2,.2,2.7.7l-.6,1.4c-.7-.4-1.5-.6-2.1-.6-1.1,0-1.5.4-1.5.9,0,1.5,4.5.5,4.5,3.4s-1.1,2.5-3.3,2.5-2.5-.4-3.1-.9Z"/><path class="cls-5" d="M107.4,61.5c0-1.9,1.4-3.2,3.3-3.2s3.3,1.3,3.3,3.2-1.4,3.2-3.3,3.2-3.3-1.3-3.3-3.2ZM112.2,61.5c0-1.1-.7-1.7-1.5-1.7s-1.5.6-1.5,1.7.7,1.7,1.5,1.7,1.5-.6,1.5-1.7Z"/><path class="cls-5" d="M118.8,58.3v1.7c-.1,0-.3,0-.4,0-.9,0-1.6.5-1.6,1.7v2.9h-1.7v-6.2h1.6v.8c.4-.6,1.1-.9,2-.9Z"/><path class="cls-5" d="M123.5,58.3v1.7c-.1,0-.3,0-.4,0-.9,0-1.6.5-1.6,1.7v2.9h-1.7v-6.2h1.6v.8c.4-.6,1.1-.9,2-.9Z"/><path class="cls-5" d="M130.6,58.4l-2.7,6.6c-.6,1.5-1.4,1.9-2.5,1.9s-1.3-.2-1.7-.6l.6-1.3c.3.2.6.4,1,.4s.7-.2,1-.8h0c0,0-2.6-6.3-2.6-6.3h1.8l1.7,4.2,1.7-4.2h1.7Z"/><path class="cls-5" d="M132.7,63.6c0,.3,0,.5-.3,1.2l-.6,1.7h-1.1l.5-1.8c-.4-.2-.6-.5-.6-1,0-.7.5-1.1,1.1-1.1s1.1.4,1.1,1.1Z"/><path class="cls-5" d="M143.8,59.5c0,1.8-1.3,2.9-3.4,2.9h-1.6v2.2h-1.8v-8.1h3.3c2.1,0,3.4,1.1,3.4,2.9ZM142,59.5c0-.9-.6-1.4-1.6-1.4h-1.5v2.8h1.5c1.1,0,1.6-.5,1.6-1.4Z"/><path class="cls-5" d="M150.2,61.1v3.5h-1.6v-.8c-.3.6-.9.9-1.8.9-1.4,0-2.2-.8-2.2-1.9s.7-1.9,2.6-1.9h1.4c0-.8-.4-1.2-1.4-1.2s-1.3.2-1.7.6l-.6-1.3c.7-.5,1.6-.7,2.6-.7,1.8,0,2.9.9,2.9,2.8ZM148.5,62.7v-.6h-1.2c-.8,0-1.1.3-1.1.7s.4.7,1,.7,1.1-.3,1.3-.8Z"/><path class="cls-5" d="M157.9,58.4v5.2c0,2.3-1.2,3.4-3.3,3.4s-2.2-.3-2.9-.9l.7-1.3c.5.4,1.3.7,2.1.7,1.2,0,1.7-.6,1.7-1.7v-.3c-.5.5-1.1.8-1.9.8-1.6,0-3-1.2-3-3s1.3-3,3-3,1.5.3,2,.9v-.8h1.6ZM156.2,61.3c0-.9-.7-1.5-1.6-1.5s-1.6.6-1.6,1.5.7,1.5,1.6,1.5,1.6-.6,1.6-1.5Z"/><path class="cls-5" d="M165.3,62h-4.5c.2.8.8,1.2,1.7,1.2s1.1-.2,1.5-.6l.9,1c-.6.7-1.4,1-2.5,1-2.1,0-3.4-1.3-3.4-3.2s1.4-3.2,3.2-3.2,3.1,1.2,3.1,3.2,0,.3,0,.5ZM160.8,61h2.9c-.1-.8-.7-1.3-1.5-1.3s-1.3.5-1.5,1.3Z"/><path class="cls-5" d="M175.7,61.1v3.6h-1.7v-3.3c0-1-.4-1.5-1.2-1.5s-1.4.5-1.4,1.7v3.1h-1.7v-6.2h1.6v.7c.5-.5,1.2-.8,2-.8,1.4,0,2.5.9,2.5,2.7Z"/><path class="cls-5" d="M176.9,61.5c0-1.9,1.4-3.2,3.3-3.2s3.3,1.3,3.3,3.2-1.4,3.2-3.3,3.2-3.3-1.3-3.3-3.2ZM181.7,61.5c0-1.1-.7-1.7-1.5-1.7s-1.5.6-1.5,1.7.7,1.7,1.5,1.7,1.5-.6,1.5-1.7Z"/><path class="cls-5" d="M188.4,64.3c-.4.3-.9.4-1.4.4-1.4,0-2.2-.7-2.2-2.2v-2.5h-.9v-1.4h.9v-1.5h1.7v1.5h1.5v1.4h-1.5v2.5c0,.5.3.8.7.8s.5,0,.7-.2l.5,1.3Z"/><path class="cls-5" d="M194.4,58.5h1.5v1.4h-1.5v4.7h-1.7v-4.7h-.9v-1.4h.9v-.3c0-1.4.8-2.3,2.3-2.3s1,.1,1.3.3l-.5,1.3c-.2-.1-.4-.2-.7-.2-.5,0-.8.3-.8.9v.3Z"/><path class="cls-5" d="M196.3,61.5c0-1.9,1.4-3.2,3.3-3.2s3.3,1.3,3.3,3.2-1.4,3.2-3.3,3.2-3.3-1.3-3.3-3.2ZM201,61.5c0-1.1-.7-1.7-1.5-1.7s-1.5.6-1.5,1.7.7,1.7,1.5,1.7,1.5-.6,1.5-1.7Z"/><path class="cls-5" d="M209.9,58.4v6.2h-1.6v-.7c-.5.5-1.1.8-1.8.8-1.5,0-2.5-.9-2.5-2.8v-3.5h1.7v3.2c0,1,.4,1.5,1.2,1.5s1.4-.5,1.4-1.7v-3.1h1.7Z"/><path class="cls-5" d="M217.6,61.1v3.6h-1.7v-3.3c0-1-.4-1.5-1.2-1.5s-1.4.5-1.4,1.7v3.1h-1.7v-6.2h1.6v.7c.5-.5,1.2-.8,2-.8,1.4,0,2.5.9,2.5,2.7Z"/><path class="cls-5" d="M225.3,56.1v8.6h-1.6v-.7c-.4.5-1.1.8-1.9.8-1.7,0-3-1.2-3-3.2s1.3-3.2,3-3.2,1.3.2,1.8.7v-3h1.7ZM223.6,61.5c0-1.1-.7-1.7-1.5-1.7s-1.5.6-1.5,1.7.7,1.7,1.5,1.7,1.5-.6,1.5-1.7Z"/><path class="cls-5" d="M226.6,63.7c0-.6.4-1,1.1-1s1.1.4,1.1,1-.4,1-1.1,1-1.1-.5-1.1-1ZM226.6,56.5h2.1l-.3,5.3h-1.4l-.3-5.3Z"/><rect class="cls-11" x="132.8" y="72.8" width="63.6" height="12.4" rx="6.2" ry="6.2"/><text class="cls-3" transform="translate(138.7 81.6)"><tspan x="0" y="0">Please Try Later</tspan></text><path class="cls-13" d="M260.9,140.9s-3.1,0-4.8,1.7l2.5,4.4,4.7-.9.4-1.5.8-2.8-3.6-.9Z"/><path class="cls-2" d="M230,137s1.5.9,1.9,2c.4,1,8.9,7.1,8.9,7.1l1.1-.3,13.7-4.2,3.4,6.2-17,6.4c-.5.1-12.5-3.8-12.5-3.8l.5-13.3Z"/><path class="cls-11" d="M262.5,151.2l-10.4-3.3-4.3,13.5-14.5-4.6,4.3-13.5-34.5-11,3.2-10,43.2-31,15.6,5-40.3,29.6,17.2,5.5,3.8-12,14,4.5-3.8,12,10.4,3.3-3.9,12.1Z"/><g class="cls-8"><path d="M262.5,151.2l-10.4-3.3-4.3,13.5-14.5-4.6,4.3-13.5-34.5-11,3.2-10,43.2-31,15.6,5-40.3,29.6,17.2,5.5,3.8-12,14,4.5-3.8,12,10.4,3.3-3.9,12.1Z"/></g><path class="cls-11" d="M258.6,150l-10.4-3.3-4.3,13.5-14.5-4.6,4.3-13.5-34.5-11,3.2-10,43.2-31,15.6,5-40.3,29.6,17.2,5.5,3.8-12,14,4.5-3.8,12,10.4,3.3-3.9,12.1Z"/><g class="cls-8"><path d="M231.5,141.4v-4.2c-.1,0,.2-2.1.2-2.1,0,0,4,.1,4.8-1.3.8-1.4,1.6-3.7,1.6-3.7l-4.9-1.2-3.6,5.7-1.1,2.8,1.7,3.6,1.3.4Z"/></g><path class="cls-5" d="M224.9,123.6c0-1.7.2-3.3.6-5,.4-1.6,1-3.2,2.1-4.5.2-.2,1.4-1.4,1.7-1.3.2,0-.8,1.3-.8,1.5.3,1.7-.1,3.5-.9,5s-1.6,2.9-2.7,4.2"/><path class="cls-13" d="M230.3,135.6c.4-1.1.8-2,.8-2,0,0,3.9,1.1,5.6-2.6.8-1.8,2.2-5.5,3.4-9,1.3-3.7-.4-7.7-4-9.3l-.4-.2c-3.9-1.5-7.4,1-8.8,5l-5.3,13.7,1.4,4.2c1.1,3.3,5.8,3.4,7.1.1h0Z"/><path class="cls-9" d="M231.1,133.7s-2.4-.9-4.1-3.6c0,0,0,3.2,3.8,4.5l.4-.9Z"/><path class="cls-5" d="M236.6,124.8c-.1.3-.4.4-.7.3-.3-.1-.4-.4-.3-.7.1-.3.4-.4.7-.3.3.1.4.4.3.7Z"/><path class="cls-5" d="M238.7,123.3c0,0-.4-.4-.9-.7-.6-.3-1.1-.2-1.1-.3,0,0,.1-.1.3-.2.2,0,.6,0,.9.1.4.2.6.4.7.6.1.2.1.4,0,.4Z"/><path class="cls-5" d="M231.8,122.8c-.1.3-.4.4-.7.3-.3-.1-.4-.4-.3-.7.1-.3.4-.4.7-.3.3.1.4.4.3.7Z"/><path class="cls-5" d="M233.3,121.1c0,0-.4-.4-.9-.7-.6-.3-1.1-.2-1.1-.3,0,0,.1-.1.3-.2.2,0,.6,0,.9.1.4.2.6.4.7.6.1.2.1.4,0,.4Z"/><path class="cls-5" d="M233.1,126.3s.4,0,1,.2c.2,0,.3,0,.4,0,0,0,0-.3,0-.5,0-.4,0-.8,0-1.3.1-1.8.3-3.3.3-3.3,0,0,0,1.5,0,3.3,0,.4,0,.9,0,1.3,0,.2,0,.4-.2.6,0,0-.2.1-.3.1-.1,0-.2,0-.3,0-.6-.2-.9-.4-.9-.4Z"/><path class="cls-5" d="M234.1,119.2c-.1.1-.6-.3-1.3-.6-.6-.3-1.2-.5-1.2-.7,0,0,.2-.2.5-.2.3,0,.7,0,1.1.3.4.2.7.5.8.7.2.2.2.4.1.5Z"/><path class="cls-5" d="M239.4,121.2c-.2,0-.5-.2-1-.4-.5-.2-.9-.3-.9-.5,0,0,.1-.2.3-.2.2,0,.6,0,.9.1.3.2.5.4.6.6.1.2.1.4,0,.4Z"/><path class="cls-13" d="M226.1,120.4c0,0-2.2-1.9-3.2.7-1,2.5,1.7,3.1,1.8,3,0,0,1.5-3.7,1.5-3.7Z"/><path class="cls-9" d="M224.2,122.8s0,0-.1,0c0,0-.2,0-.3-.1-.2-.2-.3-.7-.1-1.2,0-.2.2-.4.4-.6.2-.2.3-.2.5-.2.1,0,.2.1.2.2,0,0,0,.1,0,.1,0,0,0,0,0-.1,0,0,0-.1,0-.2,0,0-.1-.1-.2-.2-.2,0-.5,0-.6.2-.2.2-.3.4-.4.6-.2.5-.1,1.1.2,1.4.2.1.3.1.4,0,.1,0,.1,0,.1,0Z"/><path class="cls-5" d="M240.2,117.2c.5,0-.2-1.9-1-2.8-1.3-1.3-3.4-2.7-5-2.8-1.9-.2-3.7,0-5.1,1.3-1.5,1.2-2.5,2.9-3.2,4.7-.2.5-.4,1.1-.3,1.7.1.7.7,1.3.3,2.1-.1.3-.2.6,0,.9.3.7,1,.4,1.5,0,1-.8,1.5-1.9,2-3.1.4-.8.7-1.6.8-2.5,0-.5,0-1,0-1.4,0-.5.3-1,.7-1.2,0,0,.2,0,.3-.1,1-.3,2.1-.1,2.8.6,1.2,1.1,3.4,2.8,4.2,2.6,1.2-.3,1.6-.7,1.6-.7l.3.7Z"/><path class="cls-5" d="M233.2,128.3s-.1,0-.4,0c-.2,0-.6-.2-.8-.4-.3-.2-.4-.6-.5-.8,0-.2,0-.4,0-.4.1,0,.2.5.7.9.4.4,1,.5.9.6Z"/><path class="cls-9" d="M234.4,106.2c0,0-.7,1.2-1.6,2.7-.9,1.4-1.7,2.6-1.8,2.6,0,0,.7-1.2,1.6-2.7.9-1.4,1.7-2.6,1.8-2.6Z"/><path class="cls-5" d="M223.2,185.4l8,7.6s-3.9,25.9-3.2,25.9c.7,0,9.5.7,9.5.7,0,0,5.8-30,5.3-31.7s-14.4-15.6-14.4-15.6l-.2-2.4-4-.5-1.1,16Z"/><path class="cls-5" d="M208.2,175c.8,1.7,2.1,3.8,2.3,5.6l4.9,17.7-17.3,21.1,7.7,6.5s20.9-22.5,21.6-25.3c.6-2.2-1.8-24.5-1.8-24.5l.8-6.4-18-4.3h0c-1.5,3-1.5,6.6-.2,9.6Z"/><path class="cls-5" d="M209.9,219.9l-5.6,6.5s4.3,7.6,3.4,8.9l-12.2-9.9,8.3-10.4,6.1,5Z"/><path class="cls-12" d="M200.9,222.8c-.3-.1-.7,0-.8.3-.1.3,0,.7.3.8.3.1.8,0,.9-.3.1-.3,0-.8-.4-.8"/><path class="cls-2" d="M195.4,225.4l.9-1,11.4,9.9s.3.7,0,1l-12.2-9.9Z"/><path class="cls-4" d="M204.5,226.5c0,0-.4-.2-.8-.2-.5,0-.8.1-.9,0,0,0,.3-.4.9-.3.6,0,.9.4.8.5Z"/><path class="cls-4" d="M205.3,228.1c0,0-.4,0-.8,0-.4,0-.7.3-.8.3,0,0,.2-.4.7-.6.5-.1.9.1.8.2Z"/><path class="cls-4" d="M204.8,230.3c0,0,.1-.4.5-.6.4-.2.8-.1.8,0,0,0-.3.1-.7.3-.4.2-.6.4-.7.4Z"/><path class="cls-4" d="M205.6,224.9c0,0-.3-.3-.6-.5-.4-.3-.7-.3-.7-.4,0,0,.4,0,.9.2.4.3.5.7.5.7Z"/><path class="cls-5" d="M237.2,214.4v8.7c-.1,0,8.2,3.1,8.4,4.7l-16,.3-.4-13.6h8Z"/><path class="cls-12" d="M232.1,222.5c-.3,0-.5.5-.4.8,0,.3.4.6.7.5.3,0,.6-.5.5-.8-.1-.3-.5-.6-.8-.4"/><path class="cls-2" d="M229.6,228.1v-1.4s15.3.2,15.3.2c0,0,.7.3.7.8l-16,.3Z"/><path class="cls-4" d="M237.4,223c0,0-.4.1-.8.4-.4.3-.6.6-.6.6,0,0,0-.5.5-.8.5-.3.9-.2.9-.2Z"/><path class="cls-4" d="M239.1,223.7c0,0-.3.2-.6.6-.3.3-.3.7-.4.7,0,0-.1-.5.2-.9.3-.4.8-.5.8-.4Z"/><path class="cls-4" d="M240.1,225.8c0,0-.2-.4,0-.8.2-.5.6-.6.6-.6,0,0-.2.3-.3.7-.2.4-.2.7-.3.7Z"/><path class="cls-4" d="M237.2,221c0,0-.4,0-.8,0-.4,0-.8.2-.8.1,0,0,.3-.4.8-.4.5,0,.9.2.9.3Z"/><path class="cls-2" d="M225.8,174.6s0,0,0,.2c0,.2,0,.4,0,.7,0,.6.2,1.4.3,2.5.2,2.1.4,4.9.6,8.1.2,3.2.4,6,.5,8.1,0,1,.1,1.8.1,2.5,0,.3,0,.5,0,.7,0,.2,0,.2,0,.2,0,0,0,0,0-.2,0-.2,0-.4,0-.7,0-.6-.1-1.4-.2-2.5-.2-2.1-.4-4.9-.6-8.1-.2-3.2-.4-6-.6-8.1,0-1-.1-1.8-.2-2.5,0-.3,0-.5,0-.7,0-.2,0-.2,0-.2Z"/><path class="cls-13" d="M268,140.7c.3.6-1,1.2-1,1.2.3.3,0,1.3-.5,1.4.2.2.4.2.5.5.1.3,0,.6,0,.8-.2.2-.5.4-.8.3.3.3.3.9,0,1.2-.1.2-.4.4-.6.5-.1,0-.3,0-.4,0,0,0-.1,0-.1,0,0,0,0,0,0,0,0,0-.1-.2-.2-.2,0,0,0,0,0,0-.1-.1-.3-.2-.5-.3,0,0-.2,0-.2,0,0,0,0,0-.1-.1-.3-.2-.7-.3-1-.4-.4-.1-.8-.3-1-.6-.3-.3-.3-.8,0-1.1-.3,0-.4-.3-.4-.6,0-.3.2-.5.4-.6.2-.1.5-.1.7-.1-.3,0-.4-.4-.3-.7,0-.3.4-.5.7-.5.3,0,.6,0,.9,0,.3,0,1.5.3,1.8.3l.3-.8h0c.5-.2.7-.2,1.2-.2.4,0,.7,0,.8.3Z"/><path class="cls-13" d="M265.1,147.7c0,.2-.2.5-.4.6-.3.1-.8,0-1.1-.1,0,0,.2-.8.2-.8v-.2c0-.2-.4-.3-.5-.4-.3-.2-.3-.6,0-.9.2-.3.6-.3.9-.3.3,0,.6.3.8.6.3.5.3,1,.2,1.5Z"/><path class="cls-9" d="M266.3,144.9c0,0-1-.4-2.2-.7-1.2-.3-2.2-.6-2.2-.5,0,0,1,.4,2.2.7,1.2.3,2.2.6,2.2.5Z"/><path class="cls-9" d="M266.6,143.4c0,0-.8-.4-2-.7-1.1-.3-2.1-.3-2.1-.3,0,0,.9.2,2,.5,1.1.3,2,.6,2,.5Z"/><path class="cls-9" d="M266.9,141.8c0,0-.7-.3-1.6-.5-.9-.2-1.7-.3-1.7-.2,0,0,.7.3,1.7.5.9.2,1.7.4,1.7.3Z"/><path class="cls-9" d="M265.1,147.2s.1-.1,0-.4c0-.3-.2-.6-.5-.8-.3-.2-.6-.4-.8-.5-.3,0-.4.1-.4.1,0,0,.1,0,.3,0,.2,0,.5.3.7.5.3.2.4.5.5.7,0,.2,0,.4,0,.4Z"/><path class="cls-5" d="M229.4,154.8s0-.2,0-.6c0-.5,0-1,.2-1.7.1-1.5.3-3.5.4-5.7,0-2.2,0-4.3,0-5.7,0-.7,0-1.3,0-1.7,0-.4,0-.6,0-.6,0,0,0,.2,0,.6,0,.4,0,1,0,1.7,0,1.5,0,3.5,0,5.8,0,2.2-.3,4.3-.5,5.7,0,.7-.2,1.3-.2,1.7,0,.4-.1.6-.1.6Z"/><path class="cls-2" d="M222.7,128.6c-.4.2-7.7,3.8-9.3,5.5-1.6,1.7-3.9,12.9-3.9,12.9l-1.7,9.9-1.4,14.7,22.8.3c.9-2,.3-4.1-.8-6.2l1.8-23.3-.3-5.4-7.3-8.4Z"/><path class="cls-2" d="M212.9,140.5s-3.8-1.6-4.2-4.1c-.4-2.4,0-3.1.7-4.1.6-1,12.3-13.5,12.3-13.5l5.7,4.7-8.2,9.7s1.2.2.8,1.7"/><path class="cls-5" d="M220,135s0-.2,0-.6c0-.2,0-.4-.2-.6-.1-.2-.4-.4-.7-.5h0s0,0,0,0c1.6-1.9,4.5-5.4,8.2-9.7h0c-1.8-1.3-3.7-2.9-5.7-4.5h.2c-.7.7-1.4,1.5-2.2,2.3-2.4,2.6-4.7,5-6.7,7.3-1,1.1-2,2.2-2.9,3.2-.2.3-.4.5-.6.8-.2.3-.3.5-.5.8-.3.6-.3,1.2-.3,1.7,0,.6,0,1.1.2,1.6.1.5.4.9.7,1.3.6.7,1.2,1.2,1.7,1.6.5.4,1,.6,1.3.8.1,0,.3.1.3.2,0,0,.1,0,.1,0,0,0,0,0-.1,0,0,0-.2,0-.4-.2-.3-.1-.8-.4-1.3-.7-.5-.4-1.2-.8-1.8-1.5-.3-.4-.5-.8-.7-1.3-.1-.5-.2-1.1-.2-1.6,0-.6,0-1.2.3-1.8.3-.6.6-1.1,1.1-1.6.9-1,1.9-2.1,2.9-3.2,2.1-2.3,4.3-4.7,6.7-7.3.7-.8,1.5-1.6,2.2-2.3h0c0,0,0,0,0,0,2,1.7,3.9,3.3,5.7,4.7h0c0,0,0,.1,0,.1-3.7,4.3-6.6,7.8-8.3,9.7h0c.4,0,.6.2.8.5.1.2.2.5.1.7,0,.2,0,.3,0,.4,0,0,0,.1,0,.1Z"/><path class="cls-13" d="M222.5,108.9s-.7-.5-.8.6.9,5.6,1.1,5.6c.1,0,.8,2.6.7,2.9s-1.1,1.4-1.1,1.4l4.5,3.7,1.4-2.5s1.6-.6,2.7-2.1c1-1.5,4.9-7.2,5-8,.1-.8-.7-.9-1.3-.1-.6.8-2,2.6-2.2,2.7-.2,0-.4-.2-.3-.4.1-.2,2.7-4.3,2.9-5.1.3-1-.8-1.2-.8-1.2,0,0,.4-1.1-.2-1.3-.6-.2-1.1.3-1.7,1.2-.6.9-2.7,3.9-2.9,4-.2.1-.4,0-.2-.4.2-.4,2.7-4,2.7-4.5,0-.5-.4-1.3-1.4-.2-1.1,1.1-3.4,5.6-3.8,6-.4.4-1.4,1.6-1.9,1.5-.4-.1-1.4-1.4-1.6-2.4-.2-.9-.9-1.3-.9-1.3Z"/><path class="cls-9" d="M222.5,108.9s.2,0,.4.4c.1.2.3.4.4.6,0,.1,0,.3.1.4,0,.2.1.3.2.5.2.3.4.7.7,1,.3.3.7.9,1.1.4.4-.3.8-.7,1.2-1.2.2-.2.4-.5.5-.8.2-.3.3-.6.5-.9.7-1.2,1.4-2.5,2.4-3.9.2-.3.5-.7.9-.9.2-.1.4-.3.6-.2.3,0,.5.3.5.5,0,.1,0,.2,0,.3,0,0,0,.1,0,.2v.2c-.2.2-.3.4-.4.6-.2.4-.5.8-.7,1.2-.5.8-1,1.6-1.5,2.4,0,0-.1.2-.1.3,0,0,0,0,0,0,0,0,0,0,0,0h0s0-.1,0-.1c0,0,0,0,.1-.1l.2-.3c.3-.4.6-.8.9-1.2.6-.8,1.2-1.7,1.8-2.6.2-.2.3-.4.5-.6.2-.2.5-.4.8-.4.2,0,.3,0,.4.2.1.1.2.3.2.4,0,.3,0,.6-.1.9h0c.3,0,.7.1.9.5.2.4,0,.8-.1,1.1-.3.6-.6,1.2-1,1.8-.4.6-.7,1.2-1.1,1.8-.2.3-.4.6-.5.9v.2c-.1,0-.2.1-.2.1,0,0,0,0,0,0,0,0,0,.1,0,.2,0,0,0,0,.1,0,0,0,.1-.1.2-.2l.2-.2c.1-.2.3-.3.4-.5.3-.3.5-.6.8-1,.3-.3.5-.6.8-1,.2-.2.3-.3.6-.3.2,0,.5,0,.7.2.1.2.1.5,0,.7,0,.1,0,.2-.1.3,0,0,0,.2-.1.3-.2.4-.4.7-.6,1-.4.7-.8,1.3-1.2,2-.8,1.3-1.7,2.5-2.5,3.7-.2.3-.4.6-.6.9-.2.3-.5.6-.7.8-.5.5-1.1.8-1.8,1.1h0c-.5.8-1,1.7-1.4,2.5h0c0,0,0,0,0,0-1.6-1.3-3.1-2.6-4.5-3.7h0c0,0,0-.1,0-.1.3-.3.6-.7.9-1,0,0,.1-.2.2-.3,0,0,0-.2,0-.3,0-.2,0-.4,0-.6,0-.4-.2-.8-.3-1.2,0-.2-.1-.4-.2-.5,0,0,0-.2,0-.3,0,0,0,0,0-.1,0,0,0,0,0,0,0,0,0,0,0,0,0,0,0,0,0,0h0s0,0,0,0c-.2-.7-.4-1.4-.5-2-.1-.6-.2-1.2-.3-1.7-.1-1-.3-1.8,0-2.3,0-.1.2-.2.3-.2.1,0,.2,0,.3,0,.1,0,.2.1.2.1,0,0,0,0-.2,0,0,0-.1,0-.2,0,0,0-.2.1-.2.2-.2.5,0,1.3,0,2.3.2,1,.4,2.2.9,3.6,0,0,0,0,0,0h0s0,0,0,0c0,0,0,0,0,0,0,0,0,0,0,0,0,0,0,0,0,0,0,0,0,0,0,0,0,0,0,0,0,.1,0,0,0,.2,0,.3,0,.2.1.4.2.6.1.4.2.8.3,1.2,0,.2,0,.4,0,.6,0,0,0,.1,0,.2,0,0,0,.1,0,.2,0,.1-.1.2-.2.3-.3.4-.6.7-.9,1h0c1.4,1,2.9,2.3,4.6,3.6h-.1c.5-.8.9-1.6,1.4-2.5h0s0,0,0,0c.6-.2,1.2-.6,1.7-1.1.3-.2.5-.5.7-.8.2-.3.4-.6.6-.9.8-1.2,1.6-2.5,2.5-3.7.4-.6.8-1.3,1.2-2,.2-.3.4-.7.6-1,0,0,0-.2.1-.3,0,0,0-.2.1-.3,0-.2,0-.4,0-.5,0-.1-.3-.2-.4,0-.2,0-.3.2-.5.3-.3.3-.5.6-.7.9-.3.3-.5.6-.8,1-.1.2-.3.3-.4.5l-.2.2c0,0-.1.2-.3.2-.1,0-.3,0-.4,0,0,0-.1-.2-.1-.3,0,0,0-.1,0-.2h0c0-.1.1-.3.1-.3.2-.3.4-.6.5-.9.4-.6.7-1.2,1.1-1.8.3-.6.7-1.2,1-1.8.1-.3.2-.6.1-.9-.1-.3-.4-.4-.7-.5h-.1s0-.1,0-.1c0-.2.1-.5.1-.8,0-.1,0-.2-.1-.3,0,0-.2-.1-.3-.1-.2,0-.5.1-.6.3-.2.2-.4.4-.5.6-.6.9-1.2,1.7-1.8,2.6-.3.4-.6.8-.9,1.2l-.2.3s0,0-.1.1h0c0,.1,0,.1,0,.2,0,0-.2,0-.3,0-.1,0-.1-.2-.1-.2,0-.2,0-.3.1-.4.5-.8,1-1.6,1.5-2.4.2-.4.5-.8.7-1.2.1-.2.2-.4.3-.6h0c0-.2,0-.2,0-.3,0-.1,0-.2,0-.3,0-.2-.2-.4-.4-.4-.2,0-.4,0-.5.2-.3.2-.6.6-.8.9-.9,1.3-1.7,2.6-2.4,3.8-.2.3-.3.6-.5.9-.2.3-.3.6-.6.8-.4.4-.8.9-1.3,1.2-.1,0-.2.2-.4.2,0,0-.2,0-.2,0,0,0-.1,0-.2-.1-.2-.2-.4-.3-.5-.5-.3-.4-.5-.7-.7-1.1,0-.2-.1-.3-.2-.5,0-.2,0-.3-.1-.4,0-.3-.2-.5-.3-.6-.1-.2-.2-.3-.3-.3,0,0-.1,0-.1,0Z"/><path class="cls-2" d="M219.2,133.3c-.7,1.1-1.3,2.2-2.2,3.2s-2.1,1.6-3.4,1.6"/><path class="cls-5" d="M213.5,138.1s.4,0,1.1-.3c.7-.2,1.5-.7,2.2-1.5.7-.8,1.3-1.6,1.7-2.1.4-.6.6-1,.6-.9,0,0-.2.4-.5,1-.4.6-.9,1.4-1.6,2.2-.8.8-1.7,1.3-2.4,1.4-.3,0-.6.1-.8.1-.2,0-.3,0-.3,0Z"/><path class="cls-5" d="M219.6,136.6s-.2.4-.6.9c-.4.5-1.1,1.1-2,1.6-.9.5-1.7.9-2.3,1-.6.2-1,.2-1,.2,0,0,1.6-.3,3.3-1.4,1.7-1,2.7-2.4,2.7-2.3Z"/><g class="cls-8"><path d="M213.7,137.9c1.1.4,2.1.5,3.1,0,1-.5,1.9-1.4,2.3-2.4.3-.8.4-1.6.7-2.4.8-1.7,2.8-2.7,3.2-4.5-1.6,1.8-3.1,3.3-4.3,5.4-.5.9-1.3,1.9-2.3,2.7-.9.7-1.5,1-2.8,1.1"/></g><g class="cls-8"><path d="M229.8,150.4l1,.3s.4-7.5-.7-9.8l-.3,9.5Z"/></g><path class="cls-13" d="M131.2,130.8l-2.9-16c-.8-4,.8-7.8,4.7-8.5h.4c3.7-.5,7.2,2,8,5.7.7,3.4,1.5,7.2,1.7,9.1.4,3.9-3.3,4.9-3.3,4.9,0,0,.4,2.3.6,3.5l1.3,2.5-3.3-.2-7.2-.9Z"/><path class="cls-6" d="M139.8,126s-2.4.4-5.2-.9c0,0,1.6,2.7,5.4,1.9l-.2-1.1Z"/><path class="cls-5" d="M140.4,115.7c0,.3-.2.6-.5.6-.3,0-.6-.1-.6-.4,0-.3.2-.6.5-.6.3,0,.6.1.6.4Z"/><path class="cls-5" d="M140.9,113.7c0,0-.5-.2-1.1-.1-.6,0-1,.4-1.1.4,0,0,0-.2.2-.3.2-.2.5-.3.8-.4.4,0,.7,0,.9.2.2.1.3.2.2.3Z"/><path class="cls-5" d="M135.2,116.3c0,.3-.2.6-.5.6-.3,0-.6-.1-.6-.4,0-.3.2-.6.5-.6.3,0,.6.1.6.4Z"/><path class="cls-5" d="M135.1,114.6c0,0-.5-.2-1.1-.1-.6,0-1,.4-1.1.4,0,0,0-.2.2-.3.2-.2.5-.3.8-.4.4,0,.7,0,.9.2.2.1.3.2.2.3Z"/><path class="cls-5" d="M137.8,118.9s.4-.1.9-.3c.1,0,.3,0,.3-.2,0-.1,0-.3-.2-.4-.2-.3-.4-.7-.6-1.1-.8-1.6-1.4-2.9-1.4-2.9,0,0,.8,1.2,1.6,2.8.2.4.4.8.6,1.1,0,.2.2.3.2.6,0,.1-.1.2-.2.3,0,0-.2,0-.3,0-.6.1-1,.2-1,.1Z"/><path class="cls-5" d="M135,112.7c0,.2-.7,0-1.4.1-.7,0-1.3.3-1.4.1,0,0,0-.2.3-.4.2-.2.6-.3,1-.3.4,0,.8,0,1.1.1.3.1.4.2.4.3Z"/><path class="cls-5" d="M140.7,112c-.1.2-.6,0-1.2.2-.6,0-1.1.2-1.2.1,0,0,0-.2.2-.4.2-.2.5-.3.9-.4.4,0,.8,0,1,.1.2.1.3.2.3.3Z"/><path class="cls-13" d="M129,117.5c0,0-2.7-.5-2.3,2.2.4,2.6,3,1.7,3,1.6,0,0-.6-3.8-.6-3.8Z"/><path class="cls-6" d="M128.7,120.4s0,0-.1,0c0,0-.2,0-.3,0-.3,0-.6-.5-.7-.9,0-.2,0-.5,0-.7,0-.2.2-.4.3-.4.1,0,.2,0,.3,0,0,0,0,.1,0,.1,0,0,0,0,0-.2,0,0,0-.1-.1-.1,0,0-.2,0-.3,0-.2,0-.4.3-.4.5,0,.2,0,.5,0,.8.1.5.4,1,.8,1,.2,0,.3,0,.4-.1,0,0,0-.1,0-.1Z"/><path class="cls-5" d="M136,119.5c0,0,.2.6.8.9.6.3,1.2.2,1.2.2,0,0-.1.1-.4.2-.3,0-.7,0-1-.2-.4-.2-.6-.5-.6-.8,0-.2,0-.4,0-.4Z"/><path class="cls-5" d="M146.2,107.6c0-.1-.2-.3-.3-.3-.3-.1-.7,0-1,0-.8.1-1.7,0-2.5-.2.2-.2.5-.4.6-.6.4-.5.5-1.2.2-1.7,0-.1-.1-.2-.2-.2-.2,0-.3.2-.4.3-.3.5-.7.7-1.2.8-.4,0-.7,0-1-.1,0,0,0,0,0,0-.2-.1-.3-.2-.5-.3,0,0,0,0,0,0h0c-1.1-.8-2.1-1.4-3-1.6-1.4-.3-3.5-.2-4.8.4-1.3.6-2.3,1.8-2.3,3.2-.8-.5-2-.3-2.8.2h0c-1,.5-1.4,1.7-1.5,2.8,0,0,0,.1,0,.2-.3.6-.7,1.1-1.2,1.5,0,0-.2.2-.2.3,0,.1.1.2.2.2.3.1.6.2.9.2,0,.3-.1.5-.2.8,0,.2-.2.5,0,.7.1.1.3.2.5.1.2,0,.3-.2.4-.3,0,.3-.1.6-.2.9.4,0,.8,0,1.1-.2.4.9.8,2.7,1.2,3.3.7,0,.9-.2,1.2-.1.5,0,.4.9,1,.6.3-.2.6-1.4.6-1.7.4-2.1.2-4.4-.3-6.5.4-.5.8-1,1.3-1.3h0c1-.5,2.2-1,3.3-.7.9.3,1.4,1,2.1,1.6,1.3,1.1,2.7,1.5,4.4,1.3.3,1.1.7,3,.9,4.1l.6-2.3h0c0-.1,0-.3.1-.4h0s0,0,0,0c0-.2.1-.4.2-.7,0,0,0,0,0,0,.7.4,1.4-.5.8-1.1-.1-.1-.2-.2-.4-.3.3.2.7.3,1.1.1.3-.2.6-.6.5-.9,0-.2-.3-.4-.5-.5.5,0,.9-.2,1.3-.5.2-.2.5-.5.3-.8Z"/><path class="cls-2" d="M130.9,107.3s-.1.1-.3.4c-.2.3-.4.8-.4,1.4,0,.3,0,.6,0,1,0,.4.1.7.2,1.1,0,.4.2.8.2,1.3,0,.2,0,.4,0,.7,0,.2,0,.5-.2.7-.1.2-.3.3-.5.3-.2,0-.4,0-.5-.2-.3-.3-.4-.6-.5-.9h0c0,.3-.2.6-.3.9-.2.3-.4.5-.7.5-.1,0-.3,0-.4,0-.1,0-.2-.1-.3-.2,0,0-.1-.2-.1-.3,0-.1,0-.2,0-.3h0c-.2.4-.5.6-.7.8-.1,0-.2.1-.2.1,0,0,0,0,0,0,0,0,0,0,0,0,0,0,.1,0,.2-.2.2-.1.5-.4.7-.8h0c-.1.2,0,.4,0,.6,0,0,.2.2.3.2.1,0,.2,0,.4,0,.3,0,.5-.2.6-.5.2-.2.2-.5.3-.9h0c0-.1,0,0,0,0,.1.3.2.7.5.9.1.1.3.2.5.2.2,0,.3,0,.4-.2.1-.2.1-.4.2-.6,0-.2,0-.4,0-.7,0-.4-.1-.9-.2-1.2,0-.4-.2-.8-.2-1.1,0-.4,0-.7,0-1,0-.6.2-1.1.4-1.4.2-.3.4-.4.4-.4Z"/><path class="cls-2" d="M143.3,109.2s0,0,0,0c0,0,0,0,0,0,0,0,0,0-.1.1,0,0-.1.1-.2.2-.3.2-.9.5-1.6.6-.7,0-1.6,0-2.5-.5-.9-.4-1.7-1.1-2.4-2-.4-.4-.7-.9-1-1.3-.3-.4-.7-.8-1-1-.4-.3-.8-.5-1.2-.5-.2,0-.4,0-.6,0-.2,0-.4.1-.5.2-.3.2-.6.4-.7.6-.2.2-.3.4-.3.6-.1.4,0,.6-.1.6,0,0,0,0,0,0,0,0,0,0,0-.1,0-.1,0-.3,0-.5,0-.2.2-.4.3-.7.2-.2.4-.5.7-.6.2,0,.3-.2.5-.2.2,0,.4,0,.6,0,.4,0,.9.2,1.3.5.4.3.7.6,1.1,1.1.3.4.6.8,1,1.3.7.8,1.5,1.5,2.3,2,.8.4,1.7.6,2.4.5.7,0,1.3-.3,1.6-.5.3-.2.5-.4.5-.4Z"/><path class="cls-2" d="M143.4,107.5s0,0-.1.1c0,0-.2.2-.4.3-.2.1-.4.2-.6.3-.2,0-.5.2-.8.2-.3,0-.6,0-.8,0-.3,0-.5,0-.7,0-.2,0-.3,0-.4-.1-.1,0-.2,0-.2,0,0,0,.2,0,.6.1.2,0,.4,0,.7,0,.3,0,.5,0,.8,0,.3,0,.6-.1.8-.2.2,0,.4-.2.6-.3.3-.2.5-.3.5-.3Z"/><path class="cls-13" d="M179.6,156.2l1.5-.2s.7-.7,1.5-1.2c.9-.5,1.6-.5,1.8,0,.2.4.1.9-.3,1.3-.4.4-2.1.8-2.2,1.6s5.3,3,5.3,3l-4.3,4.9-6.2-3.3-.3-.5v-1.3c0,0,3.1-4.1,3.1-4.1Z"/><path class="cls-5" d="M136.4,169.6l1.9,22.1-.6,3.8s-7.7,22-7.5,31.1l9-.4s8.7-24.9,9.4-27.7c.7-2.8,4.2-21.1,4.2-21.1l5.8,14.5.2,3.4-3.3,21.1,10.4.5s4.3-24,3.8-27.1c-.4-3.1-7.3-27.4-7.3-27.4l-3.5-3.1-20.2,3.4-2.1,6.8Z"/><path class="cls-5" d="M164.8,210.5l-.3,8.9s8.4,3.3,8.5,5h-16.3c0,0,0-13.9,0-13.9h8.1Z"/><path class="cls-12" d="M159.5,218.6c-.3,0-.5.5-.5.8,0,.3.4.6.7.5.3,0,.6-.5.5-.8-.1-.3-.5-.6-.8-.4"/><path class="cls-2" d="M156.7,224.3v-1.4s15.7.6,15.7.6c0,0,.7.3.6.9h-16.3Z"/><path class="cls-4" d="M164.8,219.3c0,0-.4.1-.8.4-.4.3-.6.6-.7.6,0,0,0-.5.5-.8.5-.3,1-.2.9-.1Z"/><path class="cls-4" d="M166.5,220c0,0-.3.2-.6.6-.3.3-.3.7-.4.7,0,0-.1-.5.2-.9.3-.4.8-.5.8-.4Z"/><path class="cls-4" d="M167.5,222.2c0,0-.2-.4,0-.9.2-.5.6-.6.6-.6,0,0-.2.3-.4.7-.2.4-.2.7-.3.7Z"/><path class="cls-4" d="M164.6,217.3c0,0-.4,0-.8,0-.5,0-.8.2-.8.1,0,0,.3-.4.8-.4.5,0,.9.2.9.3Z"/><path class="cls-5" d="M138.3,219.8v10.2c0,0,2.4,8,2.4,8,.2.6-.2,1.2-.8,1.3h0c-.3,0-.7,0-.9-.2-1.6-1.4-7.4-6.8-7.4-7.5,0-.9-.8-10.7-.8-10.7l7.4-1Z"/><path class="cls-2" d="M139.9,239.3l-8.3-8.4v.4c0,.4.2.7.4,1,.7.7,2.6,2.7,7,6.8.3.2.6.3,1,.2h0Z"/><g class="cls-7"><path class="cls-4" d="M133.6,227.6c.3.2.4.6.2.8-.2.3-.5.4-.8.2-.3-.2-.4-.6-.2-.9.2-.2.6-.3.9-.1"/></g><path class="cls-4" d="M137.5,235c0,0,.3-.5.9-.8.6-.3,1.2-.2,1.2-.3,0,0-.1-.1-.4-.1-.2,0-.6,0-.9.2-.3.2-.6.4-.7.6-.1.2-.1.4,0,.4Z"/><path class="cls-4" d="M138.2,236.3s.4-.3.9-.5c.5-.2,1,0,1-.2,0,0-.5-.3-1.1,0-.6.2-.9.6-.8.7Z"/><path class="cls-4" d="M136.1,233.3s.5-.5,1.3-.8c.8-.3,1.5-.3,1.5-.4,0,0-.7-.2-1.6.2-.8.4-1.3,1-1.2,1Z"/><path class="cls-4" d="M135.8,230.2c0,0,.6-.2,1.3-.2.7,0,1.3.1,1.3,0,0,0-.6-.3-1.4-.3-.8,0-1.3.4-1.3.5Z"/><path class="cls-4" d="M135.7,227.2c0,0,.6-.3,1.4-.3.8,0,1.3.4,1.4.3,0,0,0-.1-.3-.3-.2-.1-.6-.2-1-.2-.4,0-.8.1-1,.2-.2.1-.4.2-.3.3Z"/><path class="cls-2" d="M126.5,131.2s-5.4,3.3-1.5,11.1c4.8,9.6,9.4,23.2,11,24.1.6.4,3.7-1.2,3.7-1.2l2.4-4.4-6.4-16.6-4.2-9.6-5-3.3Z"/><path class="cls-2" d="M130.5,128.7l-4,2.5,10.5,18.6-1.5,16.6,2.4,1.3,24.6-3.4.8-1.1-2.7-7.8-3.6-8.8s-3.6-8-5.7-11.4c-2.1-3.4-4.4-6.8-4.4-6.8l-6-.4-.7-.8s-.9,1.6-3.4,1.8c-2,.1-6.3-1-6.3-1v.6Z"/><path class="cls-2" d="M179.6,156.2s-14.4-11.6-15.6-12.9c-1.2-1.4-11.2-11.9-11.2-11.9,0,0-3.7-3.5-5.8-2.8-2.6.8,2.6,13.3,2.6,13.3,0,0,10.6,8.8,12.3,10.5,1.7,1.7,12.1,8.3,12.1,8.3l2.5-.3,3.2-4.1Z"/><path class="cls-5" d="M132.8,138.7s0,0,.1.2c0,.2.2.4.3.6.2.6.6,1.4,1,2.4.8,2,2.1,4.7,3.4,7.8,1.4,3,2.5,5.8,3.3,7.8.4,1,.7,1.8.9,2.4,0,.3.2.5.2.7,0,.2,0,.2,0,.2,0,0,0,0-.1-.2,0-.2-.2-.4-.3-.7-.2-.6-.5-1.4-.9-2.4-.8-2-2-4.8-3.4-7.8-1.4-3-2.6-5.8-3.4-7.8-.4-1-.7-1.8-.9-2.4,0-.3-.2-.5-.2-.7,0-.2,0-.2,0-.2Z"/><path class="cls-5" d="M150.4,134s0,0,.1.1c0,0,.2.2.3.4.3.4.6.9,1,1.6.8,1.4,1.8,3.4,2.8,5.6,1.1,2.2,2,4.2,2.6,5.7.3.7.6,1.3.8,1.7.2.4.3.6.2.7,0,0-.1-.2-.3-.6-.2-.4-.5-1-.8-1.7-.7-1.5-1.7-3.5-2.7-5.6-1.1-2.2-2-4.2-2.8-5.6-.4-.7-.7-1.3-.9-1.7-.2-.4-.4-.6-.4-.6Z"/><g class="cls-8"><path d="M136,146.6s-1-5.7-.4-9.1c.6-3.3,2.3-8.2,2.3-8.2l3-1.3,15.7,7.6,1.2,1.4-2.1,6.6,1.5,12-21.2-9.1Z"/></g><path class="cls-11" d="M139.8,136.5c1.2-21.5,13.3-33.1,28.6-32.3,15.4.8,26.1,13.7,24.9,35.2-1.2,21.5-13.2,33.1-28.6,32.3-15.4-.8-26.1-13.7-24.9-35.2ZM178.8,138.6c.8-14.8-3.9-21.3-11.1-21.6-7.1-.4-12.5,5.5-13.3,20.3-.8,14.8,3.9,21.3,11,21.6,7.2.4,12.6-5.5,13.4-20.3Z"/><g class="cls-8"><path d="M139.8,136.5c1.2-21.5,13.3-33.1,28.6-32.3,15.4.8,26.1,13.7,24.9,35.2-1.2,21.5-13.2,33.1-28.6,32.3-15.4-.8-26.1-13.7-24.9-35.2ZM178.8,138.6c.8-14.8-3.9-21.3-11.1-21.6-7.1-.4-12.5,5.5-13.3,20.3-.8,14.8,3.9,21.3,11,21.6,7.2.4,12.6-5.5,13.4-20.3Z"/></g><path class="cls-11" d="M135.4,136.5c1.2-21.5,13.3-33.1,28.6-32.3,15.4.8,26.1,13.7,24.9,35.2-1.2,21.5-13.2,33.1-28.6,32.3-15.4-.8-26.1-13.7-24.9-35.2ZM174.4,138.7c.8-14.8-3.9-21.3-11.1-21.6-7.1-.4-12.5,5.5-13.3,20.3-.8,14.8,3.9,21.3,11,21.6,7.2.4,12.6-5.5,13.4-20.3Z"/><path class="cls-13" d="M151.6,169.1l-2.7-1.6s-2.7-1.8-2.9-2.1c-.2-.3-.3-1-.3-1.4,0-.4,1.2-1.3,1.4-2,.1-.8-.7-1.5-1-1.6-.3-.1-.6.3-.7.7,0,.3-.6.8-1.3,1-.8.2-1.8,1.2-1.8,1.2l-2.3,4.3c.4.7,5.1,2.5,5.3,2.6.1,0,5.2.2,5.7,0,.5-.2.7-.4.6-1Z"/><path class="cls-13" d="M189.2,160.1c0,.7-1.4.7-1.4.7.2.4-.6,1.2-1.1,1,.1.3.3.3.2.6s-.2.6-.4.7c-.2.1-.6.1-.8,0,.1.4,0,.9-.5,1.2-.2.1-.5.2-.8.1-.1,0-.3,0-.4-.1,0,0,0,0-.1,0,0,0,0,0,0,0,0-.1,0-.2,0-.3,0,0,0,0,0-.1,0-.2-.2-.3-.3-.5,0,0-.1-.1-.2-.2,0,0,0-.1,0-.2-.1-.3-.5-.6-.7-.8-.3-.3-.6-.6-.7-1,0-.4,0-.9.5-1-.2-.1-.3-.5-.1-.7.1-.2.4-.3.6-.3.3,0,.5,0,.7.2-.2-.2-.2-.6,0-.8.2-.2.5-.3.8-.2.3,0,.6.2.8.4.2.2,1.2.9,1.5,1.1l.6-.6h0c.5,0,.7.1,1.1.3.3.1.6.3.7.6Z"/><path class="cls-13" d="M183.6,165.1c-.2.2-.4.3-.6.3-.3,0-.7-.4-.9-.6,0,0,.5-.7.5-.7v-.2c.2-.2-.1-.4-.2-.6-.2-.3,0-.7.3-.8.3-.1.7,0,.9.2s.4.6.4.9c0,.5-.1,1.1-.5,1.5Z"/><path class="cls-6" d="M185.8,163.1s-.7-.8-1.6-1.6c-.9-.8-1.8-1.5-1.8-1.4,0,0,.7.8,1.6,1.6.9.8,1.8,1.5,1.8,1.4Z"/><path class="cls-6" d="M186.8,161.8s-.6-.8-1.5-1.5c-.9-.7-1.7-1.2-1.7-1.1,0,0,.7.6,1.6,1.3.9.7,1.6,1.4,1.6,1.3Z"/><path class="cls-6" d="M187.7,160.6s-.5-.6-1.2-1.2c-.8-.6-1.4-1-1.4-.9,0,0,.5.6,1.3,1.1.8.6,1.3,1,1.4,1Z"/><path class="cls-6" d="M183.8,164.6s.2,0,.2-.3c0-.2,0-.6,0-1-.2-.3-.4-.6-.6-.8-.2-.2-.4,0-.4,0,0,0,.2,0,.3.2.1.2.3.4.5.7.1.3.2.6.1.8,0,.2-.1.3,0,.4Z"/><path class="cls-5" d="M88.8,215.1l-1.4,8.2s8.2,3.3,8.3,5l-15.9-.2,2-13.4,7.1.5Z"/><path class="cls-12" d="M82.5,222.5c-.3,0-.5.4-.5.8,0,.3.4.6.7.5.3,0,.6-.5.5-.8-.1-.3-.5-.6-.8-.4"/><path class="cls-2" d="M79.8,228l.2-1.4,15.1.7s.7.3.6.9l-15.9-.2Z"/><path class="cls-4" d="M87.7,223.2c0,0-.4.1-.8.4-.4.2-.6.6-.7.6,0,0,0-.5.5-.8.5-.3.9-.2.9-.1Z"/><path class="cls-4" d="M89.4,224c0,0-.3.2-.6.6-.3.3-.4.7-.4.7,0,0-.1-.5.2-.9.3-.4.8-.5.8-.4Z"/><path class="cls-4" d="M90.3,226.1c0,0-.2-.4,0-.8.2-.4.6-.6.6-.6,0,0-.2.3-.4.7-.2.4-.2.7-.3.7Z"/><path class="cls-4" d="M87.6,221.2c0,0-.4,0-.8,0-.4,0-.8.2-.8,0,0,0,.3-.4.8-.4.5,0,.9.2.8.3Z"/><path class="cls-5" d="M65.8,216.4l-4.2,7.6s5.8,6.7,5.2,8.1l-14.2-7.3,6.1-12,7.1,3.7Z"/><path class="cls-12" d="M57.5,221c-.3,0-.7.2-.8.5,0,.3.1.7.4.8.3,0,.7-.2.8-.5,0-.3-.2-.7-.5-.7"/><path class="cls-2" d="M52.6,224.7l.7-1.2,13.3,7.5s.5.6.2,1l-14.2-7.3Z"/><path class="cls-4" d="M61.8,224c0,0-.4,0-.9,0-.5,0-.8.3-.8.2,0,0,.3-.4.8-.5.6,0,.9.2.9.3Z"/><path class="cls-4" d="M63,225.4c0,0-.4,0-.8.2-.4.2-.6.5-.7.4,0,0,.1-.5.6-.7.5-.2.9,0,.9,0Z"/><path class="cls-4" d="M62.9,227.7c0,0,0-.4.4-.7.4-.3.8-.3.8-.2,0,0-.3.2-.6.4-.3.2-.5.5-.6.5Z"/><path class="cls-4" d="M62.6,222.2c0,0-.3-.2-.7-.4-.4-.2-.8-.2-.8-.3,0,0,.4-.2.9,0,.5.2.7.6.6.6Z"/><path class="cls-5" d="M75.7,166.4s2.8,27.5,2,30.7-14.5,27.5-14.5,27.5l-9.4-5.2s11.4-22.1,11.3-23c-.1-.9.3-3.6.3-3.6l-6.3-21.1,1.3-9.1,11.2-1.1,4.2,4.9Z"/><path class="cls-5" d="M68.2,176.8c.3.8,15.4,18.1,15.4,18.1,0,0-.1.6.2,1.1.4.6,1.3.9,1.3.9l-6,24.9,10.5,1s6.3-24.9,6-28.1c-.2-3.1-15.3-27.6-15.3-27.6l-10.8-.6-1.4,10.2Z"/><path class="cls-2" d="M75.9,172.4s0,.3-.1.7c0,.4,0,1.1,0,1.9,0,1.6.5,3.8.9,6.2.5,2.4.9,4.6.9,6.2,0,.8,0,1.5,0,1.9,0,.4-.1.7-.1.7,0,0,0-.3,0-.7,0-.4,0-1.1,0-1.9-.1-1.6-.5-3.8-1-6.2-.5-2.4-.8-4.6-.9-6.2,0-.8,0-1.5.1-1.9.1-.4.2-.7.2-.7Z"/><path class="cls-13" d="M98.4,130s1.9-3.1,3.7-3.4c1.8-.3,4.8,0,4.8,0l-1.6,6.7-3.7.6-3.2-3.9Z"/><polygon class="cls-2" points="70.4 135 84 135.8 97.9 129.3 102.2 134.6 85.1 143.7 75.7 144.9 70.4 135"/><path class="cls-11" d="M112.7,149.1l-10.8-1.9-2.4,13.9-14.9-2.6,2.4-13.9-35.7-6.2,1.8-10.3,38.6-36.5,16.1,2.8-35.9,34.8,17.8,3.1,2.2-12.4,14.5,2.5-2.2,12.4,10.8,1.9-2.2,12.5Z"/><g class="cls-8"><path d="M112.7,149.1l-10.8-1.9-2.4,13.9-14.9-2.6,2.4-13.9-35.7-6.2,1.8-10.3,38.6-36.5,16.1,2.8-35.9,34.8,17.8,3.1,2.2-12.4,14.5,2.5-2.2,12.4,10.8,1.9-2.2,12.5Z"/></g><path class="cls-11" d="M109,148.6l-10.8-1.9-2.4,13.9-14.9-2.6,2.4-13.9-35.7-6.2,1.8-10.3,38.6-36.5,16.1,2.8-35.9,34.8,17.8,3.1,2.2-12.4,14.5,2.5-2.2,12.4,10.8,1.9-2.2,12.5Z"/><g class="cls-8"><path d="M76.8,142s-1.6-4.2-2.9-5.8c-1.4-1.6-2.9-4-2.9-4l6.9-3.1-3.6-2.8-6.1,2.8-.4,5.5,7.4,7.7,1.6-.3Z"/></g><path class="cls-5" d="M71.8,114.2c1.4,1.1,2.2,3,2,4.8,0,.9-.3,1.9.2,2.6.6.7,1.7.7,2.2,1.4.6.8,0,2,.3,3,.2.9,1.2,1.7,2.1,1.6-1.1.9-2.5,1.5-4,1.6-.4-.5-.7-1-1.1-1.4.4.5.3,1.3-.1,1.8-.4.5-1,.8-1.7.9-3,.9-6.3.3-8.8-1.6"/><path class="cls-5" d="M55.1,121.6c.2-.7.6-1.3.8-2,.3-1.5-.3-3.2.4-4.5.5-.9,1.6-1.4,2.7-1.7,1-.3,2.2-.5,2.9-1.3.6-.5.9-1.3,1.5-1.9.8-.8,2-1,3.1-1.1,1.2,0,2.4,0,3.4.6,1,.5,1.9,1.5,2,2.7,0,.6,0,1.1.2,1.7.2.6.6,1.1.9,1.6.6,1.2.2,2.7-.8,3.6l-8.2,10.1c-1.7.6-5.7-.2-7-1.5-1.3-1.3-2.6-4.7-2-6.4Z"/><path class="cls-13" d="M72,118.1c-.3-2.3-2-5.1-4.3-4.8l-7.2,2.3c-.7.1-1.2.8-1.2,1.5l1.8,16.9s-.5.4-.9.3c0,0-.2,0-.1.1.8,1.3,4.8,6.8,9,5.2.9-.4,0-3.3,0-4.4v-2.8c-.1-1.4-.2-2-.2-2,0,0,3-.7,3.4-4.6.2-2,0-5.2-.4-7.8Z"/><path class="cls-5" d="M71.5,121.7c0,.3-.2.5-.5.5-.3,0-.5-.2-.5-.4,0-.3.2-.5.5-.5.3,0,.5.2.5.4Z"/><path class="cls-5" d="M66.6,121.9c0,.3-.2.5-.5.5-.3,0-.5-.2-.5-.4,0-.3.2-.5.5-.5.3,0,.5.2.5.4Z"/><path class="cls-5" d="M71.7,120c0,0-.5-.2-1.1-.1-.6,0-1,.5-1,.4,0,0,0-.2.2-.4.2-.2.5-.4.8-.4.4,0,.7,0,.9.2.2.1.3.3.3.3Z"/><path class="cls-5" d="M66.4,120.3c0,0-.5-.3-1.2-.2-.6,0-1.1.4-1.2.3,0,0,0-.2.2-.3.2-.2.5-.3.9-.3.4,0,.7.1.9.3.2.2.3.3.2.3Z"/><path class="cls-5" d="M68.3,124.1s.3-.1.9-.2c.1,0,.3,0,.3-.2,0-.1,0-.2-.1-.4-.1-.3-.3-.7-.5-1-.7-1.5-1.1-2.7-1.1-2.7,0,0,.6,1.1,1.3,2.6.2.4.3.7.5,1,0,.2.2.3.1.5,0,.1-.1.2-.2.2,0,0-.2,0-.2,0-.5,0-.9,0-.9,0Z"/><path class="cls-9" d="M69.1,130.4s-2.6.3-5.3-1.1c0,0,1.5,2.7,5.4,2.1v-1Z"/><path class="cls-9" d="M66.7,125.6c0-.1.2-.3.3-.3.1,0,.3,0,.5,0,.2,0,.5.1.6.3s.2.4.1.6h0c0,.2-.4.3-.6.4s-.5,0-.7-.2c-.2,0-.3-.3-.3-.5,0-.1,0-.3.1-.4Z"/><path class="cls-5" d="M66.8,124.9c0,0,.1.6.6,1,.5.4,1.1.3,1.2.4,0,0-.1.1-.4.1-.3,0-.6,0-1-.3-.3-.2-.5-.6-.5-.8,0-.2,0-.4,0-.4Z"/><path class="cls-5" d="M66.4,118.6c0,.2-.6.1-1.2.2-.6.1-1.1.3-1.2.2,0,0,0-.2.2-.4.2-.2.5-.3.9-.4.4,0,.7,0,1,0,.2,0,.4.2.3.3Z"/><path class="cls-5" d="M71.3,117.7c-.1.1-.5,0-1,0-.5,0-.9.1-1,0,0,0,0-.2.2-.3.2-.1.5-.2.8-.2.4,0,.7,0,.8.2.2.1.3.2.2.3Z"/><path class="cls-5" d="M58.9,116.1c.4-.5,1-.8,1.7-1,2.7-1,5.5-1.6,8.3-1.9.3.6,0,1.4-.5,1.8-.5.4-1.2.6-1.9.8-.6.2-1.3.6-1.6,1.2-.3.7,0,1.5-.3,2.1-.4,1.2-2.1,1.5-2.5,2.7-.3.9.2,1.8.3,2.8.1,1.1-.3,2.2-1.1,2.9-.6.6-1.5.9-2.3.9-.1-3.4-.3-6.7-.4-10.1,0-.7,0-1.5.4-2Z"/><path class="cls-5" d="M52,124.5c.5-.5,1.2-.9,1.4-1.5.3-1-.4-2.2,0-3.1.5-.8,1.9-.7,2.3-1.6.4-.7,0-1.2.1-1.8.1-.6,1-1.1,1.6-1l4.5,6.7c.4,2.2.8,3.4.3,4.7-.3.7-.6,1.4-.8,2.2-.1.8,0,1.6.7,2.1-2.8.2-5.3-1.3-7.6-2.8-.8-.5-1.7-1-2.5-1.5-.3-.2-.5-.3-.7-.6-.4-.6.1-1.4.6-1.9Z"/><path class="cls-2" d="M54.4,127.8s0,0,.3,0c.2,0,.5,0,.9,0,.4,0,.8-.3,1.2-.6.4-.4.7-.9.8-1.6,0-.3,0-.7,0-1.1,0-.4-.3-.7-.5-1-.2-.3-.4-.7-.5-1.1,0-.4,0-.8.2-1.2.3-.3.7-.4,1.2-.6.2,0,.4-.2.6-.4.1-.2.2-.5.2-.7,0-.5-.2-1-.3-1.4,0-.2,0-.5,0-.7,0-.2.2-.4.4-.5.4-.3.9-.3,1.4-.3.5,0,1-.1,1.4-.4.4-.3.8-.6,1-1,.2-.4.3-.9.4-1.3,0-.4.1-.9.3-1.2.2-.4.4-.7.7-1,.6-.5,1.3-.8,1.9-.8.7,0,1.2.1,1.7.4.5.2.8.6,1,.8.5.6.6,1,.6.9,0,0,0,0,0,0,0,0,0-.1,0-.2,0-.2-.2-.4-.5-.7-.2-.3-.6-.6-1-.9-.5-.3-1.1-.5-1.7-.4-.7,0-1.4.3-2,.8-.3.3-.5.6-.7,1-.2.4-.2.8-.3,1.3,0,.4-.2.9-.4,1.3-.2.4-.5.7-.9,1-.4.2-.9.3-1.4.4-.5,0-1,0-1.5.4-.2.1-.4.4-.5.6,0,.3,0,.5,0,.8,0,.5.3.9.3,1.4,0,.2,0,.5-.2.6-.1.2-.3.3-.5.4-.2,0-.4.1-.6.2-.2,0-.4.2-.6.4-.3.4-.3.9-.2,1.3.1.4.3.8.5,1.1.2.3.4.7.5,1,0,.3.1.7,0,1,0,.6-.4,1.2-.8,1.5-.4.4-.8.5-1.2.6-.7.2-1.1,0-1.1,0Z"/><path class="cls-5" d="M50.9,123s0,0,0,.2c0,.2,0,.4.1.7,0,.1.2.3.3.4.2.1.4.2.6.2.4,0,1-.2,1.2-.7.1-.2.2-.5.2-.8,0-.3,0-.6-.2-.9-.2-.6-.6-1.2-.6-1.9,0-.3,0-.7.3-.9.2-.2.6-.3,1-.3.4,0,.8,0,1.2,0,.2,0,.4-.2.5-.4.1-.2.2-.4.2-.6,0-.4,0-.8,0-1.2,0-.4,0-.8,0-1.1.2-.7.7-1.3,1.3-1.7.6-.3,1.3-.4,1.9-.4.6,0,1.2,0,1.7-.2.5-.2.9-.5,1.2-.7.3-.3.5-.6.7-.9.3-.5.3-.9.3-.9,0,0,0,.3-.4.8-.2.2-.4.5-.7.8-.3.3-.7.5-1.2.7-.5.2-1.1.2-1.7.2-.6,0-1.3,0-2,.4-.6.4-1.2,1-1.4,1.7-.1.4-.1.8,0,1.2,0,.4.1.8,0,1.2,0,.4-.3.8-.6.9-.3.1-.7,0-1.1,0-.4,0-.8,0-1.1.3-.3.3-.4.7-.4,1,0,.4.1.7.2,1,.1.3.3.6.4.9.1.3.2.6.2.9,0,.3,0,.6-.2.8-.2.5-.7.7-1.1.7-.2,0-.4,0-.5-.1-.1,0-.3-.2-.3-.3-.1-.3-.2-.5-.1-.6,0-.2,0-.2,0-.2Z"/><path class="cls-5" d="M79.8,125.2s.1.3,0,.7c0,.2-.3.5-.6.6-.3,0-.7,0-1-.3-.1-.1-.2-.4-.2-.6,0-.2,0-.5.1-.7.2-.5.5-1,.4-1.6,0-.6-.3-1.2-.8-1.6-.2-.2-.5-.4-.8-.5-.3-.1-.6-.1-1-.2-.3,0-.6,0-.9-.1-.3,0-.6-.2-.7-.5-.2-.2-.2-.5-.3-.8,0-.3,0-.6,0-.8.1-.5.3-1.1.3-1.6,0-.5-.2-1-.5-1.3-.3-.4-.6-.6-.9-.8-.3-.2-.5-.3-.7-.5-.4-.3-.4-.6-.4-.6,0,0,0,0,0,0,0,0,0,0,0,.1,0,.1.2.3.3.4.2.2.4.3.7.5.3.2.6.4.8.8.2.3.4.8.4,1.3,0,.5-.2,1-.3,1.6,0,.3-.1.6,0,.9,0,.3,0,.6.3.9.2.3.5.5.8.5.3,0,.7.1,1,.1.3,0,.6,0,.9.2.3,0,.6.2.8.4.5.4.7.9.8,1.5,0,.6-.2,1-.4,1.5,0,.2-.1.5-.1.7,0,.2.1.5.3.6.3.3.8.4,1.1.3.3-.1.5-.4.6-.6,0-.2,0-.4,0-.6,0-.1,0-.2,0-.2Z"/><path class="cls-13" d="M107.9,126.3c.4.6-.8,1.3-.8,1.3.3.2.1,1.3-.4,1.4.2.1.4.1.5.4.1.2.1.6,0,.8-.1.2-.4.4-.7.3.3.3.4.8.2,1.2-.1.2-.3.4-.5.5-.1,0-.2,0-.4,0,0,0-.1,0-.1,0,0,0,0,0,0,0,0,0-.1-.1-.2-.2,0,0,0,0,0,0-.2,0-.3-.2-.5-.2,0,0-.2,0-.2,0,0,0,0,0-.1-.1-.3-.2-.7-.3-1-.3-.4,0-.8-.2-1-.4-.3-.3-.4-.8,0-1-.2,0-.4-.2-.5-.5,0-.2.1-.5.3-.6.2-.1.5-.2.7-.2-.3,0-.5-.4-.4-.7,0-.3.3-.5.6-.6.3,0,.6,0,.9,0,.3,0,1.5.1,1.8.1l.2-.8h0c.5-.2.7-.3,1.1-.4.3,0,.7,0,.8.2Z"/><path class="cls-13" d="M105.8,133.2c0,.2-.1.5-.4.6-.2.1-.8,0-1,0,0,0,.1-.8.1-.8v-.2c0-.2-.4-.2-.5-.3-.3-.2-.3-.6-.2-.9.2-.3.5-.4.8-.3.3,0,.6.3.8.5.3.4.4.9.3,1.4Z"/><path class="cls-9" d="M106.6,130.5c0,0-.9-.3-2.1-.5-1.2-.2-2.2-.3-2.2-.3,0,0,.9.3,2.1.5,1.2.2,2.2.3,2.2.3Z"/><path class="cls-9" d="M106.7,128.9c0,0-.8-.3-1.9-.5-1.1-.1-2-.1-2,0,0,0,.9.1,2,.3,1.1.1,1.9.3,2,.3Z"/><path class="cls-9" d="M106.9,127.5c0,0-.7-.2-1.6-.3-.9,0-1.6-.1-1.6,0,0,0,.7.2,1.6.3.9,0,1.6.2,1.6.1Z"/><path class="cls-9" d="M105.8,132.7s0-.1,0-.4c0-.2-.2-.5-.6-.7-.3-.2-.6-.3-.8-.3-.3,0-.4.1-.4.2,0,0,.1,0,.3,0,.2,0,.5.2.8.4.3.2.5.4.5.6,0,.2,0,.3.1.3Z"/><path class="cls-2" d="M60.6,132c-2.5,2.3-4.2,3.1-4.5,5.5-.2,1.5,0,4,.6,6.1,1.3,4,3.1,8.7,4.1,10.9.4.8.4,1.7.2,2.6-.6,2-2.1,5.7-1.9,13.2l23.2-1.6s-4-9.3-4.9-14c-.1-.6.5-7.3.2-8.6-1.1-4.9-6.5-9.8-8.2-12.5l-.2-.9-8.5-1.4-.2.6Z"/><g class="cls-8"><path d="M60.5,152.1s2.9,6,4.3,6.6c1.4.6,13.4-1.1,13.4-1.1l-.7-2.8-17-2.7Z"/></g><path class="cls-5" d="M70.9,135.7s.2.1.4.3c.2.2.6.6,1,1.1.8.9,1.7,2.3,2.8,3.8,1.1,1.5,1.9,3,2.2,4.1.2.6.3,1.1.4,1.4,0,.3,0,.5,0,.5,0,0-.1-.7-.6-1.9-.4-1.1-1.2-2.6-2.3-4.1-1.1-1.5-2-2.9-2.7-3.8-.4-.5-.7-.8-.9-1.1-.2-.3-.3-.4-.3-.4Z"/><path class="cls-2" d="M57.5,134.7s-5,3.4-2,9.3c2.7,5.2,7.1,11.6,8.8,12.7,1.8,1,20.8-3.1,20.8-3.1l-.6-7.3-16.3,3.4-4.7-8.8s-1.8-7.4-6-6.1Z"/><path class="cls-13" d="M84.6,147.2s.2-.8,1.6-1.7c1.4-.9,1.7-1.7,2-2.1s.7-1.2,1.1-1c.4.2.3.8,0,1.8-.3.9-1.1,1.7-.8,2.1s4.6,0,5.9-.4c1.3-.3,1.8-.1,1.7.5-.2.6-4.1.8-4.4,1.4s.1.5.6.6c.4.2,4.6-.3,4.7.5,0,.8-.5.8-.5.8,0,0,.1.9-.6,1.2s-5-.3-4.8.3,3.4.8,3.5,1.7c0,.8-.7.5-1.6.3s-2.6-.6-4-.6c-1.4,0-4.2-.3-4.2-.3l-.4-4.9Z"/><path class="cls-11" d="M96.7,149.7c0,0-1.3,0-2.8,0-1.6,0-2.8-.2-2.8-.2,0,0,1.3,0,2.8,0,1.6,0,2.8.2,2.8.2Z"/><path class="cls-5" d="M67,152.1c0,0,0-.6.4-1.3.4-.7.9-1.1.9-1,0,0-.4.5-.7,1.1-.4.6-.5,1.2-.5,1.2Z"/><path class="cls-5" d="M62.5,139.1s0,0,.1.2c0,.1.2.3.3.5.3.5.7,1.2,1.2,2.1,1,1.8,2.4,4.4,4.1,7.7h0c4.5-1,10.1-2.2,16.3-3.5h.1s0,0,0,0c.2,2.4.4,4.8.6,7.3h0s0,.1,0,.1h0c-4.9,1.1-9.5,2-13.7,2.6-1.1.2-2.1.3-3.1.4-1,.1-2,.2-3,.2-.2,0-.5,0-.7,0-.1,0-.3,0-.3-.1l-.3-.2c-.2-.1-.4-.3-.5-.5-.2-.2-.3-.3-.5-.5-.3-.3-.6-.7-.8-1-.3-.3-.5-.7-.7-1-1.9-2.7-3.2-5-4.1-6.5-.4-.8-.8-1.4-1-1.8-.1-.2-.2-.4-.3-.5,0-.1,0-.2,0-.2,0,0,0,0,0,.2,0,.1.2.3.3.5.2.4.6,1,1,1.8.9,1.6,2.2,3.8,4.1,6.5.2.3.5.7.7,1,.3.3.5.7.8,1,.1.2.3.3.5.5.2.2.3.3.5.4l.3.2s0,0,.1,0c0,0,0,0,.2,0,.2,0,.5,0,.7,0,.9,0,1.9,0,2.9-.2,1-.1,2-.3,3.1-.4,4.2-.7,8.9-1.6,13.7-2.6h0c0,.1,0,0,0,0-.2-2.5-.4-5-.6-7.3h.1c-6.2,1.4-11.8,2.6-16.3,3.5h0s0,0,0,0c-1.7-3.3-3.1-5.9-4.1-7.7-.5-.9-.9-1.6-1.1-2.1-.1-.2-.2-.4-.3-.5,0-.1-.1-.2-.1-.2Z"/></svg>