<?xml version="1.0" encoding="UTF-8"?><svg id="Layer_1" xmlns="http://www.w3.org/2000/svg" viewBox="0 0 50 50"><defs><style>.cls-1{fill:#2a2d6b;}.cls-2{fill:#793784;}.cls-3{fill:#f9c5b8;}.cls-4{fill:#f6afa8;}.cls-5{fill:#ba80b6;}.cls-6{fill:#2a2e6d;}.cls-7{fill:#e9837b;}.cls-8{fill:#fff;}.cls-9{fill:#f5a997;}.cls-10{fill:#6d3176;}.cls-11{fill:#ca98c5;}</style></defs><path class="cls-10" d="M26.9.1c2.2-.2,4.2,0,6.3.8,4.6,1.7,6.8,6.8,7.4,11.3.7,5.3-.7,9.3-2,14.3-.6,2.2-1.1,4.4-.9,6.7.2,2.3,1.1,3.9,1.5,6,0,.1.2.3.3.4-4.8-2.8-7.4-7.7-7.4-13.1,0-4.9,2.5-9.3,1.4-14.3-.5-2.5-1.8-5.6-4.5-6.3-2.1-.6-4.9.6-6.7-1.1C19.4,2,24.8.3,26.9.1h0Z"/><path class="cls-3" d="M47,50c.2-5.5-3.3-7.6-3.3-7.6l-14.6-8.2h-8.3l-14.6,8.2s-3.5,2.1-3.3,7.6h44Z"/><path class="cls-3" d="M19.8,35.2h10.4c-2.3-1.2-1.7-6-1.7-6h-7s.6,4.8-1.7,6Z"/><path class="cls-9" d="M21.3,32.7c2.5-.3,4.9-1.1,7.1-2.3,0-.7,0-1.2,0-1.2h-7s.2,1.9-.1,3.6h0Z"/><path class="cls-9" d="M37.1,18.5c-.2,1.7-1.2,2.9-2.1,2.8-1-.1-1.6-1.6-1.3-3.3.2-1.7,1.2-2.9,2.1-2.8,1,.1,1.6,1.6,1.3,3.3h0Z"/><path class="cls-7" d="M35,20c-.1,0-.2,0-.3-.2-.2-1-.3-2.1.7-3.3.1-.1.3-.1.4,0,.1.1.1.3,0,.4-.9,1-.7,2-.5,2.8,0,.2,0,.3-.2.4,0,0,0,0,0,0h0Z"/><path class="cls-7" d="M35.9,18.4s0,0,0,0c-.5,0-.9,0-1,0-.2,0-.3,0-.3-.2s0-.3.2-.3c0,0,.6-.1,1.2,0,.2,0,.3.2.2.3,0,.1-.1.2-.3.2h0Z"/><path class="cls-9" d="M12.9,18.5c.2,1.7,1.2,2.9,2.1,2.8,1-.1,1.6-1.6,1.3-3.3-.2-1.7-1.2-2.9-2.1-2.8s-1.6,1.6-1.3,3.3h0Z"/><path class="cls-7" d="M15,20s0,0,0,0c-.2,0-.3-.2-.2-.4.2-.8.3-1.8-.5-2.8-.1-.1,0-.3,0-.4.1-.1.3,0,.4,0,1,1.2.9,2.3.7,3.3,0,.1-.2.2-.3.2h0Z"/><path class="cls-7" d="M14.1,18.4c-.1,0-.3,0-.3-.2,0-.2,0-.3.2-.3.6-.1,1.1,0,1.2,0,.2,0,.3.2.2.3,0,.2-.2.3-.3.2,0,0-.5,0-1,0,0,0,0,0,0,0Z"/><path class="cls-3" d="M34.7,14.4c-.2-4.8-3.1-10.8-9.2-10.7h-1.2c-6.1,0-9,5.9-9.2,10.7-.2,4.8,1.3,10.4,4.3,13.4,1.4,1.4,3.6,2.1,5.5,2.1,1.9,0,4.1-.7,5.5-2.1,3-3,4.5-8.6,4.3-13.4h0Z"/><path class="cls-6" d="M15.8,13.8c0,5.7-.4,5.9-.4,5.9"/><path class="cls-2" d="M34.3,20c1-.7.2-4.2,1.6-4.3,0,0,3.5-8.6-3.6-13.2-3.5-1.9-6.5-1.9-6.5-1.9-15.4.1-11.5,14.9-11.5,14.9.8.9.6,2.3,1.1,4.5.4-.9,1-5.6,1-5.6.3-3.8,2.6-7.5,6.5-8.2,2.4-.4,5.5-.2,7.5,1.4,1.8,1.4,2.6,3.7,3,5.9.1.7,1.1,6.4.9,6.6h0Z"/><path class="cls-2" d="M31.3,15.3c-.2-1.7-3.9-1.8-4.6-1.1,0,0-.3.5,0,1,2-.7,3.9,0,4.5.3,0,0,0-.1,0-.1Z"/><path class="cls-2" d="M18.5,15.3s0,.1,0,.1c.6-.3,2.5-1,4.5-.3.3-.5,0-1,0-1-.7-.7-4.3-.6-4.6,1.1h0Z"/><ellipse class="cls-4" cx="20.6" cy="20.2" rx="2.4" ry="1.1"/><ellipse class="cls-4" cx="29.3" cy="20.2" rx="2.4" ry="1.1"/><path class="cls-1" d="M21.8,17.4c0,.8-.3,1.5-.8,1.5s-.8-.7-.8-1.5.3-1.5.8-1.5.8.7.8,1.5Z"/><path class="cls-1" d="M29.5,17.4c0,.8-.3,1.5-.8,1.5s-.8-.7-.8-1.5.3-1.5.8-1.5.8.7.8,1.5Z"/><path class="cls-7" d="M25.1,23.3s0,0-.1,0c-.6-.3-1-.5-1.1-.9-.1-.5.2-.9.5-1.4.2-.3.4-.6.5-.9,0-.2.2-.2.4-.2.2,0,.2.2.2.4-.1.4-.4.7-.6,1-.2.3-.5.7-.4.9,0,.1.2.3.7.5.1,0,.2.2.2.4,0,.1-.2.2-.3.2h0Z"/><path class="cls-7" d="M25,25.4c-1.4,0-2.4-.7-2.4-.7-.1,0-.2-.3,0-.4,0-.1.3-.2.4,0,0,0,2,1.3,4,0,.1,0,.3,0,.4,0,0,.1,0,.3,0,.4-.8.5-1.6.7-2.3.7h0Z"/><circle class="cls-8" cx="35.1" cy="20.4" r=".7"/><circle class="cls-8" cx="14.7" cy="20.4" r=".7"/><path class="cls-11" d="M29.2,34.1l14.6,8.2s3.5,2.1,3.3,7.6H3c-.2-5.5,3.3-7.6,3.3-7.6l14.6-8.2s3.7,4.3,8.3,0Z"/><path class="cls-11" d="M47,50H3c-.2-5.5,3.3-7.6,3.3-7.6l1.6-.9.5-.3,12.5-7.1s3.7,4.3,8.3,0l12.5,7.1.5.3,1.6.9s3.5,2.1,3.3,7.6h0Z"/><circle class="cls-5" cx="20.8" cy="35.2" r=".6"/><circle class="cls-5" cx="29.2" cy="35.2" r=".6"/><circle class="cls-5" cx="14.6" cy="38.4" r=".6"/><circle class="cls-5" cx="18.8" cy="38.4" r=".6"/><circle class="cls-5" cx="22.9" cy="38.4" r=".6"/><circle class="cls-5" cx="27.1" cy="38.4" r=".6"/><circle class="cls-5" cx="31.2" cy="38.4" r=".6"/><circle class="cls-5" cx="35.4" cy="38.4" r=".6"/><path class="cls-5" d="M9,41.8c0,.3-.3.6-.6.6s-.6-.3-.6-.6,0-.2.1-.4l.5-.3s0,0,0,0c.3,0,.6.3.6.6h0Z"/><circle class="cls-5" cx="12.5" cy="41.8" r=".6"/><circle class="cls-5" cx="16.7" cy="41.8" r=".6"/><circle class="cls-5" cx="20.8" cy="41.8" r=".6"/><circle class="cls-5" cx="25" cy="41.8" r=".6"/><circle class="cls-5" cx="29.2" cy="41.8" r=".6"/><circle class="cls-5" cx="33.3" cy="41.8" r=".6"/><circle class="cls-5" cx="37.5" cy="41.8" r=".6"/><path class="cls-5" d="M42.3,41.8c0,.3-.3.6-.6.6s-.6-.3-.6-.6.3-.6.6-.6,0,0,0,0l.5.3c0,.1.1.2.1.4h0Z"/><circle class="cls-5" cx="6.3" cy="45.1" r=".6"/><circle class="cls-5" cx="10.4" cy="45.1" r=".6"/><circle class="cls-5" cx="14.6" cy="45.1" r=".6"/><circle class="cls-5" cx="18.8" cy="45.1" r=".6"/><circle class="cls-5" cx="22.9" cy="45.1" r=".6"/><circle class="cls-5" cx="27.1" cy="45.1" r=".6"/><circle class="cls-5" cx="31.2" cy="45.1" r=".6"/><circle class="cls-5" cx="35.4" cy="45.1" r=".6"/><circle class="cls-5" cx="39.6" cy="45.1" r=".6"/><circle class="cls-5" cx="43.7" cy="45.1" r=".6"/><circle class="cls-5" cx="4.2" cy="48.4" r=".6"/><circle class="cls-5" cx="8.4" cy="48.4" r=".6"/><circle class="cls-5" cx="12.5" cy="48.4" r=".6"/><circle class="cls-5" cx="16.7" cy="48.4" r=".6"/><circle class="cls-5" cx="20.8" cy="48.4" r=".6"/><circle class="cls-5" cx="25" cy="48.4" r=".6"/><circle class="cls-5" cx="29.2" cy="48.4" r=".6"/><circle class="cls-5" cx="33.3" cy="48.4" r=".6"/><circle class="cls-5" cx="37.5" cy="48.4" r=".6"/><circle class="cls-5" cx="41.6" cy="48.4" r=".6"/><circle class="cls-5" cx="45.8" cy="48.4" r=".6"/></svg>