<?xml version="1.0" encoding="UTF-8"?><svg id="Layer_1" xmlns="http://www.w3.org/2000/svg" viewBox="0 0 50 50"><defs><style>.cls-1{fill:#2a2d6b;}.cls-2{fill:#3f5aa6;}.cls-3{fill:#f9c5b8;}.cls-4{fill:#f6afa8;}.cls-5{fill:#5c2d6d;}.cls-6{fill:#2a2e6d;}.cls-7{fill:#e9837b;}.cls-8{fill:#fff;}.cls-9{fill:#f5a997;}</style></defs><path class="cls-3" d="M47.4,49.8c.2-5.6-3.3-7.7-3.3-7.7l-14.8-8.4h-8.5l-14.8,8.4s-3.5,2.2-3.3,7.7h44.8Z"/><path class="cls-3" d="M19.7,34.8h10.6c-2.3-1.3-1.7-6.1-1.7-6.1h-7.1s.6,4.9-1.7,6.1Z"/><path class="cls-9" d="M21.3,32.3c2.5-.3,5-1.1,7.2-2.4,0-.7,0-1.3,0-1.3h-7.1s.2,1.9-.1,3.7h0Z"/><path class="cls-9" d="M37.3,17.8c-.2,1.7-1.2,3-2.2,2.9-1-.1-1.6-1.7-1.4-3.4.2-1.7,1.2-3,2.2-2.9,1,.1,1.6,1.7,1.4,3.4Z"/><path class="cls-7" d="M35.1,19.4c-.1,0-.3,0-.3-.2-.2-1-.4-2.2.7-3.3.1-.1.3-.1.4,0,.1.1.1.3,0,.4-.9,1-.7,2-.5,2.8,0,.2,0,.3-.2.4,0,0,0,0,0,0h0Z"/><path class="cls-7" d="M36.1,17.7s0,0,0,0c-.5,0-1,0-1,0-.2,0-.3,0-.3-.2,0-.2,0-.3.2-.3,0,0,.6-.1,1.2,0,.2,0,.3.2.2.3,0,.1-.2.2-.3.2h0Z"/><path class="cls-9" d="M12.7,17.8c.2,1.7,1.2,3,2.2,2.9,1-.1,1.6-1.7,1.4-3.4-.2-1.7-1.2-3-2.2-2.9-1,.1-1.6,1.7-1.4,3.4Z"/><path class="cls-7" d="M14.9,19.4s0,0,0,0c-.2,0-.3-.2-.2-.4.2-.8.3-1.8-.5-2.8-.1-.1,0-.3,0-.4.1-.1.3,0,.4,0,1,1.2.9,2.4.7,3.3,0,.1-.2.2-.3.2h0Z"/><path class="cls-7" d="M13.9,17.7c-.1,0-.3,0-.3-.2,0-.2,0-.3.2-.3.6-.1,1.2,0,1.2,0,.2,0,.3.2.2.3,0,.2-.2.3-.3.2,0,0-.5,0-1,0,0,0,0,0,0,0h0Z"/><path class="cls-3" d="M34.9,13.7c-.2-4.9-3.2-11-9.4-10.9h-1.3c-6.2,0-9.2,6-9.4,10.9-.2,4.9,1.3,10.6,4.4,13.6,1.4,1.4,3.6,2.1,5.6,2.1,2,0,4.1-.7,5.6-2.1,3.1-3,4.6-8.7,4.4-13.6h0Z"/><path class="cls-4" d="M22.9,18.6c0,.6-1.1,1.1-2.4,1.1s-2.4-.5-2.4-1.1,1.1-1.1,2.4-1.1,2.4.5,2.4,1.1Z"/><path class="cls-4" d="M31.7,18.6c0,.6-1.1,1.1-2.4,1.1s-2.4-.5-2.4-1.1,1.1-1.1,2.4-1.1,2.4.5,2.4,1.1Z"/><path class="cls-5" d="M32.4,1.7S29.1,0,24.9,0c-4.2,0-7.5,1.8-7.5,1.8-5.2,3.8-3.6,12.7-3.6,12.7,1.4.1.6,2.6,1.5,4.2.7-1.5.4-5,.4-5,.1-.8.7-1.5,1-2.3.4-.8,0,0,.4-.8.4-.9.6-2.8,1-3.7,2.8-.5,5-.7,6.8-.7,1.8,0,4,.2,6.8.7.4,1,.6,2.8,1,3.7.3.8,0,0,.4.8.4.8.9,1.5,1,2.3,0,0-.3,3.5.4,5,.9-1.6.1-4.1,1.5-4.2,0,0,1.5-8.9-3.6-12.7Z"/><path class="cls-1" d="M21.8,17c-.2,0-.3-.1-.3-.3,0-.6-.3-1-.5-1s-.5.4-.5,1-.1.3-.3.3-.3-.1-.3-.3c0-.9.5-1.6,1.1-1.6s1.1.7,1.1,1.6c0,.2-.1.3-.3.3h0Z"/><path class="cls-1" d="M29.6,17c-.2,0-.3-.1-.3-.3,0-.6-.3-1-.5-1s-.5.4-.5,1-.1.3-.3.3-.3-.1-.3-.3c0-.9.5-1.6,1.1-1.6s1.1.7,1.1,1.6c0,.2-.1.3-.3.3Z"/><path class="cls-2" d="M33.4,36l10.7,6s3.5,2.2,3.3,7.7H2.6c-.2-5.6,3.3-7.7,3.3-7.7l10.7-6,7.7,5.7,9.1-5.7Z"/><path class="cls-6" d="M22.3,13.8c0,.3-.3.5-.5.4-.9,0-1.8,0-2.6.4-.2.1-.5,0-.6-.3-.1-.3,0-.6.3-.7.9-.4,2-.6,3-.5.3,0,.5.3.5.6h0Z"/><path class="cls-6" d="M27.5,13.8c0,.3.3.5.5.4.9,0,1.8,0,2.6.4.2.1.5,0,.6-.3.1-.3,0-.6-.3-.7-.9-.4-2-.6-3-.5-.3,0-.5.3-.5.6h0Z"/><path class="cls-7" d="M24.7,21.4s0,0-.1,0c-.6-.3-1-.6-1.1-.9-.1-.5.2-.9.5-1.4.2-.3.4-.6.5-.9,0-.2.2-.2.4-.2.2,0,.2.2.2.4-.1.4-.4.8-.6,1.1-.2.3-.5.7-.4.9,0,.1.2.3.7.5.2,0,.2.2.2.4,0,.1-.2.2-.3.2Z"/><path class="cls-5" d="M33,20.5c-.3,1-.9,2.9-2.4,2.5-.4-.1-.7-.4-1-.7-.5-.4-1-.8-1.6-.9-.7-.1-1.4,0-2.1,0-.3,0-.6,0-.9,0h0s-.3,0-.3,0c-.3,0-.6,0-.9,0-.7,0-1.4,0-2.1,0-.7.1-1.1.5-1.6.9-.3.3-.6.6-1,.7-1.4.4-2.1-1.5-2.4-2.5-.3-1-.5-2.3-1.7-2.7.5,3.7,1.9,9.3,4.2,11.5,1.4,1.4,3.6,2.1,5.5,2.1h0s.3,0,.3,0c1.9,0,4.1-.7,5.5-2.1,2.2-2.2,3.6-7.9,4.2-11.5-1.2.3-1.4,1.7-1.7,2.7h0Z"/><path class="cls-8" d="M21.7,23.5c.4,1.3,1.7,2.3,3.2,2.3s2.8-1,3.2-2.3h-6.4Z"/></svg>