<?xml version="1.0" encoding="UTF-8"?>
<svg id="Layer_1" xmlns="http://www.w3.org/2000/svg" version="1.1" viewBox="0 0 841.9 595.3">
  <!-- Generator: Adobe Illustrator 29.6.1, SVG Export Plug-In . SVG Version: 2.1.1 Build 9)  -->
  <defs>
    <style>
      .st0 {
        fill: none;
      }

      .st1 {
        fill: #e0e0e0;
      }

      .st2 {
        fill: #f7996e;
      }

      .st3 {
        fill: #455b64;
      }

      .st4 {
        fill: #fbbf9e;
      }

      .st5 {
        fill: #263238;
      }

      .st6 {
        fill: #d81616;
      }

      .st7 {
        fill: #fff;
      }

      .st8 {
        opacity: .3;
      }

      .st9 {
        fill: #f5f5f5;
      }
    </style>
  </defs>
  <g>
    <path class="st5" d="M350.1,188c-.5-4.1-.9-8.2-.7-12.3.2-4.1,1.2-8.3,3.4-11.8.3-.5,2.9-4,3.5-3.8.4.1-1.4,3.5-1.3,3.9,1.4,4,1.1,8.5-.1,12.6-1.2,4.1-2.8,7.7-4.8,11.4"/>
    <path class="st4" d="M345.8,208.7l7-36.2c1.7-10.2,9.1-17.7,19.2-15.7l.9.2c9.3,2.4,15.2,11.6,13.6,21.1-1.5,8.8-3.4,18.6-4.6,23.2-2.6,9.6-12.6,8.6-12.6,8.6,0,0-2.4,10.9-3,13.7l-14.2-4.9-3.4-1.1-2.9-8.9h0Z"/>
    <path class="st2" d="M369.4,209.9s-6.1-1.2-11.5-6.9c0,0,1.1,8,11,9.6l.6-2.7h0Z"/>
    <path class="st5" d="M381.9,187c-.2.7-.9,1.2-1.7,1-.8-.1-1.3-.9-1.1-1.6.2-.7.9-1.2,1.7-1s1.3.9,1.1,1.6h0Z"/>
    <path class="st5" d="M383.4,181.8c-.2.1-1.1-.9-2.5-1.3-1.5-.4-2.8,0-2.9-.1,0-.1.2-.4.8-.6.5-.2,1.4-.4,2.4-.1s1.6.8,2,1.2c.4.5.4.8.3.9h0Z"/>
    <path class="st5" d="M368.7,184.1c-.2.7-.9,1.2-1.7,1-.8-.1-1.3-.9-1.1-1.6.2-.7.9-1.2,1.7-1,.8.1,1.3.9,1.1,1.6h0Z"/>
    <path class="st5" d="M369.1,178.7c-.2.1-1.1-.9-2.5-1.3-1.5-.4-2.8,0-2.9-.1,0-.1.2-.4.8-.6.5-.2,1.4-.4,2.4-.1s1.6.8,2,1.2c.4.5.4.8.3.9h0Z"/>
    <path class="st5" d="M371.2,191.1c0,0,1,0,2.5.2.4,0,.8,0,.9-.2.2-.2.1-.7,0-1.2-.1-1-.2-2.1-.4-3.2-.5-4.5-.7-8.1-.6-8.2s.7,3.6,1.2,8.1c.1,1.1.2,2.2.3,3.2,0,.5.1,1-.2,1.5-.2.3-.5.4-.8.4-.3,0-.5,0-.7,0-1.5-.3-2.5-.5-2.4-.6h0Z"/>
    <path class="st5" d="M371.3,173.1c-.3.3-1.6-.4-3.4-.9-1.7-.5-3.3-.6-3.3-1,0-.2.4-.5,1-.6.7-.1,1.7-.1,2.7.2,1,.3,1.9.8,2.4,1.3.5.5.7.9.5,1.1h0Z"/>
    <path class="st5" d="M384.9,176.2c-.4.3-1.5-.4-3-.8-1.4-.4-2.7-.4-2.9-.8,0-.2.2-.5.8-.7.6-.2,1.5-.2,2.5,0,1,.3,1.8.8,2.2,1.2.4.5.5.9.3,1h0Z"/>
    <path class="st4" d="M351.8,179.8c-.1-.1-6.1-3.7-7.6,3-1.5,6.6,5.5,6.8,5.5,6.6s2.1-9.5,2.1-9.5h0Z"/>
    <path class="st2" d="M348.2,186.4s-.1,0-.4.1c-.2,0-.5,0-.9-.2-.6-.4-1-1.7-.8-2.9.1-.6.4-1.1.7-1.6.3-.4.7-.7,1.1-.7.4,0,.6.3.6.5,0,.2,0,.3,0,.4,0,0,.2,0,.2-.4s0-.3-.2-.5c-.1-.2-.4-.3-.6-.3-.5,0-1.1.3-1.4.8-.4.5-.7,1.1-.8,1.8-.3,1.3.1,2.8,1,3.2.4.2.9.2,1.1,0,.2-.1.3-.3.3-.3h0Z"/>
    <path class="st5" d="M384.6,166.2c1.2-.4-1.3-4.5-3.6-6.3-3.6-2.7-9.5-5.1-13.4-4.9-4.7.3-8.9,1.7-11.9,5.3-3.1,3.6-4.9,8.1-5.8,12.7-.3,1.4-.4,2.9,0,4.2.6,1.7,2.2,3,1.7,5-.2.7-.1,1.5.2,2.2.9,1.6,2.7.7,3.6-.4,2-2.3,2.9-5.4,3.6-8.3.5-2.1,1.1-4.2.9-6.4,0-1.2-.4-2.3-.4-3.5s.3-2.4,1.2-3.2c.1-.1.4-.3.7-.4,2.2-1.2,5-1.2,7.1.2,3.5,2.1,9.4,5.5,11.4,4.6,2.8-1.3,3.6-2.4,3.6-2.4l1,1.7h0Z"/>
    <path class="st5" d="M366.4,191c.2,0,0,1.6,1,2.9,1.1,1.4,2.7,1.5,2.7,1.8,0,.1-.4.2-1.1,0-.7-.1-1.6-.5-2.3-1.4s-.8-1.8-.7-2.4c0-.6.3-1,.4-1Z"/>
  </g>
  <g>
    <g>
      <path class="st4" d="M382.9,271.8l25.1,10.2-3.1,11.8-25.8-5.3c-5.5-.7-10.3-4.3-12.4-9.4l-8.9-21.5,14.2-13.5,10.9,27.8h0Z"/>
      <g>
        <path class="st4" d="M407.5,296.5c2.6,1,5.4,2.1,5.4,2.1l2.6.9c-.1.1-.2.3-.4.4-.3.2-.5.5-.6.8-.2.6.2,1.3.8,1.7,1.1.8,2.7,1,3.9.5,1.2-.5,2.1-1.7,2.3-3,.3-.2.5-.5.7-.9,1.2-2.3-.5-5.6-.5-5.6l1,.2s2.5,1.7,1.7,6.6c-.1.7,0,1.5.4,2.1.2.4.6.7,1.1.8,1.2.1,1.6-.7,2.1-3.7.5-3.1,0-6.2-1.5-7.7-1.5-1.5-2.1-2-2.1-2,0,0,8.6,1.3,9.2,1.3,1.6.2,3-.4,3.2-1.5.1-.7-.2-1.6-2-1.9-1.6-.2-17.7-4.5-17.7-4.5l-7.2-1.5-6.2-.3-2.3,9.4,1.8,1.9c1,1.8,2.6,3.1,4.5,3.8h0Z"/>
        <g>
          <path class="st4" d="M410.1,283.1c-.4.9.2,1.9.9,2.5.7.6,1.7.9,2.4,1.5,2.3,1.6,3.1,4.9,5.5,6.4.3.2.8.4,1.1,0,.3-.3.1-.7,0-1-1.1-2.9-2.3-5.9-3.5-8.8"/>
          <path class="st2" d="M416.7,283.8s.2.3.5.9.6,1.5,1.1,2.6c.5,1.1,1,2.4,1.6,3.8.1.4.3.7.5,1.1.1.4.4.8.2,1.4-.1.3-.5.5-.8.4-.3,0-.5-.1-.7-.2-.4-.2-.8-.5-1.1-.9-1.3-1.3-2-2.9-3-4.1-.5-.6-1-1.1-1.5-1.5-.5-.4-1.1-.7-1.6-1-1.1-.6-1.7-1.5-1.8-2.2-.1-.7.2-1,.2-1,0,0-.1.4,0,1,.2.6.7,1.4,1.8,1.9.5.3,1.1.5,1.7.9.6.4,1.1,1,1.6,1.6,1,1.2,1.8,2.8,3,4,.3.3.6.6,1,.8.3.2.7.2.8,0,.1-.2,0-.6-.2-1s-.3-.8-.4-1.1c-.5-1.4-1-2.7-1.5-3.9-.4-1.1-.7-2-.9-2.6s-.3-1-.3-1h0Z"/>
        </g>
        <path class="st2" d="M421.6,293.3c0,0,.8,0,1.6.8.4.4.8.9.9,1.7.1.7.1,1.5,0,2.4,0,.9-.2,1.7-.1,2.5,0,.8.3,1.5.7,1.9.4.5.9.7,1.2.7.3,0,.5,0,.5-.1,0,0-.2,0-.5,0-.3,0-.7-.2-1-.7s-.5-1.1-.5-1.8c0-.7,0-1.5.1-2.4s.1-1.7,0-2.5c-.2-.8-.6-1.4-1-1.8-.5-.4-.9-.5-1.2-.6s-.5,0-.5,0h0Z"/>
        <path class="st2" d="M434.1,291s-.7-.1-1.7-.3c-1.2-.1-2.6-.3-4.1-.5-1.6-.2-3-.4-4.1-.6-1.1-.2-1.7-.2-1.7-.2,0,0,.6.2,1.7.4,1,.2,2.5.5,4.1.7,1.6.2,3.1.4,4.2.4s1.7,0,1.7,0h0Z"/>
        <path class="st2" d="M419.4,295s0,.2.1.5c0,.3.2.9-.1,1.3-.1.2-.4.4-.8.4-.3,0-.7-.1-1.1-.2-.4-.1-.9-.2-1.4,0-.5.2-.8.7-.9,1.2,0,.5.1,1.1.4,1.4.3.4.7.7,1.1.8.8.2,1.6.3,2.2.3.6,0,1.1-.1,1.5-.2.3-.1.5-.3.5-.3,0,0-.2,0-.5.2-.3,0-.8.1-1.4.1-.6,0-1.4,0-2.1-.3-.7-.2-1.4-1-1.3-1.9,0-.4.3-.8.7-1s.8-.1,1.1,0c.4.1.8.2,1.2.2.4,0,.8-.2,1-.5.4-.6.1-1.2,0-1.5-.1-.3-.2-.5-.3-.5h0Z"/>
        <path class="st2" d="M416,299.5s-.2,0-.5,0c-.3,0-.8.3-1,.9-.2.5-.1,1.4.3,2s1.3,1,2.2,1.2c.9.1,1.7,0,2.4-.4.7-.4,1.1-.9,1.4-1.4.3-.5.4-.9.5-1.2s0-.5,0-.5c0,0,0,.7-.7,1.6-.3.4-.8.9-1.4,1.2-.6.3-1.4.5-2.2.4-.8-.1-1.5-.5-2-1s-.5-1.2-.4-1.7.6-.7.8-.8c.3-.1.5,0,.5-.1h0Z"/>
        <path class="st2" d="M411,292.8s.1-.3.1-.8c0-.5-.2-1.3-.9-2v.3c.2,0,.6,0,1.1,0,2.3-.2,3.9-1.2,3.9-1.3,0-.1-1.7.8-3.9.9-.4,0-.8,0-1.1,0h-.4l.3.3c.6.6.8,1.3.9,1.8,0,.5,0,.8.1.8h0Z"/>
        <path class="st2" d="M425.7,295c0,0-.7.2-1.1.9-.4.7-.3,1.4-.2,1.4.1,0,.2-.6.5-1.2.4-.6.9-1,.8-1.1h0Z"/>
      </g>
    </g>
    <path class="st6" d="M368.8,225.6s-1.3-8.5-1.2-7.9c.6,2.9,4.8,7.2,5.9,16.6.4,3.7,6.9,27.6,6.9,27.6l-18.1,8.4-1.1-20.3,7.7-24.4h0Z"/>
  </g>
  <g>
    <g>
      <path class="st5" d="M496.8,352.9c-.1,0-.3-2.5-2-6.1-.8-1.8-2.1-3.8-3.9-5.5-1.8-1.7-4.3-2.9-7-2.7-2.7.2-5,1.7-6.5,3.6-1.5,1.9-2.5,4.1-3,6-1.1,3.8-.9,6.4-1,6.4,0,0,0-.2,0-.5,0-.3,0-.7,0-1.3,0-1.1.2-2.8.8-4.7.5-1.9,1.4-4.2,3-6.2,1.5-2,4-3.6,6.8-3.8,2.8-.2,5.4,1,7.2,2.8,1.9,1.8,3.1,3.9,3.9,5.7.8,1.8,1.2,3.5,1.5,4.6.1.6.2,1,.2,1.3,0,.3,0,.5,0,.5h0Z"/>
      <path class="st5" d="M500.8,352.6c-.1,0-.3-2.5-2-6.1-.8-1.8-2.1-3.8-3.9-5.5-1.8-1.7-4.3-2.9-7-2.7-2.7.2-5,1.7-6.5,3.6-1.5,1.9-2.5,4.1-3,6-1.1,3.8-.9,6.4-1,6.4,0,0,0-.2,0-.5,0-.3,0-.7,0-1.3,0-1.1.2-2.8.8-4.7.5-1.9,1.4-4.2,3-6.2,1.5-2,4-3.6,6.8-3.8,2.8-.2,5.4,1,7.2,2.8,1.9,1.8,3.1,3.9,3.9,5.7.8,1.8,1.2,3.5,1.5,4.6.1.6.2,1,.2,1.3,0,.3,0,.5,0,.5h0Z"/>
      <polygon class="st6" points="459.7 352.9 505.2 349.2 510.4 405.6 459.3 409.5 459.7 352.9"/>
      <polygon class="st6" points="505.2 349.2 510.9 348.8 520.1 404.9 510.4 405.6 505.2 349.2"/>
      <g class="st8">
        <polygon points="505.2 349.2 510.9 348.8 520.1 404.9 510.4 405.6 505.2 349.2"/>
      </g>
    </g>
    <rect class="st7" x="469.3" y="370.1" width="29.9" height="5.7" transform="translate(-26.5 37.3) rotate(-4.3)"/>
  </g>
  <g>
    <g>
      <path class="st5" d="M438.7,319.6c-.1,0-.1-2.2-1.3-5.4-.6-1.6-1.5-3.4-3-4.9-1.4-1.6-3.5-2.7-5.8-2.7-2.3,0-4.4,1.1-5.8,2.7-1.4,1.5-2.4,3.4-3,4.9-1.2,3.2-1.2,5.4-1.3,5.4,0,0,0-.1,0-.4,0-.3,0-.6.1-1.1.1-1,.4-2.4,1-4,.6-1.6,1.5-3.5,3-5.1,1.5-1.6,3.6-2.8,6-2.8,2.4,0,4.6,1.2,6,2.9,1.5,1.6,2.4,3.5,3,5.1.6,1.6.8,3,.9,4,0,.5,0,.9.1,1.1s0,.4,0,.4h0Z"/>
      <path class="st5" d="M442.1,319.6c-.1,0-.1-2.2-1.3-5.4-.6-1.6-1.5-3.4-3-4.9-1.4-1.6-3.5-2.7-5.8-2.7-2.3,0-4.4,1.1-5.8,2.7-1.4,1.5-2.4,3.4-3,4.9-1.2,3.2-1.2,5.4-1.3,5.4,0,0,0-.1,0-.4,0-.3,0-.6.1-1.1.1-1,.4-2.4,1-4,.6-1.6,1.5-3.5,3-5.1,1.5-1.6,3.6-2.8,6-2.8,2.4,0,4.6,1.2,6,2.9,1.5,1.6,2.4,3.5,3,5.1.6,1.6.8,3,.9,4,0,.5,0,.9.1,1.1s0,.4,0,.4h0Z"/>
      <polygon class="st3" points="407 317.2 446.1 317 446.9 365.5 403 365.5 407 317.2"/>
      <polygon class="st3" points="446.1 317 451 317 455.2 365.5 446.9 365.5 446.1 317"/>
      <g class="st8">
        <polygon points="446.1 317 451 317 455.2 365.5 446.9 365.5 446.1 317"/>
      </g>
    </g>
    <rect class="st7" x="413.8" y="333.5" width="25.6" height="4.9"/>
  </g>
  <g>
    <g>
      <g>
        <path class="st1" d="M433.5,343.6s-11.5,1.5-12.3,3.6c0,0,.5,8.5,9.3,16.5l-1.4,3.6.4,5.7c3.3-7.7,6.7-19.3,6.7-19.3,0,0-.4-8-2.7-10.1h0Z"/>
        <g class="st8">
          <path d="M433.1,344.4s-3.3,10.8-.2,18.2c0,0,4.9-9.7.2-18.2Z"/>
        </g>
        <path class="st1" d="M452.3,356.4s-6.1-9.9-8.4-9.7c0,0-7.6,4-11.2,15.3l-3.9.2s-2.7-8.7-13.4-12.8c0,0-5.1,11-5.3,10.9-.2,0,5.3,4.7,13.6,4.5,8.3-.2,20.3-1.9,20.3-1.9,0,0,7.1-3.6,8.1-6.7h0Z"/>
        <g class="st8">
          <path d="M427,363.8s-9.1-4.4-16-3.4c0,0,8.6,6.2,16,3.4Z"/>
        </g>
        <g class="st8">
          <path d="M451.5,356.4s-11.2,1.5-16.7,7.3c0,0,10.8.4,16.7-7.3Z"/>
        </g>
      </g>
      <polygon class="st6" points="469.7 361.1 470 407.5 398.8 412.2 394.8 366 469.7 361.1"/>
      <g class="st8">
        <polygon points="456.1 362 459.2 408.2 470 407.5 469.7 361.1 456.1 362"/>
      </g>
      <polygon class="st9" points="464.3 361.5 465.5 407.8 463 408 460 361.8 464.3 361.5"/>
      <rect class="st9" x="424.6" y="363.9" width="6" height="46.3" transform="translate(-24.4 28.8) rotate(-3.7)"/>
    </g>
    <rect class="st9" x="396.6" y="383.6" width="73.2" height="4.5" transform="translate(-27.6 33.5) rotate(-4.3)"/>
  </g>
  <path class="st1" d="M404.8,411.7c-.2,0-.4-.2-.5-.4l-18.3-91.9c0-.3.1-.5.4-.6.3,0,.5.1.6.4l18.3,91.9c0,.3-.1.5-.4.6h-.1Z"/>
  <path class="st1" d="M420.6,410.9c-.2,0-.5-.2-.5-.4l-16-85.7c0-.3.1-.5.4-.6s.5.1.6.4l16,85.7c0,.3-.1.5-.4.6h0Z"/>
  <path class="st1" d="M435.4,410c-.2,0-.5-.2-.5-.4l-12.5-84.4c0-.3.1-.5.4-.6.3,0,.5.1.6.4l12.5,84.4c0,.3-.1.5-.4.6h0Z"/>
  <path class="st1" d="M452,410.4c-.2,0-.5-.2-.5-.4l-12.1-82.2c0-.3.1-.5.4-.6.3,0,.5.1.6.4l12.1,82.2c0,.3-.1.5-.4.6h0Z"/>
  <path class="st1" d="M468.1,407.3c-.2,0-.5-.2-.5-.4l-11.2-75.6c0-.3.1-.5.4-.6.3,0,.5.1.6.4l11.2,75.6c0,.3-.1.5-.4.6h0Z"/>
  <path class="st1" d="M485,408.9c-.2,0-.5-.2-.5-.4l-11.1-75.5c0-.3.1-.5.4-.6.3,0,.5.1.6.4l11.1,75.5c0,.3-.1.5-.4.6h0Z"/>
  <path class="st1" d="M499.9,407.3c-.2,0-.5-.2-.5-.5l-7.2-71c0-.3.2-.5.5-.5.3,0,.5.2.5.5l7.2,71c0,.3-.2.5-.5.5h0Z"/>
  <path class="st1" d="M512.3,407.3c-.3,0-.5-.2-.5-.5l-2.4-68.3c0-.3.2-.5.5-.5.3,0,.5.2.5.5l2.4,68.3c0,.3-.2.5-.5.5h0Z"/>
  <path class="st1" d="M387.1,396c4.6-.2,9.2-.5,13.8-.7,11-.5,22-1.1,33-1.6,13.3-.7,26.5-1.3,39.8-2,11.5-.6,22.9-1.1,34.4-1.7,3.8-.2,7.6-.4,11.4-.6,1.8,0,3.6,0,5.4-.3,0,0,.2,0,.2,0,.8,0,.8-1.3,0-1.2-4.6.2-9.2.5-13.8.7-11,.5-22,1.1-33,1.6-13.3.7-26.5,1.3-39.8,2-11.5.6-22.9,1.1-34.4,1.7-3.8.2-7.6.4-11.4.6-1.8,0-3.6,0-5.4.3,0,0-.2,0-.2,0-.8,0-.8,1.3,0,1.2h0Z"/>
  <path class="st1" d="M382.9,371.7c4.8.1,9.5.2,14.3.3,11.4.2,22.8.5,34.1.7,13.8.3,27.5.6,41.3.9,11.9.2,23.9.5,35.8.8l11.8.2c1.8,0,3.7.2,5.5.1h.2c.8,0,.8-1.2,0-1.2-4.8-.1-9.5-.2-14.3-.3-11.4-.2-22.8-.5-34.1-.7-13.8-.3-27.5-.6-41.3-.9-11.9-.2-23.9-.5-35.8-.8-3.9,0-7.9-.2-11.8-.2-1.8,0-3.7-.2-5.5-.1h-.2c-.8,0-.8,1.2,0,1.2h0Z"/>
  <path class="st1" d="M376.8,344.2c5,.5,10,1,15,1.4,12,1.1,23.9,2.3,35.8,3.4,14.4,1.4,28.9,2.7,43.3,4.1,12.5,1.2,25,2.4,37.5,3.6,4.1.4,8.2.8,12.3,1.2,1.9.2,3.9.5,5.8.5,0,0,.2,0,.3,0,.8,0,.8-1.2,0-1.2-5-.5-10-1-15-1.4-12-1.1-23.9-2.3-35.8-3.4-14.4-1.4-28.9-2.7-43.3-4.1-12.5-1.2-25-2.4-37.5-3.6-4.1-.4-8.2-.8-12.3-1.2-1.9-.2-3.9-.5-5.9-.5,0,0-.2,0-.3,0-.8,0-.8,1.2,0,1.2h0Z"/>
  <g>
    <path class="st1" d="M395.6,415.2c-3.7,0-6.9-2.5-7.6-6.2l-19.6-91.6c-.1-.6,0-1.3.5-1.8s1.1-.7,1.7-.6l157.8,24.2c1,.1,1.7,1,1.7,2.1l-3.7,59.9c-.2,4-3.4,7.1-7.4,7.3l-122.9,6.7c-.1,0-.3,0-.4,0h0ZM372.8,319.4l19,88.8c.4,1.9,2.1,3.2,4,3.1l122.9-6.7c2-.1,3.5-1.7,3.7-3.6l3.6-58.1-153.2-23.5h0Z"/>
    <g>
      <path class="st0" d="M395.6,415.2c-3.7,0-6.9-2.5-7.6-6.2l-19.6-91.6c-.1-.6,0-1.3.5-1.8s1.1-.7,1.7-.6l157.8,24.2c1,.1,1.7,1,1.7,2.1l-3.7,59.9c-.2,4-3.4,7.1-7.4,7.3l-122.9,6.7c-.1,0-.3,0-.4,0h0ZM372.8,319.4l19,88.8c.4,1.9,2.1,3.2,4,3.1l122.9-6.7c2-.1,3.5-1.7,3.7-3.6l3.6-58.1-153.2-23.5h0Z"/>
      <path class="st5" d="M372.8,319.4s.2,0,.7.1c.5,0,1.2.2,2.2.3,1.9.3,4.8.7,8.5,1.3,7.4,1.1,18.2,2.8,31.8,4.8,27.2,4.1,65.6,10,110,16.7h.2v.3c-.6,10-1.3,20.4-1.9,31-.3,5.4-.7,10.8-1,16.3-.2,2.8-.3,5.5-.5,8.3v2.1c-.2.7-.3,1.5-.7,2.1-.7,1.3-2.2,2.2-3.7,2.1-30.2,1.6-59,3.2-85.2,4.6-13.1.7-25.5,1.4-37.2,2-1.5.2-3.1-.5-3.9-1.8-.2-.3-.4-.7-.5-1-.1-.4-.2-.7-.2-1.1-.1-.7-.3-1.4-.4-2.1-.6-2.8-1.2-5.5-1.7-8.1-1.1-5.3-2.2-10.4-3.2-15.2-8.2-38.6-13-61.3-13.3-62.7.3,1.4,5.2,24.1,13.6,62.7,1,4.8,2.1,9.9,3.3,15.2.6,2.6,1.1,5.3,1.7,8.1.1.7.3,1.4.4,2.1.1.7.3,1.4.7,1.9.7,1.1,2.1,1.8,3.5,1.6,11.6-.6,24.1-1.3,37.2-2,26.2-1.4,55-3,85.1-4.6,1.3,0,2.6-.7,3.2-1.9.3-.6.5-1.2.5-1.9v-2.1c.3-2.8.5-5.5.7-8.3.3-5.5.7-10.9,1-16.3.7-10.7,1.3-21.1,1.9-31l.2.3c-44.4-6.9-82.6-12.8-109.8-17-13.6-2.1-24.4-3.8-31.9-5-3.7-.6-6.6-1-8.5-1.3-1-.1-1.7-.3-2.2-.4-.5,0-.8-.1-.8-.1h0Z"/>
      <path class="st5" d="M395.6,415.2c.7,0,6.6-.4,18.3-1.1,11.8-.7,28.8-1.6,49.8-2.8,10.5-.6,22-1.2,34.4-1.9s12.6-.7,19.2-1c.8,0,1.7,0,2.5-.2.8-.1,1.6-.4,2.3-.8,1.4-.7,2.7-2,3.4-3.5.3-.7.6-1.5.7-2.4,0-.8.1-1.7.2-2.5.1-1.7.2-3.4.3-5.2.9-13.9,1.8-28.5,2.7-43.6.1-1.9.2-3.8.3-5.7,0-1,.1-1.9.2-2.9,0-.5,0-.9-.1-1.3-.2-.4-.5-.7-.9-.8-.4-.1-.9-.2-1.4-.3l-1.4-.2c-1-.1-1.9-.3-2.9-.4-1.9-.3-3.8-.6-5.8-.9-7.7-1.2-15.6-2.4-23.5-3.6-31.8-4.9-62-9.5-89.6-13.8-6.9-1.1-13.6-2.1-20.1-3.1-3.3-.5-6.5-1-9.6-1.5-.8-.1-1.6-.2-2.4-.4l-1.2-.2c-.4,0-.7-.1-1.1,0-.7.2-1.2.8-1.3,1.5,0,.3,0,.7.1,1.1l.2,1.1c2.6,12.1,5,23.4,7.2,33.7,4.4,20.6,7.9,37.3,10.4,48.8.6,2.9,1.1,5.4,1.6,7.6.5,2.2,1.8,3.8,3.1,4.6,1.3.9,2.5,1.2,3.2,1.3.8.1,1.2,0,1.2.1h-.3c-.2,0-.5,0-.9,0-.8-.1-2-.4-3.3-1.3-1.3-.9-2.6-2.4-3.2-4.7-.5-2.2-1-4.8-1.7-7.6-2.5-11.5-6.1-28.2-10.5-48.8-2.2-10.3-4.6-21.6-7.2-33.7l-.2-1.1c0-.4-.2-.8-.1-1.2,0-.9.8-1.6,1.6-1.9.4-.1.9,0,1.3,0l1.2.2c.8.1,1.6.2,2.4.4,3.2.5,6.4,1,9.6,1.5,6.5,1,13.2,2,20.1,3.1,27.5,4.2,57.8,8.9,89.6,13.7,7.9,1.2,15.8,2.4,23.5,3.6,1.9.3,3.9.6,5.8.9,1,.1,1.9.3,2.9.4l1.4.2c.5.1.9,0,1.5.3.5.2.9.6,1.2,1.1.3.5.2,1.1.2,1.5,0,1-.1,1.9-.2,2.9-.1,1.9-.2,3.8-.4,5.7-.9,15.1-1.9,29.7-2.7,43.6-.1,1.7-.2,3.5-.3,5.2,0,.9,0,1.7-.2,2.6-.1.9-.4,1.7-.7,2.5-.8,1.6-2,2.9-3.6,3.7-.8.4-1.6.7-2.4.8-.9.1-1.7.1-2.5.2-6.6.4-13,.7-19.2,1-12.4.7-23.9,1.3-34.4,1.8-21,1.1-38,2-49.8,2.6-5.9.3-10.4.5-13.5.7-1.5,0-2.7.1-3.5.2-.8,0-1.2,0-1.2,0h0Z"/>
    </g>
  </g>
  <g>
    <path class="st5" d="M302.5,308.1s-2.3,9.1-2.1,15.1c.2,6,3.2,15.5,3.2,15.5l-2.5,40.7h0s-14,13.3-18.5,19.2c-4.1,5.3-31.8,36.5-31.8,36.5l21,17.7s34.3-34.1,41.4-41.9c7.1-7.8,15.1-13.1,18.1-23.6s9.6-49,9.6-49l7.9-14.4-2-13.2-44.4-2.6h0Z"/>
    <path class="st5" d="M318.6,386.8c-.3,1.6-18.7,75.2-18.7,75.2l28.5,6.8c-.6-.9,6-27.4,11.5-48.4,5-19.4,7.8-25.7,9.1-33.5,1.3-7.9,7.4-54,7.1-56.9-.2-3,1.2-7,1.2-7l-24.2-5.8-14.5,69.8h0Z"/>
    <path class="st3" d="M345.7,329.6s0,.1-.2.4c-.2.3-.5.6-.8,1.1-.7,1-1.8,2.5-3.1,4.4h0c-.9,5.7-2.4,15-4.6,26.4-1.1,5.7-2.3,12-3.8,18.6-.4,1.7-.8,3.3-1.2,5-.2.9-.5,1.7-.7,2.5-.2.9-.5,1.7-.9,2.5-.3.9-.8,1.7-1.3,2.4-.5.8-1.1,1.5-1.6,2.2-1.1,1.5-2.3,2.9-3.5,4.3-6.8,7.8-13.6,14.8-19.8,21.2-6.2,6.4-11.9,12.1-16.7,16.8-4.8,4.8-8.7,8.6-11.4,11.2-1.3,1.3-2.4,2.3-3.1,3-.4.3-.6.6-.8.8-.2.2-.3.3-.3.2,0,0,0-.1.3-.3.2-.2.5-.5.8-.8.7-.7,1.8-1.8,3.1-3.1,2.7-2.7,6.5-6.5,11.3-11.3,4.7-4.8,10.4-10.5,16.6-16.9,6.2-6.4,13-13.5,19.8-21.2,1.2-1.4,2.4-2.8,3.5-4.2,1.1-1.5,2.3-2.9,2.9-4.5.3-.8.6-1.6.9-2.5.2-.9.5-1.7.7-2.5.4-1.7.9-3.4,1.2-5,1.5-6.6,2.7-12.9,3.8-18.6,2.2-11.4,3.8-20.6,4.8-26.4h0s0,0,0,0c1.4-1.9,2.5-3.3,3.2-4.3.4-.5.6-.8.8-1.1.2-.2.3-.4.3-.4h0Z"/>
    <g>
      <path class="st5" d="M278.5,442.9l-13.9,14.3s9.9,18.9,7.6,21.8l-28.7-26,20.8-23.2,14.3,13h0Z"/>
      <path class="st1" d="M256.8,447.9c-.7-.4-1.6,0-2,.6s-.1,1.6.6,2c.7.4,1.8,0,2.1-.6.3-.7,0-1.8-.8-2"/>
      <path class="st3" d="M243.4,453l2.2-2.3,26.7,25.7s.8,1.7-.2,2.5l-28.7-26h0Z"/>
      <path class="st7" d="M265.2,457.5c-.1.1-.9-.4-2-.6-1.1-.2-2,0-2.1,0-.1-.1.9-.8,2.2-.6,1.3.2,2,1.1,1.9,1.3h0Z"/>
      <path class="st7" d="M267.1,461.4c0,.2-.9-.1-1.9,0-1,.1-1.7.7-1.9.5-.1-.1.5-1,1.8-1.2,1.3-.2,2.1.5,2,.6Z"/>
      <path class="st7" d="M265.5,466.6c-.1,0,.3-1,1.3-1.4,1-.5,2-.2,1.9,0,0,.2-.8.2-1.7.6-.9.4-1.4.9-1.6.8h0Z"/>
      <path class="st7" d="M268,453.8c-.2,0-.6-.7-1.5-1.4-.8-.7-1.7-1-1.6-1.2,0-.2,1.1-.1,2.1.6,1,.8,1.2,1.8,1.1,1.9h0Z"/>
    </g>
    <g>
      <path class="st5" d="M325,456.8l-3.3,15.5v3c-.1,0,19.9,7.4,20.2,11.1h-38.7c0,0,0-11.5,0-11.5l4.2-20.5,17.8,2.4h0Z"/>
      <path class="st1" d="M309.6,473.6c-.8.2-1.3,1-1.1,1.8.2.8,1,1.3,1.8,1.1s1.4-1.2,1.1-1.9c-.3-.7-1.3-1.3-2-.9"/>
      <path class="st3" d="M303.1,486.4v-3.1c.1,0,37.2,1.1,37.2,1.1,0,0,1.7.8,1.5,2h-38.7Z"/>
      <path class="st7" d="M322.2,475.1c0,.2-1,.3-1.9.9-1,.6-1.4,1.4-1.6,1.3-.2,0,.1-1.2,1.2-1.9,1.1-.7,2.3-.5,2.2-.3h0Z"/>
      <path class="st7" d="M326.2,476.7c0,.2-.8.5-1.4,1.3-.7.8-.8,1.6-1,1.6-.2,0-.3-1.1.5-2.1.8-1,1.9-1.1,1.9-.9h0Z"/>
      <path class="st7" d="M328.5,481.6c-.2,0-.4-.9,0-1.9.5-1,1.4-1.5,1.5-1.3.1.2-.5.7-.9,1.6-.4.9-.5,1.6-.6,1.7h0Z"/>
      <path class="st7" d="M321.8,470.5c0,.2-1,0-2,0-1.1,0-1.9.4-2,.2-.1-.1.7-.8,2-.9,1.3,0,2.1.5,2,.7h0Z"/>
    </g>
  </g>
  <g>
    <g>
      <path class="st1" d="M373.6,470.8c-.4,0-.7-.1-1-.3-.9-.6-1.1-1.7-.6-2.6l28.4-44.5c3.5-5.5,9.2-9,15.7-9.8,4.5-.5,8.9.4,12.9,2.6l72.6,40.9s.1,0,.1,0c4.4,3,6.8,6.2,7.1,9.6.1,1-.6,2-1.7,2.1-1,.1-2-.6-2.1-1.7-.2-2.2-2.1-4.5-5.4-6.8l-72.5-40.9c-3.2-1.8-6.9-2.6-10.6-2.2-5.3.6-10,3.5-12.9,8l-28.4,44.5c-.4.6-1,.9-1.6.9h0Z"/>
      <path class="st5" d="M373.6,470.8s.3,0,.8-.2c.2-.1.5-.3.8-.7.2-.4.5-.8.8-1.2,1.2-1.8,2.9-4.5,5-8,4.4-6.9,10.8-17,18.7-29.5,1-1.6,2-3.2,3-4.8,1-1.6,2.2-3.3,3.7-4.7,3-2.8,7.1-4.6,11.6-4.7,2.2,0,4.5.3,6.6,1.1,1.1.4,2.1.9,3.1,1.5,1,.6,2,1.1,3,1.7,4.1,2.3,8.3,4.6,12.6,7.1,17.2,9.7,36.3,20.4,56.5,31.8h0c1.2.8,2.3,1.7,3.3,2.8,1,1.1,1.9,2.4,2.2,3.9,0,.4,0,.7.3,1,.2.3.4.5.7.6.6.3,1.3.2,1.8-.3.2-.2.4-.5.5-.8,0-.3,0-.6,0-1-.1-.7-.3-1.4-.6-2.1-1.3-2.8-3.7-5-6.2-6.7-2.6-1.5-5.4-3-8-4.6-5.3-3-10.6-6-15.8-8.9-10.3-5.8-20.3-11.5-29.8-16.8-4.8-2.7-9.4-5.3-13.9-7.8-2.3-1.2-4.5-2.6-6.7-3.7-2.2-1.1-4.6-1.7-7-2-4.8-.5-9.5.8-13.3,3.1-1.9,1.2-3.6,2.6-4.9,4.3-1.4,1.6-2.4,3.5-3.6,5.2-8.9,13.9-16.1,25.1-21.1,32.9-2.5,3.9-4.5,6.9-5.7,8.9-.2.5-.2,1.1,0,1.5s.5.7.8.8c.5.3.9.2.9.2,0,0,0,0-.2,0-.2,0-.4,0-.7-.2-.3-.1-.6-.4-.8-.8-.2-.4-.3-1,0-1.6,1.2-2.1,3.2-5.1,5.6-9,5-7.8,12.1-19.1,21-33,1.1-1.7,2.1-3.6,3.6-5.2,1.4-1.7,3.1-3.1,5-4.4,3.8-2.4,8.7-3.7,13.5-3.2,2.4.2,4.9.9,7.2,2,2.3,1.1,4.4,2.5,6.7,3.7,4.5,2.5,9.1,5.1,13.9,7.8,9.5,5.4,19.5,11,29.8,16.8,5.2,2.9,10.4,5.9,15.8,8.9,2.7,1.5,5.4,3,8.1,4.6,2.5,1.8,5,4,6.4,7,.3.7.5,1.5.7,2.2,0,.4.1.8,0,1.2-.1.4-.3.8-.6,1.1-.6.6-1.6.7-2.4.4-.4-.2-.7-.5-.9-.8-.2-.3-.3-.8-.3-1.1-.2-1.4-1.1-2.6-2-3.6-1-1-2.1-1.9-3.2-2.7h0c-20.1-11.4-39.2-22.1-56.4-31.8-4.3-2.4-8.5-4.8-12.6-7.1-1-.6-2-1.1-3-1.7-1-.6-2-1.1-3-1.5-2.1-.8-4.3-1.1-6.5-1.1-4.3.1-8.4,1.9-11.3,4.6-1.5,1.4-2.6,3-3.6,4.6-1,1.6-2.1,3.2-3.1,4.8-8,12.5-14.4,22.5-18.9,29.4-2.2,3.4-3.9,6.1-5.1,7.9-.3.5-.5.9-.8,1.2-.2.4-.5.5-.8.7-.5.2-.8.2-.8.2h0Z"/>
    </g>
    <circle class="st5" cx="372.2" cy="480.7" r="8.9"/>
    <g>
      <path class="st1" d="M377.9,471.4c.2-.2.4-.5.4-.9v-.8c0-.7-.6-1.3-1.3-1.3h-8.2c-.7,0-1.3.6-1.3,1.3v.8c0,.4.2.8.5,1l-3.9.7v2.1l4.2,1.5,2.4,6c.3.7,1,1.2,1.7,1.2s1.5-.5,1.7-1.2l2.4-6.1,4.2-1v-2.8l-3-.6h0Z"/>
      <path class="st5" d="M377.9,471.4s.3,0,.8.1c.5,0,1.2.2,2.2.4h0c0,.9,0,1.8,0,2.9h0c0,.1-.1.1-.1.1-1.2.3-2.6.7-4.2,1.1h.1c-.4,1-.9,2.1-1.3,3.3-.2.6-.5,1.2-.7,1.9-.1.3-.2.6-.4,1-.2.4-.5.7-.8.9-.7.4-1.6.4-2.3-.1-.3-.2-.6-.6-.8-1-.1-.4-.3-.7-.4-1.1-.6-1.4-1.2-2.9-1.8-4.4l-.2-.5h.1c-1.4-.4-2.9-.9-4.2-1.4h-.2v-2.6h.2c1.4-.3,2.6-.5,3.9-.8v.4c-.4-.2-.6-.5-.7-.8,0-.4,0-.6,0-.9,0-.3,0-.6.2-.9.1-.3.4-.5.7-.6.3-.1.6-.1.9-.1h.8c.5,0,1,0,1.5,0,1.9,0,3.6,0,5,0,.4,0,.7,0,1,0,.3,0,.6.3.8.5.2.2.2.5.2.8s0,.4,0,.6c0,.8-.5,1.1-.5,1.1,0,0,.4-.3.3-1.1s0-.9-.3-1.3c-.1-.2-.4-.4-.7-.4-.3,0-.6,0-1,0-1.4,0-3.1,0-5,0-.5,0-1,0-1.5,0h-.8c-.3,0-.5,0-.7.1-.4.2-.6.6-.6,1.2,0,.3,0,.6,0,.8,0,.2.2.4.4.6l.5.3h-.5c-1.2.3-2.5.6-3.9.9l.2-.2v2.1l-.2-.2c1.4.5,2.8,1,4.2,1.5h.1s0,.1,0,.1l.2.5c.6,1.5,1.2,3,1.8,4.4.1.4.3.7.4,1.1.1.3.3.6.6.8.5.4,1.2.4,1.8.1.3-.2.5-.4.6-.7.1-.3.3-.6.4-.9.3-.6.5-1.2.8-1.9.5-1.2,1-2.3,1.4-3.4h0c0-.1.1-.1.1-.1,1.6-.4,3-.7,4.2-1v.2c-.1-1,0-2,0-2.8h0c-1-.1-1.7-.3-2.2-.4-.5-.1-.7-.2-.7-.2h0Z"/>
    </g>
    <circle class="st5" cx="372.2" cy="481" r="1"/>
    <circle class="st5" cx="506.9" cy="480.1" r="9.5"/>
    <g>
      <path class="st1" d="M513,470.2c.2-.2.4-.5.4-.9v-1c0-.7-.6-1.3-1.3-1.3h-9c-.7,0-1.3.6-1.3,1.3v1c0,.4.2.8.5,1l-4.1.8v2.3l4.5,1.6,2.6,6.4c.3.8,1,1.2,1.9,1.2s1.5-.5,1.9-1.3l2.6-6.5,4.5-1.1v-2.9l-3.1-.7h0Z"/>
      <path class="st5" d="M513,470.2s.3,0,.9.1c.6.1,1.3.2,2.3.4h0c0,1,0,1.9,0,3.1h0c0,.1-.1.1-.1.1-1.3.3-2.8.7-4.5,1.1h.1c-.5,1-.9,2.2-1.4,3.5-.2.6-.5,1.3-.8,2-.1.4-.2.7-.4,1-.2.4-.5.7-.9.9-.7.5-1.8.4-2.5-.1-.4-.3-.6-.7-.8-1.1-.1-.4-.3-.8-.5-1.1-.6-1.5-1.2-3.1-1.9-4.7l-.2-.5h.1c-1.5-.4-3-.9-4.5-1.5h-.2v-2.7h.2c1.4-.3,2.8-.6,4.1-.8v.4c-.4-.2-.6-.5-.7-.9,0-.4,0-.6,0-1,0-.3,0-.7.2-1,.2-.3.4-.6.7-.7.3-.1.7-.1.9-.1h.8c.5,0,1.1,0,1.6,0,2.1,0,3.9,0,5.4,0,.4,0,.7,0,1.1,0,.4,0,.7.3.8.6.2.3.2.6.2.8,0,.2,0,.5,0,.7,0,.4,0,.8-.2.9-.1.2-.2.2-.2.2,0,0,.4-.3.3-1.2,0-.4,0-1-.2-1.4-.2-.2-.4-.4-.7-.5-.3,0-.7,0-1,0-1.5,0-3.4,0-5.4,0-.5,0-1.1,0-1.6,0h-.8c-.3,0-.5,0-.8.1s-.4.3-.5.5c-.1.2-.1.5-.1.8,0,.3,0,.6,0,.9,0,.2.2.5.4.6l.4.3h-.5c-1.3.4-2.7.6-4.1.9l.2-.2v2.3l-.2-.2c1.5.5,3,1.1,4.5,1.6h.1s0,.1,0,.1l.2.5c.6,1.6,1.3,3.2,1.9,4.7.1.4.3.8.5,1.1.1.4.3.6.6.9.5.4,1.4.5,1.9.1.3-.2.5-.4.7-.7.1-.3.3-.7.4-1,.3-.7.5-1.3.8-2,.5-1.3,1-2.5,1.5-3.6h0c0-.1.1-.1.1-.1,1.7-.4,3.2-.7,4.5-1v.2c0-1.1,0-2.1,0-2.9h0c-1-.1-1.8-.3-2.3-.5-.5-.1-.8-.2-.8-.2h0Z"/>
    </g>
    <path class="st5" d="M508,480.5c0,.6-.5,1.1-1.1,1.1s-1.1-.5-1.1-1.1.5-1.1,1.1-1.1,1.1.5,1.1,1.1Z"/>
  </g>
  <path class="st5" d="M479.2,410.8s-.3,0-.8,0c-.6,0-1.4,0-2.4.1-2.1.1-5.1.3-8.7.5-7.4.4-17.5,1-28.7,1.8-11.2.7-21.3,1.4-28.7,1.9-3.6.2-6.6.4-8.7.5-1,0-1.8,0-2.4.1-.5,0-.8,0-.8,0s.3,0,.8-.1c.6,0,1.4-.1,2.4-.2,2.1-.2,5.1-.4,8.7-.7,7.4-.5,17.5-1.3,28.7-2,11.2-.7,21.4-1.3,28.7-1.6,3.7-.2,6.7-.2,8.7-.3,1,0,1.8,0,2.4,0,.5,0,.8,0,.8,0h0Z"/>
  <g>
    <path class="st6" d="M345.4,205.6s-13.8,4.8-18.7,14.1c-2.7,5.1-10.3,34.8-10.3,34.8l-5.4,27.5-12.4,33.3s4.9,5.4,27.5,8,34.7,6.1,34.7,6.1c0,0,1.9-29.6,3.9-41.6s6.8-47.6,6.7-51c-.1-3.4-3.8-19-3.8-19,0,0-7.2-3.4-11.7-6.4-4.4-3-10.5-5.8-10.5-5.8h0Z"/>
    <g class="st8">
      <path d="M313.5,276.9s3.8,5,10.1,9.7,34.6,22.5,34.6,22.5l7.1-7.6-51.9-24.6h0Z"/>
    </g>
    <path class="st4" d="M329,221.1s-16.9,49.2-16.1,54.6c.8,5.3,27.2,17,44.7,26.2l8.3-9.5-29.9-23s16.9-37.6,18.2-44c1.3-6.4-4.3-16-8.8-16.5s-16.5,12.2-16.5,12.2h0Z"/>
    <g>
      <path class="st6" d="M345.2,208.2c-8.5-.8-14.1,6.1-17.7,12.4s-10.7,31.3-10.7,31.3l28.4,8.6c.7-.8,10.3-28.9,10.6-34.8s-2.1-16.8-10.6-17.6Z"/>
      <path class="st5" d="M345.2,208.2s.1,0,.3,0c.2,0,.5,0,.9.1.8.1,1.8.5,3.1,1.2,1.2.8,2.6,2.1,3.6,3.9,1.1,1.8,1.9,4.1,2.4,6.7.5,2.6.7,5.6,0,8.7-.6,3.1-1.6,6.3-2.6,9.7-1,3.4-2.1,7-3.4,10.7-.6,1.9-1.2,3.8-1.9,5.7-.3,1-.7,1.9-1,2.9-.2.5-.4,1-.5,1.5-.2.5-.4,1-.7,1.5h0c0,.1-.2,0-.2,0-4.1-1.2-8.4-2.6-12.8-3.9-5.4-1.6-10.6-3.2-15.6-4.8h-.2c0,0,0-.3,0-.3,2.3-7.7,4.5-14.9,6.7-21.3,1.1-3.2,2.2-6.2,3.5-8.9,1.3-2.7,2.9-5,4.5-6.9,1.6-1.9,3.3-3.4,5-4.5,1.7-1.1,3.3-1.6,4.7-1.9.7-.1,1.3-.2,1.8-.2.5,0,1,0,1.3,0,.3,0,.6,0,.8,0,.2,0,.3,0,.3,0,0,0-1.5-.2-4.2.3-1.3.3-2.9.9-4.6,1.9-1.6,1.1-3.3,2.6-4.9,4.5-1.5,1.9-3.1,4.2-4.4,6.9-1.3,2.7-2.3,5.7-3.4,8.9-2.2,6.4-4.4,13.6-6.6,21.3l-.2-.3c5,1.5,10.2,3.1,15.6,4.8,4.4,1.3,8.7,2.6,12.8,3.9h-.2c2.9-7.6,5.4-15.2,7.4-22,1-3.4,2-6.6,2.6-9.7.8-3,.5-6,0-8.5-.5-2.6-1.3-4.8-2.3-6.6-1-1.8-2.3-3.1-3.5-3.9-1.2-.8-2.3-1.1-3-1.3-.4,0-.6-.1-.8-.2-.2,0-.3,0-.3,0h0Z"/>
    </g>
    <path class="st1" d="M369.6,319.5c-.5,0-.9-.2-1.2-.6l-6.6-9.5c-.5-.7-.3-1.6.4-2.1.7-.5,1.6-.3,2.1.4l6.6,9.5c.5.7.3,1.6-.4,2.1-.3.2-.6.3-.9.3h0Z"/>
    <path class="st3" d="M368.9,309.8c0,3.8-3,6.8-6.8,6.8s-6.8-3-6.8-6.8,3-6.8,6.8-6.8,6.8,3,6.8,6.8Z"/>
    <path class="st4" d="M355.3,297s.7,4.3,1.8,5.9c1.1,1.6,2.6.8,4.2,1.3,1.6.5,2,1.2,2.3,2.2s1.5,8.1,2.8,9c.9.6,2.1.2,2.1-.8s-1.3-10.1-1.3-10.1c0,0,2.2,5.1,2.3,6.9s.2,5.7,1.9,5.9c.9.1,1.4.1,1.7-1.4.3-1.6.5-4.9.3-6.1-.1-1.2-1-5.1-1-5.1,0,0,2.5,4.9,2.5,6,0,1.1-1.1,1.9-.4,2.7.7.8,2.3.5,2.9-.2.6-.7,1.5-3.5,1.4-4.4s-1.5-5.1-1.5-5.1c0,0,2.2,3.1,2.4,4.3.2,1.2,0,6,.7,6.6.8.6,2.1,1,2.5-.6.3-1.6.5-5.9.5-7s-3.8-7.3-4.6-8.4-4.7-1.8-5.6-2.3c-.9-.5-8.2-4.4-8.2-4.4l-9.8,5.2h0Z"/>
    <path class="st5" d="M367.6,217.8s0,.2.2.5c.1.4.3.9.5,1.5.4,1.4,1,3.3,1.8,5.6h0c.5,3,.8,6.8,1,11.2,0,1.1,0,2.2,0,3.4,0,1.1-.2,2.3-.3,3.5-.2,2.4-.4,4.9-.6,7.4-.9,9.2-1.9,17.6-2.9,23.6-.5,3-.9,5.4-1.2,7.1-.2.8-.3,1.4-.4,1.9-.1.4-.2.7-.2.7,0,0,0-.2,0-.7,0-.5.2-1.1.3-1.9.3-1.7.6-4.2,1.1-7.1.9-6,1.9-14.3,2.7-23.6.2-2.6.5-5.1.7-7.4.1-1.2.2-2.4.3-3.5,0-1.1,0-2.2,0-3.3-.1-4.3-.4-8.1-.8-11.1h0c-.7-2.4-1.2-4.3-1.6-5.7-.2-.6-.3-1.1-.4-1.5,0-.4-.1-.5-.1-.5h0Z"/>
  </g>
</svg>