<?xml version="1.0" encoding="UTF-8"?><svg id="Layer_1" xmlns="http://www.w3.org/2000/svg" viewBox="0 0 31.7 37"><defs><style>.cls-1{fill:none;}.cls-2{fill:#e0e0e0;}.cls-3{fill:#f7996e;}.cls-4{fill:#455b64;}.cls-5{fill:#fbbf9e;}.cls-6{fill:#263238;}.cls-7{fill:#d81616;}.cls-8{fill:#fff;}.cls-9{opacity:.3;}.cls-10{fill:#f5f5f5;}</style></defs><path class="cls-6" d="M11.8,3.7c0-.5,0-.9,0-1.4,0-.5.1-.9.4-1.3,0,0,.3-.4.4-.4,0,0-.2.4-.1.4.2.4.1.9,0,1.4s-.3.9-.5,1.3"/><path class="cls-5" d="M11.3,5.9l.8-4c.2-1.1,1-2,2.1-1.7h0c1,.3,1.7,1.3,1.5,2.4-.2,1-.4,2.1-.5,2.6-.3,1.1-1.4,1-1.4,1,0,0-.3,1.2-.3,1.5l-1.6-.5h-.4c0-.1-.3-1.1-.3-1.1h0Z"/><path class="cls-3" d="M13.9,6.1s-.7-.1-1.3-.8c0,0,.1.9,1.2,1.1v-.3c0,0,0,0,0,0h0Z"/><path class="cls-6" d="M15.3,3.5c0,0,0,.1-.2.1,0,0-.1,0-.1-.2,0,0,0-.1.2-.1s.1,0,.1.2h0Z"/><path class="cls-6" d="M15.5,3s-.1,0-.3-.1c-.2,0-.3,0-.3,0,0,0,0,0,0,0,0,0,.2,0,.3,0s.2,0,.2.1c0,0,0,0,0,0h0,0Z"/><path class="cls-6" d="M13.8,3.2c0,0,0,.1-.2.1,0,0-.1,0-.1-.2,0,0,0-.1.2-.1,0,0,.1,0,.1.2h0Z"/><path class="cls-6" d="M13.9,2.6s-.1,0-.3-.1c-.2,0-.3,0-.3,0,0,0,0,0,0,0,0,0,.2,0,.3,0s.2,0,.2.1c0,0,0,0,0,0h0,0Z"/><path class="cls-6" d="M14.1,4s.1,0,.3,0c0,0,0,0,0,0,0,0,0,0,0-.1,0-.1,0-.2,0-.4,0-.5,0-.9,0-.9s0,.4.1.9c0,.1,0,.2,0,.4,0,0,0,.1,0,.2,0,0,0,0,0,0h0c-.2,0-.3,0-.3,0h0,0Z"/><path class="cls-6" d="M14.1,2s-.2,0-.4,0c-.2,0-.4,0-.4-.1s0,0,.1,0c0,0,.2,0,.3,0s.2,0,.3.1,0,0,0,.1h0Z"/><path class="cls-6" d="M15.6,2.3s-.2,0-.3,0c-.2,0-.3,0-.3,0,0,0,0,0,0,0,0,0,.2,0,.3,0,.1,0,.2,0,.2.1,0,0,0,0,0,.1h0s0,0,0,0Z"/><path class="cls-5" d="M12,2.7s-.7-.4-.8.3c-.2.7.6.8.6.7s.2-1,.2-1h0Z"/><path class="cls-3" d="M11.6,3.5s0,0,0,0c0,0,0,0,0,0,0,0-.1-.2,0-.3,0,0,0-.1,0-.2,0,0,0,0,.1,0s0,0,0,0h0s0,0,0,0,0,0,0,0c0,0,0,0,0,0,0,0-.1,0-.2,0,0,0,0,.1,0,.2,0,.1,0,.3.1.4,0,0,0,0,.1,0,0,0,0,0,0,0h0s0,0,0,0Z"/><path class="cls-6" d="M15.6,1.2c.1,0-.1-.5-.4-.7C14.8.2,14.2,0,13.7,0c-.5,0-1,.2-1.3.6-.3.4-.5.9-.6,1.4,0,.2,0,.3,0,.5,0,.2.2.3.2.6,0,0,0,.2,0,.2,0,.2.3,0,.4,0,.2-.3.3-.6.4-.9,0-.2.1-.5,0-.7,0-.1,0-.3,0-.4s0-.3.1-.4c0,0,0,0,0,0,.2-.1.6-.1.8,0,.4.2,1,.6,1.3.5.3-.1.4-.3.4-.3v.2h.1s0,0,0,0Z"/><path class="cls-6" d="M13.6,4s0,.2.1.3c.1.2.3.2.3.2s0,0-.1,0c0,0-.2,0-.3-.2s0-.2,0-.3c0,0,0-.1,0-.1h0Z"/><path class="cls-5" d="M15.4,12.9l2.8,1.1-.3,1.3-2.9-.6c-.6,0-1.1-.5-1.4-1l-1-2.4,1.6-1.5,1.2,3.1h0s0,0,0,0Z"/><path class="cls-5" d="M18.1,15.7c.3.1.6.2.6.2h.3c0,.1,0,.1,0,.1,0,0,0,0,0,0,0,0,0,.1,0,.2.1,0,.3.1.4,0s.2-.2.3-.3c0,0,0,0,0,0,.1-.3,0-.6,0-.6h.1s.3.2.2.8c0,0,0,.2,0,.2,0,0,0,0,.1,0,.1,0,.2,0,.2-.4,0-.3,0-.7-.2-.9s-.2-.2-.2-.2c0,0,1,.1,1,.1.2,0,.3,0,.4-.2,0,0,0-.2-.2-.2-.2,0-2-.5-2-.5l-.8-.2h-.7s-.3,1-.3,1l.2.2c.1.2.3.3.5.4h0s0,0,0,0Z"/><path class="cls-5" d="M18.4,14.2c0,0,0,.2,0,.3s.2,0,.3.2c.3.2.3.5.6.7,0,0,0,0,.1,0,0,0,0,0,0-.1-.1-.3-.3-.7-.4-1"/><path class="cls-3" d="M19.2,14.3s0,0,0,0,0,.2.1.3.1.3.2.4c0,0,0,0,0,.1,0,0,0,0,0,.2,0,0,0,0,0,0,0,0,0,0,0,0,0,0,0,0-.1,0-.1-.1-.2-.3-.3-.5s-.1-.1-.2-.2-.1,0-.2-.1c-.1,0-.2-.2-.2-.2s0-.1,0-.1c0,0,0,0,0,.1,0,0,0,.2.2.2,0,0,.1,0,.2,0s.1.1.2.2c.1.1.2.3.3.4s0,0,.1,0c0,0,0,0,0,0,0,0,0,0,0-.1s0,0,0-.1c0-.2-.1-.3-.2-.4,0-.1,0-.2,0-.3s0-.1,0-.1h0s0,0,0,0Z"/><path class="cls-3" d="M19.7,15.3s0,0,.2,0c0,0,0,0,0,.2,0,0,0,.2,0,.3,0,0,0,.2,0,.3,0,0,0,.2,0,.2,0,0,0,0,.1,0s0,0,0,0h0s0,0-.1,0,0-.1,0-.2,0-.2,0-.3,0-.2,0-.3c0,0,0-.2-.1-.2,0,0,0,0-.1,0s0,0,0,0h0s0,0,0,0Z"/><path class="cls-3" d="M21.1,15.1s0,0-.2,0c-.1,0-.3,0-.5,0-.2,0-.3,0-.5,0s-.2,0-.2,0c0,0,0,0,.2,0,.1,0,.3,0,.5,0s.3,0,.5,0h.2,0Z"/><path class="cls-3" d="M19.4,15.5s0,0,0,0c0,0,0,0,0,.1,0,0,0,0,0,0s0,0-.1,0,0,0-.2,0,0,0,0,.1c0,0,0,.1,0,.2,0,0,0,0,.1,0,0,0,.2,0,.2,0s.1,0,.2,0c0,0,0,0,0,0,0,0,0,0,0,0,0,0,0,0-.2,0s-.2,0-.2,0c0,0-.2-.1-.1-.2,0,0,0,0,0-.1s0,0,.1,0c0,0,0,0,.1,0s0,0,.1,0c0,0,0-.1,0-.2s0,0,0,0h0,0Z"/><path class="cls-3" d="M19.1,16h0s0,0-.1,0c0,0,0,.2,0,.2s.1.1.2.1c0,0,.2,0,.3,0,0,0,.1,0,.2-.2s0,0,0-.1,0,0,0,0c0,0,0,0,0,.2,0,0,0,0-.2.1s-.2,0-.2,0c0,0-.2,0-.2-.1s0-.1,0-.2,0,0,0,0c0,0,0,0,0,0h0s0,0,0,0Z"/><path class="cls-3" d="M18.5,15.3s0,0,0,0,0-.1,0-.2h0s.1,0,.1,0c.3,0,.4-.1.4-.1s-.2,0-.4,0h-.2,0c0,0,0,.2,0,.2,0,0,0,0,0,0h0Z"/><path class="cls-3" d="M20.1,15.5s0,0-.1,0c0,0,0,.2,0,.2s0,0,0-.1c0,0,0-.1,0-.1h0Z"/><path class="cls-7" d="M13.9,7.8s-.1-.9-.1-.9c0,.3.5.8.7,1.8,0,.4.8,3.1.8,3.1l-2,.9v-2.2c-.1,0,.7-2.7.7-2.7h0Z"/><path class="cls-6" d="M28,21.9s0-.3-.2-.7c0-.2-.2-.4-.4-.6s-.5-.3-.8-.3c-.3,0-.6.2-.7.4s-.3.5-.3.7c-.1.4,0,.7-.1.7v-.2c0-.1,0-.3,0-.5,0-.2.2-.5.3-.7.2-.2.4-.4.8-.4s.6.1.8.3c.2.2.3.4.4.6,0,.2.1.4.2.5,0,0,0,.1,0,.1h0c0,0,0,0,0,0h0Z"/><path class="cls-6" d="M28.5,21.9s0-.3-.2-.7c0-.2-.2-.4-.4-.6s-.5-.3-.8-.3c-.3,0-.6.2-.7.4s-.3.5-.3.7c-.1.4,0,.7-.1.7v-.2c0-.1,0-.3,0-.5,0-.2.2-.5.3-.7.2-.2.4-.4.8-.4s.6.1.8.3c.2.2.3.4.4.6,0,.2.1.4.2.5,0,0,0,.1,0,.1h0c0,0,0,0,0,0h0Z"/><polygon class="cls-7" points="23.9 21.9 28.9 21.5 29.5 27.7 23.9 28.2 23.9 21.9"/><polygon class="cls-7" points="28.9 21.5 29.6 21.4 30.6 27.6 29.5 27.7 28.9 21.5"/><g class="cls-9"><polygon points="28.9 21.5 29.6 21.4 30.6 27.6 29.5 27.7 28.9 21.5"/></g><rect class="cls-8" x="25" y="23.8" width="3.3" height=".6" transform="translate(-1.7 2.1) rotate(-4.3)"/><path class="cls-6" d="M21.6,18.2s0-.2-.1-.6c0-.2-.2-.4-.3-.5-.2-.2-.4-.3-.6-.3s-.5.1-.6.3c-.2.2-.3.4-.3.5-.1.4-.1.6-.1.6h0c0,0,0-.1,0-.2,0-.1,0-.3.1-.4s.2-.4.3-.6c.2-.2.4-.3.7-.3s.5.1.7.3c.2.2.3.4.3.6s0,.3,0,.4c0,0,0,0,0,.1s0,0,0,0h0s0,0,0,0Z"/><path class="cls-6" d="M22,18.2s0-.2-.1-.6c0-.2-.2-.4-.3-.5-.2-.2-.4-.3-.6-.3s-.5.1-.6.3c-.2.2-.3.4-.3.5-.1.4-.1.6-.1.6h0c0,0,0-.1,0-.2,0-.1,0-.3.1-.4s.2-.4.3-.6.4-.3.7-.3.5.1.7.3c.2.2.3.4.3.6s0,.3,0,.4c0,0,0,0,0,.1s0,0,0,0h0s0,0,0,0Z"/><polygon class="cls-4" points="18.1 17.9 22.4 17.9 22.5 23.3 17.6 23.3 18.1 17.9"/><polygon class="cls-4" points="22.4 17.9 22.9 17.9 23.4 23.3 22.5 23.3 22.4 17.9"/><g class="cls-9"><polygon points="22.4 17.9 22.9 17.9 23.4 23.3 22.5 23.3 22.4 17.9"/></g><rect class="cls-8" x="18.8" y="19.7" width="2.8" height=".5"/><path class="cls-2" d="M21,20.9s-1.3.2-1.4.4c0,0,0,.9,1,1.8l-.2.4v.6c.4-.9.8-2.1.8-2.1,0,0,0-.9-.3-1.1h0Z"/><g class="cls-9"><path d="M21,21s-.4,1.2,0,2c0,0,.5-1.1,0-2Z"/></g><path class="cls-2" d="M23.1,22.3s-.7-1.1-.9-1.1c0,0-.8.4-1.2,1.7h-.4s-.3-.9-1.5-1.4c0,0-.6,1.2-.6,1.2,0,0,.6.5,1.5.5.9,0,2.2-.2,2.2-.2,0,0,.8-.4.9-.7h0s0,0,0,0Z"/><g class="cls-9"><path d="M20.3,23.1s-1-.5-1.8-.4c0,0,1,.7,1.8.4Z"/></g><g class="cls-9"><path d="M23,22.3s-1.2.2-1.8.8c0,0,1.2,0,1.8-.8Z"/></g><polygon class="cls-7" points="25 22.8 25 27.9 17.2 28.5 16.7 23.3 25 22.8"/><g class="cls-9"><polygon points="23.5 22.9 23.9 28 25 27.9 25 22.8 23.5 22.9"/></g><polygon class="cls-10" points="24.4 22.8 24.5 28 24.3 28 23.9 22.9 24.4 22.8"/><rect class="cls-10" x="20" y="23.2" width=".7" height="5.1" transform="translate(-1.6 1.4) rotate(-3.7)"/><rect class="cls-10" x="16.9" y="25.3" width="8.1" height=".5" transform="translate(-1.9 1.6) rotate(-4.3)"/><path class="cls-2" d="M17.8,28.4s0,0,0,0l-2-10.2s0,0,0,0c0,0,0,0,0,0l2,10.2s0,0,0,0h0,0Z"/><path class="cls-2" d="M19.6,28.3s0,0,0,0l-1.8-9.5s0,0,0,0,0,0,0,0l1.8,9.5s0,0,0,0h0Z"/><path class="cls-2" d="M21.2,28.2s0,0,0,0l-1.4-9.3s0,0,0,0c0,0,0,0,0,0l1.4,9.3s0,0,0,0h0Z"/><path class="cls-2" d="M23.1,28.3s0,0,0,0l-1.3-9.1s0,0,0,0c0,0,0,0,0,0l1.3,9.1s0,0,0,0h0Z"/><path class="cls-2" d="M24.8,27.9s0,0,0,0l-1.2-8.4s0,0,0,0c0,0,0,0,0,0l1.2,8.4s0,0,0,0h0Z"/><path class="cls-2" d="M26.7,28.1s0,0,0,0l-1.2-8.4s0,0,0,0c0,0,0,0,0,0l1.2,8.4s0,0,0,0h0Z"/><path class="cls-2" d="M28.4,27.9s0,0,0,0l-.8-7.9s0,0,0,0,0,0,0,0l.8,7.9s0,0,0,0h0Z"/><path class="cls-2" d="M29.7,27.9s0,0,0,0l-.3-7.6s0,0,0,0,0,0,0,0l.3,7.6s0,0,0,0h0Z"/><path class="cls-2" d="M15.9,26.7c.5,0,1,0,1.5,0,1.2,0,2.4-.1,3.7-.2,1.5,0,2.9-.1,4.4-.2,1.3,0,2.5-.1,3.8-.2.4,0,.8,0,1.3,0,.2,0,.4,0,.6,0h0c0,0,0-.1,0-.1-.5,0-1,0-1.5,0-1.2,0-2.4.1-3.7.2-1.5,0-2.9.1-4.4.2-1.3,0-2.5.1-3.8.2-.4,0-.8,0-1.3,0-.2,0-.4,0-.6,0h0c0,0,0,.1,0,.1h0Z"/><path class="cls-2" d="M15.4,24c.5,0,1,0,1.6,0,1.3,0,2.5,0,3.8,0,1.5,0,3,0,4.6,0,1.3,0,2.6,0,4,0h1.3c.2,0,.4,0,.6,0h0c0,0,0-.1,0-.1-.5,0-1,0-1.6,0-1.3,0-2.5,0-3.8,0-1.5,0-3,0-4.6,0-1.3,0-2.6,0-4,0-.4,0-.9,0-1.3,0s-.4,0-.6,0h0c0,0,0,.1,0,.1h0Z"/><path class="cls-2" d="M14.7,20.9c.6,0,1.1.1,1.7.2,1.3.1,2.6.3,4,.4,1.6.2,3.2.3,4.8.5,1.4.1,2.8.3,4.1.4.5,0,.9,0,1.4.1.2,0,.4,0,.6,0h0c0,0,0-.1,0-.1-.6,0-1.1-.1-1.7-.2-1.3-.1-2.6-.3-4-.4-1.6-.2-3.2-.3-4.8-.5-1.4-.1-2.8-.3-4.1-.4-.5,0-.9,0-1.4-.1-.2,0-.4,0-.7,0h0c0,0,0,.1,0,.1h0Z"/><path class="cls-2" d="M16.8,28.8c-.4,0-.8-.3-.8-.7l-2.2-10.1c0,0,0-.1,0-.2s.1,0,.2,0l17.5,2.7c.1,0,.2.1.2.2l-.4,6.6c0,.4-.4.8-.8.8l-13.6.7h0ZM14.3,18.2l2.1,9.8c0,.2.2.4.4.3l13.6-.7c.2,0,.4-.2.4-.4l.4-6.4-17-2.6h0Z"/><path class="cls-1" d="M16.8,28.8c-.4,0-.8-.3-.8-.7l-2.2-10.1c0,0,0-.1,0-.2s.1,0,.2,0l17.5,2.7c.1,0,.2.1.2.2l-.4,6.6c0,.4-.4.8-.8.8l-13.6.7h0ZM14.3,18.2l2.1,9.8c0,.2.2.4.4.3l13.6-.7c.2,0,.4-.2.4-.4l.4-6.4-17-2.6h0Z"/><path class="cls-6" d="M14.3,18.2s0,0,0,0c0,0,.1,0,.2,0,.2,0,.5,0,.9.1.8.1,2,.3,3.5.5,3,.5,7.3,1.1,12.2,1.8h0c0,1.1-.1,2.3-.2,3.5,0,.6,0,1.2-.1,1.8,0,.3,0,.6,0,.9v.2c0,0,0,.2,0,.2,0,.1-.2.2-.4.2-3.3.2-6.5.4-9.4.5-1.4,0-2.8.2-4.1.2-.2,0-.3,0-.4-.2,0,0,0,0,0-.1,0,0,0,0,0-.1,0,0,0-.2,0-.2,0-.3-.1-.6-.2-.9-.1-.6-.2-1.1-.4-1.7-.9-4.3-1.4-6.8-1.5-6.9,0,.2.6,2.7,1.5,6.9.1.5.2,1.1.4,1.7,0,.3.1.6.2.9,0,0,0,.2,0,.2s0,.2,0,.2c0,.1.2.2.4.2,1.3,0,2.7-.1,4.1-.2,2.9-.2,6.1-.3,9.4-.5.1,0,.3,0,.4-.2,0,0,0-.1,0-.2v-.2c0-.3,0-.6,0-.9,0-.6,0-1.2.1-1.8,0-1.2.1-2.3.2-3.4h0c-4.9-.7-9.1-1.4-12.2-1.9-1.5-.2-2.7-.4-3.5-.6-.4,0-.7-.1-.9-.1-.1,0-.2,0-.2,0,0,0,0,0,0,0h0Z"/><path class="cls-6" d="M16.8,28.8c0,0,.7,0,2-.1,1.3,0,3.2-.2,5.5-.3s2.4-.1,3.8-.2c1.4,0,1.4,0,2.1-.1,0,0,.2,0,.3,0,0,0,.2,0,.3,0,.2,0,.3-.2.4-.4,0,0,0-.2,0-.3,0,0,0-.2,0-.3,0-.2,0-.4,0-.6,0-1.5.2-3.2.3-4.8,0-.2,0-.4,0-.6,0-.1,0-.2,0-.3,0,0,0,0,0-.1,0,0,0,0,0,0,0,0,0,0-.2,0h-.2c-.1,0-.2,0-.3,0-.2,0-.4,0-.6,0-.9-.1-1.7-.3-2.6-.4-3.5-.5-6.9-1-9.9-1.5-.8-.1-1.5-.2-2.2-.3-.4,0-.7-.1-1.1-.2,0,0-.2,0-.3,0h-.1s0,0-.1,0c0,0-.1,0-.1.2,0,0,0,0,0,.1h0c.3,1.5.6,2.7.8,3.9.5,2.3.9,4.1,1.1,5.4,0,.3.1.6.2.8s.2.4.3.5c.1,0,.3.1.4.1,0,0,.1,0,.1,0h-.1c0,0-.2,0-.4-.1s-.3-.3-.4-.5c0-.2-.1-.5-.2-.8-.3-1.3-.7-3.1-1.2-5.4-.2-1.1-.5-2.4-.8-3.7h0c0-.2,0-.2,0-.3,0,0,0-.2.2-.2,0,0,0,0,.1,0h.1c0,0,.2,0,.3,0,.4,0,.7.1,1.1.2.7.1,1.5.2,2.2.3,3,.5,6.4,1,9.9,1.5.9.1,1.7.3,2.6.4.2,0,.4,0,.6,0,.1,0,.2,0,.3,0h.2c0,0,0,0,.2,0,0,0,0,0,.1.1s0,.1,0,.2c0,.1,0,.2,0,.3,0,.2,0,.4,0,.6,0,1.7-.2,3.3-.3,4.8,0,.2,0,.4,0,.6,0,0,0,.2,0,.3,0,0,0,.2,0,.3,0,.2-.2.3-.4.4,0,0-.2,0-.3,0,0,0-.2,0-.3,0-.7,0-1.4,0-2.1.1-1.4,0-2.6.1-3.8.2-2.3.1-4.2.2-5.5.3s-1.1,0-1.5,0c-.2,0-.3,0-.4,0h-.2s0,0,0,0Z"/><path class="cls-6" d="M6.5,16.9s-.3,1-.2,1.7c0,.7.4,1.7.4,1.7l-.3,4.5h0s-1.5,1.5-2,2.1c-.5.6-3.5,4-3.5,4l2.3,2s3.8-3.8,4.6-4.6c.8-.9,1.7-1.4,2-2.6s1.1-5.4,1.1-5.4l.9-1.6-.2-1.5-4.9-.3h0Z"/><path class="cls-6" d="M8.3,25.6c0,.2-2.1,8.3-2.1,8.3l3.2.8c0,0,.7-3,1.3-5.4.6-2.1.9-2.8,1-3.7.1-.9.8-6,.8-6.3,0-.3.1-.8.1-.8l-2.7-.6-1.6,7.7h0s0,0,0,0Z"/><path class="cls-4" d="M11.3,19.3s0,0,0,0,0,0,0,.1c0,.1-.2.3-.3.5h0c0,.6-.3,1.7-.5,2.9-.1.6-.3,1.3-.4,2.1,0,.2,0,.4-.1.6,0,0,0,.2,0,.3,0,0,0,.2,0,.3,0,0,0,.2-.1.3,0,0-.1.2-.2.2-.1.2-.3.3-.4.5-.8.9-1.5,1.6-2.2,2.3-.7.7-1.3,1.3-1.8,1.9-.5.5-1,1-1.3,1.2-.1.1-.3.3-.3.3,0,0,0,0,0,0s0,0,0,0c0,0,0,0,0,0h0c0-.2.2-.3.3-.4.3-.3.7-.7,1.2-1.2.5-.5,1.1-1.2,1.8-1.9.7-.7,1.4-1.5,2.2-2.3.1-.2.3-.3.4-.5.1-.2.3-.3.3-.5,0,0,0-.2,0-.3,0,0,0-.2,0-.3,0-.2,0-.4.1-.6.2-.7.3-1.4.4-2.1.2-1.3.4-2.3.5-2.9h0c.2-.2.3-.4.4-.5,0,0,0,0,0-.1,0,0,0,0,0,0h0Z"/><path class="cls-6" d="M3.9,31.9l-1.5,1.6s1.1,2.1.8,2.4L0,33l2.3-2.6,1.6,1.4h0s0,0,0,0Z"/><path class="cls-2" d="M1.5,32.4c0,0-.2,0-.2,0s0,.2,0,.2.2,0,.2,0c0,0,0-.2,0-.2"/><path class="cls-4" d="M0,33l.2-.3,3,2.8s0,.2,0,.3L0,33H0Z"/><path class="cls-8" d="M2.4,33.5s0,0-.2,0-.2,0-.2,0c0,0,0,0,.2,0,.1,0,.2.1.2.1h0s0,0,0,0Z"/><path class="cls-8" d="M2.6,33.9s0,0-.2,0-.2,0-.2,0c0,0,0-.1.2-.1s.2,0,.2,0h0s0,0,0,0Z"/><path class="cls-8" d="M2.4,34.5s0-.1.1-.2c.1,0,.2,0,.2,0,0,0,0,0-.2,0,0,0-.2,0-.2,0h0,0Z"/><path class="cls-8" d="M2.7,33.1s0,0-.2-.2c0,0-.2-.1-.2-.1,0,0,.1,0,.2,0,.1,0,.1.2.1.2h0s0,0,0,0Z"/><path class="cls-6" d="M9,33.4l-.4,1.7v.3s2.2.8,2.2,1.2h-4.3v-1.3l.5-2.3,2,.3h0Z"/><path class="cls-2" d="M7.3,35.3c0,0-.1.1-.1.2,0,0,.1.1.2.1s.2-.1.1-.2c0,0-.1-.1-.2,0"/><path class="cls-4" d="M6.6,36.7v-.3s4.1.1,4.1.1c0,0,.2,0,.2.2h-4.3Z"/><path class="cls-8" d="M8.7,35.4s-.1,0-.2,0c-.1,0-.2.2-.2.1,0,0,0-.1.1-.2.1,0,.3,0,.2,0h0Z"/><path class="cls-8" d="M9.1,35.6s0,0-.2.1c0,0,0,.2-.1.2s0-.1,0-.2.2-.1.2,0h0s0,0,0,0Z"/><path class="cls-8" d="M9.4,36.1s0,0,0-.2c0-.1.2-.2.2-.1s0,0,0,.2,0,.2,0,.2h0s0,0,0,0Z"/><path class="cls-8" d="M8.6,34.9s-.1,0-.2,0-.2,0-.2,0c0,0,0,0,.2,0,.1,0,.2,0,.2,0h0Z"/><path class="cls-2" d="M14.4,34.9s0,0-.1,0c0,0-.1-.2,0-.3l3.1-4.9c.4-.6,1-1,1.7-1.1.5,0,1,0,1.4.3l8,4.5h0c.5.3.8.7.8,1.1,0,.1,0,.2-.2.2-.1,0-.2,0-.2-.2,0-.2-.2-.5-.6-.8l-8-4.5c-.4-.2-.8-.3-1.2-.2-.6,0-1.1.4-1.4.9l-3.1,4.9c0,0-.1,0-.2,0h0s0,0,0,0Z"/><path class="cls-6" d="M14.4,34.9s0,0,0,0c0,0,0,0,0,0,0,0,0,0,0-.1.1-.2.3-.5.6-.9.5-.8,1.2-1.9,2.1-3.3.1-.2.2-.4.3-.5.1-.2.2-.4.4-.5.3-.3.8-.5,1.3-.5.2,0,.5,0,.7.1.1,0,.2,0,.3.2s.2.1.3.2c.5.3.9.5,1.4.8,1.9,1.1,4,2.3,6.2,3.5h0c.1,0,.3.2.4.3s.2.3.2.4c0,0,0,0,0,.1,0,0,0,0,0,0,0,0,.1,0,.2,0s0,0,0,0h0c0-.2,0-.3,0-.3-.1-.3-.4-.6-.7-.7-.3-.2-.6-.3-.9-.5-.6-.3-1.2-.7-1.7-1-1.1-.6-2.2-1.3-3.3-1.9-.5-.3-1-.6-1.5-.9-.3-.1-.5-.3-.7-.4s-.5-.2-.8-.2c-.5,0-1,0-1.5.3-.2.1-.4.3-.5.5-.2.2-.3.4-.4.6-1,1.5-1.8,2.8-2.3,3.6-.3.4-.5.8-.6,1,0,0,0,.1,0,.2s0,0,0,0c0,0,0,0,0,0h0s0,0,0,0c0,0,0,0,0,0,0,0,0-.1,0-.2.1-.2.4-.6.6-1,.6-.9,1.3-2.1,2.3-3.7.1-.2.2-.4.4-.6.2-.2.3-.3.6-.5.4-.3,1-.4,1.5-.4.3,0,.5,0,.8.2.3.1.5.3.7.4.5.3,1,.6,1.5.9,1,.6,2.2,1.2,3.3,1.9.6.3,1.1.7,1.7,1,.3.2.6.3.9.5.3.2.6.4.7.8,0,0,0,.2,0,.2,0,0,0,0,0,.1,0,0,0,0,0,.1,0,0-.2,0-.3,0,0,0,0,0,0,0s0,0,0-.1c0-.2-.1-.3-.2-.4-.1-.1-.2-.2-.4-.3h0c-2.2-1.3-4.3-2.4-6.2-3.5-.5-.3-.9-.5-1.4-.8-.1,0-.2-.1-.3-.2s-.2-.1-.3-.2c-.2,0-.5-.1-.7-.1-.5,0-.9.2-1.2.5-.2.2-.3.3-.4.5s-.2.4-.3.5c-.9,1.4-1.6,2.5-2.1,3.3-.2.4-.4.7-.6.9,0,0,0,0,0,.1,0,0,0,0,0,0,0,0,0,0,0,0h0s0,0,0,0Z"/><circle class="cls-6" cx="14.2" cy="36" r="1"/><path class="cls-2" d="M14.9,35s0,0,0,0h0c0-.2,0-.2-.1-.2h-.9c0,0-.1,0-.1.1h0c0,.1,0,.2,0,.2h-.4v.3l.5.2.3.7c0,0,.1.1.2.1s.2,0,.2-.1l.3-.7h.5v-.4h-.3c0,0,0,0,0,0h0Z"/><path class="cls-6" d="M14.9,35s0,0,0,0c0,0,.1,0,.2,0h0v.3h0s0,0,0,0c-.1,0-.3,0-.5.1h0c0,.1,0,.2-.1.4,0,0,0,.1,0,.2,0,0,0,0,0,.1,0,0,0,0,0,0,0,0-.2,0-.3,0,0,0,0,0,0-.1,0,0,0,0,0-.1,0-.2-.1-.3-.2-.5h0c0,0,0,0,0,0-.2,0-.3,0-.5-.2h0v-.3h0c.2,0,.3,0,.4,0h0s0,0,0,0h0c0-.1,0-.2,0-.2,0,0,0,0,0,0,0,0,0,0,0,0h.9s0,0,0,0c0,0,0,0,0,0h0c0,.2,0,.2,0,.2,0,0,0,0,0-.1s0,0,0-.1c0,0,0,0,0,0h-.9s0,0,0,0c0,0,0,0,0,.1h0c0,.1,0,.1,0,.2h0s0,0,0,0c-.1,0-.3,0-.4,0h0s0,.2,0,.2h0c.2,0,.3,0,.5.1h0s0,0,0,0c0,.2.1.3.2.5,0,0,0,0,0,.1,0,0,0,0,0,0,0,0,.1,0,.2,0,0,0,0,0,0,0,0,0,0,0,0,0,0,0,0-.1,0-.2,0-.1.1-.3.2-.4h0s0,0,0,0c.2,0,.3,0,.5-.1h0c0,0,0-.2,0-.3h0c-.1,0-.2,0-.2,0s0,0,0,0h0,0Z"/><circle class="cls-6" cx="14.2" cy="36.1" r=".1"/><circle class="cls-6" cx="29.1" cy="36" r="1"/><path class="cls-2" d="M29.8,34.9s0,0,0,0h0c0-.2,0-.3-.1-.3h-1c0,0-.1,0-.1.1h0c0,.2,0,.2,0,.2h-.5v.3l.5.2.3.7c0,0,.1.1.2.1s.2,0,.2-.1l.3-.7h.5v-.4h-.3c0,0,0,0,0,0h0Z"/><path class="cls-6" d="M29.8,34.9s0,0,0,0,.1,0,.3,0h0v.3h0s0,0,0,0c-.1,0-.3,0-.5.1h0c0,.1,0,.2-.2.4,0,0,0,.1,0,.2,0,0,0,0,0,.1,0,0,0,0,0,0,0,0-.2,0-.3,0,0,0,0,0,0-.1,0,0,0,0,0-.1,0-.2-.1-.3-.2-.5h0c0,0,0,0,0,0-.2,0-.3,0-.5-.2h0v-.3h0c.2,0,.3,0,.5,0h0s0,0,0,0h0c0-.1,0-.2,0-.2s0,0,0,0c0,0,0,0,0,0h1s0,0,0,0c0,0,0,0,0,0h0c0,.1,0,.2,0,.2,0,0,0,0,0,0,0,0,0,0,0-.1,0,0,0-.1,0-.2,0,0,0,0,0,0h-1s0,0,0,0,0,0,0,0,0,0,0,0h0c0,.1,0,.2,0,.2h0s0,0,0,0c-.1,0-.3,0-.5,0h0s0,.2,0,.2h0c.2,0,.3,0,.5.1h0s0,0,0,0c0,.2.1.4.2.5,0,0,0,0,0,.1,0,0,0,0,0,0,0,0,.2,0,.2,0,0,0,0,0,0,0,0,0,0,0,0-.1,0,0,0-.1,0-.2,0-.1.1-.3.2-.4h0s0,0,0,0c.2,0,.4,0,.5-.1h0s0-.3,0-.3h0c-.1,0-.2,0-.3,0,0,0,0,0,0,0h0s0,0,0,0Z"/><path class="cls-6" d="M29.3,36c0,0,0,.1-.1.1s-.1,0-.1-.1,0-.1.1-.1.1,0,.1.1Z"/><path class="cls-6" d="M26.1,28.3h0c0,0-.2,0-.3,0-.2,0-.6,0-1,0-.8,0-1.9.1-3.2.2-1.2,0-2.4.2-3.2.2-.4,0-.7,0-1,0-.1,0-.2,0-.3,0h0s0,0,0,0c0,0,.2,0,.3,0,.2,0,.6,0,1,0,.8,0,1.9-.1,3.2-.2s2.4-.1,3.2-.2c.4,0,.7,0,1,0h.4,0Z"/><path class="cls-7" d="M11.3,5.6s-1.5.5-2.1,1.6c-.3.6-1.1,3.9-1.1,3.9l-.6,3-1.4,3.7s.5.6,3,.9,3.8.7,3.8.7c0,0,.2-3.3.4-4.6.2-1.3.8-5.3.7-5.6,0-.4-.4-2.1-.4-2.1,0,0-.8-.4-1.3-.7-.5-.3-1.2-.6-1.2-.6h0Z"/><g class="cls-9"><path d="M7.7,13.5s.4.6,1.1,1.1c.7.5,3.8,2.5,3.8,2.5l.8-.8-5.7-2.7h0Z"/></g><path class="cls-5" d="M9.4,7.3s-1.9,5.4-1.8,6c0,.6,3,1.9,4.9,2.9l.9-1-3.3-2.5s1.9-4.2,2-4.9c.1-.7-.5-1.8-1-1.8s-1.8,1.3-1.8,1.3h0Z"/><path class="cls-7" d="M11.2,5.9c-.9,0-1.6.7-2,1.4-.4.7-1.2,3.5-1.2,3.5l3.1,1c0,0,1.1-3.2,1.2-3.9,0-.7-.2-1.9-1.2-1.9h0s0,0,0,0Z"/><path class="cls-6" d="M11.2,5.9h0s0,0,0,0c0,0,.2,0,.3.1.1,0,.3.2.4.4.1.2.2.5.3.7,0,.3,0,.6,0,1,0,.3-.2.7-.3,1.1s-.2.8-.4,1.2c0,.2-.1.4-.2.6,0,.1,0,.2-.1.3,0,0,0,.1,0,.2,0,0,0,.1,0,.2h0s0,0,0,0c-.5-.1-.9-.3-1.4-.4-.6-.2-1.2-.4-1.7-.5h0c.3-.9.5-1.7.7-2.4.1-.4.2-.7.4-1s.3-.6.5-.8.4-.4.6-.5.4-.2.5-.2c0,0,.1,0,.2,0h.3s-.2,0-.5,0c-.1,0-.3,0-.5.2-.2.1-.4.3-.5.5-.2.2-.3.5-.5.8s-.3.6-.4,1c-.2.7-.5,1.5-.7,2.4h0c.6.1,1.1.3,1.7.5.5.1,1,.3,1.4.4h0c.3-.8.6-1.7.8-2.4.1-.4.2-.7.3-1.1,0-.3,0-.7,0-.9,0-.3-.1-.5-.3-.7s-.3-.3-.4-.4c-.1,0-.3-.1-.3-.1,0,0,0,0,0,0h0s0,0,0,0Z"/><path class="cls-2" d="M13.9,18.2c0,0,0,0-.1,0l-.7-1c0,0,0-.2,0-.2,0,0,.2,0,.2,0l.7,1c0,0,0,.2,0,.2,0,0,0,0,0,0h0s0,0,0,0Z"/><path class="cls-4" d="M13.9,17.1c0,.4-.3.8-.8.8s-.8-.3-.8-.8.3-.8.8-.8.8.3.8.8Z"/><path class="cls-5" d="M12.4,15.7s0,.5.2.7.3,0,.5.1.2.1.3.2.2.9.3,1c0,0,.2,0,.2,0s-.1-1.1-.1-1.1c0,0,.2.6.3.8s0,.6.2.7c0,0,.2,0,.2-.2,0-.2,0-.5,0-.7,0-.1-.1-.6-.1-.6,0,0,.3.5.3.7s-.1.2,0,.3c0,0,.3,0,.3,0s.2-.4.2-.5-.2-.6-.2-.6c0,0,.2.3.3.5,0,.1,0,.7,0,.7,0,0,.2.1.3,0,0-.2,0-.7,0-.8s-.4-.8-.5-.9-.5-.2-.6-.3-.9-.5-.9-.5l-1.1.6h0s0,0,0,0Z"/><path class="cls-6" d="M13.7,7s0,0,0,0c0,0,0,0,0,.2,0,.2.1.4.2.6h0c0,.3,0,.8.1,1.2v.4c0,.1,0,.3,0,.4,0,.3,0,.5,0,.8,0,1-.2,1.9-.3,2.6s0,.6-.1.8c0,0,0,.2,0,.2,0,0,0,0,0,0h0c0-.1,0-.2,0-.3,0-.2,0-.5.1-.8,0-.7.2-1.6.3-2.6,0-.3,0-.6,0-.8,0-.1,0-.3,0-.4v-.4c0-.5,0-.9,0-1.2h0c0-.3-.1-.5-.2-.6,0,0,0-.1,0-.2,0,0,0,0,0,0h0s0,0,0,0Z"/></svg>